<svg width="16" height="22" viewBox="0 0 16 22" fill="none" xmlns="http://www.w3.org/2000/svg">
<g clip-path="url(#clip0_123_3258)">
<path d="M10.6944 5.18323C9.07296 3.88077 8.40844 2.43655 8.13377 1.3999C6.93764 2.65806 6.59209 3.96938 7.0794 5.4136C7.70848 7.28311 7.7705 8.40836 7.29205 9.08174C7.04396 9.42729 6.66297 9.62221 6.23768 9.62221H6.13136C5.68834 9.58677 5.33393 9.41843 5.07699 9.12604C4.65169 8.62101 4.66941 7.92991 4.73144 7.14134C4.74916 6.8844 4.68714 6.62745 4.58081 6.38822C3.90743 7.43373 2.87964 9.02858 2.00248 10.3045C1.30252 11.3234 0.903809 12.679 0.903809 14.0346V14.6726C1.22278 18.2787 4.26184 21.114 7.94771 21.114C11.8462 21.114 15.0182 17.942 15.0182 14.0435V13.9726C15.2751 10.8006 13.6891 7.60208 10.6767 5.19209L10.6944 5.18323ZM7.97429 19.7583C5.54658 19.7583 3.5796 17.7914 3.5796 15.3637C3.5796 14.5397 3.80997 13.7688 4.20868 13.1043C4.55423 14.3713 5.70606 15.3105 7.08826 15.3105C8.73627 15.3105 10.0653 13.9726 10.0653 12.3335C10.0653 12.0233 10.0121 11.7132 9.92354 11.4297C11.3678 12.1474 12.3601 13.6359 12.3601 15.3637C12.3601 17.7914 10.3931 19.7583 7.96543 19.7583H7.97429Z" fill="white"/>
<path d="M11.2437 4.4921C9.75513 3.30482 9.17922 1.99351 8.94885 1.05432C8.77165 0.301198 8.86911 0.221455 8.86911 0.221455C8.86025 0.132853 8.80709 0.0531106 8.71849 0.0176696C8.68304 -5.08835e-05 8.6476 -0.00891113 8.61216 -0.00891113C8.559 -0.00891113 8.5147 0.00880936 8.4704 0.0353901C8.4704 0.0353901 8.17801 0.0974119 7.70842 0.549285C6.63633 1.58593 5.43133 3.32254 6.22876 5.68823C7.06162 8.15138 6.65405 8.7273 6.22876 8.7273C6.2199 8.7273 6.20217 8.7273 6.19331 8.7273C5.60854 8.68299 5.51994 8.32858 5.6174 7.21219C5.72372 5.90974 4.54531 4.8022 4.54531 4.8022C4.54531 4.8022 2.71124 7.71723 1.28474 9.79939C0.434152 11.0398 0.0265807 12.6081 0.0265807 14.0346H0C0 18.4293 3.56182 21.9911 7.9565 21.9911C12.3512 21.9911 15.913 18.4293 15.913 14.0346C16.2143 10.2158 14.141 6.81348 11.2437 4.4921ZM15.0358 13.9726V14.008V14.0434C15.0358 17.942 11.8639 21.1139 7.96536 21.1139C4.2795 21.1139 1.24043 18.2786 0.921466 14.6725V14.0346C0.921466 12.679 1.32018 11.3233 2.02014 10.3044C2.8973 9.02854 3.92509 7.4337 4.59847 6.38819C4.70479 6.62742 4.76681 6.88436 4.74909 7.14131C4.68707 7.92987 4.66049 8.62097 5.09464 9.12601C5.34273 9.41839 5.69714 9.58674 6.14901 9.62218H6.2199H6.25534C6.68063 9.62218 7.06162 9.42725 7.30971 9.08171C7.78816 8.40833 7.72614 7.28307 7.09706 5.41356C6.60975 3.96934 6.9553 2.65802 8.15143 1.39987C8.4261 2.43652 9.09062 3.88074 10.712 5.1832C13.7245 7.59318 15.3017 10.7917 15.0536 13.9637L15.0358 13.9726Z" fill="#6D7455"/>
<path d="M10.8274 13.3258C10.3933 14.9827 8.87815 16.2054 7.08838 16.2054C6.09603 16.2054 5.17457 15.8244 4.47461 15.1865C4.47461 15.2485 4.47461 15.3105 4.47461 15.3725C4.47461 17.3041 6.04287 18.8812 7.98327 18.8812C9.92366 18.8812 11.4919 17.3129 11.4919 15.3725C11.4919 14.6194 11.2527 13.9106 10.8363 13.3258H10.8274Z" fill="white"/>
<path d="M9.92353 11.4297C10.0121 11.7132 10.0653 12.0145 10.0653 12.3334C10.0653 13.9814 8.72739 15.3105 7.08825 15.3105C5.71491 15.3105 4.55422 14.3713 4.20867 13.1043C3.80996 13.7599 3.57959 14.5396 3.57959 15.3636C3.57959 17.7913 5.54657 19.7583 7.97427 19.7583C10.402 19.7583 12.369 17.7913 12.369 15.3636C12.369 13.6359 11.3766 12.1474 9.93239 11.4297H9.92353ZM7.97427 18.8723C6.04274 18.8723 4.46561 17.304 4.46561 15.3636C4.46561 15.3016 4.46561 15.2396 4.46561 15.1776C5.16557 15.8155 6.08704 16.1965 7.07939 16.1965C8.86916 16.1965 10.3843 14.9738 10.8184 13.3169C11.2348 13.9017 11.4741 14.6105 11.4741 15.3636C11.4741 17.2952 9.90581 18.8723 7.96541 18.8723H7.97427Z" fill="#6D7455"/>
</g>
<defs>
<clipPath id="clip0_123_3258">
<rect width="15.9484" height="22" fill="white"/>
</clipPath>
</defs>
</svg>
