<svg width="48" height="116" viewBox="0 0 48 116" fill="none" xmlns="http://www.w3.org/2000/svg">
<path fill-rule="evenodd" clip-rule="evenodd" d="M47.1752 113.284C42.9236 117.161 37.14 113.924 33.7928 112.245C36.0202 108.479 43.3297 112.472 47.1752 113.284Z" fill="#D2AD16"/>
<path fill-rule="evenodd" clip-rule="evenodd" d="M36.7523 109.415C31.8547 112.417 26.8032 108.123 23.8499 105.822C26.754 102.542 33.1406 107.877 36.7523 109.415Z" fill="#D2AD16"/>
<path fill-rule="evenodd" clip-rule="evenodd" d="M27.3824 103.594C22.0234 105.698 17.8087 100.591 15.2984 97.8102C18.7255 95.0845 24.0907 101.453 27.3824 103.594Z" fill="#D2AD16"/>
<path fill-rule="evenodd" clip-rule="evenodd" d="M19.048 96.1801C13.3689 97.1215 10.3233 91.2456 8.45286 88.0031C12.366 86.0465 16.2854 93.3991 19.048 96.1801Z" fill="#D2AD16"/>
<path fill-rule="evenodd" clip-rule="evenodd" d="M12.555 87.2899C6.79603 87.1607 4.88252 80.8233 3.63966 77.2855C7.85432 76.098 10.3462 84.0412 12.555 87.2899Z" fill="#D2AD16"/>
<path fill-rule="evenodd" clip-rule="evenodd" d="M7.96495 77.5748C2.38437 76.5227 1.51068 70.0438 0.858481 66.4137C5.14697 65.9399 6.32831 74.0677 7.96495 77.5748Z" fill="#D2AD16"/>
<path fill-rule="evenodd" clip-rule="evenodd" d="M4.84313 67.0657C-0.435966 64.9861 -0.0298772 58.4703 0.0316507 54.7725C4.3263 55.117 3.91406 63.3125 4.84313 67.0657Z" fill="#D2AD16"/>
<path fill-rule="evenodd" clip-rule="evenodd" d="M3.87952 56.2313C-0.956573 53.2595 0.58162 46.916 1.28919 43.292C5.46078 44.3749 3.61495 52.3735 3.87952 56.2313Z" fill="#D2AD16"/>
<path fill-rule="evenodd" clip-rule="evenodd" d="M4.78825 45.2903C0.684342 41.3709 3.50847 35.4889 4.94822 32.0925C8.81217 34.0307 5.33585 41.4632 4.78825 45.2903Z" fill="#D2AD16"/>
<path fill-rule="evenodd" clip-rule="evenodd" d="M7.9434 34.8985C4.62705 30.2901 8.491 25.0233 10.5399 21.9592C13.967 24.5742 9.18627 31.2315 7.9434 34.8985Z" fill="#D2AD16"/>
<path fill-rule="evenodd" clip-rule="evenodd" d="M12.885 25.3133C10.4546 20.1881 15.1984 15.6904 17.758 13.0447C20.6683 16.2257 14.7616 21.9355 12.885 25.3133Z" fill="#D2AD16"/>
<path fill-rule="evenodd" clip-rule="evenodd" d="M19.5167 16.7979C18.0338 11.3281 23.4975 7.75333 26.4939 5.59985C28.7889 9.25461 21.9593 13.8077 19.5167 16.7979Z" fill="#D2AD16"/>
<path fill-rule="evenodd" clip-rule="evenodd" d="M27.5953 9.64142C27.2015 3.98701 33.2558 1.5382 36.6153 0C38.1596 4.02392 30.5855 7.18646 27.5953 9.64142Z" fill="#D2AD16"/>
<path fill-rule="evenodd" clip-rule="evenodd" d="M47.4213 112.504C47.2797 108.468 41.7361 106.837 37.6506 104.948C37.0353 109.544 43.4835 111.249 47.4213 112.504Z" fill="#D2AD16"/>
<path fill-rule="evenodd" clip-rule="evenodd" d="M37.1381 108.702C37.7719 104.697 32.6527 102.026 29.0164 99.3867C27.5398 103.792 33.5203 106.702 37.1381 108.702Z" fill="#D2AD16"/>
<path fill-rule="evenodd" clip-rule="evenodd" d="M27.8862 102.968C29.2152 99.1352 24.6436 95.6219 21.5119 92.3794C19.303 96.4587 24.6805 100.378 27.8862 102.968Z" fill="#D2AD16"/>
<path fill-rule="evenodd" clip-rule="evenodd" d="M19.6859 95.671C21.784 92.1946 18.0431 87.8077 15.6681 83.9868C12.6409 87.5062 17.0894 92.4592 19.6859 95.671Z" fill="#D2AD16"/>
<path fill-rule="evenodd" clip-rule="evenodd" d="M13.2673 86.9082C15.9622 83.881 13.1073 78.8665 11.4768 74.6826C7.85283 77.5867 11.3169 83.2719 13.2673 86.9082Z" fill="#D2AD16"/>
<path fill-rule="evenodd" clip-rule="evenodd" d="M8.74402 77.336C11.845 74.838 9.84536 69.5035 8.91014 65.1597C4.92928 67.3931 7.39656 73.4844 8.74402 77.336Z" fill="#D2AD16"/>
<path fill-rule="evenodd" clip-rule="evenodd" d="M5.64975 66.9746C9.1876 65.1041 8.25853 59.4928 8.17854 55.0566C3.84083 56.5025 5.08369 62.9384 5.64975 66.9746Z" fill="#D2AD16"/>
<path fill-rule="evenodd" clip-rule="evenodd" d="M4.68957 56.2937C8.49815 55.0693 8.56583 49.3842 9.2611 45.0095C4.7388 45.6802 4.83108 52.2329 4.68957 56.2937Z" fill="#D2AD16"/>
<path fill-rule="evenodd" clip-rule="evenodd" d="M5.58805 45.5062C9.56275 45.1002 10.8118 39.5565 12.4115 35.4157C7.85227 35.1265 6.57865 41.5623 5.58805 45.5062Z" fill="#D2AD16"/>
<path fill-rule="evenodd" clip-rule="evenodd" d="M8.69544 35.2565C12.6824 35.5888 14.9282 30.3773 17.2601 26.5995C12.8363 25.4674 10.3998 31.5587 8.69544 35.2565Z" fill="#D2AD16"/>
<path fill-rule="evenodd" clip-rule="evenodd" d="M13.5684 25.7986C17.42 26.8445 20.5703 22.113 23.5482 18.8151C19.3889 16.9139 15.9003 22.4637 13.5684 25.7986Z" fill="#D2AD16"/>
<path fill-rule="evenodd" clip-rule="evenodd" d="M20.0952 17.4072C23.7068 19.1177 27.6385 15.0261 31.1517 12.3127C27.4047 9.69776 22.987 14.5462 20.0952 17.4072Z" fill="#D2AD16"/>
<path fill-rule="evenodd" clip-rule="evenodd" d="M28.066 10.3551C31.2778 12.7301 35.9354 9.47528 39.8978 7.49408C36.723 4.20849 31.4562 8.1032 28.066 10.3551Z" fill="#D2AD16"/>
<path fill-rule="evenodd" clip-rule="evenodd" d="M36.0012 5.02234C38.007 0.130871 45.0335 -0.718214 47.5131 0.684622C45.6488 4.30246 38.9853 5.82835 36.0012 5.02234Z" fill="#D2AD16"/>
</svg>
