<svg width="28" height="21" viewBox="0 0 28 21" fill="none" xmlns="http://www.w3.org/2000/svg">
<path d="M23.9475 2.65505C21.3563 1.36005 17.9163 0.675049 14 0.675049C10.0837 0.675049 6.64375 1.36005 4.0525 2.65505C1.46125 3.95005 0 5.77255 0 7.67505V13.675C0 15.5775 1.4775 17.4063 4.0525 18.695C6.6275 19.9838 10.0837 20.675 14 20.675C17.9163 20.675 21.3563 19.99 23.9475 18.695C26.5387 17.4 28 15.5775 28 13.675V7.67505C28 5.77255 26.5225 3.9438 23.9475 2.65505ZM14 2.67505C21.83 2.67505 26 5.5788 26 7.67505C26 9.7713 21.83 12.675 14 12.675C6.17 12.675 2 9.7713 2 7.67505C2 5.5788 6.17 2.67505 14 2.67505ZM13 14.6575V18.6575C10.625 18.58 8.625 18.23 7 17.7213V13.8063C8.95891 14.3282 10.9732 14.614 13 14.6575ZM15 14.6575C17.0268 14.614 19.0411 14.3282 21 13.8063V17.72C19.375 18.2288 17.375 18.5788 15 18.6563V14.6575ZM2 13.675V11.3663C2.6294 11.8886 3.31835 12.3346 4.0525 12.695C4.35625 12.8463 4.6775 12.9888 5 13.1238V16.925C3.02125 15.945 2 14.7113 2 13.675ZM23 16.925V13.1238C23.3263 12.9888 23.6438 12.8463 23.9475 12.695C24.6816 12.3346 25.3706 11.8886 26 11.3663V13.675C26 14.7113 24.9788 15.945 23 16.925Z" fill="white"/>
</svg>
