<svg width="28" height="27" viewBox="0 0 28 27" fill="none" xmlns="http://www.w3.org/2000/svg">
<path d="M14.001 0C21.457 0 27.501 6.04395 27.501 13.5C27.501 20.9561 21.457 27 14.001 27C6.54493 27 0.500977 20.9561 0.500977 13.5C0.500977 6.04395 6.54493 0 14.001 0ZM14.001 18.9C13.6429 18.9 13.2996 19.0422 13.0464 19.2954C12.7932 19.5486 12.651 19.892 12.651 20.25C12.651 20.608 12.7932 20.9514 13.0464 21.2046C13.2996 21.4578 13.6429 21.6 14.001 21.6C14.359 21.6 14.7024 21.4578 14.9556 21.2046C15.2087 20.9514 15.351 20.608 15.351 20.25C15.351 19.892 15.2087 19.5486 14.9556 19.2954C14.7024 19.0422 14.359 18.9 14.001 18.9ZM14.001 6.075C12.7031 6.075 11.4583 6.59059 10.5406 7.50835C9.62282 8.4261 9.10723 9.67085 9.10723 10.9688C9.10723 11.3268 9.24946 11.6702 9.50263 11.9233C9.75581 12.1765 10.0992 12.3188 10.4572 12.3188C10.8153 12.3188 11.1586 12.1765 11.4118 11.9233C11.665 11.6702 11.8072 11.3268 11.8072 10.9688C11.8077 10.5705 11.9165 10.18 12.122 9.83892C12.3276 9.49786 12.622 9.21917 12.9739 9.03274C13.3258 8.84631 13.7217 8.75917 14.1194 8.78066C14.517 8.80215 14.9013 8.93145 15.231 9.15472C15.5607 9.37799 15.8234 9.68678 15.991 10.048C16.1586 10.4092 16.2247 10.8093 16.1822 11.2052C16.1397 11.6011 15.9903 11.978 15.7499 12.2955C15.5096 12.6129 15.1873 12.859 14.8177 13.0073C13.9051 13.3718 12.651 14.306 12.651 15.8625V16.2C12.651 16.558 12.7932 16.9014 13.0464 17.1546C13.2996 17.4078 13.6429 17.55 14.001 17.55C14.359 17.55 14.7024 17.4078 14.9556 17.1546C15.2087 16.9014 15.351 16.558 15.351 16.2C15.351 15.8706 15.4185 15.7059 15.7033 15.5655L15.8208 15.5115C16.8749 15.0875 17.7486 14.3099 18.2923 13.3122C18.8359 12.3145 19.0155 11.1588 18.8004 10.0432C18.5852 8.92753 17.9887 7.92148 17.1131 7.19749C16.2374 6.47349 15.1372 6.07665 14.001 6.075Z" fill="#CC2200"/>
</svg>
