<svg width="30" height="20" viewBox="0 0 30 20" fill="none" xmlns="http://www.w3.org/2000/svg">
<path d="M28.696 5.49006C27.9749 5.49006 27.3911 6.08301 27.3911 6.81549C27.3911 7.01081 27.4392 7.19916 27.5147 7.36659L20.2276 10.7429L15.5161 2.54622C15.9831 2.34391 16.3128 1.87653 16.3128 1.32543C16.3128 0.592955 15.729 0 15.0078 0C14.2867 0 13.7029 0.592955 13.7029 1.32543C13.7029 1.86955 14.0257 2.33694 14.4859 2.53924L9.96664 10.7429L2.49411 7.28985C2.56966 7.12243 2.61087 6.94105 2.61087 6.73875C2.61087 6.00628 2.02708 5.41332 1.30592 5.41332C0.584769 5.41332 0.000976562 6.00628 0.000976562 6.73875C0.000976562 7.47123 0.584769 8.06418 1.30592 8.06418C1.43642 8.06418 1.56004 8.03627 1.6768 8.0014L5.19328 20H24.8155L28.3251 8.07813C28.4419 8.11301 28.5655 8.14091 28.696 8.14091C29.4172 8.14091 30.001 7.54796 30.001 6.81549C30.001 6.08301 29.4172 5.49006 28.696 5.49006Z" fill="#D2AD16"/>
</svg>
