<svg width="53" height="362" viewBox="0 0 53 362" fill="none" xmlns="http://www.w3.org/2000/svg">
<rect width="52.0312" height="361.299" transform="translate(0.96875)" fill="white"/>
<path d="M19.0734 341.258C13.3708 341.8 11.8306 336.888 11.8306 326.149C11.8306 320.696 12.122 309.54 12.122 309.457H18.3658C18.1993 313.453 17.8663 323.401 17.8663 327.189C17.8663 329.354 17.9079 331.185 18.116 332.559C18.3658 334.099 18.8653 334.682 19.5313 334.64C22.1953 334.557 24.776 332.351 25.9831 331.144V338.053C25.9415 338.053 25.6501 338.303 25.109 338.761C23.7354 339.968 21.4044 341.05 19.0734 341.258ZM28.8969 309.998H35.3488C35.3488 309.998 36.764 313.495 37.8463 321.778C38.3458 325.483 38.5539 330.436 38.4706 337.97H32.1853L32.2269 332.6C32.2685 325.233 31.3111 316.825 28.8969 309.998Z" fill="#53573E"/>
<path d="M16.9134 281.853V283.768H33.8964V281.853H16.9134ZM10.4199 266.702V257.544H16.2474V261.082C23.1155 260.583 30.0253 259.667 34.7705 258.501L38.8082 263.205C32.1898 264.787 23.8648 265.661 16.2474 266.119V266.577C16.2474 268.325 16.9967 268.533 21.1592 268.533H32.3979C35.6863 268.533 36.1858 267.95 36.6021 264.246C38.0173 265.161 40.5981 266.036 42.2631 266.327C41.3057 272.612 39.4325 274.153 32.6893 274.153H21.0343C12.7093 274.153 10.4199 272.529 10.4199 266.702ZM11.294 297.088V276.65H39.8488V296.88H33.8964V295.714H16.9134V297.088H11.294ZM16.9134 290.511H33.8964V288.472H16.9134V290.511Z" fill="#53573E"/>
<path d="M31.5193 228.816V222.822H34.3914V228.816H31.5193ZM11.7474 220.117V213.748H39.0534V220.117C36.0564 220.45 33.8919 221.157 31.9355 222.281C28.106 224.446 25.2339 227.776 24.2765 230.814C22.9861 234.935 25.5253 238.307 29.7294 238.64C31.9771 238.848 35.6818 238.598 37.8463 238.265V244.925C34.5995 245.342 30.77 245.258 29.2299 245.133C23.444 244.634 16.118 241.554 17.45 231.564C17.9079 227.901 19.6145 225.362 21.5709 223.155C22.8196 221.74 23.9435 220.824 24.9009 220.117H11.7474ZM36.0148 228.816V222.822H38.8869V228.816H36.0148Z" fill="#53573E"/>
<path d="M17.3667 187.06C15.0357 190.349 13.3291 192.804 10.9981 196.301V186.436C13.454 183.147 15.5769 180.275 17.3667 177.819V176.654H10.9981V170.285H17.3667V163.542H23.5272V172.491C26.2329 169.12 31.769 167.122 34.8492 169.411C36.764 170.826 37.1802 173.449 37.0137 176.779C36.7224 181.857 36.3894 188.475 36.3894 189.35C36.3894 190.598 36.6807 190.64 37.1386 190.598C37.4716 190.557 38.762 189.807 39.9275 188.767V195.677C38.2625 197.009 36.764 197.675 34.9325 197.508C31.6857 197.217 29.9375 194.553 29.9375 190.265C29.9375 187.768 30.5619 181.274 30.5619 178.028C30.5619 176.321 30.3954 175.239 29.3131 175.239C27.8146 175.239 25.5252 177.237 23.5272 180.067V198.757H17.3667V187.06Z" fill="#53573E"/>
<path d="M26.6075 147.802C24.9425 142.307 23.6521 136.396 22.6531 130.985C21.5708 131.485 20.114 132.234 18.3657 133.108V126.989C19.5312 126.448 20.6551 125.907 21.7373 125.491C21.4043 123.326 21.1962 121.578 21.0297 120.329L20.7383 118.331H26.3161C26.441 120.287 26.6907 122.161 26.9405 123.992C29.105 123.534 28.1476 123.701 30.3953 123.409C30.0623 121.495 29.6461 119.871 29.0217 118.165H34.1416C34.6411 119.871 35.1822 121.828 35.3487 123.493C40.5935 124.117 43.5488 126.823 43.5488 131.818C43.5488 135.231 42.1752 137.52 39.5945 138.811C37.0553 140.059 35.099 140.226 31.5192 139.56V134.315C35.9731 135.314 38.762 134.482 38.1792 131.568C37.8046 129.57 36.0147 128.612 32.102 128.612C30.1872 128.612 29.2298 128.862 27.7313 129.362C29.438 138.602 31.8106 145.595 32.6015 147.802H26.6075Z" fill="#53573E"/>
<path d="M22.9445 102.632C16.451 102.507 13.7454 98.636 13.7454 92.1009V67.8335H19.9891V91.0602C19.9891 94.3486 21.0297 95.972 23.3191 95.972C24.6927 95.972 26.108 95.6806 27.9811 94.8897C31.2279 93.4745 34.0584 91.6846 38.1792 88.5211V96.1385C36.5142 97.4289 34.9741 98.5111 33.5172 99.3436C30.2289 101.258 26.774 102.715 22.9445 102.632Z" fill="#53573E"/>
<path d="M27.2735 48.0969C31.1446 48.0969 32.8096 47.0146 32.8096 43.976C32.8096 40.646 30.77 38.9394 26.108 39.1059C25.775 39.1059 25.6917 39.1059 25.6085 39.1475V46.1821C25.6085 50.8858 23.3607 53.7995 19.0317 53.6746C14.8692 53.5498 11.456 49.7619 11.2895 44.9334C11.123 39.9384 14.3697 35.9008 19.8226 34.0276V30.0316H12.2885V24.1625H19.8226V20H25.6085V24.1625H29.9791C29.4796 23.1219 29.0217 22.2894 28.2725 21.0406H34.7244C36.431 24.5371 37.8046 27.7006 39.5112 32.3626H33.3091C32.3517 29.5738 31.769 28.1585 30.5619 25.6194V30.0316H25.6085V33.1535C25.9831 33.0703 26.2745 33.0703 26.5242 33.0703C32.102 32.9454 38.8036 34.9018 38.8036 43.6846C38.8036 52.5924 31.9771 54.4655 27.2735 54.4655V48.0969ZM16.8256 44.7669C16.8256 46.8065 18.2409 47.4725 19.2399 47.4725C19.6977 47.4725 19.8226 47.2228 19.8226 46.7649V40.3546C17.9495 41.2704 16.8256 42.9354 16.8256 44.7669Z" fill="#53573E"/>
</svg>
