<svg width="192" height="39" viewBox="0 0 192 39" fill="none" xmlns="http://www.w3.org/2000/svg">
<path d="M172.643 26.1467V19.8667H191.123V26.1467H172.643Z" fill="#53573E"/>
<path d="M143.771 36.9869V31.5069H157.011L157.891 17.4269H144.931V12.1069H163.891L162.611 31.5069H166.811V36.9869H143.771Z" fill="#53573E"/>
<path d="M112.429 36.5066V30.2266H137.789V36.5066H112.429ZM113.229 13.5066V7.22656H136.989V13.5066H113.229Z" fill="#53573E"/>
<path d="M81.1731 31.6267C86.6531 30.2267 90.8531 26.5067 93.5331 22.5467C91.0131 20.2667 88.4131 18.3067 85.7331 16.6667V9.4267C90.1731 12.1467 93.7331 14.7467 96.4931 17.1867C98.6931 12.2267 100.013 7.0667 100.013 5.8667H106.533C105.413 11.6267 104.253 15.6267 101.573 21.0267C103.173 22.7467 104.173 23.6667 106.093 25.9067V35.5067C103.533 32.1867 101.213 29.7467 98.2131 26.6267C96.9731 28.2267 95.3331 29.9867 93.8131 31.3867C90.4131 34.5467 86.0931 37.0667 81.1731 38.1867V31.6267Z" fill="#53573E"/>
<path d="M64.3252 7.74652H51.9652V11.8665H64.3252V7.74652ZM41.6052 38.6665V20.2265H56.6852V38.5065H51.1652V36.7465H46.8052V38.6665H41.6052ZM46.6452 17.3865V2.18652H70.0052V17.3865H46.6452ZM46.8052 31.1865H51.1652V25.7865H46.8052V31.1865ZM59.3652 38.6665V20.2265H74.8452V38.5065H69.2852V36.7465H64.6852V38.6665H59.3652ZM64.6852 31.1865H69.2852V25.7865H64.6852V31.1865Z" fill="#53573E"/>
<path d="M15.2774 20.3068V18.4668H9.51744V20.3068H15.2774ZM0.877441 32.3868V27.0268H15.2774V25.0268H4.15744V7.58676H7.15744C6.39744 6.10676 5.23744 4.34676 4.19744 2.98676L8.99744 0.746758C10.3574 2.38676 12.0374 4.74676 12.7974 6.34676L10.2774 7.58676H16.1974C15.5574 6.02676 14.3974 3.98676 13.3574 2.42676L18.3174 0.426758C19.5974 2.22676 21.1174 4.66676 21.7974 6.34676L18.8374 7.58676H24.0374C25.3174 5.58676 26.6774 2.82676 27.3974 0.626758L33.5974 2.46676C32.4374 4.30676 31.3174 6.06676 30.2774 7.58676H32.6774V25.0268H20.9574V27.0268H35.5974V32.3868H20.9574V38.6268H15.2774V32.3868H0.877441ZM9.51744 14.1068H15.2774V12.2668H9.51744V14.1068ZM20.9574 20.3068H26.9574V18.4668H20.9574V20.3068ZM20.9574 14.1068H26.9574V12.2668H20.9574V14.1068Z" fill="#53573E"/>
</svg>
