<svg width="157" height="40" viewBox="0 0 157 40" fill="none" xmlns="http://www.w3.org/2000/svg">
<path d="M143.008 28.427V26.627H135.928V28.427H143.008ZM120.448 8.78702C122.888 6.94702 125.208 3.90702 126.488 0.947021L131.608 2.46702C131.408 2.90702 131.168 3.30702 130.968 3.74702H138.448V7.18702C140.088 5.42702 141.448 3.14702 142.248 0.947021L147.488 2.30702L146.888 3.74702H156.368V8.26702H151.728C152.088 8.70702 152.368 9.14702 152.608 9.54702L149.808 10.827H152.928V26.627H148.728V28.427H156.408V32.987H148.728V39.267H143.008V32.987H135.368C134.288 35.627 131.488 37.867 125.568 39.347C124.848 38.107 123.328 36.187 122.088 35.107C125.208 34.587 127.208 33.827 128.448 32.987H121.688V28.427H130.368V26.627H125.968V10.867C125.648 11.267 125.248 11.627 124.928 11.947C123.888 11.027 121.728 9.50702 120.448 8.78702ZM126.008 10.827H129.568C129.288 10.027 128.768 9.10702 128.288 8.26702H128.128C127.448 9.18702 126.728 10.067 126.008 10.827ZM131.568 23.307H147.048V22.347H131.568V23.307ZM131.568 19.187H147.048V18.227H131.568V19.187ZM131.568 15.107H147.048V14.187H131.568V15.107ZM131.928 10.827H140.528C139.328 10.067 137.728 9.26702 136.688 8.82702C136.928 8.66702 137.128 8.46702 137.368 8.26702H133.928C134.208 8.82702 134.488 9.38702 134.688 9.82702L131.928 10.827ZM142.208 10.827H147.448C147.008 10.027 146.288 9.10702 145.648 8.26702H144.248C143.568 9.22702 142.888 10.067 142.208 10.827Z" fill="#53573E"/>
<path d="M116.96 18.4671C115.48 22.3471 113.28 26.4671 111.24 29.3471L106.48 26.4671C107.2 25.3471 107.96 23.8671 108.68 22.3471H102.16V33.3071C102.16 36.1871 101.56 37.6671 99.4801 38.4671C97.4801 39.2671 94.8401 39.3471 91.6401 39.3471C91.3201 37.7071 90.4001 35.2671 89.6001 33.7471C91.6801 33.8671 94.6401 33.8671 95.4001 33.8671C96.1601 33.8271 96.3601 33.7071 96.3601 33.1071V22.3471H81.6401V16.8271H97.2401C94.9601 15.9071 92.6401 15.0271 90.7601 14.3471L93.4801 9.94713C95.0001 10.4271 96.9201 11.0671 98.8801 11.7471C100.08 10.9471 101.32 9.94713 102.44 8.94713H85.4001V3.62713H107.76L109 3.30713L112.96 6.62713C110.64 9.02713 107.76 11.6671 104.76 13.8671C105.8 14.2271 106.76 14.6271 107.52 14.9471L106.4 16.8271H111.48L112.4 16.4271L116.96 18.4671Z" fill="#53573E"/>
<path d="M70.4721 13.9871H64.3121V15.6671H70.4721V13.9871ZM40.3921 17.0271C43.4321 15.2271 46.1121 12.2671 47.4321 8.98708L51.8721 10.1871C51.6721 10.7071 51.4321 11.2271 51.1921 11.7071H53.9521L54.7521 11.5071L57.8721 12.9871C56.9521 15.7471 55.6321 18.1471 54.0721 20.2671C55.9921 21.5471 57.7521 22.8271 58.9521 23.7871L56.3521 27.2671V35.1471C58.5921 34.0671 60.9121 32.5071 62.2721 31.1471H59.3921V9.74708H64.0321C64.1521 9.06708 64.2721 8.34708 64.3521 7.66708H58.5121V11.3871H53.9521V8.94708H45.7121V11.3871H41.3521V4.50708H47.2721V1.50708H52.4321V4.50708H58.3921V2.74708H76.3521V7.66708H70.1521C69.9121 8.38708 69.6321 9.06708 69.3521 9.74708H75.6721V31.1471H71.6321C73.5921 32.6671 76.3121 34.9071 77.6721 36.4271L73.4321 39.3471C72.2721 37.8671 69.6321 35.4271 67.6721 33.7871L71.6321 31.1471H62.8321L66.8321 33.9071C64.7921 35.9471 61.4321 38.1471 58.6321 39.3071C58.0321 38.6271 57.1521 37.6671 56.3521 36.8271V37.0671H48.0721V38.5871H43.4721V28.4671L43.2721 28.5471C42.6721 27.3071 41.4321 25.3871 40.4721 24.3871C42.7521 23.5871 44.9521 22.3871 46.8721 20.9071L44.9521 19.5471C44.5921 19.8671 44.1921 20.1471 43.8321 20.4271C43.1121 19.5071 41.3921 17.7871 40.3921 17.0271ZM48.0721 32.7071H51.6721V30.1471H48.0721V32.7071ZM48.1921 16.2671L50.2321 17.6271C50.7521 16.9471 51.2321 16.2271 51.7121 15.5071H48.7921C48.6321 15.7871 48.3921 16.0271 48.1921 16.2671ZM48.2721 25.7871H53.3521C52.5521 25.1471 51.7121 24.5071 50.7921 23.8271C49.9921 24.5071 49.1521 25.1871 48.2721 25.7871ZM64.3121 26.9071H70.4721V25.2271H64.3121V26.9071ZM64.3121 21.2671H70.4721V19.5871H64.3121V21.2671Z" fill="#53573E"/>
<path d="M31.1444 2.02713C32.5444 4.50713 35.2244 7.34713 37.5044 9.10713C36.2644 10.0671 34.5444 12.0271 33.7044 13.3071C31.2644 11.0271 28.4244 7.18713 26.6244 3.98713L31.1444 2.02713ZM0.264404 34.3871C1.2244 32.0671 1.7444 28.4671 1.9444 25.1471L6.2244 25.9071V23.3071L1.5044 23.8671L0.744404 18.9071C1.5844 18.8671 2.5444 18.7871 3.5044 18.7071C3.9844 18.1071 4.4244 17.4271 4.9044 16.7471C3.8644 14.9471 2.1844 12.8271 0.744404 11.2271L3.4244 7.26713L4.1044 7.94713C5.0244 5.78713 5.9444 3.30713 6.5044 1.30713L11.2244 3.14713C9.8244 5.90713 8.2644 8.98713 6.9844 11.2271L7.7044 12.2271C8.8644 10.1471 9.9844 8.06713 10.7844 6.26713L15.1844 8.38713C13.7044 10.7071 12.0244 13.2671 10.3444 15.6671L13.3444 14.3471C14.8244 17.1071 16.2244 20.6671 16.6244 23.0271L12.5444 24.9471C12.4244 24.2671 12.2644 23.4271 11.9844 22.5871L10.9444 22.7071V26.2271L14.2244 25.1071C14.8244 26.7871 15.4644 28.7471 15.9044 30.5071C16.1844 29.4271 16.3444 28.3071 16.4644 27.2271L20.5844 27.9471V26.4671H24.8244C23.5844 25.3871 22.1444 24.3471 20.8244 23.6271L23.5044 21.2271C21.1444 21.3871 18.9444 21.5471 17.0244 21.7071L16.1044 16.5071L20.3044 16.3871C21.0644 14.0671 21.8244 11.2671 22.2644 9.02713C21.1044 10.8671 19.8644 12.5071 18.5844 13.7471C17.6244 12.7471 15.5044 11.0271 14.3044 10.2271C16.7044 8.30713 18.7044 5.18713 19.7444 2.02713L24.9444 3.38713C24.3044 5.18713 23.4644 7.02713 22.4644 8.66713L27.8244 9.94713C26.9844 12.0271 26.1444 14.2671 25.3044 16.2271L28.1444 16.1071C27.7444 15.4271 27.3044 14.7471 26.9044 14.1471L31.0644 11.9871C33.0644 14.7071 35.3444 18.3871 36.1844 20.9871L31.6644 23.4271C31.4644 22.6271 31.0644 21.6271 30.5844 20.6271C28.7844 20.7871 26.9844 20.9471 25.2644 21.0671C27.4644 22.3071 29.5844 24.0671 30.7844 25.5471L27.1844 29.0271C26.7844 28.4271 26.2244 27.7871 25.5844 27.1871V33.2271C25.5844 34.3471 25.6644 34.4271 26.1444 34.4271H27.0244C27.5844 34.4271 27.7444 34.0271 27.7844 30.7871C28.5044 31.3871 29.8244 32.0271 31.0244 32.4671C30.3844 31.0671 29.6244 29.7071 28.8644 28.5071L33.0644 26.3471C35.0644 29.1871 36.9444 32.8671 37.5044 35.5871L32.9444 37.9871C32.7844 37.0271 32.4244 35.9071 32.0244 34.7471C31.3844 38.3471 30.0644 39.3471 27.6644 39.3471H25.2244C21.3444 39.3471 20.5844 37.7871 20.5844 33.2671V30.3871C20.1444 33.0271 19.3844 35.7471 18.3844 37.6671L14.0644 35.7471C14.5044 34.9871 14.8644 34.0271 15.2244 32.9871L12.3044 34.0671C12.0244 32.5471 11.5044 30.3871 10.9444 28.4271V39.3071H6.2244V27.1071C5.8244 30.5871 5.1044 34.0671 4.1844 36.3871C3.3044 35.7471 1.3044 34.8271 0.264404 34.3871ZM8.46441 18.3071L10.5044 18.1471L9.7844 16.4671C9.34441 17.1071 8.86441 17.7471 8.46441 18.3071Z" fill="#53573E"/>
</svg>
