<svg width="18" height="19" viewBox="0 0 18 19" fill="none" xmlns="http://www.w3.org/2000/svg">
<path d="M1.63112 3.63335H15.1548C16.3797 3.63335 17.2641 4.76225 16.9281 5.89826L15.4579 10.8761C15.2312 11.6405 14.5077 12.1668 13.6846 12.1668H5.54404C4.72003 12.1668 3.99558 11.6396 3.7698 10.8761L1.63112 3.63335ZM1.63112 3.63335L1 1.5M13.0001 17.5001C13.3537 17.5001 13.6929 17.3597 13.9429 17.1096C14.193 16.8596 14.3334 16.5204 14.3334 16.1668C14.3334 15.8132 14.193 15.474 13.9429 15.224C13.6929 14.9739 13.3537 14.8334 13.0001 14.8334C12.6465 14.8334 12.3073 14.9739 12.0573 15.224C11.8072 15.474 11.6668 15.8132 11.6668 16.1668C11.6668 16.5204 11.8072 16.8596 12.0573 17.1096C12.3073 17.3597 12.6465 17.5001 13.0001 17.5001ZM5.88893 17.5001C6.24256 17.5001 6.5817 17.3597 6.83175 17.1096C7.0818 16.8596 7.22227 16.5204 7.22227 16.1668C7.22227 15.8132 7.0818 15.474 6.83175 15.224C6.5817 14.9739 6.24256 14.8334 5.88893 14.8334C5.53531 14.8334 5.19616 14.9739 4.94611 15.224C4.69606 15.474 4.55559 15.8132 4.55559 16.1668C4.55559 16.5204 4.69606 16.8596 4.94611 17.1096C5.19616 17.3597 5.53531 17.5001 5.88893 17.5001Z" stroke="white" stroke-width="1.33335" stroke-linecap="round" stroke-linejoin="round"/>
</svg>
