<svg width="18" height="18" viewBox="0 0 18 18" fill="none" xmlns="http://www.w3.org/2000/svg">
<g clip-path="url(#clip0_341_1863)">
<path d="M9 18C13.9706 18 18 13.9706 18 9C18 4.02944 13.9706 0 9 0C4.02944 0 0 4.02944 0 9C0 13.9706 4.02944 18 9 18Z" fill="#F8EBD6"/>
<path d="M6.59096 4.49951V14.1424M5.14453 4.74058V7.1513C5.14453 8.35665 6.59096 8.35665 6.59096 8.35665C6.59096 8.35665 8.03739 8.35665 8.03739 7.1513V4.74058M11.4124 8.35665V14.1424M11.4124 8.35665C12.2113 8.35665 12.8588 7.49314 12.8588 6.42808C12.8588 5.36303 12.2113 4.49951 11.4124 4.49951C10.6135 4.49951 9.96596 5.36303 9.96596 6.42808C9.96596 7.49314 10.6135 8.35665 11.4124 8.35665Z" stroke="#A49892" stroke-width="1.12177" stroke-linecap="round" stroke-linejoin="round"/>
</g>
<defs>
<clipPath id="clip0_341_1863">
<rect width="18" height="18" fill="white"/>
</clipPath>
</defs>
</svg>
