<svg width="16" height="16" viewBox="0 0 16 16" fill="none" xmlns="http://www.w3.org/2000/svg">
<g clip-path="url(#clip0_10_5)">
<path d="M16 8C16 3.58172 12.4183 0 8 0C3.58172 0 0 3.58172 0 8C0 12.4183 3.58172 16 8 16C12.4183 16 16 12.4183 16 8Z" fill="#5F4E3E"/>
<path d="M10.7113 7.76097L7.01526 3.59912C6.89693 3.46696 6.70559 3.46696 6.58725 3.59912L6.08875 4.15591C5.97042 4.28808 5.97042 4.5018 6.08875 4.63396L9.07223 8L6.08875 11.366C5.97042 11.4982 5.97042 11.7119 6.08875 11.8441L6.58725 12.4009C6.70559 12.533 6.89693 12.533 7.01526 12.4009L10.7113 8.23903C10.8296 8.10686 10.8296 7.89314 10.7113 7.76097Z" fill="white"/>
</g>
<defs>
<clipPath id="clip0_10_5">
<rect width="16" height="16" fill="white"/>
</clipPath>
</defs>
</svg>
