<svg width="77" height="28" viewBox="0 0 77 28" fill="none" xmlns="http://www.w3.org/2000/svg">
<path d="M69.6619 17.09C69.2219 17.09 68.8519 16.96 68.5519 16.7C68.2519 16.44 68.1019 16 68.1019 15.38C68.1019 15.22 68.1119 15.06 68.1319 14.9C68.1519 14.74 68.1819 14.57 68.2219 14.39C68.3819 13.59 68.7119 12.62 69.2119 11.48C69.7119 10.32 70.3519 9.01002 71.1319 7.55002H69.9919C69.7719 7.55002 69.6619 7.49002 69.6619 7.37002C69.6619 7.31002 69.7119 7.25002 69.8119 7.19002C69.9319 7.11002 70.0919 7.07002 70.2919 7.07002H71.3719C71.7119 6.49002 71.9819 6.04002 72.1819 5.72002C72.4019 5.38002 72.5819 5.12002 72.7219 4.94002C73.2419 4.28002 73.7119 3.82002 74.1319 3.56002C74.5719 3.28002 74.9519 3.12002 75.2719 3.08002C75.5919 3.04002 75.8219 3.02002 75.9619 3.02002C75.6819 3.32002 75.3719 3.71002 75.0319 4.19002C74.6919 4.67002 74.3619 5.17002 74.0419 5.69002C73.7219 6.19002 73.4519 6.65002 73.2319 7.07002H76.2919C76.5119 7.07002 76.6219 7.12002 76.6219 7.22002C76.6219 7.30002 76.5619 7.38002 76.4419 7.46002C76.3219 7.52002 76.1619 7.55002 75.9619 7.55002H72.9319C72.6119 8.13002 72.3219 8.65002 72.0619 9.11002C71.8219 9.55002 71.5719 10.02 71.3119 10.52C71.0719 11.02 70.7719 11.64 70.4119 12.38C70.1319 13 69.9219 13.53 69.7819 13.97C69.6619 14.41 69.6019 14.78 69.6019 15.08C69.6019 15.46 69.6819 15.73 69.8419 15.89C70.0019 16.05 70.2019 16.13 70.4419 16.13C70.6819 16.13 70.9619 16.05 71.2819 15.89C71.7219 15.67 72.1619 15.35 72.6019 14.93C73.0419 14.51 73.4619 14.08 73.8619 13.64C74.0619 13.42 74.2519 13.21 74.4319 13.01C74.6119 12.81 74.7819 12.6 74.9419 12.38C75.0019 12.32 75.0519 12.29 75.0919 12.29C75.2119 12.29 75.2719 12.37 75.2719 12.53C75.2719 12.65 75.2319 12.75 75.1519 12.83C74.7319 13.35 74.2919 13.88 73.8319 14.42C73.2919 15.04 72.6919 15.64 72.0319 16.22C71.3719 16.8 70.5819 17.09 69.6619 17.09Z" fill="white"/>
<path d="M60.1081 17.4499C59.3681 17.4499 58.7781 17.2399 58.3381 16.8199C57.8981 16.3799 57.6781 15.7699 57.6781 14.9899C57.6781 14.3899 57.7881 13.7599 58.0081 13.0999C58.2481 12.4399 58.4781 11.9199 58.6981 11.5399C59.1581 10.6999 59.7081 9.92989 60.3481 9.22989C61.0081 8.52989 61.6781 7.96989 62.3581 7.54989C63.0581 7.10989 63.6981 6.88989 64.2781 6.88989C64.8181 6.88989 65.2781 7.03989 65.6581 7.33989C66.0581 7.63989 66.2581 8.03989 66.2581 8.53989C66.2581 8.73989 66.2081 8.96989 66.1081 9.22989C66.0081 9.48989 65.8481 9.75989 65.6281 10.0399C64.8281 11.0599 63.9381 11.8599 62.9581 12.4399C61.9981 12.9999 60.8981 13.4199 59.6581 13.6999C59.5781 13.9599 59.5081 14.2199 59.4481 14.4799C59.3881 14.7199 59.3381 14.9499 59.2981 15.1699C59.2781 15.2699 59.2581 15.3699 59.2381 15.4699C59.2381 15.5499 59.2381 15.6399 59.2381 15.7399C59.2381 16.1399 59.3281 16.4299 59.5081 16.6099C59.7081 16.7699 59.9481 16.8499 60.2281 16.8499C60.6681 16.8499 61.1381 16.7399 61.6381 16.5199C62.1381 16.2799 62.6081 16.0099 63.0481 15.7099C63.4881 15.4099 63.8181 15.1699 64.0381 14.9899C64.2581 14.7899 64.4681 14.5899 64.6681 14.3899C64.8881 14.1699 65.1281 13.9299 65.3881 13.6699C65.5881 13.4499 65.7781 13.2399 65.9581 13.0399C66.1381 12.8199 66.3081 12.5999 66.4681 12.3799C66.5281 12.3199 66.5781 12.2899 66.6181 12.2899C66.7381 12.2899 66.7981 12.3799 66.7981 12.5599C66.7981 12.6599 66.7581 12.7499 66.6781 12.8299C66.3181 13.2699 65.9581 13.7099 65.5981 14.1499C65.2381 14.5699 64.8681 14.9799 64.4881 15.3799C64.0481 15.8399 63.4381 16.2999 62.6581 16.7599C61.8981 17.2199 61.0481 17.4499 60.1081 17.4499ZM59.8381 13.3099C60.3581 13.0899 60.9581 12.7699 61.6381 12.3499C62.3381 11.9299 63.0081 11.4299 63.6481 10.8499C64.3081 10.2499 64.8481 9.60989 65.2681 8.92989C65.4081 8.70989 65.4781 8.50989 65.4781 8.32989C65.4781 8.04989 65.3181 7.90989 64.9981 7.90989C64.7781 7.90989 64.5081 7.98989 64.1881 8.14989C63.1881 8.68989 62.3281 9.41989 61.6081 10.3399C60.8881 11.2599 60.2981 12.2499 59.8381 13.3099Z" fill="white"/>
<path d="M41.7725 27.4701C40.9325 27.4701 40.3825 27.2701 40.1225 26.8701C39.8425 26.4701 39.7125 26.0501 39.7325 25.6101C39.7925 24.8701 40.0525 24.1701 40.5125 23.5101C40.9525 22.8501 41.5225 22.2301 42.2225 21.6501C42.9225 21.0701 43.6725 20.5401 44.4725 20.0601C45.2725 19.5801 46.0425 19.1401 46.7825 18.7401C47.5425 18.3601 48.2025 18.0301 48.7625 17.7501C49.3225 17.4701 49.7125 17.2501 49.9325 17.0901C50.2325 16.2101 50.4525 15.3701 50.5925 14.5701C50.7325 13.7501 50.7825 13.0301 50.7425 12.4101C50.5425 12.8101 50.2425 13.3301 49.8425 13.9701C49.4625 14.6101 49.0225 15.2001 48.5225 15.7401C48.1225 16.1801 47.7025 16.5501 47.2625 16.8501C46.8225 17.1301 46.3725 17.2701 45.9125 17.2701C45.2925 17.2701 44.8625 17.0501 44.6225 16.6101C44.3825 16.1501 44.2625 15.6401 44.2625 15.0801C44.2625 14.9001 44.2725 14.7201 44.2925 14.5401C44.3125 14.3601 44.3425 14.1901 44.3825 14.0301C44.5425 13.3901 44.7825 12.7601 45.1025 12.1401C45.4225 11.5001 45.7525 10.9301 46.0925 10.4301C46.4525 9.91011 46.7525 9.52011 46.9925 9.26011C47.5725 8.56011 48.2525 7.99011 49.0325 7.55011C49.8325 7.09011 50.6425 6.86011 51.4625 6.86011C52.3025 6.86011 53.0925 7.14011 53.8325 7.70011C54.1325 7.94011 54.2825 8.19011 54.2825 8.45011C54.2825 8.75011 54.1625 8.90011 53.9225 8.90011C53.7225 8.90011 53.5825 8.78011 53.5025 8.54011C53.2425 7.80011 52.8125 7.43011 52.2125 7.43011C51.6325 7.43011 51.0325 7.64011 50.4125 8.06011C49.8125 8.46011 49.2325 8.99011 48.6725 9.65011C48.1125 10.3101 47.6025 11.0101 47.1425 11.7501C46.7025 12.4901 46.3525 13.2001 46.0925 13.8801C45.8325 14.5601 45.7025 15.1201 45.7025 15.5601C45.7025 16.1001 45.9125 16.3701 46.3325 16.3701C46.7125 16.3701 47.1225 16.1801 47.5625 15.8001C48.0225 15.4201 48.4625 14.9501 48.8825 14.3901C49.3025 13.8101 49.6725 13.2401 49.9925 12.6801C50.3125 12.1201 50.5225 11.6601 50.6225 11.3001C50.7625 10.8601 50.9325 10.5701 51.1325 10.4301C51.3325 10.2901 51.5425 10.2201 51.7625 10.2201C51.8425 10.2201 51.9125 10.2301 51.9725 10.2501C52.0525 10.2501 52.1325 10.2601 52.2125 10.2801C52.2325 10.3801 52.2425 10.5301 52.2425 10.7301C52.2625 10.9301 52.2725 11.1701 52.2725 11.4501C52.2725 12.0301 52.2325 12.7401 52.1525 13.5801C52.0925 14.4201 51.9725 15.2501 51.7925 16.0701L52.1225 15.8301C52.6425 15.4501 53.1525 15.0601 53.6525 14.6601C54.1525 14.2601 54.5225 13.9201 54.7625 13.6401C54.9825 13.4201 55.1825 13.2101 55.3625 13.0101C55.5425 12.8101 55.7125 12.6001 55.8725 12.3801C55.9125 12.3201 55.9625 12.2901 56.0225 12.2901C56.1425 12.2901 56.2025 12.3701 56.2025 12.5301C56.2025 12.6301 56.1525 12.7301 56.0525 12.8301C55.6325 13.3501 55.1925 13.8801 54.7325 14.4201C54.6125 14.5601 54.3125 14.8401 53.8325 15.2601C53.3725 15.6601 52.8825 16.0401 52.3625 16.4001C52.1025 16.6001 51.8425 16.7701 51.5825 16.9101C51.2025 18.2301 50.6725 19.5101 49.9925 20.7501C49.3325 22.0101 48.5625 23.1401 47.6825 24.1401C46.8025 25.1601 45.8625 25.9701 44.8625 26.5701C43.8625 27.1701 42.8325 27.4701 41.7725 27.4701ZM41.6225 26.8401C42.4025 26.8401 43.2025 26.5501 44.0225 25.9701C44.8425 25.3901 45.6325 24.6401 46.3925 23.7201C47.1525 22.8201 47.8225 21.8501 48.4025 20.8101C48.9825 19.7901 49.4125 18.8301 49.6925 17.9301C49.3525 18.1501 48.8225 18.4301 48.1025 18.7701C47.4025 19.1301 46.6225 19.5501 45.7625 20.0301C44.9025 20.5101 44.0825 21.0401 43.3025 21.6201C42.5025 22.2001 41.8325 22.8301 41.2925 23.5101C40.7525 24.2101 40.4625 24.9401 40.4225 25.7001C40.4025 25.9601 40.4825 26.2101 40.6625 26.4501C40.8425 26.7101 41.1625 26.8401 41.6225 26.8401Z" fill="white"/>
<path d="M31.7937 17.1201C31.1337 17.1201 30.6737 16.9601 30.4137 16.6401C30.1537 16.3201 30.0237 15.9301 30.0237 15.4701C30.0237 14.8701 30.1637 14.2301 30.4437 13.5501C30.7437 12.8701 31.0037 12.3401 31.2237 11.9601C31.7637 11.1001 32.4037 10.2801 33.1437 9.50008C33.8837 8.72008 34.6637 8.09008 35.4837 7.61008C36.3237 7.11008 37.1237 6.86008 37.8837 6.86008C38.4037 6.86008 38.9137 6.98008 39.4137 7.22008C39.5137 7.00008 39.6037 6.81008 39.6837 6.65008C39.7637 6.47008 39.8437 6.30008 39.9237 6.14008C40.6237 4.90008 41.2137 3.85008 41.6937 2.99008C42.1937 2.13008 42.7237 1.46008 43.2837 0.980078C43.8637 0.480078 44.6137 0.180078 45.5337 0.0800781C44.9937 0.800078 44.5237 1.45008 44.1237 2.03008C43.7237 2.61008 43.3437 3.20008 42.9837 3.80008C42.6237 4.38008 42.2537 5.02008 41.8737 5.72008C41.4937 6.42008 41.0637 7.25008 40.5837 8.21008C40.6237 8.33008 40.6437 8.41008 40.6437 8.45008C40.6437 8.59008 40.5937 8.71008 40.4937 8.81008C40.4137 8.89008 40.3237 8.93008 40.2237 8.93008C39.8037 9.77008 39.3937 10.6201 38.9937 11.4801C38.6137 12.3201 38.2937 13.1001 38.0337 13.8201C37.7937 14.5201 37.6737 15.0701 37.6737 15.4701C37.6737 15.8901 37.8237 16.1001 38.1237 16.1001C38.3037 16.1001 38.5237 16.0301 38.7837 15.8901C39.2237 15.6701 39.6637 15.3601 40.1037 14.9601C40.5637 14.5401 40.9837 14.1101 41.3637 13.6701C41.5837 13.4501 41.7837 13.2401 41.9637 13.0401C42.1437 12.8201 42.3137 12.6001 42.4737 12.3801C42.5337 12.3201 42.5837 12.2901 42.6237 12.2901C42.7437 12.2901 42.8037 12.3701 42.8037 12.5301C42.8037 12.6501 42.7637 12.7501 42.6837 12.8301C42.3437 13.2701 41.9937 13.7101 41.6337 14.1501C41.2737 14.5701 40.8937 14.9801 40.4937 15.3801C40.4137 15.4601 40.3337 15.5501 40.2537 15.6501C40.1737 15.7301 40.0837 15.8101 39.9837 15.8901C39.5637 16.2301 39.1337 16.5201 38.6937 16.7601C38.2737 17.0001 37.8937 17.1201 37.5537 17.1201C37.0537 17.1201 36.7137 16.9701 36.5337 16.6701C36.3737 16.3501 36.2937 15.9801 36.2937 15.5601C36.2937 15.2801 36.3137 14.9901 36.3537 14.6901C36.4137 14.3901 36.4837 14.1301 36.5637 13.9101C36.6237 13.6901 36.6937 13.4401 36.7737 13.1601C36.8737 12.8801 36.9837 12.6001 37.1037 12.3201C36.6637 13.0001 36.1637 13.7101 35.6037 14.4501C35.0437 15.1901 34.4437 15.8201 33.8037 16.3401C33.1637 16.8601 32.4937 17.1201 31.7937 17.1201ZM31.9737 16.3701C32.3137 16.3701 32.8137 16.1201 33.4737 15.6201C33.9537 15.2401 34.4537 14.7801 34.9737 14.2401C35.4937 13.6801 35.9737 13.1401 36.4137 12.6201C36.8737 12.0801 37.2237 11.6601 37.4637 11.3601C37.7037 10.7801 37.9637 10.1801 38.2437 9.56008C38.5437 8.92008 38.8537 8.29008 39.1737 7.67008C39.0137 7.59008 38.8237 7.55008 38.6037 7.55008C38.1037 7.55008 37.5237 7.78008 36.8637 8.24008C36.2237 8.68008 35.6037 9.22008 35.0037 9.86008C34.3237 10.5801 33.7037 11.3601 33.1437 12.2001C32.5837 13.0201 32.1637 13.7701 31.8837 14.4501C31.7437 14.7501 31.6437 15.0201 31.5837 15.2601C31.5437 15.4801 31.5237 15.6701 31.5237 15.8301C31.5237 16.1901 31.6737 16.3701 31.9737 16.3701Z" fill="white"/>
<path d="M23.2533 17.0899C22.5733 17.0899 22.2333 16.6699 22.2333 15.8299C22.2333 15.4299 22.3033 14.9699 22.4433 14.4499C22.5833 13.9099 22.7733 13.3299 23.0133 12.7099C22.5933 13.3699 22.1233 14.0299 21.6033 14.6899C21.1033 15.3499 20.5833 15.8999 20.0433 16.3399C19.5233 16.7599 19.0133 16.9699 18.5133 16.9699C17.9533 16.9699 17.5733 16.7899 17.3733 16.4299C17.1933 16.0499 17.1033 15.6399 17.1033 15.1999C17.1033 14.8199 17.1433 14.4599 17.2233 14.1199C17.3033 13.7599 17.3833 13.4999 17.4633 13.3399C17.7633 12.5799 18.1333 11.7399 18.5733 10.8199C19.0333 9.89989 19.4433 9.09989 19.8033 8.41989C20.0033 8.07989 20.3233 7.78989 20.7633 7.54989C21.2233 7.30989 21.5933 7.18989 21.8733 7.18989C22.1733 7.18989 22.3233 7.28989 22.3233 7.48989C22.3233 7.64989 22.2233 7.88989 22.0233 8.20989C21.8433 8.46989 21.5933 8.87989 21.2733 9.43989C20.9533 9.97989 20.6033 10.5899 20.2233 11.2699C19.8633 11.9499 19.5133 12.6199 19.1733 13.2799C18.7333 14.1199 18.5133 14.8499 18.5133 15.4699C18.5133 15.9699 18.6633 16.2199 18.9633 16.2199C19.1233 16.2199 19.3333 16.1299 19.5933 15.9499C19.8533 15.7699 20.1633 15.4799 20.5233 15.0799C20.6833 14.9199 20.9233 14.5999 21.2433 14.1199C21.5833 13.6399 21.9633 13.0999 22.3833 12.4999C22.8033 11.8799 23.2133 11.2799 23.6133 10.6999C24.0133 10.0999 24.3433 9.60989 24.6033 9.22989C25.0833 8.30989 25.5933 7.68989 26.1333 7.36989C26.6733 7.04989 27.3133 6.88989 28.0533 6.88989C27.8533 6.98989 27.6133 7.24989 27.3333 7.66989C27.0533 8.08989 26.7633 8.51989 26.4633 8.95989C26.2633 9.25989 26.0433 9.64989 25.8033 10.1299C25.5633 10.6099 25.3233 11.1199 25.0833 11.6599C24.8433 12.1799 24.6333 12.6699 24.4533 13.1299C24.2933 13.5899 24.1833 13.9499 24.1233 14.2099C24.0233 14.6499 23.9733 14.9999 23.9733 15.2599C23.9733 15.7399 24.0933 15.9799 24.3333 15.9799C24.4133 15.9799 24.5133 15.9499 24.6333 15.8899C25.0733 15.6699 25.5133 15.3499 25.9533 14.9299C26.3933 14.5099 26.8133 14.0799 27.2133 13.6399C27.4133 13.4199 27.6033 13.2099 27.7833 13.0099C27.9633 12.8099 28.1333 12.5999 28.2933 12.3799C28.3533 12.3199 28.4033 12.2899 28.4433 12.2899C28.5633 12.2899 28.6233 12.3699 28.6233 12.5299C28.6233 12.6499 28.5833 12.7499 28.5033 12.8299C28.0833 13.3499 27.6433 13.8799 27.1833 14.4199C26.7433 14.9199 26.2833 15.4099 25.8033 15.8899C25.4033 16.2699 24.9633 16.5699 24.4833 16.7899C24.0033 16.9899 23.5933 17.0899 23.2533 17.0899Z" fill="white"/>
<path d="M4.03574 17.6001C3.57574 17.6001 3.10574 17.5601 2.62574 17.4801C2.14574 17.4001 1.74574 17.2201 1.42574 16.9401C1.10574 16.6401 0.94574 16.1801 0.94574 15.5601C0.94574 15.1401 1.10574 14.5601 1.42574 13.8201C1.76574 13.0601 2.19574 12.2501 2.71574 11.3901C3.23574 10.5101 3.76574 9.66012 4.30574 8.84012C4.84574 8.02012 5.32574 7.33012 5.74574 6.77012C6.22574 6.13012 6.65574 5.49012 7.03574 4.85012C7.41574 4.21012 7.64574 3.64012 7.72574 3.14012C7.70574 3.10012 7.50574 3.13012 7.12574 3.23012C6.74574 3.31012 6.32574 3.35012 5.86574 3.35012C5.54574 3.35012 5.32574 3.31012 5.20574 3.23012C5.10574 3.13012 5.05574 3.01012 5.05574 2.87012C5.05574 2.77012 5.07574 2.67012 5.11574 2.57012C5.15574 2.45012 5.20574 2.32012 5.26574 2.18012C6.14574 2.10012 7.09574 1.94012 8.11574 1.70012C9.15574 1.44012 10.1857 1.20012 11.2057 0.980118C12.2457 0.740119 13.2057 0.620117 14.0857 0.620117C15.4257 0.620117 16.3757 0.930118 16.9357 1.55012C17.4957 2.15012 17.7757 2.87012 17.7757 3.71012C17.7757 4.45012 17.5357 5.14012 17.0557 5.78012C16.5757 6.40012 15.9557 6.96012 15.1957 7.46012C14.4357 7.96012 13.6257 8.39012 12.7657 8.75012C11.9057 9.11012 11.0857 9.39012 10.3057 9.59012C9.52574 9.79012 8.89574 9.90012 8.41574 9.92012C9.21574 9.92012 9.96574 10.0301 10.6657 10.2501C11.3857 10.4501 11.9757 10.7601 12.4357 11.1801C12.8957 11.6001 13.1257 12.1501 13.1257 12.8301C13.1257 13.5101 12.9257 14.1101 12.5257 14.6301C12.1257 15.1501 11.6057 15.6001 10.9657 15.9801C10.3457 16.3601 9.66574 16.6701 8.92574 16.9101C8.18574 17.1501 7.46574 17.3201 6.76574 17.4201C6.08574 17.5401 5.50574 17.6001 5.02574 17.6001H4.03574ZM5.83574 9.86012C6.49574 9.82012 7.29574 9.66012 8.23574 9.38012C9.17574 9.10012 10.1457 8.74012 11.1457 8.30012C12.1657 7.86012 13.1057 7.37012 13.9657 6.83012C14.8457 6.29012 15.5557 5.72012 16.0957 5.12012C16.6557 4.52012 16.9357 3.93012 16.9357 3.35012C16.9357 2.53012 16.0357 2.12012 14.2357 2.12012C13.3157 2.12012 12.3657 2.23012 11.3857 2.45012C10.4057 2.65012 9.44574 2.83012 8.50574 2.99012C8.62574 3.19012 8.68574 3.45012 8.68574 3.77012C8.68574 4.21012 8.56574 4.72012 8.32574 5.30012C8.10574 5.86012 7.83574 6.44012 7.51574 7.04012C7.19574 7.62012 6.87574 8.16012 6.55574 8.66012C6.25574 9.16012 6.01574 9.56012 5.83574 9.86012ZM4.87574 16.9401C5.55574 16.9401 6.27574 16.8101 7.03574 16.5501C7.81574 16.2701 8.53574 15.9101 9.19574 15.4701C9.87574 15.0301 10.4257 14.5701 10.8457 14.0901C11.2857 13.5901 11.5057 13.1201 11.5057 12.6801C11.5057 12.0401 11.2657 11.5701 10.7857 11.2701C10.3057 10.9501 9.71574 10.7401 9.01574 10.6401C8.33574 10.5401 7.68574 10.4901 7.06574 10.4901C6.70574 10.4901 6.37574 10.5001 6.07574 10.5201C5.79574 10.5201 5.57574 10.5301 5.41574 10.5501C5.11574 11.0701 4.72574 11.6701 4.24574 12.3501C3.76574 13.0301 3.33574 13.7001 2.95574 14.3601C2.57574 15.0201 2.38574 15.6101 2.38574 16.1301C2.38574 16.3501 2.53574 16.5401 2.83574 16.7001C3.15574 16.8601 3.83574 16.9401 4.87574 16.9401Z" fill="white"/>
</svg>
