<svg width="90" height="134" viewBox="0 0 90 134" fill="none" xmlns="http://www.w3.org/2000/svg">
<path d="M55.2015 57.7687C56.5765 57.3104 56.6093 57.3595 57.4768 56.4265C58.5736 55.2479 59.9486 54.3967 61.1599 53.3491C62.715 52.0068 64.3355 50.7136 65.645 49.1095C66.398 48.1764 67.1674 47.2434 67.8385 46.2449C68.4442 45.3446 68.7552 44.3133 68.9189 43.2002C69.1971 41.285 69.6064 39.3698 70.0156 37.471C70.212 36.5216 70.5067 35.6049 70.7686 34.6719C70.965 34.0171 70.8668 33.4442 70.4412 32.904C70.1138 32.5112 69.901 32.0365 69.6064 31.6109C69.1644 30.9561 69.279 30.3013 69.59 29.6629C69.6391 29.5484 69.8683 29.4338 69.9992 29.4501C70.1465 29.4501 70.343 29.5811 70.4085 29.712C70.523 29.974 70.5558 30.2522 70.6212 30.5305C70.7195 30.9561 70.9814 31.2344 71.4397 31.3981C71.6689 30.465 71.9635 29.5811 72.1108 28.6153C72.34 27.0439 72.782 25.4888 73.1421 23.9337C73.2403 23.5409 73.404 23.1644 73.8787 23.0662C74.2552 22.9843 74.6317 23.3117 74.7954 23.9174C74.8772 24.1793 74.9591 24.4903 74.9263 24.7522C74.7954 25.6525 74.6153 26.5528 74.4189 27.4367C74.0424 29.1719 73.6823 30.907 73.2239 32.6094C73.0602 33.2314 73.2239 33.6406 73.6823 33.9517C74.4353 34.4755 75.2046 34.9829 76.0067 35.4085C76.8579 35.8668 77.8073 35.8177 78.6585 35.5067C80.5737 34.7701 82.096 33.4769 83.3892 31.9055C83.6675 31.5781 83.7984 31.0871 83.8966 30.6615C84.2895 29.0409 84.5841 27.404 85.0097 25.8162C85.3862 24.4412 85.8937 23.0989 86.352 21.7403C86.4666 21.3965 86.663 21.1182 87.0722 21.1346C87.416 21.1346 87.7761 21.5766 87.7761 21.9858C87.7761 22.2641 87.7434 22.5587 87.6615 22.8206C87.5142 23.3772 87.3341 23.9174 87.1704 24.4576C86.5484 26.4218 86.3193 28.4844 85.9428 30.4978C85.288 33.9189 84.6005 37.3564 83.8639 40.7612C83.5856 42.038 83.3401 43.3312 83.3073 44.6571C83.2582 46.5232 83.471 48.3074 84.2076 50.0261C84.535 50.8119 84.7314 51.6467 84.977 52.4815C85.5826 54.5277 86.5321 56.4101 87.3669 58.358C87.8416 59.4548 88.2999 60.5679 88.7419 61.6973C88.8565 62.0084 88.9219 62.3685 88.9383 62.6959C88.9711 63.8417 89.102 64.9712 89.1675 66.117C89.2984 68.3432 89.2984 70.5858 89.1675 72.812C89.0693 74.5798 88.7255 76.3313 88.4963 78.0992C88.4472 78.4921 88.4145 78.8849 88.3818 79.2942C88.349 79.9817 88.2344 80.6364 88.1362 81.3076C87.6288 84.8269 86.7776 88.2481 85.9755 91.702C85.5008 93.7154 85.0752 95.7288 84.9934 97.7913C84.9606 98.577 84.7478 99.3627 84.6169 100.148C83.9457 104.437 83.0945 108.677 82.0469 112.884C81.9323 113.375 81.9651 113.899 81.916 114.406C81.916 114.57 81.9323 114.799 81.8505 114.897C81.1139 115.65 81.2121 116.698 80.9011 117.598C80.5737 118.515 80.2463 119.431 79.9353 120.348C79.8862 120.512 79.8207 120.692 79.8371 120.855C79.9844 121.985 79.3951 122.869 78.7895 123.687C77.7418 125.111 76.596 126.486 75.4993 127.878C75.4665 127.927 75.4174 127.96 75.3847 128.009C74.7954 128.631 70.965 131.528 70.1793 131.888C69.1317 132.347 68.084 132.805 67.02 133.198C66.5453 133.361 66.0052 133.378 65.4977 133.394C64.581 133.427 63.6644 133.345 62.7477 133.427C61.2581 133.558 59.7849 133.247 58.328 133.116C57.4605 133.034 56.5765 132.576 55.7908 132.134C53.45 130.873 51.453 129.171 49.5705 127.305C48.6866 126.405 47.7372 125.57 46.8533 124.669C46.575 124.391 46.3295 124.047 46.1821 123.687C45.6911 122.476 45.2164 121.232 44.7744 119.988C44.4961 119.235 44.4306 118.433 44.447 117.614C44.447 116.698 44.447 115.781 44.4634 114.864C44.4634 114.406 44.5616 113.964 44.6271 113.506C44.6598 113.227 44.758 112.949 44.758 112.654C44.7253 111.492 45.069 110.396 45.2982 109.282C45.6092 107.776 45.8384 106.254 46.0839 104.732C46.4277 102.653 46.7878 100.574 47.3443 98.5115C47.6226 97.4639 47.7045 96.3672 47.8845 95.3032C48.2283 93.3389 48.5393 91.3582 48.9485 89.4103C49.5705 86.382 50.3072 83.3864 50.9292 80.3581C51.2729 78.6885 51.453 76.9697 51.764 75.2837C52.1896 72.9266 52.697 70.5694 53.139 68.2122C53.4664 66.4771 53.7119 64.7256 54.0721 62.9905C54.4158 61.2554 54.8414 59.5366 55.2506 57.736L55.2015 57.7687ZM60.6197 68.3759C60.3742 70.1274 60.145 71.7644 59.8831 73.3849C59.6867 74.629 59.4902 75.873 59.212 77.1007C58.9992 78.001 58.8027 78.8849 58.7864 79.8016C58.7864 80.1453 58.6882 80.4727 58.6227 80.8165C57.9188 84.4013 57.1986 87.9862 56.5438 91.5874C56.2 93.4371 55.8236 95.2704 55.6599 97.1693C55.5289 98.577 55.1033 99.952 54.8414 101.343C54.6613 102.293 54.4813 103.259 54.4322 104.224C54.3667 105.419 54.4158 106.614 54.4158 107.776C55.4798 109.413 56.7402 110.788 58.0825 112.131C60.767 114.799 63.9754 115.552 67.5439 115.012C69.3445 114.733 71.0796 114.062 72.8475 113.571C74.0097 113.244 75.0573 112.687 76.1049 112.082C77.6272 111.198 79.1005 110.166 80.8192 109.659C80.9502 109.299 81.1139 108.988 81.163 108.644C81.3267 107.515 81.6377 106.434 81.7359 105.272C81.8832 103.406 82.2761 101.556 82.5707 99.7065C82.7017 98.8553 82.8817 98.0041 82.9145 97.1529C82.9636 95.1886 83.4547 93.2898 83.8639 91.3909C84.535 88.3299 85.5335 85.3344 85.91 82.2079C86.0082 81.373 86.3029 80.5382 86.3684 79.7034C86.4829 78.0501 86.6794 76.4132 87.0068 74.7763C87.2359 73.6632 87.3178 72.5173 87.4978 71.3879C87.5633 70.9295 87.5797 70.5039 87.2032 70.0947C85.7791 70.4712 84.3549 70.8804 82.8981 71.1423C81.654 71.3551 80.4427 71.7152 79.2314 72.0099C78.6749 72.1408 78.1347 72.2227 77.5454 72.1736C76.5796 72.0917 75.6138 72.1245 74.6481 72.2227C72.6838 72.4355 70.7849 71.7807 68.837 71.8953C68.6733 71.8953 68.5096 71.7971 68.3459 71.748C65.7924 71.0605 63.3042 70.242 61.1599 68.5887C61.078 68.5233 60.9471 68.5069 60.6524 68.3759H60.6197ZM71.8653 53.7583C71.8326 53.5782 71.8489 53.5128 71.8162 53.48C71.6689 53.3327 71.5379 53.1526 71.3579 53.0544C71.3088 53.0217 71.0305 53.2345 71.0141 53.3491C70.9486 53.8729 70.6212 54.1348 70.212 54.3967C69.7209 54.7077 69.1971 54.9696 68.8043 55.3788C67.3147 56.9667 65.8742 58.5872 64.4174 60.2077C64.2209 60.4205 64.27 60.8789 64.5156 60.9607C64.6956 61.0098 65.0066 61.0098 65.1376 60.8952C67.3965 58.8655 69.4918 56.672 71.5216 54.4294C71.7016 54.233 71.7835 53.9384 71.8653 53.7747V53.7583ZM75.1555 47.6199C74.9591 47.669 74.8281 47.6854 74.7463 47.7345C73.846 48.2419 73.535 49.1913 73.0766 50.0261C73.0275 50.1244 73.1421 50.3863 73.2567 50.4517C73.4367 50.55 73.7477 50.6645 73.8623 50.5827C74.5989 50.0589 75.2537 49.4205 75.6957 48.6184C75.7775 48.4547 75.7121 48.1601 75.6138 47.98C75.5156 47.7999 75.2865 47.7017 75.1555 47.6199ZM35.133 105.026C33.2505 105.845 31.5481 106.663 29.7966 107.334C28.6835 107.76 27.4886 108.006 26.3264 108.251C24.4276 108.644 22.496 108.873 20.5481 108.939C18.4528 109.004 16.5704 108.464 14.8352 107.384C13.2802 106.418 11.7087 105.436 10.3828 104.159C9.56438 103.373 8.89324 102.44 8.173 101.556C8.04205 101.392 7.94383 101.147 7.92746 100.934C7.87836 100.427 7.79651 99.8865 7.86199 99.3955C8.10752 97.6931 8.07479 96.007 8.05842 94.3046C8.05842 93.1752 8.25485 92.0457 8.45128 90.9326C8.63134 89.8686 8.92598 88.821 8.89324 87.7079C8.89324 87.315 8.99146 86.9222 9.04056 86.5129C9.08967 86.0546 9.15515 85.6126 9.20426 85.1543C9.26973 84.4177 9.25336 83.6647 9.38432 82.9281C9.59712 81.6841 9.67896 80.4236 9.67896 79.1632C9.67896 78.312 9.64622 77.4444 9.9245 76.6096C10.0063 76.3477 10.0063 76.0367 9.98997 75.7584C9.9245 73.9251 10.2519 72.1408 10.5793 70.3402C10.8575 68.8343 10.9066 67.2792 11.0049 65.7405C11.0376 65.1349 11.2013 64.611 11.4959 64.12C11.6924 63.7598 12.2162 63.6616 12.5599 63.9072C12.74 64.0381 12.9364 64.1854 13.051 64.3655C13.8367 65.5605 15.048 66.248 16.2266 66.9518C17.4543 67.6884 18.682 68.425 19.9915 69.0143C21.2356 69.5873 22.5615 69.9965 23.9692 69.9965C25.5079 69.9965 27.063 70.0292 28.6017 70.0456C30.255 70.062 31.7773 69.5873 33.2014 68.8179C34.9202 67.9012 36.5898 66.9355 38.4068 65.9206C38.4395 65.7078 38.4886 65.3804 38.5214 65.053C38.6196 63.9726 38.7178 62.8923 38.816 61.8283C39.0125 59.6676 39.1925 57.4905 38.6523 55.3461C38.4723 54.6259 38.2267 53.9384 37.9321 53.2509C37.1955 51.5157 36.4752 49.7642 35.6568 48.0618C35.0184 46.7196 34.4291 45.3609 33.5452 44.1496C32.3502 42.48 31.2044 40.7612 30.5496 38.7642C30.435 38.4368 30.255 38.1094 30.2713 37.782C30.3368 35.9651 29.8948 34.1153 30.566 32.3147C30.8443 29.7612 31.4172 27.2567 31.941 24.7522C31.9901 24.4903 31.941 24.1956 31.941 23.7864C31.2535 23.9337 30.6806 24.0647 30.1076 24.3266C29.371 24.6704 28.5689 24.7031 27.7669 24.7358C25.8844 24.8177 24.313 24.1793 22.9543 22.9189C22.365 22.3787 21.7266 21.9203 21.0228 21.3474C20.9409 21.4784 20.7445 21.6421 20.7281 21.8221C20.679 22.7879 20.7281 23.7701 20.3844 24.7195C20.2698 25.0305 20.368 25.407 20.3516 25.7507C20.3516 26.1436 20.3516 26.5528 20.3025 26.9457C19.9097 29.5484 19.6969 32.151 19.4841 34.7701C19.3859 35.8996 19.1894 37.029 18.9275 38.1422C18.7802 38.7969 18.5347 39.4844 18.1582 40.041C16.8977 41.8907 16.0466 43.9696 14.5897 45.7047C14.2623 46.0976 13.9513 46.4904 13.6239 46.8833C13.362 47.1943 13.0674 47.4726 12.8546 47.7999C11.234 50.3044 9.08967 52.3833 7.28907 54.7568C6.91258 55.2643 6.65067 55.2315 5.99591 54.7568C5.91406 54.2821 6.17597 53.8729 6.43787 53.5291C7.66556 51.8759 8.92598 50.2553 10.17 48.6348C10.2028 48.5857 10.2519 48.5529 10.2846 48.5038C11.7087 46.4904 13.1328 44.4934 14.5406 42.48C14.9335 41.2523 15.7683 40.3029 16.4394 39.2389C16.8814 38.5514 17.1433 37.782 17.1924 36.9963C17.2579 35.6213 17.6016 34.279 17.7817 32.9368C17.7981 32.7731 17.8963 32.6094 17.8963 32.4293C17.8963 30.5305 18.371 28.6972 18.5838 26.8311C18.7802 25.2433 18.8457 23.6391 18.993 22.0513C19.0421 21.593 19.1403 21.151 19.2385 20.6927C19.5659 19.3013 19.5168 17.959 18.8293 16.6822C18.7311 16.4858 18.6492 16.2566 18.6165 16.0438C18.5674 15.6182 18.6656 15.2417 19.0912 15.0453C19.3368 14.9307 19.5987 14.7998 19.7787 14.7179C20.0734 13.0646 20.3844 11.5096 20.6299 9.93813C20.7281 9.33247 20.99 8.8414 21.4156 8.44854C21.5793 8.30122 21.9558 8.26848 22.2013 8.31759C22.3814 8.35032 22.5451 8.59586 22.6269 8.79229C22.7088 8.98872 22.7088 9.25063 22.6761 9.46343C22.5942 9.92176 22.496 10.3637 22.365 10.8057C21.7921 12.9664 21.432 15.1599 21.2519 17.3861C21.2192 17.7135 21.2519 18.0736 21.3665 18.3846C21.7758 19.6778 22.496 20.7581 23.6909 21.462C23.74 21.4947 23.7892 21.5275 23.8383 21.5602C26.1463 23.4099 28.5853 23.2299 31.0898 22.0022C31.5972 21.7566 32.0883 21.462 32.4975 21.2328C32.9395 19.1212 33.3651 17.1242 33.7743 15.1108C33.8234 14.8325 33.8234 14.5379 33.8071 14.2596C33.7416 13.3102 34.1836 12.4753 34.4782 11.6242C34.5109 11.5096 34.7892 11.3786 34.9038 11.4114C35.1002 11.4768 35.313 11.6242 35.3949 11.8042C35.4931 12.0661 35.5422 12.3771 35.5095 12.639C35.313 14.3905 35.2967 16.1748 34.7728 17.8772C34.6583 18.2209 34.7728 18.6465 34.7728 19.0557C35.3621 18.8757 35.8368 18.6629 36.3443 18.581C36.5735 18.5483 36.9336 18.712 37.0645 18.9084C37.1791 19.1048 37.13 19.465 37.0645 19.7105C36.9991 19.9069 36.7863 20.0706 36.6226 20.2343C36.2952 20.5453 35.9514 20.8563 35.6077 21.151C34.7565 21.9367 33.9217 22.7388 34.0199 24.032C33.4961 25.6198 33.4142 27.2894 33.1196 28.91C32.9722 29.6957 32.8086 30.4814 32.6449 31.2671C32.3502 32.724 32.1538 34.1808 32.0719 35.6704C31.9737 37.3728 32.5466 38.8297 33.3815 40.2047C34.1345 41.416 35.0184 42.5454 35.7877 43.7568C36.2788 44.5261 36.7863 45.3118 37.0809 46.1794C37.5392 47.538 38.3577 48.733 38.8979 50.0589C39.4053 51.2702 40.011 52.4488 40.502 53.6765C40.764 54.364 40.9767 55.1006 41.0259 55.8372C41.1241 57.425 41.1568 59.0292 41.1241 60.6333C41.1077 61.5336 40.8131 62.4339 40.7803 63.3506C40.764 64.2018 40.944 65.053 41.0095 65.9206C41.0422 66.2643 41.0422 66.6244 40.944 66.9518C40.6821 67.7375 40.7312 68.5233 40.6494 69.3254C40.502 70.9786 40.2729 72.6155 40.0765 74.2525C39.9291 75.3819 39.7491 76.5114 39.6345 77.6572C39.4217 79.7034 39.127 81.7495 39.3071 83.8284C39.3398 84.1067 39.2744 84.4013 39.2089 84.6796C38.8488 86.3001 38.816 87.9698 38.2922 89.5576C38.2104 89.8195 38.2758 90.1305 38.2595 90.4088C38.2431 90.8017 38.3249 91.2436 38.1776 91.6037C37.8175 92.4877 37.8666 93.4044 37.8666 94.3046C37.8666 96.2526 37.5556 98.1678 37.2282 100.083C37.2118 100.198 37.1627 100.312 37.1791 100.427C37.261 102.096 36.819 103.701 36.6717 105.354C36.5735 106.369 36.3115 107.367 36.066 108.366C36.0005 108.644 35.7059 108.808 35.3949 108.775C35.0511 108.742 34.7565 108.398 34.822 108.055C34.9693 107.269 35.133 106.483 35.2803 105.698C35.313 105.55 35.2312 105.387 35.1657 105.043L35.133 105.026ZM12.3799 65.9042C12.3799 66.9846 12.4945 67.6884 12.3471 68.3432C12.1343 69.2435 12.118 70.1602 12.0525 71.0605C12.0034 71.6825 12.0197 72.3373 11.8561 72.9266C11.6924 73.4995 11.6596 74.056 11.676 74.6126C11.7578 76.9043 11.1686 79.1632 11.4141 81.4549C11.4305 81.6677 11.3322 81.8969 11.2995 82.126C11.1849 83.2555 11.054 84.385 10.9558 85.5144C10.923 85.9073 10.923 86.3165 10.8739 86.7094C10.8084 87.2659 10.7266 87.8388 10.6447 88.3954C10.5629 88.9519 10.4974 89.5249 10.4319 90.0978C10.2519 91.571 10.0063 93.0442 9.90813 94.5174C9.77718 96.2198 10.0227 97.9386 9.61349 99.641C9.56438 99.8538 9.58075 100.099 9.58075 100.328C9.58075 100.754 9.7117 101.114 9.97361 101.442C10.5465 102.162 11.1522 102.849 11.9215 103.357C12.6418 103.831 13.4602 104.175 14.0823 104.748C15.048 105.632 16.2102 106.09 17.3725 106.549C18.8293 107.138 20.3516 107.285 21.9067 107.04C22.4633 106.958 23.0362 106.86 23.5927 106.794C25.1805 106.582 26.8011 106.418 28.2907 105.829C30.6642 104.879 33.005 103.782 35.3785 102.735C35.4276 102.506 35.5258 102.293 35.5258 102.08C35.5258 101.114 35.4931 100.132 35.8041 99.1827C35.8532 99.019 35.8368 98.8389 35.8368 98.6752C35.8368 97.9877 35.8205 97.3002 36.0496 96.6291C36.1642 96.3181 36.1315 95.9579 36.1315 95.6142C36.1806 94.0755 35.9678 92.5204 36.4261 90.9981C36.2952 89.4921 36.7371 88.0516 36.9991 86.5948C37.1955 85.4653 37.4083 84.3195 37.3592 83.19C37.2446 80.9311 37.6047 78.7376 37.8666 76.5278C38.063 74.8745 38.2922 73.2376 38.4395 71.5843C38.5214 70.7331 38.5377 69.8819 38.7342 69.0307C38.816 68.6542 38.9797 68.114 38.4068 67.7867C37.0973 68.7033 35.6404 69.3417 34.2818 70.2093C32.4157 71.4042 30.2877 71.8789 28.0615 71.8462C27.1448 71.8298 26.2282 71.8462 25.3279 71.8462C24.5912 71.8462 23.8219 72.0099 23.118 71.8462C21.563 71.5024 20.0079 71.126 18.6001 70.2911C16.5376 69.0634 14.3769 67.9995 12.3962 65.9206L12.3799 65.9042ZM17.307 120.168C18.4037 120.168 19.4841 120.119 20.5808 120.168C22.0377 120.233 23.4127 119.89 24.7713 119.448C26.1791 118.989 27.5868 118.498 29.0109 118.122C31.1062 117.565 32.4648 116.19 33.7743 114.684C33.9708 114.455 34.0035 114.062 34.0362 113.718C34.069 113.293 33.5779 112.998 33.185 113.195C32.563 113.506 32.0392 113.915 31.5809 114.455C30.877 115.306 29.944 115.863 28.8636 116.174C26.7192 116.779 24.5912 117.418 22.4469 118.024C22.1195 118.122 21.7758 118.171 21.432 118.171C18.9603 118.187 16.5049 118.236 14.0332 118.171C12.7236 118.138 11.4305 117.925 10.1209 117.794C10.0718 117.794 10.0063 117.778 9.95724 117.762C7.79651 117.041 5.83221 116.043 4.58816 114.029C4.16256 113.342 3.68786 112.704 3.295 112C2.60749 110.805 2.05094 109.593 2.231 108.137C2.34559 107.236 2.28011 106.303 2.31285 105.387C2.31285 104.994 2.28011 104.552 2.42743 104.192C2.70571 103.52 2.67297 102.849 2.70571 102.162C2.70571 101.818 2.72208 101.474 2.82029 101.147C3.19678 99.7556 3.22952 98.3315 3.39321 96.9237C3.57327 95.3359 3.32774 93.7154 3.7697 92.1439C3.85155 91.882 3.7697 91.571 3.78607 91.2927C3.90066 88.9519 4.03161 86.6275 4.14619 84.2867C4.14619 84.1722 4.16256 84.0412 4.21167 83.9594C4.57179 83.321 4.42447 82.6171 4.47358 81.946C4.58816 80.4727 4.60453 78.9831 4.85007 77.5263C5.14471 75.7748 5.40662 74.0397 5.42299 72.2718C5.42299 71.9935 5.42299 71.6989 5.48846 71.4206C5.65215 70.684 5.65215 69.9474 5.60305 69.2108C5.55394 68.245 5.55394 67.2792 5.78311 66.3134C5.93043 65.675 5.79948 64.9548 5.734 64.2673C5.70126 63.9726 5.45572 63.7762 5.11197 63.809C4.78459 63.8417 4.55542 64.0381 4.53905 64.3328C4.50631 65.2494 4.17893 66.1334 4.12982 67.0337C4.03161 68.6378 3.85155 70.2257 3.73696 71.8135C3.62238 73.4831 3.11494 75.0709 3.01672 76.7406C2.96762 77.6409 2.77119 78.5412 2.64023 79.4415C2.55839 80.0635 2.41107 80.6855 2.41107 81.3076C2.4438 83.0918 1.83815 84.8106 2.00184 86.5948C2.00184 86.7094 1.9691 86.824 1.91999 86.9222C1.64172 87.5115 1.70719 88.1499 1.69082 88.7883C1.65808 90.3924 1.83815 91.9966 1.42892 93.568C1.3307 93.9445 1.34707 94.3701 1.36344 94.763C1.49439 96.8255 1.1179 98.8553 0.921474 100.901C0.80689 102.096 0.626829 103.291 0.594091 104.486C0.544984 106.254 0.594091 108.038 0.594091 109.823C0.594091 110.166 0.594091 110.543 0.725044 110.837C1.65808 112.867 2.62386 114.897 4.16256 116.534C5.55394 118.024 7.33818 119.006 9.30247 119.513C10.4974 119.824 11.7578 119.922 13.0019 120.086C14.4096 120.266 15.8501 120.135 17.2742 120.135V120.168H17.307ZM75.1064 19.2358C74.1406 18.1718 74.3207 17.0423 74.8445 15.8801C76.1049 13.0646 78.2984 11.2477 81.0975 10.1182C81.4085 9.98724 81.7523 9.93813 82.096 9.92176C82.8981 9.88902 83.7002 9.92176 84.5023 9.90539C85.1407 9.90539 85.5335 10.2328 85.8937 10.7402C86.3684 11.4277 86.4666 12.2462 86.5975 12.9992C86.8431 14.5051 87.0068 16.0766 86.2374 17.5007C85.2553 19.3176 83.7493 20.3816 81.6704 20.709C80.0008 20.9709 78.5275 20.3653 77.0216 19.9069C76.4323 19.7269 75.843 19.4977 75.1064 19.2358ZM84.2895 11.8861C83.4055 11.5259 82.4398 11.4768 81.6377 11.8042C80.2299 12.3935 78.7731 12.9828 77.8073 14.276C77.2344 15.0453 76.7433 15.8965 76.2359 16.715C76.154 16.8459 76.1868 17.026 76.1704 17.2715C77.66 17.8444 79.1496 18.3846 80.6719 18.7775C81.8505 19.0721 82.9308 18.6138 83.8148 17.8117C84.5678 17.1406 84.8788 16.3221 84.846 15.2581C84.8133 14.0959 84.6332 13.0155 84.2895 11.8861ZM34.2327 5.37114C34.0853 6.10775 34.4127 6.76252 34.1017 7.46639C33.5615 8.64497 32.8086 9.62712 31.7282 10.3474C31.4499 10.5274 31.1062 10.6584 30.7788 10.6747C30.0422 10.7238 29.2728 10.7566 28.5526 10.6747C27.063 10.4783 25.6552 9.98724 24.4439 9.07057C23.1344 8.07205 22.9216 6.12412 23.9037 4.76548C25.3933 2.71934 27.5213 1.67172 29.8948 1.06606C30.8934 0.804153 31.8264 1.06606 32.5958 1.7863C32.6776 1.86815 32.7594 1.94999 32.8577 2.01547C33.9708 2.6866 34.3309 3.70149 34.2327 4.94554C34.2327 5.10924 34.2327 5.2893 34.2327 5.38751V5.37114ZM30.435 2.73571C29.5184 3.01399 28.6344 3.24315 27.7832 3.55417C26.7683 3.93066 25.8517 4.51995 25.1314 5.37114C24.7222 5.84585 24.5258 6.32055 24.8368 6.95895C25.2951 7.22085 25.7698 7.53187 26.2773 7.79377C27.5213 8.43217 28.8145 8.80866 30.2222 8.69408C30.6478 8.66134 30.9752 8.49765 31.2699 8.203C32.1538 7.31907 32.3175 6.20597 32.2356 5.04376C32.1538 3.9634 31.4827 3.30863 30.435 2.75208V2.73571ZM27.1939 33.0186C27.4231 33.0186 27.6523 33.0186 27.8814 33.0186C29.2237 33.0841 30.6315 34.279 29.7803 36.1942C29.3874 37.0945 28.7981 37.8475 28.0615 38.5023C26.8502 39.5663 25.4261 39.7791 23.9037 39.5499C23.5764 39.5008 23.249 39.3371 22.9707 39.1734C22.3323 38.7805 21.7921 38.2404 21.4647 37.5692C21.2356 37.1109 20.9409 36.8981 20.4662 36.7344C20.0243 36.5871 19.926 36.096 20.2043 35.7523C20.4662 35.4576 20.7445 35.163 21.0719 34.9502C22.3323 34.1481 23.7237 33.6406 25.1478 33.2641C25.8026 33.1005 26.4901 33.035 27.1612 32.9204C27.1612 32.9531 27.1612 32.9859 27.1612 33.0186H27.1939ZM22.3978 36.2106C22.6761 37.2091 23.2162 37.7657 24.002 38.093C24.6567 38.3713 25.3606 38.3549 26.0154 38.1258C27.2922 37.6838 27.996 36.6362 28.5362 35.4904C28.6672 35.2284 28.5362 34.9338 28.2416 34.7701C27.7669 34.4918 27.2594 34.5082 26.7356 34.59C25.1969 34.8192 23.8055 35.4249 22.3814 36.2106H22.3978ZM61.34 81.6022C61.1763 80.1126 61.1599 78.6885 61.3072 77.2808C61.3563 76.8552 61.6182 76.4296 61.8801 76.0694C62.5676 75.1037 63.8281 75.2837 64.3519 76.3477C64.8429 77.379 64.6629 78.4757 64.6793 79.5561C64.6793 79.6706 64.6465 79.7852 64.581 79.8834C63.779 80.9147 62.7641 81.5204 61.34 81.6022ZM62.7477 79.4415C63.4843 79.2287 63.3861 78.6558 63.3534 78.1483C63.3534 77.7555 63.3042 77.3299 62.6822 77.3135C62.5185 78.0337 62.3876 78.7376 62.7313 79.4415H62.7477ZM63.3042 87.446C62.9278 86.7421 62.1584 86.6766 61.5691 87.2004C60.8325 87.8716 60.3742 88.7391 60.0304 89.6395C59.9486 89.885 59.9977 90.2124 60.0959 90.4579C60.1614 90.638 60.4069 90.8671 60.5706 90.8671C60.8161 90.8671 61.0944 90.7198 61.3072 90.5725C61.4054 90.4906 61.4218 90.2615 61.4382 90.0978C61.52 89.3775 61.5036 89.3775 62.2239 88.8537C62.4203 89.5085 62.584 90.1796 62.8132 90.818C63.1406 91.7183 63.959 91.9475 64.7284 91.3582C65.2849 90.9326 65.7432 90.4252 65.9724 89.754C66.0215 89.574 65.9724 89.2793 65.8415 89.1484C65.7105 89.0174 65.4159 88.9192 65.2358 88.9847C64.8593 89.0993 64.5156 89.3121 64.1554 89.4921C63.8772 88.8046 63.6644 88.0844 63.3206 87.446H63.3042ZM78.8713 81.8314C79.5752 82.5025 80.2299 82.4534 80.9829 81.815C81.5395 81.3403 81.7686 80.7183 81.8996 80.0308C81.9487 79.7361 81.8341 79.4742 81.5558 79.3105C81.2612 79.1632 81.0156 79.2614 80.7701 79.4578C80.3936 79.7525 80.2627 80.3909 79.5261 80.3418C79.2969 79.9489 79.0677 79.4906 78.7731 79.0814C78.1674 78.1974 77.0707 78.1974 76.5305 79.1141C76.3013 79.4906 76.1376 79.9489 76.0885 80.3909C76.0231 80.9474 76.0558 81.5367 76.1213 82.0933C76.154 82.3716 76.2522 82.6498 76.4159 82.879C76.5305 83.0427 76.7924 83.2064 76.9561 83.1736C77.1198 83.1409 77.3326 82.879 77.3653 82.6989C77.4472 81.9623 77.4472 81.2257 77.4963 80.3254C78.0365 80.8983 78.4293 81.3894 78.8713 81.815V81.8314ZM79.0514 90.2451C78.4784 89.3775 77.7255 89.2957 77.1525 90.1305C76.3832 91.26 75.7939 92.4877 76.2195 93.9282C76.9234 93.8299 76.9725 93.7972 77.0707 93.5026C77.2508 92.9296 77.1525 92.2258 77.7909 91.8657C78.5003 92.2367 79.3078 92.4058 80.2136 92.3731C80.3445 92.6023 80.4591 92.8642 80.6228 93.0933C80.852 93.4044 81.3267 93.388 81.474 93.0606C81.8341 92.324 81.9814 91.5546 81.916 90.7362C81.8505 89.8686 81.2448 89.5249 80.5246 90.0159C80.1481 90.2615 79.788 90.5397 79.346 90.8671C79.215 90.6052 79.1496 90.4088 79.035 90.2451H79.0514ZM72.8966 93.2243C71.898 93.568 71.8817 93.5517 71.587 92.766C71.5543 92.6514 71.5216 92.5532 71.4888 92.4386C71.1778 91.6529 70.9159 91.5546 70.1138 92.0948C69.7046 92.3567 69.2953 92.4713 68.837 92.4222C68.4278 92.3731 68.1331 91.882 68.2805 91.5383C68.3623 91.3255 68.4605 91.1127 68.6078 90.9326C69.279 90.1633 69.9665 89.3939 70.654 88.6409C70.9977 88.2644 71.4561 88.1826 71.9144 88.3135C72.16 88.379 72.4382 88.5427 72.6019 88.7392C72.7656 88.952 72.9129 89.2466 72.9129 89.5249C72.9784 90.7689 73.0766 92.013 72.9129 93.2243H72.8966ZM70.5885 90.4088C70.7358 90.8671 71.0141 90.9653 71.4561 90.8508C71.587 90.4906 71.7835 90.0978 71.3906 89.6231C71.1123 89.9014 70.834 90.1633 70.5885 90.4088ZM70.5885 82.5516C68.8206 82.6007 68.215 81.6349 68.4114 80.0962C68.4933 79.3924 68.4605 78.7212 69.3117 78.4757C69.3936 78.4593 69.459 78.2956 69.4754 78.1974C69.7046 77.379 70.3266 77.379 70.965 77.4772C71.6361 77.5918 72.2418 78.2302 72.3073 78.8522C72.34 79.0814 72.3073 79.3105 72.3073 79.5397C72.3891 80.9147 71.9144 81.9787 70.5885 82.568V82.5516ZM70.4248 78.8522C69.5409 79.6706 69.3936 80.2599 69.8028 80.9638C69.8519 81.0457 70.0156 81.1275 70.0811 81.1111C70.2284 81.062 70.4248 80.9638 70.4739 80.8329C70.7195 80.2272 70.6376 79.6379 70.4248 78.8686V78.8522ZM68.6733 104.306C68.3787 103.962 67.7403 104.175 67.5439 103.57C67.6748 103.308 67.8549 103.013 67.9858 102.718C68.2477 102.113 68.1331 101.376 67.6093 101.032C66.9382 100.59 66.1852 100.312 65.3831 100.312C65.3013 100.312 65.154 100.558 65.1703 100.672C65.1867 100.82 65.3176 100.967 65.4322 101.081C65.7596 101.392 66.1852 101.638 66.398 101.998C66.6927 102.538 66.1688 102.931 65.9724 103.39C65.7105 103.962 65.8578 104.552 66.3816 104.879C66.709 105.076 67.1019 105.223 67.4784 105.256C67.904 105.305 68.3623 105.223 68.7715 105.206C69.1153 104.814 68.9025 104.552 68.6733 104.29V104.306ZM62.2403 99.0026C62.1584 98.446 61.3727 98.0532 60.9144 98.3642C59.9322 99.0517 59.3429 100.001 59.2774 101.196C59.2774 101.425 59.4739 101.769 59.6867 101.884C60.2268 102.178 60.8161 102.375 61.4054 102.587C61.6346 102.669 62.0602 102.44 62.0766 102.195C62.142 101.294 62.1911 100.394 62.273 99.2972C62.273 99.33 62.273 99.1499 62.2566 98.9862L62.2403 99.0026ZM74.6808 101.949C74.7135 101.687 74.337 101.507 74.0424 101.556C73.5841 101.638 73.2894 101.933 73.1585 102.293C72.9457 102.931 72.782 103.602 72.6838 104.29C72.6183 104.814 72.9457 105.141 73.535 105.239C74.3698 104.323 74.5498 103.144 74.6644 101.949H74.6808ZM16.5049 92.3731C17.1433 92.635 17.5689 92.8151 18.0109 92.9788C18.1745 92.9133 18.3546 92.8805 18.4692 92.766C19.7951 91.4892 21.3174 90.4743 22.9707 89.6395C23.7892 89.2302 24.5749 88.7555 25.377 88.3135C26.0972 87.9207 26.8666 87.757 27.685 87.757C28.5853 87.757 29.3874 88.0025 30.0585 88.5918C30.746 89.1975 31.4008 89.8359 32.0556 90.4743C32.4975 90.9162 32.8577 91.4401 33.4797 91.8002C33.758 91.4728 34.0035 91.1127 34.2981 90.8344C34.56 90.5725 35.0184 90.6707 35.1821 90.9981C35.2967 91.2436 35.4276 91.5219 35.4276 91.8002C35.4767 93.4698 35.4931 95.1231 35.5095 96.7928C35.5095 97.3002 35.2148 97.6112 34.822 97.8895C33.627 98.7243 32.3175 99.2645 30.9588 99.7228C30.1404 100.001 29.3056 100.214 28.5198 100.525C26.6046 101.278 24.624 101.36 22.6269 101.212C21.2683 101.098 19.926 100.803 18.5674 100.623C18.0436 100.558 17.5525 100.394 17.1433 100.083C16.0629 99.2645 14.8352 98.6425 13.8858 97.6112C13.3293 97.0056 13.3784 96.3835 13.5584 95.7124C13.6076 95.5487 13.7058 95.4014 13.804 95.2704C14.5733 94.1901 15.6373 93.4044 16.554 92.3895L16.5049 92.3731ZM33.9871 93.5844C32.874 93.7481 32.8577 93.7481 32.0719 93.2734C31.2207 92.766 30.5005 92.1276 29.9112 91.3418C29.3874 90.638 28.6999 90.1633 27.996 89.6558C27.4231 89.2302 26.8502 89.1975 26.2282 89.443C26.0154 89.5249 25.7862 89.5903 25.5898 89.7049C23.5273 90.9162 21.3338 91.9311 19.5659 93.6171C19.1567 94.01 18.7475 94.4356 18.1091 94.5829C17.618 94.452 17.0778 94.3046 16.554 94.1573C16.0302 94.632 15.5555 95.0413 15.0971 95.4832C14.9007 95.6797 14.7207 95.8925 14.5733 96.0725C14.6224 96.2526 14.6224 96.3835 14.6715 96.4654C14.8025 96.6454 14.9335 96.8582 15.1135 96.9892C16.8977 98.266 18.7638 99.3136 21.0228 99.4609C22.2177 99.5428 23.4127 99.6246 24.6076 99.641C25.3442 99.641 26.1136 99.5919 26.8011 99.3955C28.3398 98.9699 29.8457 98.4297 31.3681 97.9222C32.3011 97.6112 33.1523 97.1693 33.9217 96.4654C34.1017 95.516 33.9708 94.5502 34.0035 93.5844H33.9871ZM16.0302 83.812C16.1448 83.8448 16.243 83.9266 16.3412 83.943C16.865 83.9921 17.4379 83.6811 17.5853 83.2555C17.9617 82.2242 17.4216 80.6855 16.4722 80.1126C16.0302 79.8507 15.3099 80.0308 15.1626 80.5055C14.8516 81.5367 14.5897 82.5844 14.3278 83.6483C14.2787 83.8448 14.3605 84.0903 14.4096 84.3031C14.5079 84.6632 14.9662 84.7614 15.2281 84.4832C15.4082 84.2704 15.5391 84.0248 15.7028 83.7793C15.8174 83.7793 15.932 83.7793 16.0302 83.812ZM19.304 83.5338C19.2713 83.7629 19.2549 83.9757 19.2549 84.2049C19.2713 85.007 19.7787 85.5635 20.5972 85.6781C21.121 85.76 21.6284 85.4326 21.7266 84.9088C21.8085 84.4668 21.874 84.0085 21.874 83.5665C21.874 83.1082 21.6939 82.6826 21.1865 82.5025C21.0719 82.5025 20.9573 82.5025 20.8591 82.5189C20.4335 82.6498 20.0079 82.7808 19.4841 82.9445C19.4022 83.2064 19.3204 83.3701 19.304 83.5338ZM26.4082 84.8433C26.8829 85.187 27.3413 85.0561 27.4231 84.5159C27.4886 84.123 27.5213 83.7138 27.4722 83.3373C27.3576 82.4698 26.3591 82.0769 25.6552 82.6171C25.377 82.8135 25.1642 83.1082 24.9023 83.321C24.3948 83.7302 24.2966 84.2704 24.4112 84.8597C24.4439 85.0561 24.624 85.3016 24.804 85.3507C24.9677 85.3998 25.246 85.2853 25.377 85.1543C25.5734 84.9742 25.688 84.696 25.9335 84.3031C26.179 84.5978 26.2773 84.7614 26.4082 84.8597V84.8433ZM30.1731 85.3671C30.5987 85.6126 30.9261 85.3016 31.2371 85.0561C31.3681 84.9579 31.5154 84.8597 31.63 84.7451C32.1047 84.2213 31.941 83.1573 31.319 82.7808C31.0898 82.6335 30.5823 82.6662 30.3532 82.8463C29.8785 83.2391 29.6493 83.7302 29.682 84.2213C29.6657 84.7614 29.7966 85.1543 30.1731 85.3671ZM26.932 77.2153C27.063 77.5263 27.3085 77.7882 27.7177 77.6081C27.9305 76.9697 28.1597 76.3313 28.3561 75.6766C28.3725 75.5947 28.2907 75.4801 28.1925 75.2837C27.7996 75.3492 27.374 75.431 26.9975 75.4965C26.621 76.1185 26.7029 76.6915 26.9157 77.2316L26.932 77.2153ZM34.7237 84.2376C35.2148 84.2213 35.4276 83.8939 35.4767 83.4683C35.5258 82.9608 35.5749 82.437 35.1002 82.0769C34.9365 81.946 34.56 82.0442 34.5109 82.2242C34.3145 82.8954 34.2654 83.5501 34.5109 84.1885C34.6092 84.2213 34.6746 84.254 34.7237 84.2376ZM21.8576 76.4623C21.9394 76.2659 21.9394 76.0203 21.9231 75.8075C21.8903 75.562 21.4811 75.3165 21.2519 75.4474C21.0719 75.5456 20.8427 75.7584 20.8427 75.9221C20.8427 76.2986 20.9573 76.6751 21.0228 77.0188C21.5957 77.1171 21.7266 76.7569 21.8576 76.4623ZM24.182 76.2659C23.9856 76.5114 23.9856 76.8224 24.182 77.0188C24.3457 77.1989 24.6404 77.248 24.8859 77.3462C24.9186 77.3462 25.0659 77.1498 25.0496 77.1007C24.935 76.806 24.7877 76.5278 24.624 76.2495C24.5912 76.184 24.4276 76.2004 24.313 76.184C24.2639 76.2168 24.2148 76.2331 24.182 76.2659Z" fill="#2b2b2b"/>
</svg>
