<svg width="100" height="83" viewBox="0 0 100 83" fill="none" xmlns="http://www.w3.org/2000/svg">
<path d="M12.1932 43.9034V54.8154H10.2195V48.8638C10.2195 48.7902 10.1242 48.7599 10.0809 48.8205L6.18967 54.1964C6.14639 54.257 6.05116 54.257 6.00788 54.1964L2.13392 48.8205C2.09064 48.7599 1.99541 48.7902 1.99541 48.8638V54.8154H0V43.9034C0 43.8341 0.0562697 43.7822 0.121196 43.7822H1.0042C1.04315 43.7822 1.08211 43.8038 1.10375 43.8341L6.02952 50.9111C6.05982 50.9544 6.12475 50.9544 6.15505 50.9111L11.0981 43.8341C11.1198 43.7995 11.1587 43.7822 11.1977 43.7822H12.0634C12.1326 43.7822 12.1846 43.8385 12.1846 43.9034H12.1932ZM25.053 52.4261C24.7111 52.4261 24.4211 52.5473 24.1743 52.7897C23.9276 53.0364 23.8108 53.3264 23.8108 53.6813C23.8108 53.8458 23.8411 54.006 23.906 54.1575C23.9709 54.309 24.0575 54.4388 24.17 54.5514C24.2826 54.6639 24.4167 54.7548 24.5682 54.824C24.7197 54.8933 24.8799 54.9236 25.0574 54.9236C25.4209 54.9236 25.7153 54.8024 25.9577 54.56C26.2001 54.3133 26.3169 54.0276 26.3169 53.6813C26.3169 53.3351 26.2001 53.0321 25.9577 52.7897C25.7153 52.543 25.4209 52.4261 25.0574 52.4261H25.053ZM38.8651 52.7507C38.7482 53.1316 38.5491 53.4779 38.2678 53.7809C37.9907 54.0839 37.6142 54.3349 37.1467 54.5254C36.6792 54.7158 36.0862 54.8111 35.385 54.8111H30.983V43.8904H35.3374C35.7962 43.8904 36.2334 43.9726 36.6316 44.1371C37.0298 44.3016 37.3848 44.5224 37.6791 44.795C37.9734 45.0634 38.2072 45.3837 38.376 45.7386C38.5448 46.0936 38.627 46.4615 38.627 46.8381C38.627 47.1843 38.5491 47.5653 38.389 47.9678C38.2331 48.366 37.9345 48.7209 37.5016 49.0239L37.3458 49.1321L37.5189 49.2144C37.783 49.3356 38.0124 49.4914 38.2028 49.6732C38.3933 49.855 38.5534 50.0541 38.6746 50.2619C38.7958 50.4696 38.8867 50.6904 38.9473 50.9111C39.0079 51.1362 39.0382 51.357 39.0382 51.5647C39.0382 51.9673 38.9776 52.3655 38.8608 52.7507H38.8651ZM32.9784 48.076C32.9784 48.1669 33.052 48.2362 33.1386 48.2362H35.095C35.5105 48.2362 35.8525 48.1366 36.1079 47.9332C36.3719 47.7254 36.5104 47.4484 36.5104 47.1064C36.5104 46.7645 36.3762 46.4745 36.1165 46.2364C35.8568 46.0027 35.5149 45.8815 35.095 45.8815H33.1386C33.0477 45.8815 32.9784 45.9551 32.9784 46.0416V48.0717V48.076ZM36.9259 51.5647C36.9259 51.3959 36.8956 51.2271 36.8394 51.067C36.7788 50.9025 36.6792 50.7553 36.5364 50.6298C36.3979 50.5086 36.2074 50.409 35.9694 50.3354C35.7356 50.2619 35.4456 50.2272 35.108 50.2272H33.1386C33.0477 50.2272 32.9784 50.3008 32.9784 50.3874V52.6555C32.9784 52.7464 33.052 52.8156 33.1386 52.8156H35.108C35.7443 52.8156 36.1988 52.6945 36.4844 52.4477C36.7744 52.1967 36.9216 51.898 36.9216 51.5604L36.9259 51.5647ZM43.4792 43.8947V50.6904C43.4792 51.3093 43.5831 51.885 43.7909 52.4001C43.9943 52.9152 44.2843 53.361 44.6522 53.7333C45.0158 54.1012 45.4616 54.3955 45.9767 54.6076C46.4918 54.8197 47.0675 54.9236 47.6864 54.9236C48.3054 54.9236 48.8811 54.8154 49.3962 54.6076C49.9113 54.3955 50.3571 54.1012 50.7293 53.7333C51.0973 53.3654 51.3916 52.9152 51.595 52.4001C51.8028 51.885 51.9067 51.3093 51.9067 50.6904V43.8947H49.9156V50.4047C49.9156 50.7899 49.855 51.1405 49.7338 51.4565C49.6126 51.7725 49.4481 52.0409 49.2404 52.2573C49.0326 52.4737 48.7945 52.6425 48.5262 52.7594C48.2578 52.8762 47.9765 52.9368 47.6864 52.9368C47.3964 52.9368 47.1151 52.8762 46.8467 52.7594C46.5784 52.6425 46.3403 52.4737 46.1325 52.2573C45.9291 52.0409 45.7603 51.7725 45.6391 51.4565C45.5179 51.1449 45.4573 50.7899 45.4573 50.4047V43.8947H43.4835H43.4792ZM57.3086 54.8154H59.2997V50.5346C59.2997 50.435 59.3776 50.3571 59.4771 50.3571H63.3554V48.3487H59.4771C59.3776 48.3487 59.2997 48.2708 59.2997 48.1712V46.059C59.2997 45.9594 59.3776 45.8815 59.4771 45.8815H64.2514V43.8904H57.3086V54.8111V54.8154ZM68.9088 54.8154H70.8999V50.5346C70.8999 50.435 70.9778 50.3571 71.0774 50.3571H74.9556V48.3487H71.0774C70.9778 48.3487 70.8999 48.2708 70.8999 48.1712V46.059C70.8999 45.9594 70.9778 45.8815 71.0774 45.8815H75.8516V43.8904H68.9088V54.8111V54.8154ZM80.4701 54.8154H87.4129V52.8243H82.6386C82.5391 52.8243 82.4612 52.7464 82.4612 52.6468V50.5346C82.4612 50.435 82.5391 50.3571 82.6386 50.3571H86.5169V48.3487H82.6386C82.5391 48.3487 82.4612 48.2708 82.4612 48.1712V46.059C82.4612 45.9594 82.5391 45.8815 82.6386 45.8815H87.4129V43.8904H80.4701V54.8111V54.8154ZM91.8625 43.8947V45.8858H94.7756C94.8751 45.8858 94.953 45.9637 94.953 46.0633V54.8154H96.9441V46.0633C96.9441 45.9637 97.022 45.8858 97.1216 45.8858H100V43.8947H91.8625ZM18.3699 47.444C18.331 47.4917 18.2877 47.5436 18.2314 47.5653C18.1924 47.5782 18.1665 47.5782 18.1448 47.5739C18.0712 47.5479 18.0712 47.4267 18.0712 47.3488V46.4312H16.3572V52.4824H18.1405C18.1405 52.4824 18.1318 51.1968 18.1405 51.041C18.1881 50.396 18.4478 49.7165 18.8157 49.1884C19.2616 48.5478 19.9368 48.0673 20.7203 47.9591L20.8761 47.9418V46.4009H20.7462C19.8286 46.4009 18.9586 46.7169 18.3656 47.444H18.3699ZM53.8199 20.0147C53.7722 20.0667 53.7679 20.1316 53.7852 20.1965C53.8199 20.322 53.8588 20.4476 53.8934 20.5774C53.9194 20.6683 53.941 20.7592 53.9627 20.8501C53.98 20.9237 53.9973 20.9973 54.0103 21.0709C54.0233 21.1661 54.0449 21.2613 54.1012 21.3435C54.1402 21.3998 54.2051 21.3955 54.2354 21.3349C54.2484 21.3089 54.257 21.2786 54.2657 21.2527C54.3133 21.0882 54.3652 20.928 54.4085 20.7635C54.4258 20.7116 54.4302 20.6553 54.4345 20.625C54.4345 20.4779 54.4042 20.4086 54.3522 20.3523C54.2354 20.2355 54.1142 20.1143 53.993 20.0017C53.9281 19.9411 53.8761 19.9498 53.8199 20.0147ZM54.8284 24.6591C54.8024 24.6808 54.7764 24.7067 54.7548 24.7327C54.6985 24.7933 54.6379 24.8496 54.5643 24.8885C54.4085 24.9708 54.2527 25.0574 54.1012 25.1482C53.9843 25.2175 53.8761 25.3084 53.7506 25.3647C53.6294 25.4166 53.5212 25.4859 53.426 25.5724C53.3654 25.6244 53.3091 25.6763 53.2485 25.7326C53.1663 25.8105 53.071 25.8754 52.9585 25.9144C52.8416 25.9577 52.7248 26.0053 52.6036 26.0442C52.5256 26.0702 52.4694 26.1135 52.4218 26.1784C52.3698 26.252 52.3006 26.3083 52.2183 26.3429C52.0971 26.3948 51.9889 26.4728 51.8461 26.4598C51.7812 26.4554 51.7465 26.5117 51.7509 26.581C51.7595 26.6459 51.7985 26.6935 51.8418 26.7368C51.9456 26.8407 52.0322 26.845 52.1404 26.7498C52.2183 26.6848 52.2919 26.6199 52.3612 26.5507C52.465 26.4425 52.5862 26.3559 52.7161 26.278C52.7854 26.239 52.8546 26.213 52.9325 26.226C53.0494 26.226 53.1576 26.2001 53.2701 26.1698C53.3351 26.1524 53.3827 26.1135 53.4087 26.0572C53.4606 25.9404 53.5515 25.8754 53.6554 25.8148C53.7463 25.7629 53.8415 25.7109 53.9324 25.6633C54.0233 25.6157 54.0925 25.5508 54.1488 25.4642C54.1748 25.4209 54.2137 25.382 54.257 25.3517C54.4561 25.2088 54.6596 25.0747 54.8587 24.9318C54.902 24.9015 54.9452 24.8582 54.9799 24.815C55.0188 24.7673 55.0102 24.7241 54.9626 24.6764C54.9193 24.6332 54.8717 24.6245 54.8197 24.6635L54.8284 24.6591ZM52.8589 13.7298C52.9758 13.7038 53.0883 13.6865 53.2095 13.6952C53.2918 13.6995 53.3524 13.6606 53.387 13.6C53.4303 13.5264 53.4822 13.4701 53.5342 13.4052C53.5818 13.3446 53.5861 13.3013 53.5472 13.2364C53.4909 13.1455 53.4086 13.0806 53.2961 13.0806C53.1446 13.0806 52.9974 13.0762 52.846 13.0806C52.7594 13.0849 52.6728 13.1152 52.5862 13.1325C52.53 13.1455 52.478 13.1628 52.4218 13.1628C52.3222 13.1628 52.2313 13.1974 52.1491 13.2494C52.1101 13.2753 52.0712 13.3013 52.0322 13.3273C51.937 13.3792 51.8591 13.4485 51.7898 13.5264C51.7292 13.5913 51.6643 13.6519 51.5994 13.7125C51.5301 13.7774 51.4565 13.8424 51.3873 13.9116C51.331 13.9722 51.3007 14.0415 51.318 14.128C51.3223 14.1583 51.3223 14.1843 51.3267 14.2146C51.3397 14.3445 51.3526 14.47 51.3656 14.5998C51.3743 14.6561 51.3873 14.708 51.3916 14.7643C51.4046 14.8639 51.4219 14.9634 51.4695 15.05C51.5691 15.2448 51.6643 15.4396 51.7941 15.617C51.8547 15.6993 51.9153 15.7815 51.9716 15.8681C52.0235 15.9503 52.0928 16.0109 52.175 16.0585C52.214 16.0802 52.2573 16.1061 52.2962 16.1321C52.4045 16.2014 52.5127 16.2749 52.6209 16.3485C52.7161 16.4135 52.82 16.4741 52.8979 16.5606C52.9325 16.5996 52.9628 16.6385 52.9975 16.6732C53.1057 16.7814 53.2139 16.8896 53.3307 16.9891C53.4303 17.0757 53.5212 17.1709 53.5991 17.2791C53.6424 17.3397 53.6857 17.4047 53.729 17.4696C53.7722 17.5302 53.8155 17.5951 53.8675 17.6514C53.9194 17.712 53.98 17.712 54.0319 17.6514C54.0406 17.6427 54.0449 17.6341 54.0536 17.6254C54.1488 17.5129 54.2397 17.4003 54.3393 17.2921C54.3955 17.2272 54.4605 17.1753 54.5211 17.1147C54.6206 17.0108 54.6812 16.8982 54.6379 16.7511C54.6206 16.6948 54.6163 16.6342 54.612 16.5779C54.5946 16.4135 54.5903 16.249 54.547 16.0888C54.5254 16.0066 54.4648 15.9633 54.3869 15.9806C54.2484 16.0066 54.1099 16.0282 53.967 16.0282C53.9367 16.0282 53.9021 16.0369 53.8718 16.0412C53.7246 16.0585 53.5861 16.0499 53.4519 15.9763C53.1836 15.8248 52.9109 15.6819 52.6642 15.4915C52.6036 15.4439 52.5516 15.3876 52.4997 15.3357C52.478 15.314 52.478 15.2881 52.491 15.2621C52.504 15.2361 52.5257 15.2318 52.5516 15.2361C52.5689 15.2361 52.5862 15.2361 52.6036 15.2448C52.768 15.2881 52.9368 15.3184 53.097 15.379C53.2009 15.4179 53.3091 15.4482 53.413 15.4828C53.4822 15.5088 53.5385 15.4915 53.5904 15.4396C53.6034 15.4266 53.6164 15.4136 53.6251 15.4006C53.677 15.3357 53.7246 15.2707 53.7809 15.2015C53.7419 15.1192 53.7203 15.1019 53.6424 15.0976C53.5991 15.0976 53.5558 15.0889 53.5125 15.0803C53.4519 15.0716 53.3913 15.063 53.3307 15.0543C53.1273 15.0284 52.9239 15.011 52.7204 14.9807C52.5689 14.9548 52.4131 14.9201 52.2659 14.8769C52.1101 14.8336 51.9586 14.8292 51.8071 14.8769C51.7682 14.8898 51.7249 14.8985 51.6859 14.8985C51.6124 14.8985 51.5518 14.8336 51.5777 14.7643C51.634 14.6215 51.6816 14.47 51.7768 14.3445C51.8331 14.2709 51.8764 14.193 51.9283 14.1194C51.9673 14.0631 51.9976 14.0025 52.0452 13.9549C52.1491 13.8337 52.2703 13.7558 52.4391 13.7601C52.5733 13.7601 52.7074 13.7428 52.8416 13.7341C52.846 13.7341 52.8546 13.7341 52.8589 13.7341V13.7298ZM54.4431 14.6345C54.4908 14.6128 54.5037 14.5739 54.5037 14.5349C54.5037 14.4743 54.4258 14.3704 54.3696 14.3618C54.3522 14.3618 54.3263 14.3618 54.309 14.3704C54.244 14.4007 54.2224 14.47 54.257 14.5306C54.2743 14.5609 54.3003 14.5869 54.322 14.6128C54.3566 14.6474 54.3955 14.6518 54.4431 14.6345ZM52.4953 14.2579C52.4391 14.2492 52.3871 14.2579 52.3482 14.2968C52.3136 14.3315 52.2789 14.3704 52.253 14.4094C52.201 14.483 52.227 14.5479 52.3179 14.5782C52.3698 14.5955 52.4174 14.6085 52.4694 14.6215C52.5386 14.6388 52.5906 14.6042 52.5992 14.5306C52.6079 14.457 52.6252 14.4007 52.7031 14.3748C52.7334 14.3661 52.7507 14.3445 52.7464 14.3055C52.7377 14.2665 52.7118 14.2536 52.6771 14.2536H52.4997L52.4953 14.2579ZM50.4956 26.1524C50.5605 26.1524 50.5822 26.1048 50.6038 26.0529C50.6514 25.9317 50.699 25.8148 50.7467 25.6936C50.7596 25.6633 50.7683 25.6244 50.7683 25.5897C50.7683 25.5118 50.699 25.4642 50.6298 25.5032C50.5432 25.5508 50.4567 25.6027 50.3744 25.6547C50.3311 25.685 50.2965 25.7283 50.2965 25.7889C50.3052 25.8192 50.3138 25.8495 50.3225 25.8798C50.3441 25.936 50.3701 25.9923 50.3961 26.0486C50.4177 26.0962 50.4393 26.1438 50.4956 26.1481V26.1524ZM51.7941 24.2609C51.7941 24.2609 51.7595 24.2523 51.7422 24.2479C51.5734 24.2176 51.3959 24.2306 51.2271 24.1917C51.0929 24.1614 50.9501 24.1614 50.8202 24.1311C50.6947 24.1008 50.5692 24.0791 50.4393 24.0661C50.2619 24.0445 50.0844 24.0099 49.9113 23.9666C49.8334 23.9493 49.7814 23.9017 49.7468 23.8324C49.7251 23.7934 49.7122 23.7502 49.6948 23.7112C49.6775 23.6722 49.6862 23.6333 49.7165 23.6073C49.7381 23.5857 49.7684 23.5684 49.7987 23.5597C49.9243 23.5251 50.0498 23.4991 50.171 23.4602C50.3052 23.4212 50.435 23.3649 50.5735 23.3346C50.6558 23.3173 50.725 23.274 50.7683 23.1918C50.8073 23.1139 50.7813 23.036 50.699 23.01C50.5995 22.9797 50.4956 22.9537 50.3917 22.9407C50.2965 22.9321 50.2056 22.9104 50.1147 22.8845C49.9069 22.8325 49.6992 22.7806 49.4957 22.72C49.4092 22.694 49.3269 22.6421 49.249 22.5901C49.2057 22.5642 49.1798 22.5122 49.1451 22.4733C49.0975 22.4257 49.0542 22.378 49.0066 22.3261C48.9201 22.2395 48.8335 22.153 48.7469 22.0664C48.7469 22.0664 48.7383 22.0577 48.7383 22.0534C48.7253 22.0274 48.7296 22.0015 48.7469 21.9798C48.7642 21.9582 48.7902 21.9625 48.8118 21.9712C48.8292 21.9798 48.8508 21.9885 48.8638 22.0015C48.9374 22.0577 49.0196 22.0924 49.1062 22.1183C49.1538 22.1313 49.2014 22.1486 49.249 22.166C49.4092 22.2222 49.578 22.2482 49.7468 22.2612C49.7987 22.2612 49.8507 22.2698 49.9026 22.2828C50.0714 22.3218 50.2446 22.3391 50.4307 22.3521C50.5259 22.3434 50.6341 22.3391 50.738 22.3174C50.9458 22.2785 51.1405 22.1833 51.3267 22.088C51.3656 22.0664 51.3959 22.0231 51.4219 21.9842C51.4522 21.9365 51.4479 21.8846 51.4132 21.837C51.3613 21.7634 51.292 21.7201 51.2011 21.7115C51.1579 21.7115 51.1146 21.7028 51.0713 21.6985C50.9761 21.6942 50.8765 21.6855 50.7813 21.6855C50.7077 21.6855 50.6341 21.6941 50.5605 21.6941C50.3268 21.7028 50.0974 21.7071 49.8637 21.7115C49.8377 21.7115 49.8117 21.7158 49.7857 21.7201C49.6775 21.7418 49.5693 21.7331 49.4654 21.6898C49.4178 21.6725 49.3702 21.6509 49.3226 21.6465C49.2101 21.6336 49.1018 21.6249 48.9893 21.6249C48.695 21.6249 48.405 21.5946 48.115 21.5297C48.063 21.5167 48.0241 21.5297 47.9851 21.56C47.9462 21.5903 47.9245 21.6336 47.9115 21.6768C47.8942 21.7245 47.8769 21.7764 47.8596 21.824C47.7514 22.0794 47.6432 22.3391 47.535 22.5945C47.509 22.6551 47.4787 22.7243 47.483 22.7892C47.483 22.8888 47.47 22.9754 47.4267 23.0619C47.3964 23.1269 47.3921 23.1918 47.4138 23.2567C47.483 23.4602 47.5782 23.6506 47.6821 23.8411C47.6951 23.8627 47.7124 23.8757 47.7254 23.8973C47.7687 23.9623 47.8076 24.0229 47.8466 24.0921C47.8726 24.1354 47.8899 24.183 47.9115 24.2263C47.9505 24.2999 48.0024 24.3215 48.089 24.3085C48.1756 24.2955 48.2621 24.2739 48.3487 24.2609C48.4526 24.2479 48.5175 24.3042 48.5262 24.4081C48.5262 24.4384 48.5262 24.473 48.5262 24.5033C48.5262 24.5942 48.5824 24.6461 48.669 24.6461C48.7772 24.6461 48.8854 24.6461 48.9936 24.6461C49.0283 24.6461 49.0629 24.6462 49.0975 24.6418C49.2057 24.6332 49.3139 24.6158 49.4222 24.6115C49.5217 24.6072 49.578 24.6808 49.5607 24.776C49.5607 24.7933 49.552 24.8106 49.5477 24.8279C49.5304 24.9015 49.5477 24.9665 49.5737 25.0357C49.6083 25.1136 49.6602 25.1482 49.7468 25.1439C49.7814 25.1439 49.816 25.1439 49.8507 25.1396C49.9719 25.1266 50.0887 25.1136 50.2099 25.105C50.2965 25.105 50.3701 25.0747 50.435 25.0227C50.5129 24.9578 50.5865 24.8929 50.6644 24.8279C50.699 24.7976 50.7293 24.7673 50.764 24.7414C50.8246 24.6938 50.8938 24.7154 50.9155 24.789C50.9155 24.802 50.9155 24.8106 50.9198 24.8236C50.9371 24.9145 51.0064 24.9405 51.0799 24.8842C51.1189 24.8582 51.1535 24.8236 51.1882 24.7976C51.2747 24.7327 51.3656 24.7024 51.4738 24.7327C51.5604 24.7587 51.6297 24.737 51.6903 24.6461C51.7379 24.5682 51.7898 24.4947 51.8374 24.4167C51.885 24.3432 51.8677 24.2912 51.7855 24.2566L51.7941 24.2609ZM41.8301 3.51037C41.8084 3.40216 41.8084 3.31992 41.9513 3.25499C42.211 3.13812 42.4707 3.02125 42.7304 2.91304C43.5138 2.58408 44.3232 2.32004 45.1457 2.10795C45.5915 1.99541 46.0416 1.89153 46.4918 1.81795C46.7905 1.77033 47.0935 1.72272 47.3964 1.67944C47.6302 1.64481 47.8639 1.61884 48.0933 1.5972C48.2708 1.57988 48.4483 1.57122 48.6301 1.55824C48.682 1.55824 48.7339 1.54525 48.7859 1.54525C48.8811 1.54525 48.933 1.60585 48.9071 1.69675C48.8898 1.766 48.8638 1.83093 48.8378 1.89586C48.8118 1.96078 48.7945 2.03004 48.7945 2.09929C48.7945 2.22049 48.7642 2.33303 48.7253 2.44124C48.6647 2.61005 48.5954 2.77453 48.4872 2.9217C48.4742 2.94334 48.4612 2.96931 48.4526 2.99095C48.4223 3.08618 48.3574 3.14678 48.2708 3.19872C48.0976 3.3026 47.9115 3.36753 47.7211 3.42813C47.3964 3.52768 47.0848 3.64888 46.7818 3.8047C46.6173 3.89127 46.4572 3.98217 46.2927 4.06874C46.2451 4.09471 46.1931 4.11635 46.1412 4.14232C46.1152 4.1553 46.0849 4.16396 46.0633 4.18128C46.0503 4.18993 46.0416 4.22023 46.046 4.23322C46.046 4.25053 46.0676 4.27217 46.0849 4.27217C46.1239 4.27217 46.1628 4.27217 46.1975 4.26784C46.4096 4.2159 46.6217 4.15963 46.8381 4.11202C47.0199 4.06874 47.206 4.03411 47.3878 3.99515C47.496 3.97351 47.6042 3.95187 47.7124 3.9259C47.7427 3.91724 47.7687 3.89993 47.7947 3.87828C47.812 3.8653 47.825 3.84366 47.8379 3.82201C47.8856 3.76142 47.9418 3.72679 48.0241 3.72679C48.2102 3.72679 48.392 3.70515 48.5781 3.70082C48.7036 3.70082 48.8292 3.70948 48.9547 3.7138C48.9807 3.7138 49.0153 3.7138 49.0369 3.69649C49.0889 3.66619 49.1019 3.62291 49.0759 3.55798C49.0629 3.52335 49.0542 3.49305 49.0759 3.45843C49.0975 3.43245 49.1192 3.41081 49.1538 3.41081C49.288 3.41081 49.4178 3.41081 49.552 3.41947C49.7165 3.43678 49.8853 3.46708 50.0498 3.48872C50.158 3.50171 50.2662 3.51902 50.3744 3.52335C50.409 3.52335 50.4523 3.5147 50.4826 3.49738C50.5952 3.43678 50.7207 3.41514 50.8419 3.38484C50.9501 3.35887 51.0583 3.35021 51.1708 3.38051C51.2791 3.41081 51.3959 3.41081 51.5085 3.4238C51.7119 3.44977 51.9153 3.49305 52.0928 3.60126C52.1577 3.64022 52.227 3.63589 52.2962 3.61425C52.3915 3.58828 52.4824 3.57096 52.5776 3.55365C52.6858 3.53634 52.7897 3.55365 52.8892 3.59261C53.0104 3.63589 53.1316 3.69216 53.2182 3.79172C53.2442 3.82201 53.2658 3.85664 53.2918 3.89127C53.3307 3.94754 53.3351 4.01247 53.3048 4.07739C53.2658 4.16396 53.2269 4.25486 53.1879 4.34143C53.1706 4.38038 53.1446 4.3977 53.1057 4.3977C53.0667 4.3977 53.0494 4.37606 53.0321 4.34576C52.9888 4.26784 52.9455 4.1856 52.8936 4.11202C52.8589 4.06008 52.8113 4.02112 52.768 3.97784C52.7637 3.97351 52.7551 3.96485 52.7464 3.96052C52.7074 3.93888 52.6642 3.91724 52.6209 3.94321C52.5776 3.97351 52.5689 4.01679 52.5819 4.06874C52.6165 4.24187 52.6339 4.41501 52.6339 4.59248C52.6339 4.67039 52.6425 4.74397 52.6555 4.82188C52.6728 4.92144 52.6815 5.02099 52.6728 5.12055C52.6685 5.18115 52.6728 5.24174 52.6728 5.30667C52.6728 5.44518 52.6339 5.57071 52.5992 5.70489C52.5343 5.98191 52.465 6.25893 52.4001 6.53595C52.3871 6.60087 52.3742 6.66147 52.3655 6.7264C52.3655 6.73938 52.3612 6.7567 52.3612 6.76968C52.3612 6.84327 52.4218 6.88222 52.4867 6.85192C52.5776 6.81297 52.6555 6.76103 52.7291 6.69177C52.7983 6.62252 52.8633 6.55326 52.9282 6.47968C52.9498 6.45804 52.9672 6.42774 52.9931 6.40609C53.0321 6.36714 53.0754 6.36714 53.1143 6.40609C53.1273 6.41908 53.136 6.43207 53.1446 6.44938C53.2052 6.58789 53.2658 6.73073 53.3221 6.86924C53.3481 6.92984 53.3654 6.99476 53.3221 7.05536C53.2745 7.12029 53.2009 7.15059 53.123 7.15059C53.0667 7.15059 53.0061 7.14193 52.9498 7.13327C52.8676 7.12029 52.7897 7.09865 52.7074 7.09865C52.5343 7.09865 52.3742 7.04238 52.2097 6.99909C52.1188 6.97312 52.0192 6.96446 51.924 6.94282C51.8504 6.92984 51.7812 6.91685 51.7119 6.89521C51.5864 6.85625 51.4652 6.8173 51.3353 6.81297C51.3007 6.81297 51.2661 6.80431 51.2314 6.79565C51.0626 6.74804 50.8895 6.75237 50.7207 6.71774C50.699 6.71774 50.6774 6.71774 50.6601 6.71774C50.487 6.73938 50.3181 6.76103 50.145 6.787C50.132 6.787 50.1147 6.79133 50.1017 6.79565C49.9589 6.80864 49.816 6.83028 49.6732 6.83461C49.4784 6.83894 49.288 6.88655 49.0975 6.89521C49.0586 6.89521 49.0239 6.90819 48.985 6.91252C48.7599 6.95581 48.5348 6.99909 48.3097 7.03805C48.1063 7.07267 47.9029 7.10297 47.7038 7.1376C47.6648 7.14626 47.6215 7.15492 47.5826 7.1679C47.3835 7.23716 47.18 7.26745 46.9723 7.29775C46.7428 7.33238 46.5178 7.37999 46.2884 7.42761C46.1369 7.45791 45.9854 7.50119 45.8295 7.52283C45.7213 7.53582 45.6261 7.56612 45.5266 7.6094C45.4746 7.63104 45.4183 7.63537 45.3621 7.64403C45.1889 7.67433 45.0288 7.7306 44.8643 7.79552C44.8037 7.82149 44.7431 7.83881 44.6782 7.85179C44.4228 7.89941 44.1804 7.98598 43.938 8.07687C43.6783 8.1721 43.4229 8.27165 43.1632 8.36688C43.0983 8.39285 43.0334 8.36688 43.0117 8.29329C42.9684 8.16344 42.9295 8.02926 42.8862 7.89941C42.8429 7.7609 42.8343 7.61806 42.8386 7.47089C42.8386 7.35402 42.8386 7.23716 42.8386 7.11596H42.8343C42.8343 6.94715 42.8343 6.77401 42.8343 6.6052C42.8343 6.59222 42.8343 6.58356 42.8343 6.57058C42.8083 6.37147 42.8386 6.17669 42.8819 5.98624C42.8862 5.96027 42.8905 5.93429 42.8905 5.90832C42.8819 5.74817 42.9165 5.58802 42.9252 5.42787C42.9338 5.31533 42.9468 5.20279 42.9555 5.08592C42.9598 5.00801 42.9381 4.93875 42.8905 4.87815C42.7823 4.74397 42.6784 4.60546 42.5356 4.50158C42.4707 4.45397 42.4144 4.38904 42.3625 4.32844C42.2759 4.23322 42.185 4.13799 42.1114 4.03411C42.0119 3.8956 41.9253 3.74843 41.8387 3.60126C41.8257 3.57529 41.8171 3.54499 41.8084 3.51902L41.8301 3.51037ZM51.2358 6.63983C51.2704 6.66147 51.2964 6.63983 51.3223 6.62252C51.4262 6.54028 51.5344 6.45804 51.6383 6.36714C51.6773 6.33251 51.7076 6.2849 51.7292 6.23729C51.8374 6.00355 51.8634 5.74817 51.8937 5.49279C51.911 5.32831 51.911 5.16383 51.9197 4.99935C51.9197 4.96905 51.9197 4.93875 51.9197 4.91278C51.9283 4.7786 51.9024 4.64875 51.8504 4.52755C51.8028 4.42367 51.7638 4.32411 51.7119 4.22023C51.6859 4.16829 51.6556 4.11635 51.621 4.06874C51.6037 4.04709 51.5864 4.02112 51.5474 4.02978C51.5085 4.04277 51.4868 4.06874 51.4868 4.10769C51.4868 4.13799 51.4868 4.16829 51.4868 4.19426C51.4868 4.36307 51.4868 4.53621 51.4868 4.70502C51.4868 4.90413 51.4738 5.10323 51.4652 5.30234C51.4652 5.33697 51.4652 5.3716 51.4652 5.40622C51.4565 5.48846 51.4392 5.57503 51.4306 5.65727C51.4176 5.75683 51.4046 5.85638 51.3873 5.95161C51.3613 6.11176 51.3137 6.26326 51.2488 6.41475C51.2358 6.44938 51.2228 6.48834 51.2141 6.52296C51.2011 6.5749 51.2141 6.60087 51.2531 6.62684L51.2358 6.63983ZM50.132 6.50565C50.1277 6.54893 50.145 6.58789 50.1796 6.60087C50.2099 6.61386 50.2402 6.60087 50.2705 6.56192C50.2792 6.54893 50.2878 6.53162 50.2965 6.51431C50.3355 6.40177 50.3787 6.29355 50.409 6.18102C50.461 5.99056 50.5043 5.80011 50.5519 5.60966C50.6038 5.38025 50.6125 5.15085 50.5519 4.92144C50.5302 4.83487 50.5086 4.74397 50.5389 4.65308C50.5519 4.61412 50.5389 4.57083 50.5389 4.53188C50.5389 4.48427 50.5302 4.43232 50.5216 4.38471C50.4956 4.25919 50.4696 4.13366 50.4393 4.00814C50.4264 3.96052 50.4004 3.95187 50.3614 3.95187C50.3225 3.95187 50.3008 3.97784 50.2965 4.02112C50.2835 4.16396 50.2619 4.3068 50.2619 4.44964C50.2619 4.65308 50.2705 4.86084 50.2792 5.06428C50.2792 5.09891 50.2792 5.13353 50.2792 5.16816C50.3052 5.37593 50.2662 5.57936 50.2359 5.77847C50.2099 5.95161 50.1796 6.12475 50.1623 6.29788C50.158 6.36281 50.1493 6.43207 50.1407 6.49699L50.132 6.50565ZM49.0975 5.2504C49.0975 5.49279 49.1148 5.73086 49.1278 5.97325C49.1321 6.07713 49.1495 6.17669 49.1581 6.28057C49.1581 6.30221 49.1581 6.32385 49.1668 6.34117C49.1754 6.36281 49.1841 6.38445 49.1971 6.40177C49.236 6.44072 49.275 6.43639 49.3053 6.39311C49.3313 6.35848 49.3356 6.31953 49.3356 6.27624C49.3356 6.06848 49.3356 5.86071 49.3356 5.64862C49.3356 5.58802 49.3442 5.52742 49.3442 5.46249C49.3442 5.42354 49.3442 5.38458 49.3442 5.34995C49.3399 5.25473 49.3356 5.16383 49.3269 5.06861C49.3313 5.06861 49.3356 5.06861 49.3399 5.06861C49.3313 4.96039 49.3183 4.85218 49.3096 4.74397C49.3053 4.6877 49.2966 4.63143 49.288 4.57949C49.2793 4.52755 49.262 4.47561 49.2187 4.44098C49.1754 4.40203 49.1105 4.42367 49.0932 4.47994C49.0932 4.49292 49.0932 4.51024 49.0932 4.52322C49.0932 4.76561 49.0845 5.01234 49.0932 5.25473L49.0975 5.2504ZM57.5034 15.5131C57.5337 15.4915 57.564 15.4699 57.5943 15.4439C57.7371 15.3227 57.8756 15.2058 58.0141 15.0846C58.0401 15.063 58.0617 15.037 58.0487 14.9981C58.0314 14.9591 58.0055 14.9288 57.9578 14.9245C57.9275 14.9245 57.8972 14.9245 57.8713 14.9245C57.7761 14.9201 57.6852 14.9245 57.6159 14.9981C57.525 15.0846 57.4428 15.1755 57.3605 15.2621C57.3172 15.3097 57.3086 15.366 57.3172 15.4266C57.3302 15.5348 57.4168 15.5737 57.5077 15.5131H57.5034ZM46.0503 24.8539C46.0503 24.8539 46.0893 24.8106 46.1022 24.7847C46.1325 24.7154 46.1758 24.6591 46.2278 24.6029C46.2754 24.5466 46.323 24.4903 46.3663 24.4297C46.4009 24.3864 46.3966 24.3778 46.336 24.3302C46.3013 24.3475 46.2667 24.3691 46.2321 24.3908C46.1628 24.4384 46.0936 24.4903 46.02 24.5336C45.8858 24.6072 45.8901 24.6938 45.9334 24.8236C45.9507 24.8712 46.0113 24.8842 46.0503 24.8496V24.8539ZM48.0284 25.7109C48.0284 25.685 48.0068 25.672 47.9808 25.672C47.9548 25.672 47.9202 25.7066 47.9202 25.7369C47.9202 25.7586 47.9418 25.7802 47.9678 25.7802C47.9938 25.7802 48.0284 25.7412 48.0284 25.7109ZM50.9414 27.1913C50.9285 27.1653 50.9068 27.135 50.8852 27.1134C50.8332 27.0701 50.7986 27.0225 50.7683 26.9619C50.7337 26.8969 50.6904 26.871 50.6341 26.8926C50.5605 26.9143 50.487 26.9099 50.4177 26.9099C50.3571 26.9099 50.2965 26.9143 50.2359 26.9272C50.1147 26.9489 49.9978 26.9489 49.8766 26.9402C49.7554 26.9359 49.6386 26.9099 49.5217 26.8926C49.3962 26.871 49.2707 26.8753 49.1451 26.871C49.0759 26.871 49.0239 26.845 48.9893 26.7887C48.9677 26.7541 48.9547 26.7151 48.9374 26.6762C48.9027 26.5939 48.8465 26.5637 48.7599 26.581C48.669 26.5983 48.5738 26.6156 48.4829 26.6372C48.3877 26.6589 48.3141 26.6329 48.2621 26.5507C48.2491 26.529 48.2362 26.5031 48.2275 26.4814C48.1929 26.3992 48.1323 26.3689 48.0457 26.3905C48.0241 26.3948 48.0024 26.4035 47.9765 26.4078C47.8682 26.4425 47.7644 26.4771 47.6605 26.5117C47.5739 26.542 47.496 26.5463 47.4181 26.4901C47.3878 26.4684 47.3532 26.4468 47.3229 26.4295C47.1497 26.3169 46.9852 26.1827 46.7948 26.1005C46.652 26.0356 46.5264 25.9404 46.4139 25.8321C46.349 25.7715 46.271 25.7153 46.1975 25.6677C46.0806 25.5897 45.9594 25.5205 45.8382 25.4426C45.7473 25.382 45.6824 25.2997 45.6651 25.1915C45.6564 25.1526 45.6478 25.1093 45.6434 25.0703C45.6304 24.9838 45.5785 24.9448 45.4963 24.9708C45.414 24.9924 45.3491 24.9708 45.2928 24.9188C45.2365 24.8712 45.1889 24.815 45.1413 24.7587C45.0591 24.6635 44.9855 24.5596 44.8989 24.4687C44.8254 24.3908 44.7734 24.2999 44.7215 24.209C44.6652 24.1051 44.5959 24.0099 44.531 23.9146C44.505 23.8757 44.4704 23.8627 44.4315 23.88C44.4098 23.8887 44.3925 23.906 44.3839 23.9276C44.3406 24.0055 44.2756 24.0661 44.1977 24.1138C44.0722 24.1917 43.9726 24.3042 43.8688 24.4038C43.8341 24.4384 43.8038 24.4773 43.7735 24.5163C43.7173 24.5855 43.6653 24.6548 43.6134 24.7241C43.5571 24.802 43.4922 24.8756 43.4446 24.9578C43.2931 25.2045 43.1459 25.4512 42.9987 25.698C42.9555 25.7715 42.9208 25.8538 42.8819 25.936C42.8386 26.0269 42.7953 26.1221 42.752 26.213C42.7261 26.2693 42.6784 26.2996 42.6222 26.3083C42.462 26.3386 42.3105 26.3905 42.159 26.4425C42.0725 26.4727 41.9859 26.5031 41.8993 26.516C41.8084 26.529 41.7478 26.5723 41.7089 26.6502C41.6483 26.7584 41.592 26.8666 41.5271 26.9705C41.3929 27.1869 41.2587 27.399 41.1202 27.6111C41.0077 27.7843 40.9124 27.9661 40.8172 28.1479C40.7999 28.1825 40.7869 28.2258 40.7696 28.2604C40.748 28.3123 40.7609 28.3599 40.7999 28.3989C40.8215 28.4205 40.8475 28.4422 40.8778 28.4552C41.0466 28.5461 41.2111 28.637 41.3799 28.7279C42.2846 29.1997 43.2282 29.5806 44.1977 29.8879C44.2324 29.8965 44.267 29.9095 44.3016 29.9139C44.3319 29.9139 44.3665 29.9139 44.3752 29.8836C44.3795 29.8619 44.3752 29.8316 44.3622 29.81C44.3319 29.758 44.2973 29.7104 44.267 29.6628C44.1588 29.4983 44.0376 29.3425 43.9423 29.1694C43.7606 28.8447 43.5658 28.5331 43.358 28.2258C43.319 28.1652 43.2931 28.1002 43.2887 28.031C43.2801 27.9487 43.2801 27.8665 43.2887 27.7843C43.3017 27.6847 43.3017 27.5852 43.3104 27.4856C43.3104 27.464 43.3147 27.438 43.3191 27.4164C43.3537 27.2346 43.3797 27.0528 43.3797 26.8666C43.3797 26.845 43.3797 26.819 43.3797 26.7974C43.3883 26.6848 43.4013 26.568 43.41 26.4554C43.4229 26.2433 43.4316 26.0269 43.4446 25.8148C43.4446 25.7586 43.4576 25.7023 43.4662 25.6503C43.4705 25.6071 43.4792 25.5638 43.4879 25.5205C43.4965 25.4469 43.5138 25.3777 43.5614 25.3171C43.5874 25.2824 43.6091 25.2435 43.622 25.2002C43.687 25.0357 43.7909 24.8929 43.9077 24.7587C43.9337 24.7284 43.9683 24.6981 44.0159 24.7154C44.0592 24.7284 44.0722 24.7717 44.0852 24.8106C44.0852 24.8236 44.0852 24.8409 44.0852 24.8539C44.0852 24.8972 44.0852 24.9405 44.0852 24.9881C44.0895 25.0747 44.0938 25.1656 44.0982 25.2521C44.1025 25.3474 44.1025 25.4469 44.1112 25.5421C44.1285 25.7283 44.1501 25.9144 44.1718 26.1005C44.1934 26.2953 44.2064 26.4901 44.228 26.6892C44.241 26.7974 44.2583 26.9056 44.3103 27.0008C44.4012 27.161 44.4877 27.3255 44.583 27.4856C44.6868 27.6631 44.7994 27.8362 44.9076 28.0093C44.9465 28.0699 44.9855 28.1349 45.0331 28.1911C45.2236 28.4205 45.414 28.6543 45.5872 28.8967C45.6391 28.9703 45.7127 29.0309 45.8036 29.0568C45.8469 29.0698 45.8901 29.0915 45.9334 29.1088C46.1585 29.1953 46.3793 29.2862 46.6043 29.3728C46.7645 29.4334 46.929 29.4724 47.0891 29.533C47.2839 29.6109 47.483 29.6498 47.6864 29.6888C47.799 29.7104 47.9115 29.7191 48.0197 29.758C48.1496 29.8057 48.2838 29.81 48.418 29.7797C48.4915 29.7624 48.5695 29.7537 48.643 29.7407C48.8508 29.7148 49.0586 29.6974 49.262 29.6585C49.4741 29.6152 49.6905 29.5979 49.9069 29.5806C49.9632 29.5762 50.0108 29.5589 50.0455 29.5156C50.0758 29.481 50.1017 29.4507 50.1277 29.4118C50.2186 29.2603 50.3138 29.1044 50.4004 28.9486C50.6211 28.5504 50.8505 28.1565 51.1059 27.7799C51.1708 27.6847 51.1752 27.5981 51.1232 27.4986C51.067 27.399 51.0193 27.2952 50.9631 27.1956L50.9414 27.1913ZM46.8121 25.382C46.8684 25.3387 46.9117 25.2824 46.9333 25.2132C46.9636 25.1179 46.9852 25.0227 47.0069 24.9232C47.0199 24.8626 46.9506 24.8063 46.89 24.8193C46.8424 24.8279 46.8034 24.8539 46.7731 24.8929C46.7342 24.9491 46.7039 25.0097 46.7082 25.079C46.7082 25.1439 46.7082 25.2088 46.7082 25.2738C46.7082 25.3517 46.7212 25.3603 46.8078 25.3777L46.8121 25.382ZM59.3343 16.5736C59.3559 16.5736 59.3819 16.5736 59.4035 16.5736H66.5498C66.5714 16.5736 66.5974 16.5736 66.6191 16.5736C66.7143 16.5736 66.7705 16.5217 66.7705 16.4308C66.7705 16.1624 66.7705 15.8897 66.7705 15.6213C66.7705 15.6127 66.7705 15.604 66.7705 15.5954C66.7619 15.5348 66.7056 15.4828 66.645 15.4785C66.6234 15.4785 66.5974 15.4785 66.5758 15.4785H59.4468C59.4252 15.4785 59.3992 15.4785 59.3776 15.4785C59.2997 15.4785 59.2564 15.4309 59.2304 15.3703C59.2001 15.301 59.1871 15.2231 59.1698 15.1495C59.1525 15.0846 59.2044 15.024 59.2694 15.0154C59.291 15.0154 59.317 15.0154 59.3386 15.0154H66.5282C66.5498 15.0154 66.5758 15.0154 66.5974 15.0154C66.6667 15.0154 66.7229 14.9548 66.7186 14.8855C66.7186 14.8033 66.71 14.721 66.697 14.6388C66.671 14.4354 66.6407 14.2319 66.6147 14.0285C66.6104 13.9895 66.5931 13.9636 66.5714 13.9376C66.5325 13.89 66.4805 13.8856 66.4199 13.8856C64.5241 13.8856 62.6326 13.8856 60.7367 13.8856C60.0528 13.8856 59.3732 13.8856 58.6893 13.8856C58.5984 13.8856 58.5335 13.8467 58.4989 13.7688C58.4729 13.7125 58.4556 13.6476 58.4426 13.587C58.4383 13.5653 58.4513 13.535 58.4643 13.5134C58.4989 13.4571 58.5508 13.4571 58.6114 13.4571C61.1739 13.4571 63.7406 13.4571 66.3031 13.4571C66.3247 13.4571 66.3507 13.4571 66.3723 13.4571C66.4416 13.4528 66.4935 13.3835 66.4762 13.3186C66.4026 13.0243 66.3291 12.7256 66.2555 12.4313C66.2425 12.375 66.2079 12.3274 66.1516 12.3101C66.1213 12.2971 66.0823 12.2971 66.0477 12.2971C63.6021 12.2971 61.1522 12.2971 58.7067 12.2971C58.685 12.2971 58.659 12.2971 58.6374 12.2971C58.5595 12.2971 58.5076 12.2408 58.5119 12.1629C58.5119 12.1196 58.5205 12.0764 58.5292 12.0331C58.5335 12.0071 58.5465 11.9811 58.5638 11.9552C58.5985 11.8989 58.6547 11.8946 58.7197 11.8946C61.1003 11.8946 63.4853 11.8946 65.8659 11.8946C65.8876 11.8946 65.9092 11.8946 65.9265 11.8946C66.0261 11.8946 66.0693 11.8296 66.0347 11.7387C65.9222 11.4444 65.8096 11.1544 65.6971 10.8601C65.6538 10.7518 65.5846 10.7042 65.4634 10.7042C63.2256 10.7042 60.9878 10.7042 58.7499 10.7042C58.724 10.7042 58.698 10.7042 58.672 10.7042C58.6244 10.7042 58.5855 10.6783 58.5682 10.635C58.5552 10.609 58.5508 10.5787 58.5508 10.5527C58.5379 10.3883 58.5941 10.3363 58.7629 10.3363C60.9315 10.3363 63.0957 10.3363 65.2643 10.3363C65.3725 10.3363 65.3768 10.3363 65.4157 10.2368C65.2469 9.89482 65.0695 9.56153 64.8704 9.23257C64.8227 9.15033 64.7535 9.11137 64.6539 9.11137C62.6499 9.11137 60.6501 9.11137 58.6461 9.11137C58.6158 9.11137 58.5855 9.11137 58.5595 9.11137C58.4513 9.08973 58.3907 8.91226 58.4556 8.82137C58.4902 8.77375 58.5379 8.76509 58.5941 8.76509C60.5203 8.76509 62.4464 8.76509 64.3726 8.76509C64.4808 8.76509 64.4851 8.76509 64.5154 8.66121C64.2774 8.30628 64.0263 7.96001 63.758 7.62239C63.6974 7.54448 63.6194 7.50985 63.5112 7.50985C61.8924 7.50985 60.2692 7.50985 58.6504 7.50985C58.6244 7.50985 58.5985 7.50985 58.5725 7.50985C58.5119 7.50552 58.4556 7.45791 58.4383 7.39731C58.4167 7.3194 58.434 7.26745 58.4859 7.22417C58.5205 7.1982 58.5595 7.20253 58.5941 7.20253C60.1177 7.20253 61.6413 7.20253 63.165 7.20253C63.1909 7.20253 63.2169 7.20253 63.2429 7.20253C63.3121 7.18954 63.3338 7.12894 63.2905 7.07267C63.2862 7.06402 63.2775 7.05969 63.2732 7.05103C62.9485 6.68744 62.6109 6.34117 62.256 6.01221C62.1867 5.94728 62.1088 5.91698 62.0093 5.91698C60.8406 5.91698 59.6676 5.91698 58.4989 5.91698C58.4773 5.91698 58.4513 5.91698 58.4296 5.91698C58.3604 5.90832 58.3171 5.83907 58.3387 5.77414C58.3647 5.6919 58.434 5.64429 58.5249 5.64429C59.5377 5.64429 60.5549 5.64429 61.5678 5.64429C61.5894 5.64429 61.6111 5.64429 61.6284 5.64429C61.7063 5.64429 61.7106 5.63563 61.7322 5.55339C61.7019 5.52309 61.6673 5.49279 61.6327 5.46682C61.4942 5.35428 61.3557 5.24174 61.2128 5.1292C60.8839 4.87383 60.5419 4.63143 60.1957 4.40203C60.1177 4.35008 60.0355 4.32411 59.9403 4.32411C59.6979 4.32411 59.4598 4.32411 59.2174 4.32411C59.1395 4.32411 59.0876 4.30247 59.0616 4.22456C59.1092 4.10769 59.1568 4.07739 59.278 4.07739C59.33 4.07739 59.3776 4.07739 59.4295 4.07739C59.5074 4.07739 59.5204 4.05575 59.5074 3.96485C59.2694 3.835 59.0313 3.70082 58.7889 3.57096C58.698 3.52335 58.6374 3.56231 58.6331 3.66619C58.6331 3.73977 58.6331 3.81336 58.6287 3.88694C58.6158 4.11202 58.5552 4.31979 58.4383 4.51456C58.3777 4.61412 58.3084 4.71367 58.2435 4.8089C58.1093 4.99935 57.9968 5.20279 57.8323 5.36727C57.802 5.39757 57.7761 5.44518 57.7674 5.48846C57.7501 5.58802 57.7414 5.68757 57.7371 5.78713C57.7198 6.37579 57.7457 6.96013 57.7155 7.5488C57.6981 7.97299 57.7155 8.39718 57.7155 8.81704C57.7155 8.9642 57.7155 9.11137 57.7155 9.25854C57.7155 9.36242 57.6808 9.44899 57.6246 9.53123C57.6116 9.55287 57.5943 9.57451 57.5813 9.59616C57.4947 9.69571 57.486 9.79526 57.5553 9.91213C57.6029 9.99004 57.6202 10.0853 57.6116 10.1762C57.6029 10.2584 57.6246 10.332 57.6678 10.4012C57.7241 10.4878 57.7631 10.583 57.789 10.6826C57.8193 10.8211 57.8583 10.9553 57.8453 11.0981C57.8453 11.1241 57.8453 11.1544 57.854 11.176C57.8669 11.2193 57.854 11.2496 57.8323 11.2842C57.8193 11.3016 57.8063 11.3189 57.7977 11.3362C57.7674 11.3881 57.7631 11.4357 57.8064 11.4877C57.8496 11.5396 57.8626 11.6002 57.8626 11.6695C57.8626 11.7907 57.8626 11.9162 57.8626 12.0374C57.8626 12.1586 57.854 12.2798 57.8496 12.3967C57.8496 12.4053 57.8496 12.414 57.8496 12.4226C57.828 12.6391 57.8063 12.8511 57.7847 13.0676C57.7847 13.0892 57.7847 13.1065 57.7934 13.1282C57.8064 13.1671 57.8193 13.2061 57.8366 13.245C57.854 13.2797 57.8583 13.31 57.8453 13.3489C57.8063 13.5047 57.7717 13.6606 57.7284 13.8164C57.6852 13.9722 57.6375 14.1237 57.5943 14.2795C57.5726 14.3574 57.6202 14.418 57.7025 14.4051C57.8063 14.3877 57.9059 14.4137 58.0055 14.4397C58.1007 14.4657 58.1829 14.5133 58.2565 14.5825C58.3387 14.6604 58.382 14.76 58.4253 14.8595C58.5638 15.1625 58.659 15.4785 58.685 15.8118C58.6937 15.907 58.711 15.9979 58.7197 16.0888C58.7283 16.1624 58.7413 16.236 58.7326 16.3052C58.7023 16.526 58.6591 16.7424 58.5985 16.9588C58.5249 17.2229 58.4513 17.4826 58.3517 17.738C58.2002 18.1362 58.0444 18.5344 57.8929 18.9283C57.8453 19.0451 57.802 19.1663 57.7501 19.2789C57.7111 19.3698 57.6419 19.426 57.5337 19.4131C57.5207 19.4131 57.512 19.4131 57.499 19.4131C57.4211 19.4131 57.3475 19.4607 57.3259 19.5343C57.2956 19.6252 57.2696 19.7117 57.2653 19.807C57.2653 19.8416 57.248 19.8805 57.2307 19.9108C57.2177 19.9368 57.1917 19.9628 57.1701 19.9844C57.1181 20.0407 57.1008 20.1013 57.1268 20.1792C57.1484 20.2441 57.1614 20.3177 57.1874 20.3826C57.222 20.4692 57.2047 20.5428 57.1441 20.612C57.1008 20.664 57.0445 20.7116 57.0229 20.7722C56.9753 20.902 56.932 21.0362 56.919 21.1704C56.906 21.2873 56.919 21.4085 56.9493 21.5297C56.971 21.6162 56.9493 21.6985 56.893 21.7677C56.8238 21.85 56.7632 21.9322 56.6939 22.0145C56.629 22.0924 56.5901 22.1746 56.5987 22.2785C56.603 22.3304 56.5987 22.3824 56.5987 22.4386C56.5987 22.4776 56.5987 22.5252 56.616 22.5598C56.6853 22.7113 56.7545 22.8585 56.8281 23.0057C56.8541 23.0533 56.906 23.0836 56.958 23.1052C57.0186 23.1312 57.0748 23.1572 57.1268 23.1961C57.209 23.2567 57.2869 23.326 57.3692 23.3866C57.5207 23.4991 57.6852 23.5987 57.828 23.7242C57.8756 23.7675 57.9405 23.7891 58.0055 23.7934C58.0487 23.7934 58.092 23.8064 58.1353 23.8194C58.2392 23.8497 58.3431 23.8843 58.447 23.9146C58.6417 23.9709 58.8408 24.0315 59.04 24.0878C59.0919 24.1008 59.1438 24.1094 59.1958 24.1094C59.304 24.1094 59.3949 24.144 59.4728 24.222C59.62 24.3691 59.7671 24.5163 59.91 24.6678C59.9706 24.7284 60.0398 24.7717 60.1177 24.789C60.2909 24.8323 60.4683 24.8669 60.6371 24.9145C60.78 24.9578 60.9228 25.0054 61.0613 25.0617C61.2042 25.1223 61.3513 25.1612 61.4985 25.1915C61.5548 25.2045 61.6067 25.2132 61.663 25.2305C61.7972 25.2738 61.9314 25.3214 62.0655 25.3603C62.1824 25.3906 62.2949 25.4339 62.4032 25.4859C62.4984 25.5335 62.5979 25.5724 62.6932 25.6114C62.7754 25.6417 62.849 25.6244 62.9096 25.5594C63.0567 25.3993 63.2039 25.2391 63.3511 25.0833C63.3208 24.9924 63.3121 24.9838 63.2256 24.9838C63.0697 24.9838 62.9139 24.9838 62.7581 24.9838C62.6888 24.9838 62.6239 24.9621 62.5676 24.9275C62.5243 24.9015 62.4854 24.8712 62.4464 24.8409C62.3296 24.7457 62.1997 24.6721 62.0612 24.6115C61.9487 24.5639 61.8405 24.5033 61.7322 24.447C61.7236 24.3648 61.7322 24.3518 61.8015 24.3432C61.8231 24.3432 61.8491 24.3432 61.8708 24.3432C62.5157 24.3432 63.165 24.3432 63.8099 24.3432C63.8878 24.3432 63.9527 24.3172 64.0047 24.2609C64.0393 24.222 64.0696 24.183 64.0956 24.144C64.2471 23.9276 64.3986 23.7112 64.5501 23.5034C64.5111 23.3996 64.5068 23.3996 64.4159 23.3996C64.3986 23.3996 64.3812 23.3996 64.3639 23.3996C62.875 23.3996 61.386 23.3996 59.9013 23.3996C59.7412 23.3996 59.581 23.3996 59.4252 23.3476C59.3992 23.339 59.3732 23.3346 59.3473 23.3303C58.9577 23.2654 58.6028 23.1052 58.2652 22.9018C58.2349 22.8845 58.2262 22.8628 58.2305 22.8282C58.2349 22.7979 58.2652 22.7892 58.2911 22.7849C58.3214 22.7849 58.3517 22.7849 58.3777 22.7849C60.5333 22.7849 62.6888 22.7849 64.8444 22.7849C64.9439 22.7849 65.0089 22.746 65.0522 22.6637C65.1777 22.4257 65.3032 22.1876 65.4287 21.9452C65.459 21.8846 65.4201 21.8153 65.3508 21.8067C65.3248 21.8067 65.2989 21.8067 65.2729 21.8067H57.7631C57.7631 21.8067 57.7198 21.8067 57.7025 21.8067C57.6116 21.8067 57.5639 21.7461 57.5726 21.6595C57.5813 21.5816 57.5899 21.4994 57.5856 21.4215C57.5769 21.27 57.6375 21.218 57.7847 21.218C60.3774 21.218 62.9659 21.218 65.5586 21.218C65.5802 21.218 65.6062 21.218 65.6278 21.218C65.6668 21.218 65.7014 21.205 65.7317 21.1834C65.7707 21.1531 65.7967 21.1141 65.814 21.0709C65.9092 20.8198 66.0044 20.5644 66.0953 20.322C66.0607 20.2355 66.0131 20.2052 65.9352 20.2138C65.9135 20.2138 65.8962 20.2138 65.8746 20.2138C63.2385 20.2138 60.5982 20.2138 57.9622 20.2138C57.9362 20.2138 57.9102 20.2138 57.8843 20.2138C57.8107 20.2095 57.7804 20.1446 57.8193 20.084C57.8799 19.9887 57.9405 19.8978 57.9968 19.7983C58.0531 19.7031 58.1267 19.6555 58.2479 19.6555C60.8752 19.6555 63.4983 19.6555 66.1256 19.6555C66.1992 19.6555 66.2598 19.6425 66.2988 19.5775C66.3161 19.5472 66.329 19.5169 66.3377 19.4823C66.3896 19.2616 66.4416 19.0451 66.4935 18.8244C66.5282 18.6642 66.4935 18.621 66.3334 18.621C63.7883 18.621 61.2388 18.621 58.6937 18.621C58.6677 18.621 58.6417 18.621 58.6158 18.621C58.5422 18.6166 58.4989 18.556 58.5119 18.4868C58.5249 18.4175 58.5422 18.3483 58.5595 18.2833C58.5941 18.1448 58.6547 18.1015 58.7976 18.1015H66.4286C66.4502 18.1015 66.4762 18.1015 66.4979 18.1015C66.5585 18.1015 66.632 18.0409 66.6407 17.9803C66.6537 17.8895 66.6667 17.7986 66.6753 17.712C66.6926 17.5562 66.7056 17.4003 66.7273 17.2488C66.7446 17.106 66.7013 17.0281 66.5411 17.0324C64.1518 17.0324 61.7582 17.0324 59.3689 17.0324C59.3429 17.0324 59.317 17.0324 59.291 17.0324C59.2391 17.0281 59.1828 16.9675 59.1871 16.9199C59.1914 16.8376 59.1958 16.7554 59.2001 16.6732C59.2044 16.5952 59.2564 16.5433 59.3343 16.539V16.5736ZM58.9231 26.2304C58.9231 26.1351 58.9361 26.0356 58.9361 25.9404C58.9361 25.7196 58.9361 25.4989 58.9361 25.2781C58.9361 25.1872 58.9014 25.1266 58.8408 25.0703C58.7629 25.0011 58.698 25.0011 58.6287 25.079C58.5811 25.1353 58.5335 25.1915 58.4902 25.2521C58.2522 25.5638 58.0184 25.8841 57.7804 26.1914C57.5986 26.4251 57.4125 26.6459 57.2263 26.8753C57.1614 26.9575 57.1095 27.0441 57.0489 27.1263C56.9233 27.2995 56.7978 27.4726 56.668 27.6414C56.5727 27.7626 56.4689 27.8752 56.3909 28.005C56.2395 28.2474 56.0663 28.4725 55.8845 28.6932C55.8066 28.7885 55.7373 28.8923 55.6724 28.9962C55.6291 29.0612 55.6421 29.0785 55.7157 29.1218C55.7417 29.1001 55.7677 29.0871 55.7893 29.0655C55.9018 28.9529 56.0317 28.8577 56.1486 28.7538C56.3996 28.5331 56.6636 28.334 56.9363 28.1479C57.1268 28.0137 57.3389 27.9055 57.5163 27.754C57.7198 27.5852 57.9275 27.4207 58.1223 27.2432C58.2478 27.1307 58.3777 27.0181 58.5162 26.9186C58.6244 26.8407 58.7283 26.7628 58.8322 26.6762C58.9101 26.6156 58.9491 26.529 58.9404 26.4295C58.9404 26.3992 58.9317 26.3645 58.9317 26.3342C58.9317 26.2996 58.9274 26.265 58.9274 26.2304H58.9231ZM55.8759 23.8757C55.8672 23.7978 55.8542 23.7242 55.8023 23.6549C55.7417 23.577 55.6724 23.564 55.5945 23.629C55.5599 23.6593 55.5296 23.6852 55.4993 23.7199C55.4214 23.8021 55.3435 23.8843 55.2655 23.9709C55.2223 24.0185 55.2179 24.0748 55.2439 24.1354C55.2699 24.1873 55.2915 24.2436 55.3175 24.2955C55.4041 24.4557 55.495 24.4297 55.5772 24.3388C55.6551 24.2479 55.733 24.157 55.8153 24.0661C55.8629 24.0142 55.8759 23.9493 55.8802 23.8757H55.8759ZM55.4257 12.5179C55.3391 12.414 55.2482 12.3144 55.1617 12.2105C55.1227 12.1673 55.0838 12.1196 55.0405 12.0807C54.9842 12.0287 54.9193 11.9984 54.8414 11.9984C54.6379 11.9984 54.4345 11.9984 54.2311 11.9984C54.0622 11.9941 53.8934 11.9768 53.7203 11.9681C53.664 11.9681 53.6078 11.9638 53.5515 11.9638C53.3567 11.9638 53.1576 11.9638 52.9628 11.9638C52.9152 11.9638 52.8676 11.9552 52.82 11.9595C52.7421 11.9595 52.6598 11.9595 52.5819 11.9681C52.4694 11.9811 52.3612 11.9811 52.2486 11.9681C52.0106 11.9292 51.8028 12.0071 51.6297 12.1716C51.5388 12.2581 51.4565 12.3577 51.3829 12.4616C51.2098 12.7126 51.0194 12.9464 50.8202 13.1758C50.7726 13.232 50.7207 13.2883 50.6817 13.3446C50.6558 13.3835 50.6385 13.4268 50.6298 13.4744C50.5952 13.6216 50.5692 13.7688 50.5389 13.9116C50.5043 14.0718 50.487 14.2319 50.4913 14.3921C50.4913 14.483 50.5086 14.5739 50.5216 14.6648C50.5216 14.6734 50.5216 14.6821 50.5216 14.6907C50.5302 14.8206 50.5432 14.9548 50.5432 15.0846C50.5432 15.353 50.5432 15.6213 50.5432 15.8854C50.5432 16.0975 50.5519 16.3096 50.5649 16.5173C50.5692 16.6039 50.5865 16.6905 50.5649 16.777C50.5562 16.816 50.5649 16.8593 50.5908 16.8939C50.6168 16.9329 50.6428 16.9718 50.6774 17.0064C50.7337 17.0627 50.7943 17.1103 50.8549 17.1623C50.9025 17.2056 50.9501 17.2488 50.9977 17.2965C51.0843 17.3874 51.1146 17.4956 51.067 17.6211C51.0453 17.6817 51.0237 17.7423 50.9891 17.7942C50.8722 17.976 50.751 18.1492 50.6298 18.3266C50.5865 18.3959 50.5216 18.4305 50.4393 18.4392C50.3917 18.4435 50.3398 18.4608 50.2965 18.4781C50.2489 18.4954 50.2013 18.4954 50.1623 18.4738C50.0281 18.3916 49.8766 18.3526 49.7295 18.3007C49.5737 18.2487 49.4178 18.2011 49.262 18.1535C49.1711 18.1275 49.0802 18.1059 48.9893 18.0842C48.933 18.0712 48.8811 18.0712 48.8292 18.1059C48.7383 18.1708 48.6387 18.2227 48.5478 18.2833C48.5132 18.305 48.4829 18.3353 48.4569 18.3656C48.4309 18.4002 48.4353 18.4305 48.4656 18.4608C48.4829 18.4781 48.5002 18.4954 48.5218 18.4998C48.643 18.5387 48.7512 18.608 48.8768 18.621C48.9763 18.6339 49.0715 18.6599 49.1711 18.6729C49.2274 18.6816 49.2836 18.6729 49.3356 18.6729C49.4525 18.6729 49.5693 18.6729 49.6905 18.6729C49.7684 18.6729 49.7684 18.6729 49.8074 18.7638C49.7641 18.8114 49.7208 18.8633 49.6775 18.9153C49.6342 18.9672 49.591 19.0235 49.5434 19.0754C49.4525 19.175 49.4048 19.3005 49.3745 19.4304C49.3572 19.5213 49.3442 19.6165 49.3313 19.7074C49.3183 19.8026 49.3096 19.8978 49.2966 19.9974C49.2793 20.1143 49.3442 20.2095 49.4611 20.2355C49.4914 20.2398 49.5217 20.2485 49.5434 20.2614C49.6905 20.3523 49.8593 20.3826 50.0281 20.4173C50.1147 20.4346 50.1926 20.4173 50.2749 20.3913C50.422 20.3437 50.5562 20.2744 50.6947 20.2095C50.738 20.1879 50.777 20.1619 50.8159 20.1359C50.8765 20.097 50.9414 20.0883 51.0107 20.1143C51.0929 20.1446 51.1752 20.1792 51.2574 20.2008C51.357 20.2311 51.4479 20.2744 51.5388 20.3177C51.5994 20.348 51.6643 20.3783 51.7292 20.4043C51.7552 20.4173 51.7855 20.4259 51.8158 20.4259C51.9326 20.4259 52.0495 20.4216 52.1664 20.4129C52.2183 20.4129 52.2703 20.4043 52.3222 20.4302C52.3742 20.4562 52.4304 20.4735 52.4824 20.5038C52.517 20.5255 52.5516 20.5601 52.5343 20.612C52.517 20.6683 52.465 20.7029 52.4044 20.6986C52.3092 20.69 52.2183 20.6813 52.1231 20.6726C52.0538 20.6683 51.9846 20.6597 51.9153 20.6553C51.8158 20.651 51.7162 20.6467 51.6167 20.638C51.5258 20.6294 51.4349 20.6423 51.3483 20.6597C51.2747 20.6726 51.2055 20.6986 51.1362 20.7116C51.041 20.7289 50.9458 20.7419 50.8505 20.7592C50.7899 20.7679 50.7293 20.7808 50.6687 20.7982C50.4999 20.8371 50.3311 20.8804 50.1666 20.9194C50.0195 20.954 49.894 20.902 49.7814 20.8111C49.6126 20.6683 49.591 20.6813 49.3919 20.7462C49.2144 20.8025 49.0369 20.8544 48.8638 20.9107C48.6777 20.9713 48.4915 21.0362 48.3054 21.0968C48.1842 21.1358 48.063 21.1271 47.9591 21.0535C47.8812 20.9973 47.812 20.928 47.7384 20.8674C47.7167 20.8501 47.6994 20.8328 47.6778 20.8155C47.6129 20.7679 47.5609 20.7722 47.509 20.8328C47.4311 20.9194 47.3878 21.0189 47.4224 21.1401C47.4354 21.1921 47.4484 21.244 47.457 21.2959C47.457 21.3176 47.4657 21.3349 47.4657 21.3565C47.4657 21.3998 47.4441 21.4258 47.4094 21.4344C47.3705 21.4431 47.3445 21.4301 47.3272 21.3955C47.3055 21.3522 47.2709 21.3306 47.232 21.3089C47.1757 21.2786 47.1324 21.231 47.1108 21.1661C47.0718 21.0622 47.0285 20.9583 46.9852 20.8588C46.9852 20.8501 46.9766 20.8414 46.9723 20.8328C46.864 20.625 46.903 20.6207 46.9636 20.4605C46.9896 20.387 47.0415 20.374 47.1108 20.4173C47.1194 20.4216 47.1238 20.4302 47.1324 20.4346C47.1757 20.4562 47.206 20.4562 47.2363 20.4216C47.2579 20.3956 47.2752 20.3653 47.2882 20.3307C47.3229 20.2268 47.3575 20.1273 47.3921 20.0234C47.47 20.0104 47.483 20.019 47.4873 20.0883C47.4873 20.1186 47.4873 20.1532 47.4873 20.1835C47.496 20.2441 47.5696 20.3047 47.6388 20.2398C47.6778 20.2008 47.7167 20.1619 47.7557 20.1186C47.812 20.058 47.8553 20.045 47.9245 20.0883C47.9678 20.1143 48.0024 20.1056 48.0371 20.0796C48.0674 20.0537 48.0977 20.0277 48.115 19.9974C48.1539 19.9368 48.1842 19.8762 48.2145 19.8113C48.2232 19.7896 48.2275 19.7637 48.2232 19.742C48.2145 19.6598 48.1409 19.6208 48.0717 19.6641C48.0327 19.6901 47.9938 19.7247 47.9591 19.7593C47.9072 19.807 47.8682 19.8113 47.8163 19.7593C47.8033 19.7464 47.7903 19.7247 47.7773 19.7117C47.7211 19.6511 47.6735 19.6511 47.6215 19.7117C47.5869 19.755 47.5566 19.8113 47.5263 19.8589C47.5133 19.8805 47.5047 19.9108 47.47 19.9108C47.4354 19.9108 47.4094 19.8892 47.3964 19.8546C47.3921 19.8416 47.3878 19.8286 47.3791 19.8156C47.3445 19.755 47.2796 19.7507 47.2406 19.8113C47.2406 19.8113 47.2406 19.8156 47.2363 19.8199C47.193 19.9325 47.0978 19.9844 46.9939 20.019C46.9073 20.045 46.8381 20.097 46.7775 20.1662C46.6476 20.3134 46.5308 20.4692 46.4182 20.6337C46.3576 20.7246 46.336 20.8155 46.3619 20.915C46.3706 20.9453 46.3749 20.98 46.3879 21.0103C46.4312 21.1488 46.4399 21.2916 46.4615 21.4344C46.4745 21.5037 46.4918 21.573 46.5091 21.6422C46.5221 21.7028 46.5437 21.7591 46.5611 21.8197C46.6043 21.9712 46.6476 22.1227 46.6952 22.2742C46.7126 22.3348 46.7212 22.3954 46.6996 22.456C46.6693 22.5382 46.639 22.6204 46.6 22.6983C46.5437 22.8195 46.4831 22.9364 46.4572 23.0663C46.4528 23.0879 46.4485 23.1139 46.4485 23.1355C46.4528 23.2307 46.4052 23.2957 46.3316 23.3476C46.2797 23.3822 46.2278 23.4169 46.1802 23.4558C46.0806 23.5424 45.9681 23.5467 45.8469 23.5294C45.756 23.5164 45.6997 23.5467 45.6737 23.6333C45.6607 23.6809 45.6304 23.7155 45.5915 23.7458C45.5785 23.7545 45.5655 23.7631 45.5525 23.7675C45.4703 23.7805 45.3837 23.7891 45.2971 23.7978C45.2582 23.8021 45.2192 23.7891 45.1933 23.7631C45.0851 23.6636 44.9768 23.564 44.873 23.4602C44.847 23.4342 44.8297 23.3952 44.8124 23.3649C44.7994 23.3433 44.7907 23.3216 44.7734 23.3043C44.6998 23.2221 44.6565 23.2307 44.6003 23.2784C44.4964 23.3649 44.3839 23.4299 44.2627 23.4818C44.1977 23.5078 44.1544 23.564 44.1285 23.629C44.1025 23.6939 44.0592 23.7502 44.0073 23.7978C43.7562 24.0445 43.5095 24.2955 43.2541 24.5423C43.094 24.7024 42.9252 24.8539 42.7607 25.0054C42.6352 25.1223 42.5226 25.2478 42.4144 25.382C42.3105 25.5118 42.1937 25.62 42.0422 25.698C41.9036 25.7672 41.7565 25.8235 41.6136 25.8798C41.4362 25.949 41.2587 26.0269 41.0856 26.0962C40.9947 26.1308 40.9038 26.1654 40.8129 26.2001C40.7912 26.2087 40.7696 26.2174 40.748 26.226C40.6311 26.2823 40.5185 26.3429 40.4017 26.3992C40.1506 26.516 39.9256 26.6719 39.7048 26.8407C39.5273 26.9749 39.3412 27.1004 39.1464 27.2129C39.0728 27.2562 39.0036 27.2432 38.943 27.1956C38.8002 27.0831 38.6616 26.9749 38.5231 26.8623C38.4582 26.8104 38.3976 26.7584 38.337 26.7065C38.35 26.6199 38.363 26.6113 38.4452 26.6113C38.601 26.6113 38.7569 26.6113 38.9127 26.6113C38.982 26.6113 39.0555 26.6113 39.1248 26.6113C39.2114 26.6156 39.2849 26.581 39.3455 26.5204C39.4061 26.4598 39.4667 26.3992 39.5273 26.3429C39.6009 26.278 39.6788 26.2217 39.7524 26.1611C39.8087 26.1178 39.8736 26.0789 39.9299 26.0356C39.9212 25.9533 39.9082 25.9404 39.8433 25.936C39.8217 25.936 39.8 25.936 39.7827 25.936C39.0685 25.936 38.3543 25.936 37.6401 25.936C37.5406 25.936 37.4627 25.9057 37.3977 25.8365C37.19 25.6157 36.9822 25.395 36.7744 25.1742C36.7485 25.1439 36.7095 25.1179 36.7312 25.0703C36.7528 25.0227 36.7961 25.0184 36.8437 25.0184C36.9952 25.0184 37.151 25.0184 37.3025 25.0184C38.8651 25.0184 40.4277 25.0184 41.9859 25.0184C42.0768 25.0184 42.1504 24.9924 42.2153 24.9275C42.3235 24.8193 42.4317 24.7111 42.5399 24.6029C42.5702 24.5726 42.5962 24.5423 42.6222 24.5076C42.6611 24.4557 42.6352 24.3908 42.5702 24.3778C42.5399 24.3735 42.5096 24.3778 42.4837 24.3778C40.4233 24.3778 38.3587 24.3778 36.2983 24.3778C36.1771 24.3778 36.0906 24.3345 36.0213 24.2393C35.8568 24.0055 35.688 23.7718 35.5235 23.5424C35.5495 23.4385 35.5582 23.4299 35.6534 23.4299C35.9694 23.4299 36.2897 23.4299 36.6056 23.4299H43.1892C43.2152 23.4299 43.2411 23.4299 43.2671 23.4299C43.3364 23.4212 43.371 23.3519 43.3364 23.2957C43.2628 23.1701 43.1892 23.049 43.1113 22.9278C43.0637 22.8498 42.9944 22.8152 42.8992 22.8152C40.3541 22.8152 37.8046 22.8152 35.2595 22.8152C35.134 22.8152 35.0561 22.7676 34.9998 22.6594C34.8872 22.4386 34.7704 22.2179 34.6535 21.9971C34.6059 21.9062 34.6449 21.8413 34.7487 21.8413C34.7704 21.8413 34.792 21.8413 34.8093 21.8413C37.2679 21.8413 39.7264 21.8413 42.185 21.8413C42.211 21.8413 42.2369 21.8413 42.2629 21.8413C42.3235 21.8327 42.3754 21.7764 42.3668 21.7201C42.3495 21.6119 42.3668 21.5037 42.3798 21.3955C42.3884 21.3219 42.3452 21.2656 42.2716 21.257C42.2499 21.257 42.224 21.257 42.2023 21.257C39.6269 21.257 37.0558 21.257 34.4804 21.257C34.4068 21.257 34.3462 21.244 34.3029 21.1834C34.2899 21.1661 34.2769 21.1444 34.2683 21.1228C34.1774 20.8804 34.0865 20.638 33.9999 20.3956C33.9696 20.3134 34.0172 20.2485 34.1038 20.2485C34.1254 20.2485 34.1514 20.2485 34.1731 20.2485C36.8221 20.2485 39.4711 20.2485 42.1244 20.2485C42.146 20.2485 42.172 20.2485 42.1937 20.2485C42.2629 20.2441 42.3019 20.1835 42.2759 20.1186C42.2283 20.0147 42.1807 19.9108 42.1287 19.807C42.0854 19.7204 42.0119 19.6858 41.9123 19.6858C39.259 19.6858 36.6056 19.6858 33.9523 19.6858C33.922 19.6858 33.8874 19.6858 33.8571 19.6771C33.8051 19.6555 33.7619 19.6165 33.7489 19.5559C33.6883 19.3049 33.632 19.0538 33.5714 18.8028C33.5541 18.7162 33.606 18.6556 33.6926 18.6513C33.7142 18.6513 33.7402 18.6513 33.7618 18.6513H41.1548C41.1548 18.6513 41.1851 18.6513 41.1981 18.6513C41.2674 18.6599 41.3236 18.6469 41.3323 18.5474C41.2674 18.4565 41.2111 18.3526 41.1678 18.2357C41.1418 18.1665 41.0899 18.1189 41.0077 18.1275C40.973 18.1275 40.9384 18.1275 40.9038 18.1275C38.4799 18.1275 36.0559 18.1275 33.632 18.1275C33.5974 18.1275 33.5584 18.1275 33.5281 18.1189C33.4675 18.0929 33.4329 18.0453 33.4242 17.976C33.3983 17.738 33.3766 17.5042 33.3506 17.2662C33.3506 17.2445 33.3463 17.2272 33.342 17.2056C33.3333 17.1233 33.3809 17.0627 33.4632 17.0541C33.4848 17.0541 33.5108 17.0541 33.5324 17.0541H40.5921C40.6138 17.0541 40.6397 17.0541 40.6614 17.0541C40.735 17.0497 40.7826 16.9891 40.7653 16.9156C40.748 16.8376 40.7263 16.7554 40.709 16.6775C40.6917 16.6169 40.6224 16.5649 40.5575 16.5606C40.5359 16.5606 40.5099 16.5606 40.4883 16.5606H33.5368C33.5368 16.5606 33.5021 16.5606 33.4848 16.5606C33.3636 16.5779 33.2944 16.5 33.2987 16.3745C33.3074 16.1667 33.2987 15.959 33.2987 15.7469C33.2987 15.6906 33.2987 15.6343 33.3117 15.5781C33.3203 15.5088 33.3723 15.4612 33.4415 15.4569C33.4632 15.4569 33.4892 15.4569 33.5108 15.4569C35.8958 15.4569 38.2807 15.4569 40.6657 15.4569C40.7869 15.4569 40.8562 15.4093 40.8995 15.301C40.9211 15.2448 40.9557 15.1972 40.9774 15.1452C41.012 15.0673 40.9687 14.9981 40.8821 14.9981C40.8605 14.9981 40.8345 14.9981 40.8129 14.9981H33.5801C33.5801 14.9981 33.5454 14.9981 33.5281 14.9981C33.3809 14.9981 33.342 14.9504 33.3636 14.8033C33.3853 14.6301 33.4026 14.4613 33.4242 14.2882C33.4372 14.193 33.4502 14.1021 33.4632 14.0112C33.4805 13.9116 33.5368 13.8683 33.6493 13.8683C35.1123 13.8683 36.5797 13.8683 38.0427 13.8683C39.2114 13.8683 40.3757 13.8683 41.5444 13.8683C41.592 13.8683 41.6353 13.8727 41.6742 13.8337C41.7132 13.7947 41.7219 13.7558 41.7089 13.7038C41.6959 13.6606 41.6829 13.6216 41.6699 13.5783C41.6396 13.4831 41.5833 13.4398 41.4838 13.4398C39.6615 13.4398 37.8436 13.4398 36.0213 13.4398C35.2595 13.4398 34.4977 13.4398 33.7359 13.4398C33.6969 13.4398 33.6623 13.4485 33.6277 13.4138C33.5974 13.3792 33.5757 13.3489 33.5887 13.297C33.6623 13.007 33.7359 12.7126 33.8095 12.4183C33.8354 12.3231 33.9004 12.2798 34.0042 12.2798C36.4195 12.2798 38.8348 12.2798 41.2457 12.2798C41.2674 12.2798 41.2933 12.2798 41.315 12.2798C41.3929 12.2798 41.4362 12.2192 41.4189 12.1413C41.4102 12.1023 41.4016 12.0677 41.3929 12.0287C41.3626 11.9119 41.315 11.8729 41.1938 11.8729C38.8608 11.8729 36.5277 11.8729 34.199 11.8729C34.1774 11.8729 34.1514 11.8729 34.1298 11.8729C34.0432 11.8729 33.9956 11.808 34.0259 11.7257C34.1384 11.4271 34.2553 11.1284 34.3722 10.8341C34.4111 10.7345 34.4804 10.6869 34.5929 10.6869C36.7485 10.6869 38.904 10.6869 41.0596 10.6869C41.0812 10.6869 41.1072 10.6869 41.1289 10.6869C41.1895 10.6869 41.2414 10.6307 41.2457 10.5744C41.2457 10.5311 41.2457 10.4878 41.2457 10.4402C41.2414 10.3753 41.1895 10.3233 41.1202 10.319C41.0986 10.319 41.0726 10.319 41.0509 10.319C38.9776 10.319 36.9043 10.319 34.831 10.319C34.805 10.319 34.779 10.319 34.7531 10.319C34.6795 10.3103 34.6449 10.2454 34.6752 10.1805C34.8353 9.85153 35.0084 9.53556 35.1989 9.22391C35.2465 9.14167 35.3158 9.09838 35.424 9.09838C37.4021 9.09838 39.3758 9.09838 41.3539 9.09838C41.4448 9.09838 41.5184 9.07241 41.5833 9.01182C41.6353 8.95988 41.6916 8.90361 41.7435 8.85166C41.7175 8.78818 41.6685 8.75644 41.5963 8.75644C40.0035 8.75644 38.4149 8.75644 36.8221 8.75644H35.7183C35.7183 8.75644 35.675 8.75644 35.6577 8.75644C35.5755 8.75211 35.5408 8.68285 35.5885 8.61793C35.7443 8.39718 35.9001 8.17643 36.0603 7.95568C36.1382 7.84747 36.2247 7.74791 36.3026 7.6397C36.3762 7.54447 36.4628 7.50119 36.5883 7.50119C38.2591 7.50119 39.9299 7.50119 41.6007 7.50119C41.6266 7.50119 41.6526 7.50119 41.6786 7.50119C41.7781 7.49253 41.8474 7.35835 41.8041 7.27178C41.7781 7.22417 41.7435 7.19387 41.6872 7.19387C41.6656 7.19387 41.6396 7.19387 41.618 7.19387H36.9346C36.9346 7.19387 36.8913 7.19387 36.874 7.19387C36.7961 7.19387 36.7874 7.18089 36.7615 7.08999C36.9259 6.91252 37.0947 6.73073 37.2636 6.55326C37.428 6.38445 37.6012 6.21997 37.77 6.05116C37.8003 6.02086 37.8306 5.99489 37.8609 5.96892C37.9172 5.92131 37.9821 5.904 38.0557 5.904C38.6227 5.904 39.1897 5.904 39.7567 5.904C40.4233 5.904 41.0856 5.904 41.7522 5.904C41.7954 5.904 41.8344 5.904 41.869 5.87802C41.9166 5.8434 41.9383 5.7828 41.9253 5.73086C41.908 5.67892 41.8604 5.63563 41.8041 5.6313C41.7825 5.6313 41.7565 5.6313 41.7348 5.6313H38.4972C38.4972 5.6313 38.4539 5.6313 38.4366 5.6313C38.4019 5.6313 38.3716 5.62265 38.3587 5.58802C38.3457 5.55339 38.3587 5.52742 38.389 5.50145C38.4625 5.44085 38.5361 5.37593 38.614 5.31533C39.0123 4.99502 39.4191 4.69636 39.8433 4.41501C39.8693 4.3977 39.8909 4.38038 39.9169 4.3674C39.9775 4.33277 40.0424 4.31113 40.116 4.31113C40.4536 4.31113 40.7912 4.31113 41.1289 4.31113C41.2111 4.31113 41.263 4.28516 41.2933 4.19859C41.2717 4.17262 41.2501 4.13799 41.2241 4.10769C41.1981 4.07739 41.1592 4.06441 41.1159 4.06441C40.9601 4.06441 40.8042 4.06441 40.6484 4.06441C40.5705 4.06441 40.5618 4.05142 40.5532 3.96485C40.6397 3.91724 40.7263 3.8653 40.8172 3.81336C40.986 3.72246 41.1505 3.62723 41.3193 3.54067C41.4059 3.49305 41.4622 3.52335 41.4924 3.61425C41.5141 3.6835 41.5357 3.74843 41.5487 3.81769C41.5747 3.95187 41.6439 4.05575 41.7305 4.1553C41.8257 4.26784 41.9166 4.38038 42.0119 4.49292C42.0551 4.54054 42.0984 4.58815 42.146 4.63143C42.2543 4.72666 42.3278 4.84786 42.3971 4.96905C42.4447 5.05129 42.4534 5.14652 42.449 5.24174C42.4447 5.33264 42.449 5.42354 42.449 5.51444C42.449 5.55772 42.449 5.59668 42.449 5.63996C42.449 5.8737 42.4404 6.11176 42.4361 6.3455C42.4361 6.35415 42.4361 6.36281 42.4361 6.37147C42.3841 6.73073 42.4187 7.09432 42.4144 7.45358C42.4144 7.70463 42.4144 7.95135 42.4144 8.2024C42.4144 8.39718 42.3668 8.57897 42.3019 8.76077C42.2802 8.81704 42.2716 8.87331 42.2716 8.9339C42.2716 9.01182 42.2413 9.07241 42.1893 9.13301C42.146 9.18495 42.1071 9.2369 42.0681 9.29317C41.9945 9.4057 41.9296 9.52257 41.856 9.63511C41.7911 9.73034 41.7565 9.82989 41.7738 9.94676C41.7868 10.055 41.7825 10.1718 41.7738 10.2801C41.7695 10.3883 41.8041 10.4792 41.869 10.5657C41.9123 10.6177 41.9469 10.6783 41.9772 10.7345C42.0205 10.8081 42.0248 10.8904 41.9989 10.9726C41.9772 11.0375 41.9599 11.1025 41.9383 11.1674C41.921 11.2237 41.9296 11.2713 41.9859 11.3059C42.0119 11.3189 42.0335 11.3405 42.0595 11.3622C42.0422 11.4098 42.0248 11.4531 42.0119 11.4963C41.9945 11.5483 41.9816 11.5959 41.9642 11.6478C41.9513 11.6781 41.9556 11.7041 41.9686 11.7301C42.0292 11.8383 42.0422 11.9552 42.0725 12.072C42.0725 12.0807 42.0725 12.0893 42.0725 12.098C42.0811 12.2019 42.0811 12.3014 42.0941 12.4053C42.1071 12.5395 42.1201 12.6737 42.1374 12.8079C42.1417 12.8641 42.1504 12.9247 42.159 12.981C42.172 13.0892 42.185 13.1974 42.2023 13.3056C42.224 13.4355 42.2283 13.561 42.2326 13.6909C42.2326 13.8121 42.2413 13.9333 42.2499 14.0501C42.2499 14.0891 42.2499 14.128 42.2543 14.1627C42.2629 14.3142 42.198 14.418 42.0768 14.5003C41.9513 14.5825 41.8344 14.6777 41.7262 14.7773C41.6007 14.8855 41.5184 15.0327 41.4362 15.1755C41.3583 15.3097 41.2847 15.4482 41.2198 15.5867C41.1462 15.7425 41.1289 15.9027 41.1548 16.0758C41.1721 16.2057 41.1851 16.3399 41.2198 16.4654C41.2717 16.6515 41.3323 16.8376 41.3886 17.0194C41.4145 17.1017 41.4405 17.1882 41.4622 17.2705C41.4665 17.2921 41.4708 17.3094 41.4795 17.3311C41.4925 17.3614 41.5098 17.383 41.5444 17.3744C41.5747 17.37 41.5963 17.3484 41.605 17.3181C41.605 17.3051 41.605 17.2878 41.6093 17.2748C41.618 17.0367 41.6223 16.7987 41.631 16.5606C41.6353 16.4048 41.6396 16.249 41.6613 16.0931C41.7002 15.8031 41.8041 15.5348 41.9339 15.2794C41.9686 15.2145 42.0248 15.1712 42.1028 15.1669C42.1417 15.1669 42.1763 15.1539 42.2153 15.1452C42.3581 15.1063 42.501 15.063 42.6481 15.024C42.7607 14.9937 42.8386 15.0327 42.8775 15.1452C42.9252 15.2751 42.9555 15.4093 42.9598 15.5478C42.9598 15.6343 42.9598 15.7166 42.9598 15.8031C42.9598 15.8334 42.9641 15.8637 42.9771 15.8897C42.9901 15.92 43.0074 15.9503 43.0464 15.9417C43.0767 15.9417 43.1113 15.8984 43.1156 15.8594C43.1156 15.8291 43.1156 15.7988 43.1156 15.7728C43.0507 15.3487 43.042 14.9245 43.055 14.5003C43.055 14.444 43.0637 14.3834 43.0767 14.3271C43.107 14.1973 43.0983 14.0631 43.0983 13.9333C43.0983 13.7947 43.1113 13.6606 43.1329 13.5221C43.1329 13.5091 43.1329 13.5004 43.1329 13.4874C43.1286 13.3446 43.1502 13.2017 43.1719 13.0589C43.1935 12.9291 43.2065 12.7949 43.2368 12.6693C43.2844 12.4616 43.345 12.2538 43.4013 12.0504C43.4749 11.7734 43.5528 11.4963 43.6307 11.2193C43.6307 11.2063 43.6394 11.1934 43.648 11.176C43.6913 11.0808 43.7043 10.9856 43.6567 10.8904C43.635 10.8514 43.6437 10.8124 43.6567 10.7692C43.7043 10.6436 43.7562 10.5224 43.8428 10.4229C43.9077 10.3493 43.925 10.2627 43.8947 10.1675C43.8471 10.0247 43.8341 9.87751 43.8385 9.72601C43.8385 9.5875 43.8298 9.44899 43.8255 9.31048C43.8255 9.28018 43.8168 9.24555 43.8038 9.21525C43.7779 9.14167 43.7779 9.07242 43.8211 9.00316C43.8947 8.88629 43.964 8.76942 44.0419 8.65256C44.0852 8.58763 44.1415 8.53569 44.215 8.50539C44.3665 8.44046 44.518 8.37121 44.6652 8.30628C44.7604 8.263 44.8556 8.21538 44.9509 8.1721C45.15 8.0812 45.3491 7.98598 45.5525 7.89941C45.6997 7.83881 45.8512 7.7912 45.9984 7.73493C46.0416 7.71761 46.0849 7.7003 46.1282 7.67433C46.2321 7.61806 46.3403 7.58343 46.4572 7.55746C46.6043 7.52716 46.7472 7.48388 46.89 7.44925C47.0415 7.41462 47.193 7.38432 47.3445 7.35402C47.3921 7.34537 47.4441 7.35402 47.496 7.35402C47.6172 7.34537 47.7384 7.34537 47.8509 7.31507C48.0977 7.25447 48.3487 7.2285 48.5997 7.23283C48.6733 7.23283 48.7469 7.21984 48.8205 7.21551C48.8595 7.21551 48.9027 7.20686 48.9417 7.20686C49.1192 7.21118 49.2923 7.18521 49.4654 7.1679C49.6126 7.15492 49.7554 7.14626 49.9069 7.15491C50.1104 7.1679 50.3138 7.15491 50.5129 7.15491C50.5995 7.15491 50.6904 7.16357 50.777 7.17223C50.8073 7.17223 50.8419 7.18521 50.8722 7.18089C51.0323 7.1679 51.1882 7.21118 51.344 7.24148C51.4176 7.25447 51.4955 7.26745 51.5691 7.27178C51.7552 7.28044 51.937 7.30641 52.1188 7.34537C52.175 7.35835 52.227 7.36701 52.2833 7.37567C52.3482 7.38865 52.4088 7.40596 52.465 7.44059C52.5646 7.50552 52.6728 7.54015 52.794 7.5488C52.8633 7.55313 52.9325 7.5791 52.9975 7.59642C53.071 7.61806 53.1446 7.63537 53.2225 7.63104C53.3524 7.63104 53.4779 7.65701 53.5948 7.71328C53.6554 7.74358 53.7203 7.7609 53.7896 7.77388C53.9237 7.79985 54.0622 7.8215 54.1964 7.84747C54.2484 7.86045 54.296 7.89075 54.3479 7.91672C54.3782 7.92971 54.4128 7.94702 54.4431 7.96001C54.5557 8.01195 54.6726 8.05956 54.7851 8.12016C54.837 8.14613 54.8803 8.18941 54.9193 8.2327C55.0491 8.36688 55.1747 8.50106 55.3002 8.63957C55.3132 8.65256 55.3261 8.66554 55.3348 8.67853C55.4214 8.76942 55.4257 8.80405 55.3738 8.92525C55.3564 8.95988 55.3435 8.9945 55.3391 9.03346C55.3305 9.10704 55.3088 9.1763 55.2742 9.24122C55.1747 9.41869 55.1011 9.60481 55.0361 9.79959C55.0102 9.88183 55.0188 9.95109 55.0664 10.0247C55.179 10.1978 55.2829 10.3796 55.3997 10.5527C55.5382 10.7562 55.6897 10.951 55.8412 11.1457C55.9105 11.2323 55.9494 11.3189 55.9235 11.4357C55.9062 11.5137 55.9148 11.6002 55.9191 11.6825C55.9191 11.9162 55.9062 12.1456 55.8412 12.3707C55.8153 12.4573 55.7676 12.5179 55.6724 12.5222C55.6421 12.5222 55.6075 12.5352 55.5772 12.5395C55.5079 12.5568 55.4517 12.5265 55.4041 12.4746L55.4257 12.5179ZM48.5218 19.8502C48.5435 19.9152 48.5565 19.9801 48.6041 20.032C48.643 20.071 48.669 20.0753 48.7123 20.045C48.7339 20.032 48.7512 20.0104 48.7642 19.9887C48.7902 19.9411 48.8118 19.8892 48.8335 19.8372C48.8551 19.781 48.8681 19.7204 48.8811 19.6814C48.8811 19.5559 48.8032 19.504 48.708 19.5559C48.6733 19.5775 48.6387 19.5992 48.6041 19.6252C48.5262 19.6814 48.4829 19.7507 48.5175 19.8502H48.5218ZM43.4143 20.8544C43.4446 20.9064 43.4749 20.954 43.5052 21.0059C43.5225 21.0319 43.5398 21.0622 43.5571 21.0882C43.6177 21.1618 43.687 21.1661 43.7476 21.0882C43.7865 21.0362 43.8082 20.9756 43.8255 20.915C43.8428 20.8588 43.8514 20.7938 43.8644 20.7332C43.8817 20.6423 43.8991 20.5558 43.9164 20.4735C43.9164 20.3913 43.8774 20.3393 43.8255 20.2917C43.7519 20.2225 43.6956 20.2268 43.635 20.309C43.6264 20.3177 43.622 20.3307 43.6177 20.3394C43.5874 20.387 43.5571 20.4346 43.5268 20.4779C43.4965 20.5168 43.4576 20.5514 43.4273 20.5904C43.3537 20.6856 43.3493 20.7505 43.4143 20.8544ZM42.1547 18.8287C42.1114 18.7032 42.0292 18.5993 41.9296 18.5127C41.8431 18.543 41.8387 18.556 41.869 18.6253C41.8993 18.6945 41.9339 18.7638 41.9686 18.8287C41.9902 18.8633 42.0205 18.8936 42.0508 18.9196C42.0854 18.9499 42.1157 18.9413 42.1417 18.9066C42.1634 18.8807 42.1634 18.8547 42.1547 18.8244V18.8287ZM44.0462 23.0922C44.0159 23.01 43.977 22.9321 43.9423 22.8498C43.8514 22.6291 43.7216 22.4213 43.6523 22.1876C43.6177 22.0794 43.5528 21.9971 43.4489 21.9452C43.3667 21.9019 43.345 21.8413 43.3667 21.7461C43.3753 21.7071 43.3797 21.6725 43.3926 21.6336C43.4186 21.5556 43.3926 21.4907 43.345 21.4301C43.3277 21.4128 43.3104 21.3955 43.2974 21.3782C43.2541 21.3262 43.2368 21.2656 43.2671 21.1964C43.2801 21.1661 43.2888 21.1358 43.3017 21.1055C43.3407 21.0146 43.332 20.9323 43.2671 20.8588C43.2541 20.8458 43.2455 20.8328 43.2325 20.8155C43.1676 20.7419 43.1373 20.6553 43.1156 20.5601C43.0983 20.4822 43.1026 20.4043 43.1546 20.335C43.1719 20.3134 43.1849 20.2831 43.2022 20.2614C43.2541 20.1792 43.2541 20.097 43.2022 20.019C43.1416 19.9238 43.1026 19.8199 43.0593 19.7161C43.0117 19.6078 42.9901 19.491 42.9771 19.3741C42.9728 19.3352 42.9771 19.2919 42.9858 19.2529C42.9987 19.1923 43.0161 19.1317 43.0334 19.0754C43.068 18.9716 43.0507 18.8807 42.9771 18.7984C42.9208 18.7335 42.8689 18.6642 42.8299 18.5907C42.7823 18.5084 42.739 18.4219 42.6741 18.3439C42.6265 18.2877 42.5962 18.2227 42.5962 18.1448C42.5962 18.0496 42.5962 17.9587 42.5875 17.8635C42.5789 17.7423 42.5962 17.6211 42.6525 17.5129C42.7217 17.3787 42.804 17.2532 42.8819 17.1276C42.9295 17.0541 42.9858 16.9848 43.0031 16.8939C43.029 16.7554 43.0464 16.6169 43.0723 16.4784C43.068 16.4264 43.0507 16.3961 43.0117 16.3875C42.9684 16.3745 42.9468 16.4048 42.9252 16.4351C42.8862 16.487 42.8473 16.539 42.8126 16.5909C42.6828 16.777 42.501 16.9026 42.2932 16.9805C42.1547 17.0324 42.0898 17.1276 42.0768 17.2705C42.0725 17.3397 42.0551 17.409 42.0465 17.4782C42.0292 17.5865 42.0075 17.6903 41.9989 17.7986C41.9816 17.9544 41.9989 18.1102 42.0768 18.253C42.1417 18.3699 42.2326 18.4651 42.3365 18.5474C42.4057 18.6036 42.4707 18.6729 42.5313 18.7378C42.5702 18.7811 42.5572 18.8331 42.5096 18.8634C42.488 18.8763 42.462 18.885 42.4361 18.8937C42.4101 18.9023 42.3841 18.9066 42.3625 18.9196C42.2889 18.9542 42.2759 19.0105 42.3105 19.0754C42.4058 19.2572 42.501 19.439 42.5962 19.6208C42.6222 19.6728 42.6438 19.729 42.6741 19.781C42.7131 19.8502 42.7693 19.8978 42.8516 19.9108C42.9122 19.9195 42.9555 19.9628 42.9771 20.019C42.9944 20.0667 43.0031 20.1229 43.0161 20.1705C43.029 20.2268 43.0247 20.2788 42.9987 20.335C42.9771 20.3826 42.9555 20.4302 42.9338 20.4779C42.9035 20.5514 42.8905 20.6207 42.9208 20.6986C42.9382 20.7419 42.9511 20.7895 42.9728 20.8285C43.0204 20.915 43.029 21.0016 42.9901 21.0925C42.9684 21.1444 42.9468 21.2007 42.9252 21.257C42.8905 21.3522 42.9122 21.4215 42.9858 21.4864C42.9987 21.4994 43.0161 21.508 43.0247 21.521C43.0767 21.573 43.1026 21.6336 43.0767 21.7115C43.042 21.798 43.0204 21.8933 42.9987 21.9842C42.9771 22.0751 43.0074 22.14 43.0896 22.1789C43.1113 22.1876 43.1329 22.1963 43.1546 22.2049C43.2238 22.2309 43.2714 22.2742 43.2974 22.3391C43.3277 22.4127 43.3753 22.4776 43.4186 22.5425C43.4359 22.5728 43.4576 22.6031 43.4705 22.6334C43.5441 22.7892 43.6134 22.9494 43.687 23.1052C43.7129 23.1615 43.7389 23.2178 43.7692 23.2697C43.7952 23.3173 43.8341 23.3476 43.8904 23.339C44.0029 23.3216 44.0809 23.1875 44.0419 23.0793L44.0462 23.0922ZM44.4012 21.3262C44.4012 21.2829 44.4012 21.2353 44.3925 21.1964C44.3579 21.0665 44.3232 20.9367 44.2843 20.8068C44.267 20.7549 44.241 20.7029 44.1804 20.7029C44.1241 20.7029 44.0982 20.7506 44.0765 20.7982C44.0462 20.8717 44.0116 20.941 43.9813 21.0146C43.9553 21.0752 43.9294 21.1401 43.9077 21.205C43.8774 21.3046 43.8861 21.3565 44.0029 21.4344C44.0635 21.4734 44.1241 21.5037 44.1847 21.5383C44.2886 21.5946 44.3882 21.547 44.3968 21.4258C44.3968 21.3955 44.3968 21.3609 44.3968 21.3306L44.4012 21.3262ZM44.9898 21.4647C44.9985 21.4215 44.9812 21.3912 44.9422 21.3695C44.9076 21.3479 44.8773 21.3609 44.8513 21.3825C44.8124 21.4171 44.7691 21.4474 44.7345 21.4907C44.6479 21.5946 44.57 21.7028 44.4877 21.811C44.4618 21.8456 44.4488 21.8889 44.4315 21.9322C44.4531 21.9971 44.4747 22.0577 44.5007 22.114C44.5224 22.1703 44.5613 22.2136 44.6133 22.2482C44.6609 22.2785 44.6998 22.2785 44.7431 22.2482C44.7864 22.2136 44.8124 22.1703 44.8253 22.1183C44.8686 21.9452 44.9119 21.7721 44.9552 21.5989C44.9639 21.5556 44.9812 21.5124 44.9855 21.4734L44.9898 21.4647ZM45.0071 13.0676C45.137 13.0243 45.2625 12.9637 45.4054 12.9594C45.4963 12.9594 45.5872 12.9204 45.6824 12.9464C45.743 12.9637 45.8079 12.9637 45.8728 12.968C45.9681 12.9767 46.059 12.981 46.1542 12.994C46.3619 13.0243 46.574 13.0589 46.7861 13.0416C46.864 13.0416 46.9376 13.0416 47.0155 13.0416C47.1151 13.0503 47.2146 13.0632 47.3099 13.0762C47.4267 13.0892 47.5436 13.1065 47.6605 13.1195C47.6908 13.1195 47.7254 13.1282 47.7557 13.1282C47.8553 13.1282 47.9548 13.1282 48.0544 13.1195C48.1279 13.1152 48.1972 13.1152 48.2708 13.1412C48.3357 13.1671 48.379 13.1411 48.4006 13.0762C48.4093 13.0546 48.4093 13.0286 48.4136 13.007C48.4266 12.8988 48.4439 12.7862 48.4526 12.678C48.4526 12.6391 48.4612 12.6001 48.4439 12.5655C48.3833 12.427 48.3054 12.3014 48.1582 12.2322C48.063 12.1889 47.9721 12.1456 47.8769 12.1067C47.812 12.0807 47.747 12.0504 47.6778 12.0374C47.509 12.0071 47.3358 12.0028 47.167 12.0244C47.0199 12.0461 46.877 12.0244 46.7299 12.0071C46.5827 11.9941 46.4399 11.9681 46.2927 11.9941C46.2234 12.0071 46.1542 12.0114 46.0806 12.0158C45.9594 12.0244 45.8425 12.0287 45.7213 12.0331C45.5395 12.0417 45.3621 12.085 45.1846 12.1283C45.0807 12.1543 45.0115 12.2192 44.9595 12.3101C44.834 12.5308 44.7042 12.7516 44.5786 12.9767C44.5613 13.0026 44.5527 13.0373 44.5397 13.0632C44.5267 13.0892 44.5397 13.1152 44.5527 13.1368C44.5873 13.1801 44.6133 13.1888 44.6695 13.1758C44.7821 13.1411 44.8946 13.1065 45.0028 13.0676H45.0071ZM46.1196 15.2361C46.1499 15.2491 46.1888 15.2448 46.2234 15.2491C46.336 15.2318 46.4485 15.2188 46.5654 15.2015C46.6217 15.1928 46.6823 15.1885 46.7385 15.1798C46.9809 15.1409 47.2233 15.0933 47.4657 15.0587C47.5609 15.0457 47.6475 15.0154 47.7254 14.9591C47.799 14.9028 47.8293 14.8509 47.773 14.7643C47.7341 14.708 47.7341 14.6431 47.7557 14.5782C47.7687 14.5479 47.773 14.5133 47.7817 14.483C47.8033 14.418 47.8639 14.3921 47.9288 14.4094C47.9981 14.431 48.063 14.4527 48.128 14.4743C48.2102 14.5003 48.2578 14.4657 48.2362 14.3791C48.2145 14.3098 48.1885 14.2362 48.1496 14.1756C48.089 14.0804 48.0197 13.9939 47.9505 13.9073C47.9115 13.8597 47.8682 13.8121 47.825 13.7688C47.7817 13.7255 47.7297 13.6995 47.6648 13.7125C47.6215 13.7212 47.5782 13.7255 47.535 13.7255C47.4397 13.7255 47.3445 13.7212 47.2536 13.7341C47.1021 13.7601 46.9549 13.7861 46.8034 13.7991C46.7299 13.8034 46.6563 13.8121 46.5827 13.8207C46.4615 13.838 46.3403 13.864 46.2191 13.8856C46.0979 13.9073 45.9767 13.9419 45.8555 13.9549C45.7776 13.9636 45.717 13.9982 45.6607 14.0501C45.5439 14.167 45.427 14.2839 45.3188 14.4051C45.2495 14.483 45.1889 14.5652 45.1283 14.6474C45.0937 14.6951 45.0937 14.7167 45.124 14.7513C45.1543 14.786 45.1933 14.7903 45.2366 14.7643C45.2495 14.7557 45.2625 14.7427 45.2798 14.7297C45.4054 14.6258 45.5309 14.5263 45.6478 14.418C45.7127 14.3618 45.7776 14.3401 45.8555 14.3704C45.9031 14.3877 45.9507 14.3791 46.0027 14.3704C46.1282 14.3358 46.2537 14.3055 46.3793 14.2709C46.4009 14.2665 46.4269 14.2665 46.4485 14.2622C46.5221 14.2536 46.5697 14.3012 46.6043 14.3574C46.626 14.3877 46.6217 14.418 46.6043 14.4483C46.5784 14.496 46.5351 14.5133 46.4788 14.5003C46.4485 14.4916 46.4182 14.483 46.3879 14.5089C46.336 14.5479 46.3273 14.5695 46.3403 14.6388C46.3446 14.6648 46.3533 14.6907 46.3619 14.7167C46.3793 14.7816 46.3403 14.8466 46.2797 14.8552C46.1715 14.8769 46.059 14.8898 45.9507 14.9072C45.8988 14.9158 45.8469 14.9201 45.7949 14.9288C45.769 14.9331 45.7387 14.9504 45.7343 14.9851C45.73 15.0197 45.743 15.0413 45.7733 15.0587C45.8901 15.1149 46.0027 15.1755 46.1196 15.2275V15.2361ZM46.033 15.8161C46.2624 15.92 46.4875 16.0239 46.7299 16.0845C46.7948 16.1018 46.8554 16.0975 46.9203 16.0845C47.0112 16.0585 47.1064 16.0282 47.2017 16.0066C47.4094 15.9546 47.6129 15.8811 47.799 15.7772C48.0068 15.6646 48.2059 15.5478 48.4136 15.4309C48.4742 15.3963 48.5305 15.3616 48.5695 15.3054C48.5608 15.2404 48.5132 15.2101 48.4569 15.2015C48.3227 15.1755 48.1929 15.1539 48.0587 15.1322C48.0024 15.1236 47.9462 15.1322 47.8942 15.1582C47.8509 15.1798 47.812 15.2015 47.773 15.2275C47.6085 15.3313 47.4311 15.4093 47.2536 15.4828C47.193 15.5088 47.1281 15.5348 47.0675 15.5651C46.9117 15.6516 46.7385 15.7036 46.5611 15.7036C46.3576 15.7036 46.1499 15.7339 45.9507 15.6473C45.9507 15.6473 45.9464 15.6473 45.9421 15.6473C45.9118 15.643 45.8858 15.6603 45.8901 15.6906C45.8901 15.7079 45.9031 15.7339 45.9161 15.7425C45.9507 15.7728 45.9897 15.8031 46.033 15.8205V15.8161ZM48.5824 16.7597C48.5824 16.7597 48.5348 16.7597 48.5175 16.7727C48.4612 16.803 48.405 16.8333 48.3487 16.8679C48.0933 17.0194 47.8336 17.1753 47.5782 17.3268C47.5047 17.37 47.457 17.4306 47.4311 17.5129C47.3964 17.6254 47.3575 17.738 47.3055 17.8418C47.1757 18.1102 47.0415 18.3786 46.903 18.6469C46.8684 18.7119 46.8251 18.7725 46.7775 18.8244C46.7126 18.898 46.6346 18.9629 46.5654 19.0365C46.5351 19.0668 46.5005 19.0928 46.4831 19.1274C46.4182 19.2399 46.3273 19.3265 46.2451 19.4174C46.2278 19.4347 46.2148 19.452 46.2018 19.4737C46.1628 19.5299 46.1628 19.5559 46.2104 19.6035C46.2234 19.6165 46.2364 19.6295 46.2494 19.6381C46.3403 19.7031 46.4528 19.6858 46.5264 19.7074C46.6217 19.7161 46.6779 19.6944 46.7299 19.6468C46.7515 19.6252 46.7775 19.6035 46.8034 19.5819C46.8467 19.5472 46.8943 19.5169 46.942 19.4866C47.0588 19.4217 47.1757 19.3654 47.2882 19.2962C47.4441 19.2053 47.5912 19.1057 47.7427 19.0105C47.8423 18.9499 47.9202 18.872 47.9765 18.7768C48.0414 18.6729 48.102 18.5647 48.1626 18.4565C48.1972 18.3959 48.2145 18.3353 48.2015 18.2617C48.1972 18.2271 48.2015 18.1924 48.2015 18.1578C48.2232 18.0626 48.2188 17.9674 48.1929 17.8721C48.1669 17.7899 48.1539 17.7077 48.128 17.6254C48.0977 17.5345 48.115 17.4566 48.1756 17.3874C48.2708 17.2748 48.366 17.1666 48.4612 17.0541C48.5132 16.9935 48.5695 16.9285 48.6171 16.8636C48.6517 16.8203 48.6257 16.7554 48.5738 16.7467L48.5824 16.7597ZM68.3677 15.4049C68.3764 15.7512 68.398 16.0975 68.3807 16.4438C68.3634 16.7987 68.3591 17.1536 68.3201 17.5085C68.2942 17.7466 68.2768 17.989 68.2379 18.2271C68.186 18.5604 68.1254 18.898 68.0561 19.2269C67.9176 19.9238 67.7141 20.6034 67.4674 21.27C66.8571 22.9321 65.9698 24.4341 64.8401 25.7932C64.299 26.4425 63.7103 27.0484 63.0741 27.6068C62.5806 28.0396 62.0655 28.4465 61.5245 28.8188C60.1048 29.81 58.5682 30.5718 56.932 31.1345C56.2394 31.3725 55.5339 31.576 54.8154 31.7318C54.4778 31.8054 54.1402 31.8703 53.7982 31.9352C53.5818 31.9742 53.3654 32.0088 53.1489 32.0435C52.9845 32.0694 52.82 32.0867 52.6512 32.1041C52.5256 32.117 52.4001 32.1344 52.2746 32.1473C52.1015 32.1647 51.9283 32.182 51.7595 32.195C51.6253 32.2079 51.4868 32.2123 51.3526 32.2166C51.0756 32.2296 50.7986 32.2426 50.5173 32.2512C50.1969 32.2555 49.8723 32.2512 49.552 32.2512C49.3053 32.2512 49.0586 32.2426 48.8118 32.2296C48.5954 32.2166 48.379 32.1993 48.1626 32.182C47.9938 32.169 47.825 32.156 47.6562 32.1387C47.3878 32.1084 47.1151 32.0738 46.8467 32.0305C46.5654 31.9872 46.284 31.9482 46.007 31.8963C45.4746 31.7967 44.9465 31.6755 44.4228 31.5327C42.9944 31.1475 41.6223 30.6107 40.3151 29.9095C38.9776 29.191 37.7483 28.3253 36.6403 27.2908C35.8655 26.568 35.1599 25.7759 34.541 24.9145C33.5974 23.6073 32.8745 22.1876 32.3854 20.651C32.195 20.0493 32.0391 19.4434 31.9309 18.8201C31.8963 18.6253 31.866 18.4305 31.8357 18.2357C31.8097 18.0626 31.7838 17.8895 31.7664 17.712C31.7491 17.5302 31.7361 17.3484 31.7232 17.1666C31.7102 16.9329 31.6929 16.6991 31.6885 16.4611C31.6799 16.0542 31.6842 15.643 31.7058 15.2361C31.7102 15.1322 31.7145 15.0327 31.7275 14.9288C31.7535 14.6691 31.7794 14.4137 31.8141 14.154C31.853 13.8683 31.8963 13.587 31.9482 13.3056C32.0651 12.6953 32.2253 12.0937 32.42 11.5007C32.7057 10.6307 33.0736 9.79526 33.5151 8.99017C34.0042 8.09851 34.5756 7.26745 35.2249 6.48834C35.6534 5.97325 36.1122 5.48846 36.6013 5.02965C36.9909 4.66173 37.3977 4.31546 37.8219 3.9865C38.8824 3.16409 40.0208 2.47587 41.2327 1.90451C42.2672 1.41973 43.3364 1.03017 44.4358 0.731507C44.9076 0.601653 45.3794 0.493442 45.8598 0.398217C46.0849 0.354932 46.31 0.320305 46.5351 0.281349C46.7212 0.25105 46.9073 0.220751 47.0935 0.19478C47.2666 0.168809 47.4441 0.151495 47.6172 0.134182C47.76 0.116868 47.8985 0.103883 48.0414 0.0908973C48.2405 0.0735835 48.4396 0.0562697 48.643 0.0432844C48.8335 0.0302991 49.0283 0.0259707 49.2187 0.0173138C49.2447 0.0173138 49.2707 0.00865688 49.2966 0H50.764C50.764 0 50.7986 0.0129853 50.8159 0.0129853C50.9934 0.0216422 51.1665 0.0302991 51.344 0.038956C51.4738 0.0432844 51.6037 0.0476129 51.7335 0.0605982C52.0192 0.0865688 52.3049 0.116868 52.5906 0.147167C52.846 0.177466 53.1013 0.207765 53.3524 0.246721C53.6554 0.294334 53.954 0.350604 54.2527 0.406874C54.8327 0.515085 55.4084 0.657923 55.9797 0.826732C57.4341 1.25092 58.8235 1.83093 60.1437 2.57975C61.3557 3.2723 62.4724 4.09038 63.4896 5.04696C64.1648 5.68324 64.7881 6.3758 65.3465 7.12029C66.6104 8.80838 67.5064 10.6696 67.9912 12.7256C68.1427 13.3619 68.2466 14.0068 68.3158 14.6604C68.3418 14.9072 68.3634 15.1539 68.3677 15.4006V15.4049ZM67.4501 15.4396C67.4458 15.2058 67.4241 14.9721 67.3982 14.7383C67.3333 14.1194 67.2337 13.5091 67.0909 12.9031C66.6277 10.951 65.7793 9.18063 64.576 7.5791C64.0436 6.86924 63.455 6.21564 62.8144 5.60966C61.8491 4.70069 60.7886 3.92157 59.6373 3.26797C58.3864 2.55378 57.0662 2.00407 55.6811 1.60152C55.14 1.4457 54.5946 1.30719 54.0406 1.20331C53.7549 1.15137 53.4693 1.0951 53.1836 1.05181C52.9412 1.01286 52.7031 0.986885 52.4607 0.956586C52.188 0.926287 51.9197 0.900316 51.647 0.874345C51.5258 0.86136 51.4003 0.857032 51.2791 0.852703C51.1102 0.844046 50.9458 0.839718 50.777 0.831061C50.7596 0.831061 50.7467 0.822404 50.7293 0.818076H49.3356C49.3096 0.822404 49.2836 0.831061 49.262 0.831061C49.0802 0.839718 48.8984 0.844046 48.7166 0.852703C48.5262 0.865688 48.3357 0.883002 48.1453 0.900316C48.0111 0.913301 47.8769 0.926287 47.7427 0.939272C47.5782 0.956586 47.4094 0.973899 47.2449 0.99987C47.0675 1.02584 46.89 1.05181 46.7169 1.08211C46.5048 1.11674 46.2884 1.15137 46.0763 1.19465C45.6218 1.28555 45.1716 1.38943 44.7258 1.51063C43.6783 1.7963 42.6655 2.16422 41.6829 2.62736C40.5315 3.16842 39.4494 3.82634 38.4409 4.60546C38.0383 4.91711 37.6531 5.24607 37.2809 5.59668C36.8177 6.02952 36.3806 6.49266 35.9737 6.98178C35.3547 7.72194 34.8137 8.51405 34.3505 9.35809C33.9307 10.1199 33.5844 10.9163 33.3117 11.7431C33.1256 12.3058 32.9741 12.8771 32.8615 13.4571C32.8096 13.7255 32.7706 13.9939 32.7317 14.2622C32.6971 14.5046 32.6754 14.7513 32.6494 14.9981C32.6408 15.0933 32.6365 15.1928 32.6278 15.2881C32.6062 15.6776 32.6018 16.0628 32.6105 16.4524C32.6105 16.6775 32.6278 16.8982 32.6408 17.1233C32.6494 17.2965 32.6624 17.4696 32.6797 17.6427C32.6971 17.8072 32.7187 17.976 32.7447 18.1405C32.7706 18.3266 32.8009 18.5127 32.8356 18.6945C32.9394 19.2832 33.0866 19.8632 33.2684 20.4346C33.7359 21.8933 34.4241 23.2437 35.3158 24.486C35.9044 25.3041 36.571 26.0572 37.3112 26.7411C38.3673 27.7237 39.5317 28.5504 40.8042 29.23C42.0465 29.8965 43.345 30.403 44.7042 30.7709C45.2019 30.9051 45.704 31.0176 46.2104 31.1172C46.4745 31.1691 46.7428 31.2081 47.0069 31.247C47.2623 31.286 47.5176 31.3163 47.773 31.3466C47.9332 31.3639 48.0933 31.3769 48.2535 31.3899C48.4569 31.4072 48.6647 31.4245 48.8681 31.4375C49.1019 31.4505 49.3399 31.4548 49.5737 31.4591C49.881 31.4591 50.184 31.4634 50.4913 31.4591C50.7553 31.4548 51.0194 31.4375 51.2834 31.4288C51.4132 31.4245 51.5431 31.4158 51.6686 31.4072C51.8331 31.3942 51.9976 31.3769 52.1577 31.3596C52.2789 31.3466 52.3958 31.3336 52.517 31.3206C52.6728 31.3033 52.833 31.286 52.9888 31.2643C53.1966 31.234 53.4 31.2037 53.6034 31.1648C53.9237 31.1042 54.2484 31.0436 54.5687 30.9743C55.2526 30.8272 55.9191 30.6324 56.5814 30.4073C58.1353 29.8706 59.594 29.1477 60.9445 28.2085C61.4552 27.8535 61.9443 27.4683 62.4161 27.0571C63.0221 26.5247 63.5805 25.9533 64.0956 25.3344C65.169 24.0445 66.0087 22.6161 66.5888 21.0362C66.8225 20.4043 67.0129 19.7593 67.1471 19.0971C67.2121 18.7811 67.2683 18.4651 67.3159 18.1448C67.3506 17.9198 67.3679 17.6903 67.3938 17.4609C67.4328 17.1233 67.4371 16.7857 67.4544 16.4481C67.4674 16.1191 67.4544 15.7902 67.4415 15.4612L67.4501 15.4396ZM38.3976 82.5347L49.9849 75.3539L38.3976 68.173V82.5391V82.5347ZM61.5678 82.5347V68.1686L49.9805 75.3495L61.5678 82.5304V82.5347Z" fill="white"/>
</svg>
