<svg width="94" height="53" viewBox="0 0 94 53" fill="none" xmlns="http://www.w3.org/2000/svg">
<path d="M46.6194 15.4017L22.7464 30.1963V0.607055L46.6194 15.4017Z" fill="#5F4E3E"/>
<path d="M70.4834 0.598145V30.1874L46.6105 15.3928L70.4834 0.598145Z" fill="#5F4E3E"/>
<path d="M10.0985 46.4611L6.46765 51.4773C6.42726 51.5338 6.33841 51.5338 6.29802 51.4773L2.68332 46.4611C2.64293 46.4046 2.55407 46.4328 2.55407 46.5015V52.0548H0.6922V41.8731C0.6922 41.8084 0.744704 41.76 0.805285 41.76H1.6292C1.66554 41.76 1.70189 41.7802 1.72209 41.8084L6.31821 48.4118C6.34648 48.4522 6.40707 48.4522 6.43534 48.4118L11.0476 41.8084C11.0678 41.7761 11.1042 41.76 11.1405 41.76H11.9483C12.0129 41.76 12.0613 41.8125 12.0613 41.8731V52.0548H10.2197V46.5015C10.2197 46.4328 10.1308 46.4046 10.0904 46.4611H10.0985ZM23.6122 52.0669C23.7536 52.1316 23.903 52.1598 24.0686 52.1598C24.4079 52.1598 24.6825 52.0467 24.9087 51.8206C25.1349 51.5904 25.2439 51.3238 25.2439 51.0007C25.2439 50.6776 25.1349 50.3949 24.9087 50.1687C24.6825 49.9385 24.4079 49.8295 24.0686 49.8295C23.7496 49.8295 23.479 49.9425 23.2488 50.1687C23.0185 50.3989 22.9095 50.6695 22.9095 51.0007C22.9095 51.1542 22.9378 51.3036 22.9983 51.445C23.0589 51.5863 23.1397 51.7075 23.2447 51.8125C23.3497 51.9175 23.4749 52.0023 23.6163 52.0669H23.6122ZM35.357 51.7883C34.9208 51.966 34.3675 52.0548 33.7132 52.0548H29.6058V41.865H33.6688C34.0969 41.865 34.5048 41.9417 34.8764 42.0952C35.248 42.2487 35.5791 42.4547 35.8538 42.7091C36.1284 42.9595 36.3465 43.2584 36.504 43.5896C36.6615 43.9207 36.7383 44.264 36.7383 44.6154C36.7383 44.9385 36.6656 45.2939 36.5161 45.6695C36.3707 46.0411 36.0921 46.3723 35.6882 46.655L35.5428 46.7559L35.7043 46.8327C35.9507 46.9458 36.1647 47.0912 36.3425 47.2608C36.5202 47.4304 36.6696 47.6162 36.7827 47.8101C36.8958 48.0039 36.9806 48.2099 37.0371 48.4159C37.0937 48.6259 37.1219 48.8319 37.1219 49.0257C37.1219 49.4013 37.0654 49.7729 36.9564 50.1324C36.8473 50.4878 36.6615 50.8109 36.399 51.0936C36.1405 51.3763 35.7891 51.6106 35.353 51.7883H35.357ZM31.4636 45.7705C31.4636 45.8553 31.5323 45.9199 31.6131 45.9199H33.4386C33.8263 45.9199 34.1454 45.827 34.3837 45.6372C34.63 45.4433 34.7593 45.1849 34.7593 44.8658C34.7593 44.5467 34.6341 44.2761 34.3917 44.054C34.1494 43.8359 33.8303 43.7228 33.4386 43.7228H31.6131C31.5282 43.7228 31.4636 43.7915 31.4636 43.8723V45.7664V45.7705ZM35.147 49.0257C35.147 48.8682 35.1187 48.7107 35.0662 48.5613C35.0097 48.4078 34.9168 48.2705 34.7835 48.1534C34.6543 48.0403 34.4765 47.9474 34.2544 47.8787C34.0363 47.8101 33.7657 47.7778 33.4507 47.7778H31.6131C31.5282 47.7778 31.4636 47.8464 31.4636 47.9272V50.0435C31.4636 50.1283 31.5323 50.1929 31.6131 50.1929H33.4507C34.0444 50.1929 34.4685 50.0799 34.735 49.8497C35.0056 49.6154 35.1429 49.3367 35.1429 49.0217L35.147 49.0257ZM41.2617 41.865V48.2059C41.2617 48.7834 41.3586 49.3206 41.5525 49.8012C41.7423 50.2818 42.0129 50.6978 42.3562 51.0451C42.6954 51.3884 43.1114 51.6631 43.5921 51.861C44.0727 52.0589 44.6098 52.1558 45.1874 52.1558C45.7649 52.1558 46.3021 52.0548 46.7827 51.861C47.2633 51.6631 47.6793 51.3884 48.0266 51.0451C48.3699 50.7018 48.6446 50.2818 48.8344 49.8012C49.0282 49.3206 49.1252 48.7834 49.1252 48.2059V41.865H47.2673V47.9393C47.2673 48.2988 47.2108 48.6259 47.0977 48.9207C46.9846 49.2156 46.8312 49.466 46.6373 49.6679C46.4434 49.8698 46.2213 50.0274 45.9709 50.1364C45.7205 50.2454 45.458 50.302 45.1874 50.302C44.9168 50.302 44.6543 50.2454 44.4039 50.1364C44.1534 50.0274 43.9313 49.8698 43.7375 49.6679C43.5476 49.466 43.3901 49.2156 43.277 48.9207C43.164 48.6299 43.1074 48.2988 43.1074 47.9393V41.865H41.2657H41.2617ZM56.0234 48.0645C56.0234 47.9716 56.0961 47.8989 56.189 47.8989H59.8077V46.0249H56.189C56.0961 46.0249 56.0234 45.9522 56.0234 45.8593V43.8884C56.0234 43.7955 56.0961 43.7228 56.189 43.7228H60.6438V41.865H54.1656V52.0548H56.0234V48.0605V48.0645ZM67.0129 43.7228H71.4677V41.865H64.9895V52.0548H66.8473V48.0605C66.8473 47.9676 66.92 47.8949 67.0129 47.8949H70.6316V46.0209H67.0129C66.92 46.0209 66.8473 45.9482 66.8473 45.8553V43.8844C66.8473 43.7915 66.92 43.7188 67.0129 43.7188V43.7228ZM82.2552 50.197H77.8005C77.7076 50.197 77.6349 50.1243 77.6349 50.0314V48.0605C77.6349 47.9676 77.7076 47.8949 77.8005 47.8949H81.4192V46.0209H77.8005C77.7076 46.0209 77.6349 45.9482 77.6349 45.8553V43.8844C77.6349 43.7915 77.7076 43.7188 77.8005 43.7188H82.2552V41.861H75.777V52.0508H82.2552V50.1929V50.197ZM86.4071 41.865V43.7228H89.1252C89.2181 43.7228 89.2908 43.7955 89.2908 43.8884V52.0548H91.1486V43.8884C91.1486 43.7955 91.2213 43.7228 91.3142 43.7228H94V41.865H86.4071ZM18.2528 46.8084C18.6688 46.2107 19.2988 45.7624 20.0299 45.6614L20.1752 45.6453V44.2075H20.0541C19.1979 44.2075 18.3861 44.5023 17.8328 45.1808C17.7964 45.2252 17.756 45.2737 17.7035 45.2939C17.6672 45.306 17.6429 45.306 17.6227 45.302C17.5541 45.2778 17.5541 45.1647 17.5541 45.092V44.2358H15.9547V49.882H17.6187C17.6187 49.882 17.6106 48.6824 17.6187 48.537C17.6631 47.9353 17.9055 47.3012 18.2488 46.8084H18.2528ZM28.8344 34.8178C28.277 34.7289 27.6874 34.6805 27.0654 34.6764H25.7891V35.3348H27.0654C27.4006 35.3348 27.7035 35.3509 27.966 35.3711C28.2326 35.3913 28.5194 35.4236 28.8303 35.468V34.8178H28.8344ZM25.9143 35.884V36.5424H26.9038C27.2391 36.5424 27.542 36.5545 27.8045 36.5747C28.071 36.5989 28.3578 36.6312 28.6688 36.6756V36.0254C28.1114 35.9325 27.5218 35.884 26.8998 35.884H25.9103H25.9143ZM25.6922 37.8105H27.1623C27.4935 37.8105 27.7924 37.8226 28.0589 37.8428C28.3255 37.8671 28.6122 37.8994 28.9232 37.9438V37.2936C28.3699 37.2047 27.7803 37.1562 27.1583 37.1522H25.6882V37.8105H25.6922ZM31.916 36.8049C31.6736 36.9826 31.403 37.136 31.1001 37.2572V38.0084C31.1001 38.0084 31.1607 37.9882 31.2778 37.9438C31.3909 37.8994 31.5444 37.8307 31.7302 37.7378C31.916 37.6409 32.1219 37.5157 32.34 37.3622C32.5622 37.2088 32.7762 37.023 32.9862 36.817C33.1478 36.9947 33.3174 37.1562 33.4911 37.3016C33.6648 37.447 33.8263 37.5722 33.9798 37.6772C34.1332 37.7823 34.3029 37.8873 34.4887 37.9963V37.1966C34.4887 37.1966 34.4281 37.1562 34.315 37.0795C34.2019 37.0068 34.0686 36.9018 33.9152 36.7645C33.7617 36.6272 33.6042 36.4777 33.4507 36.3121C33.6324 36.09 33.798 35.8396 33.9475 35.5609C34.0969 35.2823 34.21 34.9834 34.2827 34.6603H31.29V35.3348H33.172C32.9943 35.6861 32.8005 35.9769 32.5904 36.2031C32.3804 36.4293 32.1542 36.6312 31.9119 36.813L31.916 36.8049ZM39.7633 36.4454C39.9208 36.1627 40.0218 35.8315 40.0622 35.4478V34.8057H38.2851C38.2851 34.8057 38.2972 34.7653 38.3174 34.7007C38.3336 34.6361 38.3538 34.5634 38.3699 34.4785H37.5541C37.5016 34.7047 37.4289 34.8986 37.34 35.0642C37.2471 35.2257 37.1543 35.363 37.0533 35.4721C36.9523 35.5811 36.8675 35.6619 36.7948 35.7144C36.7221 35.7669 36.6817 35.7911 36.6777 35.7911V36.5989C36.6777 36.5989 36.7504 36.5666 36.8796 36.4898C37.0089 36.4131 37.1744 36.3 37.3723 36.1425C37.5743 35.989 37.7803 35.7508 37.9984 35.4276H39.2221C39.21 35.5811 39.1777 35.7386 39.1252 35.9002H37.8489V36.5262H38.8102C38.6446 36.7039 38.4628 36.8453 38.2649 36.9543C38.067 37.0633 37.8772 37.1522 37.6954 37.2128C37.5137 37.2734 37.3643 37.3178 37.2471 37.342C37.13 37.3663 37.0694 37.3784 37.0654 37.3784V38.0569C37.0654 38.0569 37.1381 38.0488 37.2673 38.0246C37.4006 38.0004 37.5702 37.9559 37.7843 37.8913C37.9943 37.8267 38.2245 37.7338 38.4669 37.6126C38.7092 37.4915 38.9475 37.334 39.1858 37.1482C39.42 36.9583 39.6179 36.7241 39.7754 36.4414L39.7633 36.4454ZM44.7916 35.884H42.3885V36.5424H44.7916V35.884ZM50.7245 34.3291H50.2722V34.8339H50.7245V34.3291ZM49.424 37.8792C49.6825 37.8671 49.9693 37.8469 50.2843 37.8186V37.1482C49.9612 37.1886 49.6825 37.2168 49.4402 37.233C49.1979 37.2491 48.9273 37.2532 48.6244 37.2491C48.4103 37.2411 48.2609 37.2047 48.1841 37.1441C48.1074 37.0795 48.063 36.9947 48.0549 36.8897V35.8033H50.2803V35.1449H48.0549V34.5916H47.2593V36.9543C47.2795 37.2774 47.4047 37.5076 47.6389 37.653C47.8732 37.7984 48.1801 37.8792 48.5598 37.8913C48.8748 37.8953 49.1615 37.8913 49.424 37.8792ZM49.5614 34.3291V34.8339H50.0137V34.3291H49.5614ZM52.5622 37.2774V37.8509H55.5589V37.2774H55.0137L55.1793 35.2419H52.7157V35.7992H54.3998L54.2867 37.2734H52.5662L52.5622 37.2774ZM58.1195 37.968C58.5274 37.9196 58.8748 37.8146 59.1615 37.6611C59.4483 37.5076 59.6866 37.3259 59.8845 37.1118C60.0824 36.8978 60.2318 36.6797 60.3368 36.4495C60.4418 36.2233 60.5186 36.0092 60.567 35.8113C60.6155 35.6134 60.6518 35.3913 60.6761 35.1409H59.9774C59.9774 35.1409 59.9733 35.2176 59.9531 35.3509C59.9329 35.4882 59.8926 35.6579 59.8279 35.8598C59.7673 36.0658 59.6745 36.2718 59.5533 36.4898C59.4321 36.7039 59.2544 36.8937 59.0161 37.0553C58.7779 37.2168 58.479 37.3218 58.1155 37.3743V37.96L58.1195 37.968ZM62.4451 35.3388H64.832C64.8158 35.6982 64.7431 35.989 64.6139 36.2233C64.4846 36.4535 64.319 36.6393 64.1171 36.7766C63.9152 36.9139 63.7092 37.0149 63.5072 37.0755C63.3013 37.1401 63.063 37.1886 62.7843 37.2209V37.8913C62.7843 37.8913 62.857 37.8913 62.9903 37.8711C63.1236 37.8509 63.2972 37.8226 63.5072 37.7661C63.7173 37.7096 63.9434 37.6328 64.1777 37.5238C64.4119 37.4188 64.6381 37.2693 64.8481 37.0755C65.0581 36.8816 65.2399 36.6393 65.3934 36.3444C65.5468 36.0496 65.6276 35.6942 65.6316 35.2823V34.6643H62.441V35.3348L62.4451 35.3388ZM70.5953 37.2936H69.5089V35.7992H70.5024V35.2419H67.7682V35.7992H68.7859V37.2936H67.6833V37.8509H70.5953V37.2936ZM57.9337 35.1732H57.3441V36.4656H57.9337V35.1732ZM59.1211 35.1732H58.5315V36.4656H59.1211V35.1732Z" fill="#5F4E3E"/>
</svg>
