<svg width="144" height="16" viewBox="0 0 144 16" fill="none" xmlns="http://www.w3.org/2000/svg">
<path d="M14.676 15.8446V7.29759C14.676 7.19192 14.5392 7.14841 14.4771 7.23543L8.88889 14.9557C8.82673 15.0427 8.68998 15.0427 8.62782 14.9557L3.05828 7.22922C2.99612 7.14219 2.85936 7.1857 2.85936 7.29138V15.8384H0V0.174048C0 0.0745921 0.0808081 0 0.174048 0H1.44211C1.49806 0 1.554 0.03108 1.58508 0.0745921L8.6589 10.2378C8.70241 10.2999 8.79565 10.2999 8.83916 10.2378L15.9441 0.0745921C15.9751 0.024864 16.0311 0 16.087 0H17.3302C17.4297 0 17.5043 0.0808081 17.5043 0.174048V15.8446H14.6698H14.676ZM37.2712 15.4779C37.6193 15.1235 37.7871 14.7133 37.7871 14.216C37.7871 13.7187 37.6193 13.2836 37.2712 12.9355C36.9231 12.5812 36.5004 12.4134 35.9782 12.4134C35.4872 12.4134 35.0707 12.5874 34.7164 12.9355C34.3621 13.2898 34.1942 13.7063 34.1942 14.216C34.1942 14.4522 34.2378 14.6822 34.331 14.8998C34.4242 15.1173 34.5486 15.3038 34.7102 15.4654C34.8718 15.627 35.0645 15.7576 35.2821 15.857C35.4996 15.9565 35.7296 16 35.9845 16C36.5066 16 36.9293 15.826 37.2774 15.4779H37.2712ZM50.8221 15.8446C51.8291 15.8446 52.6807 15.7078 53.352 15.4343C54.0171 15.1608 54.5579 14.8003 54.9619 14.3652C55.3598 13.9301 55.6519 13.4266 55.8197 12.8858C55.9876 12.3326 56.0746 11.7607 56.0746 11.1826C56.0746 10.878 56.0311 10.561 55.9441 10.244C55.857 9.92075 55.7265 9.60995 55.5524 9.31158C55.3784 9.01321 55.1484 8.72727 54.8749 8.4662C54.6014 8.20513 54.2719 7.98135 53.8928 7.8073L53.6441 7.6892L53.8679 7.5338C54.4895 7.09868 54.9184 6.58897 55.1422 6.01709C55.366 5.43901 55.4841 4.892 55.4841 4.39472C55.4841 3.86014 55.3598 3.32556 55.1235 2.81585C54.8811 2.30614 54.5455 1.84615 54.1228 1.46076C53.7001 1.06915 53.1904 0.752137 52.6185 0.515929C52.0466 0.27972 51.425 0.161616 50.7599 0.161616H44.5066V15.8446H50.8283H50.8221ZM47.3598 9.49184C47.3598 9.36131 47.4654 9.26185 47.5897 9.26185H50.418C50.9029 9.26185 51.3193 9.31158 51.655 9.41725C51.9969 9.52292 52.2704 9.66589 52.4693 9.83994C52.6744 10.0202 52.8174 10.2253 52.9044 10.4678C52.9852 10.6977 53.0287 10.9402 53.0287 11.1826C53.0287 11.6674 52.8174 12.0963 52.4009 12.4569C51.9845 12.8112 51.338 12.9852 50.4242 12.9852H47.596C47.4654 12.9852 47.366 12.8796 47.366 12.7552V9.49806L47.3598 9.49184ZM47.3598 3.25097C47.3598 3.12044 47.4654 3.02098 47.5897 3.02098H50.3994C51.0023 3.02098 51.4934 3.19503 51.8664 3.53069C52.2393 3.87257 52.432 4.29526 52.432 4.78011C52.432 5.26496 52.2393 5.669 51.8539 5.96737C51.4872 6.2533 50.9961 6.40249 50.3994 6.40249H47.5897C47.4592 6.40249 47.3598 6.29681 47.3598 6.17249V3.25719V3.25097ZM70.9308 15.5462C71.6706 15.2416 72.3108 14.819 72.8454 14.2906C73.3737 13.7622 73.7964 13.1158 74.0886 12.3761C74.3869 11.6364 74.5361 10.8096 74.5361 9.92075V0.161616H71.6768V9.51049C71.6768 10.0637 71.5897 10.5672 71.4157 11.021C71.2416 11.4747 71.0054 11.8601 70.7071 12.1709C70.4087 12.4817 70.0668 12.7242 69.6814 12.892C69.296 13.0598 68.892 13.1469 68.4755 13.1469C68.0591 13.1469 67.655 13.0598 67.2696 12.892C66.8842 12.7242 66.5423 12.4817 66.244 12.1709C65.9518 11.8601 65.7094 11.4747 65.5354 11.021C65.3613 10.5734 65.2743 10.0637 65.2743 9.51049V0.161616H62.4398V9.92075C62.4398 10.8096 62.589 11.6364 62.8873 12.3761C63.1795 13.1158 63.596 13.756 64.1243 14.2906C64.6465 14.819 65.2867 15.2416 66.0264 15.5462C66.7661 15.8508 67.5929 16 68.4817 16C69.3706 16 70.1974 15.8446 70.9371 15.5462H70.9308ZM85.1593 15.8446V9.69697C85.1593 9.554 85.2712 9.44211 85.4141 9.44211H90.9837V6.55789H85.4141C85.2712 6.55789 85.1593 6.446 85.1593 6.30303V3.26962C85.1593 3.12665 85.2712 3.01476 85.4141 3.01476H92.2704V0.161616H82.2999V15.8446H85.1593ZM101.818 15.8446V9.69697C101.818 9.554 101.93 9.44211 102.073 9.44211H107.643V6.55789H102.073C101.93 6.55789 101.818 6.446 101.818 6.30303V3.26962C101.818 3.12665 101.93 3.01476 102.073 3.01476H108.929V0.161616H98.9588V15.8446H101.818ZM125.532 15.8446V12.9852H118.676C118.533 12.9852 118.421 12.8733 118.421 12.7304V9.69697C118.421 9.554 118.533 9.44211 118.676 9.44211H124.246V6.55789H118.676C118.533 6.55789 118.421 6.446 118.421 6.30303V3.26962C118.421 3.12665 118.533 3.01476 118.676 3.01476H125.532V0.161616H115.562V15.8446H125.532ZM139.214 15.8446V3.27584C139.214 3.13287 139.326 3.02098 139.469 3.02098H143.602V0.161616H131.916V3.02098H136.099C136.242 3.02098 136.354 3.13287 136.354 3.27584V15.8446H139.214ZM25.9518 5.12199V3.8042H23.4903V12.4942H26.0513C26.0513 12.4942 26.0389 10.648 26.0513 10.4242C26.1197 9.49806 26.4926 8.52214 27.021 7.76379C27.6612 6.84382 28.6309 6.15385 29.756 5.99845L29.9798 5.97358V3.76068H29.7933C28.4755 3.76068 27.2261 4.21445 26.3745 5.25874C26.3186 5.32712 26.2564 5.40171 26.1756 5.43279C26.1197 5.45144 26.0824 5.45144 26.0513 5.44522C25.9456 5.40793 25.9456 5.23388 25.9456 5.12199H25.9518Z" fill="white"/>
</svg>
