<svg width="139" height="84" viewBox="0 0 139 84" fill="none" xmlns="http://www.w3.org/2000/svg">
<path d="M68.4175 22.2296L32.8541 44.2691V0.190154L68.4175 22.2296Z" fill="white"/>
<path d="M103.968 0.17688V44.2558L68.4042 22.2163L103.968 0.17688Z" fill="white"/>
<path d="M14.0125 63.4987L8.60364 70.9712C8.54348 71.0554 8.41112 71.0554 8.35095 70.9712L2.96615 63.4987C2.90599 63.4144 2.77362 63.4566 2.77362 63.5588V71.8316H0V56.6639C0 56.5676 0.0782149 56.4954 0.168463 56.4954H1.39584C1.44998 56.4954 1.50413 56.5255 1.53422 56.5676L8.38103 66.4047C8.42315 66.4648 8.5134 66.4648 8.55551 66.4047L15.4264 56.5676C15.4565 56.5195 15.5106 56.4954 15.5648 56.4954H16.7681C16.8643 56.4954 16.9365 56.5736 16.9365 56.6639V71.8316H14.193V63.5588C14.193 63.4566 14.0606 63.4144 14.0005 63.4987H14.0125ZM34.1438 71.8496C34.3544 71.9459 34.577 71.988 34.8237 71.988C35.3291 71.988 35.7382 71.8195 36.0751 71.4826C36.4121 71.1397 36.5745 70.7426 36.5745 70.2613C36.5745 69.7799 36.4121 69.3588 36.0751 69.0219C35.7382 68.6789 35.3291 68.5165 34.8237 68.5165C34.3484 68.5165 33.9453 68.6849 33.6023 69.0219C33.2594 69.3648 33.097 69.7679 33.097 70.2613C33.097 70.4899 33.1391 70.7125 33.2293 70.9231C33.3196 71.1337 33.4399 71.3142 33.5963 71.4706C33.7528 71.627 33.9393 71.7534 34.1499 71.8496H34.1438ZM51.6399 71.4345C50.9901 71.6992 50.1659 71.8316 49.1912 71.8316H43.0724V56.6518H49.125C49.7628 56.6518 50.3704 56.7662 50.924 56.9948C51.4775 57.2234 51.9708 57.5303 52.38 57.9093C52.7891 58.2823 53.114 58.7276 53.3486 59.2209C53.5833 59.7143 53.6976 60.2257 53.6976 60.7491C53.6976 61.2304 53.5893 61.7599 53.3667 62.3194C53.1501 62.873 52.7349 63.3663 52.1333 63.7875L51.9167 63.9379L52.1573 64.0522C52.5244 64.2207 52.8432 64.4372 53.108 64.6899C53.3727 64.9426 53.5953 65.2194 53.7638 65.5082C53.9322 65.797 54.0586 66.1038 54.1428 66.4107C54.227 66.7235 54.2691 67.0304 54.2691 67.3192C54.2691 67.8787 54.1849 68.4322 54.0225 68.9677C53.86 69.4972 53.5833 69.9785 53.1922 70.3996C52.8071 70.8208 52.2837 71.1698 51.6339 71.4345H51.6399ZM45.84 62.4698C45.84 62.5962 45.9423 62.6924 46.0626 62.6924H48.7821C49.3597 62.6924 49.835 62.5541 50.1899 62.2713C50.5569 61.9825 50.7495 61.5974 50.7495 61.1221C50.7495 60.6468 50.563 60.2437 50.202 59.9128C49.841 59.5879 49.3657 59.4195 48.7821 59.4195H46.0626C45.9362 59.4195 45.84 59.5217 45.84 59.6421V62.4638V62.4698ZM51.3271 67.3192C51.3271 67.0845 51.2849 66.8499 51.2067 66.6273C51.1225 66.3986 50.9841 66.1941 50.7856 66.0196C50.593 65.8511 50.3283 65.7127 49.9974 65.6105C49.6725 65.5082 49.2694 65.4601 48.8001 65.4601H46.0626C45.9362 65.4601 45.84 65.5623 45.84 65.6827V68.8353C45.84 68.9617 45.9423 69.0579 46.0626 69.0579H48.8001C49.6845 69.0579 50.3163 68.8895 50.7134 68.5465C51.1165 68.1976 51.321 67.7824 51.321 67.3132L51.3271 67.3192ZM60.4361 56.6518V66.0978C60.4361 66.9582 60.5805 67.7584 60.8693 68.4743C61.1521 69.1903 61.5552 69.81 62.0666 70.3274C62.572 70.8388 63.1917 71.248 63.9076 71.5428C64.6236 71.8376 65.4238 71.982 66.2842 71.982C67.1445 71.982 67.9447 71.8316 68.6607 71.5428C69.3767 71.248 69.9964 70.8388 70.5138 70.3274C71.0252 69.816 71.4343 69.1903 71.7171 68.4743C72.0059 67.7584 72.1503 66.9582 72.1503 66.0978V56.6518H69.3827V65.7007C69.3827 66.2362 69.2984 66.7235 69.13 67.1627C68.9615 67.6019 68.7329 67.975 68.4441 68.2758C68.1553 68.5766 67.8244 68.8113 67.4514 68.9737C67.0783 69.1362 66.6873 69.2204 66.2842 69.2204C65.8811 69.2204 65.49 69.1362 65.117 68.9737C64.7439 68.8113 64.413 68.5766 64.1242 68.2758C63.8415 67.975 63.6068 67.6019 63.4383 67.1627C63.2699 66.7296 63.1856 66.2362 63.1856 65.7007V56.6518H60.4421H60.4361ZM82.4265 65.8872C82.4265 65.7489 82.5348 65.6406 82.6732 65.6406H88.064V62.8489H82.6732C82.5348 62.8489 82.4265 62.7406 82.4265 62.6022V59.6661C82.4265 59.5278 82.5348 59.4195 82.6732 59.4195H89.3094V56.6518H79.6589V71.8316H82.4265V65.8812V65.8872ZM98.7975 59.4195H105.434V56.6518H95.7832V71.8316H98.5508V65.8812C98.5508 65.7428 98.6591 65.6345 98.7975 65.6345H104.188V62.8429H98.7975C98.6591 62.8429 98.5508 62.7346 98.5508 62.5962V59.6601C98.5508 59.5217 98.6591 59.4134 98.7975 59.4134V59.4195ZM121.504 69.064H114.868C114.729 69.064 114.621 68.9557 114.621 68.8173V65.8812C114.621 65.7428 114.729 65.6345 114.868 65.6345H120.259V62.8429H114.868C114.729 62.8429 114.621 62.7346 114.621 62.5962V59.6601C114.621 59.5217 114.729 59.4134 114.868 59.4134H121.504V56.6458H111.853V71.8256H121.504V69.0579V69.064ZM127.689 56.6518V59.4195H131.738C131.876 59.4195 131.985 59.5278 131.985 59.6661V71.8316H134.752V59.6661C134.752 59.5278 134.861 59.4195 134.999 59.4195H139V56.6518H127.689ZM26.1599 64.0161C26.7796 63.1256 27.7182 62.4578 28.8072 62.3074L29.0238 62.2833V60.1414H28.8433C27.5678 60.1414 26.3584 60.5806 25.5342 61.5914C25.48 61.6576 25.4199 61.7298 25.3416 61.7599C25.2875 61.7779 25.2514 61.7779 25.2213 61.7719C25.119 61.7358 25.119 61.5674 25.119 61.4591V60.1836H22.7365V68.5947H25.2153C25.2153 68.5947 25.2033 66.8078 25.2153 66.5912C25.2815 65.6947 25.6425 64.7501 26.1539 64.0161H26.1599ZM41.9232 79.1537C41.0929 79.0213 40.2145 78.9491 39.288 78.9431H37.3867V79.9238H39.288C39.7873 79.9238 40.2386 79.9479 40.6297 79.978C41.0268 80.008 41.4539 80.0562 41.9172 80.1224V79.1537H41.9232ZM37.5733 80.7421V81.7228H39.0473C39.5467 81.7228 39.9979 81.7408 40.389 81.7709C40.7861 81.807 41.2133 81.8551 41.6765 81.9213V80.9526C40.8463 80.8143 39.9678 80.7421 39.0413 80.7421H37.5672H37.5733ZM37.2424 83.6119H39.4324C39.9257 83.6119 40.371 83.63 40.768 83.6601C41.1651 83.6962 41.5923 83.7443 42.0556 83.8105V82.8418C41.2313 82.7095 40.3529 82.6373 39.4264 82.6312H37.2363V83.6119H37.2424ZM46.5138 82.1138C46.1528 82.3786 45.7497 82.6072 45.2985 82.7877V83.9067C45.2985 83.9067 45.3887 83.8767 45.5632 83.8105C45.7317 83.7443 45.9603 83.642 46.2371 83.5036C46.5138 83.3592 46.8207 83.1727 47.1456 82.9441C47.4765 82.7155 47.7954 82.4387 48.1082 82.1319C48.3489 82.3966 48.6016 82.6373 48.8603 82.8539C49.119 83.0704 49.3597 83.257 49.5883 83.4134C49.8169 83.5698 50.0696 83.7263 50.3464 83.8887V82.6974C50.3464 82.6974 50.2561 82.6373 50.0877 82.523C49.9192 82.4147 49.7206 82.2582 49.492 82.0537C49.2634 81.8491 49.0287 81.6265 48.8001 81.3798C49.0709 81.0489 49.3175 80.6759 49.5401 80.2607C49.7628 79.8456 49.9312 79.4004 50.0395 78.919H45.5813V79.9238H48.385C48.1202 80.4472 47.8315 80.8804 47.5186 81.2174C47.2057 81.5543 46.8688 81.8551 46.5078 82.1259L46.5138 82.1138ZM58.204 81.5784C58.4386 81.1572 58.589 80.6638 58.6492 80.0923V79.1356H56.0019C56.0019 79.1356 56.02 79.0755 56.05 78.9792C56.0741 78.883 56.1042 78.7746 56.1283 78.6483H54.9129C54.8347 78.9852 54.7264 79.274 54.594 79.5207C54.4557 79.7614 54.3173 79.9659 54.1669 80.1284C54.0165 80.2908 53.8901 80.4111 53.7818 80.4894C53.6735 80.5676 53.6133 80.6037 53.6073 80.6037V81.807C53.6073 81.807 53.7156 81.7588 53.9082 81.6445C54.1007 81.5302 54.3474 81.3618 54.6422 81.1271C54.943 80.8985 55.2498 80.5435 55.5747 80.0622H57.3977C57.3797 80.2908 57.3316 80.5255 57.2534 80.7661H55.3521V81.6987H56.7841C56.5374 81.9634 56.2666 82.174 55.9718 82.3364C55.677 82.4989 55.3942 82.6312 55.1235 82.7215C54.8528 82.8117 54.6301 82.8779 54.4557 82.914C54.2812 82.9501 54.1909 82.9682 54.1849 82.9682V83.979C54.1849 83.979 54.2932 83.9669 54.4857 83.9308C54.6843 83.8947 54.937 83.8285 55.2559 83.7323C55.5687 83.636 55.9117 83.4976 56.2726 83.3171C56.6336 83.1366 56.9886 82.902 57.3436 82.6252C57.6926 82.3425 57.9874 81.9935 58.222 81.5723L58.204 81.5784ZM65.6945 80.7421H62.1147V81.7228H65.6945V80.7421ZM74.5328 78.4257H73.859V79.1778H74.5328V78.4257ZM72.5955 83.7142C72.9806 83.6962 73.4077 83.6661 73.877 83.624V82.6252C73.3957 82.6854 72.9806 82.7275 72.6196 82.7516C72.2586 82.7756 71.8555 82.7817 71.4042 82.7756C71.0854 82.7636 70.8627 82.7095 70.7484 82.6192C70.6341 82.5229 70.5679 82.3966 70.5559 82.2402V80.6217H73.871V79.641H70.5559V78.8168H69.3706V82.3364C69.4007 82.8178 69.5872 83.1607 69.9362 83.3773C70.2852 83.5939 70.7424 83.7142 71.308 83.7323C71.7773 83.7383 72.2044 83.7323 72.5955 83.7142ZM72.8001 78.4257V79.1778H73.4739V78.4257H72.8001ZM77.2704 82.8178V83.6721H81.7346V82.8178H80.9224L81.1691 79.7854H77.499V80.6157H80.0079L79.8394 82.8117H77.2764L77.2704 82.8178ZM85.5491 83.8466C86.1568 83.7744 86.6742 83.618 87.1014 83.3893C87.5286 83.1607 87.8835 82.89 88.1783 82.5711C88.4731 82.2522 88.6958 81.9273 88.8522 81.5844C89.0086 81.2474 89.1229 80.9286 89.1951 80.6338C89.2673 80.3389 89.3215 80.008 89.3576 79.635H88.3167C88.3167 79.635 88.3107 79.7493 88.2806 79.9479C88.2505 80.1524 88.1904 80.4051 88.0941 80.706C88.0039 81.0128 87.8655 81.3196 87.685 81.6445C87.5045 81.9634 87.2398 82.2462 86.8848 82.4868C86.5298 82.7275 86.0846 82.8839 85.5431 82.9622V83.8346L85.5491 83.8466ZM91.9928 79.9298H95.5486C95.5245 80.4653 95.4162 80.8985 95.2237 81.2474C95.0312 81.5904 94.7845 81.8671 94.4837 82.0717C94.1828 82.2763 93.876 82.4267 93.5752 82.5169C93.2683 82.6132 92.9134 82.6854 92.4982 82.7335V83.7323C92.4982 83.7323 92.6065 83.7323 92.8051 83.7022C93.0036 83.6721 93.2623 83.63 93.5752 83.5458C93.888 83.4615 94.225 83.3472 94.5739 83.1848C94.9229 83.0283 95.2598 82.8057 95.5727 82.5169C95.8855 82.2281 96.1563 81.8671 96.3849 81.4279C96.6135 80.9887 96.7338 80.4593 96.7399 79.8456V78.9251H91.9868V79.9238L91.9928 79.9298ZM104.134 82.8418H102.516V80.6157H103.996V79.7854H99.9226V80.6157H101.439V82.8418H99.7963V83.6721H104.134V82.8418ZM85.2724 79.6831H84.3939V81.6084H85.2724V79.6831ZM87.0412 79.6831H86.1628V81.6084H87.0412V79.6831Z" fill="white"/>
</svg>
