<svg width="24" height="18" viewBox="0 0 24 18" fill="none" xmlns="http://www.w3.org/2000/svg">
<path fill-rule="evenodd" clip-rule="evenodd" d="M11.9956 3.71591C12.7567 3.71591 13.374 3.09871 13.374 2.33788C13.374 1.57668 12.7567 0.959473 11.9956 0.959473C11.2344 0.959473 10.6172 1.57668 10.6172 2.33788C10.6172 3.09871 11.2344 3.71591 11.9956 3.71591ZM5.31641 12.9077H7.44537C7.44537 9.47044 10.0592 7.57617 10.0592 7.57617C7.38969 7.88789 5.31641 10.154 5.31641 12.9077ZM22.2257 14.1553H22.5573C23.3529 14.1553 24 14.8025 24 15.598C24 16.3936 23.3529 17.0407 22.5573 17.0407H1.443C0.647438 17.0407 0 16.3936 0 15.598C0 14.8025 0.647438 14.1553 1.443 14.1554H1.77459L1.78322 14.0234C2.12517 8.65135 6.61298 4.44291 12.0002 4.44249C17.3877 4.44286 21.8755 8.6513 22.2171 14.0233L22.2257 14.1553ZM2.91628 13.9681L2.90456 14.1199H21.0954L21.0837 13.9681C20.9164 11.8081 19.9792 9.77335 18.4451 8.23791C16.7227 6.51685 14.434 5.56871 12.0002 5.56838C9.56639 5.56871 7.2773 6.51685 5.55558 8.23791C4.02112 9.77302 3.08395 11.8078 2.91628 13.9681Z" fill="#2b2b2b"/>
</svg>
