<svg width="30" height="30" viewBox="0 0 30 30" fill="none" xmlns="http://www.w3.org/2000/svg">
<path d="M2.10445 4.73337H25.7709C27.9144 4.73337 29.4622 6.70894 28.8742 8.69695L26.3013 17.4081C25.9047 18.7459 24.6384 19.6668 23.198 19.6668H8.95207C7.51006 19.6668 6.24227 18.7444 5.84715 17.4081L2.10445 4.73337ZM2.10445 4.73337L1 1M22.0002 29.0002C22.619 29.0002 23.2125 28.7544 23.6501 28.3168C24.0877 27.8792 24.3335 27.2857 24.3335 26.6669C24.3335 26.048 24.0877 25.4545 23.6501 25.017C23.2125 24.5794 22.619 24.3335 22.0002 24.3335C21.3813 24.3335 20.7878 24.5794 20.3502 25.017C19.9127 25.4545 19.6668 26.048 19.6668 26.6669C19.6668 27.2857 19.9127 27.8792 20.3502 28.3168C20.7878 28.7544 21.3813 29.0002 22.0002 29.0002ZM9.55563 29.0002C10.1745 29.0002 10.768 28.7544 11.2056 28.3168C11.6431 27.8792 11.889 27.2857 11.889 26.6669C11.889 26.048 11.6431 25.4545 11.2056 25.017C10.768 24.5794 10.1745 24.3335 9.55563 24.3335C8.93678 24.3335 8.34329 24.5794 7.9057 25.017C7.46811 25.4545 7.22227 26.048 7.22227 26.6669C7.22227 27.2857 7.46811 27.8792 7.9057 28.3168C8.34329 28.7544 8.93678 29.0002 9.55563 29.0002Z" stroke="#CC2200" stroke-width="1.86668" stroke-linecap="round" stroke-linejoin="round"/>
</svg>
