<svg xmlns="http://www.w3.org/2000/svg" width="393.31" height="508.578" viewBox="0 0 393.31 508.578">
  <g id="icon-drink" transform="translate(-59.345 -3.422)">
    <path id="パス_1" data-name="パス 1" d="M452.655,104.373H322l16.482-44.012,75.058-24.476c7.322-1.85-4.123-34.237-11.521-32.387l-94.2,32.387L286.25,104.373H59.345L98.421,492.906h.023c0,.012-.016.023-.016.037C98.428,503.467,168.971,512,255.99,512s157.562-8.533,157.562-19.057c0-.014-.016-.025-.016-.037h.041ZM374.41,459.064h0c.076.23,0,4.336,0,4.568,0,10.558-54.834,14.285-118.42,14.285s-110.118-3.727-110.118-14.285c0-.232-.074.23,0,0L106.04,142.269H273.168s-68.753,262.565-73.14,286.466c-16.482-3.3,26.371,5.769,35.436,7.417,81.586-310.688-3.749,18.106,79.485-293.883h92.671Z" fill="#fff"/>
  </g>
</svg>
