<svg width="19" height="23" viewBox="0 0 19 23" fill="none" xmlns="http://www.w3.org/2000/svg">
<path fill-rule="evenodd" clip-rule="evenodd" d="M13.7734 9.91016C13.7734 10.971 13.352 11.9884 12.6019 12.7386C11.8517 13.4887 10.8343 13.9102 9.77344 13.9102C8.71257 13.9102 7.69516 13.4887 6.94501 12.7386C6.19486 11.9884 5.77344 10.971 5.77344 9.91016C5.77344 8.84929 6.19486 7.83187 6.94501 7.08173C7.69516 6.33158 8.71257 5.91016 9.77344 5.91016C10.8343 5.91016 11.8517 6.33158 12.6019 7.08173C13.352 7.83187 13.7734 8.84929 13.7734 9.91016ZM11.7734 9.91016C11.7734 10.4406 11.5627 10.9493 11.1877 11.3244C10.8126 11.6994 10.3039 11.9102 9.77344 11.9102C9.243 11.9102 8.7343 11.6994 8.35922 11.3244C7.98415 10.9493 7.77344 10.4406 7.77344 9.91016C7.77344 9.37972 7.98415 8.87102 8.35922 8.49594C8.7343 8.12087 9.243 7.91016 9.77344 7.91016C10.3039 7.91016 10.8126 8.12087 11.1877 8.49594C11.5627 8.87102 11.7734 9.37972 11.7734 9.91016Z" fill="#AD806D"/>
<path fill-rule="evenodd" clip-rule="evenodd" d="M3.294 16.1568C2.00484 14.9293 1.10861 13.3472 0.718639 11.6104C0.32867 9.87359 0.462479 8.06016 1.10315 6.39941C1.74381 4.73867 2.86256 3.3052 4.31792 2.28027C5.77328 1.25535 7.49988 0.685012 9.27938 0.641377C11.0589 0.597743 12.8114 1.08277 14.3152 2.03513C15.8191 2.9875 17.0067 4.36441 17.728 5.99176C18.4493 7.61911 18.6718 9.42381 18.3675 11.1776C18.0631 12.9315 17.2455 14.5556 16.018 15.8448L9.81201 22.3628L3.294 16.1568ZM14.57 14.4658L9.743 19.5358L4.673 14.7088C3.67037 13.7541 2.97334 12.5236 2.67005 11.1727C2.36676 9.82193 2.47084 8.41152 2.96912 7.11986C3.4674 5.8282 4.3375 4.71329 5.46941 3.91613C6.60131 3.11897 7.94418 2.67535 9.3282 2.64137C10.7122 2.60738 12.0752 2.98457 13.2449 3.72522C14.4146 4.46587 15.3383 5.53673 15.8994 6.80238C16.4605 8.06804 16.6336 9.47164 16.397 10.8357C16.1604 12.1998 15.5246 13.463 14.57 14.4658Z" fill="#AD806D"/>
</svg>
