<svg width="20" height="20" viewBox="0 0 20 20" fill="none" xmlns="http://www.w3.org/2000/svg">
<rect x="0.5" y="0.5" width="19" height="19" rx="9.5" transform="matrix(0 1 1 0 0 0)" fill="white"/>
<rect x="0.5" y="0.5" width="19" height="19" rx="9.5" transform="matrix(0 1 1 0 0 0)" stroke="#CC2200FF"/>
<path d="M9.84065 11.9445L7.06608 9.63454C6.97797 9.56058 6.97797 9.44099 7.06608 9.36703L7.43728 9.05547C7.52539 8.98151 7.66786 8.98151 7.75598 9.05547L10 10.9201L12.244 9.05547C12.3321 8.98151 12.4746 8.98151 12.5627 9.05547L12.9339 9.36703C13.022 9.44099 13.022 9.56058 12.9339 9.63454L10.1594 11.9445C10.0712 12.0185 9.92876 12.0185 9.84065 11.9445Z" fill="#CC2200FF"/>
</svg>
