<svg width="87" height="28" viewBox="0 0 87 28" fill="none" xmlns="http://www.w3.org/2000/svg">
<path d="M71.9932 27.4701C71.1532 27.4701 70.6032 27.2701 70.3432 26.8701C70.0632 26.4701 69.9332 26.0501 69.9532 25.6101C70.0132 24.8701 70.2732 24.1701 70.7332 23.5101C71.1732 22.8501 71.7432 22.2301 72.4432 21.6501C73.1432 21.0701 73.8932 20.5401 74.6932 20.0601C75.4932 19.5801 76.2632 19.1401 77.0032 18.7401C77.7632 18.3601 78.4232 18.0301 78.9832 17.7501C79.5432 17.4701 79.9332 17.2501 80.1532 17.0901C80.4532 16.2101 80.6732 15.3701 80.8132 14.5701C80.9532 13.7501 81.0032 13.0301 80.9632 12.4101C80.7632 12.8101 80.4632 13.3301 80.0632 13.9701C79.6832 14.6101 79.2432 15.2001 78.7432 15.7401C78.3432 16.1801 77.9232 16.5501 77.4832 16.8501C77.0432 17.1301 76.5932 17.2701 76.1332 17.2701C75.5132 17.2701 75.0832 17.0501 74.8432 16.6101C74.6032 16.1501 74.4832 15.6401 74.4832 15.0801C74.4832 14.9001 74.4932 14.7201 74.5132 14.5401C74.5332 14.3601 74.5632 14.1901 74.6032 14.0301C74.7632 13.3901 75.0032 12.7601 75.3232 12.1401C75.6432 11.5001 75.9732 10.9301 76.3132 10.4301C76.6732 9.91011 76.9732 9.52011 77.2132 9.26011C77.7932 8.56011 78.4732 7.99011 79.2532 7.55011C80.0532 7.09011 80.8632 6.86011 81.6832 6.86011C82.5232 6.86011 83.3132 7.14011 84.0532 7.70011C84.3532 7.94011 84.5032 8.19011 84.5032 8.45011C84.5032 8.75011 84.3832 8.90011 84.1432 8.90011C83.9432 8.90011 83.8032 8.78011 83.7232 8.54011C83.4632 7.80011 83.0332 7.43011 82.4332 7.43011C81.8532 7.43011 81.2532 7.64011 80.6332 8.06011C80.0332 8.46011 79.4532 8.99011 78.8932 9.65011C78.3332 10.3101 77.8232 11.0101 77.3632 11.7501C76.9232 12.4901 76.5732 13.2001 76.3132 13.8801C76.0532 14.5601 75.9232 15.1201 75.9232 15.5601C75.9232 16.1001 76.1332 16.3701 76.5532 16.3701C76.9332 16.3701 77.3432 16.1801 77.7832 15.8001C78.2432 15.4201 78.6832 14.9501 79.1032 14.3901C79.5232 13.8101 79.8932 13.2401 80.2132 12.6801C80.5332 12.1201 80.7432 11.6601 80.8432 11.3001C80.9832 10.8601 81.1532 10.5701 81.3532 10.4301C81.5532 10.2901 81.7632 10.2201 81.9832 10.2201C82.0632 10.2201 82.1332 10.2301 82.1932 10.2501C82.2732 10.2501 82.3532 10.2601 82.4332 10.2801C82.4532 10.3801 82.4632 10.5301 82.4632 10.7301C82.4832 10.9301 82.4932 11.1701 82.4932 11.4501C82.4932 12.0301 82.4532 12.7401 82.3732 13.5801C82.3132 14.4201 82.1932 15.2501 82.0132 16.0701L82.3432 15.8301C82.8632 15.4501 83.3732 15.0601 83.8732 14.6601C84.3732 14.2601 84.7432 13.9201 84.9832 13.6401C85.2032 13.4201 85.4032 13.2101 85.5832 13.0101C85.7632 12.8101 85.9332 12.6001 86.0932 12.3801C86.1332 12.3201 86.1832 12.2901 86.2432 12.2901C86.3632 12.2901 86.4232 12.3701 86.4232 12.5301C86.4232 12.6301 86.3732 12.7301 86.2732 12.8301C85.8532 13.3501 85.4132 13.8801 84.9532 14.4201C84.8332 14.5601 84.5332 14.8401 84.0532 15.2601C83.5932 15.6601 83.1032 16.0401 82.5832 16.4001C82.3232 16.6001 82.0632 16.7701 81.8032 16.9101C81.4232 18.2301 80.8932 19.5101 80.2132 20.7501C79.5532 22.0101 78.7832 23.1401 77.9032 24.1401C77.0232 25.1601 76.0832 25.9701 75.0832 26.5701C74.0832 27.1701 73.0532 27.4701 71.9932 27.4701ZM71.8432 26.8401C72.6232 26.8401 73.4232 26.5501 74.2432 25.9701C75.0632 25.3901 75.8532 24.6401 76.6132 23.7201C77.3732 22.8201 78.0432 21.8501 78.6232 20.8101C79.2032 19.7901 79.6332 18.8301 79.9132 17.9301C79.5732 18.1501 79.0432 18.4301 78.3232 18.7701C77.6232 19.1301 76.8432 19.5501 75.9832 20.0301C75.1232 20.5101 74.3032 21.0401 73.5232 21.6201C72.7232 22.2001 72.0532 22.8301 71.5132 23.5101C70.9732 24.2101 70.6832 24.9401 70.6432 25.7001C70.6232 25.9601 70.7032 26.2101 70.8832 26.4501C71.0632 26.7101 71.3832 26.8401 71.8432 26.8401Z" fill="white"/>
<path d="M60.5943 17.18C61.4543 15.58 62.1643 14.04 62.7243 12.56C63.3043 11.06 63.9643 9.54998 64.7043 8.02998C64.9243 7.62998 65.2043 7.35998 65.5443 7.21998C65.8843 7.05998 66.2143 6.97998 66.5343 6.97998C66.7943 6.97998 67.0243 7.00998 67.2243 7.06998C67.1643 7.20998 67.0043 7.48998 66.7443 7.90998C66.5043 8.30998 66.2443 8.76998 65.9643 9.28998C65.7643 9.64998 65.4643 10.21 65.0643 10.97C64.6643 11.71 64.2943 12.48 63.9543 13.28C64.1343 13.06 64.4143 12.7 64.7943 12.2C65.1743 11.7 65.6143 11.16 66.1143 10.58C66.6143 9.97998 67.1343 9.40998 67.6743 8.86998C68.2343 8.30998 68.7743 7.85998 69.2943 7.51998C69.8343 7.15998 70.3143 6.97998 70.7343 6.97998C71.0543 6.97998 71.3343 7.07998 71.5743 7.27998C71.8143 7.47998 71.9343 7.74998 71.9343 8.08998C71.9343 8.58998 71.7243 9.17998 71.3043 9.85998C70.8843 10.52 70.4643 11.17 70.0443 11.81C69.9643 11.93 69.8143 12.16 69.5943 12.5C69.3943 12.84 69.1743 13.23 68.9343 13.67C68.6943 14.09 68.4843 14.5 68.3043 14.9C68.1443 15.28 68.0643 15.58 68.0643 15.8C68.0643 16.02 68.1543 16.13 68.3343 16.13C68.7143 16.13 69.1043 15.98 69.5043 15.68C69.9243 15.38 70.3243 15.04 70.7043 14.66C71.0843 14.26 71.3843 13.93 71.6043 13.67C71.8243 13.43 72.0243 13.2 72.2043 12.98C72.3843 12.76 72.5643 12.55 72.7443 12.35C72.8043 12.29 72.8543 12.26 72.8943 12.26C73.0143 12.26 73.0743 12.35 73.0743 12.53C73.0743 12.65 73.0343 12.75 72.9543 12.83C72.7343 13.09 72.5143 13.36 72.2943 13.64C72.0743 13.9 71.8443 14.16 71.6043 14.42C71.3843 14.68 71.1543 14.94 70.9143 15.2C70.6943 15.44 70.4643 15.67 70.2243 15.89C69.3643 16.69 68.5643 17.09 67.8243 17.09C67.3243 17.09 66.9843 16.94 66.8043 16.64C66.6443 16.34 66.5643 15.97 66.5643 15.53C66.5643 15.05 66.6943 14.53 66.9543 13.97C67.2143 13.41 67.5343 12.84 67.9143 12.26C68.2943 11.66 68.6743 11.08 69.0543 10.52C69.4543 9.95998 69.7843 9.44998 70.0443 8.98998C70.3043 8.50998 70.4343 8.10998 70.4343 7.78998C70.4343 7.66998 70.3643 7.60998 70.2243 7.60998C70.1043 7.60998 69.8643 7.75998 69.5043 8.05998C69.1643 8.33998 68.7943 8.67998 68.3943 9.07998C67.9943 9.45998 67.6143 9.82998 67.2543 10.19C66.9143 10.55 66.6843 10.81 66.5643 10.97C66.0643 11.51 65.5743 12.09 65.0943 12.71C64.6343 13.33 64.1943 13.93 63.7743 14.51C63.5343 14.85 63.3243 15.2 63.1443 15.56C62.9643 15.9 62.7643 16.26 62.5443 16.64C62.4443 16.82 62.3043 16.93 62.1243 16.97C61.9643 16.99 61.7443 17.01 61.4643 17.03C61.2643 17.03 61.1043 17.03 60.9843 17.03C60.8643 17.05 60.7343 17.1 60.5943 17.18Z" fill="white"/>
<path d="M59.3306 5.15007C59.1106 5.15007 58.9306 5.08007 58.7906 4.94007C58.6506 4.78007 58.5806 4.60007 58.5806 4.40007C58.5806 4.10007 58.6806 3.85007 58.8806 3.65007C59.1006 3.43007 59.3406 3.32007 59.6006 3.32007C59.8606 3.32007 60.0606 3.41007 60.2006 3.59007C60.3606 3.75007 60.4206 3.96007 60.3806 4.22007C60.3206 4.48007 60.1906 4.70007 59.9906 4.88007C59.8106 5.06007 59.5906 5.15007 59.3306 5.15007ZM55.2206 17.0001C54.7806 17.0001 54.4006 16.8601 54.0806 16.5801C53.7606 16.2801 53.6006 15.7801 53.6006 15.0801C53.6006 14.7801 53.6306 14.4501 53.6906 14.0901C53.8706 13.1501 54.1606 12.2501 54.5606 11.3901C54.9806 10.5301 55.3806 9.79007 55.7606 9.17007C56.1606 8.53007 56.4206 8.11007 56.5406 7.91007C56.6406 7.71007 56.9006 7.52007 57.3206 7.34007C57.7406 7.14007 58.0906 7.04007 58.3706 7.04007C58.6106 7.04007 58.7306 7.12007 58.7306 7.28007C58.7306 7.42007 58.6806 7.55007 58.5806 7.67007C58.2806 8.15007 57.9306 8.70007 57.5306 9.32007C57.1506 9.92007 56.7806 10.5601 56.4206 11.2401C56.0606 11.9201 55.7606 12.5901 55.5206 13.2501C55.2806 13.9101 55.1606 14.5201 55.1606 15.0801C55.1606 15.3801 55.2106 15.6201 55.3106 15.8001C55.4306 15.9801 55.6406 16.0701 55.9406 16.0701C56.2606 16.0701 56.6306 15.9201 57.0506 15.6201C57.4706 15.3001 57.8706 14.9501 58.2506 14.5701C58.6506 14.1701 58.9406 13.8601 59.1206 13.6401C59.3206 13.4201 59.5106 13.2101 59.6906 13.0101C59.8906 12.8101 60.0706 12.6001 60.2306 12.3801C60.2906 12.3201 60.3406 12.2901 60.3806 12.2901C60.5006 12.2901 60.5606 12.3801 60.5606 12.5601C60.5606 12.6601 60.5206 12.7501 60.4406 12.8301C60.2206 13.0901 60.0006 13.3601 59.7806 13.6401C59.5606 13.9001 59.3306 14.1601 59.0906 14.4201C58.7706 14.8001 58.4106 15.1901 58.0106 15.5901C57.6106 15.9901 57.1806 16.3301 56.7206 16.6101C56.2606 16.8701 55.7606 17.0001 55.2206 17.0001Z" fill="white"/>
<path d="M47.4511 17.2099C46.8311 17.2099 46.3311 16.9999 45.9511 16.5799C45.5711 16.1599 45.2811 15.6799 45.0811 15.1399C44.9011 14.5799 44.8011 14.1199 44.7811 13.7599H44.7211C44.4411 13.7599 44.3011 13.6999 44.3011 13.5799C44.3011 13.5199 44.3411 13.4599 44.4211 13.3999C44.5211 13.3199 44.6111 13.2699 44.6911 13.2499C44.7111 13.2499 44.7311 13.2499 44.7511 13.2499C44.7711 13.2299 44.7911 13.2199 44.8111 13.2199C44.8711 12.8799 44.9411 12.7599 45.0211 12.8599L45.1411 13.1299C45.7411 12.9099 46.3011 12.5799 46.8211 12.1399C47.3411 11.6999 47.7911 11.2399 48.1711 10.7599C48.5511 10.2599 48.8211 9.85992 48.9811 9.55992C49.1611 9.21992 49.3011 8.89992 49.4011 8.59992C49.5211 8.27992 49.5811 8.03992 49.5811 7.87992C49.5811 7.61992 49.4611 7.54992 49.2211 7.66992C48.9411 7.76992 48.5811 7.99992 48.1411 8.35992C47.7011 8.69992 47.2511 9.09992 46.7911 9.55992C46.3511 9.99992 45.9711 10.4099 45.6511 10.7899C45.3111 11.2099 44.9111 11.7199 44.4511 12.3199C44.0111 12.9199 43.5811 13.5299 43.1611 14.1499C42.7411 14.7699 42.3811 15.3299 42.0811 15.8299C42.0211 15.9499 41.9611 16.0999 41.9011 16.2799C41.7811 16.5999 41.6111 16.8099 41.3911 16.9099C41.1711 16.9899 40.9211 17.0299 40.6411 17.0299C40.3611 17.0299 40.0811 17.0699 39.8011 17.1499C40.8211 14.6499 41.8811 12.2899 42.9811 10.0699C44.1011 7.84992 45.2111 5.85992 46.3111 4.09992C46.9511 3.05992 47.5711 2.26992 48.1711 1.72992C48.7711 1.16992 49.3111 0.779924 49.7911 0.559923C50.2911 0.339924 50.6911 0.209923 50.9911 0.169922C49.6711 1.74992 48.3611 3.61992 47.0611 5.77992C45.7811 7.91992 44.5411 10.2999 43.3411 12.9199C43.6411 12.4999 44.0211 11.9699 44.4811 11.3299C44.9411 10.6899 45.4411 10.0499 45.9811 9.40992C46.5211 8.74992 47.0711 8.18992 47.6311 7.72992C48.2111 7.24992 48.7711 6.95992 49.3111 6.85992C49.4311 6.81992 49.5511 6.79992 49.6711 6.79992C49.7911 6.79992 49.9011 6.79992 50.0011 6.79992C50.5011 6.79992 50.8511 6.92992 51.0511 7.18992C51.2711 7.42992 51.3811 7.72992 51.3811 8.08992C51.3811 8.70992 51.1511 9.34992 50.6911 10.0099C50.3911 10.4299 49.9711 10.8899 49.4311 11.3899C48.8911 11.8899 48.2811 12.3499 47.6011 12.7699C46.9211 13.1699 46.2011 13.4599 45.4411 13.6399C45.6211 13.9199 45.8111 14.1999 46.0111 14.4799C46.2311 14.7399 46.4211 14.9599 46.5811 15.1399C46.7611 15.3399 46.9611 15.5199 47.1811 15.6799C47.4211 15.8199 47.6511 15.8899 47.8711 15.8899C48.2511 15.8899 48.5611 15.7199 48.8011 15.3799C49.0611 15.0399 49.2611 14.7099 49.4011 14.3899C49.6211 14.3899 49.7311 14.5399 49.7311 14.8399C49.7311 15.5799 49.4811 16.1599 48.9811 16.5799C48.4811 16.9999 47.9711 17.2099 47.4511 17.2099Z" fill="white"/>
<path d="M27.2322 17.18C28.0922 15.58 28.8022 14.04 29.3622 12.56C29.9422 11.06 30.6022 9.54998 31.3422 8.02998C31.5622 7.62998 31.8422 7.35998 32.1822 7.21998C32.5222 7.05998 32.8522 6.97998 33.1722 6.97998C33.4322 6.97998 33.6622 7.00998 33.8622 7.06998C33.8022 7.20998 33.6422 7.48998 33.3822 7.90998C33.1422 8.30998 32.8822 8.76998 32.6022 9.28998C32.4022 9.64998 32.1022 10.21 31.7022 10.97C31.3022 11.71 30.9322 12.48 30.5922 13.28C30.7722 13.06 31.0522 12.7 31.4322 12.2C31.8122 11.7 32.2522 11.16 32.7522 10.58C33.2522 9.97998 33.7722 9.40998 34.3122 8.86998C34.8722 8.30998 35.4122 7.85998 35.9322 7.51998C36.4722 7.15998 36.9522 6.97998 37.3722 6.97998C37.6922 6.97998 37.9722 7.07998 38.2122 7.27998C38.4522 7.47998 38.5722 7.74998 38.5722 8.08998C38.5722 8.58998 38.3622 9.17998 37.9422 9.85998C37.5222 10.52 37.1022 11.17 36.6822 11.81C36.6022 11.93 36.4522 12.16 36.2322 12.5C36.0322 12.84 35.8122 13.23 35.5722 13.67C35.3322 14.09 35.1222 14.5 34.9422 14.9C34.7822 15.28 34.7022 15.58 34.7022 15.8C34.7022 16.02 34.7922 16.13 34.9722 16.13C35.3522 16.13 35.7422 15.98 36.1422 15.68C36.5622 15.38 36.9622 15.04 37.3422 14.66C37.7222 14.26 38.0222 13.93 38.2422 13.67C38.4622 13.43 38.6622 13.2 38.8422 12.98C39.0222 12.76 39.2022 12.55 39.3822 12.35C39.4422 12.29 39.4922 12.26 39.5322 12.26C39.6522 12.26 39.7122 12.35 39.7122 12.53C39.7122 12.65 39.6722 12.75 39.5922 12.83C39.3722 13.09 39.1522 13.36 38.9322 13.64C38.7122 13.9 38.4822 14.16 38.2422 14.42C38.0222 14.68 37.7922 14.94 37.5522 15.2C37.3322 15.44 37.1022 15.67 36.8622 15.89C36.0022 16.69 35.2022 17.09 34.4622 17.09C33.9622 17.09 33.6222 16.94 33.4422 16.64C33.2822 16.34 33.2022 15.97 33.2022 15.53C33.2022 15.05 33.3322 14.53 33.5922 13.97C33.8522 13.41 34.1722 12.84 34.5522 12.26C34.9322 11.66 35.3122 11.08 35.6922 10.52C36.0922 9.95998 36.4222 9.44998 36.6822 8.98998C36.9422 8.50998 37.0722 8.10998 37.0722 7.78998C37.0722 7.66998 37.0022 7.60998 36.8622 7.60998C36.7422 7.60998 36.5022 7.75998 36.1422 8.05998C35.8022 8.33998 35.4322 8.67998 35.0322 9.07998C34.6322 9.45998 34.2522 9.82998 33.8922 10.19C33.5522 10.55 33.3222 10.81 33.2022 10.97C32.7022 11.51 32.2122 12.09 31.7322 12.71C31.2722 13.33 30.8322 13.93 30.4122 14.51C30.1722 14.85 29.9622 15.2 29.7822 15.56C29.6022 15.9 29.4022 16.26 29.1822 16.64C29.0822 16.82 28.9422 16.93 28.7622 16.97C28.6022 16.99 28.3822 17.01 28.1022 17.03C27.9022 17.03 27.7422 17.03 27.6222 17.03C27.5022 17.05 27.3722 17.1 27.2322 17.18Z" fill="white"/>
<path d="M16.6659 17.1201C16.0059 17.1201 15.5459 16.9601 15.2859 16.6401C15.0259 16.3201 14.8959 15.9301 14.8959 15.4701C14.8959 14.8701 15.0359 14.2301 15.3159 13.5501C15.6159 12.8701 15.8759 12.3401 16.0959 11.9601C16.6359 11.1001 17.2759 10.2801 18.0159 9.50011C18.7559 8.72011 19.5359 8.09011 20.3559 7.61011C21.1959 7.11011 21.9959 6.86011 22.7559 6.86011C23.1559 6.86011 23.5459 6.93011 23.9259 7.07011C24.3059 7.19011 24.6759 7.40011 25.0359 7.70011C25.2159 7.84011 25.3359 7.98011 25.3959 8.12011C25.4759 8.24011 25.5159 8.35011 25.5159 8.45011C25.5159 8.75011 25.3859 8.90011 25.1259 8.90011C24.9459 8.90011 24.8159 8.78011 24.7359 8.54011C24.4759 7.86011 24.0559 7.52011 23.4759 7.52011C22.9759 7.52011 22.4059 7.75011 21.7659 8.21011C21.1259 8.67011 20.4959 9.22011 19.8759 9.86011C19.1959 10.5801 18.5759 11.3601 18.0159 12.2001C17.4559 13.0201 17.0359 13.7701 16.7559 14.4501C16.6159 14.7501 16.5159 15.0201 16.4559 15.2601C16.4159 15.4801 16.3959 15.6701 16.3959 15.8301C16.3959 16.1901 16.5459 16.3701 16.8459 16.3701C17.1859 16.3701 17.6859 16.1201 18.3459 15.6201C18.8259 15.2401 19.3159 14.7801 19.8159 14.2401C20.3359 13.7001 20.8159 13.1701 21.2559 12.6501C21.6959 12.1101 22.0459 11.6901 22.3059 11.3901C22.4059 11.2301 22.4959 11.0801 22.5759 10.9401C22.6759 10.8001 22.7659 10.6801 22.8459 10.5801C22.9259 10.4801 23.0559 10.4001 23.2359 10.3401C23.4359 10.2801 23.6359 10.2501 23.8359 10.2501C24.0759 10.2501 24.2759 10.2901 24.4359 10.3701C24.5959 10.4501 24.6259 10.5901 24.5259 10.7901C24.5259 10.8101 24.4159 11.0201 24.1959 11.4201C23.9759 11.8001 23.7159 12.2601 23.4159 12.8001C23.1359 13.3401 22.8859 13.8601 22.6659 14.3601C22.5459 14.6401 22.4459 14.9001 22.3659 15.1401C22.2859 15.3801 22.2459 15.5801 22.2459 15.7401C22.2459 16.0001 22.3459 16.1301 22.5459 16.1301C22.6859 16.1301 22.8959 16.0501 23.1759 15.8901C23.6159 15.6701 24.0559 15.3501 24.4959 14.9301C24.9559 14.5101 25.3759 14.0801 25.7559 13.6401C25.9759 13.4201 26.1759 13.2101 26.3559 13.0101C26.5359 12.8101 26.7059 12.6001 26.8659 12.3801C26.9259 12.3201 26.9759 12.2901 27.0159 12.2901C27.1359 12.2901 27.1959 12.3801 27.1959 12.5601C27.1959 12.6601 27.1559 12.7501 27.0759 12.8301C26.8559 13.0901 26.6359 13.3601 26.4159 13.6401C26.1959 13.9001 25.9659 14.1601 25.7259 14.4201C25.5059 14.6801 25.2759 14.9401 25.0359 15.2001C24.8159 15.4401 24.5859 15.6701 24.3459 15.8901C23.4859 16.6901 22.6959 17.0901 21.9759 17.0901C21.6559 17.0901 21.3859 16.9801 21.1659 16.7601C20.9459 16.5201 20.8359 16.1501 20.8359 15.6501C20.8359 15.2701 20.9059 14.8401 21.0459 14.3601C21.0859 14.1401 21.1459 13.9201 21.2259 13.7001C21.3259 13.4801 21.4159 13.2501 21.4959 13.0101C21.0959 13.6501 20.6359 14.2901 20.1159 14.9301C19.6159 15.5501 19.0759 16.0701 18.4959 16.4901C17.9159 16.9101 17.3059 17.1201 16.6659 17.1201Z" fill="white"/>
<path d="M9.55121 17.4799C9.23121 16.9599 8.82121 16.3899 8.32121 15.7699C7.84121 15.1499 7.33121 14.5499 6.79121 13.9699C6.27121 13.3699 5.78121 12.8499 5.32121 12.4099C4.86121 11.9699 4.50121 11.6699 4.24121 11.5099L2.86121 14.0299C2.48121 14.7499 2.16121 15.4199 1.90121 16.0399C1.64121 16.6399 1.48121 17.0799 1.42121 17.3599C1.12121 17.1999 0.89121 16.9799 0.73121 16.6999C0.59121 16.4199 0.52121 15.9899 0.52121 15.4099C0.52121 14.9899 0.63121 14.5499 0.85121 14.0899C1.09121 13.6099 1.36121 13.1499 1.66121 12.7099C1.96121 12.2499 2.22121 11.8399 2.44121 11.4799C3.28121 10.1199 4.15121 8.7099 5.05121 7.2499C5.95121 5.7699 6.68121 4.3999 7.24121 3.1399L6.55121 3.2299C6.45121 3.2499 6.35121 3.2599 6.25121 3.2599C6.17121 3.2599 6.09121 3.2599 6.01121 3.2599C5.25121 3.2599 4.87121 3.0199 4.87121 2.5399C4.87121 2.4599 4.88121 2.3899 4.90121 2.3299C4.94121 2.2499 4.97121 2.1699 4.99121 2.0899C5.45121 2.0499 5.92121 1.9899 6.40121 1.9099C6.88121 1.8099 7.36121 1.7099 7.84121 1.6099C7.90121 1.4499 7.95121 1.2899 7.99121 1.1299C8.05121 0.949902 8.10121 0.789902 8.14121 0.649902C8.38121 0.649902 8.56121 0.719902 8.68121 0.859901C8.82121 0.979902 8.91121 1.1299 8.95121 1.3099C9.61121 1.1499 10.2612 1.0099 10.9012 0.889902C11.5412 0.749902 12.1412 0.679901 12.7012 0.679901C13.7812 0.679901 14.5512 0.969902 15.0112 1.5499C15.4712 2.1299 15.7012 2.8299 15.7012 3.6499C15.7012 4.2699 15.5212 4.9599 15.1612 5.7199C14.8012 6.4799 14.3112 7.2399 13.6912 7.9999C13.0712 8.7399 12.3612 9.4099 11.5612 10.0099C10.7812 10.6099 9.95121 11.0799 9.07121 11.4199C8.21121 11.7399 7.36121 11.8599 6.52121 11.7799C6.92121 12.1599 7.44121 12.6699 8.08121 13.3099C8.74121 13.9499 9.28121 14.6499 9.70121 15.4099C9.90121 15.8099 10.0012 16.2399 10.0012 16.6999C10.0012 16.8999 9.96121 17.0699 9.88121 17.2099C9.82121 17.3699 9.71121 17.4599 9.55121 17.4799ZM5.62121 10.6399C6.26121 10.6399 6.99121 10.4899 7.81121 10.1899C8.63121 9.8899 9.45121 9.4899 10.2712 8.9899C11.1112 8.4699 11.8812 7.8999 12.5812 7.2799C13.2812 6.6399 13.8412 5.9799 14.2612 5.2999C14.7012 4.6199 14.9212 3.9599 14.9212 3.3199C14.9212 2.5199 14.2212 2.1199 12.8212 2.1199C12.2012 2.1199 11.5612 2.1999 10.9012 2.3599C10.2412 2.4999 9.59121 2.6499 8.95121 2.8099C8.81121 3.3299 8.52121 4.0099 8.08121 4.8499C7.66121 5.6699 7.20121 6.5299 6.70121 7.4299C6.20121 8.3099 5.74121 9.0899 5.32121 9.7699C5.28121 9.8499 5.24121 9.9399 5.20121 10.0399C5.16121 10.1199 5.14121 10.2099 5.14121 10.3099C5.14121 10.5299 5.30121 10.6399 5.62121 10.6399Z" fill="white"/>
</svg>
