<svg preserveAspectRatio="none" width="100%" height="100%" overflow="visible" style="display: block;" viewBox="0 0 15.335 20" fill="none" xmlns="http://www.w3.org/2000/svg">
<g id="Group">
<path id="Vector" d="M1.37106 0.847526C-0.00316291 1.73878 -0.273124 4.52467 0.245704 6.79526C0.649767 8.56346 1.50883 10.9354 2.95742 13.1689C4.32016 15.2701 6.22137 17.1541 7.67106 18.2442C9.53266 19.6439 12.1864 20.5336 13.5607 19.6423C14.2555 19.1917 15.2879 17.9604 15.335 17.7394C15.335 17.7394 14.7296 16.806 14.5968 16.6012L12.5666 13.4709C12.4158 13.2383 11.4697 13.4509 10.9891 13.7231C10.3407 14.0905 9.74367 15.0761 9.74367 15.0761C9.29914 15.3329 8.9268 15.077 8.14883 14.719C7.1927 14.279 6.1177 12.9122 5.26211 11.6742C4.48067 10.3881 3.67102 8.84909 3.6593 7.79667C3.64965 6.94034 3.56785 6.49604 3.98367 6.19487C3.98367 6.19487 5.12711 6.05167 5.72692 5.60956C6.17149 5.28175 6.75145 4.50464 6.60059 4.27198L4.57043 1.14175C4.43758 0.936901 3.83219 0.00346406 3.83219 0.00346406C3.61121 -0.0436062 2.06594 0.396862 1.37106 0.847526Z" fill="var(--fill-0, #C8A96E)"/>
</g>
</svg>
