<svg width="40" height="40" viewBox="0 0 40 40" fill="none" xmlns="http://www.w3.org/2000/svg">
<circle cx="20" cy="20" r="19.5" fill="white" stroke="#2b2b2b"/>
<g clip-path="url(#clip0_123_3213)">
<path d="M23.0695 13.8501C21.2395 12.3801 20.4895 10.7501 20.1795 9.58008C18.8295 11.0001 18.4395 12.4801 18.9895 14.1101C19.6995 16.2201 19.7695 17.4901 19.2295 18.2501C18.9495 18.6401 18.5195 18.8601 18.0395 18.8601H17.9195C17.4195 18.8201 17.0195 18.6301 16.7295 18.3001C16.2495 17.7301 16.2695 16.9501 16.3395 16.0601C16.3595 15.7701 16.2895 15.4801 16.1695 15.2101C15.4095 16.3901 14.2495 18.1901 13.2595 19.6301C12.4695 20.7801 12.0195 22.3101 12.0195 23.8401V24.5601C12.3795 28.6301 15.8095 31.8301 19.9695 31.8301C24.3695 31.8301 27.9495 28.2501 27.9495 23.8501V23.7701C28.2395 20.1901 26.4495 16.5801 23.0495 13.8601L23.0695 13.8501ZM19.9995 30.3001C17.2595 30.3001 15.0395 28.0801 15.0395 25.3401C15.0395 24.4101 15.2995 23.5401 15.7495 22.7901C16.1395 24.2201 17.4395 25.2801 18.9995 25.2801C20.8595 25.2801 22.3595 23.7701 22.3595 21.9201C22.3595 21.5701 22.2995 21.2201 22.1995 20.9001C23.8295 21.7101 24.9495 23.3901 24.9495 25.3401C24.9495 28.0801 22.7295 30.3001 19.9895 30.3001H19.9995Z" fill="white"/>
<path d="M23.69 13.07C22.01 11.73 21.36 10.25 21.1 9.18999C20.9 8.33999 21.01 8.24999 21.01 8.24999C21 8.14999 20.94 8.05999 20.84 8.01999C20.8 7.99999 20.76 7.98999 20.72 7.98999C20.66 7.98999 20.61 8.00999 20.56 8.03999C20.56 8.03999 20.23 8.10999 19.7 8.61999C18.49 9.78999 17.13 11.75 18.03 14.42C18.97 17.2 18.51 17.85 18.03 17.85C18.02 17.85 18 17.85 17.99 17.85C17.33 17.8 17.23 17.4 17.34 16.14C17.46 14.67 16.13 13.42 16.13 13.42C16.13 13.42 14.06 16.71 12.45 19.06C11.49 20.46 11.03 22.23 11.03 23.84H11C11 28.8 15.02 32.82 19.98 32.82C24.94 32.82 28.96 28.8 28.96 23.84C29.3 19.53 26.96 15.69 23.69 13.07ZM27.97 23.77V23.81V23.85C27.97 28.25 24.39 31.83 19.99 31.83C15.83 31.83 12.4 28.63 12.04 24.56V23.84C12.04 22.31 12.49 20.78 13.28 19.63C14.27 18.19 15.43 16.39 16.19 15.21C16.31 15.48 16.38 15.77 16.36 16.06C16.29 16.95 16.26 17.73 16.75 18.3C17.03 18.63 17.43 18.82 17.94 18.86H18.02H18.06C18.54 18.86 18.97 18.64 19.25 18.25C19.79 17.49 19.72 16.22 19.01 14.11C18.46 12.48 18.85 11 20.2 9.57999C20.51 10.75 21.26 12.38 23.09 13.85C26.49 16.57 28.27 20.18 27.99 23.76L27.97 23.77Z" fill="#2b2b2b"/>
<path d="M23.2198 23.04C22.7298 24.91 21.0198 26.29 18.9998 26.29C17.8798 26.29 16.8398 25.86 16.0498 25.14C16.0498 25.21 16.0498 25.28 16.0498 25.35C16.0498 27.53 17.8198 29.31 20.0098 29.31C22.1998 29.31 23.9698 27.54 23.9698 25.35C23.9698 24.5 23.6998 23.7 23.2298 23.04H23.2198Z" fill="white"/>
<path d="M22.2 20.8999C22.3 21.2199 22.36 21.5599 22.36 21.9199C22.36 23.7799 20.85 25.2799 19 25.2799C17.45 25.2799 16.14 24.2199 15.75 22.7899C15.3 23.5299 15.04 24.4099 15.04 25.3399C15.04 28.0799 17.26 30.2999 20 30.2999C22.74 30.2999 24.96 28.0799 24.96 25.3399C24.96 23.3899 23.84 21.7099 22.21 20.8999H22.2ZM20 29.2999C17.82 29.2999 16.04 27.5299 16.04 25.3399C16.04 25.2699 16.04 25.1999 16.04 25.1299C16.83 25.8499 17.87 26.2799 18.99 26.2799C21.01 26.2799 22.72 24.8999 23.21 23.0299C23.68 23.6899 23.95 24.4899 23.95 25.3399C23.95 27.5199 22.18 29.2999 19.99 29.2999H20Z" fill="#2b2b2b"/>
</g>
<defs>
<clipPath id="clip0_123_3213">
<rect width="18" height="24.83" fill="white" transform="translate(11 8)"/>
</clipPath>
</defs>
</svg>
