<svg width="24" height="24" viewBox="0 0 24 24" fill="none" xmlns="http://www.w3.org/2000/svg">
<path fill-rule="evenodd" clip-rule="evenodd" d="M11.9956 6.71567C12.7567 6.71567 13.374 6.09846 13.374 5.33763C13.374 4.57643 12.7567 3.95923 11.9956 3.95923C11.2344 3.95923 10.6172 4.57643 10.6172 5.33763C10.6172 6.09846 11.2344 6.71567 11.9956 6.71567ZM5.31641 15.9074H7.44537C7.44537 12.4702 10.0592 10.5759 10.0592 10.5759C7.38969 10.8876 5.31641 13.1537 5.31641 15.9074ZM22.2257 17.1551H22.5573C23.3529 17.1551 24 17.8022 24 18.5977C24 19.3934 23.3529 20.0404 22.5573 20.0404H1.443C0.647438 20.0404 0 19.3933 0 18.5977C0 17.8022 0.647438 17.1551 1.443 17.1551H1.77459L1.78322 17.0231C2.12517 11.6511 6.61298 7.44267 12.0002 7.44224C17.3877 7.44262 21.8755 11.6511 22.2171 17.0231L22.2257 17.1551ZM2.91628 16.9678L2.90456 17.1197H21.0954L21.0837 16.9678C20.9164 14.8079 19.9792 12.7731 18.4451 11.2377C16.7227 9.5166 14.434 8.56846 12.0002 8.56814C9.56639 8.56846 7.2773 9.5166 5.55558 11.2377C4.02112 12.7728 3.08395 14.8076 2.91628 16.9678Z" fill="white"/>
</svg>
