<svg width="26" height="31" viewBox="0 0 26 31" fill="none" xmlns="http://www.w3.org/2000/svg">
<path fill-rule="evenodd" clip-rule="evenodd" d="M18.9774 12.9076C18.9774 14.3844 18.3907 15.8007 17.3465 16.845C16.3022 17.8893 14.8859 18.4759 13.4091 18.4759C11.9323 18.4759 10.516 17.8893 9.47173 16.845C8.42748 15.8007 7.84082 14.3844 7.84082 12.9076C7.84082 11.4308 8.42748 10.0145 9.47173 8.97027C10.516 7.92601 11.9323 7.33936 13.4091 7.33936C14.8859 7.33936 16.3022 7.92601 17.3465 8.97027C18.3907 10.0145 18.9774 11.4308 18.9774 12.9076ZM16.1932 12.9076C16.1932 13.646 15.8999 14.3542 15.3778 14.8763C14.8557 15.3984 14.1475 15.6918 13.4091 15.6918C12.6707 15.6918 11.9625 15.3984 11.4404 14.8763C10.9183 14.3542 10.625 13.646 10.625 12.9076C10.625 12.1692 10.9183 11.4611 11.4404 10.9389C11.9625 10.4168 12.6707 10.1235 13.4091 10.1235C14.1475 10.1235 14.8557 10.4168 15.3778 10.9389C15.8999 11.4611 16.1932 12.1692 16.1932 12.9076Z" fill="#CC2200"/>
<path fill-rule="evenodd" clip-rule="evenodd" d="M4.39043 21.6023C2.59582 19.8936 1.3482 17.6911 0.805338 15.2734C0.262473 12.8557 0.448744 10.3312 1.3406 8.01935C2.23245 5.70748 3.78983 3.71199 5.81579 2.28522C7.84175 0.858461 10.2453 0.0645083 12.7225 0.00376613C15.1997 -0.0569761 17.6393 0.618221 19.7327 1.94397C21.8262 3.26973 23.4795 5.18649 24.4836 7.45187C25.4876 9.71726 25.7974 12.2295 25.3737 14.671C24.95 17.1124 23.8118 19.3734 22.1031 21.1679L13.4639 30.2415L4.39043 21.6023ZM20.0874 19.2483L13.3679 26.3061L6.31009 19.5866C4.91435 18.2576 3.94404 16.5446 3.52184 14.6642C3.09964 12.7837 3.24452 10.8203 3.93816 9.02226C4.6318 7.22418 5.84305 5.67216 7.41873 4.56245C8.99442 3.45275 10.8638 2.8352 12.7904 2.78789C14.7171 2.74059 16.6145 3.26565 18.2428 4.29669C19.871 5.32773 21.157 6.81844 21.938 8.58031C22.7191 10.3422 22.9601 12.2961 22.6307 14.195C22.3013 16.0939 21.4162 17.8524 20.0874 19.2483Z" fill="#CC2200"/>
</svg>
