<svg width="35" height="29" viewBox="0 0 35 29" fill="none" xmlns="http://www.w3.org/2000/svg">
<path fill-rule="evenodd" clip-rule="evenodd" d="M27.6658 23.1949L30.7322 11.308L26.2511 14.2148C25.3575 14.7951 24.2762 14.9953 23.2393 14.7725C22.2024 14.5498 21.2926 13.9217 20.7053 13.0232L17.7563 8.5105L14.8054 13.0253C14.2177 13.9234 13.3078 14.5511 12.2709 14.7735C11.2341 14.9959 10.1529 14.7953 9.25959 14.2148L4.7825 11.308L7.84887 23.1949H27.6679H27.6658ZM5.86737 9.56807C4.31496 8.55997 2.35371 10.0175 2.82125 11.8316L5.88963 23.7185C6.00322 24.1591 6.25687 24.5489 6.61096 24.8272C6.96505 25.1054 7.39963 25.2564 7.84684 25.2564H27.6658C28.1131 25.2564 28.5476 25.1054 28.9017 24.8272C29.2558 24.5489 29.5095 24.1591 29.6231 23.7185L32.6914 11.8316C33.157 10.0175 31.1977 8.56204 29.6453 9.56807L25.1642 12.4749C24.7177 12.7652 24.1772 12.8656 23.6587 12.7546C23.1403 12.6436 22.6853 12.33 22.3913 11.8811L19.4403 7.36634C19.2555 7.08399 19.0051 6.85249 18.7113 6.69238C18.4175 6.53226 18.0895 6.44849 17.7563 6.44849C17.4232 6.44849 17.0951 6.53226 16.8014 6.69238C16.5076 6.85249 16.2572 7.08399 16.0724 7.36634L13.1214 11.8811C12.8277 12.3304 12.3728 12.6444 11.8544 12.7558C11.3359 12.8672 10.7953 12.7671 10.3485 12.4769L5.86737 9.56807Z" fill="#fff"/>
<path d="M19.667 2.8399C19.6675 3.35659 19.4665 3.85232 19.1082 4.21806C18.7499 4.5838 18.2636 4.78958 17.7563 4.79012C17.249 4.79067 16.7623 4.58594 16.4033 4.22098C16.0442 3.85601 15.8421 3.36071 15.8416 2.84402C15.8411 2.32734 16.0421 1.8316 16.4004 1.46586C16.7587 1.10012 17.245 0.894347 17.7523 0.8938C18.2595 0.893253 18.7463 1.09798 19.1053 1.46295C19.4644 1.82791 19.6664 2.32322 19.667 2.8399ZM34.9603 6.73829C34.9606 7.25497 34.7593 7.7506 34.4008 8.11615C34.0423 8.48169 33.5559 8.6872 33.0486 8.68748C32.5414 8.68775 32.0548 8.48276 31.6959 8.1176C31.337 7.75245 31.1352 7.25703 31.135 6.74035C31.135 6.22366 31.3365 5.72814 31.6952 5.36279C32.0539 4.99744 32.5404 4.79219 33.0476 4.79219C33.5549 4.79219 34.0414 4.99744 34.4001 5.36279C34.7588 5.72814 34.9603 6.2216 34.9603 6.73829ZM4.37565 6.73829C4.37579 6.99412 4.32644 7.24748 4.23045 7.48389C4.13445 7.72031 3.99367 7.93515 3.81616 8.11615C3.63864 8.29715 3.42786 8.44076 3.19586 8.53879C2.96385 8.63682 2.71516 8.68734 2.46398 8.68748C2.21281 8.68761 1.96406 8.63736 1.73196 8.53958C1.49985 8.4418 1.28892 8.29841 1.11122 8.1176C0.933517 7.9368 0.792518 7.72211 0.696274 7.4858C0.60003 7.24949 0.550426 6.99618 0.550293 6.74035C0.550293 6.22366 0.751807 5.72814 1.1105 5.36279C1.4692 4.99744 1.9557 4.79219 2.46297 4.79219C2.97025 4.79219 3.45674 4.99744 3.81544 5.36279C4.17414 5.72814 4.37565 6.2216 4.37565 6.73829Z" fill="#fff"/>
<path fill-rule="evenodd" clip-rule="evenodd" d="M8.14307 27.698C8.14307 27.4246 8.24969 27.1624 8.43947 26.9691C8.62926 26.7758 8.88667 26.6672 9.15507 26.6672H26.8388C27.1072 26.6672 27.3646 26.7758 27.5543 26.9691C27.7441 27.1624 27.8508 27.4246 27.8508 27.698C27.8508 27.9714 27.7441 28.2336 27.5543 28.4269C27.3646 28.6202 27.1072 28.7288 26.8388 28.7288H9.15507C8.88667 28.7288 8.62926 28.6202 8.43947 28.4269C8.24969 28.2336 8.14307 27.9714 8.14307 27.698Z" fill="#fff"/>
</svg>
