<svg width="54" height="507" viewBox="0 0 54 507" fill="none" xmlns="http://www.w3.org/2000/svg">
<rect width="52.0312" height="506.76" transform="translate(0.984375)" fill="white"/>
<path d="M26.9145 486.674C18.1316 486.008 15.5509 477.683 23.5012 471.98C24.417 471.314 25.8322 470.44 26.9977 469.732C26.9561 468.733 26.5815 468.275 25.3744 468.525C23.5845 468.9 21.087 471.023 18.5062 473.479C17.5072 474.394 16.0087 476.184 15.0097 477.142L13.428 478.64V470.898C16.092 468.525 18.5479 465.362 20.2545 461.824H13.5529V456.079H22.5022L23.5012 452.708H29.7866C29.5369 453.79 29.2039 454.831 28.7876 456.079H38.2781V461.824H26.0404C25.2079 463.489 24.9165 464.03 24.6667 464.571C24.8749 464.404 25.2495 464.113 25.8739 463.822C28.2465 462.739 31.4932 463.239 32.3257 466.902C35.8639 465.029 41.2335 462.989 41.2335 462.989V469.732C40.3594 469.732 36.6964 471.106 32.7004 472.896V478.723H26.9977V475.726C26.6647 475.934 26.2901 476.143 25.9987 476.351C23.4596 478.141 23.751 480.472 27.414 480.68C32.2009 480.971 36.6964 480.305 39.0274 479.93V486.174L35.9055 486.507C33.6577 486.757 29.2455 486.84 26.9145 486.674Z" fill="#53573E"/>
<path d="M18.3027 424.979V429.266H26.7526V424.979H18.3027ZM10.4772 410.119V404.375H43.6939V434.261C43.6939 437.508 43.1944 439.298 41.3213 440.339C39.5314 441.379 36.9923 441.546 33.3293 441.504C33.2044 439.714 32.3303 436.676 31.5394 434.969C33.4958 435.136 36.0349 435.136 36.7842 435.094C37.4918 435.094 37.7832 434.886 37.7832 434.137V410.119H10.4772ZM10.935 417.528V412.283H34.0785V417.528H10.935ZM12.7249 437.425V419.818H32.4135V434.428H18.3027V437.425H12.7249Z" fill="#53573E"/>
<path d="M26.0866 374.856C25.7536 375.647 25.4622 376.438 25.1708 377.229H33.2044V374.856H26.0866ZM8.10455 387.718C10.6437 386.303 12.7666 384.555 14.5981 382.473H10.0609V377.229H18.1778C18.5524 376.479 18.9687 375.689 19.3017 374.856H9.27005V369.695H21.1748C21.3413 369.153 21.4246 368.612 21.5911 368.03H13.0579V363.201H22.6317C22.7566 362.66 22.8398 362.16 22.9231 361.619H11.3513V356.583H23.5891C23.7139 355.709 23.7972 354.793 23.8388 353.877L30.1658 354.501L29.9577 356.583H43.0696V361.619H29.2917L29.0003 363.201H41.7376V368.03H28.0013L27.6267 369.695H45.4006V374.856H39.0736V377.229H44.7762V382.473H39.0736V387.135C39.0736 389.883 38.6573 391.464 36.8674 392.38C35.1192 393.296 32.9547 393.421 30.2907 393.379C30.0826 391.673 29.1668 389.134 28.4176 387.51C29.8744 387.593 31.8724 387.593 32.4552 387.593C33.0379 387.593 33.2044 387.468 33.2044 386.969V382.473H22.5901C21.8824 383.681 21.0916 384.846 20.2591 385.928L23.9221 383.514C25.4206 385.179 27.3769 387.51 28.2927 389.133L23.3393 392.505C22.6317 390.965 20.9667 388.634 19.5514 386.844C17.7616 389.009 15.7219 390.882 13.3493 392.464C12.3919 391.298 9.60305 388.842 8.10455 387.718Z" fill="#53573E"/>
<path d="M29.2871 336.513C33.1582 336.513 34.8232 335.431 34.8232 332.392C34.8232 329.062 32.7836 327.356 28.1216 327.522C27.7886 327.522 27.7054 327.522 27.6221 327.564V334.598C27.6221 339.302 25.3744 342.216 21.0454 342.091C16.8829 341.966 13.4696 338.178 13.3031 333.35C13.1366 328.355 16.3834 324.317 21.8362 322.444V318.448H14.3021V312.579H21.8362V308.416H27.6221V312.579H31.9927C31.4932 311.538 31.0354 310.706 30.2861 309.457H36.738C38.4446 312.953 39.8182 316.117 41.5249 320.779H35.3227C34.3654 317.99 33.7826 316.575 32.5755 314.036V318.448H27.6221V321.57C27.9967 321.486 28.2881 321.486 28.5379 321.486C34.1156 321.362 40.8172 323.318 40.8172 332.101C40.8172 341.009 33.9907 342.882 29.2871 342.882V336.513ZM18.8392 333.183C18.8392 335.223 20.2545 335.889 21.2535 335.889C21.7114 335.889 21.8362 335.639 21.8362 335.181V328.771C19.9631 329.687 18.8392 331.352 18.8392 333.183Z" fill="#53573E"/>
<path d="M30.2861 294.382C27.8719 294.341 24.9998 294.091 22.7936 293.55C17.6738 292.301 14.2605 289.096 14.7184 283.185C14.8433 281.562 15.2595 279.938 15.8839 278.69C17.091 276.234 19.0474 274.819 21.3368 273.278L19.422 261.041H25.5409L26.8729 271.072C31.3268 269.657 34.7816 269.033 39.9431 268.741V275.526C34.7816 275.734 31.2851 276.067 27.747 277.191C24.2089 278.315 21.2535 280.23 21.2535 283.435C21.2535 284.725 21.7114 285.766 22.6688 286.515C24.2921 287.764 27.0394 288.097 30.1613 288.055C34.1989 287.972 39.9431 287.181 39.9431 287.181V293.841C36.3634 294.257 33.075 294.424 30.2861 294.382Z" fill="#53573E"/>
<path d="M26.9978 246.174V213.249H33.3248V237.35C36.7796 235.893 38.6944 234.394 41.4 231.48V239.556C37.6121 243.968 31.6181 245.716 26.9978 246.174ZM12.5539 245.466C15.4676 239.389 17.1743 233.145 17.1743 225.528V213.707H23.4596V225.528C23.4596 232.022 22.2525 240.804 19.5469 245.466H12.5539Z" fill="#53573E"/>
<path d="M43.0234 169.411V163.417H45.8955V169.411H43.0234ZM14.427 172.575V165.915H38.5279V163.417H41.4V169.411H39.9431V172.034C39.9431 178.361 38.1949 184.771 33.741 189.683C30.1196 193.679 24.75 196.676 17.1326 197.883V191.223C22.4606 190.473 26.415 188.6 29.1206 185.562C31.8263 182.523 33.2831 178.236 33.5329 172.575H14.427Z" fill="#53573E"/>
<path d="M26.6647 122.244V116.25H29.5369V122.244H26.6647ZM16.092 151.007V116.125H22.6687V127.364H40.1512V133.899H22.6687V151.007H16.092ZM31.1602 122.244V116.25H34.0324V122.244H31.1602Z" fill="#53573E"/>
<path d="M23.9591 100.925V70.4559H30.744V100.925H23.9591Z" fill="#53573E"/>
<path d="M29.8699 37.2327C27.081 43.6014 22.3357 49.637 13.7194 54.6736V46.7233C21.087 41.4785 23.9591 37.2328 26.3734 31.5718H13.7194V25.2031H29.8699V20H36.3634V25.2031H41.1086V31.5718H36.3634V55.3813H29.8699V37.2327Z" fill="#53573E"/>
</svg>
