<svg width="53" height="558" viewBox="0 0 53 558" fill="none" xmlns="http://www.w3.org/2000/svg">
<rect width="52.0312" height="556.963" transform="translate(0 0.46875)" fill="white"/>
<path d="M25.0536 537.432C27.5095 533.561 28.4253 531.022 28.4253 529.856C27.1349 531.438 25.3866 532.145 23.347 532.062C19.0596 531.854 14.9388 528.066 15.1053 522.738C15.2301 517.785 18.5185 513.456 24.6374 513.456C26.1359 513.456 27.4679 513.997 28.009 514.372V511.791H11.9418V505.88H28.009V502.425H33.9198V505.88H40.1635V511.791H33.9198V520.324C34.2944 522.405 34.6274 523.945 34.7107 525.319C35.002 529.273 33.9198 533.477 31.6304 537.432H25.0536ZM20.5165 522.613C20.5165 524.861 22.3064 526.693 24.5125 526.693C26.7186 526.693 28.5085 524.861 28.5085 522.613C28.5085 520.407 26.7186 518.576 24.5125 518.576C22.3064 518.576 20.5165 520.407 20.5165 522.613Z" fill="#53573E"/>
<path d="M22.0983 489.473C16.4373 489.473 12.8159 486.768 12.7327 482.147C12.6078 476.32 17.686 473.906 24.1795 474.322V472.116H13.3987V466.455H24.1795V464.124H12.6494V458.338H24.1795V454.758H30.2152V458.338H38.998V464.124H30.2152V466.455H38.2904V472.116H30.2152V475.154C33.5452 476.362 36.2092 477.985 38.332 479.775V487.101C37.3747 486.143 34.003 483.063 30.2152 480.94V482.231C30.2152 484.353 29.7573 485.894 28.8415 487.018C27.3847 488.807 24.8872 489.473 22.0983 489.473ZM18.352 481.69C18.352 482.98 19.3094 484.021 21.5155 484.021C23.0973 484.021 24.1795 483.521 24.1795 482.147V479.525C21.2658 478.942 18.352 479.525 18.352 481.69Z" fill="#53573E"/>
<path d="M23.5968 441.432C17.1033 441.307 14.3976 437.436 14.3976 430.901V406.633H20.6414V429.86C20.6414 433.148 21.682 434.772 23.9714 434.772C25.345 434.772 26.7603 434.48 28.6334 433.69C31.8801 432.274 34.7106 430.484 38.8315 427.321V434.938C37.1665 436.229 35.6264 437.311 34.1695 438.143C30.8811 440.058 27.4263 441.515 23.5968 441.432Z" fill="#53573E"/>
<path d="M25.1785 393.14C28.5918 388.687 30.2568 383.359 30.2568 377.989V372.286H21.7237V365.918H30.2568V358.841H36.5005V365.918H41.0377V372.286H36.5005L36.4589 378.072C36.334 384.94 35.1269 389.186 32.0883 393.14H25.1785ZM12.8575 375.908C12.8575 370.621 13.2738 366.292 14.1063 359.924H20.35C19.5175 366.376 19.1013 370.746 19.1013 375.616C19.1013 381.152 19.6424 385.565 20.6414 392.058H14.2312C13.357 385.773 12.8575 381.444 12.8575 375.908Z" fill="#53573E"/>
<path d="M37.0879 341.436V339.146H32.6756V341.436H37.0879ZM6.82648 344.766C10.7809 338.522 11.0722 329.073 11.0722 322.496V310.175H42.1245V323.62H32.6756V327.075H42.7489V347.846H37.0879V346.722H23.0602V347.846H17.6906V327.075H27.0979V323.62H16.8997C16.8165 330.946 16.0256 341.394 11.988 347.888C10.8641 346.889 8.28335 345.348 6.82648 344.766ZM16.8997 318.167H36.297V315.628H16.8997V318.167ZM23.0602 341.436H27.0979V339.146H23.0602V341.436ZM23.0602 334.401H27.0979V332.362H23.0602V334.401ZM32.6756 334.401H37.0879V332.362H32.6756V334.401Z" fill="#53573E"/>
<path d="M27.9258 290.897C31.7969 290.897 33.4619 289.814 33.4619 286.776C33.4619 283.446 31.4223 281.739 26.7603 281.906C26.4273 281.906 26.344 281.906 26.2608 281.947V288.982C26.2608 293.686 24.013 296.599 19.684 296.474C15.5215 296.35 12.1083 292.562 11.9418 287.733C11.7753 282.738 15.022 278.701 20.4749 276.827V272.831H12.9408V266.962H20.4749V262.8H26.2608V266.962H30.6314C30.1319 265.922 29.674 265.089 28.9248 263.84H35.3767C37.0833 267.337 38.4569 270.5 40.1635 275.162H33.9614C33.004 272.374 32.4213 270.958 31.2142 268.419V272.831H26.2608V275.953C26.6354 275.87 26.9268 275.87 27.1765 275.87C32.7543 275.745 39.4559 277.702 39.4559 286.484C39.4559 295.392 32.6294 297.265 27.9258 297.265V290.897ZM17.4779 287.567C17.4779 289.606 18.8932 290.272 19.8922 290.272C20.35 290.272 20.4749 290.023 20.4749 289.565V283.154C18.6018 284.07 17.4779 285.735 17.4779 287.567Z" fill="#53573E"/>
<path d="M29.8822 247.933C24.0963 247.434 16.7703 244.354 18.1023 234.364C18.5602 230.701 20.2668 228.161 22.2232 225.955C23.4719 224.54 24.5958 223.624 25.5532 222.917H12.3997V216.548H39.7057V222.917C36.7087 223.25 34.5442 223.957 32.5878 225.081C28.7583 227.246 25.8862 230.576 24.9288 233.614C23.6384 237.735 26.1775 241.107 30.3817 241.44C32.6294 241.648 36.334 241.398 38.4985 241.065V247.725C35.2518 248.141 31.4223 248.058 29.8822 247.933Z" fill="#53573E"/>
<path d="M26.1359 194.272C30.8395 194.023 33.67 192.399 34.1695 187.404C34.5858 183.367 33.004 179.329 30.7979 178.913C29.2162 184.366 28.2588 187.238 26.7603 190.484C25.1785 194.147 22.2648 198.643 17.6444 198.851C12.9824 198.726 10.8595 193.357 11.1093 188.32C11.2758 185.24 12.3997 181.119 15.2302 177.373C14.4393 174.376 13.9398 170.671 13.8149 168.132H19.351C19.4759 170.421 19.6008 171.67 19.8505 173.585C21.7237 172.461 23.9714 171.878 26.5105 171.878C26.7603 170.13 26.9268 168.839 27.1349 166.217H33.2122C32.8375 169.339 32.7959 169.672 32.2548 172.752C38.7067 174.958 41.0377 181.41 40.4549 187.945C39.7473 195.854 34.1279 200.474 26.1359 200.807V194.272ZM16.2708 188.362C16.1875 189.902 16.4373 192.316 17.9774 192.316C19.1429 192.316 19.8505 191.483 20.5165 190.568C19.5175 188.944 18.3104 186.863 17.2698 184.366C16.6454 185.739 16.354 186.946 16.2708 188.362ZM21.1409 179.828C21.4739 181.119 22.1815 183.117 23.2638 185.198C24.0963 182.992 24.8039 180.619 25.345 178.33C24.1379 178.288 22.348 178.788 21.1409 179.828Z" fill="#53573E"/>
<path d="M29.2624 127.166C29.0959 126.001 28.971 124.794 28.8877 123.587H22.1861V117.884H33.7995C34.2157 129.248 36.2137 139.362 44.622 143.775C43.29 144.774 41.2087 146.98 40.1681 148.437C35.7142 145.565 32.9254 141.36 31.2187 136.324C29.304 141.527 26.4319 145.648 22.5607 148.478C21.7282 147.313 19.4805 144.94 18.1901 143.9C23.5597 140.611 26.4319 134.617 27.5557 126.917L29.2624 127.166ZM6.78485 149.144C8.40823 148.187 10.2397 147.021 11.9047 145.773V138.03H7.82548V132.453H17.5241V145.523C18.981 148.104 21.645 149.144 25.5577 149.311C30.3446 149.519 39.3772 149.394 45.0799 148.853C44.4555 150.31 43.5397 153.224 43.2484 155.013C38.2534 155.305 30.3446 155.388 25.4329 155.138C20.7292 154.93 17.6074 153.89 14.985 150.684C13.3616 152.183 11.6966 153.681 9.57373 155.471L6.78485 149.144ZM7.65898 120.923L11.9464 117.301C14.1941 119.008 17.0662 121.589 18.4398 123.503L13.8195 127.499C12.6956 125.585 9.90673 122.796 7.65898 120.923Z" fill="#53573E"/>
<path d="M25.5532 105.057C16.7703 104.391 14.1895 96.0661 22.1399 90.3635C23.0557 89.6975 24.4709 88.8234 25.6364 88.1158C25.5948 87.1168 25.2202 86.6589 24.013 86.9086C22.2232 87.2832 19.7257 89.4061 17.1449 91.862C16.1459 92.7778 14.6474 94.5676 13.6484 95.525L12.0667 97.0235V89.2812C14.7307 86.9086 17.1865 83.7451 18.8932 80.207H12.1915V74.4627H21.1409L22.1399 71.0911H28.4253C28.1755 72.1734 27.8425 73.214 27.4263 74.4627H36.9168V80.207H24.679C23.8465 81.872 23.5552 82.4131 23.3054 82.9542C23.5135 82.7877 23.8881 82.4964 24.5125 82.205C26.8852 81.1228 30.1319 81.6222 30.9644 85.2852C34.5025 83.4121 39.8722 81.3725 39.8722 81.3725V88.1158C38.998 88.1158 35.335 89.4894 31.339 91.2793V97.1068H25.6364V94.1097C25.3034 94.3179 24.9288 94.526 24.6374 94.7341C22.0983 96.524 22.3897 98.855 26.0527 99.0631C30.8395 99.3545 35.335 98.6885 37.666 98.3139V104.558L34.5442 104.891C32.2964 105.14 27.8842 105.224 25.5532 105.057Z" fill="#53573E"/>
<path d="M38.295 33.3725C41.625 37.868 44.4139 43.862 45.3712 48.191L39.5021 51.2713C38.7529 47.0671 36.0889 40.6985 33.0086 36.1614L38.295 33.3725ZM6.65997 49.4398C8.8661 45.9016 9.90672 40.8234 10.4478 35.1624L16.1088 36.3695C15.4845 42.2803 14.5687 48.524 12.1128 52.6865L6.65997 49.4398ZM17.8155 51.7291V32.4151H23.8511V51.7291C23.8511 53.8104 24.0176 54.0601 25.7242 54.0601H30.0948C31.8015 54.0601 32.0929 52.8114 32.3842 46.6509C33.6746 47.7331 36.1305 48.8154 37.7122 49.2316C37.1295 57.0155 35.631 59.5546 30.5943 59.5546H24.8917C19.314 59.5546 17.8155 57.6399 17.8155 51.7291ZM17.8571 25.1724L21.645 20.4688C26.2653 22.217 31.5517 25.3805 34.7152 27.9196L30.8857 33.2476C27.8887 30.4588 22.4775 27.1288 17.8571 25.1724Z" fill="#53573E"/>
</svg>
