<svg width="296" height="39" viewBox="0 0 296 39" fill="none" xmlns="http://www.w3.org/2000/svg">
<path d="M282.246 27.8272V26.0272H275.166V27.8272H282.246ZM259.686 8.18717C262.126 6.34717 264.446 3.30717 265.726 0.347168L270.846 1.86717C270.646 2.30717 270.406 2.70717 270.206 3.14717H277.686V6.58717C279.326 4.82717 280.686 2.54717 281.486 0.347168L286.726 1.70717L286.126 3.14717H295.606V7.66717H290.966C291.326 8.10717 291.606 8.54717 291.846 8.94717L289.046 10.2272H292.166V26.0272H287.966V27.8272H295.646V32.3872H287.966V38.6672H282.246V32.3872H274.606C273.526 35.0272 270.726 37.2672 264.806 38.7472C264.086 37.5072 262.566 35.5872 261.326 34.5072C264.446 33.9872 266.446 33.2272 267.686 32.3872H260.926V27.8272H269.606V26.0272H265.206V10.2672C264.886 10.6672 264.486 11.0272 264.166 11.3472C263.126 10.4272 260.966 8.90717 259.686 8.18717ZM265.246 10.2272H268.806C268.526 9.42717 268.006 8.50717 267.526 7.66717H267.366C266.686 8.58717 265.966 9.46717 265.246 10.2272ZM270.806 22.7072H286.286V21.7472H270.806V22.7072ZM270.806 18.5872H286.286V17.6272H270.806V18.5872ZM270.806 14.5072H286.286V13.5872H270.806V14.5072ZM271.166 10.2272H279.766C278.566 9.46717 276.966 8.66717 275.926 8.22717C276.166 8.06717 276.366 7.86717 276.606 7.66717H273.166C273.446 8.22717 273.726 8.78717 273.926 9.22717L271.166 10.2272ZM281.446 10.2272H286.686C286.246 9.42717 285.526 8.50717 284.886 7.66717H283.486C282.806 8.62717 282.126 9.46717 281.446 10.2272Z" fill="#53573E"/>
<path d="M256.198 17.8673C254.718 21.7473 252.518 25.8673 250.478 28.7473L245.718 25.8673C246.438 24.7473 247.198 23.2673 247.918 21.7473H241.398V32.7073C241.398 35.5873 240.798 37.0673 238.718 37.8673C236.718 38.6673 234.078 38.7473 230.878 38.7473C230.558 37.1073 229.638 34.6673 228.838 33.1473C230.918 33.2673 233.878 33.2673 234.638 33.2673C235.398 33.2273 235.598 33.1073 235.598 32.5073V21.7473H220.878V16.2273H236.478C234.198 15.3073 231.878 14.4273 229.998 13.7473L232.718 9.34728C234.238 9.82728 236.158 10.4673 238.118 11.1473C239.318 10.3473 240.558 9.34728 241.678 8.34728H224.638V3.02728H246.998L248.238 2.70728L252.198 6.02728C249.878 8.42728 246.998 11.0673 243.998 13.2673C245.038 13.6273 245.998 14.0273 246.758 14.3473L245.638 16.2273H250.718L251.638 15.8273L256.198 17.8673Z" fill="#53573E"/>
<path d="M201.355 31.6271C205.635 31.5471 208.835 27.9071 208.595 21.0271C208.435 16.7071 206.955 13.7071 203.315 13.1071C203.155 18.1071 202.835 23.6271 201.315 28.2271C199.835 32.6671 197.675 35.5071 194.275 35.3871C188.995 35.1871 186.475 29.2271 186.635 23.2271C186.875 14.1871 192.035 7.42711 199.555 6.74711C208.435 6.0271 214.115 12.0271 214.475 21.3871C214.955 33.1871 207.195 37.6271 201.355 37.6271V31.6271ZM192.195 23.2271C192.075 25.3871 192.395 28.9471 194.395 29.0671C197.595 29.1871 197.715 17.3871 197.635 13.2271C194.315 14.3471 192.435 18.7871 192.195 23.2271Z" fill="#53573E"/>
<path d="M161.157 32.1872C169.157 31.9072 173.117 29.5872 173.117 21.4272C173.117 19.6672 172.957 17.0672 172.437 15.3472C171.917 13.6272 171.117 12.7072 169.877 12.7072C168.357 12.7072 166.877 14.0272 165.717 16.2272C164.197 19.1072 162.717 22.8272 162.917 26.5072L163.037 28.1872H156.877C156.717 25.9472 156.517 22.3872 156.517 17.7072C156.517 13.1472 157.037 9.18724 157.597 5.66724H163.597C163.397 7.10724 163.197 8.70724 162.837 12.9072C164.837 8.66724 166.717 6.70724 169.877 6.46724C175.917 5.98724 179.117 12.0672 179.117 20.8672C179.117 32.3472 173.677 38.2272 161.157 38.2272V32.1872Z" fill="#53573E"/>
<path d="M121.778 37.8671C124.058 29.9871 125.578 21.9071 126.418 15.6271H121.578V9.94708H127.098C127.378 7.10708 127.298 8.34708 127.498 5.50708H133.018L132.658 9.94708H138.338V14.8271C142.058 14.7471 145.458 14.7471 148.538 14.7871V20.6671C145.458 20.5071 142.298 20.4671 135.898 20.6271L135.778 15.6271H132.058C131.458 20.2671 130.098 28.5871 127.858 37.8671H121.778ZM131.898 30.7471C131.898 28.5471 132.458 27.2271 133.698 25.2671H139.258C136.378 30.2271 136.458 31.9871 142.538 31.9871C145.138 31.9871 149.098 31.6671 149.098 31.6671V37.8271C146.818 38.0271 143.178 38.2271 139.538 37.9871C137.778 37.8671 136.418 37.7071 134.938 36.7871C132.698 35.3871 131.898 33.3071 131.898 30.7471Z" fill="#53573E"/>
<path d="M113.85 3.66707C112.17 7.38707 110.29 11.1471 108.73 13.6671L103.77 11.9071C105.25 9.14707 106.81 5.06707 107.61 1.82707L113.85 3.66707ZM82.7302 4.26707L87.8102 2.22707C89.7302 4.98707 91.5302 8.66707 92.2902 11.2271L86.9302 13.5871C86.2902 11.0271 84.5302 7.10707 82.7302 4.26707ZM82.9302 37.1471V31.3471H107.21V28.3871H85.1702V22.7871H107.21V20.3071H83.8502V14.4671H95.0102V0.74707H101.13V14.4671H113.13V38.7071H107.21V37.1471H82.9302Z" fill="#53573E"/>
<path d="M60.5623 1.54712L60.4423 4.18712C60.7223 9.94712 62.5623 26.3871 76.6823 33.4271C74.8823 34.8271 73.2423 36.7871 72.4023 38.3871C64.3223 34.0671 60.0423 26.6271 57.7623 19.6271C55.6023 26.3471 51.6423 33.3871 44.3223 38.4271C43.3223 36.9071 41.5623 35.1071 39.6023 33.7471C54.7223 24.5071 53.8823 6.78712 54.1623 1.54712H60.5623Z" fill="#53573E"/>
<path d="M35.7945 16.1873V22.5473H0.354492V16.1873H35.7945Z" fill="#53573E"/>
</svg>
