<svg width="116" height="39" viewBox="0 0 116 39" fill="none" xmlns="http://www.w3.org/2000/svg">
<path d="M107.25 5.82712V0.547119H110.29V5.82712H107.25ZM88.8096 38.6271V31.1871C96.6096 26.5871 101.57 21.1071 104.77 13.0671H90.2896V6.62712H113.29C112.17 12.8271 109.65 18.1071 106.89 22.3871C109.09 25.6271 112.49 28.6671 114.89 30.6671V38.4671C110.17 35.0671 106.81 31.8671 103.33 27.2271C100.09 31.2271 93.9296 36.3071 88.8096 38.6271ZM112.01 5.82712V0.547119H115.05V5.82712H112.01Z" fill="#53573E"/>
<path d="M64.5867 26.227V19.947H83.0667V26.227H64.5867Z" fill="#53573E"/>
<path d="M39.0183 31.867C46.3383 30.787 50.3783 27.667 50.3783 19.547V5.427H56.5783V19.547C56.5783 30.867 50.7383 36.467 39.0183 38.467V31.867ZM34.7383 24.187V5.427H40.9383V24.187H34.7383Z" fill="#53573E"/>
<path d="M0.950439 31.027C12.7104 30.187 18.9104 23.147 21.1904 13.627H27.5504C24.9504 26.747 16.0304 36.147 0.950439 37.547V31.027ZM0.950439 22.427V16.147H12.6704V22.427H0.950439ZM0.950439 12.707V6.427H12.6704V12.707H0.950439Z" fill="#53573E"/>
</svg>
