<svg width="68" height="150" viewBox="0 0 68 150" fill="none" xmlns="http://www.w3.org/2000/svg">
<g clip-path="url(#clip0_38_1000)">
<path d="M44.2598 80.1428C45.5561 70.1737 46.8524 60.2045 48.1488 50.2354C50.317 51.3367 52.6802 52.0365 55.1008 52.2888C54.6878 56.9579 54.2633 61.65 53.2882 66.2388C52.336 70.7129 50.8562 75.0952 50.4546 79.6495C48.3897 79.7872 46.3247 79.9249 44.2712 80.1428H44.2598Z" fill="#2b2b2b"/>
<path d="M6.2283 145.602C1.53625 125.79 -0.37957 104.234 0.0563657 83.6417C0.148142 82.8158 0.19403 81.7259 0.870877 81.1408C1.58214 80.6246 1.69686 81.5079 1.69686 82.2307C2.77523 102.662 5.17287 122.991 8.47681 143.17C8.76361 144.466 7.62788 146.359 6.2283 145.613V145.602Z" fill="#2b2b2b"/>
<path d="M58.6233 146.933C54.9981 143.709 61.0438 130.126 60.9865 124.792C64.3478 110.108 65.8162 95.0793 65.6785 80.1084C51.0862 81.3014 16.1654 83.3549 3.9707 79.8675C12.6091 78.0549 23.5419 80.659 33.0866 80.0969C44.1686 79.9019 55.2046 78.3646 66.2292 77.791C68.3171 78.3531 67.2158 82.4486 67.4337 84.135C67.8697 103.683 66.0342 123.105 61.3192 142.103C60.7915 143.766 60.9865 146.956 58.6118 146.921L58.6233 146.933Z" fill="#2b2b2b"/>
<path d="M17.1953 149.72C15.245 149.434 7.32935 149.067 7.23758 146.761C7.09991 145.74 8.28153 144.547 9.17634 145.35C16.3119 146.979 23.6769 146.267 30.9043 145.946C37.3515 145.613 43.9365 146.153 50.2575 144.57C51.6342 144.501 54.5939 142.413 55.0528 144.478C52.1275 151.464 24.7553 149.17 17.1953 149.72Z" fill="#2b2b2b"/>
<path d="M1.62897 37.3304C0.963598 37.2271 0.80299 36.4585 0.86035 35.8964C1.10126 33.6364 1.46837 31.3879 1.85841 29.1394C2.22552 27.3382 2.3976 25.411 3.1318 23.736C3.24652 23.6213 3.40713 23.5296 3.57921 23.564C3.77424 23.5984 3.92337 23.7705 3.98073 23.954C3.85454 25.9616 3.8316 27.9577 3.59068 29.9653C3.37272 32.0532 3.1318 34.1411 2.82206 36.2176C2.74176 36.7453 2.34024 37.3418 1.77811 37.3418C1.73222 37.3418 1.6978 37.3418 1.64044 37.3418L1.62897 37.3304Z" fill="#2b2b2b"/>
<path d="M9.69416 79.7876C9.29264 79.5467 9.09761 79.1222 9.00584 78.6978C7.89306 73.065 6.67702 67.4552 5.72485 61.7766C4.01552 53.7347 2.29473 45.6699 1.2393 37.5018C1.20489 36.8365 1.03281 36.0678 1.42285 35.4828C2.05381 34.5994 3.10924 35.5516 2.69624 36.4005C4.77267 46.2894 6.61966 56.4421 9.07467 66.2162C10.0039 70.002 10.9561 73.7763 11.7247 77.5964C11.9656 78.5486 11.2773 79.9482 10.2792 79.9482C10.0957 79.9482 9.90065 79.9023 9.70563 79.7876H9.69416Z" fill="#2b2b2b"/>
<path d="M15.8641 80.8434C13.2599 67.8915 11.3441 56.4883 8.96939 43.4906C8.24666 39.5327 8.38432 40.026 7.63864 35.942C6.50291 30.3437 1.29463 24.4471 3.63492 23.231C4.19704 22.9442 7.00768 28.141 9.7036 35.529C10.2657 40.7717 10.5525 43.4906 11.608 48.6415C14.0974 59.4252 16.4147 68.6601 18.365 79.57C18.6518 80.6369 17.7799 81.7841 16.931 81.7841C16.5294 81.7841 16.1279 81.5202 15.8641 80.8434Z" fill="#2b2b2b"/>
<path d="M3.62318 25.0898C2.65954 27.2122 2.4301 28.4626 2.08594 31.365C2.45304 31.4912 6.78945 31.0209 6.86976 30.9406C5.83728 28.4397 5.13749 27.1204 3.62318 25.0898Z" fill="#2b2b2b"/>
<path d="M2.93547 39.3031C1.62767 39.1196 2.15538 37.7085 3.34846 37.7888C3.74998 37.8232 4.40389 37.6282 5.10368 37.4332C6.41149 37.0776 7.85696 36.7105 7.91432 37.8691C8.00609 39.1425 6.29677 39.372 4.78246 39.372C4.04826 39.372 3.34846 39.3146 2.93547 39.3031Z" fill="#2b2b2b"/>
<path d="M32.1094 44.8327C31.6276 40.7142 28.2663 34.4735 24.5493 40.1865C20.7751 46.6567 20.9127 54.4921 20.6718 61.8112C20.7865 62.6946 20.2474 65.3905 21.016 66.1706C20.6145 70.9773 20.6603 75.8415 20.0294 80.6482C19.995 81.3595 20.3965 82.2543 21.1995 82.2543H21.2454C21.9682 82.2313 22.5073 81.4627 22.5762 80.7973C23.2301 76.1283 23.5398 71.4247 23.276 66.7212C24.7214 66.9162 26.2931 66.7901 27.6927 66.9392C27.8533 66.9392 28.0368 66.9392 28.2319 66.9507C28.381 66.9621 28.5416 66.9736 28.6907 66.9736C28.6219 68.029 28.5531 69.0959 28.5072 70.1513C28.3695 73.4668 28.163 76.7592 27.7156 80.0402C27.6468 80.6253 27.8418 81.4398 28.5301 81.5545C28.5531 81.5545 28.576 81.5545 28.599 81.5545C30.5951 81.5545 29.9641 75.8873 30.3083 74.3271C30.4918 71.2985 30.7213 68.2699 31.0196 65.2528C31.639 58.4729 33.1533 51.6241 32.1323 44.8212L32.1094 44.8327ZM23.1039 64.6563C23.0465 64.0368 22.9777 63.4173 22.8974 62.7978C22.8285 62.3045 22.7712 61.7997 22.7482 61.295C22.8171 60.4805 22.8859 59.6774 22.9662 58.8859C23.253 55.123 23.253 51.6356 24.1134 47.8727C24.5379 45.9454 26.4766 37.1464 29.0808 41.7926C30.8589 46.0372 29.9871 50.6031 29.6544 55.1804C29.3676 58.4729 29.0578 61.7538 28.8055 65.0578C26.8896 65.0807 25.0082 64.9431 23.0924 64.6677L23.1039 64.6563Z" fill="#2b2b2b"/>
<path d="M35.3116 40.7711C33.4302 38.8897 33.0172 42.6869 32.2715 43.7538C32.0879 43.6047 31.9044 43.4326 31.7208 43.2834C30.7113 42.1133 30.849 44.4192 31.044 45.532C31.2734 46.8742 31.1931 48.8703 32.7877 48.3426C33.9005 52.6561 30.9522 62.1778 33.3728 64.7705C34.1414 64.7705 34.5315 63.933 34.5888 63.2906C34.7494 55.7764 35.1854 48.1705 35.323 40.7711H35.3116Z" fill="#2b2b2b"/>
<path d="M43.9735 80.8655C43.5032 80.7508 43.7785 80.051 43.767 79.7527C44.4209 73.7185 45.0748 67.7874 45.8779 61.7876C46.6809 56.9808 46.8186 51.9561 48.1378 47.2755C49.3883 44.5567 50.8223 41.8722 52.0383 39.1878C52.4857 38.4306 52.6578 37.3408 53.4264 36.8704C54.1033 36.6181 54.5277 37.4326 54.4015 38.0176C52.4743 42.1934 49.308 46.071 48.6541 50.763C47.266 59.5735 46.5547 68.4872 44.8913 77.2633C44.7421 78.3302 44.5701 79.3971 44.3865 80.464C44.3636 80.6475 44.2144 80.8655 44.0079 80.8655C43.9965 80.8655 43.985 80.8655 43.962 80.8655H43.9735Z" fill="#2b2b2b"/>
<path d="M50.4756 81.4051C50.0626 81.3363 49.9134 80.843 49.9708 80.4759C51.4163 71.5966 53.4239 62.8549 54.1122 53.8953C54.2957 52.8284 54.7431 51.6697 54.812 50.5914C55.0758 46.4844 53.9975 42.2856 53.4468 38.2131C53.355 37.7657 53.4468 37.2724 53.791 36.9626C55.6609 35.9761 55.9706 42.0333 56.1886 43.2034C56.418 45.6699 56.5901 48.3084 56.4983 50.7176C55.5462 53.597 55.2938 56.6486 54.8349 59.6313C53.7565 66.6636 52.2996 73.6386 51.2327 80.6709C51.1639 81.0036 50.923 81.4051 50.5559 81.4051C50.5214 81.4051 50.4985 81.4051 50.4641 81.4051H50.4756Z" fill="#2b2b2b"/>
<path d="M54.8126 43.0893C54.8126 42.6075 54.7552 42.1027 54.6864 41.6324C54.239 38.3858 54.2849 37.7778 51.956 41.7815C51.1645 43.1352 50.6253 43.9956 52.6329 44.3398C54.4455 44.6495 54.847 44.3398 54.8011 43.0893H54.8126Z" fill="#2b2b2b"/>
<path d="M54.8355 53.2532C52.3117 52.8631 49.8222 51.9454 47.5967 50.7179H47.6426C47.2869 50.7179 47.3328 50.041 47.677 50.041C50.1664 50.3852 52.5755 51.3144 55.0994 51.5897C55.9139 51.7618 55.6959 53.2532 54.9043 53.2532C54.8814 53.2532 54.8584 53.2532 54.8355 53.2532Z" fill="#2b2b2b"/>
<path d="M35.9188 79.7879C36.2859 66.4001 38.6492 53.1499 38.8671 39.7392C39.5899 27.1315 37.7658 14.3402 39.4522 1.93896C40.1405 1.23917 40.783 2.47815 40.4159 2.84525C40.0602 24.6764 40.0373 46.565 38.4083 68.3503C38.2247 72.1361 37.8117 75.9218 37.9035 79.719C37.9035 80.5221 37.3299 81.0039 36.8022 81.0039C36.3318 81.0039 35.8959 80.6253 35.9188 79.7764V79.7879Z" fill="#2b2b2b"/>
<path d="M59.6066 78.8817C59.2051 78.8817 58.9642 78.4228 58.9986 78.0557C59.7328 72.1821 60.0311 66.2855 60.49 60.3889C61.3504 51.739 62.7385 43.1235 62.9335 34.4048C63.6907 23.9538 62.5205 13.4914 62.7729 3.02892C60.2835 2.86831 57.8055 2.9142 55.3276 2.94862C53.2053 2.98303 51.083 3.02892 48.9606 2.93714C47.7217 2.86831 46.4483 2.96009 45.1749 3.05186C43.1902 3.18953 41.2056 3.33866 39.3356 2.87978C37.2707 -0.125877 46.0812 -0.045573 50.8191 0.023259C52.0695 0.0462029 53.0332 0.0576749 53.4462 0.023259C56.5895 0.137979 59.7558 0.137979 62.8876 0.424779C64.4478 0.505082 64.9755 1.65228 64.6428 3.04039C64.3102 7.503 64.4822 11.8853 64.6428 16.3135C65.1935 24.1259 63.8972 31.8695 63.5759 39.659C63.335 48.2286 62.4173 56.9014 61.3963 65.3677C60.9489 69.6582 60.6047 73.7423 60.3408 77.9984C60.3064 78.3769 60.0885 78.8702 59.6411 78.8817H59.6181H59.6066Z" fill="#2b2b2b"/>
<path d="M56.7623 8.48922C56.4526 8.48922 56.1084 8.4548 55.9364 8.15653C55.5578 7.57146 55.9937 6.69959 56.7164 6.71106C58.9535 6.63075 61.1676 6.35543 63.3931 6.17188C64.9074 6.24071 64.6665 8.92515 63.267 8.99398C61.0184 8.83338 58.9535 8.5351 56.7738 8.47774L56.7623 8.48922Z" fill="#2b2b2b"/>
<path d="M60.1376 15.3383C59.5067 15.2924 58.9216 15.258 58.5316 15.3383C58.348 15.3154 58.1645 15.3269 57.9694 15.3383C57.4876 15.3383 57.0058 15.3613 56.6616 15.0286C56.0995 14.4665 56.3519 13.1816 57.1664 12.998C58.9331 13.2963 60.6998 13.216 62.5009 13.216C63.0401 13.216 63.2925 13.7781 63.2695 14.237C63.2466 15.2007 62.3288 15.4072 61.2734 15.4072C60.9063 15.4072 60.5162 15.3842 60.1376 15.3498V15.3383Z" fill="#2b2b2b"/>
<path d="M59.5848 23.9766C58.7129 23.8848 57.8295 23.7816 56.9806 23.6325C56.0629 23.2653 56.3382 21.7969 57.1986 21.5446C59.1603 21.4872 61.0876 21.0742 63.0493 20.948C63.8523 20.9021 64.2309 21.7855 64.1965 22.4279C64.1277 23.816 63.0149 24.0913 61.7989 24.0913C61.0188 24.0913 60.2042 23.9881 59.5848 23.9766Z" fill="#2b2b2b"/>
<path d="M60.0429 32.4996C59.6184 32.4766 59.2054 32.4537 58.8727 32.4651C58.3335 32.4307 57.6338 32.4766 57.2093 32.1898C56.498 31.708 56.8078 30.664 57.8058 30.492C58.3106 30.492 58.8268 30.492 59.3316 30.492C60.3526 30.492 61.3851 30.469 62.4061 30.5378C63.0485 30.5723 63.3124 31.1229 63.2894 31.4785C63.2091 32.3619 62.234 32.534 61.1327 32.534C60.7771 32.534 60.3985 32.511 60.0314 32.4996H60.0429Z" fill="#2b2b2b"/>
<path d="M57.2109 42.0675C56.534 41.7577 56.6487 40.8515 57.3141 40.5761C58.794 40.1746 60.4574 40.1861 62.0176 40.2205C62.3159 40.232 62.5912 40.427 62.7404 40.5991C63.3025 41.2415 62.878 42.492 61.6964 42.5378C60.1936 42.492 58.6219 42.4461 57.2109 42.0675Z" fill="#2b2b2b"/>
<path d="M60.077 51.6807C58.8954 51.5775 56.6354 51.4284 57.4729 49.9829C57.8744 49.4322 58.6774 49.4896 59.4231 49.547C59.7443 49.5699 60.0541 49.5928 60.3179 49.5814C61.6831 49.6273 61.4193 51.6922 60.1918 51.6922C60.1459 51.6922 60.1114 51.6922 60.0656 51.6922L60.077 51.6807Z" fill="#2b2b2b"/>
<path d="M58.2301 59.7235C57.6565 59.6661 57.037 59.6317 56.4864 59.4596C55.6833 59.0925 55.7751 57.8076 56.4864 57.3832C57.6909 56.8555 59.102 56.821 60.4098 56.8096C61.9814 56.844 61.7405 59.6546 60.2836 59.7464C60.0197 59.7579 59.7444 59.7693 59.4805 59.7693C59.0675 59.7693 58.666 59.7464 58.2416 59.7235H58.2301Z" fill="#2b2b2b"/>
<path d="M55.9385 67.5469C55.2961 67.5469 55.2846 66.5718 55.7894 65.9982C57.3725 65.3902 58.7262 65.5737 60.4355 65.5049C60.9977 65.5278 61.1697 66.0785 61.1468 66.5947C61.1009 67.5125 61.055 67.7878 60.1487 67.7878C58.9098 67.7878 56.7301 67.5813 55.927 67.5469H55.9385Z" fill="#2b2b2b"/>
<path d="M56.6247 75.1645C55.9594 75.1301 55.3399 75.1071 54.8695 75.1415C53.7453 74.9121 53.6076 74.0058 54.3533 73.5125C55.7873 72.8816 58.0702 73.2372 59.7681 73.2601C60.4564 73.306 60.3417 73.8452 60.3187 74.2008C60.2384 75.0727 59.401 75.1874 58.0014 75.1874C57.5425 75.1874 57.0721 75.1645 56.6247 75.153V75.1645Z" fill="#2b2b2b"/>
</g>
<defs>
<clipPath id="clip0_38_1000">
<rect width="67.5356" height="149.721" fill="white"/>
</clipPath>
</defs>
</svg>
