<svg width="241" height="150" viewBox="0 0 241 150" fill="none" xmlns="http://www.w3.org/2000/svg">
<g clip-path="url(#clip0_38_1027)">
<path d="M3.30342 56.8685C33.6253 39.2756 70.7471 39.7354 103.065 29.1844C59.4823 1.9359 25.6153 -4.82783 -23.6547 11.3858C-26.4135 12.39 -56.3239 22.7474 -52.8755 18.2463C19.0451 -1.66981 34.0972 -12.9951 103.356 25.9175C121.638 42.5788 1.21017 40.8969 -2.05675 67.3227C8.37319 72.7192 27.648 64.2857 38.8644 61.9262C59.1314 55.828 79.9308 51.823 100.658 47.8301C102.049 47.6365 102.025 50.0322 100.827 50.3226C91.8974 51.6657 83.3308 54.4365 74.5586 56.4693C63.1001 55.223 -30.0676 92.3086 3.30342 56.8685Z" fill="#2b2b2b"/>
<path d="M102.472 47.2129C100.754 46.5112 98.5158 32.8748 101.976 34.5567C102.315 34.9196 102.025 35.3915 101.904 36.8193C101.202 39.0456 104.408 47.2129 102.472 47.2129Z" fill="#2b2b2b"/>
<path d="M-52.6334 91.5581C-67.4797 92.2357 -38.138 63.4747 -36.6981 57.57C-36.323 56.8562 -35.4881 57.449 -35.7422 58.1266C-41.0056 69.1736 -51.2903 77.7644 -55.6341 89.114C-29.4383 91.0257 -2.77054 85.9438 23.5826 86.1132C44.1884 83.8022 65.7985 89.1261 85.9324 85.3993C83.8391 80.1118 80.0761 60.97 85.0249 57.7031C85.884 57.8362 86.1622 58.8647 86.0534 59.6028C80.911 79.3132 98.7217 90.7353 72.417 88.7631C30.5157 88.7268 -10.8289 91.9937 -52.6334 91.5581Z" fill="#2b2b2b"/>
<path d="M-40.8469 108.958C-50.2121 108.329 -57.8228 107.687 -59.0086 96.5557C-59.2264 94.656 -58.9118 85.8232 -55.5117 88.0496C-54.8221 88.3037 -54.1929 89.7314 -55.306 89.6105C-59.0933 86.888 -57.1815 99.3386 -55.7174 100.912C-47.538 111.281 -10.3557 105.739 2.82092 105.352C31.6303 103.102 61.5287 103.731 89.9025 98.6005C92.0683 97.9834 94.0648 99.4475 91.4028 100.875C48.3642 106.659 2.73622 109.055 -40.8348 108.946L-40.8469 108.958Z" fill="#2b2b2b"/>
<path d="M90.5779 100.125C90.3843 99.2659 91.0619 98.6973 91.8 98.4795C89.6462 86.5008 90.2996 74.2559 90.5295 62.1562C90.59 61.6117 90.4811 58.0181 91.3886 59.2401C91.5096 59.4095 91.5459 59.6394 91.4128 59.8088C91.679 70.4445 91.9089 81.2132 92.3203 91.8125C92.2719 94.5955 95.2847 99.5805 91.5943 100.839C91.1224 101.069 90.6505 100.609 90.5658 100.125H90.5779Z" fill="#2b2b2b"/>
<path d="M-21.9125 116.423C-22.5054 115.104 -27.9503 108.002 -24.3204 108.352C-23.667 108.34 -23.667 109.393 -24.1994 109.574C-18.5851 118.371 -11.0712 126.659 -1.17365 130.471C33.9155 120.888 70.1541 116.798 105.945 111.051C111.354 114.16 99.9194 115.201 97.935 115.721C64.8181 121.747 30.6607 123.671 -1.62134 133.774C-10.0548 130.773 -17.1211 123.913 -21.9004 116.423H-21.9125Z" fill="#2b2b2b"/>
<path d="M104.191 113.931C102.171 109.49 113.968 109.962 117.368 108.607C127.483 106.332 139.45 106.235 148.077 100.21C145.475 93.4702 135.989 94.1115 130.52 90.6268C128.197 89.3322 97.2339 70.1299 102.86 69.6943C115.819 79.4467 130.375 87.4688 145.693 92.8895C157.817 101.262 144.822 106.32 136.159 107.675C125.729 109.902 114.754 114.161 104.203 113.919L104.191 113.931Z" fill="#2b2b2b"/>
<path d="M-5.74668 147.108C-19.9154 138.493 -25.808 131.789 -36.3589 117.608C-38.1376 114.777 -42.0216 112.152 -41.9732 108.618C-41.8522 108.013 -41.0415 107.796 -40.8358 108.485C-39.6379 112.466 -35.5845 114.995 -33.5034 118.564C-30.0913 123.67 -26.1468 128.595 -21.319 132.709C-11.7239 140.876 0.666164 147.156 -5.74668 147.12V147.108Z" fill="#2b2b2b"/>
<path d="M11.4474 149.818C-11.6509 152.323 1.53776 127.664 1.53776 136.92C-9.50927 156.848 51.3643 139.449 60.7053 141.421C71.4014 140.973 81.3111 137.065 91.7289 135.178C106.745 132.588 122.051 133.302 137.042 130.991C141.955 131.185 143.758 132.153 140.454 134.67C124.797 139.606 107.459 136.351 91.2691 138.505C65.0249 143.986 38.2482 148.391 11.4474 149.83V149.818Z" fill="#2b2b2b"/>
<path d="M130.423 135.468C131.318 131.463 141.567 131.826 145.245 130.471C142.256 126.309 142.74 103.839 149.468 104.517C146.177 113.241 143.793 118.202 147.556 128.474C148.476 129.951 150.024 131.657 148.185 133.157C145.354 133.363 130.447 138.856 130.435 135.468H130.423Z" fill="#2b2b2b"/>
<path d="M88.9206 122.558C107.361 119.763 125.849 115.068 144.071 112.152C145.91 113.205 145.378 113.495 142.897 114.354C125.062 118.142 106.864 120.029 88.9932 123.671C88.4124 123.804 88.3519 122.667 88.9206 122.558Z" fill="#2b2b2b"/>
<path d="M-1.33001 144.046C-2.41898 140.138 11.9797 140.429 14.7021 139.703C35.3805 137.561 55.7806 133.568 76.5558 133.048C77.6568 133.108 77.4874 135.032 76.459 135.117C50.9649 138.057 24.5997 138.178 -0.386227 143.696C-0.434626 144.155 -1.03961 144.518 -1.3421 144.046H-1.33001Z" fill="#2b2b2b"/>
<path d="M41.9365 98.1645C32.5351 97.6805 23.0368 96.3254 13.6958 98.1645C9.52145 93.7481 60.074 97.8499 41.9365 98.1645Z" fill="#2b2b2b"/>
<path d="M78.5146 92.1392C81.3822 92.6474 85.3509 91.2559 86.9602 93.0709C81.1886 94.0752 73.4811 92.0303 67.3465 93.8211C66.8626 91.9577 74.195 92.0424 78.5146 92.1271V92.1392Z" fill="#2b2b2b"/>
<path d="M0.0486698 66.3065C1.57323 60.6196 57.619 42.7363 56.9899 47.7335C37.9691 52.5975 17.3391 55.1143 0.835152 66.5001C0.677856 67.0325 -0.0118287 66.8631 0.0486698 66.3065Z" fill="#2b2b2b"/>
<path d="M30.708 59.2281C50.1038 52.0046 80.22 44.3334 98.1759 41.9014C85.8343 46.1484 73.057 48.6046 60.3523 51.4359C50.4789 52.8274 39.8796 58.974 30.708 59.216V59.2281Z" fill="#2b2b2b"/>
</g>
<g clip-path="url(#clip1_38_1027)">
<path d="M218.487 78.7605C219.702 69.4149 220.917 60.0693 222.133 50.7236C224.165 51.7561 226.381 52.4121 228.65 52.6487C228.263 57.0258 227.865 61.4243 226.951 65.7261C226.058 69.9204 224.671 74.0286 224.294 78.2981C222.358 78.4271 220.423 78.5562 218.498 78.7605H218.487Z" fill="#2b2b2b"/>
<path d="M182.834 140.126C178.436 121.553 176.64 101.345 177.048 82.0411C177.134 81.2668 177.177 80.2451 177.812 79.6966C178.479 79.2127 178.586 80.0408 178.586 80.7183C179.597 99.872 181.845 118.929 184.942 137.846C185.211 139.061 184.146 140.836 182.834 140.137V140.126Z" fill="#2b2b2b"/>
<path d="M231.952 141.373C228.553 138.351 234.221 125.618 234.167 120.617C237.318 106.851 238.695 92.7626 238.566 78.7281C224.886 79.8465 192.149 81.7716 180.717 78.5022C188.815 76.803 199.064 79.2443 208.012 78.7173C218.401 78.5345 228.747 77.0934 239.082 76.5557C241.039 77.0826 240.007 80.922 240.211 82.5029C240.62 100.828 238.899 119.036 234.479 136.845C233.984 138.405 234.167 141.394 231.941 141.362L231.952 141.373Z" fill="#2b2b2b"/>
<path d="M193.115 143.986C191.286 143.717 183.866 143.373 183.78 141.211C183.651 140.254 184.759 139.136 185.597 139.889C192.287 141.416 199.191 140.749 205.966 140.448C212.01 140.136 218.183 140.641 224.109 139.157C225.4 139.093 228.174 137.135 228.604 139.071C225.862 145.621 200.202 143.47 193.115 143.986Z" fill="#2b2b2b"/>
<path d="M178.522 38.6251C177.898 38.5283 177.748 37.8078 177.802 37.2808C178.027 35.1622 178.372 33.0543 178.737 30.9464C179.081 29.258 179.243 27.4512 179.931 25.8811C180.039 25.7735 180.189 25.6875 180.35 25.7198C180.533 25.752 180.673 25.9133 180.727 26.0854C180.608 27.9674 180.587 29.8387 180.361 31.7208C180.157 33.6781 179.931 35.6354 179.641 37.5819C179.565 38.0766 179.189 38.6359 178.662 38.6359C178.619 38.6359 178.587 38.6359 178.533 38.6359L178.522 38.6251Z" fill="#2b2b2b"/>
<path d="M186.083 78.4271C185.707 78.2012 185.524 77.8033 185.438 77.4054C184.395 72.1249 183.255 66.866 182.362 61.5425C180.76 54.0037 179.146 46.4433 178.157 38.7861C178.125 38.1623 177.963 37.4418 178.329 36.8933C178.921 36.0652 179.91 36.9578 179.523 37.7537C181.469 47.024 183.201 56.5417 185.502 65.7045C186.373 69.2535 187.266 72.7917 187.987 76.373C188.212 77.2656 187.567 78.5776 186.631 78.5776C186.459 78.5776 186.277 78.5346 186.094 78.4271H186.083Z" fill="#2b2b2b"/>
<path d="M191.867 79.417C189.426 67.2752 187.63 56.5853 185.404 44.4005C184.726 40.6902 184.855 41.1526 184.156 37.324C183.091 32.0758 178.209 26.548 180.403 25.4081C180.93 25.1392 183.565 30.011 186.092 36.9368C186.619 41.8516 186.888 44.4005 187.877 49.2292C190.211 59.3384 192.383 67.9957 194.211 78.2232C194.48 79.2234 193.663 80.2989 192.867 80.2989C192.491 80.2989 192.114 80.0515 191.867 79.417Z" fill="#2b2b2b"/>
<path d="M180.392 27.1504C179.488 29.14 179.273 30.3122 178.951 33.0331C179.295 33.1514 183.36 32.7104 183.435 32.6352C182.467 30.2907 181.811 29.0539 180.392 27.1504Z" fill="#2b2b2b"/>
<path d="M179.747 40.4748C178.521 40.3027 179.016 38.9799 180.134 39.0552C180.511 39.0875 181.124 38.9047 181.78 38.7218C183.006 38.3885 184.361 38.0443 184.415 39.1305C184.501 40.3243 182.898 40.5393 181.479 40.5393C180.79 40.5393 180.134 40.4856 179.747 40.4748Z" fill="#2b2b2b"/>
<path d="M207.096 45.6581C206.645 41.7973 203.494 35.9468 200.009 41.3026C196.471 47.3681 196.6 54.7134 196.374 61.5747C196.482 62.4028 195.976 64.9301 196.697 65.6614C196.32 70.1675 196.363 74.7274 195.772 79.2336C195.74 79.9003 196.116 80.7392 196.869 80.7392H196.912C197.589 80.7177 198.095 79.9971 198.159 79.3734C198.772 74.9963 199.063 70.587 198.815 66.1776C200.171 66.3605 201.644 66.2422 202.956 66.382C203.106 66.382 203.279 66.382 203.461 66.3927C203.601 66.4035 203.752 66.4142 203.892 66.4142C203.827 67.4036 203.763 68.4038 203.719 69.3932C203.59 72.5013 203.397 75.5878 202.977 78.6636C202.913 79.212 203.096 79.9756 203.741 80.0832C203.763 80.0832 203.784 80.0832 203.806 80.0832C205.677 80.0832 205.085 74.7705 205.408 73.3078C205.58 70.4687 205.795 67.6295 206.075 64.8011C206.655 58.4452 208.075 52.0248 207.118 45.6474L207.096 45.6581ZM198.654 64.2418C198.6 63.6611 198.536 63.0804 198.461 62.4996C198.396 62.0372 198.342 61.564 198.321 61.0908C198.385 60.3272 198.45 59.5744 198.525 58.8323C198.794 55.3049 198.794 52.0355 199.601 48.508C199.998 46.7013 201.816 38.4526 204.257 42.8082C205.924 46.7873 205.107 51.0676 204.795 55.3586C204.526 58.4452 204.236 61.521 203.999 64.6182C202.203 64.6397 200.439 64.5107 198.643 64.2526L198.654 64.2418Z" fill="#2b2b2b"/>
<path d="M210.098 41.8512C208.334 40.0874 207.947 43.6472 207.248 44.6473C207.076 44.5075 206.904 44.3462 206.732 44.2064C205.786 43.1094 205.915 45.2711 206.097 46.3143C206.312 47.5725 206.237 49.4438 207.732 48.9491C208.775 52.9928 206.011 61.919 208.281 64.3495C209.001 64.3495 209.367 63.5644 209.421 62.9622C209.571 55.918 209.98 48.7878 210.109 41.8512H210.098Z" fill="#2b2b2b"/>
<path d="M218.218 79.438C217.778 79.3305 218.036 78.6744 218.025 78.3948C218.638 72.738 219.251 67.1779 220.004 61.5533C220.756 57.0472 220.886 52.3368 222.122 47.9489C223.295 45.4001 224.639 42.8836 225.779 40.367C226.198 39.6572 226.36 38.6356 227.08 38.1946C227.715 37.958 228.113 38.7216 227.994 39.2701C226.187 43.1847 223.219 46.8197 222.606 51.2183C221.305 59.4777 220.638 67.8339 219.079 76.0611C218.939 77.0613 218.778 78.0614 218.606 79.0616C218.584 79.2337 218.444 79.438 218.251 79.438C218.24 79.438 218.229 79.438 218.208 79.438H218.218Z" fill="#2b2b2b"/>
<path d="M224.314 79.9439C223.927 79.8793 223.787 79.4169 223.841 79.0728C225.196 70.7488 227.078 62.5539 227.723 54.1547C227.895 53.1545 228.315 52.0683 228.379 51.0574C228.626 47.2073 227.615 43.2711 227.099 39.4533C227.013 39.0339 227.099 38.5714 227.422 38.2811C229.175 37.3562 229.465 43.0345 229.67 44.1315C229.885 46.4437 230.046 48.9172 229.96 51.1757C229.067 53.875 228.831 56.7357 228.401 59.5319C227.39 66.1244 226.024 72.6631 225.024 79.2556C224.959 79.5675 224.733 79.9439 224.389 79.9439C224.357 79.9439 224.335 79.9439 224.303 79.9439H224.314Z" fill="#2b2b2b"/>
<path d="M228.379 44.024C228.379 43.5723 228.326 43.0991 228.261 42.6582C227.842 39.6147 227.885 39.0447 225.702 42.798C224.959 44.067 224.454 44.8736 226.336 45.1963C228.035 45.4866 228.412 45.1963 228.369 44.024H228.379Z" fill="#2b2b2b"/>
<path d="M228.401 53.5523C226.035 53.1866 223.701 52.3263 221.615 51.1755H221.658C221.325 51.1755 221.368 50.541 221.69 50.541C224.024 50.8636 226.282 51.7348 228.648 51.9929C229.412 52.1542 229.208 53.5523 228.466 53.5523C228.444 53.5523 228.422 53.5523 228.401 53.5523Z" fill="#2b2b2b"/>
<path d="M210.667 78.4271C211.011 65.8766 213.227 53.4552 213.431 40.8832C214.109 29.0641 212.399 17.0729 213.98 5.44729C214.625 4.79126 215.227 5.95275 214.883 6.29689C214.55 26.7626 214.528 47.2822 213.001 67.7049C212.829 71.2539 212.442 74.8028 212.528 78.3626C212.528 79.1154 211.99 79.5671 211.495 79.5671C211.054 79.5671 210.646 79.2122 210.667 78.4163V78.4271Z" fill="#2b2b2b"/>
<path d="M232.874 77.577C232.497 77.577 232.271 77.1469 232.304 76.8027C232.992 71.2964 233.272 65.7686 233.702 60.2408C234.508 52.132 235.81 44.0554 235.992 35.882C236.702 26.0846 235.605 16.2766 235.842 6.4685C233.508 6.31794 231.185 6.36096 228.862 6.39322C226.873 6.42548 224.883 6.4685 222.894 6.38247C221.732 6.31794 220.538 6.40398 219.345 6.49001C217.484 6.61907 215.624 6.75887 213.871 6.32869C211.935 3.51102 220.194 3.58631 224.636 3.65083C225.808 3.67234 226.711 3.6831 227.099 3.65083C230.045 3.75838 233.014 3.75838 235.949 4.02724C237.412 4.10252 237.907 5.17797 237.595 6.47926C237.283 10.6627 237.444 14.771 237.595 18.9222C238.111 26.246 236.896 33.5052 236.595 40.8075C236.369 48.8411 235.509 56.9715 234.551 64.9083C234.132 68.9304 233.809 72.759 233.562 76.7489C233.53 77.1038 233.325 77.5663 232.906 77.577H232.884H232.874Z" fill="#2b2b2b"/>
<path d="M230.207 11.5884C229.917 11.5884 229.594 11.5562 229.433 11.2765C229.078 10.7281 229.487 9.91072 230.164 9.92148C232.261 9.84619 234.337 9.58809 236.423 9.41602C237.843 9.48054 237.617 11.9971 236.305 12.0616C234.197 11.9111 232.261 11.6314 230.218 11.5777L230.207 11.5884Z" fill="#2b2b2b"/>
<path d="M233.371 18.0084C232.78 17.9653 232.231 17.9331 231.865 18.0084C231.693 17.9869 231.521 17.9976 231.338 18.0084C230.887 18.0084 230.435 18.0299 230.112 17.718C229.585 17.191 229.822 15.9865 230.586 15.8145C232.242 16.0941 233.898 16.0188 235.586 16.0188C236.092 16.0188 236.329 16.5458 236.307 16.9759C236.286 17.8793 235.425 18.0729 234.436 18.0729C234.092 18.0729 233.726 18.0514 233.371 18.0191V18.0084Z" fill="#2b2b2b"/>
<path d="M232.853 26.1064C232.036 26.0204 231.208 25.9236 230.412 25.7838C229.551 25.4396 229.809 24.0631 230.616 23.8265C232.455 23.7727 234.262 23.3855 236.101 23.2672C236.854 23.2242 237.209 24.0523 237.176 24.6546C237.112 25.9559 236.069 26.214 234.929 26.214C234.197 26.214 233.434 26.1172 232.853 26.1064Z" fill="#2b2b2b"/>
<path d="M233.282 34.0974C232.884 34.0759 232.497 34.0544 232.185 34.0651C231.68 34.0329 231.024 34.0759 230.626 33.807C229.959 33.3553 230.25 32.3767 231.185 32.2154C231.658 32.2154 232.142 32.2154 232.616 32.2154C233.573 32.2154 234.541 32.1938 235.498 32.2584C236.1 32.2906 236.347 32.8069 236.326 33.1402C236.251 33.9683 235.336 34.1297 234.304 34.1297C233.971 34.1297 233.616 34.1081 233.272 34.0974H233.282Z" fill="#2b2b2b"/>
<path d="M230.628 43.0662C229.993 42.7759 230.101 41.9263 230.725 41.6682C232.112 41.2918 233.671 41.3025 235.134 41.3348C235.413 41.3455 235.672 41.5284 235.811 41.6897C236.338 42.2919 235.94 43.4642 234.833 43.5072C233.424 43.4642 231.951 43.4211 230.628 43.0662Z" fill="#2b2b2b"/>
<path d="M233.314 52.0783C232.207 51.9815 230.088 51.8417 230.873 50.4866C231.25 49.9704 232.002 50.0242 232.701 50.078C233.003 50.0995 233.293 50.121 233.54 50.1102C234.82 50.1532 234.573 52.089 233.422 52.089C233.379 52.089 233.347 52.089 233.304 52.089L233.314 52.0783Z" fill="#2b2b2b"/>
<path d="M231.583 59.6174C231.045 59.5636 230.465 59.5313 229.948 59.37C229.196 59.0259 229.282 57.8214 229.948 57.4235C231.078 56.9288 232.4 56.8965 233.626 56.8857C235.1 56.918 234.874 59.5529 233.508 59.6389C233.261 59.6496 233.003 59.6604 232.755 59.6604C232.368 59.6604 231.992 59.6389 231.594 59.6174H231.583Z" fill="#2b2b2b"/>
<path d="M229.435 66.9524C228.832 66.9524 228.822 66.0383 229.295 65.5005C230.779 64.9305 232.048 65.1026 233.65 65.0381C234.177 65.0596 234.339 65.5758 234.317 66.0598C234.274 66.9201 234.231 67.1782 233.382 67.1782C232.22 67.1782 230.177 66.9846 229.424 66.9524H229.435Z" fill="#2b2b2b"/>
<path d="M230.078 74.0935C229.454 74.0612 228.874 74.0397 228.433 74.072C227.379 73.8569 227.25 73.0073 227.949 72.5449C229.293 71.9534 231.433 72.2867 233.025 72.3083C233.67 72.3513 233.563 72.8567 233.541 73.1901C233.466 74.0075 232.681 74.115 231.369 74.115C230.938 74.115 230.498 74.0935 230.078 74.0827V74.0935Z" fill="#2b2b2b"/>
</g>
<defs>
<clipPath id="clip0_38_1027">
<rect width="215.617" height="150" fill="white" transform="translate(-65)"/>
</clipPath>
<clipPath id="clip1_38_1027">
<rect width="63.3115" height="140.357" fill="white" transform="translate(176.995 3.62988)"/>
</clipPath>
</defs>
</svg>
