<svg width="17" height="17" viewBox="0 0 17 17" fill="none" xmlns="http://www.w3.org/2000/svg">
<g clip-path="url(#clip0_341_1861)">
<path d="M4.33333 6.83333H6.83333M6.83333 6.83333H9.33333M6.83333 6.83333V4.33333M6.83333 6.83333V9.33333M11 11L16 16M6.83333 12.6667C6.06729 12.6667 5.30875 12.5158 4.60101 12.2226C3.89328 11.9295 3.25022 11.4998 2.70854 10.9581C2.16687 10.4164 1.73719 9.77339 1.44404 9.06565C1.15088 8.35792 1 7.59938 1 6.83333C1 6.06729 1.15088 5.30875 1.44404 4.60101C1.73719 3.89328 2.16687 3.25022 2.70854 2.70854C3.25022 2.16687 3.89328 1.73719 4.60101 1.44404C5.30875 1.15088 6.06729 1 6.83333 1C8.38043 1 9.86416 1.61458 10.9581 2.70854C12.0521 3.80251 12.6667 5.28624 12.6667 6.83333C12.6667 8.38043 12.0521 9.86416 10.9581 10.9581C9.86416 12.0521 8.38043 12.6667 6.83333 12.6667Z" stroke="#CC2200" stroke-width="1.33922" stroke-linecap="round" stroke-linejoin="round"/>
</g>
<defs>
<clipPath id="clip0_341_1861">
<rect width="17" height="17" fill="white"/>
</clipPath>
</defs>
</svg>
