<svg width="30" height="20" viewBox="0 0 30 20" fill="none" xmlns="http://www.w3.org/2000/svg">
<path d="M28.6951 5.49006C27.9739 5.49006 27.3901 6.08301 27.3901 6.81549C27.3901 7.01081 27.4382 7.19916 27.5137 7.36659L20.2266 10.7429L15.5151 2.54622C15.9821 2.34391 16.3118 1.87653 16.3118 1.32543C16.3118 0.592955 15.728 0 15.0069 0C14.2857 0 13.7019 0.592955 13.7019 1.32543C13.7019 1.86955 14.0247 2.33694 14.4849 2.53924L9.96566 10.7429L2.49313 7.28985C2.56868 7.12243 2.60989 6.94105 2.60989 6.73875C2.60989 6.00628 2.0261 5.41332 1.30495 5.41332C0.583792 5.41332 0 6.00628 0 6.73875C0 7.47123 0.583792 8.06418 1.30495 8.06418C1.43544 8.06418 1.55907 8.03627 1.67583 8.0014L5.19231 20H24.8146L28.3242 8.07813C28.4409 8.11301 28.5646 8.14091 28.6951 8.14091C29.4162 8.14091 30 7.54796 30 6.81549C30 6.08301 29.4162 5.49006 28.6951 5.49006Z" fill="#D2AD16"/>
</svg>
