<svg width="266" height="92" viewBox="0 0 266 92" fill="none" xmlns="http://www.w3.org/2000/svg">
<path d="M1.28649 43.3144L0.116954 42.6224L0.783591 41.4261C0.526293 40.4526 0.257299 39.4674 0 38.4939C0.327471 37.5087 1.23971 36.2538 2.73672 34.729C3.64896 33.7321 4.8302 32.6648 6.28043 31.5271C9.25105 28.935 12.362 26.2492 15.625 23.4577C18.8764 20.678 22.116 18.8484 25.3322 17.9804C26.2211 17.7459 27.7649 17.3236 29.9519 16.7372C32.1389 16.1508 33.8465 15.6933 35.0862 15.3532C39.6006 14.1334 43.2613 13.5587 46.0681 13.6174C49.9861 13.7464 53.2842 14.9662 55.9508 17.265C58.1729 19.2471 59.5646 21.3114 60.1377 23.446C60.8745 26.2023 60.2079 29.627 58.1495 33.7204C55.4245 39.1742 53.9625 42.4817 53.7637 43.6428C60.0792 44.5225 64.9094 45.8361 68.2426 47.5837C73.026 50.1288 76.1019 53.9289 77.4586 59.0075C79.3065 65.9391 78.4527 71.7917 74.8973 76.5771C70.6753 82.1951 61.9622 86.781 48.7581 90.3348C43.6238 91.7071 39.2497 92.2232 35.6359 91.8713C30.3729 91.3787 27.414 89.0799 26.7591 84.9865C27.4842 84.9396 29.9402 85.0921 34.1389 85.4322C37.5773 85.6785 40.0801 85.5964 41.659 85.1742C43.3665 84.7168 44.5477 83.8606 45.2144 82.6173C45.8693 81.3741 45.8576 79.4858 45.1793 76.9406C44.6881 75.0875 44.3957 71.1232 44.3138 65.036C44.2788 62.1742 44.0448 59.8871 43.577 58.1747C43.308 57.1426 42.9104 56.0753 42.3841 54.9611C38.7118 57.1309 35.0628 59.242 31.4372 61.318C30.6887 61.5174 29.7999 61.6464 28.7941 61.6933C28.2561 58.0222 29.4256 54.8672 32.3261 52.2517C34.5482 50.4103 36.2557 48.9911 37.4603 48.0059C39.7994 46.0472 41.4485 43.1854 42.4192 39.3971C43.7057 34.342 44.6062 31.3863 45.1091 30.5067C46.3254 31.2104 47.2026 31.7499 47.7406 32.1135C48.6294 32.6882 49.4832 33.4154 50.3019 34.2951C51.6585 32.8055 52.6176 31.3512 53.1556 29.932C53.6935 28.5128 53.8339 27.3165 53.5649 26.3313C52.9333 23.9503 50.3837 22.238 45.9161 21.1941C42.0098 20.3027 38.1504 20.1268 34.3494 20.7015C33.8699 20.8305 33.3319 20.9595 32.7471 21.0768C32.1506 21.1941 31.753 21.2879 31.5542 21.3348C27.9988 22.2966 24.3498 24.2788 20.6073 27.3048C18.9816 28.6418 15.8473 31.574 11.1925 36.1013C7.29792 39.9131 4.09339 42.599 1.57888 44.1706L1.33327 43.2441L1.28649 43.3144ZM52.0094 52.4042C50.5592 53.3073 49.6937 55.3833 49.3779 58.6204C49.1206 60.9661 49.1557 63.3353 49.4598 65.7163C49.7639 68.0972 50.0914 70.3257 50.4188 72.4134C50.758 74.4894 51.1673 76.4598 51.6702 78.3129C52.1498 80.0957 52.8047 81.2568 53.6468 81.8081C54.4888 82.3593 55.5648 82.4531 56.863 82.1013C58.2314 81.7377 60.0792 80.6821 62.4066 78.958C63.4358 78.1722 64.5118 77.3629 65.6111 76.5536C68.2777 74.7356 70.2074 72.4368 71.4121 69.6454C72.6167 66.8657 72.8389 64.0977 72.1138 61.3532C71.6343 59.5704 70.7922 57.9753 69.5759 56.5796C68.3596 55.1839 66.6754 54.0345 64.5352 53.1314C62.8043 52.4159 60.9213 51.8999 58.8863 51.5597C56.8513 51.2196 55.1204 51.243 53.6819 51.6301C53.062 51.7943 52.5123 52.0523 52.0211 52.4042H52.0094Z" fill="#A98778"/>
<path d="M93.1657 41.3431C96.1831 41.9295 98.6859 43.3252 100.662 45.5068C102.639 47.7 104.054 50.3742 104.896 53.5292C105.048 54.0805 105.153 54.6552 105.247 55.2533C105.329 55.8515 105.411 56.2972 105.493 56.5669C105.984 60.0386 104.908 63.9678 102.265 68.3543C99.4929 73.0692 96.2883 75.9193 92.6628 76.8928C91.9727 77.0805 91.2359 77.1626 90.4289 77.1626C88.3823 77.1977 86.7683 76.6934 85.5754 75.6496C84.3824 74.6057 83.5404 73.1631 83.0375 71.3099C82.1603 68.0142 82.2773 63.6863 83.4117 58.3028C84.0316 55.4175 85.0959 51.7113 86.6046 47.184C86.9671 46.058 87.318 44.9321 87.6805 43.8061C88.2419 42.3283 89.0372 41.4604 90.0547 41.1789C90.733 40.9912 91.7739 41.0499 93.1774 41.3314L93.1657 41.3431ZM91.1541 49.0606C90.3237 51.1952 89.5518 53.7872 88.8384 56.8602C87.7741 61.4109 87.5402 64.7536 88.1016 66.8765C88.7097 69.1401 90.1716 69.9611 92.499 69.3395L93.423 69.0932C95.5398 68.2253 97.2707 66.5715 98.6391 64.1085C100.007 61.6455 100.592 59.2645 100.417 56.954C100.312 55.7342 100.148 54.7138 99.9256 53.8811C99.4344 52.0279 98.2298 50.2921 96.3351 48.6735C96.1597 48.5797 94.8264 47.571 92.3353 45.6592C92.2885 45.7531 92.1365 46.2105 91.8792 47.055C91.6219 47.8994 91.388 48.568 91.1541 49.0723V49.0606Z" fill="#A98778"/>
<path d="M111.458 71.5103C111.06 70.5837 110.733 68.6485 110.452 65.7046C110.171 62.7607 109.961 60.0279 109.797 57.4945C109.715 56.9315 109.575 56.2278 109.353 55.4068C109.131 54.5857 108.955 53.9289 108.827 53.4481C108.511 52.2752 108.195 51.1023 107.879 49.8943C107.563 48.6979 107.236 47.4781 106.897 46.2349C105.505 41.0156 105.061 37.4384 105.564 35.5031C106.066 33.5679 107.283 32.3364 109.201 31.8203C110.066 35.0457 110.756 37.9544 111.283 40.5347C113.13 49.6128 114.16 54.5271 114.37 55.2777C116.3 51.2313 117.773 48.1115 118.803 45.9182C120.779 41.7897 122.931 39.4088 125.259 38.7754C125.668 38.6699 126.019 38.6112 126.311 38.5995C128.545 38.447 131.305 40.957 134.591 46.1293C136.907 49.8708 139.27 53.6005 141.655 57.3068C143.211 55.4654 144.778 53.624 146.334 51.7826C146.907 51.1844 147.456 50.5628 147.983 49.9412C148.509 49.3078 148.872 48.9677 149.082 48.909C149.222 48.8739 150.217 49.3078 152.076 50.2227C150.579 53.6709 149.152 56.4623 147.819 58.597C145.667 62.0687 143.597 64.0625 141.609 64.6021C140.509 64.8953 139.457 64.778 138.428 64.2385C137.398 63.6989 136.381 62.6082 135.352 60.9662C132.159 55.6179 129.013 50.2578 125.89 44.8861C123.843 47.3609 122.253 50.2227 121.142 53.4715C120.417 55.4419 119.551 58.7729 118.534 63.4761C118.159 65.6459 117.809 67.7688 117.493 69.8565C117.072 71.5924 116.043 72.6831 114.405 73.1288C113.785 73.293 112.967 73.3634 111.937 73.3517L111.446 71.4985L111.458 71.5103Z" fill="#A98778"/>
<path d="M154.191 54.8434C154.027 54.2218 154.039 53.307 154.226 52.0755C154.788 48.3927 155.045 46.4926 155.01 46.3519C154.799 42.0005 154.425 37.9776 153.875 34.2947C152.086 26.7532 150.753 20.7129 149.911 16.1504C148.273 7.54156 148.589 2.15808 150.881 0C151.595 1.27843 152.226 2.70933 152.799 4.29271C153.372 5.87608 153.864 7.44773 154.285 9.03111C154.963 11.5762 155.934 16.8659 157.209 24.9118C157.84 28.9347 158.437 31.9842 158.986 34.0367C159.934 33.1922 161.805 30.7058 164.588 26.5773C166.787 23.2698 169.149 21.1586 171.699 20.2555C176.763 18.895 180.623 18.5196 183.278 19.1295C185.465 19.6456 187.348 20.9123 188.915 22.9179C190.482 24.9235 191.57 27.0699 192.166 29.3335C193.78 35.3855 191.71 41.5079 185.956 47.6889C181.687 52.2983 176.05 56.4385 169.033 60.0862C168.132 56.72 171.325 52.2631 178.611 46.7272C185.897 41.1912 188.938 36.1948 187.745 31.7262C187.429 30.5533 186.798 29.1576 185.851 27.5273C184.903 25.9087 183.617 24.8062 182.003 24.255C180.389 23.692 178.623 23.6685 176.705 24.1846C174.167 24.8649 171.711 26.2371 169.337 28.3131C166.962 30.3891 165.22 32.5472 164.132 34.7874C163.044 37.0275 162.202 39.5727 161.606 42.411C161.009 45.2611 160.624 48.1346 160.448 51.0551C160.331 53.0724 160.132 54.4681 159.863 55.2422C159.594 56.0163 159.045 56.5089 158.226 56.7318C157.536 56.9194 156.378 56.9312 154.717 56.7904L154.191 54.8317V54.8434Z" fill="#A98778"/>
<path d="M207.09 10.7337C210.107 11.3201 212.598 12.7041 214.586 14.8974C216.563 17.0907 217.978 19.7648 218.82 22.9198C218.972 23.4711 219.077 24.0458 219.171 24.644C219.253 25.2421 219.335 25.6878 219.416 25.9576C219.908 29.4293 218.832 33.3584 216.189 37.7449C213.417 42.4599 210.212 45.3099 206.587 46.2834C205.897 46.4711 205.16 46.5532 204.353 46.5532C202.306 46.5884 200.692 46.084 199.499 45.0402C198.306 43.9963 197.464 42.5537 196.961 40.7006C196.084 37.4048 196.201 33.0769 197.336 27.6934C197.955 24.8082 199.02 21.1019 200.528 16.5746C200.891 15.4486 201.242 14.3227 201.604 13.1967C202.166 11.7189 202.961 10.851 203.979 10.5695C204.657 10.3818 205.709 10.4405 207.101 10.722L207.09 10.7337ZM205.078 18.4512C204.259 20.5858 203.487 23.1779 202.762 26.2391C201.698 30.7898 201.464 34.1325 202.025 36.2554C202.634 38.519 204.095 39.34 206.423 38.7184L207.347 38.4721C209.464 37.6042 211.195 35.9504 212.563 33.4874C213.92 31.0244 214.516 28.6434 214.341 26.3329C214.235 25.1131 214.072 24.0927 213.849 23.26C213.358 21.4068 212.154 19.671 210.259 18.0524C210.084 17.9586 208.75 16.9499 206.259 15.0499C206.212 15.132 206.06 15.6011 205.803 16.4339C205.546 17.2783 205.312 17.9469 205.078 18.4512Z" fill="#A98778"/>
<path d="M225.382 40.897C224.984 39.9704 224.657 38.0352 224.388 35.0913C224.107 32.1474 223.897 29.4146 223.733 26.8812C223.651 26.3182 223.511 25.6145 223.288 24.7935C223.066 23.9725 222.891 23.3156 222.762 22.8348C222.446 21.6619 222.131 20.489 221.815 19.281C221.499 18.0846 221.172 16.8649 220.832 15.6216C219.441 10.4023 218.996 6.82508 219.499 4.88985C220.002 2.95461 221.218 1.72309 223.136 1.20703C224.002 4.43243 224.692 7.34115 225.218 9.92146C227.066 18.9995 228.095 23.9138 228.306 24.6645C230.235 20.618 231.709 17.4982 232.738 15.3049C234.715 11.1764 236.867 8.79551 239.194 8.16216C239.603 8.0566 239.954 7.99795 240.247 7.98623C242.481 7.83375 245.241 10.3437 248.527 15.5161C250.843 19.2575 253.205 22.9755 255.591 26.6935C257.147 24.8521 258.714 23.0107 260.269 21.1693C260.842 20.5711 261.392 19.9495 261.918 19.3279C262.445 18.6945 262.807 18.3544 263.018 18.2958C263.158 18.2606 264.152 18.6945 266.012 19.6094C264.515 23.0576 263.088 25.8491 261.755 27.9837C259.603 31.4554 257.532 33.461 255.544 33.9888C254.445 34.282 253.392 34.1647 252.363 33.6252C251.334 33.0857 250.316 31.9949 249.287 30.3529C246.094 25.0046 242.948 19.6446 239.826 14.2728C237.767 16.7476 236.188 19.6094 235.077 22.8582C234.352 24.8287 233.487 28.1596 232.469 32.8628C232.095 35.0326 231.744 37.1555 231.428 39.2432C231.007 40.9791 229.978 42.0699 228.341 42.5155C227.721 42.6798 226.902 42.7501 225.873 42.7384L225.382 40.8853V40.897Z" fill="#A98778"/>
</svg>
