<svg width="26" height="13" viewBox="0 0 26 13" fill="none" xmlns="http://www.w3.org/2000/svg">
<path d="M4.12277 13L2.10243 5.64751C3.75793 6.13798 7.90353 8.63517 7.90353 8.63517C7.90353 8.63517 9.92843 5.07121 13.0205 3.39281C16.1126 5.06671 18.1375 8.63517 18.1375 8.63517C18.1375 8.63517 22.2831 6.13798 23.9386 5.64751L21.9183 13C20.2536 11.6861 16.897 10.7862 13.0205 10.7862C9.144 10.7862 5.78739 11.6861 4.12277 13ZM14.3203 1.3051C14.3203 2.02505 13.7274 2.61019 12.9977 2.61019C12.268 2.61019 11.6751 2.02505 11.6751 1.3051C11.6751 0.585141 12.268 0 12.9977 0C13.7274 0 14.3203 0.585141 14.3203 1.3051ZM2.64514 3.91485C2.64514 4.63481 2.05228 5.21995 1.32259 5.21995C0.592889 5.21995 0 4.63481 0 3.91485C0 3.1949 0.592889 2.61019 1.32259 2.61019C2.05228 2.61019 2.64514 3.1949 2.64514 3.91485ZM24.6774 2.61019C25.4071 2.61019 26 3.1949 26 3.91485C26 4.63481 25.4071 5.21995 24.6774 5.21995C23.9477 5.21995 23.3549 4.63481 23.3549 3.91485C23.3549 3.1949 23.9477 2.61019 24.6774 2.61019Z" fill="white"/>
</svg>
