<svg width="92" height="84" viewBox="0 0 92 84" fill="none" xmlns="http://www.w3.org/2000/svg">
<path d="M0.000336324 40.8067L11.5319 12.5955C15.5312 18.1235 22.462 35.9998 22.462 35.9998C22.462 35.9998 37.4715 29.5285 51.2458 31.6079C56.8741 44.3413 54.5526 60.5366 54.5526 60.5366C54.5526 60.5366 73.6205 62.5391 80.0034 64.9495L55.8015 83.4728C53.7746 75.3059 45.4361 64.3982 33.2806 55.1039C21.125 45.8097 8.41292 40.622 0.000336324 40.8067ZM60.3952 28.0887C58.6457 30.3768 55.365 30.8144 53.0769 29.0649C50.7888 27.3154 50.3512 24.0348 52.1007 21.7467C53.8502 19.4586 57.1308 19.021 59.4189 20.7705C61.707 22.52 62.1447 25.8006 60.3952 28.0887ZM17.4434 8.39103C15.6939 10.6791 12.4135 11.1166 10.1254 9.36714C7.83734 7.61763 7.39959 4.33719 9.14909 2.04909C10.8986 -0.239016 14.1792 -0.676635 16.4673 1.07287C18.7554 2.82238 19.193 6.10293 17.4434 8.39103ZM89.7009 57.0679C91.989 58.8174 92.4266 62.0981 90.6771 64.3862C88.9276 66.6743 85.6471 67.1117 83.359 65.3622C81.0709 63.6127 80.6332 60.3323 82.3827 58.0442C84.1322 55.7561 87.4128 55.3184 89.7009 57.0679Z" fill="#6D4A39"/>
</svg>
