<svg width="68" height="35" viewBox="0 0 68 35" fill="none" xmlns="http://www.w3.org/2000/svg">
<path d="M10.6799 34.1316L5.44627 14.8276C9.73478 16.1153 20.4738 22.6717 20.4738 22.6717C20.4738 22.6717 25.7192 13.3145 33.7292 8.90786C41.7391 13.3027 46.9846 22.6717 46.9846 22.6717C46.9846 22.6717 57.7235 16.1153 62.0121 14.8276L56.7784 34.1316C52.4663 30.6819 43.7711 28.3192 33.7292 28.3192C23.6872 28.3192 14.992 30.6819 10.6799 34.1316ZM37.0962 3.42654C37.0962 5.31679 35.5604 6.85309 33.6701 6.85309C31.7799 6.85309 30.244 5.31679 30.244 3.42654C30.244 1.53629 31.7799 0 33.6701 0C35.5604 0 37.0962 1.53629 37.0962 3.42654ZM6.85215 10.2785C6.85215 12.1687 5.31636 13.705 3.42611 13.705C1.53586 13.705 0 12.1687 0 10.2785C0 8.38822 1.53586 6.85309 3.42611 6.85309C5.31636 6.85309 6.85215 8.38822 6.85215 10.2785ZM63.9259 6.85309C65.8162 6.85309 67.352 8.38822 67.352 10.2785C67.352 12.1687 65.8162 13.705 63.9259 13.705C62.0357 13.705 60.4999 12.1687 60.4999 10.2785C60.4999 8.38822 62.0357 6.85309 63.9259 6.85309Z" fill="#A98778"/>
</svg>
