<svg width="24" height="21" viewBox="0 0 24 21" fill="none" xmlns="http://www.w3.org/2000/svg">
<path d="M8.70176 20.3024L2.92929 15.3205C4.57748 14.806 9.41142 14.5716 9.41142 14.5716C9.41142 14.5716 9.10864 10.4838 10.7423 7.36782C14.2427 7.03627 17.9118 8.87262 17.9118 8.87262C17.9118 8.87262 19.9645 4.48991 21.0664 3.16063L23.4827 10.3927C21.3684 10.2283 18.0792 11.35 14.8594 13.5087C11.6396 15.6675 9.35272 18.2841 8.70176 20.3024ZM10.6593 4.90995C11.0602 5.50795 10.8936 6.32413 10.2875 6.73047C9.68144 7.13682 8.86314 6.98096 8.46222 6.38297C8.0613 5.78497 8.22791 4.96879 8.83399 4.56245C9.44008 4.1561 10.2584 4.31196 10.6593 4.90995ZM2.4152 13.5792C2.81613 14.1771 2.64954 14.9933 2.04346 15.3997C1.43737 15.806 0.619069 15.6501 0.218147 15.0522C-0.182775 14.4542 -0.0159226 13.6383 0.590163 13.232C1.19625 12.8257 2.01428 12.9812 2.4152 13.5792ZM19.9887 0.226409C20.5948 -0.179936 21.4128 -0.0244453 21.8138 0.573551C22.2147 1.17155 22.0481 1.98773 21.442 2.39407C20.8359 2.80042 20.0176 2.64455 19.6167 2.04655C19.2158 1.44855 19.3826 0.632755 19.9887 0.226409Z" fill="#AB563E"/>
</svg>
