<svg width="37" height="44" viewBox="0 0 37 44" fill="none" xmlns="http://www.w3.org/2000/svg">
<path d="M17.0449 35.1952C12.7369 35.0613 8.0942 34.9274 3.86438 35.5189L5.06966 33.9342C5.52724 36.4342 5.7728 38.9679 5.86208 41.5237L4.36655 40.6643C14.9578 38.4545 23.9085 31.9144 34.8681 31.0885L36.5868 31.0215L36.5534 32.8296C36.4976 36.1331 36.252 39.4921 35.9395 42.7956C33.2387 42.1148 30.5044 41.4008 27.837 40.5749C19.2546 37.9076 19.422 37.6952 28.2388 38.5657C30.4709 38.8001 32.6919 39.0903 34.9016 39.4251L33.0936 40.8539C33.0266 38.1419 33.0601 35.4299 33.194 32.7179L34.8793 34.459C32.5802 34.4813 29.991 34.9162 27.4799 35.4519L19.835 37.0927C14.69 38.1864 9.77936 40.1172 5.19241 42.6953L4.07636 43.298L3.70812 41.8474C2.93805 38.9122 2.43582 35.8985 2.16797 32.8852C7.22366 32.2714 12.4579 32.8403 17.1341 34.8939L17.056 35.1952H17.0449Z" fill="#AB563E"/>
<path d="M34.7207 1.49166C32.1873 -0.651153 29.6762 0.051673 28.8168 0.364166C27.4441 0.855227 27.2766 1.79308 26.7521 2.13905C26.2164 2.48503 25.837 2.40647 24.7656 1.97121C22.8794 1.11185 20.7478 0.609936 18.4376 0.609936C16.1274 0.609936 13.9957 1.11216 12.1096 2.00499L12.1319 1.97121C11.0605 2.40647 10.681 2.48503 10.1453 2.13905C9.60961 1.80424 9.45339 0.855227 8.08066 0.364166C7.2213 0.0628334 4.69906 -0.651153 2.1768 1.49166C-1.42803 4.53846 -0.0106794 9.78388 2.50043 10.699C4.24146 11.3352 4.31959 12.3508 4.25263 13.1878V13.1655C4.19682 13.7458 4.15215 14.3262 4.15215 14.9289C4.15215 22.9979 10.2346 29.2255 18.4487 29.2255C26.6628 29.2255 32.7899 22.9979 32.7899 14.9289C32.7899 14.2481 32.7341 13.6008 32.656 12.9535C32.6337 12.1611 32.8234 11.2791 34.4193 10.6876C36.9304 9.76128 38.3479 4.52702 34.743 1.48021L34.7207 1.49166Z" fill="#AB563E"/>
</svg>
