<svg width="61" height="65" viewBox="0 0 61 65" fill="none" xmlns="http://www.w3.org/2000/svg">
<path d="M57.3763 18.6517C53.1963 15.1117 49.0362 16.2816 47.6162 16.7916C45.3462 17.6016 45.0763 19.1615 44.1963 19.7115C43.3063 20.2715 42.6862 20.1415 40.9162 19.4315L40.9363 19.4615C37.8263 18.0115 34.3062 17.1915 30.4862 17.1915C26.6662 17.1915 23.1463 18.0215 20.0263 19.4915L20.0562 19.4415C18.2862 20.1515 17.6663 20.2815 16.7763 19.7215C15.8963 19.1615 15.6262 17.6016 13.3562 16.8016C11.9362 16.2916 7.77629 15.1315 3.59629 18.6615C-2.35371 23.7015 -0.0237436 32.3517 4.12626 33.8717C7.00626 34.9317 7.12627 36.6015 7.01627 37.9915L7.03623 37.9615C6.92623 38.9115 6.85624 39.8817 6.85624 40.8717C6.85624 54.2017 16.8962 64.4915 30.4762 64.4915C44.0562 64.4915 54.1563 54.2017 54.1563 40.8717C54.1563 39.7517 54.0662 38.6716 53.9262 37.6016C53.8862 36.2916 54.2063 34.8317 56.8363 33.8617C60.9863 32.3417 63.3162 23.6917 57.3662 18.6517H57.3763ZM30.4963 54.3917C22.9463 54.3917 17.5462 48.5116 17.5462 40.8516C17.5462 33.1916 22.9463 27.1517 30.4963 27.1517C38.0463 27.1517 43.4963 33.0316 43.4963 40.8516C43.4963 48.6716 37.9963 54.3917 30.4963 54.3917Z" fill="white"/>
<path d="M30.5172 13.6704C35.3672 13.6704 39.5572 14.8105 41.6372 16.4805L44.1672 7.1604C42.0972 7.7804 36.9172 10.9504 36.9172 10.9504C36.9172 10.9504 34.3872 6.43055 30.5172 4.31055C26.6472 6.43055 24.1172 10.9504 24.1172 10.9504C24.1172 10.9504 18.9372 7.7904 16.8672 7.1604L19.3972 16.4805C21.4772 14.8105 25.6772 13.6704 30.5172 13.6704Z" fill="white"/>
<path d="M30.4976 3.30005C31.4089 3.30005 32.1476 2.56142 32.1476 1.65015C32.1476 0.738877 31.4089 0 30.4976 0C29.5863 0 28.8477 0.738877 28.8477 1.65015C28.8477 2.56142 29.5863 3.30005 30.4976 3.30005Z" fill="white"/>
<path d="M15.8864 6.6106C16.7976 6.6106 17.5363 5.87172 17.5363 4.96045C17.5363 4.04918 16.7976 3.31055 15.8864 3.31055C14.9751 3.31055 14.2363 4.04918 14.2363 4.96045C14.2363 5.87172 14.9751 6.6106 15.8864 6.6106Z" fill="white"/>
<path d="M45.0973 6.6106C46.0086 6.6106 46.7473 5.87172 46.7473 4.96045C46.7473 4.04918 46.0086 3.31055 45.0973 3.31055C44.186 3.31055 43.4473 4.04918 43.4473 4.96045C43.4473 5.87172 44.186 6.6106 45.0973 6.6106Z" fill="white"/>
</svg>
