<svg width="1512" height="617" viewBox="0 0 1512 617" fill="none" xmlns="http://www.w3.org/2000/svg">
<path d="M1656.75 616.975C1659.37 596.08 1661.1 575.086 1661.79 554.043C1662.38 533 1661.71 511.92 1660.01 490.914L1659.31 483.043C1659.09 480.424 1658.85 477.791 1658.49 475.184L1656.53 459.491L1654.02 443.859C1653.65 441.251 1653.09 438.668 1652.58 436.073L1651.05 428.3C1646.79 407.6 1641.3 387.12 1634.54 367.008C1632.76 362.001 1631.1 356.957 1629.2 352L1623.36 337.151L1617 322.498C1614.8 317.65 1612.43 312.864 1610.15 308.041C1600.72 288.895 1590.02 270.289 1578.14 252.379C1554.37 216.561 1525.79 183.571 1493.36 154.351C1477.12 139.772 1459.95 126.122 1441.97 113.477C1423.98 100.832 1405.17 89.2393 1385.75 78.675C1366.32 68.1108 1346.25 58.5869 1325.69 50.1282C1320.53 48.0839 1315.39 45.9661 1310.18 43.983L1294.5 38.2296L1278.65 32.9168C1273.34 31.203 1267.97 29.6483 1262.65 28.008C1241.23 21.7159 1219.46 16.5259 1197.47 12.3761C1175.47 8.23853 1153.27 5.05566 1130.94 3.0481C1108.61 1.02826 1086.19 0.0244751 1063.77 0L1055.36 0.0244751H1051.15L1046.95 0.158997L1030.13 0.67334L1013.35 1.61591C1007.75 1.94641 1002.17 2.49707 996.586 2.92554C974.269 4.9209 952.043 7.85895 929.998 11.6537C907.967 15.5832 886.13 20.3818 864.514 25.9883L800.199 43.4199L767.898 51.4504L751.748 55.4655L735.507 59.1502C724.679 61.5862 713.865 64.0956 703.011 66.4827L670.36 73.1665C659.494 75.4924 648.549 77.4019 637.618 79.4094L621.221 82.4088C618.482 82.8984 615.755 83.4247 613.016 83.8899L604.785 85.2239L571.861 90.5614L538.821 95.2989C527.824 96.976 516.763 98.2488 505.728 99.6321L489.162 101.689C483.645 102.411 478.101 102.888 472.571 103.5L455.966 105.239C450.422 105.802 444.892 106.438 439.348 106.867L406.061 109.719L372.722 111.971C367.165 112.388 361.596 112.596 356.039 112.89L339.344 113.722C294.826 115.705 250.231 116.268 205.675 115.35L197.314 115.215L188.967 114.958L172.258 114.432C166.689 114.285 161.119 113.942 155.562 113.71L138.867 112.902L122.184 111.873L113.837 111.359L105.502 110.723L88.8321 109.437L72.1884 107.932C50.0012 105.814 27.866 103.305 5.80862 100.208C-5.21358 98.6531 -16.2358 97.0248 -27.2061 95.1396C-38.1763 93.2789 -49.1336 91.296 -60 88.8845C-16.6123 98.7999 27.6453 104.969 71.9807 109.756L88.6244 111.47L105.294 112.951L113.629 113.685L121.977 114.297L138.672 115.521L155.381 116.525C160.95 116.819 166.52 117.235 172.102 117.443L188.837 118.166L197.198 118.521L205.571 118.753C250.218 120.051 294.904 119.769 339.538 118.104L356.273 117.394C361.855 117.137 367.438 116.978 373.007 116.599L406.451 114.579L439.842 111.959C445.411 111.567 450.968 110.968 456.524 110.441L473.194 108.813C562.06 99.9258 650.263 85.2242 737.168 65.5524L753.474 61.9167L769.69 57.9138L802.107 49.8957L866.462 32.5376C887.883 27.0168 909.525 22.2793 931.348 18.4233C953.198 14.6897 975.204 11.8129 997.3 9.85431C1002.83 9.42584 1008.35 8.87494 1013.89 8.53217L1030.51 7.5896L1047.14 7.05096L1051.29 6.92847L1055.46 6.90393L1063.78 6.86749C1085.97 6.86749 1108.17 7.83447 1130.27 9.8053C1174.45 13.8082 1218.19 22.0344 1260.61 34.2758C1265.9 35.8794 1271.21 37.3972 1276.45 39.0742L1292.15 44.2645L1307.67 49.8957C1312.83 51.842 1317.92 53.9108 1323.03 55.9183C1343.4 64.2057 1363.29 73.5582 1382.54 83.9389C1421.05 104.712 1457.1 129.574 1489.49 158.219C1521.82 186.913 1550.38 219.377 1574.23 254.718C1598.06 290.059 1617.31 328.202 1631.13 368.06C1638.12 387.964 1643.84 408.273 1648.35 428.814L1649.97 436.538C1650.5 439.109 1651.09 441.679 1651.5 444.275L1654.19 459.809L1656.35 475.429C1656.74 478.024 1657 480.644 1657.26 483.251L1658.06 491.086C1660.03 512.006 1660.97 533.025 1660.67 554.043C1660.36 575.061 1658.99 596.067 1656.74 617L1656.75 616.975Z" fill="url(#paint0_linear_1_1801)"/>
<defs>
<linearGradient id="paint0_linear_1_1801" x1="-65.4786" y1="270.203" x2="1672.75" y2="322.519" gradientUnits="userSpaceOnUse">
<stop stop-color="#E1CF59"/>
<stop offset="0.5" stop-color="#F7F9E4"/>
<stop offset="0.52" stop-color="#F0F2DB"/>
<stop offset="0.64" stop-color="#C6C7A4"/>
<stop offset="0.75" stop-color="#A6A578"/>
<stop offset="0.85" stop-color="#8E8D59"/>
<stop offset="0.94" stop-color="#807E46"/>
<stop offset="1" stop-color="#7B7940"/>
</linearGradient>
</defs>
</svg>
