<svg width="1512" height="244" viewBox="0 0 1512 244" fill="none" xmlns="http://www.w3.org/2000/svg">
<path d="M1531 0.0297938C1521.51 0.230706 1512.05 0.922706 1502.72 2.04632C1493.39 3.19971 1484.23 4.88157 1475.23 6.86093C1457.24 10.8866 1440.03 16.3857 1423.74 22.8892C1415.57 26.1113 1407.66 29.6233 1399.93 33.2993C1396.05 35.1224 1392.27 37.0424 1388.47 38.9474C1384.74 40.9044 1380.97 42.8391 1377.3 44.8556C1362.54 52.8474 1348.43 61.3749 1334.46 70.0216C1320.49 78.6608 1306.63 87.4044 1292.47 95.9469C1278.24 104.452 1263.85 112.801 1249.21 120.964C1234.58 129.127 1219.72 137.119 1204.6 144.887C1189.48 152.656 1174.11 160.209 1158.39 167.434C1126.98 181.892 1094.4 195.309 1060.21 206.686C1026.07 218.079 990.483 227.737 953.499 234.278C916.571 240.849 878.316 244.428 840.005 243.959C835.216 243.892 830.439 243.706 825.661 243.58C824.466 243.535 823.261 243.528 822.078 243.461L818.516 243.252L811.383 242.843L797.116 242.017C792.371 241.645 787.649 241.198 782.915 240.797L775.815 240.179C773.448 239.978 771.082 239.777 768.737 239.472L754.625 237.805C752.269 237.522 749.914 237.262 747.569 236.957L740.579 235.908L726.589 233.802C721.955 233.028 717.365 232.113 712.753 231.279L705.841 230L704.116 229.68L702.412 229.307L699.006 228.556L685.381 225.55C684.241 225.312 683.113 225.036 682.007 224.738L678.656 223.876L671.954 222.157L665.252 220.438C663.04 219.835 660.861 219.158 658.672 218.525C654.292 217.223 649.89 215.966 645.544 214.634L632.681 210.355L629.463 209.283C628.39 208.926 627.362 208.517 626.311 208.13L620.029 205.793L613.747 203.457C612.697 203.077 611.668 202.668 610.651 202.237L607.587 200.979C603.528 199.282 599.403 197.653 595.388 195.904L583.477 190.524C581.464 189.653 579.573 188.671 577.627 187.733L571.831 184.891C556.481 177.234 541.771 169.012 527.703 160.343C499.601 142.968 473.876 124.06 447.731 105.576C434.648 96.3412 421.354 87.263 407.419 78.6759C393.495 70.0888 378.863 62.0224 363.158 55.0277L360.238 53.6884C359.243 53.2642 358.226 52.8623 357.23 52.453L351.192 49.99L348.172 48.7546C347.166 48.3528 346.115 47.9809 345.076 47.5865L338.871 45.2796C336.814 44.4983 334.724 43.7616 332.623 43.0324L326.33 40.8298C322.138 39.3639 317.847 38.0322 313.6 36.6333C296.513 31.2161 278.906 26.5205 260.812 22.8744C242.73 19.2356 224.172 16.6462 205.393 15.3812C186.613 14.1013 167.635 14.2351 148.9 15.7754C146.544 15.8871 144.233 16.2146 141.888 16.4378L134.898 17.1892C133.737 17.3157 132.565 17.4275 131.404 17.5689L127.931 18.0598L120.985 19.0495C116.34 19.6522 111.784 20.5156 107.183 21.2746C102.571 22.0038 98.0589 22.9486 93.5134 23.8565C75.3866 27.5324 57.6912 32.1683 40.6262 37.712C6.4077 48.7398 -24.8247 63.5926 -54 79.9185C-39.6004 71.5919 -24.7141 63.6224 -9.12001 56.3077C6.47406 48.9856 22.8534 42.4148 39.8963 36.7074C56.9281 31 74.6456 26.1855 92.8166 22.3384C97.3621 21.3934 101.897 20.404 106.519 19.6301C111.131 18.8265 115.699 17.9112 120.377 17.2713L127.356 16.222L130.84 15.6937C132.012 15.5449 133.195 15.4183 134.368 15.2769L141.424 14.4583C143.779 14.2053 146.124 13.8556 148.502 13.7291C167.447 12.04 186.68 11.8315 205.713 13.0221C224.758 14.1978 243.581 16.7278 261.918 20.3219C280.266 23.916 298.117 28.5744 315.436 33.9544C319.727 35.3533 324.085 36.6777 328.331 38.1288L334.702 40.3164C336.825 41.0382 338.949 41.7749 341.039 42.5488L347.321 44.848C348.36 45.2349 349.422 45.5996 350.451 46.0089L353.536 47.2442L359.708 49.7222C360.736 50.1389 361.776 50.5406 362.782 50.9648L365.768 52.3117C381.816 59.351 396.746 67.4546 410.914 76.0566C425.07 84.6735 438.485 93.7887 451.657 103.008C464.84 112.228 477.824 121.552 491.041 130.69C504.257 139.835 517.706 148.801 531.663 157.381C545.675 165.923 560.208 174.057 575.381 181.602L581.099 184.4C583.013 185.33 584.893 186.29 586.872 187.146L598.629 192.437C602.588 194.155 606.658 195.755 610.673 197.422L613.692 198.665C614.687 199.082 615.705 199.491 616.745 199.863L622.938 202.162L629.131 204.461C630.171 204.833 631.177 205.243 632.239 205.592L635.413 206.642L648.087 210.853C652.379 212.171 656.714 213.398 661.027 214.678C663.195 215.303 665.329 215.965 667.519 216.561L674.133 218.25C691.64 222.983 709.811 226.465 728.049 229.694L741.851 231.785L748.752 232.835C751.064 233.132 753.397 233.393 755.72 233.675L769.666 235.335C771.977 235.64 774.322 235.841 776.667 236.042L783.69 236.659C788.368 237.061 793.046 237.508 797.735 237.88L811.859 238.706L818.915 239.122L822.443 239.331C823.615 239.398 824.798 239.412 825.971 239.45C830.671 239.576 835.371 239.77 840.083 239.837C877.774 240.343 915.454 236.808 951.951 230.416C988.514 224.054 1023.81 214.581 1057.74 203.375C1074.71 197.757 1091.35 191.67 1107.64 185.181C1123.95 178.715 1139.94 171.876 1155.65 164.755C1171.37 157.641 1186.77 150.2 1201.91 142.528C1217.06 134.864 1231.97 126.969 1246.66 118.903C1261.34 110.836 1275.82 102.562 1290.08 94.1607C1304.3 85.7224 1318.21 77.0313 1332.35 68.4814C1346.49 59.9463 1360.8 51.5006 1375.79 43.5981C1379.51 41.6039 1383.32 39.6914 1387.11 37.7567C1390.96 35.8741 1394.79 33.9766 1398.74 32.1758C1406.58 28.5371 1414.6 25.0771 1422.87 21.9071C1439.36 15.5152 1456.75 10.1203 1474.89 6.23598C1483.99 4.34592 1493.22 2.76834 1502.6 1.71169C1511.99 0.684806 1521.47 0.104176 1530.97 0L1531 0.0297938Z" fill="url(#paint0_linear_1_2029)"/>
<defs>
<linearGradient id="paint0_linear_1_2029" x1="1410.98" y1="-163.803" x2="339.926" y2="620.85" gradientUnits="userSpaceOnUse">
<stop stop-color="#E1CF59"/>
<stop offset="0.5" stop-color="#F7F9E4"/>
<stop offset="0.52" stop-color="#F0F2DB"/>
<stop offset="0.64" stop-color="#C6C7A4"/>
<stop offset="0.75" stop-color="#A6A578"/>
<stop offset="0.85" stop-color="#8E8D59"/>
<stop offset="0.94" stop-color="#807E46"/>
<stop offset="1" stop-color="#7B7940"/>
</linearGradient>
</defs>
</svg>
