<svg width="1512" height="244" viewBox="0 0 1512 244" fill="none" xmlns="http://www.w3.org/2000/svg">
<path d="M1551 0.0297938C1541.51 0.230706 1532.05 0.922706 1522.72 2.04632C1513.39 3.19971 1504.23 4.88157 1495.23 6.86093C1477.24 10.8866 1460.03 16.3857 1443.74 22.8892C1435.57 26.1113 1427.66 29.6233 1419.93 33.2993C1416.05 35.1224 1412.27 37.0424 1408.47 38.9474C1404.74 40.9044 1400.97 42.8391 1397.3 44.8556C1382.54 52.8474 1368.43 61.3749 1354.46 70.0216C1340.49 78.6608 1326.63 87.4044 1312.47 95.9469C1298.24 104.452 1283.85 112.801 1269.21 120.964C1254.58 129.127 1239.72 137.119 1224.6 144.887C1209.48 152.656 1194.11 160.209 1178.39 167.434C1146.98 181.892 1114.4 195.309 1080.21 206.686C1046.07 218.079 1010.48 227.737 973.499 234.278C936.571 240.849 898.316 244.428 860.005 243.959C855.216 243.892 850.439 243.706 845.661 243.58C844.466 243.535 843.261 243.528 842.078 243.461L838.516 243.252L831.383 242.843L817.116 242.017C812.371 241.645 807.649 241.198 802.915 240.797L795.815 240.179C793.448 239.978 791.082 239.777 788.737 239.472L774.625 237.805C772.269 237.522 769.914 237.262 767.569 236.957L760.579 235.908L746.589 233.802C741.955 233.028 737.365 232.113 732.753 231.279L725.841 230L724.116 229.68L722.412 229.307L719.006 228.556L705.381 225.55C704.241 225.312 703.113 225.036 702.007 224.738L698.656 223.876L691.954 222.157L685.252 220.438C683.04 219.835 680.861 219.158 678.672 218.525C674.292 217.223 669.89 215.966 665.544 214.634L652.681 210.355L649.463 209.283C648.39 208.926 647.362 208.517 646.311 208.13L640.029 205.793L633.747 203.457C632.697 203.077 631.668 202.668 630.651 202.237L627.587 200.979C623.528 199.282 619.403 197.653 615.388 195.904L603.477 190.524C601.464 189.653 599.573 188.671 597.627 187.733L591.831 184.891C576.481 177.234 561.771 169.012 547.703 160.343C519.601 142.968 493.876 124.06 467.731 105.576C454.648 96.3412 441.354 87.263 427.419 78.6759C413.495 70.0888 398.863 62.0224 383.158 55.0277L380.238 53.6884C379.243 53.2642 378.226 52.8623 377.23 52.453L371.192 49.99L368.172 48.7546C367.166 48.3528 366.115 47.9809 365.076 47.5865L358.871 45.2796C356.814 44.4983 354.724 43.7616 352.623 43.0324L346.33 40.8298C342.138 39.3639 337.847 38.0322 333.6 36.6333C316.513 31.2161 298.906 26.5205 280.812 22.8744C262.73 19.2356 244.172 16.6462 225.393 15.3812C206.613 14.1013 187.635 14.2351 168.9 15.7754C166.544 15.8871 164.233 16.2146 161.888 16.4378L154.898 17.1892C153.737 17.3157 152.565 17.4275 151.404 17.5689L147.931 18.0598L140.985 19.0495C136.34 19.6522 131.784 20.5156 127.183 21.2746C122.571 22.0038 118.059 22.9486 113.513 23.8565C95.3866 27.5324 77.6912 32.1683 60.6262 37.712C26.4077 48.7398 -4.82469 63.5926 -34 79.9185C-19.6004 71.5919 -4.7141 63.6224 10.88 56.3077C26.4741 48.9856 42.8534 42.4148 59.8963 36.7074C76.9281 31 94.6456 26.1855 112.817 22.3384C117.362 21.3934 121.897 20.404 126.519 19.6301C131.131 18.8265 135.699 17.9112 140.377 17.2713L147.356 16.222L150.84 15.6937C152.012 15.5449 153.195 15.4183 154.368 15.2769L161.424 14.4583C163.779 14.2053 166.124 13.8556 168.502 13.7291C187.447 12.04 206.68 11.8315 225.713 13.0221C244.758 14.1978 263.581 16.7278 281.918 20.3219C300.266 23.916 318.117 28.5744 335.436 33.9544C339.727 35.3533 344.085 36.6777 348.331 38.1288L354.702 40.3164C356.825 41.0382 358.949 41.7749 361.039 42.5488L367.321 44.848C368.36 45.2349 369.422 45.5996 370.451 46.0089L373.536 47.2442L379.708 49.7222C380.736 50.1389 381.776 50.5406 382.782 50.9648L385.768 52.3117C401.816 59.351 416.746 67.4546 430.914 76.0566C445.07 84.6735 458.485 93.7887 471.657 103.008C484.84 112.228 497.824 121.552 511.041 130.69C524.257 139.835 537.706 148.801 551.663 157.381C565.675 165.923 580.208 174.057 595.381 181.602L601.099 184.4C603.013 185.33 604.893 186.29 606.872 187.146L618.629 192.437C622.588 194.155 626.658 195.755 630.673 197.422L633.692 198.665C634.687 199.082 635.705 199.491 636.745 199.863L642.938 202.162L649.131 204.461C650.171 204.833 651.177 205.243 652.239 205.592L655.413 206.642L668.087 210.853C672.379 212.171 676.714 213.398 681.027 214.678C683.195 215.303 685.329 215.965 687.519 216.561L694.133 218.25C711.64 222.983 729.811 226.465 748.049 229.694L761.851 231.785L768.752 232.835C771.064 233.132 773.397 233.393 775.72 233.675L789.666 235.335C791.977 235.64 794.322 235.841 796.667 236.042L803.69 236.659C808.368 237.061 813.046 237.508 817.735 237.88L831.859 238.706L838.915 239.122L842.443 239.331C843.615 239.398 844.798 239.412 845.971 239.45C850.671 239.576 855.371 239.77 860.083 239.837C897.774 240.343 935.454 236.808 971.951 230.416C1008.51 224.054 1043.81 214.581 1077.74 203.375C1094.71 197.757 1111.35 191.67 1127.64 185.181C1143.95 178.715 1159.94 171.876 1175.65 164.755C1191.37 157.641 1206.77 150.2 1221.91 142.528C1237.06 134.864 1251.97 126.969 1266.66 118.903C1281.34 110.836 1295.82 102.562 1310.08 94.1607C1324.3 85.7224 1338.21 77.0313 1352.35 68.4814C1366.49 59.9463 1380.8 51.5006 1395.79 43.5981C1399.51 41.6039 1403.32 39.6914 1407.11 37.7567C1410.96 35.8741 1414.79 33.9766 1418.74 32.1758C1426.58 28.5371 1434.6 25.0771 1442.87 21.9071C1459.36 15.5152 1476.75 10.1203 1494.89 6.23598C1503.99 4.34592 1513.22 2.76834 1522.6 1.71169C1531.99 0.684806 1541.47 0.104176 1550.97 0L1551 0.0297938Z" fill="url(#paint0_linear_1_2028)"/>
<defs>
<linearGradient id="paint0_linear_1_2028" x1="1430.98" y1="-163.803" x2="359.926" y2="620.85" gradientUnits="userSpaceOnUse">
<stop stop-color="#E1CF59"/>
<stop offset="0.5" stop-color="#F7F9E4"/>
<stop offset="0.52" stop-color="#F0F2DB"/>
<stop offset="0.64" stop-color="#C6C7A4"/>
<stop offset="0.75" stop-color="#A6A578"/>
<stop offset="0.85" stop-color="#8E8D59"/>
<stop offset="0.94" stop-color="#807E46"/>
<stop offset="1" stop-color="#7B7940"/>
</linearGradient>
</defs>
</svg>
