<svg width="203" height="24" viewBox="0 0 203 24" fill="none" xmlns="http://www.w3.org/2000/svg">
<path d="M13.94 17.5109C13.94 21.0909 11.06 23.1909 5.66 23.1909C3.54 23.1909 1.07 22.8209 0 22.3709V5.71094H7.17001C10.52 5.71094 12.42 7.44094 12.42 10.0209C12.42 11.3009 11.69 12.6009 10.69 13.1909C12.4 13.6709 13.95 15.1809 13.95 17.5009L13.94 17.5109ZM6.94 8.63094H3.26999V12.4009H6.98999C8.49999 12.4009 9.11002 11.5109 9.11002 10.4809C9.11002 9.45094 8.49 8.63094 6.94 8.63094ZM10.56 17.4809C10.56 16.1609 9.72 15.0809 7.87 15.0809H3.26001V19.9209C3.94001 20.1509 5.15001 20.2609 6.04001 20.2609C9.42001 20.2609 10.56 19.1009 10.56 17.4809Z" fill="#6D4A39"/>
<path d="M17.5498 14.3331C17.5498 9.29313 21.3198 5.45312 26.4098 5.45312C31.4998 5.45312 35.2898 9.28313 35.2898 14.3331C35.2898 19.3831 31.5198 23.1931 26.4098 23.1931C21.2998 23.1931 17.5498 19.3331 17.5498 14.3331ZM31.8998 14.3331C31.8998 11.0231 29.5698 8.53313 26.3998 8.53313C23.2298 8.53313 20.9198 11.0231 20.9198 14.3331C20.9198 17.6431 23.1998 20.0631 26.3998 20.0631C29.5998 20.0631 31.8998 17.5731 31.8998 14.3331Z" fill="#6D4A39"/>
<path d="M55.8401 5.71031V22.9403H55.4101L43.7001 12.3703V22.8203H40.3901V5.57031H40.8201L52.5001 16.0203V5.7003H55.8301L55.8401 5.71031Z" fill="#6D4A39"/>
<path d="M75.9898 17.5109C75.9898 21.0909 73.1098 23.1909 67.7098 23.1909C65.5898 23.1909 63.1198 22.8209 62.0498 22.3709V5.71094H69.2198C72.5698 5.71094 74.4698 7.44094 74.4698 10.0209C74.4698 11.3009 73.7398 12.6009 72.7398 13.1909C74.4498 13.6709 75.9998 15.1809 75.9998 17.5009L75.9898 17.5109ZM68.9798 8.63094H65.3098V12.4009H69.0298C70.5398 12.4009 71.1498 11.5109 71.1498 10.4809C71.1498 9.45094 70.5298 8.63094 68.9798 8.63094ZM72.6098 17.4809C72.6098 16.1609 71.7698 15.0809 69.9198 15.0809H65.3098V19.9209C65.9898 20.1509 67.1998 20.2609 68.0898 20.2609C71.4698 20.2609 72.6098 19.1009 72.6098 17.4809Z" fill="#6D4A39"/>
<path d="M117.89 5.71031V22.9403H117.46L105.75 12.3703V22.8203H102.44V5.57031H102.87L114.55 16.0203V5.7003H117.88L117.89 5.71031Z" fill="#6D4A39"/>
<path d="M139.55 5.71031V22.9403H139.12L127.41 12.3703V22.8203H124.1V5.57031H124.53L136.21 16.0203V5.7003H139.54L139.55 5.71031Z" fill="#6D4A39"/>
<path d="M145.87 5.71094H149.2V22.8309H145.87V5.71094Z" fill="#6D4A39"/>
<path d="M166.79 19.81V22.82H155.49V5.7H166.58V8.71001H158.68V12.34H166.19V15.26H158.68V19.8H166.78L166.79 19.81ZM164.15 3.68001L157.05 2.58V0L164.15 1.23001V3.67V3.68001Z" fill="#6D4A39"/>
<path d="M182.49 22.8231L179.5 17.6431C179.02 17.6931 178.5 17.7131 177.97 17.7131C177.01 17.7131 176.21 17.6431 175.55 17.5031V22.8231H172.17V5.70312H178.83C183.33 5.70312 185.84 7.85313 185.84 11.4531C185.84 13.9831 184.68 15.7631 182.64 16.7731L186.22 22.8231H182.48H182.49ZM182.36 11.5731C182.36 9.81314 181.4 8.69313 178.55 8.69313H175.56V14.6531C176.22 14.7631 176.97 14.8331 177.91 14.8331C181.04 14.8331 182.36 13.6931 182.36 11.5731Z" fill="#6D4A39"/>
<path d="M202.08 19.8131V22.8231H190.78V5.70312H201.87V8.71313H193.97V12.3431H201.48V15.2631H193.97V19.8031H202.07L202.08 19.8131Z" fill="#6D4A39"/>
<path d="M96.7802 8.98719C95.4902 7.88719 94.2002 8.25718 93.7602 8.40718C93.0602 8.65718 92.9702 9.13719 92.7002 9.31719C92.4202 9.48719 92.2302 9.44719 91.6802 9.22719C90.7202 8.78719 89.6302 8.52718 88.4402 8.52718C87.2502 8.52718 86.1702 8.78719 85.2002 9.23719H85.2102C84.6602 9.44719 84.4702 9.48718 84.1902 9.30718C83.9202 9.13718 83.8302 8.64719 83.1302 8.39719C82.6902 8.23719 81.4002 7.87719 80.1102 8.97719C78.2702 10.5372 78.9902 13.2172 80.2702 13.6872C81.1602 14.0172 81.2002 14.5272 81.1702 14.9672C81.1402 15.2572 81.1202 15.5572 81.1202 15.8572C81.1202 19.9872 84.2302 23.1772 88.4402 23.1772C92.6502 23.1772 95.7802 19.9872 95.7802 15.8572C95.7802 15.5072 95.7502 15.1772 95.7102 14.8472C95.7002 14.4472 95.8002 13.9872 96.6102 13.6872C97.9002 13.2172 98.6202 10.5372 96.7702 8.97719L96.7802 8.98719ZM88.4502 20.0572C86.1102 20.0572 84.4402 18.2372 84.4402 15.8572C84.4402 13.4772 86.1102 11.6172 88.4502 11.6172C90.7902 11.6172 92.4802 13.4372 92.4802 15.8572C92.4802 18.2772 90.7802 20.0572 88.4502 20.0572Z" fill="#6D4A39"/>
<path d="M88.46 7.44905C89.96 7.44905 91.26 7.79906 91.91 8.31906L92.69 5.42906C92.05 5.61906 90.44 6.59906 90.44 6.59906C90.44 6.59906 89.66 5.19906 88.46 4.53906C87.26 5.19906 86.48 6.59906 86.48 6.59906C86.48 6.59906 84.87 5.61906 84.23 5.42906L85.01 8.31906C85.65 7.79906 86.95 7.44905 88.46 7.44905Z" fill="#6D4A39"/>
<path d="M88.45 4.23875C88.7316 4.23875 88.9599 4.01042 88.9599 3.72876C88.9599 3.44709 88.7316 3.21875 88.45 3.21875C88.1683 3.21875 87.9399 3.44709 87.9399 3.72876C87.9399 4.01042 88.1683 4.23875 88.45 4.23875Z" fill="#6D4A39"/>
<path d="M83.9299 5.26219C84.2116 5.26219 84.4399 5.03385 84.4399 4.75218C84.4399 4.47052 84.2116 4.24219 83.9299 4.24219C83.6482 4.24219 83.4199 4.47052 83.4199 4.75218C83.4199 5.03385 83.6482 5.26219 83.9299 5.26219Z" fill="#6D4A39"/>
<path d="M92.9797 5.26219C93.2614 5.26219 93.4897 5.03385 93.4897 4.75218C93.4897 4.47052 93.2614 4.24219 92.9797 4.24219C92.6981 4.24219 92.4697 4.47052 92.4697 4.75218C92.4697 5.03385 92.6981 5.26219 92.9797 5.26219Z" fill="#6D4A39"/>
</svg>
