<svg width="20" height="20" viewBox="0 0 20 20" fill="none" xmlns="http://www.w3.org/2000/svg">
<path d="M5.80197 8.13008C6.51467 10.6784 8.02996 12.9542 10.1062 14.5946L12.2643 13.1577C12.539 12.9748 12.8708 12.9734 13.1387 13.1206C13.9931 13.6065 14.9408 13.9666 15.9621 14.1715C16.1788 14.215 16.3694 14.3428 16.4919 14.5267C16.6144 14.7107 16.6588 14.9358 16.6153 15.1525L16.0416 18.0122C15.9981 18.2289 15.8704 18.4194 15.6864 18.5419C15.5024 18.6644 15.2773 18.7088 15.0606 18.6653C11.3768 17.9263 8.13742 15.7542 6.05512 12.6267C3.97282 9.4993 3.21817 5.67277 3.95718 1.98893C4.00066 1.77223 4.12843 1.58168 4.3124 1.45919C4.49636 1.3367 4.72145 1.29231 4.93815 1.33578L7.79784 1.90947C8.01454 1.95294 8.20509 2.08071 8.32758 2.26468C8.45006 2.44865 8.49446 2.67374 8.45098 2.89043C8.2461 3.91175 8.21282 4.925 8.33155 5.90075C8.36405 6.20475 8.23477 6.51028 7.9601 6.69316L5.80197 8.13008Z" fill="#4F2C1C"/>
</svg>
