<svg width="524" height="126" viewBox="0 0 524 126" fill="none" xmlns="http://www.w3.org/2000/svg">
<g clip-path="url(#clip0_1_1705)">
<path d="M521.432 57.994C511.304 65.8619 501.175 73.7298 491.061 81.5976C499.204 95.2709 509.745 107.829 522.212 118.706C484.69 109.907 424.558 132.548 398.587 114.459C397.777 113.894 397.151 113.1 396.753 112.229C395.837 110.243 396.142 107.829 398.22 106.79C399.702 106.042 401.52 106.194 403.231 106.316C410.228 106.805 417.317 106.179 424.069 104.498H424.085C441.562 101.596 440.6 91.3905 441.868 84.4087C443.136 77.4269 445.718 62.562 448.529 56.0385C449.476 53.8233 450.347 51.6386 451.111 49.5762H451.156C471.873 61.5384 499.754 38.607 521.432 57.994Z" fill="#E3DED2"/>
<path d="M396.754 112.228C390.384 105.078 402.208 100.495 398.267 87.4023C407.647 88.6398 416.936 90.3356 425.69 93.498C428.837 94.6286 432.427 96.7827 431.862 99.7159C431.388 102.053 428.501 103.306 425.919 104.024C425.308 104.192 424.697 104.36 424.086 104.498H424.07C417.318 106.178 410.229 106.805 403.232 106.316C401.521 106.194 399.703 106.041 398.221 106.789C396.143 107.828 395.838 110.242 396.754 112.228Z" fill="#B2AFA7"/>
<path d="M96.3386 101.351C101.487 100.924 112.64 102.222 109.905 107.646C106.299 114.826 101.823 116.354 94.1387 117.469C86.4541 118.584 78.571 117.362 70.81 118.034C61.17 118.875 52.1563 122.587 42.6232 124.145C33.304 125.673 19.3404 124.313 10.3573 121.686C23.8931 99.8237 35.8248 85.0657 35.8248 85.0657C35.8248 85.0657 18.0724 69.5744 0.992249 58.7274C11.1365 55.8095 21.6931 54.0526 32.3415 53.4873C45.6329 52.7845 61.1547 53.1206 69.3892 43.9389L69.7712 43.7861C71.2531 47.2541 72.5517 50.7221 73.0558 54.1289C74.3238 62.6843 70.535 71.1327 69.4809 79.7186C68.4268 88.3045 71.6045 98.6932 80.939 101.428C85.843 102.879 91.1748 101.794 96.3386 101.351Z" fill="#E3DED2"/>
<path d="M109.323 86.5166C105.275 95.5456 115.235 98.7844 109.904 107.645C112.638 102.222 101.486 100.923 96.3372 101.351C91.1735 101.794 85.8416 102.879 80.9376 101.427C66.8365 89.1901 89.6152 88.411 97.7886 87.6013C101.623 87.2194 105.473 86.868 109.323 86.5166Z" fill="#B2AFA7"/>
<path d="M441.867 84.4085C440.599 91.3902 441.561 101.596 424.084 104.498C424.695 104.361 425.306 104.193 425.917 104.025C428.499 103.307 431.387 102.054 431.86 99.7164C432.426 96.7832 428.835 94.629 425.688 93.4985C416.934 90.3361 407.646 88.6403 398.265 87.4028C395.485 87.0362 392.689 86.7001 389.893 86.3792C296.945 75.7614 202.592 77.9156 109.323 86.5167C105.473 86.8681 101.624 87.2195 97.789 87.6014C89.6155 88.4111 66.8369 89.1903 80.938 101.427C71.6035 98.6928 68.4258 88.3042 69.4799 79.7183C70.534 71.1324 74.3228 62.684 73.0548 54.1286C72.5507 50.7218 71.2521 47.2538 69.7702 43.7858C66.4855 36.0096 62.3148 28.1723 64.2856 20.6711C68.8688 14.6976 77.9436 13.0935 86.0712 12.024C157.875 2.56733 233.88 -0.258994 306.478 1.48263C357.429 2.70483 389.374 7.41027 434.549 20.6711C455.54 26.8431 455.601 35.7346 455.601 35.7346C455.601 35.7346 453.982 41.8761 451.11 49.5759C450.346 51.6384 449.475 53.8231 448.528 56.0383C445.717 62.5617 443.135 77.4267 441.867 84.4085Z" fill="#E3DED2"/>
<path d="M64.2866 20.6709C62.3158 28.1721 66.4865 36.0094 69.7712 43.7856C71.2531 47.2536 72.5517 50.7216 73.0558 54.1284C74.3238 62.6838 70.535 71.1322 69.4809 79.7181C68.4268 88.304 71.6045 98.6927 80.939 101.427C85.843 102.879 91.1748 101.794 96.3386 101.351C101.487 100.923 112.64 102.222 109.905 107.645C106.299 114.826 101.823 116.353 94.1387 117.469C86.4541 118.584 78.571 117.362 70.81 118.034C61.17 118.874 52.1563 122.587 42.6232 124.145C33.304 125.673 19.3404 124.313 10.3573 121.685C23.8931 99.8232 35.8248 85.0652 35.8248 85.0652C35.8248 85.0652 18.0724 69.5739 0.992249 58.7269C11.1365 55.809 21.6931 54.0521 32.3415 53.4868C45.6329 52.784 61.1547 53.1201 69.3892 43.9384" stroke="#2b2b2b" stroke-width="1.98606" stroke-linecap="round" stroke-linejoin="round"/>
<path d="M109.324 86.5166C105.275 95.5456 115.236 98.7844 109.904 107.645" stroke="#2b2b2b" stroke-width="1.98606" stroke-linecap="round" stroke-linejoin="round"/>
<path d="M424.069 104.498C417.317 106.178 410.228 106.805 403.231 106.316C401.52 106.194 399.702 106.041 398.22 106.789C396.142 107.828 395.837 110.242 396.753 112.228C397.151 113.099 397.777 113.893 398.587 114.459C424.558 132.547 484.69 109.906 522.212 118.706C509.745 107.828 499.204 95.2703 491.061 81.597C501.175 73.7291 511.304 65.8613 521.432 57.9934C499.754 38.6064 471.873 61.5378 451.156 49.5908" stroke="#2b2b2b" stroke-width="1.98606" stroke-linecap="round" stroke-linejoin="round"/>
<path d="M80.9376 101.428C66.8365 89.1907 89.6152 88.4115 97.7886 87.6018C101.623 87.2199 105.473 86.8685 109.323 86.5171C202.592 77.916 296.945 75.7618 389.893 86.3796C392.689 86.7005 395.484 87.0366 398.265 87.4032C407.645 88.6407 416.934 90.3365 425.688 93.4989C428.835 94.6295 432.425 96.7836 431.86 99.7168C431.386 102.054 428.499 103.307 425.917 104.025C425.306 104.193 424.695 104.361 424.084 104.499" stroke="#2b2b2b" stroke-width="1.98606" stroke-linecap="round" stroke-linejoin="round"/>
<path d="M64.2872 20.6711C68.8704 14.6976 77.9452 13.0935 86.0728 12.0241C157.877 2.56733 233.882 -0.258994 306.48 1.48263C357.43 2.70483 389.375 7.41027 434.551 20.6711C455.542 26.8431 455.603 35.7346 455.603 35.7346C455.603 35.7346 453.984 41.8761 451.111 49.5759C450.348 51.6384 449.477 53.8231 448.53 56.0383C445.718 62.5617 443.137 77.4267 441.869 84.4085C440.601 91.3902 441.563 101.596 424.086 104.498H424.07" stroke="#2b2b2b" stroke-width="1.98606" stroke-linecap="round" stroke-linejoin="round"/>
<path d="M398.267 87.4023C402.208 100.495 390.384 105.078 396.754 112.228" stroke="#2b2b2b" stroke-width="1.98606" stroke-linecap="round" stroke-linejoin="round"/>
</g>
<path d="M165.114 56.4098C163.173 56.5732 161.352 56.3881 159.653 55.8544C157.995 55.3549 156.623 54.4741 155.54 53.2119C154.49 51.9092 153.876 50.1939 153.696 48.0659C153.596 46.8713 153.655 45.5692 153.875 44.1596C154.212 41.913 154.885 39.6381 155.895 37.3349C156.941 35.0286 158.223 32.8341 159.739 30.7514C161.293 28.6655 163.015 26.7911 164.905 25.128C166.792 23.4277 168.763 22.0586 170.819 21.0208C172.909 19.9425 175.018 19.3138 177.146 19.1346C177.78 19.0812 178.438 19.0822 179.12 19.1376C180.635 19.2732 181.783 19.7404 182.565 20.5393C183.381 21.2978 183.834 22.2183 183.926 23.3009C184.032 24.5702 183.729 25.8741 183.014 27.2125C182.3 28.551 181.319 29.8554 180.073 31.1259C178.86 32.3559 177.508 33.4849 176.016 34.5128C174.56 35.5377 173.11 36.393 171.664 37.0787C170.217 37.7644 168.919 38.1933 167.768 38.3654C167.062 38.4625 166.69 38.287 166.652 37.839C166.633 37.615 166.726 37.3816 166.931 37.1388C167.171 36.8554 167.513 36.6763 167.958 36.6012C170.848 36.0947 173.48 34.9895 175.856 33.2856C178.266 31.5412 180.032 29.3059 181.156 26.5794C181.408 25.9943 181.585 25.4155 181.687 24.8429C181.823 24.2299 181.869 23.6621 181.825 23.1394C181.756 22.3181 181.455 21.6479 180.923 21.1288C180.425 20.5692 179.597 20.3381 178.44 20.4355C177.17 20.5424 175.71 21.0601 174.059 21.9887C172.404 22.8799 170.683 24.0964 168.896 25.638C167.145 27.1764 165.436 28.9746 163.767 31.0326C162.132 33.0501 160.681 35.2401 159.414 37.6026C158.18 39.9246 157.276 42.3506 156.699 44.8805C156.339 46.4147 156.213 47.8164 156.32 49.0857C156.512 51.363 157.437 52.9769 159.096 53.9275C160.752 54.8408 162.831 55.1921 165.332 54.9815C167.497 54.7992 169.837 54.2263 172.35 53.2627C174.9 52.2961 177.343 50.9437 179.678 49.2056C182.01 47.4302 183.915 45.2771 185.394 42.7464C185.493 42.5877 185.617 42.502 185.767 42.4894C185.916 42.4769 186.053 42.5405 186.178 42.6804C186.34 42.8172 186.371 42.9649 186.271 43.1237C184.556 45.975 182.5 48.3476 180.103 50.2413C177.743 52.1318 175.253 53.5822 172.631 54.5925C170.009 55.6028 167.503 56.2086 165.114 56.4098Z" fill="#2b2b2b"/>
<path d="M191.533 52.3612C190.934 52.3982 190.268 52.2516 189.535 51.9215C188.841 51.6265 188.231 51.1762 187.706 50.5705C187.178 49.9275 186.892 49.232 186.845 48.4841C186.799 47.7363 186.924 47.0154 187.219 46.3216C187.87 44.7049 188.973 43.1166 190.528 41.5567C192.118 39.9571 193.779 38.5784 195.509 37.4206C197.239 36.2628 198.62 35.5207 199.65 35.1944C200.681 34.868 201.683 34.6748 202.655 34.6148C203.665 34.5524 204.541 34.7611 205.284 35.2407C206.024 35.683 206.412 36.1846 206.446 36.7455C206.458 36.9324 206.446 37.0458 206.411 37.0855C206.376 37.1252 206.281 37.1122 206.127 37.0467C205.634 36.3639 204.678 36.0664 203.257 36.1541C201.873 36.2395 200.313 36.805 198.576 37.8507C196.874 38.8566 195.28 40.0998 193.795 41.5803C192.562 42.895 191.49 44.3688 190.577 46.0017C189.699 47.5948 189.283 48.7466 189.326 49.4571C189.412 50.8406 189.847 51.5081 190.632 51.4597C191.418 51.4112 192.575 50.7016 194.104 49.331C196.621 46.9235 198.333 45.1663 199.24 44.0593C202.452 40.145 204.189 38.1798 204.451 38.1636C204.899 38.1359 205.45 38.2333 206.101 38.4559C206.753 38.6784 206.979 38.9835 206.777 39.3713C205.036 42.1813 204.082 44.9615 203.914 47.712C203.897 48.0509 203.905 48.482 203.937 49.0055C203.97 49.529 204.146 49.9498 204.466 50.2679C205.064 50.8316 205.833 50.8216 206.772 50.2381C207.712 49.6546 208.994 48.5245 210.617 46.8478C212.277 45.1688 213.585 43.5491 214.54 41.9888C214.678 41.7926 214.844 41.7448 215.038 41.8454C215.229 41.9087 215.327 41.9777 215.332 42.0525C215.367 42.6134 214.545 43.9027 212.868 45.9206C211.226 47.8987 209.958 49.2532 209.065 49.984C207.388 51.4012 205.802 52.156 204.307 52.2483C202.886 52.3361 201.888 51.6844 201.314 50.2935C201.175 49.8517 201.087 49.3504 201.053 48.7895C200.949 47.1068 201.194 45.3087 201.789 43.3952C201.644 43.4792 200.999 44.2698 199.853 45.7669C198.706 47.264 197.351 48.7177 195.786 50.128C194.259 51.536 192.841 52.2804 191.533 52.3612Z" fill="#2b2b2b"/>
<path d="M225.264 35.2336C225.274 35.4956 225.089 36.0836 224.711 36.9976C224.332 37.8741 223.265 40.9321 221.512 46.1715C222.798 44.4737 224.43 42.5005 226.408 40.2519C230.401 35.7533 233.183 33.4745 234.756 33.4155C235.093 33.4029 235.414 33.4845 235.721 33.6605C236.065 33.835 236.249 34.2593 236.275 34.9331C236.299 35.5696 236.12 36.3073 235.739 37.1464C235.357 37.9481 234.925 38.939 234.445 40.1192C233.964 41.2994 233.636 42.0428 233.46 42.3493C236.498 39.3861 238.811 37.5748 240.398 36.9155C241.984 36.2187 243.039 35.8604 243.563 35.8408C244.087 35.8211 244.356 35.9985 244.37 36.3728C244.379 36.5975 244.118 37.1509 243.589 38.033C243.06 38.9151 242.49 40.2112 241.879 41.9211C241.268 43.6311 240.938 44.8245 240.889 45.5011C240.839 46.1778 240.824 46.7782 240.844 47.3024C240.863 47.8265 241.029 48.2514 241.341 48.5771C241.925 49.1551 242.694 49.1637 243.648 48.6031C244.602 48.0425 245.91 46.9437 247.573 45.3067C249.274 43.6683 250.62 42.0807 251.612 40.5439C251.755 40.3511 251.922 40.3073 252.114 40.4126C252.341 40.4791 252.457 40.5685 252.461 40.6808C252.464 40.7557 252.43 40.8507 252.359 40.9658C251.836 41.9977 250.873 43.3272 249.472 44.9543C247.173 47.6274 245.23 49.2936 243.642 49.953C241.905 50.618 240.635 50.7406 239.832 50.3208C239.029 49.901 238.524 49.4139 238.315 48.8593C238.107 48.3048 237.992 47.7467 237.971 47.1851C237.905 45.4256 238.176 43.6533 238.784 41.8685C239.43 40.0822 239.946 38.8632 240.334 38.2113C238.934 38.8636 237.745 39.658 236.768 40.5944C235.284 41.9998 234.093 43.2254 233.194 44.2713L232.118 45.5489C231.812 46.3851 231.23 46.8756 230.373 47.0202C229.554 47.1634 229.15 46.8973 229.162 46.2221C229.211 45.5079 229.844 43.8908 231.061 41.3708C232.279 38.8508 232.883 37.4597 232.873 37.1977C232.862 36.8982 232.706 36.754 232.407 36.7652C231.733 36.7905 230.545 37.6036 228.843 39.2046C227.723 40.3338 226.078 42.4574 223.908 45.5756C221.774 48.6548 220.561 50.2937 220.269 50.4921C218.946 51.2165 218.116 51.585 217.779 51.5977C217.442 51.6103 217.272 51.5605 217.268 51.4482C217.263 51.3358 217.313 51.1653 217.417 50.9364C217.521 50.7076 218.541 47.4077 220.476 41.0367C219.7 42.3405 218.988 43.3419 218.34 44.0411C218.053 44.3892 217.901 44.3387 217.884 43.8894C217.866 43.4028 217.981 42.986 218.231 42.6393C219.833 40.3672 220.998 38.449 221.727 36.8846C221.902 35.5658 222.323 34.7815 222.988 34.5316C223.394 34.3664 223.862 34.3489 224.392 34.479C224.959 34.6077 225.25 34.8592 225.264 35.2336Z" fill="#2b2b2b"/>
<path d="M273.034 36.9638C273.056 38.612 272.404 40.3067 271.078 42.0479C269.752 43.7516 268.179 45.2525 266.361 46.5506C264.69 47.6594 262.978 48.5252 261.225 49.148C259.51 49.7703 258.203 50.0874 257.303 50.0994C256.442 50.1108 255.729 50.0267 255.164 49.8468C254.366 51.7683 253.266 54.9864 251.865 59.5012C251.721 59.9901 251.654 60.5905 251.664 61.3023C251.636 62.052 251.425 63.0477 251.029 64.2894C250.597 65.569 250.179 66.5862 249.777 67.3409C249.596 67.7929 249.057 68.156 248.162 68.4302C247.267 68.7419 246.632 68.9002 246.257 68.9052C245.883 68.9102 245.693 68.7254 245.688 68.3507C245.686 68.2009 245.739 67.9941 245.848 67.7304C247.525 64.1861 249.628 58.9689 252.159 52.0787C254.691 45.2259 256.083 41.4232 256.335 40.6705C256.587 39.9177 256.947 38.8264 257.415 37.3964C258.208 34.9879 258.633 33.1838 258.692 31.9841C258.686 31.5346 259.283 31.3018 260.481 31.2859C261.68 31.2699 262.285 31.6927 262.297 32.5543C262.305 33.1912 261.943 34.0952 261.209 35.2665C260.512 36.3998 259.474 38.6804 258.096 42.1082C260.225 38.7828 261.957 36.6053 263.292 35.576C265.071 34.0911 266.803 33.3374 268.489 33.315C269.163 33.306 269.839 33.4094 270.516 33.6252C271.984 34.1302 272.801 34.9623 272.966 36.1216C273.008 36.4208 273.03 36.7015 273.034 36.9638ZM270.27 36.2137C270.252 34.9026 269.738 34.2538 268.726 34.2672C268.127 34.2752 267.158 34.644 265.819 35.3737C264.48 36.1034 263.145 37.189 261.816 38.6305C260.486 40.0719 259.455 41.4345 258.723 42.7181C258.027 43.9638 257.37 45.2652 256.751 46.6222C256.132 47.9418 255.768 48.7148 255.658 48.941C257.943 48.9106 260.44 47.8845 263.148 45.8627C265.856 43.8409 267.869 41.6597 269.187 39.3192C269.921 38.1479 270.282 37.1128 270.27 36.2137Z" fill="#2b2b2b"/>
<path d="M280.242 49.2609C279.642 49.2545 278.989 49.0603 278.281 48.6782C277.61 48.3339 277.035 47.8408 276.554 47.1988C276.075 46.5193 275.839 45.805 275.847 45.0557C275.854 44.3065 276.031 43.5965 276.375 42.9257C277.141 41.3602 278.355 39.8557 280.019 38.412C281.721 36.9313 283.476 35.676 285.285 34.6461C287.095 33.6161 288.525 32.9755 289.577 32.7244C290.629 32.4732 291.641 32.3528 292.615 32.363C293.627 32.3737 294.486 32.645 295.192 33.177C295.899 33.6715 296.249 34.1998 296.243 34.7617C296.241 34.949 296.221 35.0612 296.183 35.0983C296.146 35.1353 296.052 35.1156 295.903 35.0391C295.461 34.3226 294.528 33.9568 293.105 33.9418C291.719 33.9272 290.121 34.3786 288.313 35.2962C286.543 36.1767 284.864 37.3017 283.276 38.6712C281.952 39.8936 280.776 41.2862 279.748 42.8489C278.757 44.3746 278.258 45.4933 278.251 46.2051C278.236 47.5912 278.622 48.2884 279.409 48.2967C280.196 48.305 281.401 47.6808 283.026 46.4241C285.709 44.2044 287.543 42.5753 288.529 41.5366C292.014 37.8642 293.888 36.0294 294.15 36.0322C294.6 36.0369 295.142 36.1738 295.776 36.4427C296.41 36.7117 296.613 37.0323 296.384 37.4046C294.445 40.0817 293.292 42.7858 292.926 45.517C292.885 45.8537 292.862 46.2844 292.856 46.8088C292.851 47.3333 292.996 47.7657 293.292 48.106C293.848 48.7113 294.616 48.7569 295.595 48.2427C296.575 47.7285 297.934 46.6938 299.674 45.1386C301.452 43.5838 302.873 42.0627 303.937 40.5752C304.089 40.3895 304.258 40.3538 304.444 40.4682C304.631 40.5451 304.724 40.621 304.723 40.6959C304.717 41.2579 303.805 42.4846 301.986 44.3762C300.206 46.2307 298.844 47.4902 297.9 48.1546C296.126 49.4472 294.489 50.0856 292.991 50.0698C291.567 50.0548 290.619 49.3329 290.147 47.9042C290.04 47.4535 289.989 46.9472 289.995 46.3852C290.013 44.6994 290.387 42.9237 291.119 41.0582C290.968 41.1315 290.267 41.8734 289.016 43.2839C287.765 44.6944 286.308 46.0466 284.646 47.3404C283.021 48.6345 281.553 49.2747 280.242 49.2609Z" fill="#2b2b2b"/>
<path d="M312.676 33.6834C313.612 33.7155 314.164 34.0343 314.33 34.6398C314.394 34.9794 314.326 35.3144 314.127 35.645C313.967 35.9394 313.847 36.1789 313.765 36.3635C313.684 36.5482 313.623 36.696 313.581 36.8071C313.381 37.1751 313.182 37.5243 312.983 37.8549C310.702 42.05 309.486 44.726 309.334 45.8829C309.285 46.2186 309.251 46.6485 309.233 47.1727C309.215 47.6969 309.35 48.1326 309.638 48.4799C310.142 49.0969 310.889 49.1601 311.881 48.6693C312.872 48.1785 314.256 47.1764 316.033 45.663C317.846 44.1508 319.322 42.6645 320.459 41.2041C320.615 41.0221 320.785 40.9904 320.968 41.1092C321.153 41.1905 321.243 41.2873 321.24 41.3996C321.237 41.4745 321.196 41.5668 321.118 41.6766C320.521 42.6682 319.466 43.9253 317.952 45.4477C315.467 47.949 313.409 49.4715 311.778 50.0153C310.831 50.3202 310.039 50.4617 309.402 50.4398C307.905 50.3884 306.937 49.6429 306.499 48.2034C306.433 47.9388 306.406 47.6192 306.419 47.2448C306.464 45.9343 307.131 43.9705 308.421 41.3532C308.22 41.7586 307.457 42.6696 306.134 44.0862C305.784 44.449 305.522 44.44 305.348 44.0592C305.313 43.983 305.297 43.8888 305.301 43.7764C305.306 43.6267 305.387 43.4607 305.543 43.2787C307.456 41.0577 308.964 39.1789 310.066 37.6423C309.998 37.4525 310.044 37.2104 310.204 36.916C311.025 34.845 311.718 33.7629 312.283 33.6699C312.396 33.6738 312.527 33.6782 312.676 33.6834ZM317.37 26.366L316.859 28.1478C316.847 28.4848 316.585 29.0193 316.073 29.7515C315.56 30.4836 315.173 30.8452 314.911 30.8362C313.301 30.7809 312.509 30.3601 312.536 29.5738C312.541 29.4241 313.37 28.759 315.023 27.5787L316.003 26.8814C316.62 26.3777 317.003 26.1285 317.153 26.1336C317.303 26.1388 317.375 26.2162 317.37 26.366Z" fill="#2b2b2b"/>
<path d="M320.671 70.1264C320.229 69.987 319.843 69.8511 319.513 69.7185C318.825 69.3015 318.346 68.8409 318.077 68.3366C317.805 67.8697 317.685 67.3745 317.716 66.851C317.768 65.9909 318.124 65.0741 318.784 64.1007C319.403 63.1624 320.213 62.198 321.211 61.2076C322.214 60.1423 323.461 59.0731 324.952 58C326.481 56.929 328.063 55.8989 329.7 54.9096C331.334 53.9577 332.773 53.1253 334.017 52.4125C335.487 49.8367 336.798 47.4014 337.95 45.1067C339.105 42.7745 339.926 40.9852 340.415 39.7386C339.577 40.5512 338.677 41.4725 337.714 42.5026C336.753 43.4953 336.052 44.2222 335.611 44.6835C334.855 45.3883 334.002 46.1623 333.05 47.0055C332.1 47.8112 331.101 48.5013 330.053 49.0759C329.044 49.6153 328.073 49.8567 327.138 49.8001C326.539 49.7638 325.914 49.557 325.261 49.1797C324.611 48.765 324.097 48.2647 323.719 47.6788C323.204 46.8969 322.97 46.1133 323.017 45.328C323.079 44.3183 323.479 43.2916 324.217 42.2479C324.994 41.2065 325.955 40.2138 327.1 39.2698C328.285 38.2907 329.52 37.4272 330.804 36.6792C332.128 35.8962 333.367 35.2581 334.523 34.7652C335.719 34.2371 336.677 33.9011 337.399 33.7571C338.086 33.5735 338.915 33.5112 339.888 33.5701C340.336 33.5973 340.874 33.7049 341.501 33.893C342.127 34.0811 342.674 34.3582 343.139 34.7242C343.645 35.0551 343.879 35.5197 343.843 36.118C343.825 36.4172 343.67 36.5016 343.377 36.3713C343.143 35.9067 342.767 35.6024 342.25 35.4585C341.773 35.2795 341.273 35.1741 340.749 35.1424C339.291 35.054 337.616 35.4405 335.725 36.3018C333.871 37.1653 332.194 38.2085 330.694 39.4312C330.222 39.778 329.565 40.395 328.724 41.2823C327.884 42.1323 327.113 43.0802 326.412 44.1262C325.748 45.1744 325.389 46.1472 325.334 47.0447C325.305 47.5309 325.41 47.9689 325.649 48.3587C325.75 48.5525 325.968 48.6595 326.305 48.6799C327.015 48.723 327.895 48.4572 328.943 47.8827C330.029 47.3104 331.18 46.5732 332.399 45.6711C333.617 44.7691 334.801 43.8087 335.951 42.7899C337.141 41.736 338.194 40.7676 339.111 39.8849C340.028 39.0021 340.706 38.3301 341.147 37.8688C341.233 37.6864 341.372 37.5634 341.564 37.5C341.755 37.4365 341.963 37.4116 342.188 37.4252C342.786 37.4614 343.393 37.6671 344.008 38.0422C344.663 38.3821 344.928 38.6609 344.802 38.8784C343.998 40.3686 343.049 42.0939 341.955 44.0544C340.898 46.0171 339.779 48.0699 338.598 50.2128C339.1 49.9805 339.939 49.4496 341.115 48.6201C342.291 47.7905 343.59 46.7995 345.011 45.647C346.434 44.4571 347.766 43.2242 349.007 41.9482C349.485 41.4892 349.837 41.2665 350.061 41.2801C350.285 41.2937 350.329 41.5028 350.192 41.9073C350.057 42.2745 349.729 42.7425 349.206 43.3114C348.565 43.9857 347.69 44.7959 346.582 45.7422C345.476 46.651 344.311 47.5939 343.089 48.5707C341.868 49.5102 340.729 50.342 339.672 51.0661C338.65 51.8299 337.849 52.3444 337.27 52.6096C335.962 55.0075 334.699 57.258 333.483 59.3613C332.265 61.5019 331.167 63.2182 330.188 64.51C329.533 65.4087 328.746 66.3181 327.827 67.2383C326.908 68.1585 325.924 68.9058 324.876 69.4804C323.825 70.0923 322.739 70.3643 321.617 70.2964C321.468 70.2873 321.319 70.2596 321.172 70.2131C321.022 70.204 320.855 70.1751 320.671 70.1264ZM320.198 68.634C320.413 68.7972 320.731 68.8164 321.152 68.6918C321.609 68.5694 322.191 68.2668 322.896 67.784C324.424 66.7131 325.76 65.4241 326.902 63.9169C328.042 62.4471 329.094 60.8782 330.058 59.2101C331.02 57.5794 331.942 56.0025 332.822 54.4795C331.298 55.4756 329.575 56.6474 327.655 57.9948C325.732 59.3796 323.978 60.7559 322.394 62.1237C321.601 62.8263 320.934 63.6116 320.393 64.4797C319.813 65.3829 319.5 66.2084 319.455 66.9563C319.408 67.7416 319.655 68.3009 320.198 68.634Z" fill="#2b2b2b"/>
<path d="M365.746 36.8528C366.603 36.9364 366.987 37.4443 366.896 38.3765C366.809 39.2714 366.258 40.4787 365.244 41.9985C364.23 43.5183 363.469 44.7616 362.961 45.7283C362.085 47.3745 361.597 48.7196 361.495 49.7637C361.397 50.7704 361.48 51.4561 361.746 51.8208C362.247 52.4719 363.008 52.5837 364.028 52.1562C365.052 51.6914 366.496 50.7782 368.361 49.4166C370.266 48.0213 371.813 46.6288 373.003 45.2391C373.17 45.0672 373.341 45.0462 373.517 45.1763C373.733 45.2727 373.836 45.3768 373.825 45.4886C373.818 45.5632 373.771 45.6528 373.686 45.7574C373.029 46.7096 371.896 47.8979 370.29 49.3223C368.683 50.7466 367.161 51.8781 365.724 52.7167C364.291 53.5181 362.922 53.8551 361.617 53.7279C360.352 53.5671 359.487 53.1815 359.019 52.5713C358.548 51.9984 358.352 51.3018 358.432 50.4815C358.512 49.6612 358.663 48.8854 358.885 48.1542C359.111 47.3857 359.477 46.5181 359.986 45.5513C360.813 44.0133 361.513 42.8205 362.085 41.9729C362.694 41.1289 363.011 40.5763 363.037 40.3153C363.066 40.017 362.931 39.8533 362.633 39.8243C362.036 39.7661 360.828 40.3824 359.009 41.673C357.747 42.6417 355.832 44.5253 353.263 47.3239C350.735 50.0888 349.313 51.55 348.997 51.7074C347.589 52.2477 346.717 52.5015 346.381 52.4688C346.046 52.4361 345.884 52.3638 345.894 52.2519C345.905 52.1401 345.959 51.9759 346.055 51.7595C346.148 51.5803 346.601 50.6081 347.412 48.8428C348.262 47.0811 349.165 45.1553 350.121 43.0653C351.119 40.9416 351.714 39.6634 351.907 39.2305C352.137 38.8012 352.285 38.4392 352.351 38.1445C352.458 37.8162 352.56 37.5438 352.657 37.3274C352.753 37.1109 352.907 36.8813 353.119 36.6384C353.372 36.3619 353.666 36.24 354.002 36.2728C354.341 36.2682 354.766 36.3473 355.277 36.51C355.792 36.6355 356.031 36.8846 355.995 37.2575C355.969 37.5185 355.708 38.0765 355.211 38.9314C354.717 39.749 353.25 42.6362 350.809 47.5929C352.311 46.0831 354.192 44.3654 356.449 42.4399C358.711 40.4771 360.605 39.0055 362.131 38.025C363.646 37.1563 364.851 36.7656 365.746 36.8528Z" fill="#2b2b2b"/>
<defs>
<clipPath id="clip0_1_1705">
<rect width="523.206" height="125.779" fill="white"/>
</clipPath>
</defs>
</svg>
