<svg width="69" height="28" viewBox="0 0 69 28" fill="none" xmlns="http://www.w3.org/2000/svg">
<path d="M55.8393 17.18C56.6993 15.58 57.4093 14.04 57.9693 12.56C58.5493 11.06 59.2093 9.54998 59.9493 8.02998C60.1693 7.62998 60.4493 7.35998 60.7893 7.21998C61.1293 7.05998 61.4593 6.97998 61.7793 6.97998C62.0393 6.97998 62.2693 7.00998 62.4693 7.06998C62.4093 7.20998 62.2493 7.48998 61.9893 7.90998C61.7493 8.30998 61.4893 8.76998 61.2093 9.28998C61.0093 9.64998 60.7093 10.21 60.3093 10.97C59.9093 11.71 59.5393 12.48 59.1993 13.28C59.3793 13.06 59.6593 12.7 60.0393 12.2C60.4193 11.7 60.8593 11.16 61.3593 10.58C61.8593 9.97998 62.3793 9.40998 62.9193 8.86998C63.4793 8.30998 64.0193 7.85998 64.5393 7.51998C65.0793 7.15998 65.5593 6.97998 65.9793 6.97998C66.2993 6.97998 66.5793 7.07998 66.8193 7.27998C67.0593 7.47998 67.1793 7.74998 67.1793 8.08998C67.1793 8.58998 66.9693 9.17998 66.5493 9.85998C66.1293 10.52 65.7093 11.17 65.2893 11.81C65.2093 11.93 65.0593 12.16 64.8393 12.5C64.6393 12.84 64.4193 13.23 64.1793 13.67C63.9393 14.09 63.7293 14.5 63.5493 14.9C63.3893 15.28 63.3093 15.58 63.3093 15.8C63.3093 16.02 63.3993 16.13 63.5793 16.13C63.9593 16.13 64.3493 15.98 64.7493 15.68C65.1693 15.38 65.5693 15.04 65.9493 14.66C66.3293 14.26 66.6293 13.93 66.8493 13.67C67.0693 13.43 67.2693 13.2 67.4493 12.98C67.6293 12.76 67.8093 12.55 67.9893 12.35C68.0493 12.29 68.0993 12.26 68.1393 12.26C68.2593 12.26 68.3193 12.35 68.3193 12.53C68.3193 12.65 68.2793 12.75 68.1993 12.83C67.9793 13.09 67.7593 13.36 67.5393 13.64C67.3193 13.9 67.0893 14.16 66.8493 14.42C66.6293 14.68 66.3993 14.94 66.1593 15.2C65.9393 15.44 65.7093 15.67 65.4693 15.89C64.6093 16.69 63.8093 17.09 63.0693 17.09C62.5693 17.09 62.2293 16.94 62.0493 16.64C61.8893 16.34 61.8093 15.97 61.8093 15.53C61.8093 15.05 61.9393 14.53 62.1993 13.97C62.4593 13.41 62.7793 12.84 63.1593 12.26C63.5393 11.66 63.9193 11.08 64.2993 10.52C64.6993 9.95998 65.0293 9.44998 65.2893 8.98998C65.5493 8.50998 65.6793 8.10998 65.6793 7.78998C65.6793 7.66998 65.6093 7.60998 65.4693 7.60998C65.3493 7.60998 65.1093 7.75998 64.7493 8.05998C64.4093 8.33998 64.0393 8.67998 63.6393 9.07998C63.2393 9.45998 62.8593 9.82998 62.4993 10.19C62.1593 10.55 61.9293 10.81 61.8093 10.97C61.3093 11.51 60.8193 12.09 60.3393 12.71C59.8793 13.33 59.4393 13.93 59.0193 14.51C58.7793 14.85 58.5693 15.2 58.3893 15.56C58.2093 15.9 58.0093 16.26 57.7893 16.64C57.6893 16.82 57.5493 16.93 57.3693 16.97C57.2093 16.99 56.9893 17.01 56.7093 17.03C56.5093 17.03 56.3493 17.03 56.2293 17.03C56.1093 17.05 55.9793 17.1 55.8393 17.18Z" fill="white"/>
<path d="M47.9851 17.21C47.2451 17.21 46.6851 16.97 46.3051 16.49C45.9451 16.01 45.7651 15.4 45.7651 14.66C45.7651 13.82 45.9851 12.9 46.4251 11.9C46.8251 11 47.3351 10.18 47.9551 9.43998C48.5951 8.69998 49.2851 8.10998 50.0251 7.66998C50.7651 7.20998 51.4751 6.97998 52.1551 6.97998C52.9751 6.97998 53.5751 7.22998 53.9551 7.72998C54.3351 8.22998 54.5251 8.85998 54.5251 9.61998C54.5251 10.44 54.3151 11.32 53.8951 12.26C53.6751 12.74 53.3551 13.26 52.9351 13.82C52.5151 14.38 52.0351 14.92 51.4951 15.44C50.9551 15.96 50.3751 16.39 49.7551 16.73C49.1551 17.05 48.5651 17.21 47.9851 17.21ZM48.5551 16.61C48.9751 16.61 49.3951 16.47 49.8151 16.19C50.2351 15.89 50.6351 15.53 51.0151 15.11C51.3951 14.69 51.7251 14.27 52.0051 13.85C52.3051 13.41 52.5251 13.04 52.6651 12.74C53.0051 12.1 53.2551 11.49 53.4151 10.91C53.5751 10.31 53.6551 9.78998 53.6551 9.34998C53.6551 8.38998 53.2951 7.90998 52.5751 7.90998C52.1351 7.90998 51.6651 8.08998 51.1651 8.44998C50.6851 8.78998 50.2151 9.24998 49.7551 9.82998C49.2951 10.41 48.8951 11.06 48.5551 11.78C47.8351 13.22 47.4751 14.39 47.4751 15.29C47.4751 16.01 47.7051 16.43 48.1651 16.55C48.2251 16.57 48.2851 16.59 48.3451 16.61C48.4051 16.61 48.4751 16.61 48.5551 16.61Z" fill="white"/>
<path d="M43.1814 5.14995C42.9614 5.14995 42.7814 5.07995 42.6414 4.93995C42.5014 4.77995 42.4314 4.59995 42.4314 4.39995C42.4314 4.09995 42.5314 3.84995 42.7314 3.64995C42.9514 3.42995 43.1914 3.31995 43.4514 3.31995C43.7114 3.31995 43.9114 3.40995 44.0514 3.58995C44.2114 3.74995 44.2714 3.95995 44.2314 4.21995C44.1714 4.47995 44.0414 4.69995 43.8414 4.87995C43.6614 5.05995 43.4414 5.14995 43.1814 5.14995ZM39.0714 16.9999C38.6314 16.9999 38.2514 16.8599 37.9314 16.5799C37.6114 16.2799 37.4514 15.7799 37.4514 15.0799C37.4514 14.7799 37.4814 14.4499 37.5414 14.0899C37.7214 13.1499 38.0114 12.2499 38.4114 11.3899C38.8314 10.5299 39.2314 9.78995 39.6114 9.16995C40.0114 8.52995 40.2714 8.10995 40.3914 7.90995C40.4914 7.70995 40.7514 7.51995 41.1714 7.33995C41.5914 7.13995 41.9414 7.03995 42.2214 7.03995C42.4614 7.03995 42.5814 7.11995 42.5814 7.27995C42.5814 7.41995 42.5314 7.54995 42.4314 7.66995C42.1314 8.14995 41.7814 8.69995 41.3814 9.31995C41.0014 9.91995 40.6314 10.5599 40.2714 11.2399C39.9114 11.9199 39.6114 12.5899 39.3714 13.2499C39.1314 13.9099 39.0114 14.5199 39.0114 15.0799C39.0114 15.3799 39.0614 15.6199 39.1614 15.7999C39.2814 15.9799 39.4914 16.0699 39.7914 16.0699C40.1114 16.0699 40.4814 15.9199 40.9014 15.6199C41.3214 15.2999 41.7214 14.9499 42.1014 14.5699C42.5014 14.1699 42.7914 13.8599 42.9714 13.6399C43.1714 13.4199 43.3614 13.2099 43.5414 13.0099C43.7414 12.8099 43.9214 12.5999 44.0814 12.3799C44.1414 12.3199 44.1914 12.2899 44.2314 12.2899C44.3514 12.2899 44.4114 12.3799 44.4114 12.5599C44.4114 12.6599 44.3714 12.7499 44.2914 12.8299C44.0714 13.0899 43.8514 13.3599 43.6314 13.6399C43.4114 13.8999 43.1814 14.1599 42.9414 14.4199C42.6214 14.7999 42.2614 15.1899 41.8614 15.5899C41.4614 15.9899 41.0314 16.3299 40.5714 16.6099C40.1114 16.8699 39.6114 16.9999 39.0714 16.9999Z" fill="white"/>
<path d="M30.249 17.09C29.809 17.09 29.439 16.96 29.139 16.7C28.839 16.44 28.689 16 28.689 15.38C28.689 15.22 28.699 15.06 28.719 14.9C28.739 14.74 28.769 14.57 28.809 14.39C28.969 13.59 29.299 12.62 29.799 11.48C30.299 10.32 30.939 9.01002 31.719 7.55002H30.579C30.359 7.55002 30.249 7.49002 30.249 7.37002C30.249 7.31002 30.299 7.25002 30.399 7.19002C30.519 7.11002 30.679 7.07002 30.879 7.07002H31.959C32.299 6.49002 32.569 6.04002 32.769 5.72002C32.989 5.38002 33.169 5.12002 33.309 4.94002C33.829 4.28002 34.299 3.82002 34.719 3.56002C35.159 3.28002 35.539 3.12002 35.859 3.08002C36.179 3.04002 36.409 3.02002 36.549 3.02002C36.269 3.32002 35.959 3.71002 35.619 4.19002C35.279 4.67002 34.949 5.17002 34.629 5.69002C34.309 6.19002 34.039 6.65002 33.819 7.07002H36.879C37.099 7.07002 37.209 7.12002 37.209 7.22002C37.209 7.30002 37.149 7.38002 37.029 7.46002C36.909 7.52002 36.749 7.55002 36.549 7.55002H33.519C33.199 8.13002 32.909 8.65002 32.649 9.11002C32.409 9.55002 32.159 10.02 31.899 10.52C31.659 11.02 31.359 11.64 30.999 12.38C30.719 13 30.509 13.53 30.369 13.97C30.249 14.41 30.189 14.78 30.189 15.08C30.189 15.46 30.269 15.73 30.429 15.89C30.589 16.05 30.789 16.13 31.029 16.13C31.269 16.13 31.549 16.05 31.869 15.89C32.309 15.67 32.749 15.35 33.189 14.93C33.629 14.51 34.049 14.08 34.449 13.64C34.649 13.42 34.839 13.21 35.019 13.01C35.199 12.81 35.369 12.6 35.529 12.38C35.589 12.32 35.639 12.29 35.679 12.29C35.799 12.29 35.859 12.37 35.859 12.53C35.859 12.65 35.819 12.75 35.739 12.83C35.319 13.35 34.879 13.88 34.419 14.42C33.879 15.04 33.279 15.64 32.619 16.22C31.959 16.8 31.169 17.09 30.249 17.09Z" fill="white"/>
<path d="M12.4707 27.44C12.4307 27.6 12.3507 27.59 12.2307 27.41C12.0907 27.25 11.9707 26.98 11.8707 26.6C11.7707 26.22 11.7207 25.8 11.7207 25.34C11.7207 24.98 11.7607 24.65 11.8407 24.35C12.0607 23.41 12.3907 22.34 12.8307 21.14C13.2707 19.96 13.7707 18.73 14.3307 17.45C14.8707 16.19 15.4407 14.95 16.0407 13.73C16.6407 12.49 17.2207 11.35 17.7807 10.31C18.3607 9.27003 18.8807 8.41003 19.3407 7.73003C20.0807 6.59003 20.7207 5.79003 21.2607 5.33003C21.8007 4.85003 22.2707 4.55003 22.6707 4.43003C23.0907 4.31003 23.4607 4.22003 23.7807 4.16003C22.5607 5.68003 21.3907 7.33003 20.2707 9.11003C19.1707 10.89 18.0507 12.91 16.9107 15.17C17.4307 14.37 18.0007 13.5 18.6207 12.56C19.2607 11.6 19.9207 10.7 20.6007 9.86003C21.2607 9.04003 21.9107 8.36003 22.5507 7.82003C23.2107 7.26003 23.7607 6.98003 24.2007 6.98003C24.7807 6.98003 25.1707 7.15003 25.3707 7.49003C25.5907 7.83003 25.7007 8.23003 25.7007 8.69003C25.7007 9.33003 25.5707 10.04 25.3107 10.82C25.0507 11.58 24.6807 12.36 24.2007 13.16C23.7407 13.94 23.1907 14.67 22.5507 15.35C21.9307 16.01 21.2507 16.56 20.5107 17C21.2107 16.84 21.8407 16.64 22.4007 16.4C22.9607 16.16 23.5207 15.83 24.0807 15.41C24.6407 14.97 25.2507 14.39 25.9107 13.67C26.1307 13.45 26.3507 13.21 26.5707 12.95C26.8107 12.67 27.0107 12.42 27.1707 12.2C27.2307 12.14 27.2807 12.11 27.3207 12.11C27.4407 12.11 27.5007 12.2 27.5007 12.38C27.5007 12.5 27.4607 12.6 27.3807 12.68C27.1807 12.94 26.9407 13.23 26.6607 13.55C26.4007 13.85 26.1507 14.14 25.9107 14.42C25.2107 15.14 24.4407 15.78 23.6007 16.34C22.7807 16.88 21.8407 17.29 20.7807 17.57C20.0607 17.75 19.2707 17.84 18.4107 17.84C18.2307 17.84 18.0507 17.83 17.8707 17.81C17.6907 17.81 17.5207 17.8 17.3607 17.78C17.0807 17.76 16.8107 17.68 16.5507 17.54C16.2907 17.42 16.1507 17.18 16.1307 16.82C15.1907 18.78 14.4507 20.66 13.9107 22.46C13.3707 24.28 12.8907 25.94 12.4707 27.44ZM17.7207 17.27C18.3407 17.27 18.9907 17.01 19.6707 16.49C20.3707 15.97 21.0207 15.3 21.6207 14.48C22.2407 13.64 22.7507 12.74 23.1507 11.78C23.3707 11.28 23.5707 10.71 23.7507 10.07C23.9507 9.41003 24.0507 8.88003 24.0507 8.48003C24.0507 8.08003 23.9407 7.88003 23.7207 7.88003C23.4607 7.88003 23.1207 8.08003 22.7007 8.48003C22.3007 8.88003 21.7707 9.46003 21.1107 10.22C20.8907 10.48 20.6107 10.84 20.2707 11.3C19.9507 11.76 19.6107 12.25 19.2507 12.77C18.9107 13.27 18.6007 13.74 18.3207 14.18C18.0407 14.62 17.8307 14.96 17.6907 15.2C17.5707 15.42 17.4407 15.68 17.3007 15.98C17.1807 16.26 17.1207 16.51 17.1207 16.73C17.1207 17.09 17.3207 17.27 17.7207 17.27Z" fill="white"/>
<path d="M5.2719 17.2701C3.7519 17.2701 2.6519 16.81 1.9719 15.89C1.2919 14.97 0.951904 13.84 0.951904 12.5C0.951904 11.52 1.1019 10.5 1.4019 9.44005C1.7219 8.36005 2.1619 7.31005 2.7219 6.29005C3.2819 5.27005 3.9419 4.35005 4.7019 3.53005C5.4619 2.69005 6.29191 2.03005 7.19191 1.55005C8.11191 1.05005 9.0619 0.800049 10.0419 0.800049C11.6419 0.800049 12.7819 1.24005 13.4619 2.12005C14.1419 3.00005 14.4819 4.09005 14.4819 5.39005C14.4819 6.37005 14.3119 7.40005 13.9719 8.48005C13.6519 9.56005 13.1919 10.62 12.5919 11.66C12.0119 12.7 11.3319 13.65 10.5519 14.51C9.7719 15.35 8.9319 16.0201 8.0319 16.5201C7.1319 17.0201 6.21191 17.2701 5.2719 17.2701ZM5.1219 16.5801C5.9819 16.5801 6.79191 16.3301 7.55191 15.8301C8.31191 15.3101 9.0019 14.64 9.6219 13.82C10.2619 12.98 10.8119 12.05 11.2719 11.03C11.7319 10.01 12.0819 8.99005 12.3219 7.97005C12.5819 6.93005 12.7119 5.98005 12.7119 5.12005C12.7119 4.14005 12.5419 3.34005 12.2019 2.72005C11.8619 2.08005 11.3119 1.76005 10.5519 1.76005C9.6919 1.76005 8.8719 2.01005 8.0919 2.51005C7.3119 3.01005 6.5919 3.68005 5.9319 4.52005C5.2919 5.36005 4.7219 6.29005 4.2219 7.31005C3.7419 8.31005 3.3619 9.33005 3.0819 10.37C2.8219 11.39 2.6919 12.34 2.6919 13.22C2.6919 14.2 2.8819 15.0101 3.2619 15.6501C3.6419 16.2701 4.2619 16.5801 5.1219 16.5801Z" fill="white"/>
</svg>
