<svg width="15" height="20" viewBox="0 0 15 20" fill="none" xmlns="http://www.w3.org/2000/svg">
<g clip-path="url(#clip0_249_12831)">
<path d="M9.74212 4.65151C8.33476 3.52101 7.75797 2.26746 7.51957 1.36768C6.48135 2.45972 6.18143 3.59791 6.6044 4.85146C7.15043 6.47415 7.20426 7.45084 6.78897 8.03532C6.57364 8.33525 6.24295 8.50444 5.87381 8.50444H5.78152C5.397 8.47368 5.08938 8.32756 4.86635 8.07377C4.49721 7.63541 4.51259 7.03556 4.56643 6.35111C4.58181 6.12808 4.52797 5.90506 4.43569 5.69741C3.85121 6.60489 2.95912 7.98918 2.19776 9.09661C1.59021 9.98101 1.24414 11.1577 1.24414 12.3343V12.888C1.521 16.018 4.15883 18.479 7.35807 18.479C10.7419 18.479 13.4951 15.7258 13.4951 12.342V12.2805C13.7181 9.52727 12.3415 6.75101 9.72674 4.6592L9.74212 4.65151ZM7.38114 17.3023C5.27395 17.3023 3.56666 15.5951 3.56666 13.4879C3.56666 12.7727 3.76662 12.1036 4.11269 11.5268C4.41262 12.6265 5.41238 13.4417 6.61209 13.4417C8.04252 13.4417 9.19609 12.2805 9.19609 10.8577C9.19609 10.5886 9.14995 10.3194 9.07305 10.0733C10.3266 10.6962 11.1879 11.9882 11.1879 13.4879C11.1879 15.5951 9.48064 17.3023 7.37345 17.3023H7.38114Z" fill="white"/>
<path d="M10.2202 4.05178C8.92815 3.02126 8.42827 1.88307 8.22832 1.06788C8.07451 0.414186 8.1591 0.344972 8.1591 0.344972C8.15141 0.268067 8.10527 0.198853 8.02837 0.168091C7.9976 0.15271 7.96684 0.14502 7.93608 0.14502C7.88994 0.14502 7.85149 0.1604 7.81303 0.183472C7.81303 0.183472 7.55925 0.237305 7.15165 0.62952C6.2211 1.52931 5.1752 3.03664 5.86734 5.09C6.59025 7.22795 6.23649 7.72783 5.86734 7.72783C5.85965 7.72783 5.84427 7.72783 5.83658 7.72783C5.32901 7.68938 5.2521 7.38176 5.3367 6.41276C5.42899 5.28226 4.40615 4.32095 4.40615 4.32095C4.40615 4.32095 2.81422 6.85112 1.57606 8.65838C0.837771 9.73504 0.484009 11.0963 0.484009 12.3344H0.460938C0.460938 16.1489 3.55251 19.2405 7.36698 19.2405C11.1815 19.2405 14.273 16.1489 14.273 12.3344C14.5345 9.01983 12.7349 6.06669 10.2202 4.05178ZM13.5117 12.2806V12.3114V12.3421C13.5117 15.7259 10.7585 18.4791 7.37468 18.4791C4.17544 18.4791 1.5376 16.0182 1.26075 12.8881V12.3344C1.26075 11.1578 1.60682 9.98114 2.21437 9.09674C2.97572 7.98931 3.86782 6.60502 4.45229 5.69754C4.54458 5.90519 4.59841 6.12821 4.58303 6.35123C4.5292 7.03569 4.50613 7.63554 4.88296 8.0739C5.09829 8.32769 5.40591 8.47381 5.79813 8.50457H5.85965H5.89041C6.25956 8.50457 6.59025 8.33538 6.80558 8.03545C7.22087 7.45097 7.16703 6.47428 6.62101 4.85159C6.19803 3.59804 6.49796 2.45985 7.53618 1.36781C7.77458 2.26759 8.35137 3.52114 9.75872 4.65164C12.3735 6.74345 13.7424 9.51971 13.5271 12.2729L13.5117 12.2806Z" fill="#5F4E3E"/>
<path d="M9.85978 11.7188C9.48294 13.1569 8.16787 14.2182 6.61439 14.2182C5.75306 14.2182 4.95325 13.8875 4.3457 13.3337C4.3457 13.3876 4.3457 13.4414 4.3457 13.4953C4.3457 15.1718 5.70692 16.5407 7.39113 16.5407C9.07535 16.5407 10.4366 15.1795 10.4366 13.4953C10.4366 12.8416 10.2289 12.2263 9.86747 11.7188H9.85978Z" fill="white"/>
<path d="M9.07279 10.0732C9.14969 10.3193 9.19583 10.5808 9.19583 10.8577C9.19583 12.2881 8.03457 13.4417 6.61183 13.4417C5.41981 13.4417 4.41236 12.6265 4.11243 11.5267C3.76636 12.0958 3.56641 12.7726 3.56641 13.4878C3.56641 15.595 5.27369 17.3023 7.38088 17.3023C9.48807 17.3023 11.1954 15.595 11.1954 13.4878C11.1954 11.9882 10.334 10.6962 9.08048 10.0732H9.07279ZM7.38088 16.5332C5.70436 16.5332 4.33545 15.172 4.33545 13.4878C4.33545 13.434 4.33545 13.3801 4.33545 13.3263C4.943 13.88 5.74281 14.2107 6.60414 14.2107C8.15762 14.2107 9.47269 13.1494 9.84953 11.7113C10.211 12.2189 10.4186 12.8341 10.4186 13.4878C10.4186 15.1643 9.05741 16.5332 7.37319 16.5332H7.38088Z" fill="#5F4E3E"/>
</g>
<defs>
<clipPath id="clip0_249_12831">
<rect width="13.8429" height="19.0955" fill="white" transform="translate(0.460938 0.152344)"/>
</clipPath>
</defs>
</svg>
