<svg width="139" height="84" viewBox="0 0 139 84" fill="none" xmlns="http://www.w3.org/2000/svg">
<path d="M68.4175 22.0528L32.8541 44.0922V0.013274L68.4175 22.0528Z" fill="#604E3D"/>
<path d="M103.968 0V44.0789L68.4042 22.0395L103.968 0Z" fill="#604E3D"/>
<path d="M14.0125 63.3218L8.60364 70.7943C8.54348 70.8786 8.41112 70.8786 8.35095 70.7943L2.96615 63.3218C2.90599 63.2376 2.77362 63.2797 2.77362 63.382V71.6547H0V56.487C0 56.3907 0.0782149 56.3185 0.168463 56.3185H1.39584C1.44998 56.3185 1.50413 56.3486 1.53422 56.3907L8.38103 66.2278C8.42315 66.2879 8.5134 66.2879 8.55551 66.2278L15.4264 56.3907C15.4565 56.3426 15.5106 56.3185 15.5648 56.3185H16.7681C16.8643 56.3185 16.9365 56.3968 16.9365 56.487V71.6547H14.193V63.382C14.193 63.2797 14.0606 63.2376 14.0005 63.3218H14.0125ZM34.1438 71.6727C34.3544 71.769 34.577 71.8111 34.8237 71.8111C35.3291 71.8111 35.7382 71.6427 36.0751 71.3057C36.4121 70.9628 36.5745 70.5657 36.5745 70.0844C36.5745 69.6031 36.4121 69.1819 36.0751 68.845C35.7382 68.502 35.3291 68.3396 34.8237 68.3396C34.3484 68.3396 33.9453 68.508 33.6023 68.845C33.2594 69.1879 33.097 69.591 33.097 70.0844C33.097 70.313 33.1391 70.5356 33.2293 70.7462C33.3196 70.9568 33.4399 71.1373 33.5963 71.2937C33.7528 71.4501 33.9393 71.5765 34.1499 71.6727H34.1438ZM51.6399 71.2576C50.9901 71.5223 50.1659 71.6547 49.1912 71.6547H43.0724V56.475H49.125C49.7628 56.475 50.3704 56.5893 50.924 56.8179C51.4775 57.0465 51.9708 57.3534 52.38 57.7324C52.7891 58.1055 53.114 58.5507 53.3486 59.044C53.5833 59.5374 53.6976 60.0488 53.6976 60.5722C53.6976 61.0536 53.5893 61.583 53.3667 62.1425C53.1501 62.6961 52.7349 63.1894 52.1333 63.6106L51.9167 63.761L52.1573 63.8753C52.5244 64.0438 52.8432 64.2604 53.108 64.5131C53.3727 64.7658 53.5953 65.0425 53.7638 65.3313C53.9322 65.6201 54.0586 65.927 54.1428 66.2338C54.227 66.5467 54.2691 66.8535 54.2691 67.1423C54.2691 67.7018 54.1849 68.2553 54.0225 68.7908C53.86 69.3203 53.5833 69.8016 53.1922 70.2228C52.8071 70.6439 52.2837 70.9929 51.6339 71.2576H51.6399ZM45.84 62.293C45.84 62.4193 45.9423 62.5156 46.0626 62.5156H48.7821C49.3597 62.5156 49.835 62.3772 50.1899 62.0944C50.5569 61.8056 50.7495 61.4206 50.7495 60.9453C50.7495 60.4699 50.563 60.0668 50.202 59.7359C49.841 59.411 49.3657 59.2426 48.7821 59.2426H46.0626C45.9362 59.2426 45.84 59.3449 45.84 59.4652V62.2869V62.293ZM51.3271 67.1423C51.3271 66.9076 51.2849 66.673 51.2067 66.4504C51.1225 66.2218 50.9841 66.0172 50.7856 65.8427C50.593 65.6743 50.3283 65.5359 49.9974 65.4336C49.6725 65.3313 49.2694 65.2832 48.8001 65.2832H46.0626C45.9362 65.2832 45.84 65.3855 45.84 65.5058V68.6585C45.84 68.7848 45.9423 68.8811 46.0626 68.8811H48.8001C49.6845 68.8811 50.3163 68.7126 50.7134 68.3697C51.1165 68.0207 51.321 67.6056 51.321 67.1363L51.3271 67.1423ZM60.4361 56.475V65.9209C60.4361 66.7813 60.5805 67.5815 60.8693 68.2975C61.1521 69.0134 61.5552 69.6331 62.0666 70.1506C62.572 70.662 63.1917 71.0711 63.9076 71.3659C64.6236 71.6607 65.4238 71.8051 66.2842 71.8051C67.1445 71.8051 67.9447 71.6547 68.6607 71.3659C69.3767 71.0711 69.9964 70.662 70.5138 70.1506C71.0252 69.6392 71.4343 69.0134 71.7171 68.2975C72.0059 67.5815 72.1503 66.7813 72.1503 65.9209V56.475H69.3827V65.5238C69.3827 66.0593 69.2984 66.5467 69.13 66.9859C68.9615 67.4251 68.7329 67.7981 68.4441 68.0989C68.1553 68.3997 67.8244 68.6344 67.4514 68.7968C67.0783 68.9593 66.6873 69.0435 66.2842 69.0435C65.8811 69.0435 65.49 68.9593 65.117 68.7968C64.7439 68.6344 64.413 68.3997 64.1242 68.0989C63.8415 67.7981 63.6068 67.4251 63.4383 66.9859C63.2699 66.5527 63.1856 66.0593 63.1856 65.5238V56.475H60.4421H60.4361ZM82.4265 65.7104C82.4265 65.572 82.5348 65.4637 82.6732 65.4637H88.064V62.672H82.6732C82.5348 62.672 82.4265 62.5637 82.4265 62.4253V59.4893C82.4265 59.3509 82.5348 59.2426 82.6732 59.2426H89.3094V56.475H79.6589V71.6547H82.4265V65.7043V65.7104ZM98.7975 59.2426H105.434V56.475H95.7832V71.6547H98.5508V65.7043C98.5508 65.566 98.6591 65.4577 98.7975 65.4577H104.188V62.666H98.7975C98.6591 62.666 98.5508 62.5577 98.5508 62.4193V59.4832C98.5508 59.3449 98.6591 59.2366 98.7975 59.2366V59.2426ZM121.504 68.8871H114.868C114.729 68.8871 114.621 68.7788 114.621 68.6404V65.7043C114.621 65.566 114.729 65.4577 114.868 65.4577H120.259V62.666H114.868C114.729 62.666 114.621 62.5577 114.621 62.4193V59.4832C114.621 59.3449 114.729 59.2366 114.868 59.2366H121.504V56.469H111.853V71.6487H121.504V68.8811V68.8871ZM127.689 56.475V59.2426H131.738C131.876 59.2426 131.985 59.3509 131.985 59.4893V71.6547H134.752V59.4893C134.752 59.3509 134.861 59.2426 134.999 59.2426H139V56.475H127.689ZM26.1599 63.8392C26.7796 62.9488 27.7182 62.2809 28.8072 62.1305L29.0238 62.1064V59.9646H28.8433C27.5678 59.9646 26.3584 60.4038 25.5342 61.4145C25.48 61.4807 25.4199 61.5529 25.3416 61.583C25.2875 61.6011 25.2514 61.6011 25.2213 61.595C25.119 61.5589 25.119 61.3905 25.119 61.2822V60.0067H22.7365V68.4178H25.2153C25.2153 68.4178 25.2033 66.6309 25.2153 66.4143C25.2815 65.5178 25.6425 64.5732 26.1539 63.8392H26.1599ZM41.9232 78.9768C41.0929 78.8444 40.2145 78.7722 39.288 78.7662H37.3867V79.7469H39.288C39.7873 79.7469 40.2386 79.771 40.6297 79.8011C41.0268 79.8312 41.4539 79.8793 41.9172 79.9455V78.9768H41.9232ZM37.5733 80.5652V81.5459H39.0473C39.5467 81.5459 39.9979 81.5639 40.389 81.594C40.7861 81.6301 41.2133 81.6782 41.6765 81.7444V80.7758C40.8463 80.6374 39.9678 80.5652 39.0413 80.5652H37.5672H37.5733ZM37.2424 83.4351H39.4324C39.9257 83.4351 40.371 83.4531 40.768 83.4832C41.1651 83.5193 41.5923 83.5674 42.0556 83.6336V82.6649C41.2313 82.5326 40.3529 82.4604 39.4264 82.4544H37.2363V83.4351H37.2424ZM46.5138 81.9369C46.1528 82.2017 45.7497 82.4303 45.2985 82.6108V83.7299C45.2985 83.7299 45.3887 83.6998 45.5632 83.6336C45.7317 83.5674 45.9603 83.4651 46.2371 83.3268C46.5138 83.1824 46.8207 82.9959 47.1456 82.7672C47.4765 82.5386 47.7954 82.2618 48.1082 81.955C48.3489 82.2197 48.6016 82.4604 48.8603 82.677C49.119 82.8936 49.3597 83.0801 49.5883 83.2365C49.8169 83.3929 50.0696 83.5494 50.3464 83.7118V82.5205C50.3464 82.5205 50.2561 82.4604 50.0877 82.3461C49.9192 82.2378 49.7206 82.0813 49.492 81.8768C49.2634 81.6722 49.0287 81.4496 48.8001 81.2029C49.0709 80.872 49.3175 80.499 49.5401 80.0839C49.7628 79.6687 49.9312 79.2235 50.0395 78.7422H45.5813V79.7469H48.385C48.1202 80.2704 47.8315 80.7036 47.5186 81.0405C47.2057 81.3774 46.8688 81.6782 46.5078 81.949L46.5138 81.9369ZM58.204 81.4015C58.4386 80.9803 58.589 80.487 58.6492 79.9154V78.9588H56.0019C56.0019 78.9588 56.02 78.8986 56.05 78.8023C56.0741 78.7061 56.1042 78.5978 56.1283 78.4714H54.9129C54.8347 78.8083 54.7264 79.0971 54.594 79.3438C54.4557 79.5845 54.3173 79.789 54.1669 79.9515C54.0165 80.1139 53.8901 80.2343 53.7818 80.3125C53.6735 80.3907 53.6133 80.4268 53.6073 80.4268V81.6301C53.6073 81.6301 53.7156 81.582 53.9082 81.4677C54.1007 81.3533 54.3474 81.1849 54.6422 80.9502C54.943 80.7216 55.2498 80.3666 55.5747 79.8853H57.3977C57.3797 80.1139 57.3316 80.3486 57.2534 80.5892H55.3521V81.5218H56.7841C56.5374 81.7865 56.2666 81.9971 55.9718 82.1596C55.677 82.322 55.3942 82.4544 55.1235 82.5446C54.8528 82.6349 54.6301 82.701 54.4557 82.7371C54.2812 82.7732 54.1909 82.7913 54.1849 82.7913V83.8021C54.1849 83.8021 54.2932 83.79 54.4857 83.7539C54.6843 83.7178 54.937 83.6517 55.2559 83.5554C55.5687 83.4591 55.9117 83.3207 56.2726 83.1403C56.6336 82.9598 56.9886 82.7251 57.3436 82.4484C57.6926 82.1656 57.9874 81.8166 58.222 81.3955L58.204 81.4015ZM65.6945 80.5652H62.1147V81.5459H65.6945V80.5652ZM74.5328 78.2488H73.859V79.0009H74.5328V78.2488ZM72.5955 83.5373C72.9806 83.5193 73.4077 83.4892 73.877 83.4471V82.4484C73.3957 82.5085 72.9806 82.5506 72.6196 82.5747C72.2586 82.5988 71.8555 82.6048 71.4042 82.5988C71.0854 82.5867 70.8627 82.5326 70.7484 82.4423C70.6341 82.3461 70.5679 82.2197 70.5559 82.0633V80.4448H73.871V79.4641H70.5559V78.6399H69.3706V82.1596C69.4007 82.6409 69.5872 82.9838 69.9362 83.2004C70.2852 83.417 70.7424 83.5373 71.308 83.5554C71.7773 83.5614 72.2044 83.5554 72.5955 83.5373ZM72.8001 78.2488V79.0009H73.4739V78.2488H72.8001ZM77.2704 82.6409V83.4952H81.7346V82.6409H80.9224L81.1691 79.6085H77.499V80.4388H80.0079L79.8394 82.6349H77.2764L77.2704 82.6409ZM85.5491 83.6697C86.1568 83.5975 86.6742 83.4411 87.1014 83.2124C87.5286 82.9838 87.8835 82.7131 88.1783 82.3942C88.4731 82.0753 88.6958 81.7504 88.8522 81.4075C89.0086 81.0706 89.1229 80.7517 89.1951 80.4569C89.2673 80.1621 89.3215 79.8312 89.3576 79.4581H88.3167C88.3167 79.4581 88.3107 79.5725 88.2806 79.771C88.2505 79.9756 88.1904 80.2283 88.0941 80.5291C88.0039 80.8359 87.8655 81.1428 87.685 81.4677C87.5045 81.7865 87.2398 82.0693 86.8848 82.31C86.5298 82.5506 86.0846 82.7071 85.5431 82.7853V83.6577L85.5491 83.6697ZM91.9928 79.7529H95.5486C95.5245 80.2884 95.4162 80.7216 95.2237 81.0706C95.0312 81.4135 94.7845 81.6903 94.4837 81.8948C94.1828 82.0994 93.876 82.2498 93.5752 82.3401C93.2683 82.4363 92.9134 82.5085 92.4982 82.5566V83.5554C92.4982 83.5554 92.6065 83.5554 92.8051 83.5253C93.0036 83.4952 93.2623 83.4531 93.5752 83.3689C93.888 83.2847 94.225 83.1703 94.5739 83.0079C94.9229 82.8515 95.2598 82.6288 95.5727 82.3401C95.8855 82.0513 96.1563 81.6903 96.3849 81.2511C96.6135 80.8119 96.7338 80.2824 96.7399 79.6687V78.7482H91.9868V79.7469L91.9928 79.7529ZM104.134 82.6649H102.516V80.4388H103.996V79.6085H99.9226V80.4388H101.439V82.6649H99.7963V83.4952H104.134V82.6649ZM85.2724 79.5063H84.3939V81.4316H85.2724V79.5063ZM87.0412 79.5063H86.1628V81.4316H87.0412V79.5063Z" fill="#604E3D"/>
</svg>
