<svg width="80" height="27" viewBox="0 0 80 27" fill="none" xmlns="http://www.w3.org/2000/svg">
<path d="M66.4293 26.9001C65.8693 26.9001 65.4393 26.7501 65.1393 26.4501C64.8193 26.1501 64.6593 25.7201 64.6593 25.1601C64.6593 24.3601 64.8893 23.6001 65.3493 22.8801C65.8093 22.1601 66.3993 21.4901 67.1193 20.8701C67.8193 20.2701 68.5493 19.7201 69.3093 19.2201C70.0693 18.7201 70.7593 18.2901 71.3793 17.9301C71.9993 17.5701 72.4393 17.2901 72.6993 17.0901C73.1993 16.1901 73.6693 15.2701 74.1093 14.3301C74.5493 13.3701 74.9393 12.4201 75.2793 11.4801C74.7593 12.4001 74.1893 13.2801 73.5693 14.1201C72.9693 14.9601 72.3593 15.6501 71.7393 16.1901C71.1393 16.7301 70.5593 17.0001 69.9993 17.0001C69.4193 17.0001 69.0293 16.8101 68.8293 16.4301C68.6293 16.0301 68.5293 15.6001 68.5293 15.1401C68.5293 14.7801 68.5593 14.4301 68.6193 14.0901C68.6993 13.7501 68.7693 13.5001 68.8293 13.3401C69.0093 12.8201 69.2393 12.2501 69.5193 11.6301C69.7993 10.9901 70.0793 10.3701 70.3593 9.77014C70.6593 9.15014 70.9193 8.61014 71.1393 8.15014C71.2993 7.81014 71.5993 7.52014 72.0393 7.28014C72.4793 7.02014 72.8393 6.89014 73.1193 6.89014C73.4193 6.89014 73.5693 7.00014 73.5693 7.22014C73.5693 7.38014 73.4793 7.61014 73.2993 7.91014C73.1393 8.19014 72.8993 8.63014 72.5793 9.23014C72.2593 9.83014 71.9093 10.4901 71.5293 11.2101C71.1693 11.9301 70.8393 12.6201 70.5393 13.2801C70.1793 14.0601 69.9993 14.7601 69.9993 15.3801C69.9993 15.6401 70.0393 15.8501 70.1193 16.0101C70.1993 16.1701 70.3293 16.2501 70.5093 16.2501C70.6693 16.2501 70.8793 16.1601 71.1393 15.9801C71.3993 15.8001 71.6993 15.5001 72.0393 15.0801C72.2193 14.8801 72.4893 14.5401 72.8493 14.0601C73.2293 13.5801 73.6393 13.0201 74.0793 12.3801C74.5193 11.7201 74.9393 11.0301 75.3393 10.3101C75.7393 9.57014 76.0593 8.86014 76.2993 8.18014L76.4793 7.52014C76.6393 7.38014 76.7993 7.31014 76.9593 7.31014C77.1793 7.31014 77.3693 7.41014 77.5293 7.61014C77.6893 7.81014 77.7793 7.93014 77.7993 7.97014C77.4793 9.13014 77.0793 10.3701 76.5993 11.6901C76.1193 13.0101 75.4993 14.4901 74.7393 16.1301C75.4993 15.6501 76.1393 15.1901 76.6593 14.7501C77.1793 14.2901 77.5593 13.9301 77.7993 13.6701C77.9993 13.4501 78.1893 13.2301 78.3693 13.0101C78.5693 12.7901 78.7493 12.5701 78.9093 12.3501C78.9693 12.2901 79.0193 12.2601 79.0593 12.2601C79.1793 12.2601 79.2393 12.3501 79.2393 12.5301C79.2393 12.6501 79.1993 12.7501 79.1193 12.8301C78.8993 13.0901 78.6793 13.3601 78.4593 13.6401C78.2593 13.9001 78.0393 14.1701 77.7993 14.4501C77.3993 14.8901 76.8593 15.3701 76.1793 15.8901C75.5193 16.3901 74.8693 16.8201 74.2293 17.1801C73.7293 18.3601 73.1993 19.5201 72.6393 20.6601C72.0993 21.8201 71.5193 22.8701 70.8993 23.8101C70.2793 24.7501 69.5993 25.5001 68.8593 26.0601C68.1193 26.6201 67.3093 26.9001 66.4293 26.9001ZM66.3093 26.2701C66.8293 26.2701 67.3493 26.0601 67.8693 25.6401C68.3693 25.2201 68.8493 24.6701 69.3093 23.9901C69.7693 23.3301 70.1993 22.6201 70.5993 21.8601C70.9993 21.1001 71.3493 20.3701 71.6493 19.6701C71.9693 18.9701 72.2293 18.3901 72.4293 17.9301C72.0893 18.1501 71.6293 18.4601 71.0493 18.8601C70.4693 19.2801 69.8493 19.7501 69.1893 20.2701C68.5293 20.7901 67.9093 21.3401 67.3293 21.9201C66.7293 22.5001 66.2493 23.0701 65.8893 23.6301C65.5093 24.2101 65.3193 24.7401 65.3193 25.2201C65.3193 25.4601 65.3893 25.6901 65.5293 25.9101C65.6693 26.1501 65.9293 26.2701 66.3093 26.2701Z" fill="#5F4E3E"/>
<path d="M61.8695 17.1499C61.4895 17.1499 61.1695 17.0199 60.9095 16.7599C60.6495 16.4999 60.5195 16.1299 60.5195 15.6499C60.5195 15.4299 60.5395 15.2299 60.5795 15.0499C60.6195 14.8499 60.6695 14.6799 60.7295 14.5399C60.8295 14.2399 61.0195 13.8499 61.2995 13.3699C61.5795 12.8899 61.8895 12.3899 62.2295 11.8699C62.5695 11.3299 62.8595 10.8499 63.0995 10.4299C63.3995 9.90994 63.5495 9.45994 63.5495 9.07994C63.5495 8.65994 63.3695 8.32994 63.0095 8.08994C62.8695 7.98994 62.7295 7.89994 62.5895 7.81994C62.4495 7.71994 62.3295 7.62994 62.2295 7.54994L61.3895 8.89994C60.9095 9.55994 60.4095 10.2399 59.8895 10.9399C59.3695 11.6399 58.8695 12.2899 58.3895 12.8899C57.9095 13.4699 57.4995 13.9599 57.1595 14.3599C57.0995 14.4199 57.0395 14.4499 56.9795 14.4499C56.8795 14.4499 56.7995 14.3999 56.7395 14.2999C56.6795 14.1999 56.6895 14.1099 56.7695 14.0299C57.5495 13.1499 58.2995 12.2499 59.0195 11.3299C59.7395 10.4099 60.4095 9.42994 61.0295 8.38994L61.7495 7.15994C61.6695 7.09994 61.5395 6.96994 61.3595 6.76994C61.1995 6.56994 61.0395 6.34994 60.8795 6.10994C60.7395 5.84994 60.6695 5.62994 60.6695 5.44994C60.6695 5.28994 60.7195 5.16994 60.8195 5.08994C60.9395 4.98994 61.1395 4.93994 61.4195 4.93994C62.0995 4.93994 62.4295 5.66994 62.4095 7.12994C62.6895 7.34994 62.9995 7.51994 63.3395 7.63994C63.6795 7.75994 63.9995 7.87994 64.2995 7.99994C64.6195 8.09994 64.8795 8.24994 65.0795 8.44994C65.2795 8.64994 65.3795 8.94994 65.3795 9.34994C65.3795 9.68994 65.2795 10.0899 65.0795 10.5499C64.8995 10.9899 64.6795 11.3799 64.4195 11.7199C64.1995 12.0199 63.9395 12.3799 63.6395 12.7999C63.3595 13.2199 63.0895 13.6399 62.8295 14.0599C62.5695 14.4799 62.3795 14.8599 62.2595 15.1999C62.1595 15.4599 62.1095 15.6499 62.1095 15.7699C62.1095 16.0299 62.2295 16.1599 62.4695 16.1599C62.6895 16.1599 62.9595 16.0699 63.2795 15.8899C63.6995 15.6699 64.1295 15.3599 64.5695 14.9599C65.0295 14.5399 65.4495 14.1099 65.8295 13.6699C66.0495 13.4499 66.2495 13.2399 66.4295 13.0399C66.6095 12.8199 66.7795 12.5999 66.9395 12.3799C66.9995 12.3199 67.0495 12.2899 67.0895 12.2899C67.2095 12.2899 67.2695 12.3799 67.2695 12.5599C67.2695 12.6599 67.2295 12.7499 67.1495 12.8299C66.7295 13.3299 66.2995 13.8599 65.8595 14.4199C65.4195 14.9599 64.9495 15.4499 64.4495 15.8899C64.1495 16.1299 63.7595 16.3999 63.2795 16.6999C62.7995 16.9999 62.3295 17.1499 61.8695 17.1499Z" fill="#5F4E3E"/>
<path d="M49.4657 17.4501C48.7257 17.4501 48.1357 17.2401 47.6957 16.8201C47.2557 16.3801 47.0357 15.7701 47.0357 14.9901C47.0357 14.3901 47.1457 13.7601 47.3657 13.1001C47.6057 12.4401 47.8357 11.9201 48.0557 11.5401C48.5157 10.7001 49.0657 9.93014 49.7057 9.23014C50.3657 8.53014 51.0357 7.97014 51.7157 7.55014C52.4157 7.11014 53.0557 6.89014 53.6357 6.89014C54.1757 6.89014 54.6357 7.04014 55.0157 7.34014C55.4157 7.64014 55.6157 8.04014 55.6157 8.54014C55.6157 8.74014 55.5657 8.97014 55.4657 9.23014C55.3657 9.49014 55.2057 9.76014 54.9857 10.0401C54.1857 11.0601 53.2957 11.8601 52.3157 12.4401C51.3557 13.0001 50.2557 13.4201 49.0157 13.7001C48.9357 13.9601 48.8657 14.2201 48.8057 14.4801C48.7457 14.7201 48.6957 14.9501 48.6557 15.1701C48.6357 15.2701 48.6157 15.3701 48.5957 15.4701C48.5957 15.5501 48.5957 15.6401 48.5957 15.7401C48.5957 16.1401 48.6857 16.4301 48.8657 16.6101C49.0657 16.7701 49.3057 16.8501 49.5857 16.8501C50.0257 16.8501 50.4957 16.7401 50.9957 16.5201C51.4957 16.2801 51.9657 16.0101 52.4057 15.7101C52.8457 15.4101 53.1757 15.1701 53.3957 14.9901C53.6157 14.7901 53.8257 14.5901 54.0257 14.3901C54.2457 14.1701 54.4857 13.9301 54.7457 13.6701C54.9457 13.4501 55.1357 13.2401 55.3157 13.0401C55.4957 12.8201 55.6657 12.6001 55.8257 12.3801C55.8857 12.3201 55.9357 12.2901 55.9757 12.2901C56.0957 12.2901 56.1557 12.3801 56.1557 12.5601C56.1557 12.6601 56.1157 12.7501 56.0357 12.8301C55.6757 13.2701 55.3157 13.7101 54.9557 14.1501C54.5957 14.5701 54.2257 14.9801 53.8457 15.3801C53.4057 15.8401 52.7957 16.3001 52.0157 16.7601C51.2557 17.2201 50.4057 17.4501 49.4657 17.4501ZM49.1957 13.3101C49.7157 13.0901 50.3157 12.7701 50.9957 12.3501C51.6957 11.9301 52.3657 11.4301 53.0057 10.8501C53.6657 10.2501 54.2057 9.61014 54.6257 8.93014C54.7657 8.71014 54.8357 8.51014 54.8357 8.33014C54.8357 8.05014 54.6757 7.91014 54.3557 7.91014C54.1357 7.91014 53.8657 7.99014 53.5457 8.15014C52.5457 8.69014 51.6857 9.42014 50.9657 10.3401C50.2457 11.2601 49.6557 12.2501 49.1957 13.3101Z" fill="#5F4E3E"/>
<path d="M40.0935 17.0899C39.7135 17.0899 39.3935 16.9699 39.1335 16.7299C38.8735 16.4699 38.7435 16.0299 38.7435 15.4099C38.7435 15.2699 38.7535 15.1199 38.7735 14.9599C38.7935 14.7799 38.8235 14.5899 38.8635 14.3899C38.9635 13.8499 39.1735 13.1599 39.4935 12.3199C39.8135 11.4799 40.1935 10.5899 40.6335 9.64994C41.0735 8.68994 41.5235 7.76994 41.9835 6.88994C42.4435 5.98994 42.8635 5.21994 43.2435 4.57994C43.9835 3.35994 44.6735 2.41994 45.3135 1.75994C45.9535 1.09994 46.5235 0.649945 47.0235 0.409944C47.5235 0.169945 47.9435 0.0599446 48.2835 0.0799444C47.7635 0.659944 47.1935 1.36994 46.5735 2.20994C45.9535 3.04994 45.2935 4.05994 44.5935 5.23994C43.7135 6.75994 42.9435 8.13994 42.2835 9.37994C41.6435 10.6199 41.0935 11.8899 40.6335 13.1899C40.3735 13.9499 40.2435 14.5699 40.2435 15.0499C40.2435 15.7299 40.4735 16.0699 40.9335 16.0699C41.2935 16.0699 41.6935 15.8899 42.1335 15.5299C42.5935 15.1699 42.9535 14.8499 43.2135 14.5699C43.6135 14.1699 43.9635 13.7999 44.2635 13.4599C44.5835 13.0999 44.8935 12.7399 45.1935 12.3799C45.2535 12.3199 45.3035 12.2899 45.3435 12.2899C45.4635 12.2899 45.5235 12.3799 45.5235 12.5599C45.5235 12.6599 45.4835 12.7499 45.4035 12.8299C45.1835 13.0899 44.9635 13.3599 44.7435 13.6399C44.5435 13.8999 44.3235 14.1599 44.0835 14.4199C43.8835 14.6799 43.6535 14.9399 43.3935 15.1999C43.1535 15.4399 42.9135 15.6699 42.6735 15.8899C42.3335 16.2099 41.9235 16.4899 41.4435 16.7299C40.9635 16.9699 40.5135 17.0899 40.0935 17.0899Z" fill="#5F4E3E"/>
<path d="M31.9513 17.0899C31.5713 17.0899 31.2513 16.9699 30.9913 16.7299C30.7313 16.4699 30.6013 16.0299 30.6013 15.4099C30.6013 15.2699 30.6113 15.1199 30.6313 14.9599C30.6513 14.7799 30.6813 14.5899 30.7213 14.3899C30.8213 13.8499 31.0313 13.1599 31.3513 12.3199C31.6713 11.4799 32.0513 10.5899 32.4913 9.64994C32.9313 8.68994 33.3813 7.76994 33.8413 6.88994C34.3013 5.98994 34.7213 5.21994 35.1013 4.57994C35.8413 3.35994 36.5313 2.41994 37.1713 1.75994C37.8113 1.09994 38.3813 0.649945 38.8813 0.409944C39.3813 0.169945 39.8013 0.0599446 40.1413 0.0799444C39.6213 0.659944 39.0513 1.36994 38.4313 2.20994C37.8113 3.04994 37.1513 4.05994 36.4513 5.23994C35.5713 6.75994 34.8013 8.13994 34.1413 9.37994C33.5013 10.6199 32.9513 11.8899 32.4913 13.1899C32.2313 13.9499 32.1013 14.5699 32.1013 15.0499C32.1013 15.7299 32.3313 16.0699 32.7913 16.0699C33.1513 16.0699 33.5513 15.8899 33.9913 15.5299C34.4513 15.1699 34.8113 14.8499 35.0713 14.5699C35.4713 14.1699 35.8213 13.7999 36.1213 13.4599C36.4413 13.0999 36.7513 12.7399 37.0513 12.3799C37.1113 12.3199 37.1613 12.2899 37.2013 12.2899C37.3213 12.2899 37.3813 12.3799 37.3813 12.5599C37.3813 12.6599 37.3413 12.7499 37.2613 12.8299C37.0413 13.0899 36.8213 13.3599 36.6013 13.6399C36.4013 13.8999 36.1813 14.1599 35.9413 14.4199C35.7413 14.6799 35.5113 14.9399 35.2513 15.1999C35.0113 15.4399 34.7713 15.6699 34.5313 15.8899C34.1913 16.2099 33.7813 16.4899 33.3013 16.7299C32.8213 16.9699 32.3713 17.0899 31.9513 17.0899Z" fill="#5F4E3E"/>
<path d="M18.745 17.1199C18.085 17.1199 17.625 16.9599 17.365 16.6399C17.105 16.3199 16.975 15.9299 16.975 15.4699C16.975 14.8699 17.115 14.2299 17.395 13.5499C17.695 12.8699 17.955 12.3399 18.175 11.9599C18.715 11.0999 19.355 10.2799 20.095 9.49986C20.835 8.71986 21.615 8.08986 22.435 7.60986C23.275 7.10986 24.075 6.85986 24.835 6.85986C25.235 6.85986 25.625 6.92986 26.005 7.06986C26.385 7.18986 26.755 7.39987 27.115 7.69987C27.295 7.83987 27.415 7.97986 27.475 8.11986C27.555 8.23986 27.595 8.34986 27.595 8.44986C27.595 8.74986 27.465 8.89986 27.205 8.89986C27.025 8.89986 26.895 8.77986 26.815 8.53986C26.555 7.85986 26.135 7.51987 25.555 7.51987C25.055 7.51987 24.485 7.74986 23.845 8.20986C23.205 8.66986 22.575 9.21987 21.955 9.85987C21.275 10.5799 20.655 11.3599 20.095 12.1999C19.535 13.0199 19.115 13.7699 18.835 14.4499C18.695 14.7499 18.595 15.0199 18.535 15.2599C18.495 15.4799 18.475 15.6699 18.475 15.8299C18.475 16.1899 18.625 16.3699 18.925 16.3699C19.265 16.3699 19.765 16.1199 20.425 15.6199C20.905 15.2399 21.395 14.7799 21.895 14.2399C22.415 13.6999 22.895 13.1699 23.335 12.6499C23.775 12.1099 24.125 11.6899 24.385 11.3899C24.485 11.2299 24.575 11.0799 24.655 10.9399C24.755 10.7999 24.845 10.6799 24.925 10.5799C25.005 10.4799 25.135 10.3999 25.315 10.3399C25.515 10.2799 25.715 10.2499 25.915 10.2499C26.155 10.2499 26.355 10.2899 26.515 10.3699C26.675 10.4499 26.705 10.5899 26.605 10.7899C26.605 10.8099 26.495 11.0199 26.275 11.4199C26.055 11.7999 25.795 12.2599 25.495 12.7999C25.215 13.3399 24.965 13.8599 24.745 14.3599C24.625 14.6399 24.525 14.8999 24.445 15.1399C24.365 15.3799 24.325 15.5799 24.325 15.7399C24.325 15.9999 24.425 16.1299 24.625 16.1299C24.765 16.1299 24.975 16.0499 25.255 15.8899C25.695 15.6699 26.135 15.3499 26.575 14.9299C27.035 14.5099 27.455 14.0799 27.835 13.6399C28.055 13.4199 28.255 13.2099 28.435 13.0099C28.615 12.8099 28.785 12.5999 28.945 12.3799C29.005 12.3199 29.055 12.2899 29.095 12.2899C29.215 12.2899 29.275 12.3799 29.275 12.5599C29.275 12.6599 29.235 12.7499 29.155 12.8299C28.935 13.0899 28.715 13.3599 28.495 13.6399C28.275 13.8999 28.045 14.1599 27.805 14.4199C27.585 14.6799 27.355 14.9399 27.115 15.1999C26.895 15.4399 26.665 15.6699 26.425 15.8899C25.565 16.6899 24.775 17.0899 24.055 17.0899C23.735 17.0899 23.465 16.9799 23.245 16.7599C23.025 16.5199 22.915 16.1499 22.915 15.6499C22.915 15.2699 22.985 14.8399 23.125 14.3599C23.165 14.1399 23.225 13.9199 23.305 13.6999C23.405 13.4799 23.495 13.2499 23.575 13.0099C23.175 13.6499 22.715 14.2899 22.195 14.9299C21.695 15.5499 21.155 16.0699 20.575 16.4899C19.995 16.9099 19.385 17.1199 18.745 17.1199Z" fill="#5F4E3E"/>
<path d="M5.49063 17.6C4.39063 17.6 3.50063 17.4 2.82063 17C2.16063 16.6 1.68063 16.06 1.38063 15.38C1.08063 14.68 0.930634 13.9 0.930634 13.04C0.930634 11.98 1.13063 10.88 1.53063 9.74002C1.93063 8.58002 2.48063 7.47002 3.18063 6.41002C3.88063 5.35002 4.68063 4.40002 5.58063 3.56002C6.50063 2.70002 7.48063 2.02002 8.52063 1.52002C9.58063 1.02002 10.6506 0.77002 11.7306 0.77002C12.9306 0.77002 13.8106 1.04002 14.3706 1.58002C14.9306 2.12002 15.2106 2.77002 15.2106 3.53002C15.2106 3.89002 15.1506 4.27002 15.0306 4.67002C14.8906 5.11002 14.7206 5.57002 14.5206 6.05002C14.3206 6.51002 14.1406 6.93002 13.9806 7.31002C13.8206 7.67002 13.7106 7.93002 13.6506 8.09002C13.3306 8.09002 13.1106 8.00002 12.9906 7.82002C12.8706 7.64002 12.8106 7.40002 12.8106 7.10002C12.8106 6.76002 12.8806 6.36002 13.0206 5.90002C13.1606 5.44002 13.3206 4.99002 13.5006 4.55002C13.7406 4.03002 13.8606 3.53002 13.8606 3.05002C13.8606 2.59002 13.7306 2.22002 13.4706 1.94002C13.2306 1.64002 12.8406 1.49002 12.3006 1.49002C11.2406 1.49002 10.2306 1.77002 9.27063 2.33002C8.33063 2.89002 7.46063 3.63002 6.66063 4.55002C5.88063 5.45002 5.20063 6.44002 4.62063 7.52002C4.06063 8.60002 3.62063 9.68002 3.30063 10.76C2.98063 11.82 2.82063 12.78 2.82063 13.64C2.82063 14.6 3.01063 15.39 3.39063 16.01C3.79063 16.63 4.54063 16.94 5.64063 16.94C6.52063 16.94 7.34063 16.7 8.10063 16.22C8.88063 15.74 9.61063 15.07 10.2906 14.21C10.5706 13.87 10.8006 13.47 10.9806 13.01C11.1806 12.53 11.2906 12.1 11.3106 11.72C10.9706 11.76 10.6106 11.8 10.2306 11.84C9.85063 11.86 9.47063 11.87 9.09063 11.87C8.67063 11.87 8.27063 11.85 7.89063 11.81C7.51063 11.75 7.19063 11.66 6.93063 11.54C6.59063 11.38 6.41063 11.14 6.39063 10.82C6.39063 10.82 6.47063 10.83 6.63063 10.85C6.81063 10.85 7.03063 10.85 7.29063 10.85C7.47063 10.85 7.67063 10.85 7.89063 10.85C8.11063 10.83 8.34063 10.81 8.58063 10.79C8.94063 10.75 9.37063 10.7 9.87063 10.64C10.3906 10.56 10.9006 10.48 11.4006 10.4C11.9206 10.32 12.3606 10.26 12.7206 10.22C13.1006 10.16 13.3306 10.13 13.4106 10.13C14.5106 10.13 15.1206 10.51 15.2406 11.27C15.0606 11.21 14.8706 11.18 14.6706 11.18C14.3906 11.18 14.0706 11.22 13.7106 11.3C13.3706 11.38 12.9406 11.47 12.4206 11.57C12.4606 11.65 12.4806 11.73 12.4806 11.81C12.4806 11.89 12.4806 11.98 12.4806 12.08C12.4806 12.94 12.2406 13.71 11.7606 14.39C11.3006 15.07 10.7006 15.65 9.96063 16.13C9.24063 16.61 8.48063 16.97 7.68063 17.21C6.88063 17.47 6.15063 17.6 5.49063 17.6Z" fill="#5F4E3E"/>
</svg>
