<svg width="326" height="160" viewBox="0 0 326 160" fill="none" xmlns="http://www.w3.org/2000/svg">
<g clip-path="url(#clip0_1_2725)">
<path d="M73.1867 60.6627C105.532 41.896 145.13 42.3865 179.605 31.1316C133.114 2.06506 96.9872 -5.14994 44.43 12.1454C41.4872 13.2167 9.58115 24.2651 13.2596 19.4637C89.9787 -1.78121 106.035 -13.8621 179.915 27.6467C199.417 45.4196 70.9538 43.6255 67.4689 71.8144C78.5948 77.5709 99.1556 68.5747 111.12 66.0579C132.74 59.5527 154.927 55.2805 177.036 51.0212C178.521 50.8147 178.495 53.3703 177.217 53.6801C167.692 55.1127 158.553 58.0684 149.196 60.2368C136.973 58.9074 37.5893 98.4673 73.1867 60.6627Z" fill="#2b2b2b"/>
<path d="M61.106 63.3601C49.1025 52.8539 32.8398 49.0334 22.0882 36.6814C20.5007 33.7515 7.34848 30.6409 10.601 27.9563C11.3884 28.3435 11.4142 28.4597 12.0337 28.7694C23.8436 32.9126 31.0199 44.2836 42.1973 49.5755C44.5206 50.7887 67.7402 61.5273 61.1189 63.3472L61.106 63.3601Z" fill="#2b2b2b"/>
<path d="M178.972 50.3631C177.139 49.6145 174.751 35.0683 178.443 36.8624C178.804 37.2496 178.494 37.753 178.365 39.276C177.617 41.6509 181.037 50.3631 178.972 50.3631Z" fill="#2b2b2b"/>
<path d="M62.0997 74.8217C43.4749 64.0186 27.4057 49.0465 8.10977 39.5211C7.72256 38.979 7.8 39.0307 7.49023 38.5402C12.9757 32.0222 41.9261 61.8373 50.0704 64.8833C51.9677 66.5096 68.7726 73.0276 62.0997 74.8217Z" fill="#2b2b2b"/>
<path d="M13.5177 97.6669C-2.31915 98.3897 28.9803 67.7098 30.5162 61.4112C30.9163 60.6497 31.8069 61.2822 31.5358 62.0049C25.9213 73.789 14.9504 82.953 10.3168 95.0597C38.2604 97.099 66.7074 91.6781 94.8188 91.8588C116.799 89.3935 139.851 95.0726 161.328 91.0973C159.095 85.4569 155.081 65.0381 160.36 61.5532C161.277 61.6952 161.574 62.7923 161.457 63.5796C155.972 84.6051 174.971 96.7892 146.911 94.6854C102.214 94.6467 58.1113 98.1316 13.5177 97.6669Z" fill="#2b2b2b"/>
<path d="M26.0905 116.227C16.1005 115.556 7.98206 114.872 6.71718 102.998C6.48485 100.971 6.82043 91.5491 10.4473 93.924C11.183 94.1951 11.8542 95.7181 10.6667 95.589C6.62683 92.6849 8.66613 105.966 10.2279 107.644C18.953 118.705 58.6161 112.794 72.6718 112.381C103.403 109.98 135.296 110.651 165.563 105.179C167.874 104.521 170.003 106.082 167.164 107.605C121.254 113.775 72.5815 116.331 26.1035 116.214L26.0905 116.227Z" fill="#2b2b2b"/>
<path d="M166.284 106.805C166.078 105.889 166.8 105.282 167.588 105.05C165.29 92.2719 165.987 79.21 166.232 66.3031C166.297 65.7222 166.181 61.8889 167.149 63.1925C167.278 63.3732 167.317 63.6184 167.175 63.7991C167.459 75.1443 167.704 86.6315 168.143 97.9381C168.091 100.907 171.305 106.224 167.368 107.567C166.865 107.812 166.362 107.321 166.271 106.805H166.284Z" fill="#2b2b2b"/>
<path d="M5.9554 55.1383C11.1827 53.3959 16.4746 50.8016 21.8181 49.8594C25.1997 53.1894 7.49133 56.0031 5.11645 57.2034C3.90319 56.9195 4.94866 54.209 5.9554 55.1383Z" fill="#2b2b2b"/>
<path d="M15.3124 74.7184C14.1121 71.8789 2.58617 58.0039 6.12268 57.0229C6.75512 59.4882 22.9921 76.8997 15.3124 74.7184Z" fill="#2b2b2b"/>
<path d="M46.2883 124.191C45.6558 122.784 39.8477 115.207 43.7198 115.582C44.4168 115.569 44.4168 116.692 43.8489 116.885C49.8377 126.269 57.8529 135.11 68.4108 139.176C105.841 128.953 144.497 124.591 182.676 118.46C188.446 121.777 176.249 122.887 174.132 123.442C138.805 129.87 102.369 131.922 67.9333 142.699C58.9371 139.498 51.3994 132.18 46.3012 124.191H46.2883Z" fill="#2b2b2b"/>
<path d="M180.806 121.532C178.65 116.795 191.234 117.299 194.861 115.853C205.651 113.427 218.416 113.323 227.619 106.896C224.844 99.7064 214.725 100.391 208.891 96.6733C206.413 95.2923 173.384 74.8089 179.386 74.3442C193.209 84.7473 208.736 93.3046 225.076 99.0869C238.009 108.019 224.147 113.414 214.906 114.859C203.78 117.234 192.073 121.777 180.818 121.519L180.806 121.532Z" fill="#2b2b2b"/>
<path d="M2.19847 75.9574C-0.266767 74.1246 4.72823 51.9117 6.41905 55.7322C6.10928 59.4623 3.97963 62.8697 3.88928 66.7031C2.83091 68.8069 5.43812 76.7447 2.19847 75.9703V75.9574Z" fill="#2b2b2b"/>
<path d="M6.12323 85.5473C5.50369 83.9856 -2.18887 73.5568 1.17985 74.1634C1.20567 76.2285 11.1569 86.6573 6.12323 85.5473Z" fill="#2b2b2b"/>
<path d="M63.5326 156.923C48.4186 147.733 42.1329 140.583 30.878 125.456C28.9807 122.435 24.8375 119.635 24.8891 115.866C25.0182 115.22 25.883 114.988 26.1024 115.724C27.3802 119.97 31.704 122.668 33.924 126.475C37.5638 131.922 41.7715 137.175 46.9214 141.564C57.1566 150.276 70.3733 156.975 63.5326 156.936V156.923Z" fill="#2b2b2b"/>
<path d="M81.8741 159.814C57.2346 162.486 71.3032 136.182 71.3032 146.055C59.5192 167.313 124.454 148.753 134.418 150.857C145.828 150.379 156.399 146.21 167.512 144.197C183.529 141.435 199.857 142.196 215.848 139.731C221.089 139.937 223.012 140.97 219.488 143.655C202.787 148.921 184.291 145.449 167.021 147.746C139.026 153.593 110.463 158.291 81.8741 159.827V159.814Z" fill="#2b2b2b"/>
<path d="M208.787 144.506C209.742 140.234 220.674 140.621 224.598 139.176C221.41 134.736 221.926 110.768 229.103 111.49C225.592 120.796 223.049 126.088 227.063 137.046C228.044 138.621 229.696 140.441 227.735 142.041C224.714 142.261 208.813 148.12 208.8 144.506H208.787Z" fill="#2b2b2b"/>
<path d="M164.516 130.735C184.187 127.753 203.908 122.745 223.346 119.635C225.308 120.757 224.74 121.067 222.094 121.984C203.07 126.023 183.657 128.037 164.594 131.922C163.974 132.064 163.91 130.851 164.516 130.735Z" fill="#2b2b2b"/>
<path d="M68.2443 153.657C67.0827 149.489 82.442 149.798 85.3461 149.024C107.404 146.739 129.165 142.48 151.327 141.925C152.501 141.99 152.32 144.042 151.223 144.132C124.028 147.269 95.904 147.398 69.2511 153.283C69.1994 153.774 68.5541 154.161 68.2314 153.657H68.2443Z" fill="#2b2b2b"/>
<path d="M46.1335 107.902C33.446 107.554 20.823 104.288 8.12249 105.953C0.726794 101.1 41.3709 106.702 44.0297 106.56C49.399 106.702 54.665 105.45 60.0214 105.256C64.2033 108.973 48.1083 107.489 46.1335 107.902Z" fill="#2b2b2b"/>
<path d="M114.397 104.714C104.368 104.198 94.2365 102.752 84.2723 104.714C79.8194 100.003 133.745 104.379 114.397 104.714Z" fill="#2b2b2b"/>
<path d="M153.416 98.2867C156.475 98.8288 160.708 97.3445 162.425 99.2805C156.268 100.352 148.047 98.1705 141.503 100.081C140.987 98.0931 148.808 98.1834 153.416 98.2738V98.2867Z" fill="#2b2b2b"/>
<path d="M69.7149 70.73C71.3412 64.6637 131.126 45.5872 130.455 50.9178C110.165 56.1064 88.159 58.7911 70.5539 70.9365C70.3861 71.5044 69.6504 71.3237 69.7149 70.73Z" fill="#2b2b2b"/>
<path d="M102.42 63.1793C123.11 55.4739 155.235 47.2908 174.389 44.6965C161.224 49.2269 147.594 51.847 134.042 54.8672C123.51 56.3515 112.203 62.9083 102.42 63.1664V63.1793Z" fill="#2b2b2b"/>
<path d="M6.28928 37.0687C0.984512 33.2095 5.65684 21.9417 6.08277 25.8396C3.82405 29.2858 5.25672 32.9255 7.51544 35.8812C7.98009 36.6557 6.92172 37.998 6.27637 37.0558L6.28928 37.0687Z" fill="#2b2b2b"/>
</g>
<g clip-path="url(#clip1_1_2725)">
<path d="M302.725 84.0151C304.021 74.046 305.317 64.0768 306.614 54.1077C308.782 55.209 311.145 55.9088 313.566 56.1612C313.153 60.8303 312.728 65.5223 311.753 70.1111C310.801 74.5852 309.321 78.9675 308.919 83.5218C306.855 83.6595 304.79 83.7972 302.736 84.0151H302.725Z" fill="#2b2b2b"/>
<path d="M264.693 149.475C260.001 129.662 258.085 108.107 258.521 87.5143C258.613 86.6883 258.659 85.5985 259.336 85.0134C260.047 84.4972 260.162 85.3805 260.162 86.1032C261.24 106.535 263.638 126.863 266.942 147.042C267.228 148.339 266.093 150.232 264.693 149.486V149.475Z" fill="#2b2b2b"/>
<path d="M317.088 150.805C313.463 147.582 319.509 133.999 319.451 128.664C322.813 113.98 324.281 98.9519 324.143 83.9809C309.551 85.174 274.63 87.2275 262.436 83.74C271.074 81.9274 282.007 84.5316 291.551 83.9694C302.633 83.7744 313.669 82.2372 324.694 81.6636C326.782 82.2257 325.681 86.3212 325.899 88.0076C326.335 107.556 324.499 126.978 319.784 145.976C319.256 147.639 319.451 150.828 317.077 150.794L317.088 150.805Z" fill="#2b2b2b"/>
<path d="M275.66 153.593C273.71 153.306 265.794 152.939 265.702 150.633C265.565 149.612 266.746 148.419 267.641 149.222C274.777 150.851 282.142 150.14 289.369 149.818C295.816 149.486 302.401 150.025 308.722 148.442C310.099 148.373 313.059 146.285 313.518 148.35C310.592 155.336 283.22 153.042 275.66 153.593Z" fill="#2b2b2b"/>
<path d="M260.094 41.2019C259.428 41.0987 259.268 40.3301 259.325 39.7679C259.566 37.508 259.933 35.2594 260.323 33.0109C260.69 31.2098 260.862 29.2825 261.597 27.6076C261.711 27.4929 261.872 27.4011 262.044 27.4355C262.239 27.47 262.388 27.642 262.446 27.8256C262.319 29.8332 262.296 31.8293 262.056 33.8369C261.838 35.9248 261.597 38.0127 261.287 40.0892C261.207 40.6169 260.805 41.2134 260.243 41.2134C260.197 41.2134 260.163 41.2134 260.105 41.2134L260.094 41.2019Z" fill="#2b2b2b"/>
<path d="M268.159 83.6597C267.757 83.4188 267.562 82.9943 267.471 82.5698C266.358 76.9371 265.142 71.3273 264.19 65.6486C262.48 57.6068 260.759 49.542 259.704 41.3739C259.67 40.7085 259.498 39.9399 259.888 39.3548C260.519 38.4715 261.574 39.4237 261.161 40.2726C263.237 50.1615 265.084 60.3142 267.539 70.0883C268.469 73.8741 269.421 77.6483 270.189 81.4685C270.43 82.4207 269.742 83.8203 268.744 83.8203C268.56 83.8203 268.365 83.7744 268.17 83.6597H268.159Z" fill="#2b2b2b"/>
<path d="M274.329 84.7152C271.725 71.7633 269.809 60.3602 267.434 47.3624C266.712 43.4046 266.849 43.8979 266.104 39.8138C264.968 34.2155 259.76 28.3189 262.1 27.1029C262.662 26.8161 265.473 32.0129 268.169 39.4008C268.731 44.6435 269.018 47.3624 270.073 52.5133C272.562 63.297 274.88 72.5319 276.83 83.4418C277.117 84.5087 276.245 85.6559 275.396 85.6559C274.994 85.6559 274.593 85.392 274.329 84.7152Z" fill="#2b2b2b"/>
<path d="M262.088 28.9614C261.124 31.0837 260.895 32.3342 260.551 35.2366C260.918 35.3628 265.254 34.8924 265.335 34.8121C264.302 32.3112 263.602 30.992 262.088 28.9614Z" fill="#2b2b2b"/>
<path d="M261.4 43.1752C260.093 42.9917 260.62 41.5806 261.813 41.6609C262.215 41.6953 262.869 41.5003 263.569 41.3053C264.876 40.9496 266.322 40.5825 266.379 41.7412C266.471 43.0146 264.762 43.244 263.247 43.244C262.513 43.244 261.813 43.1867 261.4 43.1752Z" fill="#2b2b2b"/>
<path d="M290.574 48.7047C290.092 44.5863 286.731 38.3455 283.014 44.0586C279.24 50.5288 279.378 58.3642 279.137 65.6833C279.251 66.5666 278.712 69.2625 279.481 70.0426C279.079 74.8494 279.125 79.7135 278.494 84.5203C278.46 85.2315 278.861 86.1264 279.664 86.1264H279.71C280.433 86.1034 280.972 85.3348 281.041 84.6694C281.695 80.0003 282.005 75.2968 281.741 70.5933C283.186 70.7883 284.758 70.6621 286.158 70.8113C286.318 70.8113 286.502 70.8113 286.697 70.8227C286.846 70.8342 287.006 70.8457 287.156 70.8457C287.087 71.9011 287.018 72.968 286.972 74.0234C286.834 77.3388 286.628 80.6313 286.18 83.9123C286.112 84.4973 286.307 85.3118 286.995 85.4266C287.018 85.4266 287.041 85.4266 287.064 85.4266C289.06 85.4266 288.429 79.7594 288.773 78.1992C288.957 75.1706 289.186 72.142 289.484 69.1249C290.104 62.3449 291.618 55.4962 290.597 48.6933L290.574 48.7047ZM281.569 68.5283C281.511 67.9088 281.443 67.2894 281.362 66.6699C281.293 66.1766 281.236 65.6718 281.213 65.167C281.282 64.3525 281.351 63.5495 281.431 62.7579C281.718 58.9951 281.718 55.5076 282.578 51.7448C283.003 49.8175 284.941 41.0185 287.546 45.6647C289.324 49.9093 288.452 54.4751 288.119 59.0525C287.832 62.3449 287.523 65.6259 287.27 68.9298C285.354 68.9528 283.473 68.8151 281.557 68.5398L281.569 68.5283Z" fill="#2b2b2b"/>
<path d="M293.776 44.6434C291.895 42.762 291.482 46.5592 290.736 47.6261C290.553 47.477 290.369 47.3049 290.186 47.1558C289.176 45.9856 289.314 48.2915 289.509 49.4043C289.738 50.7465 289.658 52.7426 291.253 52.2149C292.365 56.5284 289.417 66.0501 291.838 68.6428C292.606 68.6428 292.996 67.8053 293.054 67.1629C293.214 59.6488 293.65 52.0428 293.788 44.6434H293.776Z" fill="#2b2b2b"/>
<path d="M302.438 84.7378C301.968 84.6231 302.243 83.9233 302.232 83.625C302.886 77.5908 303.54 71.6598 304.343 65.6599C305.146 60.8531 305.283 55.8284 306.603 51.1478C307.853 48.429 309.287 45.7445 310.503 43.0601C310.951 42.3029 311.123 41.2131 311.891 40.7428C312.568 40.4904 312.993 41.3049 312.866 41.8899C310.939 46.0658 307.773 49.9433 307.119 54.6353C305.731 63.4458 305.02 72.3596 303.356 81.1356C303.207 82.2025 303.035 83.2694 302.851 84.3363C302.828 84.5199 302.679 84.7378 302.473 84.7378C302.461 84.7378 302.45 84.7378 302.427 84.7378H302.438Z" fill="#2b2b2b"/>
<path d="M308.94 85.2772C308.527 85.2084 308.378 84.7151 308.436 84.348C309.881 75.4687 311.889 66.727 312.577 57.7674C312.761 56.7005 313.208 55.5418 313.277 54.4634C313.541 50.3565 312.462 46.1577 311.912 42.0852C311.82 41.6378 311.912 41.1445 312.256 40.8347C314.126 39.8481 314.435 45.9053 314.653 47.0755C314.883 49.542 315.055 52.1805 314.963 54.5896C314.011 57.4691 313.759 60.5207 313.3 63.5034C312.221 70.5357 310.764 77.5107 309.698 84.543C309.629 84.8757 309.388 85.2772 309.021 85.2772C308.986 85.2772 308.963 85.2772 308.929 85.2772H308.94Z" fill="#2b2b2b"/>
<path d="M313.278 46.9609C313.278 46.4791 313.22 45.9743 313.151 45.5039C312.704 42.2574 312.75 41.6494 310.421 45.6531C309.629 47.0068 309.09 47.8672 311.098 48.2113C312.91 48.5211 313.312 48.2113 313.266 46.9609H313.278Z" fill="#2b2b2b"/>
<path d="M313.3 57.1252C310.777 56.7352 308.287 55.8174 306.062 54.5899H306.107C305.752 54.5899 305.798 53.9131 306.142 53.9131C308.631 54.2572 311.04 55.1865 313.564 55.4618C314.379 55.6339 314.161 57.1252 313.369 57.1252C313.346 57.1252 313.323 57.1252 313.3 57.1252Z" fill="#2b2b2b"/>
<path d="M294.384 83.6597C294.751 70.2719 297.114 57.0218 297.332 43.611C298.055 31.0033 296.231 18.212 297.917 5.81079C298.605 5.111 299.248 6.34997 298.881 6.71708C298.525 28.5483 298.502 50.4368 296.873 72.2221C296.69 76.0079 296.277 79.7936 296.368 83.5909C296.368 84.3939 295.795 84.8757 295.267 84.8757C294.797 84.8757 294.361 84.4972 294.384 83.6482V83.6597Z" fill="#2b2b2b"/>
<path d="M318.071 82.7533C317.67 82.7533 317.429 82.2944 317.463 81.9273C318.198 76.0537 318.496 70.1571 318.955 64.2604C319.815 55.6106 321.203 46.9951 321.398 38.2764C322.156 27.8254 320.985 17.363 321.238 6.9005C318.748 6.73989 316.27 6.78578 313.792 6.8202C311.67 6.85461 309.548 6.9005 307.425 6.80873C306.187 6.73989 304.913 6.83167 303.64 6.92345C301.655 7.06111 299.67 7.21025 297.8 6.75137C295.736 3.74571 304.546 3.82601 309.284 3.89484C310.534 3.91778 311.498 3.92926 311.911 3.89484C315.054 4.00956 318.221 4.00956 321.352 4.29636C322.913 4.37666 323.44 5.52386 323.108 6.91197C322.775 11.3746 322.947 15.7569 323.108 20.1851C323.658 27.9975 322.362 35.7411 322.041 43.5306C321.8 52.1001 320.882 60.773 319.861 69.2393C319.414 73.5298 319.07 77.6138 318.806 81.8699C318.771 82.2485 318.553 82.7418 318.106 82.7533H318.083H318.071Z" fill="#2b2b2b"/>
<path d="M315.227 12.361C314.918 12.361 314.573 12.3266 314.401 12.0284C314.023 11.4433 314.459 10.5714 315.181 10.5829C317.418 10.5026 319.633 10.2273 321.858 10.0437C323.372 10.1125 323.132 12.797 321.732 12.8658C319.483 12.7052 317.418 12.4069 315.239 12.3496L315.227 12.361Z" fill="#2b2b2b"/>
<path d="M318.602 19.2099C317.971 19.164 317.386 19.1296 316.996 19.2099C316.813 19.187 316.629 19.1984 316.434 19.2099C315.952 19.2099 315.47 19.2329 315.126 18.9002C314.564 18.338 314.817 17.0532 315.631 16.8696C317.398 17.1679 319.164 17.0876 320.966 17.0876C321.505 17.0876 321.757 17.6497 321.734 18.1086C321.711 19.0723 320.793 19.2787 319.738 19.2787C319.371 19.2787 318.981 19.2558 318.602 19.2214V19.2099Z" fill="#2b2b2b"/>
<path d="M318.05 27.8484C317.178 27.7567 316.294 27.6534 315.445 27.5043C314.528 27.1372 314.803 25.6688 315.663 25.4164C317.625 25.359 319.552 24.946 321.514 24.8198C322.317 24.7739 322.696 25.6573 322.661 26.2997C322.593 27.6878 321.48 27.9632 320.264 27.9632C319.484 27.9632 318.669 27.8599 318.05 27.8484Z" fill="#2b2b2b"/>
<path d="M318.508 36.3721C318.083 36.3492 317.67 36.3262 317.338 36.3377C316.798 36.3033 316.099 36.3492 315.674 36.0624C314.963 35.5805 315.273 34.5366 316.271 34.3645C316.775 34.3645 317.292 34.3645 317.796 34.3645C318.817 34.3645 319.85 34.3416 320.871 34.4104C321.513 34.4448 321.777 34.9955 321.754 35.3511C321.674 36.2344 320.699 36.4065 319.598 36.4065C319.242 36.4065 318.863 36.3836 318.496 36.3721H318.508Z" fill="#2b2b2b"/>
<path d="M315.676 45.9398C314.999 45.6301 315.114 44.7238 315.779 44.4485C317.259 44.0469 318.922 44.0584 320.482 44.0928C320.781 44.1043 321.056 44.2993 321.205 44.4714C321.767 45.1138 321.343 46.3643 320.161 46.4102C318.658 46.3643 317.087 46.3184 315.676 45.9398Z" fill="#2b2b2b"/>
<path d="M318.542 55.5533C317.36 55.4501 315.1 55.3009 315.938 53.8554C316.339 53.3048 317.142 53.3622 317.888 53.4195C318.209 53.4425 318.519 53.4654 318.783 53.4539C320.148 53.4998 319.884 55.5648 318.657 55.5648C318.611 55.5648 318.576 55.5648 318.53 55.5648L318.542 55.5533Z" fill="#2b2b2b"/>
<path d="M316.695 63.5953C316.121 63.5379 315.502 63.5035 314.951 63.3314C314.148 62.9643 314.24 61.6795 314.951 61.255C316.156 60.7273 317.567 60.6929 318.875 60.6814C320.446 60.7158 320.205 63.5265 318.748 63.6182C318.485 63.6297 318.209 63.6412 317.945 63.6412C317.532 63.6412 317.131 63.6182 316.706 63.5953H316.695Z" fill="#2b2b2b"/>
<path d="M314.403 71.4192C313.761 71.4192 313.749 70.4441 314.254 69.8705C315.837 69.2625 317.191 69.446 318.9 69.3772C319.462 69.4001 319.634 69.9508 319.612 70.467C319.566 71.3848 319.52 71.6601 318.613 71.6601C317.374 71.6601 315.195 71.4536 314.392 71.4192H314.403Z" fill="#2b2b2b"/>
<path d="M315.09 79.0365C314.424 79.0021 313.805 78.9792 313.334 79.0136C312.21 78.7842 312.072 77.8779 312.818 77.3846C314.252 76.7536 316.535 77.1093 318.233 77.1322C318.921 77.1781 318.807 77.7173 318.784 78.0729C318.703 78.9448 317.866 79.0595 316.466 79.0595C316.007 79.0595 315.537 79.0365 315.09 79.0251V79.0365Z" fill="#2b2b2b"/>
</g>
<defs>
<clipPath id="clip0_1_2725">
<rect width="230.002" height="160.008" fill="white" transform="translate(0.326172)"/>
</clipPath>
<clipPath id="clip1_1_2725">
<rect width="67.5356" height="149.721" fill="white" transform="translate(258.465 3.87207)"/>
</clipPath>
</defs>
</svg>
