<svg width="31" height="30" viewBox="0 0 31 30" fill="none" xmlns="http://www.w3.org/2000/svg">
<path d="M15.543 0C23.8279 0 30.543 6.71508 30.543 15C30.543 23.2849 23.8279 30 15.543 30C7.25805 30 0.542971 23.2849 0.542971 15C0.542971 6.71508 7.25113 0 15.543 0ZM11.1515 16.0235L16.684 21.065C16.9468 21.3071 17.2857 21.4246 17.6177 21.4246C17.9911 21.4246 18.3645 21.2725 18.6412 20.9751C19.1529 20.408 19.1184 19.5367 18.5513 19.018L14.1391 14.9931L18.5513 10.9682C19.1184 10.4564 19.1529 9.57815 18.6412 9.01106C18.1294 8.44398 17.2511 8.4094 16.684 8.92116L11.1515 13.9627C10.8611 14.2254 10.702 14.5989 10.702 14.9862C10.702 15.3734 10.868 15.7469 11.1515 16.0097V16.0235Z" fill="#6D7455"/>
</svg>
