<svg width="353" height="61" viewBox="0 0 353 61" fill="none" xmlns="http://www.w3.org/2000/svg">
<g filter="url(#filter0_f_4_64)">
<mask id="path-1-outside-1_4_64" maskUnits="userSpaceOnUse" x="10" y="9.1886" width="333" height="41" fill="black">
<rect fill="white" x="10" y="9.1886" width="333" height="41"/>
<path d="M54.1855 20.1066C62.5065 20.1066 68.7041 26.3745 68.7041 34.6251C68.704 42.8757 62.544 49.1056 54.1855 49.1056C45.8273 49.1054 39.7052 42.8006 39.7051 34.6251C39.7051 26.3793 45.8647 20.1067 54.1855 20.1066ZM164.34 24.9445C165.062 24.6866 167.166 24.0964 169.285 25.8868H169.276C172.295 28.4417 171.114 32.8204 169.009 33.5939C167.683 34.0813 167.518 34.8266 167.537 35.4874C167.607 36.0265 167.654 36.5755 167.654 37.1427C167.654 43.8931 162.535 49.1055 155.658 49.1056C148.781 49.1056 143.694 43.8979 143.694 37.1427C143.694 36.6412 143.727 36.1489 143.783 35.6661L143.774 35.6798C143.831 34.9767 143.769 34.1283 142.312 33.5939C140.211 32.8204 139.03 28.4371 142.044 25.8868C144.163 24.0961 146.268 24.6866 146.99 24.9445C148.139 25.3523 148.275 26.1445 148.72 26.4259C149.17 26.7118 149.489 26.6462 150.384 26.2853L150.365 26.3087C151.945 25.568 153.732 25.1466 155.663 25.1466C157.594 25.1467 159.38 25.564 160.955 26.2999L160.946 26.2853C161.841 26.6461 162.16 26.7118 162.61 26.4259C163.055 26.1445 163.192 25.3522 164.34 24.9445ZM22.7197 20.5089C28.2044 20.509 31.3027 23.3455 31.3027 27.5646C31.3027 29.6553 30.1075 31.7837 28.4668 32.754C31.2654 33.5369 33.8016 36.0024 33.8018 39.8087H33.8066C33.8066 45.6685 29.1046 49.1006 20.2588 49.1007C16.7851 49.1007 12.758 48.505 11 47.755V20.5089H22.7197ZM124.192 20.5089C129.677 20.5089 132.775 23.3455 132.775 27.5646C132.775 29.6552 131.58 31.7837 129.939 32.754C132.738 33.5369 135.274 36.0023 135.274 39.8087H135.279C135.279 45.6685 130.577 49.1006 121.731 49.1007C118.258 49.1007 114.231 48.505 112.473 47.755V20.5089H124.192ZM96.8838 37.3898V20.5187H102.331V48.7023H101.623L82.4785 31.422V48.5148H77.0684V20.298H77.7764L96.8838 37.3898ZM198.354 37.3898V20.5187H203.802V48.7023H203.094L183.949 31.422V48.5148H178.539V20.298H179.247L198.354 37.3898ZM233.774 37.3898V20.5187H239.222V48.7023H238.514L219.369 31.422V48.5148H213.959V20.298H214.667L233.774 37.3898ZM255 48.5118H249.553V20.5206H255V48.5118ZM303.487 20.5206C310.838 20.5207 314.944 24.0276 314.944 29.9249C314.944 34.0686 313.041 36.9795 309.718 38.6202L315.577 48.5118H309.455L304.565 40.0411C303.783 40.1161 302.924 40.1534 302.066 40.1534C300.501 40.1534 299.193 40.0405 298.11 39.8156V48.5118H292.588V20.5206H303.487ZM341.146 25.4474H328.23V31.382H340.508V36.1593H328.23V43.5851H341.482V48.5118H323.008V20.5206H341.146V25.4474ZM283.442 25.4445H270.527V31.379H282.805V36.1564H270.527V43.5822H283.779V48.5089H265.305V20.5177H283.442V25.4445ZM16.3398 43.7657C17.4603 44.1407 19.4386 44.3234 20.8916 44.3234C26.4137 44.3233 28.2793 42.4202 28.2793 39.7716H28.2842C28.2842 37.6059 26.9013 35.8528 23.8779 35.8527H16.3398V43.7657ZM117.816 43.7657C118.937 44.1408 120.916 44.3234 122.369 44.3234C127.891 44.3233 129.757 42.4201 129.757 39.7716C129.757 37.6058 128.373 35.8527 125.354 35.8527H117.816V43.7657ZM155.667 30.1954C151.842 30.1956 149.109 33.2611 149.109 37.1378C149.109 41.0146 151.842 43.996 155.667 43.9962C159.464 43.9962 162.254 41.1038 162.254 37.1378C162.254 33.1719 159.492 30.1954 155.667 30.1954ZM54.1855 25.1456C48.9962 25.1458 45.2275 29.2154 45.2275 34.6251C45.2276 40.0347 48.9588 43.9912 54.1855 43.9913C59.4125 43.9913 63.1815 39.9223 63.1816 34.6251C63.1816 29.2153 59.375 25.1456 54.1855 25.1456ZM298.11 35.1515C299.193 35.339 300.426 35.4513 301.954 35.4513C307.069 35.4513 309.234 33.5854 309.234 30.1163L309.229 30.1124C309.229 27.2388 307.664 25.4104 303 25.4103H298.11V35.1515ZM16.3398 31.4503H22.4238C24.8849 31.4503 25.8935 29.9928 25.8936 28.3146C25.8936 26.6364 24.8855 25.2913 22.3496 25.2911H16.3398V31.4503ZM117.812 31.4503H123.896C126.357 31.4503 127.366 29.9927 127.366 28.3146C127.366 26.6364 126.358 25.2903 123.822 25.2902H117.812V31.4503ZM155.679 18.6183C157.638 19.6966 158.918 21.9845 158.918 21.9845C158.937 21.9728 161.547 20.3795 162.593 20.0665L161.313 24.7872C160.259 23.9435 158.135 23.3674 155.679 23.3673C153.223 23.3673 151.099 23.9436 150.044 24.7872L148.764 20.0665C149.814 20.3806 152.439 21.9845 152.439 21.9845C152.439 21.9845 153.719 19.6965 155.679 18.6183ZM148.267 18.1144C148.73 18.1144 149.106 18.4899 149.106 18.9532C149.106 19.4167 148.73 19.7931 148.267 19.7931C147.803 19.793 147.428 19.4166 147.428 18.9532C147.428 18.49 147.803 18.1145 148.267 18.1144ZM163.058 18.1144C163.521 18.1144 163.897 18.4899 163.897 18.9532C163.897 19.4167 163.521 19.7931 163.058 19.7931C162.594 19.793 162.219 19.4166 162.219 18.9532C162.219 18.49 162.594 18.1145 163.058 18.1144ZM155.661 16.4386C156.124 16.4386 156.501 16.8141 156.501 17.2775C156.501 17.7409 156.125 18.1173 155.661 18.1173C155.198 18.1172 154.822 17.7408 154.822 17.2775C154.822 16.8142 155.198 16.4387 155.661 16.4386ZM279.448 13.2042V17.1984L267.841 15.4073V11.1886L279.448 13.2042Z"/>
</mask>
<path d="M54.1855 20.1066C62.5065 20.1066 68.7041 26.3745 68.7041 34.6251C68.704 42.8757 62.544 49.1056 54.1855 49.1056C45.8273 49.1054 39.7052 42.8006 39.7051 34.6251C39.7051 26.3793 45.8647 20.1067 54.1855 20.1066ZM164.34 24.9445C165.062 24.6866 167.166 24.0964 169.285 25.8868H169.276C172.295 28.4417 171.114 32.8204 169.009 33.5939C167.683 34.0813 167.518 34.8266 167.537 35.4874C167.607 36.0265 167.654 36.5755 167.654 37.1427C167.654 43.8931 162.535 49.1055 155.658 49.1056C148.781 49.1056 143.694 43.8979 143.694 37.1427C143.694 36.6412 143.727 36.1489 143.783 35.6661L143.774 35.6798C143.831 34.9767 143.769 34.1283 142.312 33.5939C140.211 32.8204 139.03 28.4371 142.044 25.8868C144.163 24.0961 146.268 24.6866 146.99 24.9445C148.139 25.3523 148.275 26.1445 148.72 26.4259C149.17 26.7118 149.489 26.6462 150.384 26.2853L150.365 26.3087C151.945 25.568 153.732 25.1466 155.663 25.1466C157.594 25.1467 159.38 25.564 160.955 26.2999L160.946 26.2853C161.841 26.6461 162.16 26.7118 162.61 26.4259C163.055 26.1445 163.192 25.3522 164.34 24.9445ZM22.7197 20.5089C28.2044 20.509 31.3027 23.3455 31.3027 27.5646C31.3027 29.6553 30.1075 31.7837 28.4668 32.754C31.2654 33.5369 33.8016 36.0024 33.8018 39.8087H33.8066C33.8066 45.6685 29.1046 49.1006 20.2588 49.1007C16.7851 49.1007 12.758 48.505 11 47.755V20.5089H22.7197ZM124.192 20.5089C129.677 20.5089 132.775 23.3455 132.775 27.5646C132.775 29.6552 131.58 31.7837 129.939 32.754C132.738 33.5369 135.274 36.0023 135.274 39.8087H135.279C135.279 45.6685 130.577 49.1006 121.731 49.1007C118.258 49.1007 114.231 48.505 112.473 47.755V20.5089H124.192ZM96.8838 37.3898V20.5187H102.331V48.7023H101.623L82.4785 31.422V48.5148H77.0684V20.298H77.7764L96.8838 37.3898ZM198.354 37.3898V20.5187H203.802V48.7023H203.094L183.949 31.422V48.5148H178.539V20.298H179.247L198.354 37.3898ZM233.774 37.3898V20.5187H239.222V48.7023H238.514L219.369 31.422V48.5148H213.959V20.298H214.667L233.774 37.3898ZM255 48.5118H249.553V20.5206H255V48.5118ZM303.487 20.5206C310.838 20.5207 314.944 24.0276 314.944 29.9249C314.944 34.0686 313.041 36.9795 309.718 38.6202L315.577 48.5118H309.455L304.565 40.0411C303.783 40.1161 302.924 40.1534 302.066 40.1534C300.501 40.1534 299.193 40.0405 298.11 39.8156V48.5118H292.588V20.5206H303.487ZM341.146 25.4474H328.23V31.382H340.508V36.1593H328.23V43.5851H341.482V48.5118H323.008V20.5206H341.146V25.4474ZM283.442 25.4445H270.527V31.379H282.805V36.1564H270.527V43.5822H283.779V48.5089H265.305V20.5177H283.442V25.4445ZM16.3398 43.7657C17.4603 44.1407 19.4386 44.3234 20.8916 44.3234C26.4137 44.3233 28.2793 42.4202 28.2793 39.7716H28.2842C28.2842 37.6059 26.9013 35.8528 23.8779 35.8527H16.3398V43.7657ZM117.816 43.7657C118.937 44.1408 120.916 44.3234 122.369 44.3234C127.891 44.3233 129.757 42.4201 129.757 39.7716C129.757 37.6058 128.373 35.8527 125.354 35.8527H117.816V43.7657ZM155.667 30.1954C151.842 30.1956 149.109 33.2611 149.109 37.1378C149.109 41.0146 151.842 43.996 155.667 43.9962C159.464 43.9962 162.254 41.1038 162.254 37.1378C162.254 33.1719 159.492 30.1954 155.667 30.1954ZM54.1855 25.1456C48.9962 25.1458 45.2275 29.2154 45.2275 34.6251C45.2276 40.0347 48.9588 43.9912 54.1855 43.9913C59.4125 43.9913 63.1815 39.9223 63.1816 34.6251C63.1816 29.2153 59.375 25.1456 54.1855 25.1456ZM298.11 35.1515C299.193 35.339 300.426 35.4513 301.954 35.4513C307.069 35.4513 309.234 33.5854 309.234 30.1163L309.229 30.1124C309.229 27.2388 307.664 25.4104 303 25.4103H298.11V35.1515ZM16.3398 31.4503H22.4238C24.8849 31.4503 25.8935 29.9928 25.8936 28.3146C25.8936 26.6364 24.8855 25.2913 22.3496 25.2911H16.3398V31.4503ZM117.812 31.4503H123.896C126.357 31.4503 127.366 29.9927 127.366 28.3146C127.366 26.6364 126.358 25.2903 123.822 25.2902H117.812V31.4503ZM155.679 18.6183C157.638 19.6966 158.918 21.9845 158.918 21.9845C158.937 21.9728 161.547 20.3795 162.593 20.0665L161.313 24.7872C160.259 23.9435 158.135 23.3674 155.679 23.3673C153.223 23.3673 151.099 23.9436 150.044 24.7872L148.764 20.0665C149.814 20.3806 152.439 21.9845 152.439 21.9845C152.439 21.9845 153.719 19.6965 155.679 18.6183ZM148.267 18.1144C148.73 18.1144 149.106 18.4899 149.106 18.9532C149.106 19.4167 148.73 19.7931 148.267 19.7931C147.803 19.793 147.428 19.4166 147.428 18.9532C147.428 18.49 147.803 18.1145 148.267 18.1144ZM163.058 18.1144C163.521 18.1144 163.897 18.4899 163.897 18.9532C163.897 19.4167 163.521 19.7931 163.058 19.7931C162.594 19.793 162.219 19.4166 162.219 18.9532C162.219 18.49 162.594 18.1145 163.058 18.1144ZM155.661 16.4386C156.124 16.4386 156.501 16.8141 156.501 17.2775C156.501 17.7409 156.125 18.1173 155.661 18.1173C155.198 18.1172 154.822 17.7408 154.822 17.2775C154.822 16.8142 155.198 16.4387 155.661 16.4386ZM279.448 13.2042V17.1984L267.841 15.4073V11.1886L279.448 13.2042Z" fill="#1A1106"/>
<path d="M54.1855 20.1066V19.1066H54.1855L54.1855 20.1066ZM68.7041 34.6251L69.7041 34.6251V34.6251H68.7041ZM54.1855 49.1056L54.1855 50.1056H54.1855V49.1056ZM39.7051 34.6251H38.7051V34.6251L39.7051 34.6251ZM164.34 24.9445L164.674 25.8868L164.676 25.8862L164.34 24.9445ZM169.285 25.8868V26.8868H172.018L169.931 25.123L169.285 25.8868ZM169.276 25.8868V24.8868H166.547L168.63 26.6502L169.276 25.8868ZM169.009 33.5939L168.664 32.6552L168.664 32.6553L169.009 33.5939ZM167.537 35.4874L166.538 35.5157L166.539 35.5664L166.546 35.6168L167.537 35.4874ZM167.654 37.1427L168.654 37.1427V37.1427H167.654ZM155.658 49.1056V50.1056H155.658L155.658 49.1056ZM143.694 37.1427H142.694V37.1427L143.694 37.1427ZM143.783 35.6661L144.776 35.7818L142.942 35.1254L143.783 35.6661ZM143.774 35.6798L142.778 35.6001L144.616 36.2206L143.774 35.6798ZM142.312 33.5939L141.966 34.5322L141.967 34.5328L142.312 33.5939ZM142.044 25.8868L141.398 25.1231L141.398 25.1234L142.044 25.8868ZM146.99 24.9445L146.654 25.8862L146.656 25.8868L146.99 24.9445ZM148.72 26.4259L149.256 25.5819L149.254 25.5806L148.72 26.4259ZM150.384 26.2853L151.168 26.906L153.511 23.9465L150.01 25.3578L150.384 26.2853ZM150.365 26.3087L149.581 25.688L150.79 27.2141L150.365 26.3087ZM155.663 25.1466L155.663 24.1466H155.663V25.1466ZM160.955 26.2999L160.532 27.2059L163.496 28.5909L161.813 25.7854L160.955 26.2999ZM160.946 26.2853L161.32 25.3578L158.555 24.243L160.089 26.7998L160.946 26.2853ZM162.61 26.4259L162.076 25.5807L162.074 25.5819L162.61 26.4259ZM22.7197 20.5089L22.7197 19.5089H22.7197V20.5089ZM31.3027 27.5646L32.3027 27.5646V27.5646H31.3027ZM28.4668 32.754L27.9577 31.8933L25.9412 33.0859L28.1974 33.7171L28.4668 32.754ZM33.8018 39.8087L32.8018 39.8088L32.8018 40.8087H33.8018V39.8087ZM33.8066 39.8087H34.8066V38.8087H33.8066V39.8087ZM20.2588 49.1007V50.1007H20.2588L20.2588 49.1007ZM11 47.755H10V48.4156L10.6076 48.6748L11 47.755ZM11 20.5089V19.5089H10V20.5089H11ZM124.192 20.5089L124.192 19.5089H124.192V20.5089ZM132.775 27.5646L133.775 27.5647V27.5646H132.775ZM129.939 32.754L129.43 31.8933L127.414 33.0859L129.67 33.7171L129.939 32.754ZM135.274 39.8087L134.274 39.8087L134.274 40.8087H135.274V39.8087ZM135.279 39.8087H136.279V38.8087H135.279V39.8087ZM121.731 49.1007V50.1007H121.731L121.731 49.1007ZM112.473 47.755H111.473V48.4156L112.08 48.6748L112.473 47.755ZM112.473 20.5089V19.5089H111.473V20.5089H112.473ZM96.8838 37.3898L96.2171 38.1351L97.8838 39.626V37.3898H96.8838ZM96.8838 20.5187V19.5187H95.8838V20.5187H96.8838ZM102.331 20.5187H103.331V19.5187H102.331V20.5187ZM102.331 48.7023V49.7023H103.331V48.7023H102.331ZM101.623 48.7023L100.953 49.4446L101.238 49.7023H101.623V48.7023ZM82.4785 31.422L83.1486 30.6797L81.4785 29.1723V31.422H82.4785ZM82.4785 48.5148V49.5148H83.4785V48.5148H82.4785ZM77.0684 48.5148H76.0684V49.5148H77.0684V48.5148ZM77.0684 20.298V19.298H76.0684V20.298H77.0684ZM77.7764 20.298L78.4431 19.5526L78.1584 19.298H77.7764V20.298ZM198.354 37.3898L197.688 38.1351L199.354 39.626V37.3898H198.354ZM198.354 20.5187V19.5187H197.354V20.5187H198.354ZM203.802 20.5187H204.802V19.5187H203.802V20.5187ZM203.802 48.7023V49.7023H204.802V48.7023H203.802ZM203.094 48.7023L202.424 49.4446L202.709 49.7023H203.094V48.7023ZM183.949 31.422L184.619 30.6797L182.949 29.1723V31.422H183.949ZM183.949 48.5148V49.5148H184.949V48.5148H183.949ZM178.539 48.5148H177.539V49.5148H178.539V48.5148ZM178.539 20.298V19.298H177.539V20.298H178.539ZM179.247 20.298L179.914 19.5526L179.629 19.298H179.247V20.298ZM233.774 37.3898L233.108 38.1351L234.774 39.626V37.3898H233.774ZM233.774 20.5187V19.5187H232.774V20.5187H233.774ZM239.222 20.5187H240.222V19.5187H239.222V20.5187ZM239.222 48.7023V49.7023H240.222V48.7023H239.222ZM238.514 48.7023L237.844 49.4446L238.129 49.7023H238.514V48.7023ZM219.369 31.422L220.039 30.6797L218.369 29.1723V31.422H219.369ZM219.369 48.5148V49.5148H220.369V48.5148H219.369ZM213.959 48.5148H212.959V49.5148H213.959V48.5148ZM213.959 20.298V19.298H212.959V20.298H213.959ZM214.667 20.298L215.334 19.5526L215.049 19.298H214.667V20.298ZM255 48.5118V49.5118H256V48.5118H255ZM249.553 48.5118H248.553V49.5118H249.553V48.5118ZM249.553 20.5206V19.5206H248.553V20.5206H249.553ZM255 20.5206H256V19.5206H255V20.5206ZM303.487 20.5206V19.5206V19.5206V20.5206ZM314.944 29.9249L315.944 29.925V29.9249H314.944ZM309.718 38.6202L309.275 37.7236L308.307 38.2013L308.857 39.1299L309.718 38.6202ZM315.577 48.5118V49.5118H317.332L316.438 48.0022L315.577 48.5118ZM309.455 48.5118L308.589 49.0118L308.878 49.5118H309.455V48.5118ZM304.565 40.0411L305.431 39.5412L305.11 38.9844L304.47 39.0457L304.565 40.0411ZM302.066 40.1534V41.1534V41.1534V40.1534ZM298.11 39.8156L298.314 38.8365L297.11 38.5864V39.8156H298.11ZM298.11 48.5118V49.5118H299.11V48.5118H298.11ZM292.588 48.5118H291.588V49.5118H292.588V48.5118ZM292.588 20.5206V19.5206H291.588V20.5206H292.588ZM341.146 25.4474V26.4474H342.146V25.4474H341.146ZM328.23 25.4474V24.4474H327.23V25.4474H328.23ZM328.23 31.382H327.23V32.382H328.23V31.382ZM340.508 31.382H341.508V30.382H340.508V31.382ZM340.508 36.1593V37.1593H341.508V36.1593H340.508ZM328.23 36.1593V35.1593H327.23V36.1593H328.23ZM328.23 43.5851H327.23V44.5851H328.23V43.5851ZM341.482 43.5851H342.482V42.5851H341.482V43.5851ZM341.482 48.5118V49.5118H342.482V48.5118H341.482ZM323.008 48.5118H322.008V49.5118H323.008V48.5118ZM323.008 20.5206V19.5206H322.008V20.5206H323.008ZM341.146 20.5206H342.146V19.5206H341.146V20.5206ZM283.442 25.4445V26.4445H284.442V25.4445H283.442ZM270.527 25.4445V24.4445H269.527V25.4445H270.527ZM270.527 31.379H269.527V32.379H270.527V31.379ZM282.805 31.379H283.805V30.379H282.805V31.379ZM282.805 36.1564V37.1564H283.805V36.1564H282.805ZM270.527 36.1564V35.1564H269.527V36.1564H270.527ZM270.527 43.5822H269.527V44.5822H270.527V43.5822ZM283.779 43.5822H284.779V42.5822H283.779V43.5822ZM283.779 48.5089V49.5089H284.779V48.5089H283.779ZM265.305 48.5089H264.305V49.5089H265.305V48.5089ZM265.305 20.5177V19.5177H264.305V20.5177H265.305ZM283.442 20.5177H284.442V19.5177H283.442V20.5177ZM16.3398 43.7657H15.3398V44.4856L16.0225 44.7141L16.3398 43.7657ZM20.8916 44.3234V45.3234H20.8916L20.8916 44.3234ZM28.2793 39.7716V38.7716H27.2793L27.2793 39.7716L28.2793 39.7716ZM28.2842 39.7716V40.7716H29.2842V39.7716H28.2842ZM23.8779 35.8527L23.878 34.8527H23.8779V35.8527ZM16.3398 35.8527V34.8527H15.3398V35.8527H16.3398ZM117.816 43.7657H116.816V44.4856L117.499 44.714L117.816 43.7657ZM122.369 44.3234V45.3234H122.369L122.369 44.3234ZM129.757 39.7716L130.757 39.7716V39.7716H129.757ZM117.816 35.8527V34.8527H116.816V35.8527H117.816ZM155.667 30.1954V29.1954H155.667L155.667 30.1954ZM149.109 37.1378L148.109 37.1378V37.1378H149.109ZM155.667 43.9962L155.667 44.9962H155.667V43.9962ZM162.254 37.1378H163.254V37.1378L162.254 37.1378ZM54.1855 25.1456V24.1456H54.1855L54.1855 25.1456ZM45.2275 34.6251H44.2275V34.6251L45.2275 34.6251ZM54.1855 43.9913L54.1855 44.9913H54.1855V43.9913ZM63.1816 34.6251L64.1816 34.6251V34.6251H63.1816ZM298.11 35.1515H297.11V35.9932L297.94 36.1368L298.11 35.1515ZM301.954 35.4513V36.4513V36.4513V35.4513ZM309.234 30.1163H310.234V29.6357L309.859 29.3355L309.234 30.1163ZM309.229 30.1124H308.229V30.5931L308.605 30.8933L309.229 30.1124ZM303 25.4103L303 24.4103H303V25.4103ZM298.11 25.4103V24.4103H297.11V25.4103H298.11ZM16.3398 31.4503H15.3398V32.4503H16.3398V31.4503ZM25.8936 28.3146L26.8936 28.3146V28.3146H25.8936ZM22.3496 25.2911L22.3497 24.2911H22.3496V25.2911ZM16.3398 25.2911V24.2911H15.3398V25.2911H16.3398ZM117.812 31.4503H116.812V32.4503H117.812V31.4503ZM127.366 28.3146L128.366 28.3147V28.3146H127.366ZM123.822 25.2902L123.822 24.2902H123.822V25.2902ZM117.812 25.2902V24.2902H116.812V25.2902H117.812ZM155.679 18.6183L156.161 17.7422L155.679 17.4769L155.197 17.7422L155.679 18.6183ZM158.918 21.9845L158.045 22.4727L158.552 23.3793L159.439 22.838L158.918 21.9845ZM162.593 20.0665L163.558 20.3281L164.028 18.5934L162.306 19.1085L162.593 20.0665ZM161.313 24.7872L160.689 25.5681L161.88 26.5209L162.279 25.0488L161.313 24.7872ZM155.679 23.3673L155.679 22.3673H155.679V23.3673ZM150.044 24.7872L149.079 25.049L149.478 26.5204L150.669 25.5682L150.044 24.7872ZM148.764 20.0665L149.05 19.1085L147.328 18.5933L147.799 20.3283L148.764 20.0665ZM152.439 21.9845L151.918 22.8379L152.805 23.3796L153.312 22.4726L152.439 21.9845ZM148.267 18.1144V17.1144H148.266L148.267 18.1144ZM149.106 18.9532H150.106V18.9529L149.106 18.9532ZM148.267 19.7931L148.266 20.7931H148.267V19.7931ZM147.428 18.9532L146.428 18.9529V18.9532H147.428ZM163.058 18.1144V17.1144H163.057L163.058 18.1144ZM163.897 18.9532H164.897V18.9529L163.897 18.9532ZM163.058 19.7931L163.057 20.7931H163.058V19.7931ZM162.219 18.9532L161.219 18.9529V18.9532H162.219ZM155.661 16.4386V15.4386H155.661L155.661 16.4386ZM156.501 17.2775H157.501V17.2772L156.501 17.2775ZM155.661 18.1173L155.661 19.1173H155.661V18.1173ZM154.822 17.2775L153.822 17.2772V17.2775H154.822ZM279.448 13.2042H280.448V12.3629L279.619 12.219L279.448 13.2042ZM279.448 17.1984L279.296 18.1867L280.448 18.3645V17.1984H279.448ZM267.841 15.4073H266.841V16.2649L267.688 16.3957L267.841 15.4073ZM267.841 11.1886L268.012 10.2033L266.841 9.99998V11.1886H267.841ZM54.1855 20.1066V21.1066C61.951 21.1066 67.7041 26.9235 67.7041 34.6251H68.7041H69.7041C69.7041 25.8254 63.062 19.1066 54.1855 19.1066V20.1066ZM68.7041 34.6251L67.7041 34.6251C67.704 42.3249 61.9902 48.1056 54.1855 48.1056V49.1056V50.1056C63.0977 50.1056 69.704 43.4265 69.7041 34.6251L68.7041 34.6251ZM54.1855 49.1056L54.1856 48.1056C46.3879 48.1054 40.7052 42.2566 40.7051 34.6251L39.7051 34.6251L38.7051 34.6251C38.7052 43.3445 45.2667 50.1054 54.1855 50.1056L54.1855 49.1056ZM39.7051 34.6251H40.7051C40.7051 26.9247 46.4239 21.1067 54.1856 21.1066L54.1855 20.1066L54.1855 19.1066C45.3056 19.1067 38.7051 25.8338 38.7051 34.6251H39.7051ZM164.34 24.9445L164.676 25.8862C165.27 25.674 166.928 25.2039 168.64 26.6507L169.285 25.8868L169.931 25.123C167.405 22.9889 164.853 23.6993 164.004 24.0027L164.34 24.9445ZM169.285 25.8868V24.8868H169.276V25.8868V26.8868H169.285V25.8868ZM169.276 25.8868L168.63 26.6502C169.85 27.6823 170.218 29.0665 170.071 30.2893C169.915 31.5899 169.232 32.4465 168.664 32.6552L169.009 33.5939L169.354 34.5325C170.891 33.9678 171.851 32.2483 172.057 30.5274C172.273 28.7289 171.722 26.6463 169.922 25.1235L169.276 25.8868ZM169.009 33.5939L168.664 32.6553C167.86 32.9508 167.274 33.3752 166.919 33.9487C166.566 34.5175 166.526 35.0971 166.538 35.5157L167.537 35.4874L168.537 35.4592C168.53 35.2169 168.562 35.0934 168.619 35.0025C168.672 34.9163 168.832 34.7244 169.354 34.5325L169.009 33.5939ZM167.537 35.4874L166.546 35.6168C166.612 36.1264 166.654 36.6304 166.654 37.1427H167.654H168.654C168.654 36.5205 168.603 35.9267 168.529 35.3581L167.537 35.4874ZM167.654 37.1427L166.654 37.1427C166.654 43.3441 161.98 48.1055 155.658 48.1056L155.658 49.1056L155.658 50.1056C163.091 50.1054 168.654 44.4421 168.654 37.1427L167.654 37.1427ZM155.658 49.1056V48.1056C149.34 48.1056 144.694 43.3522 144.694 37.1427L143.694 37.1427L142.694 37.1427C142.694 44.4435 148.222 50.1056 155.658 50.1056V49.1056ZM143.694 37.1427H144.694C144.694 36.6846 144.724 36.2312 144.776 35.7818L143.783 35.6661L142.79 35.5504C142.73 36.0666 142.694 36.5978 142.694 37.1427H143.694ZM143.783 35.6661L142.942 35.1254L142.933 35.1391L143.774 35.6798L144.616 36.2206L144.624 36.2069L143.783 35.6661ZM143.774 35.6798L144.771 35.7595C144.803 35.3643 144.823 34.7388 144.498 34.1126C144.16 33.4613 143.543 32.98 142.656 32.655L142.312 33.5939L141.967 34.5328C142.538 34.7421 142.681 34.9522 142.723 35.0345C142.779 35.1419 142.802 35.2922 142.778 35.6001L143.774 35.6798ZM142.312 33.5939L142.657 32.6555C142.092 32.4473 141.409 31.5902 141.253 30.2876C141.106 29.0632 141.474 27.6794 142.69 26.6502L142.044 25.8868L141.398 25.1234C139.6 26.6445 139.051 28.7275 139.267 30.5256C139.473 32.2456 140.431 33.9669 141.966 34.5322L142.312 33.5939ZM142.044 25.8868L142.689 26.6506C144.402 25.2036 146.059 25.6739 146.654 25.8862L146.99 24.9445L147.327 24.0027C146.477 23.6994 143.924 22.9885 141.398 25.1231L142.044 25.8868ZM146.99 24.9445L146.656 25.8868C147.02 26.0161 147.199 26.1877 147.346 26.3669C147.466 26.5139 147.477 26.5455 147.633 26.7462C147.743 26.8878 147.922 27.1046 148.185 27.2712L148.72 26.4259L149.254 25.5806C149.295 25.6065 149.29 25.6187 149.213 25.52C149.182 25.4802 149.004 25.2355 148.892 25.0983C148.572 24.709 148.109 24.2807 147.325 24.0021L146.99 24.9445ZM148.72 26.4259L148.183 27.2699C148.564 27.5117 148.979 27.6458 149.488 27.5928C149.898 27.5502 150.329 27.3855 150.758 27.2127L150.384 26.2853L150.01 25.3578C149.791 25.446 149.63 25.5068 149.503 25.5479C149.375 25.5891 149.31 25.6006 149.281 25.6035C149.263 25.6055 149.276 25.6023 149.3 25.6087C149.319 25.6137 149.309 25.6156 149.256 25.5819L148.72 26.4259ZM150.384 26.2853L149.6 25.6646L149.581 25.688L150.365 26.3087L151.149 26.9294L151.168 26.906L150.384 26.2853ZM150.365 26.3087L150.79 27.2141C152.238 26.5353 153.879 26.1466 155.663 26.1466V25.1466V24.1466C153.584 24.1466 151.653 24.6007 149.941 25.4033L150.365 26.3087ZM155.663 25.1466L155.663 26.1466C157.448 26.1467 159.09 26.532 160.532 27.2059L160.955 26.2999L161.378 25.394C159.671 24.596 157.74 24.1467 155.663 24.1466L155.663 25.1466ZM160.955 26.2999L161.813 25.7854L161.804 25.7708L160.946 26.2853L160.089 26.7998L160.098 26.8144L160.955 26.2999ZM160.946 26.2853L160.572 27.2128C161.001 27.3855 161.432 27.5501 161.842 27.5928C162.351 27.6458 162.766 27.5117 163.147 27.2699L162.61 26.4259L162.074 25.5819C162.021 25.6156 162.011 25.6137 162.03 25.6087C162.054 25.6023 162.067 25.6054 162.049 25.6035C162.02 25.6005 161.955 25.5891 161.827 25.5478C161.7 25.5068 161.539 25.446 161.32 25.3578L160.946 26.2853ZM162.61 26.4259L163.145 27.2711C163.408 27.1045 163.587 26.8878 163.697 26.7461C163.853 26.5456 163.864 26.5137 163.984 26.3669C164.131 26.1877 164.311 26.0161 164.674 25.8868L164.34 24.9445L164.005 24.0021C163.221 24.2806 162.758 24.709 162.438 25.0982C162.326 25.2356 162.148 25.48 162.117 25.52C162.04 25.6188 162.035 25.6066 162.076 25.5807L162.61 26.4259ZM22.7197 20.5089L22.7197 21.5089C25.2987 21.5089 27.1912 22.1756 28.4218 23.2177C29.6341 24.2444 30.3027 25.7169 30.3027 27.5646H31.3027H32.3027C32.3027 25.1932 31.4222 23.1379 29.7143 21.6915C28.0245 20.2606 25.6255 19.5089 22.7197 19.5089L22.7197 20.5089ZM31.3027 27.5646L30.3027 27.5645C30.3027 29.3249 29.2748 31.1144 27.9577 31.8933L28.4668 32.754L28.9759 33.6148C30.9402 32.453 32.3026 29.9857 32.3027 27.5646L31.3027 27.5646ZM28.4668 32.754L28.1974 33.7171C30.6333 34.3985 32.8016 36.519 32.8018 39.8088L33.8018 39.8087L34.8018 39.8087C34.8016 35.4858 31.8974 32.6753 28.7362 31.791L28.4668 32.754ZM33.8018 39.8087V40.8087H33.8066V39.8087V38.8087H33.8018V39.8087ZM33.8066 39.8087H32.8066C32.8066 42.4315 31.7751 44.4394 29.778 45.8318C27.7302 47.2595 24.5754 48.1007 20.2588 48.1007L20.2588 49.1007L20.2588 50.1007C24.788 50.1007 28.4071 49.2257 30.9218 47.4724C33.4872 45.6838 34.8066 43.0457 34.8066 39.8087H33.8066ZM20.2588 49.1007V48.1007C18.5742 48.1007 16.7474 47.9559 15.1306 47.7196C13.4921 47.4802 12.1495 47.1582 11.3924 46.8352L11 47.755L10.6076 48.6748C11.6085 49.1018 13.1585 49.4527 14.8414 49.6986C16.5461 49.9477 18.4697 50.1007 20.2588 50.1007V49.1007ZM11 47.755H12V20.5089H11H10V47.755H11ZM11 20.5089V21.5089H22.7197V20.5089V19.5089H11V20.5089ZM124.192 20.5089L124.192 21.5089C126.771 21.5089 128.664 22.1756 129.894 23.2177C131.107 24.2444 131.775 25.7169 131.775 27.5646H132.775H133.775C133.775 25.1932 132.895 23.1379 131.187 21.6915C129.497 20.2605 127.098 19.5089 124.192 19.5089L124.192 20.5089ZM132.775 27.5646L131.775 27.5645C131.775 29.3248 130.747 31.1144 129.43 31.8933L129.939 32.754L130.449 33.6148C132.413 32.453 133.775 29.9856 133.775 27.5647L132.775 27.5646ZM129.939 32.754L129.67 33.7171C132.106 34.3985 134.274 36.5189 134.274 39.8087L135.274 39.8087L136.274 39.8087C136.274 35.4856 133.37 32.6753 130.209 31.791L129.939 32.754ZM135.274 39.8087V40.8087H135.279V39.8087V38.8087H135.274V39.8087ZM135.279 39.8087H134.279C134.279 42.4315 133.248 44.4394 131.251 45.8318C129.203 47.2595 126.048 48.1007 121.731 48.1007L121.731 49.1007L121.731 50.1007C126.261 50.1007 129.88 49.2257 132.394 47.4724C134.96 45.6838 136.279 43.0457 136.279 39.8087H135.279ZM121.731 49.1007V48.1007C120.047 48.1007 118.22 47.9559 116.603 47.7196C114.965 47.4802 113.622 47.1582 112.865 46.8352L112.473 47.755L112.08 48.6748C113.081 49.1018 114.631 49.4527 116.314 49.6986C118.019 49.9477 119.942 50.1007 121.731 50.1007V49.1007ZM112.473 47.755H113.473V20.5089H112.473H111.473V47.755H112.473ZM112.473 20.5089V21.5089H124.192V20.5089V19.5089H112.473V20.5089ZM96.8838 37.3898H97.8838V20.5187H96.8838H95.8838V37.3898H96.8838ZM96.8838 20.5187V21.5187H102.331V20.5187V19.5187H96.8838V20.5187ZM102.331 20.5187H101.331V48.7023H102.331H103.331V20.5187H102.331ZM102.331 48.7023V47.7023H101.623V48.7023V49.7023H102.331V48.7023ZM101.623 48.7023L102.293 47.9599L83.1486 30.6797L82.4785 31.422L81.8085 32.1643L100.953 49.4446L101.623 48.7023ZM82.4785 31.422H81.4785V48.5148H82.4785H83.4785V31.422H82.4785ZM82.4785 48.5148V47.5148H77.0684V48.5148V49.5148H82.4785V48.5148ZM77.0684 48.5148H78.0684V20.298H77.0684H76.0684V48.5148H77.0684ZM77.0684 20.298V21.298H77.7764V20.298V19.298H77.0684V20.298ZM77.7764 20.298L77.1097 21.0433L96.2171 38.1351L96.8838 37.3898L97.5505 36.6444L78.4431 19.5526L77.7764 20.298ZM198.354 37.3898H199.354V20.5187H198.354H197.354V37.3898H198.354ZM198.354 20.5187V21.5187H203.802V20.5187V19.5187H198.354V20.5187ZM203.802 20.5187H202.802V48.7023H203.802H204.802V20.5187H203.802ZM203.802 48.7023V47.7023H203.094V48.7023V49.7023H203.802V48.7023ZM203.094 48.7023L203.764 47.9599L184.619 30.6797L183.949 31.422L183.279 32.1643L202.424 49.4446L203.094 48.7023ZM183.949 31.422H182.949V48.5148H183.949H184.949V31.422H183.949ZM183.949 48.5148V47.5148H178.539V48.5148V49.5148H183.949V48.5148ZM178.539 48.5148H179.539V20.298H178.539H177.539V48.5148H178.539ZM178.539 20.298V21.298H179.247V20.298V19.298H178.539V20.298ZM179.247 20.298L178.58 21.0433L197.688 38.1351L198.354 37.3898L199.021 36.6444L179.914 19.5526L179.247 20.298ZM233.774 37.3898H234.774V20.5187H233.774H232.774V37.3898H233.774ZM233.774 20.5187V21.5187H239.222V20.5187V19.5187H233.774V20.5187ZM239.222 20.5187H238.222V48.7023H239.222H240.222V20.5187H239.222ZM239.222 48.7023V47.7023H238.514V48.7023V49.7023H239.222V48.7023ZM238.514 48.7023L239.184 47.9599L220.039 30.6797L219.369 31.422L218.699 32.1643L237.844 49.4446L238.514 48.7023ZM219.369 31.422H218.369V48.5148H219.369H220.369V31.422H219.369ZM219.369 48.5148V47.5148H213.959V48.5148V49.5148H219.369V48.5148ZM213.959 48.5148H214.959V20.298H213.959H212.959V48.5148H213.959ZM213.959 20.298V21.298H214.667V20.298V19.298H213.959V20.298ZM214.667 20.298L214 21.0433L233.108 38.1351L233.774 37.3898L234.441 36.6444L215.334 19.5526L214.667 20.298ZM255 48.5118V47.5118H249.553V48.5118V49.5118H255V48.5118ZM249.553 48.5118H250.553V20.5206H249.553H248.553V48.5118H249.553ZM249.553 20.5206V21.5206H255V20.5206V19.5206H249.553V20.5206ZM255 20.5206H254V48.5118H255H256V20.5206H255ZM303.487 20.5206V21.5206C307.018 21.5207 309.626 22.364 311.334 23.7809C313.016 25.1761 313.944 27.2256 313.944 29.9249H314.944H315.944C315.944 26.727 314.82 24.0743 312.611 22.2417C310.428 20.4308 307.307 19.5207 303.487 19.5206V20.5206ZM314.944 29.9249L313.944 29.9249C313.944 33.6962 312.25 36.2549 309.275 37.7236L309.718 38.6202L310.16 39.5169C313.832 37.7041 315.944 34.4409 315.944 29.925L314.944 29.9249ZM309.718 38.6202L308.857 39.1299L314.717 49.0215L315.577 48.5118L316.438 48.0022L310.578 38.1106L309.718 38.6202ZM315.577 48.5118V47.5118H309.455V48.5118V49.5118H315.577V48.5118ZM309.455 48.5118L310.321 48.0119L305.431 39.5412L304.565 40.0411L303.699 40.5411L308.589 49.0118L309.455 48.5118ZM304.565 40.0411L304.47 39.0457C303.723 39.1173 302.897 39.1534 302.066 39.1534V40.1534V41.1534C302.952 41.1534 303.842 41.115 304.661 41.0366L304.565 40.0411ZM302.066 40.1534V39.1534C300.545 39.1534 299.309 39.0433 298.314 38.8365L298.11 39.8156L297.907 40.7946C299.077 41.0378 300.457 41.1534 302.066 41.1534V40.1534ZM298.11 39.8156H297.11V48.5118H298.11H299.11V39.8156H298.11ZM298.11 48.5118V47.5118H292.588V48.5118V49.5118H298.11V48.5118ZM292.588 48.5118H293.588V20.5206H292.588H291.588V48.5118H292.588ZM292.588 20.5206V21.5206H303.487V20.5206V19.5206H292.588V20.5206ZM341.146 25.4474V24.4474H328.23V25.4474V26.4474H341.146V25.4474ZM328.23 25.4474H327.23V31.382H328.23H329.23V25.4474H328.23ZM328.23 31.382V32.382H340.508V31.382V30.382H328.23V31.382ZM340.508 31.382H339.508V36.1593H340.508H341.508V31.382H340.508ZM340.508 36.1593V35.1593H328.23V36.1593V37.1593H340.508V36.1593ZM328.23 36.1593H327.23V43.5851H328.23H329.23V36.1593H328.23ZM328.23 43.5851V44.5851H341.482V43.5851V42.5851H328.23V43.5851ZM341.482 43.5851H340.482V48.5118H341.482H342.482V43.5851H341.482ZM341.482 48.5118V47.5118H323.008V48.5118V49.5118H341.482V48.5118ZM323.008 48.5118H324.008V20.5206H323.008H322.008V48.5118H323.008ZM323.008 20.5206V21.5206H341.146V20.5206V19.5206H323.008V20.5206ZM341.146 20.5206H340.146V25.4474H341.146H342.146V20.5206H341.146ZM283.442 25.4445V24.4445H270.527V25.4445V26.4445H283.442V25.4445ZM270.527 25.4445H269.527V31.379H270.527H271.527V25.4445H270.527ZM270.527 31.379V32.379H282.805V31.379V30.379H270.527V31.379ZM282.805 31.379H281.805V36.1564H282.805H283.805V31.379H282.805ZM282.805 36.1564V35.1564H270.527V36.1564V37.1564H282.805V36.1564ZM270.527 36.1564H269.527V43.5822H270.527H271.527V36.1564H270.527ZM270.527 43.5822V44.5822H283.779V43.5822V42.5822H270.527V43.5822ZM283.779 43.5822H282.779V48.5089H283.779H284.779V43.5822H283.779ZM283.779 48.5089V47.5089H265.305V48.5089V49.5089H283.779V48.5089ZM265.305 48.5089H266.305V20.5177H265.305H264.305V48.5089H265.305ZM265.305 20.5177V21.5177H283.442V20.5177V19.5177H265.305V20.5177ZM283.442 20.5177H282.442V25.4445H283.442H284.442V20.5177H283.442ZM16.3398 43.7657L16.0225 44.7141C17.2982 45.1409 19.406 45.3234 20.8916 45.3234V44.3234V43.3234C19.4711 43.3234 17.6224 43.1404 16.6572 42.8174L16.3398 43.7657ZM20.8916 44.3234L20.8916 45.3234C23.7357 45.3233 25.8261 44.8391 27.2284 43.8609C28.6984 42.8354 29.2793 41.3634 29.2793 39.7716L28.2793 39.7716L27.2793 39.7716C27.2793 40.8284 26.9274 41.6323 26.0841 42.2205C25.1731 42.856 23.5696 43.3233 20.8916 43.3234L20.8916 44.3234ZM28.2793 39.7716V40.7716H28.2842V39.7716V38.7716H28.2793V39.7716ZM28.2842 39.7716H29.2842C29.2842 38.476 28.8669 37.2187 27.9147 36.2858C26.9609 35.3513 25.5838 34.8528 23.878 34.8527L23.8779 35.8527L23.8779 36.8527C25.1954 36.8527 26.0215 37.2309 26.515 37.7144C27.01 38.1994 27.2842 38.9015 27.2842 39.7716H28.2842ZM23.8779 35.8527V34.8527H16.3398V35.8527V36.8527H23.8779V35.8527ZM16.3398 35.8527H15.3398V43.7657H16.3398H17.3398V35.8527H16.3398ZM117.816 43.7657L117.499 44.714C118.775 45.1411 120.884 45.3234 122.369 45.3234V44.3234V43.3234C120.948 43.3234 119.099 43.1405 118.134 42.8175L117.816 43.7657ZM122.369 44.3234L122.369 45.3234C125.213 45.3233 127.303 44.839 128.706 43.8608C130.176 42.8353 130.757 41.3634 130.757 39.7716L129.757 39.7716L128.757 39.7716C128.757 40.8283 128.405 41.6322 127.562 42.2205C126.65 42.856 125.047 43.3233 122.369 43.3234L122.369 44.3234ZM129.757 39.7716H130.757C130.757 38.4759 130.339 37.2188 129.388 36.2859C128.435 35.3514 127.059 34.8527 125.354 34.8527V35.8527V36.8527C126.669 36.8527 127.495 37.2305 127.988 37.714C128.483 38.1992 128.757 38.9015 128.757 39.7716H129.757ZM125.354 35.8527V34.8527H117.816V35.8527V36.8527H125.354V35.8527ZM117.816 35.8527H116.816V43.7657H117.816H118.816V35.8527H117.816ZM155.667 30.1954L155.667 29.1954C151.221 29.1956 148.109 32.7802 148.109 37.1378L149.109 37.1378L150.109 37.1378C150.109 33.742 152.463 31.1956 155.667 31.1954L155.667 30.1954ZM149.109 37.1378H148.109C148.109 41.5119 151.236 44.996 155.667 44.9962L155.667 43.9962L155.667 42.9962C152.448 42.9961 150.109 40.5172 150.109 37.1378H149.109ZM155.667 43.9962V44.9962C160.053 44.9962 163.254 41.6188 163.254 37.1378H162.254H161.254C161.254 40.5887 158.875 42.9962 155.667 42.9962V43.9962ZM162.254 37.1378L163.254 37.1378C163.254 32.6762 160.1 29.1954 155.667 29.1954V30.1954V31.1954C158.885 31.1954 161.254 33.6676 161.254 37.1378L162.254 37.1378ZM54.1855 25.1456L54.1855 24.1456C48.3859 24.1458 44.2275 28.723 44.2275 34.6251H45.2275H46.2275C46.2275 29.7078 49.6066 26.1458 54.1856 26.1456L54.1855 25.1456ZM45.2275 34.6251L44.2275 34.6251C44.2276 40.5405 48.3612 44.9911 54.1855 44.9913L54.1855 43.9913L54.1856 42.9913C49.5564 42.9912 46.2276 39.5289 46.2275 34.6251L45.2275 34.6251ZM54.1855 43.9913V44.9913C60.0123 44.9913 64.1815 40.4258 64.1816 34.6251L63.1816 34.6251L62.1816 34.6251C62.1816 39.4189 58.8126 42.9913 54.1855 42.9913V43.9913ZM63.1816 34.6251H64.1816C64.1816 28.7172 59.9799 24.1456 54.1855 24.1456V25.1456V26.1456C58.7701 26.1456 62.1816 29.7134 62.1816 34.6251H63.1816ZM298.11 35.1515L297.94 36.1368C299.085 36.3351 300.375 36.4513 301.954 36.4513V35.4513V34.4513C300.477 34.4513 299.301 34.3428 298.281 34.1662L298.11 35.1515ZM301.954 35.4513V36.4513C304.601 36.4513 306.683 35.9744 308.118 34.88C309.61 33.7429 310.234 32.0745 310.234 30.1163H309.234H308.234C308.234 31.6272 307.776 32.6263 306.906 33.2894C305.98 33.9952 304.422 34.4513 301.954 34.4513V35.4513ZM309.234 30.1163L309.859 29.3355L309.854 29.3316L309.229 30.1124L308.605 30.8933L308.61 30.8972L309.234 30.1163ZM309.229 30.1124H310.229C310.229 28.494 309.782 26.9864 308.506 25.9173C307.27 24.8815 305.432 24.4103 303 24.4103L303 25.4103L303 26.4103C305.232 26.4103 306.509 26.8534 307.222 27.4503C307.894 28.0138 308.229 28.8572 308.229 30.1124H309.229ZM303 25.4103V24.4103H298.11V25.4103V26.4103H303V25.4103ZM298.11 25.4103H297.11V35.1515H298.11H299.11V25.4103H298.11ZM16.3398 31.4503V32.4503H22.4238V31.4503V30.4503H16.3398V31.4503ZM22.4238 31.4503V32.4503C23.8554 32.4503 25.0066 32.0212 25.7976 31.2099C26.5808 30.4065 26.8935 29.3486 26.8936 28.3146L25.8936 28.3146L24.8936 28.3145C24.8935 28.9588 24.7019 29.4687 24.3656 29.8137C24.037 30.1507 23.4533 30.4503 22.4238 30.4503V31.4503ZM25.8936 28.3146H26.8936C26.8936 27.277 26.578 26.2324 25.7649 25.4521C24.9551 24.6749 23.7884 24.2912 22.3497 24.2911L22.3496 25.2911L22.3496 26.2911C23.4467 26.2912 24.052 26.5802 24.3801 26.8951C24.7051 27.2069 24.8936 27.674 24.8936 28.3146H25.8936ZM22.3496 25.2911V24.2911H16.3398V25.2911V26.2911H22.3496V25.2911ZM16.3398 25.2911H15.3398V31.4503H16.3398H17.3398V25.2911H16.3398ZM117.812 31.4503V32.4503H123.896V31.4503V30.4503H117.812V31.4503ZM123.896 31.4503V32.4503C125.328 32.4503 126.479 32.0211 127.27 31.2098C128.053 30.4065 128.366 29.3486 128.366 28.3147L127.366 28.3146L126.366 28.3145C126.366 28.9587 126.175 29.4686 125.838 29.8137C125.51 30.1507 124.926 30.4503 123.896 30.4503V31.4503ZM127.366 28.3146H128.366C128.366 27.277 128.051 26.2323 127.238 25.4517C126.428 24.6742 125.261 24.2902 123.822 24.2902L123.822 25.2902L123.822 26.2902C124.919 26.2902 125.524 26.5793 125.853 26.8944C126.178 27.2065 126.366 27.674 126.366 28.3146H127.366ZM123.822 25.2902V24.2902H117.812V25.2902V26.2902H123.822V25.2902ZM117.812 25.2902H116.812V31.4503H117.812H118.812V25.2902H117.812ZM155.679 18.6183L155.197 19.4944C156.012 19.9429 156.725 20.6703 157.252 21.3301C157.51 21.6534 157.713 21.9459 157.849 22.1557C157.917 22.2604 157.969 22.3436 158.002 22.3988C158.018 22.4264 158.03 22.4469 158.038 22.4595C158.041 22.4658 158.044 22.4702 158.045 22.4724C158.046 22.4735 158.046 22.4741 158.046 22.4742C158.046 22.4742 158.046 22.4741 158.046 22.4738C158.046 22.4737 158.046 22.4736 158.046 22.4734C158.046 22.4733 158.045 22.4731 158.045 22.4731C158.045 22.4729 158.045 22.4727 158.918 21.9845C159.791 21.4963 159.791 21.4961 159.79 21.4959C159.79 21.4958 159.79 21.4956 159.79 21.4954C159.79 21.4951 159.79 21.4947 159.79 21.4943C159.789 21.4935 159.789 21.4926 159.788 21.4915C159.787 21.4894 159.785 21.4867 159.783 21.4834C159.78 21.4769 159.775 21.4683 159.769 21.4576C159.756 21.4361 159.739 21.4064 159.716 21.3693C159.672 21.2952 159.608 21.1913 159.525 21.0646C159.361 20.8117 159.121 20.4649 158.814 20.0814C158.212 19.3277 157.305 18.3719 156.161 17.7422L155.679 18.6183ZM158.918 21.9845L159.439 22.838C159.444 22.8348 160.089 22.4412 160.858 22.0115C161.666 21.5597 162.481 21.1436 162.879 21.0246L162.593 20.0665L162.306 19.1085C161.658 19.3024 160.645 19.8394 159.882 20.2655C159.08 20.7136 158.411 21.1225 158.397 21.131L158.918 21.9845ZM162.593 20.0665L161.628 19.805L160.348 24.5257L161.313 24.7872L162.279 25.0488L163.558 20.3281L162.593 20.0665ZM161.313 24.7872L161.938 24.0064C160.623 22.9545 158.227 22.3674 155.679 22.3673L155.679 23.3673L155.679 24.3673C158.043 24.3674 159.894 24.9324 160.689 25.5681L161.313 24.7872ZM155.679 23.3673V22.3673C153.131 22.3673 150.734 22.9547 149.419 24.0063L150.044 24.7872L150.669 25.5682C151.463 24.9325 153.314 24.3673 155.679 24.3673V23.3673ZM150.044 24.7872L151.009 24.5255L149.729 19.8048L148.764 20.0665L147.799 20.3283L149.079 25.049L150.044 24.7872ZM148.764 20.0665L148.477 21.0246C148.877 21.1442 149.697 21.563 150.507 22.0162C150.892 22.2313 151.246 22.4373 151.504 22.5897C151.632 22.6659 151.737 22.7284 151.809 22.7716C151.845 22.7933 151.872 22.8101 151.891 22.8213C151.9 22.827 151.907 22.8312 151.912 22.834C151.914 22.8354 151.916 22.8364 151.917 22.8371C151.917 22.8374 151.918 22.8376 151.918 22.8378C151.918 22.8378 151.918 22.8379 151.918 22.8379C151.918 22.8379 151.918 22.8379 151.918 22.8379C151.918 22.8379 151.918 22.8379 152.439 21.9845C152.961 21.1311 152.961 21.1311 152.961 21.131C152.961 21.131 152.961 21.131 152.96 21.1309C152.96 21.1309 152.96 21.1308 152.96 21.1306C152.96 21.1304 152.959 21.13 152.958 21.1296C152.957 21.1287 152.955 21.1274 152.952 21.1257C152.947 21.1224 152.939 21.1177 152.928 21.1115C152.908 21.0991 152.878 21.0811 152.84 21.0583C152.765 21.0126 152.656 20.9474 152.522 20.8682C152.254 20.7101 151.886 20.4956 151.483 20.2704C150.719 19.8431 149.701 19.303 149.05 19.1085L148.764 20.0665ZM152.439 21.9845C153.312 22.4726 153.312 22.4728 153.312 22.473C153.312 22.4731 153.312 22.4732 153.312 22.4733C153.312 22.4735 153.312 22.4737 153.312 22.4738C153.311 22.474 153.311 22.4741 153.311 22.4741C153.311 22.474 153.312 22.4734 153.312 22.4723C153.314 22.4701 153.316 22.4658 153.32 22.4595C153.327 22.4469 153.339 22.4263 153.356 22.3988C153.389 22.3435 153.44 22.2603 153.508 22.1557C153.645 21.9458 153.847 21.6533 154.105 21.33C154.633 20.6702 155.346 19.9429 156.161 19.4944L155.679 18.6183L155.197 17.7422C154.052 18.3719 153.146 19.3276 152.543 20.0814C152.237 20.4649 151.997 20.8118 151.832 21.0646C151.749 21.1913 151.685 21.2953 151.641 21.3694C151.619 21.4065 151.601 21.4362 151.589 21.4576C151.583 21.4683 151.578 21.477 151.574 21.4835C151.572 21.4867 151.571 21.4894 151.569 21.4916C151.569 21.4927 151.568 21.4936 151.568 21.4944C151.568 21.4948 151.567 21.4951 151.567 21.4955C151.567 21.4956 151.567 21.4959 151.567 21.4959C151.567 21.4961 151.567 21.4963 152.439 21.9845ZM148.267 18.1144V19.1144C148.179 19.1144 148.106 19.0435 148.106 18.9536L149.106 18.9532L150.106 18.9529C150.106 17.9364 149.281 17.1144 148.267 17.1144V18.1144ZM149.106 18.9532H148.106C148.106 18.8644 148.178 18.7931 148.267 18.7931V19.7931V20.7931C149.282 20.7931 150.106 19.969 150.106 18.9532H149.106ZM148.267 19.7931L148.267 18.7931C148.357 18.7931 148.428 18.8655 148.428 18.9532H147.428H146.428C146.428 19.9677 147.25 20.7928 148.266 20.7931L148.267 19.7931ZM147.428 18.9532L148.428 18.9536C148.428 19.0424 148.356 19.1144 148.267 19.1144L148.267 18.1144L148.266 17.1144C147.251 17.1147 146.428 17.9377 146.428 18.9529L147.428 18.9532ZM163.058 18.1144V19.1144C162.97 19.1144 162.897 19.0435 162.897 18.9536L163.897 18.9532L164.897 18.9529C164.897 17.9364 164.072 17.1144 163.058 17.1144V18.1144ZM163.897 18.9532H162.897C162.897 18.8644 162.969 18.7931 163.058 18.7931V19.7931V20.7931C164.073 20.7931 164.897 19.969 164.897 18.9532H163.897ZM163.058 19.7931L163.058 18.7931C163.148 18.7931 163.219 18.8655 163.219 18.9532H162.219H161.219C161.219 19.9677 162.041 20.7928 163.057 20.7931L163.058 19.7931ZM162.219 18.9532L163.219 18.9536C163.219 19.0424 163.147 19.1144 163.058 19.1144L163.058 18.1144L163.057 17.1144C162.042 17.1147 161.219 17.9377 161.219 18.9529L162.219 18.9532ZM155.661 16.4386V17.4386C155.573 17.4386 155.501 17.3677 155.501 17.2778L156.501 17.2775L157.501 17.2772C157.501 16.2606 156.676 15.4386 155.661 15.4386V16.4386ZM156.501 17.2775H155.501C155.501 17.1886 155.572 17.1173 155.661 17.1173V18.1173V19.1173C156.677 19.1173 157.501 18.2932 157.501 17.2775H156.501ZM155.661 18.1173L155.661 17.1173C155.751 17.1173 155.822 17.1898 155.822 17.2775H154.822H153.822C153.822 18.2919 154.644 19.117 155.661 19.1173L155.661 18.1173ZM154.822 17.2775L155.822 17.2778C155.822 17.3666 155.75 17.4386 155.661 17.4386L155.661 16.4386L155.661 15.4386C154.646 15.4389 153.823 16.2619 153.822 17.2772L154.822 17.2775ZM279.448 13.2042H278.448V17.1984H279.448H280.448V13.2042H279.448ZM279.448 17.1984L279.601 16.2101L267.993 14.419L267.841 15.4073L267.688 16.3957L279.296 18.1867L279.448 17.1984ZM267.841 15.4073H268.841V11.1886H267.841H266.841V15.4073H267.841ZM267.841 11.1886L267.67 12.1739L279.277 14.1895L279.448 13.2042L279.619 12.219L268.012 10.2033L267.841 11.1886Z" fill="#1A1106" mask="url(#path-1-outside-1_4_64)"/>
</g>
<path d="M33.8064 39.8091C33.8064 45.669 29.1045 49.1005 20.2584 49.1005C16.7847 49.1005 12.7578 48.5051 10.9999 47.7551V20.5092H22.7196C28.2044 20.5092 31.3031 23.3453 31.3031 27.5644C31.3031 29.6552 30.1077 31.7835 28.4669 32.7539C31.2656 33.5368 33.8017 36.0026 33.8017 39.8091H33.8064ZM22.3492 25.2908H16.3394V31.4507H22.4242C24.8854 31.4507 25.8933 29.9927 25.8933 28.3145C25.8933 26.6362 24.8854 25.2908 22.3492 25.2908ZM28.2841 39.7716C28.2841 37.6058 26.9012 35.8526 23.8775 35.8526H16.3394V43.7657C17.4598 44.1407 19.4381 44.3236 20.8913 44.3236C26.4136 44.3236 28.2794 42.4203 28.2794 39.7716H28.2841Z" fill="white"/>
<path d="M39.705 34.6249C39.705 26.3789 45.8649 20.1066 54.1859 20.1066C62.5069 20.1066 68.7042 26.3743 68.7042 34.6249C68.7042 42.8756 62.5444 49.1058 54.1859 49.1058C45.8274 49.1058 39.705 42.8006 39.705 34.6249ZM63.1819 34.6249C63.1819 29.2151 59.3754 25.146 54.1859 25.146C48.9964 25.146 45.2273 29.2151 45.2273 34.6249C45.2273 40.0347 48.9589 43.9913 54.1859 43.9913C59.4129 43.9913 63.1819 39.9222 63.1819 34.6249Z" fill="white"/>
<path d="M102.331 20.523V48.7018H101.623L82.4781 31.4223V48.5143H77.0683V20.298H77.7762L96.8839 37.39V20.5183H102.331V20.523Z" fill="white"/>
<path d="M135.279 39.8089C135.279 45.6687 130.577 49.1003 121.731 49.1003C118.257 49.1003 114.231 48.5049 112.473 47.7548V20.5089H124.192C129.677 20.5089 132.776 23.3451 132.776 27.5642C132.776 29.655 131.58 31.7833 129.94 32.7536C132.738 33.5365 135.274 36.0023 135.274 39.8089H135.279ZM123.822 25.2906H117.812V31.4504H123.897C126.358 31.4504 127.366 29.9925 127.366 28.3142C127.366 26.636 126.358 25.2906 123.822 25.2906ZM129.757 39.7714C129.757 37.6056 128.374 35.8523 125.355 35.8523H117.817V43.7655C118.937 44.1405 120.915 44.3233 122.369 44.3233C127.891 44.3233 129.757 42.42 129.757 39.7714Z" fill="white"/>
<path d="M203.802 20.523V48.7018H203.094L183.949 31.4223V48.5143H178.539V20.298H179.247L198.355 37.39V20.5183H203.802V20.523Z" fill="white"/>
<path d="M239.222 20.523V48.7018H238.514L219.369 31.4223V48.5143H213.959V20.298H214.667L233.775 37.39V20.5183H239.222V20.523Z" fill="white"/>
<path d="M249.553 20.5206H255V48.5119H249.553V20.5206Z" fill="white"/>
<path d="M283.779 43.5818V48.5088H265.305V20.5175H283.442V25.4444H270.527V31.3793H282.804V36.1562H270.527V43.5818H283.775H283.779ZM279.448 17.1985L267.841 15.4077V11.1886L279.448 13.2044V17.1985Z" fill="white"/>
<path d="M309.455 48.5119L304.565 40.0409C303.782 40.1159 302.925 40.1534 302.067 40.1534C300.501 40.1534 299.193 40.0409 298.11 39.8159V48.5119H292.588V20.5206H303.487C310.838 20.5206 314.944 24.0272 314.944 29.9245C314.944 34.0686 313.041 36.9798 309.717 38.6205L315.577 48.5119H309.455ZM309.23 30.112C309.23 27.2384 307.664 25.4101 303 25.4101H298.11V35.1515C299.193 35.339 300.426 35.4515 301.954 35.4515C307.069 35.4515 309.234 33.5857 309.234 30.1167L309.23 30.112Z" fill="white"/>
<path d="M341.483 43.585V48.5119H323.008V20.5206H341.145V25.4476H328.23V31.3824H340.508V36.1594H328.23V43.585H341.478H341.483Z" fill="white"/>
<path d="M169.286 25.887C167.167 24.0962 165.062 24.6869 164.34 24.9447C163.191 25.3526 163.055 26.1448 162.61 26.4261C162.16 26.712 161.841 26.6464 160.946 26.2854L160.955 26.2995C159.38 25.5635 157.594 25.1463 155.663 25.1463C153.731 25.1463 151.945 25.5682 150.365 26.3089L150.384 26.2854C149.489 26.6464 149.17 26.712 148.72 26.4261C148.275 26.1448 148.139 25.3526 146.99 24.9447C146.268 24.6869 144.163 24.0962 142.044 25.887C139.03 28.4372 140.211 32.8203 142.312 33.5938C143.769 34.1283 143.83 34.9768 143.774 35.6799L143.784 35.6659C143.727 36.1487 143.694 36.641 143.694 37.1426C143.694 43.8978 148.781 49.106 155.658 49.106C162.535 49.106 167.654 43.8931 167.654 37.1426C167.654 36.5753 167.607 36.0269 167.537 35.4878C167.518 34.8268 167.682 34.0814 169.009 33.5938C171.114 32.8203 172.295 28.4419 169.276 25.887H169.286ZM155.667 43.9962C151.842 43.9962 149.109 41.0148 149.109 37.1379C149.109 33.261 151.842 30.1951 155.667 30.1951C159.493 30.1951 162.254 33.1719 162.254 37.1379C162.254 41.1038 159.464 43.9962 155.667 43.9962Z" fill="white"/>
<path d="M155.678 23.3671C158.135 23.3671 160.258 23.9437 161.313 24.7875L162.593 20.0668C161.543 20.3809 158.918 21.9842 158.918 21.9842C158.918 21.9842 157.638 19.6965 155.678 18.6183C153.719 19.6965 152.439 21.9842 152.439 21.9842C152.439 21.9842 149.814 20.3809 148.764 20.0668L150.043 24.7875C151.098 23.9437 153.222 23.3671 155.678 23.3671Z" fill="white"/>
<path d="M155.661 18.1169C156.125 18.1169 156.501 17.7412 156.501 17.2777C156.501 16.8143 156.125 16.4386 155.661 16.4386C155.198 16.4386 154.822 16.8143 154.822 17.2777C154.822 17.7412 155.198 18.1169 155.661 18.1169Z" fill="white"/>
<path d="M148.267 19.7926C148.73 19.7926 149.106 19.417 149.106 18.9535C149.106 18.4901 148.73 18.1144 148.267 18.1144C147.803 18.1144 147.428 18.4901 147.428 18.9535C147.428 19.417 147.803 19.7926 148.267 19.7926Z" fill="white"/>
<path d="M163.058 19.7926C163.521 19.7926 163.897 19.417 163.897 18.9535C163.897 18.4901 163.521 18.1144 163.058 18.1144C162.594 18.1144 162.219 18.4901 162.219 18.9535C162.219 19.417 162.594 19.7926 163.058 19.7926Z" fill="white"/>
<defs>
<filter id="filter0_f_4_64" x="0" y="0" width="352.482" height="60.1056" filterUnits="userSpaceOnUse" color-interpolation-filters="sRGB">
<feFlood flood-opacity="0" result="BackgroundImageFix"/>
<feBlend mode="normal" in="SourceGraphic" in2="BackgroundImageFix" result="shape"/>
<feGaussianBlur stdDeviation="5" result="effect1_foregroundBlur_4_64"/>
</filter>
</defs>
</svg>
