<svg width="705" height="81" viewBox="0 0 705 81" fill="none" xmlns="http://www.w3.org/2000/svg">
<path d="M48.65 61.0606C48.65 73.5606 38.62 80.8806 19.75 80.8806C12.34 80.8806 3.75 79.6106 0 78.0106V19.8906H25C36.7 19.8906 43.31 25.9406 43.31 34.9406C43.31 39.4006 40.76 43.9406 37.26 46.0106C43.23 47.6806 48.64 52.9406 48.64 61.0606H48.65ZM24.21 30.0906H11.39V43.2306H24.37C29.62 43.2306 31.77 40.1206 31.77 36.5406C31.77 32.9606 29.62 30.0906 24.21 30.0906ZM36.87 60.9806C36.87 56.3606 33.92 52.6206 27.47 52.6206H11.39V69.5006C13.78 70.3006 18 70.6906 21.1 70.6906C32.88 70.6906 36.86 66.6306 36.86 60.9806H36.87Z" fill="#D8BEB5"/>
<path d="M61.2295 50.0013C61.2295 32.4113 74.3695 19.0312 92.1195 19.0312C109.87 19.0312 123.09 32.4013 123.09 50.0013C123.09 67.6013 109.95 80.8913 92.1195 80.8913C74.2895 80.8913 61.2295 67.4413 61.2295 50.0013ZM111.31 50.0013C111.31 38.4613 103.19 29.7812 92.1195 29.7812C81.0495 29.7812 73.0095 38.4613 73.0095 50.0013C73.0095 61.5413 80.9695 69.9813 92.1195 69.9813C103.27 69.9813 111.31 61.3013 111.31 50.0013Z" fill="#D8BEB5"/>
<path d="M194.82 19.9019V80.0119H193.31L152.47 43.1519V79.6119H140.93V19.4219H142.44L183.2 55.8819V19.8919H194.82V19.9019Z" fill="#D8BEB5"/>
<path d="M265.11 61.0606C265.11 73.5606 255.08 80.8806 236.21 80.8806C228.8 80.8806 220.21 79.6106 216.46 78.0106V19.8906H241.46C253.16 19.8906 259.77 25.9406 259.77 34.9406C259.77 39.4006 257.22 43.9406 253.72 46.0106C259.69 47.6806 265.1 52.9406 265.1 61.0606H265.11ZM240.67 30.0906H227.85V43.2306H240.83C246.08 43.2306 248.23 40.1206 248.23 36.5406C248.23 32.9606 246.08 30.0906 240.67 30.0906ZM253.33 60.9806C253.33 56.3606 250.38 52.6206 243.94 52.6206H227.86V69.5006C230.25 70.3006 234.47 70.6906 237.57 70.6906C249.35 70.6906 253.33 66.6306 253.33 60.9806Z" fill="#D8BEB5"/>
<path d="M411.28 19.9019V80.0119H409.77L368.93 43.1519V79.6119H357.39V19.4219H358.9L399.66 55.8819V19.8919H411.28V19.9019Z" fill="#D8BEB5"/>
<path d="M486.83 19.9019V80.0119H485.32L444.48 43.1519V79.6119H432.94V19.4219H434.45L475.21 55.8819V19.8919H486.83V19.9019Z" fill="#D8BEB5"/>
<path d="M508.87 19.8984H520.49V79.6084H508.87V19.8984Z" fill="#D8BEB5"/>
<path d="M581.88 69.1V79.61H542.47V19.9H581.16V30.41H553.61V43.07H579.8V53.26H553.61V69.1H581.87H581.88ZM572.64 12.82L547.88 9V0L572.64 4.30002V12.82Z" fill="#D8BEB5"/>
<path d="M636.65 79.6084L626.22 61.5384C624.55 61.6984 622.72 61.7784 620.89 61.7784C617.55 61.7784 614.76 61.5384 612.45 61.0584V79.6084H600.67V19.8984H623.92C639.6 19.8984 648.36 27.3784 648.36 39.9584C648.36 48.7984 644.3 55.0084 637.21 58.5084L649.71 79.6084H636.65ZM636.17 40.3584C636.17 34.2284 632.83 30.3284 622.88 30.3284H612.45V51.1084C614.76 51.5084 617.39 51.7484 620.65 51.7484C631.56 51.7484 636.18 47.7684 636.18 40.3684L636.17 40.3584Z" fill="#D8BEB5"/>
<path d="M704.96 69.0984V79.6084H665.55V19.8984H704.24V30.4084H676.69V43.0684H702.88V53.2584H676.69V69.0984H704.95H704.96Z" fill="#D8BEB5"/>
<path d="M337.64 31.3594C333.12 27.5394 328.63 28.7994 327.09 29.3494C324.64 30.2194 324.35 31.9094 323.4 32.5094C322.44 33.1194 321.76 32.9795 319.85 32.2095L319.869 32.2395C316.509 30.6695 312.7 29.7794 308.58 29.7794C304.46 29.7794 300.65 30.6794 297.28 32.2594L297.319 32.2095C295.41 32.9795 294.73 33.1194 293.77 32.5094C292.82 31.9094 292.53 30.2194 290.08 29.3494C288.54 28.7994 284.05 27.5394 279.53 31.3594C273.1 36.7994 275.62 46.1495 280.1 47.7995C283.21 48.9395 283.34 50.7494 283.22 52.2494L283.24 52.2194C283.12 53.2494 283.05 54.2995 283.05 55.3695C283.05 69.7795 293.899 80.8894 308.569 80.8894C323.24 80.8894 334.16 69.7695 334.16 55.3695C334.16 54.1595 334.06 52.9895 333.91 51.8395C333.87 50.4295 334.22 48.8395 337.05 47.7995C341.54 46.1495 344.059 36.8094 337.619 31.3594H337.64ZM308.59 69.9895C300.43 69.9895 294.6 63.6294 294.6 55.3594C294.6 47.0894 300.43 40.5495 308.59 40.5495C316.75 40.5495 322.64 46.8994 322.64 55.3594C322.64 63.8194 316.69 69.9895 308.59 69.9895Z" fill="#D8BEB5"/>
<path d="M308.619 25.9816C313.859 25.9816 318.389 27.2116 320.639 29.0116L323.369 18.9416C321.129 19.6116 315.529 23.0316 315.529 23.0316C315.529 23.0316 312.799 18.1516 308.619 15.8516C304.439 18.1516 301.709 23.0316 301.709 23.0316C301.709 23.0316 296.109 19.6116 293.869 18.9416L296.599 29.0116C298.849 27.2116 303.379 25.9816 308.619 25.9816Z" fill="#D8BEB5"/>
<path d="M308.59 14.7831C309.578 14.7831 310.38 13.9817 310.38 12.9931C310.38 12.0045 309.578 11.2031 308.59 11.2031C307.601 11.2031 306.8 12.0045 306.8 12.9931C306.8 13.9817 307.601 14.7831 308.59 14.7831Z" fill="#D8BEB5"/>
<path d="M292.81 18.3613C293.798 18.3613 294.6 17.5598 294.6 16.5713C294.6 15.5827 293.798 14.7812 292.81 14.7812C291.821 14.7812 291.02 15.5827 291.02 16.5713C291.02 17.5598 291.821 18.3613 292.81 18.3613Z" fill="#D8BEB5"/>
<path d="M324.369 18.3613C325.358 18.3613 326.159 17.5598 326.159 16.5713C326.159 15.5827 325.358 14.7812 324.369 14.7812C323.38 14.7812 322.579 15.5827 322.579 16.5713C322.579 17.5598 323.38 18.3613 324.369 18.3613Z" fill="#D8BEB5"/>
</svg>
