<svg width="1273" height="332" viewBox="0 0 1273 332" fill="none" xmlns="http://www.w3.org/2000/svg">
<path d="M-29.9401 -101.129C-32.2701 -84.7887 -33.6301 -68.3187 -33.8801 -51.8387C-34.1601 -35.3587 -33.3401 -18.8686 -31.3101 -2.52863C-27.2701 30.1514 -18.2801 62.2013 -4.57011 92.0714C9.04989 121.991 27.2799 149.741 48.9699 174.391C70.6499 199.071 95.6899 220.741 122.87 239.151C150.06 257.581 179.33 272.851 209.73 285.261C224.94 291.441 240.44 296.941 256.18 301.651C271.92 306.361 287.86 310.361 303.95 313.701C320.04 317.001 336.25 319.771 352.56 321.721C368.87 323.701 385.26 325.041 401.67 325.771C418.09 326.541 434.53 326.481 450.95 325.961C459.16 325.751 467.36 325.201 475.57 324.701L487.85 323.691C489.9 323.541 491.94 323.331 493.98 323.101L500.11 322.451C516.44 320.651 532.74 318.441 548.9 315.431C552.96 314.761 556.97 313.901 561.01 313.111C565.04 312.311 569.08 311.531 573.08 310.601L597.21 305.191L621.4 299.751L645.69 294.771L657.83 292.291C661.88 291.491 665.95 290.781 670.02 290.021L694.4 285.551L718.86 281.541L731.09 279.541L743.36 277.771C751.54 276.611 759.71 275.381 767.9 274.271L792.5 271.181C825.32 267.311 858.22 264.061 891.21 262.021C957.16 257.811 1023.34 256.851 1089.34 260.001C1122.33 261.641 1155.27 264.291 1188.09 268.001C1220.88 271.861 1253.62 276.541 1285.85 283.731C1277.78 282.011 1269.65 280.561 1261.52 279.201C1253.39 277.831 1245.22 276.611 1237.06 275.461C1220.73 273.141 1204.34 271.201 1187.94 269.491C1155.11 266.211 1122.19 263.991 1089.23 262.771C1023.32 260.191 957.28 261.641 891.52 266.371L866.87 268.301L842.26 270.641C834.05 271.361 825.87 272.331 817.67 273.241C809.48 274.181 801.28 274.991 793.12 276.111L768.6 279.291C760.44 280.431 752.29 281.691 744.14 282.881L731.91 284.691L719.72 286.731L695.34 290.831L671.04 295.361C666.99 296.121 662.93 296.841 658.89 297.641L646.78 300.131L622.57 305.121L598.46 310.581L574.29 316.041C570.26 316.991 566.19 317.781 562.13 318.591C558.07 319.391 554.02 320.261 549.93 320.941C533.64 323.991 517.21 326.261 500.74 328.081C434.86 335.111 367.79 332.641 302.87 318.931C286.65 315.501 270.57 311.391 254.7 306.581C238.83 301.761 223.21 296.151 207.87 289.841C177.2 277.231 147.74 261.581 120.43 242.731C93.1199 223.911 67.9999 201.831 46.2999 176.731C24.5999 151.651 6.37989 123.511 -7.07011 93.2014C-20.5101 62.8914 -29.1401 30.5214 -32.7701 -2.35864C-34.6001 -18.7986 -35.2201 -35.3587 -34.7101 -51.8687C-34.1701 -68.3787 -32.5201 -84.8387 -29.9101 -101.139L-29.9401 -101.129Z" fill="url(#paint0_radial_10_749)"/>
<defs>
<radialGradient id="paint0_radial_10_749" cx="0" cy="0" r="1" gradientUnits="userSpaceOnUse" gradientTransform="translate(625.46 109.872) scale(491.87 413.171)">
<stop stop-color="#E1CF59"/>
<stop offset="0.5" stop-color="#F7F9E4"/>
<stop offset="0.52" stop-color="#F0F2DB"/>
<stop offset="0.64" stop-color="#C6C7A4"/>
<stop offset="0.75" stop-color="#A6A578"/>
<stop offset="0.85" stop-color="#8E8D59"/>
<stop offset="0.94" stop-color="#807E46"/>
<stop offset="1" stop-color="#7B7940"/>
</radialGradient>
</defs>
</svg>
