<svg width="71" height="71" viewBox="0 0 71 71" fill="none" xmlns="http://www.w3.org/2000/svg">
<path d="M35.205 68.995C53.8667 68.995 68.9951 53.8667 68.9951 35.205C68.9951 16.5433 53.8667 1.41504 35.205 1.41504C16.5433 1.41504 1.41504 16.5433 1.41504 35.205C1.41504 53.8667 16.5433 68.995 35.205 68.995Z" fill="#AB563E" stroke="url(#paint0_linear_11_1135)" stroke-width="2.83" stroke-miterlimit="10"/>
<path d="M23.7164 47.0105C26.4568 44.8889 28.8215 42.9883 30.8105 41.3087C32.8437 39.5849 34.5233 38.0158 35.8493 36.6014C37.2195 35.1428 38.2803 33.7947 39.0317 32.5571C39.8273 31.2753 40.3135 30.0156 40.4903 28.778C40.7555 27.0984 40.5124 25.7061 39.761 24.6011C39.0538 23.4961 37.9267 22.9436 36.3797 22.9436C34.7443 22.9436 33.2636 23.6287 31.9376 24.9989C30.6558 26.3691 29.4403 28.3581 28.2911 30.9659C28.2469 31.0985 28.0922 31.1206 27.827 31.0322C27.5618 30.9438 27.4513 30.8112 27.4955 30.6344L31.3409 20.822C31.4293 20.6894 31.5619 20.6452 31.7387 20.6894C31.9597 20.7336 32.0481 20.8441 32.0039 21.0209C31.7829 21.7281 31.7387 22.2143 31.8713 22.4795C32.0039 22.7005 32.2028 22.811 32.468 22.811C33.0868 22.811 33.9487 22.59 35.0537 22.148C36.1587 21.706 37.4184 21.485 38.8328 21.485C40.8218 21.485 42.3246 22.1038 43.3412 23.3414C44.3578 24.579 44.6672 26.2144 44.2694 28.2476C44.0042 29.4852 43.518 30.6786 42.8108 31.8278C42.1036 32.9328 41.1091 34.1041 39.8273 35.3417C38.5897 36.5793 37.0427 37.9274 35.1863 39.386C33.3741 40.8446 31.2304 42.5242 28.7552 44.4248C28.6226 44.5132 28.5784 44.5795 28.6226 44.6237C28.6668 44.6679 28.7552 44.69 28.8878 44.69C31.805 44.69 34.1697 44.6679 35.9819 44.6237C37.7941 44.5353 39.2306 44.3585 40.2914 44.0933C41.3522 43.8281 42.1699 43.3861 42.7445 42.7673C43.3191 42.1485 43.7832 41.3087 44.1368 40.2479C44.2252 40.0711 44.3799 40.0269 44.6009 40.1153C44.8661 40.1595 44.9766 40.27 44.9324 40.4468L42.8108 47.342C42.7666 47.5188 42.7003 47.6735 42.6119 47.8061C42.5235 47.8945 42.3909 47.9387 42.2141 47.9387C39.3853 47.9387 36.3797 47.9387 33.1973 47.9387C30.0591 47.9387 27.0093 47.9387 24.0479 47.9387C23.8711 47.9387 23.7164 47.8282 23.5838 47.6072C23.4954 47.3862 23.5396 47.1873 23.7164 47.0105Z" fill="white"/>
<defs>
<linearGradient id="paint0_linear_11_1135" x1="-0.00496123" y1="-800.734" x2="70.4051" y2="-800.734" gradientUnits="userSpaceOnUse">
<stop stop-color="#E1CF59"/>
<stop offset="0.5" stop-color="#F7F9E4"/>
<stop offset="0.52" stop-color="#F0F2DB"/>
<stop offset="0.64" stop-color="#C6C7A4"/>
<stop offset="0.75" stop-color="#A6A578"/>
<stop offset="0.85" stop-color="#8E8D59"/>
<stop offset="0.94" stop-color="#807E46"/>
<stop offset="1" stop-color="#7B7940"/>
</linearGradient>
</defs>
</svg>
