<svg width="71" height="71" viewBox="0 0 71 71" fill="none" xmlns="http://www.w3.org/2000/svg">
<path d="M35.205 68.995C53.8667 68.995 68.995 53.8667 68.995 35.205C68.995 16.5433 53.8667 1.41504 35.205 1.41504C16.5433 1.41504 1.41504 16.5433 1.41504 35.205C1.41504 53.8667 16.5433 68.995 35.205 68.995Z" fill="#AB563E" stroke="url(#paint0_linear_11_1132)" stroke-width="2.83" stroke-miterlimit="10"/>
<path d="M26.3131 46.9383C26.1363 46.9383 26.0479 46.8057 26.0479 46.5405C26.0479 46.2753 26.1363 46.1427 26.3131 46.1427C27.9043 46.1427 29.1198 46.0322 29.9596 45.8112C30.8436 45.5902 31.4845 45.1482 31.8823 44.4852C32.3243 43.8222 32.6558 42.8498 32.8768 41.568L35.131 29.0373C35.3962 27.3577 35.4846 26.1864 35.3962 25.5234C35.352 24.8162 34.91 24.551 34.0702 24.7278C33.2304 24.8604 31.816 25.3908 29.827 26.319C29.6502 26.4074 29.5176 26.3411 29.4292 26.1201C29.3408 25.8549 29.385 25.6781 29.5618 25.5897L39.5731 20.6835C39.6615 20.5951 39.772 20.5951 39.9046 20.6835C40.0372 20.7719 40.0814 20.8603 40.0372 20.9487L36.3244 41.568C36.1034 42.8498 36.0592 43.8222 36.1918 44.4852C36.3686 45.1482 36.8548 45.5902 37.6504 45.8112C38.4902 46.0322 39.7499 46.1427 41.4295 46.1427C41.5621 46.1427 41.6284 46.2753 41.6284 46.5405C41.6284 46.8057 41.5621 46.9383 41.4295 46.9383C40.4129 46.9383 39.2637 46.9162 37.9819 46.872C36.7443 46.8278 35.3962 46.8057 33.9376 46.8057C32.5232 46.8057 31.153 46.8278 29.827 46.872C28.501 46.9162 27.3297 46.9383 26.3131 46.9383Z" fill="white"/>
<defs>
<linearGradient id="paint0_linear_11_1132" x1="-0.00496101" y1="35.205" x2="70.415" y2="35.205" gradientUnits="userSpaceOnUse">
<stop stop-color="#E1CF59"/>
<stop offset="0.5" stop-color="#F7F9E4"/>
<stop offset="0.52" stop-color="#F0F2DB"/>
<stop offset="0.64" stop-color="#C6C7A4"/>
<stop offset="0.75" stop-color="#A6A578"/>
<stop offset="0.85" stop-color="#8E8D59"/>
<stop offset="0.94" stop-color="#807E46"/>
<stop offset="1" stop-color="#7B7940"/>
</linearGradient>
</defs>
</svg>
