<svg width="71" height="71" viewBox="0 0 71 71" fill="none" xmlns="http://www.w3.org/2000/svg">
<path d="M35.205 68.995C53.8667 68.995 68.9951 53.8667 68.9951 35.205C68.9951 16.5433 53.8667 1.41504 35.205 1.41504C16.5433 1.41504 1.41504 16.5433 1.41504 35.205C1.41504 53.8667 16.5433 68.995 35.205 68.995Z" fill="#AB563E" stroke="url(#paint0_linear_11_1165)" stroke-width="2.83" stroke-miterlimit="10"/>
<path d="M35.7011 51.5228C35.3257 51.7104 35.1568 51.5978 35.1944 51.185L40.2051 22.9787L41.7815 21.8527L26.4679 38.1797C26.2427 38.4424 26.3177 38.5738 26.6931 38.5738C29.2453 38.5738 31.5161 38.555 33.5054 38.5175C35.5322 38.4799 37.4276 38.4424 39.1917 38.4049C40.9557 38.3298 42.7949 38.2735 44.7091 38.236C44.8217 38.236 44.8592 38.4612 44.8217 38.9116C44.7841 39.3244 44.7091 39.7561 44.5965 40.2065C44.4839 40.6193 44.3713 40.8258 44.2587 40.8258C42.4571 40.7132 40.5992 40.6381 38.685 40.6006C36.7708 40.5255 34.6126 40.488 32.2105 40.488C29.8083 40.4504 26.9746 40.4317 23.7092 40.4317C23.559 40.4317 23.4652 40.3566 23.4277 40.2065C23.3526 40.0563 23.3901 39.9062 23.5403 39.7561L43.189 18.531C43.264 18.4184 43.4142 18.3808 43.6394 18.4184C43.8646 18.4559 43.9584 18.5685 43.9209 18.7562L38.4035 49.8338C38.3284 50.2466 38.1595 50.5094 37.8968 50.622L35.7011 51.5228Z" fill="white"/>
<defs>
<linearGradient id="paint0_linear_11_1165" x1="-0.00496133" y1="-800.734" x2="70.4151" y2="-800.734" gradientUnits="userSpaceOnUse">
<stop stop-color="#E1CF59"/>
<stop offset="0.5" stop-color="#F7F9E4"/>
<stop offset="0.52" stop-color="#F0F2DB"/>
<stop offset="0.64" stop-color="#C6C7A4"/>
<stop offset="0.75" stop-color="#A6A578"/>
<stop offset="0.85" stop-color="#8E8D59"/>
<stop offset="0.94" stop-color="#807E46"/>
<stop offset="1" stop-color="#7B7940"/>
</linearGradient>
</defs>
</svg>
