<svg width="71" height="71" viewBox="0 0 71 71" fill="none" xmlns="http://www.w3.org/2000/svg">
<path d="M35.2051 68.995C53.8668 68.995 68.9951 53.8667 68.9951 35.205C68.9951 16.5433 53.8668 1.41504 35.2051 1.41504C16.5434 1.41504 1.41504 16.5433 1.41504 35.205C1.41504 53.8667 16.5434 68.995 35.2051 68.995Z" fill="#AB563E" stroke="url(#paint0_linear_11_1138)" stroke-width="2.83" stroke-miterlimit="10"/>
<path d="M26.7626 54.4768C26.6125 54.5143 26.5186 54.4205 26.4811 54.1953C26.406 53.9701 26.406 53.8387 26.4811 53.8012C29.6714 52.7878 32.2237 51.4741 34.1379 49.8602C36.0896 48.2463 37.5534 46.5385 38.5293 44.7369C39.5052 42.9728 40.1245 41.3401 40.3872 39.8388C40.5749 38.6377 40.5749 37.5117 40.3872 36.4608C40.1995 35.4099 39.7491 34.5466 39.036 33.871C38.3229 33.1954 37.2719 32.8576 35.8832 32.8576C35.5079 32.8576 35.1138 32.8951 34.7009 32.9702C34.288 33.0453 33.8564 33.1391 33.406 33.2517C33.2559 33.2892 33.1433 33.1766 33.0682 32.9139C32.9931 32.6512 33.0307 32.501 33.1808 32.4635C35.9958 31.7128 38.0789 30.6431 39.4301 29.2544C40.8188 27.8281 41.7009 25.9515 42.0762 23.6244C42.414 21.8603 42.3202 20.4341 41.7947 19.3456C41.3068 18.2571 40.3121 17.7129 38.8108 17.7129C37.3095 17.7129 35.9395 18.2571 34.7009 19.3456C33.4998 20.3965 32.3926 22.1043 31.3792 24.4689C31.3041 24.5815 31.154 24.6003 30.9288 24.5252C30.7411 24.4126 30.6661 24.3 30.7036 24.1874L34.0816 16.0239C34.1567 15.9113 34.288 15.9113 34.4757 16.0239C34.6634 16.099 34.7197 16.2116 34.6446 16.3617C34.3819 16.9247 34.3256 17.3 34.4757 17.4877C34.6634 17.6378 34.8698 17.7129 35.095 17.7129C35.6205 17.7129 36.3524 17.5065 37.2907 17.0936C38.2666 16.6807 39.355 16.4743 40.5561 16.4743C41.9073 16.4743 42.977 16.7933 43.7652 17.4314C44.5534 18.0319 45.0789 18.8389 45.3416 19.8523C45.6043 20.8657 45.6231 21.9354 45.3979 23.0614C45.1727 24.4126 44.666 25.7263 43.8778 27.0024C43.0896 28.2785 42.0762 29.3858 40.8376 30.3241C39.599 31.2624 38.1915 31.9005 36.6151 32.2383L37.4596 31.5064C39.2987 31.5439 40.725 31.9568 41.7384 32.745C42.7893 33.4957 43.5025 34.4903 43.8778 35.7289C44.2531 36.9675 44.3094 38.2812 44.0467 39.6699C43.7464 41.3964 42.9019 43.198 41.5132 45.0747C40.1245 46.9514 38.2103 48.7154 35.7706 50.3669C33.3309 52.0559 30.3283 53.4259 26.7626 54.4768Z" fill="white"/>
<defs>
<linearGradient id="paint0_linear_11_1138" x1="0.00503874" y1="-800.734" x2="70.4151" y2="-800.734" gradientUnits="userSpaceOnUse">
<stop stop-color="#E1CF59"/>
<stop offset="0.5" stop-color="#F7F9E4"/>
<stop offset="0.52" stop-color="#F0F2DB"/>
<stop offset="0.64" stop-color="#C6C7A4"/>
<stop offset="0.75" stop-color="#A6A578"/>
<stop offset="0.85" stop-color="#8E8D59"/>
<stop offset="0.94" stop-color="#807E46"/>
<stop offset="1" stop-color="#7B7940"/>
</linearGradient>
</defs>
</svg>
