<svg width="89" height="133" viewBox="0 0 89 133" fill="none" xmlns="http://www.w3.org/2000/svg">
<path d="M54.6293 56.8019C56.0043 56.3436 56.037 56.3927 56.9046 55.4597C58.0013 54.2811 59.3763 53.4299 60.5876 52.3823C62.1427 51.04 63.7632 49.7469 65.0728 48.1427C65.8258 47.2096 66.5951 46.2766 67.2662 45.2781C67.8719 44.3778 68.1829 43.3465 68.3466 42.2334C68.6249 40.3182 69.0341 38.403 69.4433 36.5042C69.6398 35.5548 69.9344 34.6381 70.1963 33.7051C70.3927 33.0503 70.2945 32.4774 69.8689 31.9372C69.5415 31.5444 69.3287 31.0697 69.0341 30.6441C68.5921 29.9893 68.7067 29.3345 69.0177 28.6961C69.0668 28.5816 69.296 28.467 69.427 28.4833C69.5743 28.4833 69.7707 28.6143 69.8362 28.7453C69.9508 29.0072 69.9835 29.2854 70.049 29.5637C70.1472 29.9893 70.4091 30.2676 70.8674 30.4313C71.0966 29.4982 71.3913 28.6143 71.5386 27.6485C71.7677 26.0771 72.2097 24.522 72.5698 22.9669C72.668 22.5741 72.8317 22.1976 73.3064 22.0994C73.6829 22.0175 74.0594 22.3449 74.2231 22.9506C74.305 23.2125 74.3868 23.5235 74.3541 23.7854C74.2231 24.6857 74.0431 25.586 73.8466 26.4699C73.4701 28.2051 73.11 29.9402 72.6517 31.6426C72.488 32.2646 72.6517 32.6738 73.11 32.9849C73.863 33.5087 74.6323 34.0161 75.4344 34.4417C76.2856 34.9 77.235 34.8509 78.0862 34.5399C80.0014 33.8033 81.5238 32.5102 82.8169 30.9387C83.0952 30.6113 83.2261 30.1203 83.3244 29.6947C83.7172 28.0741 84.0119 26.4372 84.4375 24.8494C84.8139 23.4744 85.3214 22.1321 85.7797 20.7735C85.8943 20.4297 86.0907 20.1515 86.5 20.1678C86.8437 20.1678 87.2038 20.6098 87.2038 21.019C87.2038 21.2973 87.1711 21.5919 87.0893 21.8538C86.9419 22.4104 86.7619 22.9506 86.5982 23.4908C85.9762 25.4551 85.747 27.5176 85.3705 29.531C84.7157 32.9521 84.0282 36.3896 83.2916 39.7944C83.0133 41.0712 82.7678 42.3644 82.7351 43.6903C82.686 45.5564 82.8988 47.3406 83.6354 49.0593C83.9628 49.8451 84.1592 50.6799 84.4047 51.5147C85.0104 53.5609 85.9598 55.4433 86.7946 57.3912C87.2693 58.488 87.7276 59.6011 88.1696 60.7305C88.2842 61.0416 88.3497 61.4017 88.3661 61.7291C88.3988 62.8749 88.5297 64.0044 88.5952 65.1502C88.7262 67.3764 88.7262 69.619 88.5952 71.8452C88.497 73.6131 88.1533 75.3645 87.9241 77.1324C87.875 77.5253 87.8422 77.9181 87.8095 78.3274C87.7768 79.0149 87.6622 79.6696 87.564 80.3408C87.0565 83.8601 86.2053 87.2813 85.4032 90.7352C84.9285 92.7486 84.5029 94.762 84.4211 96.8245C84.3884 97.6102 84.1756 98.3959 84.0446 99.1816C83.3735 103.47 82.5223 107.71 81.4746 111.917C81.3601 112.408 81.3928 112.932 81.3437 113.439C81.3437 113.603 81.3601 113.832 81.2782 113.93C80.5416 114.683 80.6398 115.731 80.3288 116.631C80.0014 117.548 79.674 118.464 79.363 119.381C79.3139 119.545 79.2484 119.725 79.2648 119.889C79.4121 121.018 78.8228 121.902 78.2172 122.72C77.1696 124.145 76.0237 125.52 74.927 126.911C74.8942 126.96 74.8451 126.993 74.8124 127.042C74.2231 127.664 70.3927 130.561 69.607 130.921C68.5594 131.38 67.5118 131.838 66.4478 132.231C65.9731 132.395 65.4329 132.411 64.9254 132.427C64.0088 132.46 63.0921 132.378 62.1754 132.46C60.6858 132.591 59.2126 132.28 57.7558 132.149C56.8882 132.067 56.0043 131.609 55.2186 131.167C52.8778 129.907 50.8807 128.204 48.9983 126.338C48.1143 125.438 47.1649 124.603 46.281 123.703C46.0027 123.424 45.7572 123.081 45.6099 122.72C45.1188 121.509 44.6441 120.265 44.2021 119.021C43.9238 118.268 43.8584 117.466 43.8747 116.647C43.8747 115.731 43.8747 114.814 43.8911 113.897C43.8911 113.439 43.9893 112.997 44.0548 112.539C44.0875 112.261 44.1858 111.982 44.1858 111.688C44.153 110.525 44.4968 109.429 44.7259 108.316C45.0369 106.81 45.2661 105.287 45.5117 103.765C45.8554 101.686 46.2155 99.6072 46.7721 97.5447C47.0504 96.4971 47.1322 95.4004 47.3123 94.3364C47.656 92.3721 47.967 90.3914 48.3763 88.4435C48.9983 85.4152 49.7349 82.4196 50.3569 79.3913C50.7007 77.7217 50.8807 76.0029 51.1917 74.3169C51.6173 71.9598 52.1248 69.6026 52.5667 67.2455C52.8941 65.5103 53.1397 63.7588 53.4998 62.0237C53.8435 60.2886 54.2691 58.5698 54.6784 56.7692L54.6293 56.8019ZM60.0474 67.4091C59.8019 69.1606 59.5727 70.7976 59.3108 72.4181C59.1144 73.6622 58.918 74.9062 58.6397 76.1339C58.4269 77.0342 58.2305 77.9181 58.2141 78.8348C58.2141 79.1786 58.1159 79.5059 58.0504 79.8497C57.3465 83.4345 56.6263 87.0194 55.9715 90.6206C55.6278 92.4703 55.2513 94.3036 55.0876 96.2025C54.9566 97.6102 54.531 98.9852 54.2691 100.377C54.0891 101.326 53.909 102.292 53.8599 103.258C53.7944 104.452 53.8435 105.647 53.8435 106.81C54.9075 108.447 56.168 109.822 57.5102 111.164C60.1948 113.832 63.4031 114.585 66.9716 114.045C68.7722 113.767 70.5073 113.095 72.2752 112.604C73.4374 112.277 74.485 111.72 75.5326 111.115C77.055 110.231 78.5282 109.2 80.247 108.692C80.3779 108.332 80.5416 108.021 80.5907 107.677C80.7544 106.548 81.0654 105.467 81.1636 104.305C81.311 102.439 81.7038 100.589 81.9985 98.7397C82.1294 97.8885 82.3095 97.0373 82.3422 96.1861C82.3913 94.2218 82.8824 92.323 83.2916 90.4241C83.9627 87.3631 84.9613 84.3676 85.3378 81.2411C85.436 80.4062 85.7306 79.5714 85.7961 78.7366C85.9107 77.0833 86.1071 75.4464 86.4345 73.8095C86.6637 72.6964 86.7455 71.5505 86.9256 70.4211C86.991 69.9627 87.0074 69.5371 86.6309 69.1279C85.2068 69.5044 83.7827 69.9136 82.3258 70.1755C81.0818 70.3883 79.8705 70.7485 78.6591 71.0431C78.1026 71.174 77.5624 71.2559 76.9731 71.2068C76.0073 71.1249 75.0416 71.1577 74.0758 71.2559C72.1115 71.4687 70.2127 70.8139 68.2647 70.9285C68.1011 70.9285 67.9374 70.8303 67.7737 70.7812C65.2201 70.0937 62.732 69.2752 60.5876 67.6219C60.5058 67.5565 60.3748 67.5401 60.0802 67.4091H60.0474ZM71.293 52.7915C71.2603 52.6114 71.2767 52.546 71.2439 52.5132C71.0966 52.3659 70.9657 52.1859 70.7856 52.0876C70.7365 52.0549 70.4582 52.2677 70.4418 52.3823C70.3764 52.9061 70.049 53.168 69.6398 53.4299C69.1487 53.7409 68.6249 54.0028 68.232 54.4121C66.7424 55.9999 65.3019 57.6204 63.8451 59.2409C63.6487 59.4537 63.6978 59.9121 63.9433 59.9939C64.1234 60.043 64.4344 60.043 64.5653 59.9284C66.8243 57.8987 68.9195 55.7052 70.9493 53.4626C71.1293 53.2662 71.2112 52.9716 71.293 52.8079V52.7915ZM74.5832 46.6531C74.3868 46.7022 74.2559 46.7186 74.174 46.7677C73.2737 47.2751 72.9627 48.2245 72.5044 49.0593C72.4552 49.1576 72.5698 49.4195 72.6844 49.4849C72.8645 49.5832 73.1755 49.6977 73.2901 49.6159C74.0267 49.0921 74.6814 48.4537 75.1234 47.6516C75.2053 47.4879 75.1398 47.1933 75.0416 47.0132C74.9434 46.8331 74.7142 46.7349 74.5832 46.6531ZM34.5607 104.06C32.6783 104.878 30.9759 105.697 29.2244 106.368C28.1113 106.793 26.9163 107.039 25.7541 107.284C23.8553 107.677 21.9237 107.906 19.9758 107.972C17.8806 108.037 15.9981 107.497 14.263 106.417C12.7079 105.451 11.1365 104.469 9.81057 103.192C8.99211 102.406 8.32098 101.473 7.60074 100.589C7.46978 100.426 7.37157 100.18 7.3552 99.9674C7.30609 99.4599 7.22425 98.9197 7.28972 98.4287C7.53526 96.7263 7.50252 95.0402 7.48615 93.3379C7.48615 92.2084 7.68258 91.0789 7.87901 89.9658C8.05907 88.9018 8.35372 87.8542 8.32098 86.7411C8.32098 86.3482 8.41919 85.9554 8.4683 85.5462C8.51741 85.0878 8.58288 84.6458 8.63199 84.1875C8.69747 83.4509 8.6811 82.6979 8.81205 81.9613C9.02485 80.7173 9.1067 79.4568 9.1067 78.1964C9.1067 77.3452 9.07396 76.4776 9.35223 75.6428C9.43408 75.3809 9.43408 75.0699 9.41771 74.7916C9.35223 72.9583 9.67962 71.174 10.007 69.3734C10.2853 67.8675 10.3344 66.3124 10.4326 64.7737C10.4653 64.1681 10.629 63.6442 10.9237 63.1532C11.1201 62.793 11.6439 62.6948 11.9877 62.9404C12.1677 63.0713 12.3642 63.2187 12.4787 63.3987C13.2645 64.5937 14.4758 65.2812 15.6544 65.985C16.882 66.7216 18.1097 67.4583 19.4193 68.0475C20.6633 68.6205 21.9892 69.0297 23.3969 69.0297C24.9356 69.0297 26.4907 69.0624 28.0294 69.0788C29.6827 69.0952 31.205 68.6205 32.6291 67.8511C34.3479 66.9344 36.0176 65.9687 37.8345 64.9538C37.8673 64.741 37.9164 64.4136 37.9491 64.0862C38.0473 63.0058 38.1455 61.9255 38.2438 60.8615C38.4402 58.7008 38.6202 56.5237 38.0801 54.3793C37.9 53.6591 37.6545 52.9716 37.3598 52.2841C36.6232 50.5489 35.903 48.7974 35.0845 47.0951C34.4461 45.7528 33.8568 44.3941 32.9729 43.1828C31.7779 41.5132 30.6321 39.7944 29.9773 37.7974C29.8628 37.47 29.6827 37.1426 29.6991 36.8152C29.7645 34.9983 29.3226 33.1485 29.9937 31.3479C30.272 28.7944 30.8449 26.2899 31.3687 23.7854C31.4178 23.5235 31.3687 23.2288 31.3687 22.8196C30.6812 22.9669 30.1083 23.0979 29.5354 23.3598C28.7988 23.7036 27.9967 23.7363 27.1946 23.769C25.3121 23.8509 23.7407 23.2125 22.3821 21.9521C21.7928 21.4119 21.1544 20.9535 20.4505 20.3806C20.3687 20.5116 20.1722 20.6753 20.1559 20.8553C20.1068 21.8211 20.1559 22.8033 19.8121 23.7527C19.6975 24.0637 19.7957 24.4402 19.7794 24.7839C19.7794 25.1768 19.7794 25.586 19.7303 25.9789C19.3374 28.5816 19.1246 31.1843 18.9118 33.8033C18.8136 34.9328 18.6172 36.0623 18.3553 37.1754C18.2079 37.8301 17.9624 38.5176 17.5859 39.0742C16.3255 40.9239 15.4743 43.0028 14.0174 44.7379C13.6901 45.1308 13.379 45.5236 13.0517 45.9165C12.7898 46.2275 12.4951 46.5058 12.2823 46.8331C10.6618 49.3376 8.51741 51.4165 6.7168 53.79C6.34031 54.2975 6.07841 54.2647 5.42364 53.79C5.34179 53.3153 5.6037 52.9061 5.86561 52.5623C7.09329 50.9091 8.35371 49.2885 9.59777 47.668C9.63051 47.6189 9.67962 47.5861 9.71235 47.537C11.1365 45.5236 12.5606 43.5266 13.9683 41.5132C14.3612 40.2855 15.196 39.3361 15.8671 38.2721C16.3091 37.5846 16.571 36.8152 16.6201 36.0295C16.6856 34.6545 17.0294 33.3122 17.2094 31.97C17.2258 31.8063 17.324 31.6426 17.324 31.4625C17.324 29.5637 17.7987 27.7304 18.0115 25.8643C18.2079 24.2765 18.2734 22.6723 18.4207 21.0845C18.4698 20.6262 18.5681 20.1842 18.6663 19.7259C18.9937 18.3345 18.9445 16.9922 18.257 15.7154C18.1588 15.519 18.077 15.2898 18.0442 15.077C17.9951 14.6514 18.0934 14.2749 18.5189 14.0785C18.7645 13.9639 19.0264 13.833 19.2065 13.7511C19.5011 12.0978 19.8121 10.5428 20.0576 8.97133C20.1559 8.36568 20.4178 7.8746 20.8434 7.48174C21.0071 7.33442 21.3835 7.30168 21.6291 7.35079C21.8091 7.38353 21.9728 7.62907 22.0547 7.82549C22.1365 8.02192 22.1365 8.28383 22.1038 8.49663C22.0219 8.95496 21.9237 9.39693 21.7928 9.8389C21.2199 11.9996 20.8597 14.1931 20.6797 16.4193C20.6469 16.7467 20.6797 17.1068 20.7943 17.4178C21.2035 18.711 21.9237 19.7913 23.1187 20.4952C23.1678 20.5279 23.2169 20.5607 23.266 20.5934C25.574 22.4431 28.013 22.2631 30.5175 21.0354C31.025 20.7898 31.516 20.4952 31.9253 20.266C32.3672 18.1544 32.7928 16.1574 33.2021 14.144C33.2512 13.8657 33.2512 13.5711 33.2348 13.2928C33.1693 12.3434 33.6113 11.5085 33.9059 10.6574C33.9387 10.5428 34.2169 10.4118 34.3315 10.4446C34.528 10.51 34.7408 10.6574 34.8226 10.8374C34.9208 11.0993 34.9699 11.4103 34.9372 11.6722C34.7408 13.4237 34.7244 15.208 34.2006 16.9104C34.086 17.2541 34.2006 17.6797 34.2006 18.0889C34.7899 17.9089 35.2646 17.6961 35.772 17.6142C36.0012 17.5815 36.3613 17.7452 36.4923 17.9416C36.6068 18.1381 36.5577 18.4982 36.4923 18.7437C36.4268 18.9401 36.214 19.1038 36.0503 19.2675C35.7229 19.5785 35.3792 19.8895 35.0354 20.1842C34.1842 20.9699 33.3494 21.772 33.4476 23.0652C32.9238 24.653 32.8419 26.3226 32.5473 27.9432C32.4 28.7289 32.2363 29.5146 32.0726 30.3003C31.778 31.7572 31.5815 33.214 31.4997 34.7036C31.4015 36.406 31.9744 37.8629 32.8092 39.2379C33.5622 40.4492 34.4461 41.5787 35.2155 42.79C35.7065 43.5593 36.214 44.345 36.5086 45.2126C36.967 46.5712 37.7854 47.7662 38.3256 49.0921C38.833 50.3034 39.4387 51.482 39.9298 52.7097C40.1917 53.3972 40.4045 54.1338 40.4536 54.8704C40.5518 56.4582 40.5845 58.0624 40.5518 59.6665C40.5354 60.5668 40.2408 61.4671 40.2081 62.3838C40.1917 63.235 40.3717 64.0862 40.4372 64.9538C40.47 65.2975 40.47 65.6576 40.3717 65.985C40.1098 66.7708 40.1589 67.5565 40.0771 68.3586C39.9298 70.0118 39.7006 71.6488 39.5042 73.2857C39.3569 74.4151 39.1768 75.5446 39.0622 76.6904C38.8494 78.7366 38.5548 80.7827 38.7348 82.8616C38.7676 83.1399 38.7021 83.4345 38.6366 83.7128C38.2765 85.3334 38.2438 87.003 37.7199 88.5908C37.6381 88.8527 37.7036 89.1637 37.6872 89.442C37.6708 89.8349 37.7527 90.2768 37.6054 90.6369C37.2452 91.5209 37.2943 92.4376 37.2943 93.3379C37.2943 95.2858 36.9833 97.201 36.656 99.1162C36.6396 99.2307 36.5905 99.3453 36.6068 99.4599C36.6887 101.13 36.2467 102.734 36.0994 104.387C36.0012 105.402 35.7393 106.4 35.4937 107.399C35.4283 107.677 35.1336 107.841 34.8226 107.808C34.4789 107.775 34.1842 107.432 34.2497 107.088C34.397 106.302 34.5607 105.516 34.708 104.731C34.7408 104.583 34.6589 104.42 34.5934 104.076L34.5607 104.06ZM11.8076 64.9374C11.8076 66.0178 11.9222 66.7216 11.7749 67.3764C11.5621 68.2767 11.5457 69.1934 11.4802 70.0937C11.4311 70.7157 11.4475 71.3705 11.2838 71.9598C11.1201 72.5327 11.0874 73.0892 11.1037 73.6458C11.1856 75.9375 10.5963 78.1964 10.8418 80.4881C10.8582 80.7009 10.76 80.9301 10.7272 81.1592C10.6127 82.2887 10.4817 83.4182 10.3835 84.5476C10.3507 84.9405 10.3507 85.3497 10.3016 85.7426C10.2362 86.2991 10.1543 86.872 10.0725 87.4286C9.99063 87.9851 9.92515 88.5581 9.85968 89.131C9.67962 90.6042 9.43408 92.0774 9.33586 93.5507C9.20491 95.253 9.45045 96.9718 9.04122 98.6742C8.99211 98.887 9.00848 99.1325 9.00848 99.3617C9.00848 99.7873 9.13943 100.147 9.40134 100.475C9.97426 101.195 10.5799 101.883 11.3493 102.39C12.0695 102.865 12.888 103.208 13.51 103.781C14.4758 104.665 15.638 105.124 16.8002 105.582C18.257 106.171 19.7794 106.319 21.3344 106.073C21.891 105.991 22.4639 105.893 23.0205 105.828C24.6083 105.615 26.2288 105.451 27.7184 104.862C30.0919 103.912 32.4327 102.816 34.8062 101.768C34.8553 101.539 34.9536 101.326 34.9536 101.113C34.9536 100.147 34.9208 99.1653 35.2318 98.2159C35.2809 98.0522 35.2646 97.8721 35.2646 97.7084C35.2646 97.0209 35.2482 96.3334 35.4774 95.6623C35.592 95.3513 35.5592 94.9911 35.5592 94.6474C35.6083 93.1087 35.3955 91.5536 35.8539 90.0313C35.7229 88.5253 36.1649 87.0848 36.4268 85.628C36.6232 84.4985 36.836 83.3527 36.7869 82.2232C36.6723 79.9643 37.0324 77.7708 37.2943 75.561C37.4908 73.9077 37.7199 72.2708 37.8673 70.6175C37.9491 69.7663 37.9655 68.9151 38.1619 68.0639C38.2438 67.6874 38.4075 67.1472 37.8345 66.8199C36.525 67.7365 35.0681 68.3749 33.7095 69.2425C31.8434 70.4374 29.7154 70.9121 27.4892 70.8794C26.5726 70.863 25.6559 70.8794 24.7556 70.8794C24.019 70.8794 23.2496 71.0431 22.5458 70.8794C20.9907 70.5357 19.4356 70.1592 18.0279 69.3243C15.9654 68.0966 13.8046 67.0327 11.824 64.9538L11.8076 64.9374ZM16.7347 119.201C17.8314 119.201 18.9118 119.152 20.0085 119.201C21.4654 119.267 22.8404 118.923 24.199 118.481C25.6068 118.023 27.0145 117.531 28.4386 117.155C30.5339 116.598 31.8925 115.223 33.2021 113.717C33.3985 113.488 33.4312 113.095 33.464 112.752C33.4967 112.326 33.0056 112.031 32.6128 112.228C31.9907 112.539 31.4669 112.948 31.0086 113.488C30.3047 114.339 29.3717 114.896 28.2913 115.207C26.147 115.813 24.019 116.451 21.8746 117.057C21.5472 117.155 21.2035 117.204 20.8597 117.204C18.388 117.22 15.9326 117.27 13.4609 117.204C12.1514 117.171 10.8582 116.959 9.54866 116.828C9.49956 116.828 9.43408 116.811 9.38497 116.795C7.22424 116.075 5.25995 115.076 4.01589 113.063C3.5903 112.375 3.11559 111.737 2.72273 111.033C2.03523 109.838 1.47868 108.627 1.65874 107.17C1.77332 106.269 1.70785 105.336 1.74058 104.42C1.74058 104.027 1.70785 103.585 1.85517 103.225C2.13344 102.554 2.10071 101.883 2.13344 101.195C2.13344 100.851 2.14981 100.508 2.24803 100.18C2.62452 98.7888 2.65726 97.3647 2.82095 95.9569C3.00101 94.3691 2.75547 92.7486 3.19744 91.1771C3.27928 90.9152 3.19744 90.6042 3.21381 90.3259C3.32839 87.9851 3.45934 85.6607 3.57393 83.3199C3.57393 83.2054 3.5903 83.0744 3.6394 82.9926C3.99953 82.3542 3.8522 81.6503 3.90131 80.9792C4.01589 79.5059 4.03226 78.0163 4.2778 76.5595C4.57244 74.808 4.83435 73.0729 4.85072 71.305C4.85072 71.0267 4.85072 70.7321 4.9162 70.4538C5.07989 69.7172 5.07989 68.9806 5.03078 68.244C4.98167 67.2782 4.98167 66.3124 5.21084 65.3466C5.35816 64.7082 5.22721 63.988 5.16173 63.3005C5.129 63.0058 4.88346 62.8094 4.53971 62.8422C4.21232 62.8749 3.98316 63.0713 3.96679 63.366C3.93405 64.2826 3.60667 65.1666 3.55756 66.0669C3.45934 67.6711 3.27928 69.2589 3.1647 70.8467C3.05012 72.5163 2.54267 74.1041 2.44446 75.7738C2.39535 76.6741 2.19892 77.5744 2.06797 78.4747C1.98612 79.0967 1.8388 79.7187 1.8388 80.3408C1.87154 82.125 1.26588 83.8438 1.42957 85.628C1.42957 85.7426 1.39683 85.8572 1.34773 85.9554C1.06945 86.5447 1.13493 87.1831 1.11856 87.8215C1.08582 89.4256 1.26588 91.0298 0.856651 92.6012C0.758437 92.9777 0.774806 93.4033 0.791175 93.7962C0.922128 95.8587 0.545638 97.8885 0.349208 99.9346C0.234624 101.13 0.0545638 102.325 0.0218255 103.519C-0.0272819 105.287 0.0218255 107.072 0.0218255 108.856C0.0218255 109.2 0.0218255 109.576 0.152779 109.871C1.08582 111.9 2.0516 113.93 3.5903 115.567C4.98167 117.057 6.76591 118.039 8.73021 118.546C9.92515 118.857 11.1856 118.956 12.4296 119.119C13.8374 119.299 15.2779 119.168 16.702 119.168V119.201H16.7347ZM74.5341 18.269C73.5684 17.205 73.7484 16.0755 74.2722 14.9133C75.5326 12.0978 77.7261 10.2809 80.5252 9.15139C80.8362 9.02044 81.18 8.97133 81.5238 8.95496C82.3258 8.92223 83.1279 8.95496 83.93 8.9386C84.5684 8.9386 84.9613 9.26598 85.3214 9.77342C85.7961 10.4609 85.8943 11.2794 86.0253 12.0324C86.2708 13.5383 86.4345 15.1098 85.6651 16.5339C84.683 18.3508 83.177 19.4148 81.0982 19.7422C79.4285 20.0041 77.9553 19.3985 76.4493 18.9401C75.86 18.7601 75.2707 18.5309 74.5341 18.269ZM83.7172 10.9193C82.8333 10.5591 81.8675 10.51 81.0654 10.8374C79.6577 11.4267 78.2008 12.016 77.235 13.3092C76.6621 14.0785 76.171 14.9297 75.6636 15.7482C75.5817 15.8791 75.6145 16.0592 75.5981 16.3047C77.0877 16.8776 78.5773 17.4178 80.0996 17.8107C81.2782 18.1053 82.3586 17.647 83.2425 16.8449C83.9955 16.1738 84.3065 15.3553 84.2738 14.2913C84.241 13.1291 84.061 12.0487 83.7172 10.9193ZM33.6604 4.40435C33.5131 5.14096 33.8405 5.79572 33.5294 6.49959C32.9893 7.67817 32.2363 8.66032 31.1559 9.38056C30.8776 9.56062 30.5339 9.69158 30.2065 9.70794C29.4699 9.75705 28.7006 9.78979 27.9803 9.70794C26.4907 9.51152 25.083 9.02044 23.8717 8.10377C22.5621 7.10525 22.3493 5.15733 23.3315 3.79869C24.8211 1.75255 26.9491 0.704921 29.3226 0.0992626C30.3211 -0.162644 31.2541 0.0992626 32.0235 0.819505C32.1053 0.90135 32.1872 0.983196 32.2854 1.04867C33.3985 1.71981 33.7586 2.73469 33.6604 3.97875C33.6604 4.14244 33.6604 4.3225 33.6604 4.42071V4.40435ZM29.8628 1.76891C28.9461 2.04719 28.0622 2.27636 27.211 2.58737C26.1961 2.96386 25.2794 3.55315 24.5592 4.40435C24.1499 4.87905 23.9535 5.35376 24.2645 5.99215C24.7229 6.25406 25.1976 6.56507 25.705 6.82698C26.9491 7.46537 28.2422 7.84186 29.65 7.72728C30.0756 7.69454 30.4029 7.53085 30.6976 7.23621C31.5815 6.35227 31.7452 5.23917 31.6634 4.07696C31.5815 2.9966 30.9104 2.34183 29.8628 1.78528V1.76891ZM26.6217 32.0518C26.8508 32.0518 27.08 32.0518 27.3092 32.0518C28.6514 32.1173 30.0592 33.3122 29.208 35.2274C28.8151 36.1277 28.2258 36.8807 27.4892 37.5355C26.2779 38.5995 24.8538 38.8123 23.3315 38.5831C23.0041 38.534 22.6767 38.3703 22.3984 38.2066C21.76 37.8138 21.2199 37.2736 20.8925 36.6024C20.6633 36.1441 20.3687 35.9313 19.894 35.7676C19.452 35.6203 19.3538 35.1292 19.632 34.7855C19.894 34.4908 20.1722 34.1962 20.4996 33.9834C21.76 33.1813 23.1514 32.6738 24.5755 32.2974C25.2303 32.1337 25.9178 32.0682 26.5889 31.9536C26.5889 31.9863 26.5889 32.0191 26.5889 32.0518H26.6217ZM21.8255 35.2438C22.1038 36.2423 22.644 36.7989 23.4297 37.1262C24.0845 37.4045 24.7883 37.3882 25.4431 37.159C26.7199 36.717 27.4238 35.6694 27.9639 34.5236C28.0949 34.2617 27.9639 33.967 27.6693 33.8033C27.1946 33.525 26.6871 33.5414 26.1633 33.6233C24.6246 33.8524 23.2333 34.4581 21.8091 35.2438H21.8255ZM60.7677 80.6354C60.604 79.1458 60.5876 77.7217 60.7349 76.314C60.7841 75.8884 61.046 75.4628 61.3079 75.1026C61.9954 74.1369 63.2558 74.3169 63.7796 75.3809C64.2707 76.4122 64.0906 77.5089 64.107 78.5893C64.107 78.7038 64.0742 78.8184 64.0088 78.9166C63.2067 79.9479 62.1918 80.5536 60.7677 80.6354ZM62.1754 78.4747C62.912 78.2619 62.8138 77.689 62.7811 77.1815C62.7811 76.7887 62.732 76.3631 62.11 76.3467C61.9463 77.0669 61.8153 77.7708 62.1591 78.4747H62.1754ZM62.732 86.4792C62.3555 85.7753 61.5861 85.7098 60.9969 86.2337C60.2602 86.9048 59.8019 87.7723 59.4582 88.6727C59.3763 88.9182 59.4254 89.2456 59.5236 89.4911C59.5891 89.6712 59.8346 89.9003 59.9983 89.9003C60.2439 89.9003 60.5221 89.753 60.7349 89.6057C60.8332 89.5238 60.8495 89.2947 60.8659 89.131C60.9477 88.4107 60.9314 88.4107 61.6516 87.8869C61.848 88.5417 62.0117 89.2128 62.2409 89.8512C62.5683 90.7515 63.3867 90.9807 64.1561 90.3914C64.7126 89.9658 65.171 89.4584 65.4001 88.7872C65.4493 88.6072 65.4002 88.3125 65.2692 88.1816C65.1382 88.0506 64.8436 87.9524 64.6635 88.0179C64.2871 88.1325 63.9433 88.3453 63.5832 88.5253C63.3049 87.8378 63.0921 87.1176 62.7484 86.4792H62.732ZM78.299 80.8646C79.0029 81.5357 79.6577 81.4866 80.4107 80.8482C80.9672 80.3735 81.1964 79.7515 81.3273 79.064C81.3764 78.7693 81.2618 78.5074 80.9836 78.3437C80.6889 78.1964 80.4434 78.2946 80.1978 78.4911C79.8214 78.7857 79.6904 79.4241 78.9538 79.375C78.7246 78.9821 78.4955 78.5238 78.2008 78.1146C77.5952 77.2306 76.4984 77.2306 75.9582 78.1473C75.7291 78.5238 75.5654 78.9821 75.5163 79.4241C75.4508 79.9806 75.4835 80.5699 75.549 81.1265C75.5817 81.4048 75.68 81.683 75.8437 81.9122C75.9582 82.0759 76.2202 82.2396 76.3838 82.2068C76.5475 82.1741 76.7603 81.9122 76.7931 81.7321C76.8749 80.9955 76.8749 80.2589 76.924 79.3586C77.4642 79.9315 77.8571 80.4226 78.299 80.8482V80.8646ZM78.4791 89.2783C77.9062 88.4107 77.1532 88.3289 76.5803 89.1637C75.8109 90.2932 75.2216 91.5209 75.6472 92.9614C76.3511 92.8632 76.4002 92.8304 76.4984 92.5358C76.6785 91.9629 76.5803 91.259 77.2187 90.8989C77.928 91.2699 78.7355 91.439 79.6413 91.4063C79.7722 91.6355 79.8868 91.8974 80.0505 92.1265C80.2797 92.4376 80.7544 92.4212 80.9017 92.0938C81.2618 91.3572 81.4092 90.5878 81.3437 89.7694C81.2782 88.9018 80.6726 88.5581 79.9523 89.0491C79.5758 89.2947 79.2157 89.573 78.7737 89.9003C78.6428 89.6384 78.5773 89.442 78.4627 89.2783H78.4791ZM72.3243 92.2575C71.3258 92.6012 71.3094 92.5849 71.0148 91.7992C70.982 91.6846 70.9493 91.5864 70.9165 91.4718C70.6055 90.6861 70.3436 90.5878 69.5415 91.128C69.1323 91.3899 68.7231 91.5045 68.2647 91.4554C67.8555 91.4063 67.5609 90.9152 67.7082 90.5715C67.79 90.3587 67.8883 90.1459 68.0356 89.9658C68.7067 89.1965 69.3942 88.4271 70.0817 87.6741C70.4255 87.2976 70.8838 87.2158 71.3421 87.3467C71.5877 87.4122 71.866 87.5759 72.0297 87.7724C72.1933 87.9852 72.3407 88.2798 72.3407 88.5581C72.4061 89.8021 72.5044 91.0462 72.3407 92.2575H72.3243ZM70.0162 89.442C70.1636 89.9003 70.4418 89.9986 70.8838 89.884C71.0148 89.5238 71.2112 89.131 70.8183 88.6563C70.5401 88.9346 70.2618 89.1965 70.0162 89.442ZM70.0162 81.5848C68.2484 81.6339 67.6427 80.6681 67.8391 79.1294C67.921 78.4256 67.8883 77.7544 68.7395 77.5089C68.8213 77.4925 68.8868 77.3288 68.9031 77.2306C69.1323 76.4122 69.7543 76.4122 70.3927 76.5104C71.0639 76.625 71.6695 77.2634 71.735 77.8854C71.7677 78.1146 71.735 78.3437 71.735 78.5729C71.8169 79.9479 71.3421 81.0119 70.0162 81.6012V81.5848ZM69.8526 77.8854C68.9686 78.7038 68.8213 79.2931 69.2305 79.997C69.2796 80.0789 69.4433 80.1607 69.5088 80.1443C69.6561 80.0952 69.8526 79.997 69.9017 79.8661C70.1472 79.2604 70.0654 78.6711 69.8526 77.9018V77.8854ZM68.1011 103.339C67.8064 102.996 67.168 103.208 66.9716 102.603C67.1025 102.341 67.2826 102.046 67.4136 101.752C67.6755 101.146 67.5609 100.409 67.0371 100.066C66.3659 99.6236 65.613 99.3453 64.8109 99.3453C64.729 99.3453 64.5817 99.5909 64.5981 99.7054C64.6144 99.8528 64.7454 100 64.86 100.115C65.1874 100.426 65.613 100.671 65.8258 101.031C66.1204 101.572 65.5966 101.964 65.4001 102.423C65.1382 102.996 65.2856 103.585 65.8094 103.912C66.1368 104.109 66.5296 104.256 66.9061 104.289C67.3317 104.338 67.79 104.256 68.1993 104.24C68.543 103.847 68.3302 103.585 68.1011 103.323V103.339ZM61.668 98.0358C61.5861 97.4792 60.8004 97.0864 60.3421 97.3974C59.3599 98.0849 58.7706 99.0343 58.7052 100.229C58.7052 100.458 58.9016 100.802 59.1144 100.917C59.6546 101.211 60.2439 101.408 60.8332 101.621C61.0623 101.702 61.4879 101.473 61.5043 101.228C61.5698 100.327 61.6189 99.4272 61.7007 98.3304C61.7007 98.3632 61.7007 98.1831 61.6844 98.0194L61.668 98.0358ZM74.1085 100.982C74.1413 100.72 73.7648 100.54 73.4701 100.589C73.0118 100.671 72.7172 100.966 72.5862 101.326C72.3734 101.964 72.2097 102.636 72.1115 103.323C72.046 103.847 72.3734 104.174 72.9627 104.272C73.7975 103.356 73.9776 102.177 74.0922 100.982H74.1085ZM15.9326 91.4063C16.571 91.6682 16.9966 91.8483 17.4386 92.012C17.6023 91.9465 17.7823 91.9137 17.8969 91.7992C19.2228 90.5224 20.7452 89.5075 22.3984 88.6727C23.2169 88.2634 24.0026 87.7887 24.8047 87.3467C25.5249 86.9539 26.2943 86.7902 27.1127 86.7902C28.013 86.7902 28.8151 87.0357 29.4863 87.625C30.1738 88.2307 30.8285 88.8691 31.4833 89.5075C31.9253 89.9494 32.2854 90.4733 32.9074 90.8334C33.1857 90.506 33.4312 90.1459 33.7259 89.8676C33.9878 89.6057 34.4461 89.7039 34.6098 90.0313C34.7244 90.2768 34.8553 90.5551 34.8553 90.8334C34.9045 92.503 34.9208 94.1563 34.9372 95.826C34.9372 96.3334 34.6425 96.6444 34.2497 96.9227C33.0547 97.7575 31.7452 98.2977 30.3866 98.756C29.5681 99.0343 28.7333 99.2471 27.9476 99.5581C26.0324 100.311 24.0517 100.393 22.0547 100.246C20.696 100.131 19.3538 99.8364 17.9951 99.6563C17.4713 99.5909 16.9802 99.4272 16.571 99.1162C15.4907 98.2977 14.263 97.6757 13.3136 96.6444C12.757 96.0388 12.8061 95.4167 12.9862 94.7456C13.0353 94.5819 13.1335 94.4346 13.2317 94.3036C14.0011 93.2233 15.0651 92.4376 15.9817 91.4227L15.9326 91.4063ZM33.4149 92.6176C32.3018 92.7813 32.2854 92.7813 31.4997 92.3066C30.6485 91.7992 29.9282 91.1608 29.3389 90.375C28.8151 89.6712 28.1276 89.1965 27.4238 88.689C26.8508 88.2634 26.2779 88.2307 25.6559 88.4762C25.4431 88.5581 25.2139 88.6235 25.0175 88.7381C22.955 89.9494 20.7615 90.9643 18.9937 92.6504C18.5844 93.0432 18.1752 93.4688 17.5368 93.6161C17.0457 93.4852 16.5055 93.3379 15.9817 93.1905C15.4579 93.6652 14.9832 94.0745 14.5249 94.5164C14.3284 94.7129 14.1484 94.9257 14.0011 95.1057C14.0502 95.2858 14.0502 95.4167 14.0993 95.4986C14.2302 95.6786 14.3612 95.8914 14.5412 96.0224C16.3255 97.2992 18.1916 98.3468 20.4505 98.4941C21.6455 98.576 22.8404 98.6578 24.0353 98.6742C24.772 98.6742 25.5413 98.6251 26.2288 98.4287C27.7675 98.0031 29.2735 97.4629 30.7958 96.9554C31.7288 96.6444 32.58 96.2025 33.3494 95.4986C33.5294 94.5492 33.3985 93.5834 33.4312 92.6176H33.4149ZM15.4579 82.8452C15.5725 82.878 15.6707 82.9598 15.7689 82.9762C16.2927 83.0253 16.8657 82.7143 17.013 82.2887C17.3895 81.2574 16.8493 79.7187 15.8999 79.1458C15.4579 78.8839 14.7377 79.064 14.5904 79.5387C14.2793 80.5699 14.0174 81.6176 13.7555 82.6815C13.7064 82.878 13.7883 83.1235 13.8374 83.3363C13.9356 83.6964 14.3939 83.7946 14.6558 83.5164C14.8359 83.3036 14.9668 83.058 15.1305 82.8125C15.2451 82.8125 15.3597 82.8125 15.4579 82.8452ZM18.7317 82.567C18.699 82.7961 18.6826 83.0089 18.6826 83.2381C18.699 84.0402 19.2065 84.5967 20.0249 84.7113C20.5487 84.7932 21.0562 84.4658 21.1544 83.942C21.2362 83.5 21.3017 83.0417 21.3017 82.5997C21.3017 82.1414 21.1216 81.7158 20.6142 81.5357C20.4996 81.5357 20.385 81.5357 20.2868 81.5521C19.8612 81.683 19.4356 81.814 18.9118 81.9777C18.83 82.2396 18.7481 82.4033 18.7317 82.567ZM25.836 83.8765C26.3107 84.2202 26.769 84.0893 26.8508 83.5491C26.9163 83.1562 26.9491 82.747 26.8999 82.3705C26.7854 81.503 25.7868 81.1101 25.083 81.6503C24.8047 81.8467 24.5919 82.1414 24.33 82.3542C23.8225 82.7634 23.7243 83.3036 23.8389 83.8929C23.8717 84.0893 24.0517 84.3348 24.2318 84.3839C24.3955 84.433 24.6737 84.3185 24.8047 84.1875C25.0011 84.0074 25.1157 83.7292 25.3612 83.3363C25.6068 83.631 25.705 83.7946 25.836 83.8929V83.8765ZM29.6009 84.4003C30.0265 84.6458 30.3538 84.3348 30.6648 84.0893C30.7958 83.9911 30.9431 83.8929 31.0577 83.7783C31.5324 83.2545 31.3687 82.1905 30.7467 81.814C30.5175 81.6667 30.0101 81.6994 29.7809 81.8795C29.3062 82.2723 29.077 82.7634 29.1098 83.2545C29.0934 83.7946 29.2244 84.1875 29.6009 84.4003ZM26.3598 76.2485C26.4907 76.5595 26.7363 76.8214 27.1455 76.6413C27.3583 76.0029 27.5875 75.3645 27.7839 74.7098C27.8002 74.6279 27.7184 74.5134 27.6202 74.3169C27.2273 74.3824 26.8017 74.4642 26.4252 74.5297C26.0488 75.1517 26.1306 75.7247 26.3434 76.2648L26.3598 76.2485ZM34.1515 83.2708C34.6425 83.2545 34.8553 82.9271 34.9045 82.5015C34.9536 81.994 35.0027 81.4702 34.528 81.1101C34.3643 80.9792 33.9878 81.0774 33.9387 81.2574C33.7422 81.9286 33.6931 82.5833 33.9387 83.2217C34.0369 83.2545 34.1024 83.2872 34.1515 83.2708ZM21.2853 75.4955C21.3672 75.2991 21.3672 75.0535 21.3508 74.8407C21.3181 74.5952 20.9088 74.3497 20.6797 74.4806C20.4996 74.5788 20.2704 74.7916 20.2704 74.9553C20.2704 75.3318 20.385 75.7083 20.4505 76.052C21.0234 76.1503 21.1544 75.7901 21.2853 75.4955ZM23.6097 75.2991C23.4133 75.5446 23.4133 75.8556 23.6097 76.052C23.7734 76.2321 24.0681 76.2812 24.3136 76.3794C24.3464 76.3794 24.4937 76.183 24.4773 76.1339C24.3627 75.8392 24.2154 75.561 24.0517 75.2827C24.019 75.2172 23.8553 75.2336 23.7407 75.2172C23.6916 75.25 23.6425 75.2663 23.6097 75.2991Z" fill="#2b2b2b"/>
</svg>
