<svg width="15" height="12" viewBox="0 0 15 12" fill="none" xmlns="http://www.w3.org/2000/svg">
<path d="M14.7621 0.903413C14.515 0.530792 14.1165 0.30835 13.6961 0.30835C13.3777 0.30835 13.0703 0.434372 12.831 0.663365L5.03785 8.11439L2.31541 4.80371C2.05413 4.48612 1.68192 4.30396 1.29441 4.30396C1.01741 4.30396 0.754999 4.39723 0.535392 4.57361C0.237061 4.81349 0.0443548 5.18022 0.00686176 5.5799C-0.0309244 5.97971 0.0885913 6.38083 0.334696 6.68004L4.02587 11.1681C4.25262 11.444 4.57775 11.6022 4.91804 11.6022C5.20868 11.6022 5.48912 11.4871 5.7077 11.2782L14.5329 2.8403C15.0523 2.34358 15.153 1.49291 14.7621 0.903413Z" fill="#8C3C3C"/>
</svg>
