<svg width="24" height="24" viewBox="0 0 24 24" fill="none" xmlns="http://www.w3.org/2000/svg">
<path d="M23.0022 5.95959C23.1439 5.80406 23.1809 5.5785 23.0956 5.38603C23.0106 5.19356 22.8189 5.06897 22.6089 5.06897H16.3221L16.776 4.06252C17.0713 3.40777 17.6295 2.9078 18.3131 2.68556L22.5795 1.30219L22.1573 0L17.8909 1.38375C16.84 1.72444 15.9822 2.49272 15.528 3.50002L14.8204 5.06897H1.39074C1.18018 5.06897 0.988696 5.19356 0.903711 5.38603C0.81854 5.57845 0.855524 5.80406 0.997086 5.95959L10.2128 16.0743V20.3094L6.53026 23.04C6.34538 23.1768 6.2694 23.4165 6.34163 23.6346C6.41401 23.8529 6.61735 24 6.84718 24H17.1522C17.3821 24 17.5854 23.8529 17.6578 23.6346C17.7298 23.4165 17.654 23.1768 17.4695 23.04L13.7872 20.3094V16.0743L23.0022 5.95959ZM12.9376 21.005L15.5405 22.9352H8.45931L11.0619 21.005C11.1981 20.9047 11.2773 20.7466 11.2773 20.5778V15.8681C11.2773 15.7363 11.2274 15.6071 11.1384 15.5095L2.59576 6.13378H14.3401L13.0056 9.093H6.4172L11.9997 15.2428L17.5819 9.093H14.5074L15.8422 6.13378H21.4035L12.861 15.5095C12.7724 15.6071 12.7224 15.7363 12.7224 15.8681V20.5778C12.7224 20.7466 12.8018 20.9047 12.9376 21.005Z" fill="#CC2200"/>
</svg>
