<svg width="28" height="28" viewBox="0 0 28 28" fill="none" xmlns="http://www.w3.org/2000/svg">
<mask id="mask0_2009_8448" style="mask-type:alpha" maskUnits="userSpaceOnUse" x="0" y="0" width="28" height="28">
<rect width="28" height="28" fill="#D9D9D9"/>
</mask>
<g mask="url(#mask0_2009_8448)">
<path d="M14.0847 16.8068H14.1451C15.4401 16.8413 16.476 17.8945 16.476 19.1895C16.476 20.2945 15.7249 21.2182 14.7063 21.4945V22.4614C14.7063 22.8067 14.43 23.0829 14.0847 23.0829C13.7394 23.0829 13.4631 22.8067 13.4631 22.4614V21.4945C12.9559 21.358 12.5078 21.0582 12.1879 20.6416C11.8681 20.225 11.6943 19.7147 11.6934 19.1895C11.6934 18.8442 11.9696 18.5679 12.3149 18.5679C12.6603 18.5679 12.9365 18.8442 12.9365 19.1895C12.9365 19.8283 13.4458 20.3377 14.0761 20.3377C14.7063 20.3377 15.2242 19.8197 15.2242 19.1895C15.2242 18.5593 14.7063 18.0413 14.0761 18.0413H14.0156C13.3946 18.0244 12.8046 17.7661 12.371 17.3212C11.9373 16.8763 11.6943 16.2799 11.6934 15.6586C11.6934 14.5536 12.4444 13.6299 13.4631 13.3536V12.3867C13.4631 12.0414 13.7394 11.7651 14.0847 11.7651C14.43 11.7651 14.7063 12.0414 14.7063 12.3867V13.3536C15.7249 13.6299 16.476 14.5536 16.476 15.6586C16.476 16.0039 16.1998 16.2802 15.8544 16.2802C15.5091 16.2802 15.2329 16.0039 15.2329 15.6586C15.2329 15.0284 14.7149 14.5104 14.0847 14.5104C13.4545 14.5104 12.9365 15.0284 12.9365 15.6586C12.9365 16.2888 13.4545 16.8068 14.0847 16.8068Z" fill="white"/>
<path d="M9.50234 4.50932L11.9075 7.32366L11.6476 7.61373C6.69749 8.72393 3 13.1449 3 18.43C3 23.0762 6.77087 26.8471 11.4171 26.8471H16.7437C21.3899 26.8471 25.1608 23.0771 25.1608 18.4308C25.1694 13.1449 21.4719 8.72393 16.5218 7.61373C16.5421 7.4313 16.5091 7.24688 16.4268 7.0828L18.4728 4.74068L18.6049 4.53695C18.7592 4.20054 18.7986 3.82279 18.7172 3.46178C18.6358 3.10077 18.4381 2.77649 18.1544 2.53882C17.8707 2.30116 17.5169 2.16326 17.1472 2.14634C16.7775 2.12942 16.4125 2.23442 16.1083 2.44518L15.3805 1.58189C15.2173 1.3992 15.0174 1.25296 14.7938 1.1527C14.5703 1.05244 14.3281 1.00041 14.0831 1C13.8381 0.999595 13.5957 1.05082 13.3719 1.15033C13.148 1.24985 12.9476 1.39542 12.7837 1.57757L12.0214 2.42878C11.718 2.21363 11.3522 2.10445 10.9805 2.11812C10.6088 2.13179 10.252 2.26755 9.96518 2.50441C9.6784 2.74126 9.47765 3.06601 9.39399 3.42843C9.31032 3.79084 9.3484 4.17072 9.50234 4.50932ZM12.782 5.70498L11.3178 4.01293C11.6581 4.17653 12.0429 4.22291 12.4122 4.14483C12.7816 4.06674 13.1147 3.86858 13.3595 3.58128L14.0502 2.68518L14.8168 3.59336C15.0558 3.87133 15.3782 4.06462 15.7361 4.14442C16.0939 4.22423 16.4679 4.18628 16.8024 4.03623L15.3451 5.70498H12.782ZM4.72659 18.43C4.72659 13.2605 8.9153 9.07184 14.0847 9.07184C19.2541 9.07184 23.4428 13.2605 23.4342 18.4282V18.43C23.4335 20.2042 22.7284 21.9056 21.4738 23.1601C20.2193 24.4147 18.5179 25.1198 16.7437 25.1205H11.4171C9.6429 25.1198 7.94153 24.4147 6.68696 23.1601C5.43239 21.9056 4.72728 20.2042 4.72659 18.43Z" fill="white"/>
</g>
</svg>
