<svg width="36" height="28" viewBox="0 0 36 28" fill="none" xmlns="http://www.w3.org/2000/svg">
<path d="M35.8483 3.79567C35.6992 3.04218 35.363 2.33003 34.8725 1.73132C34.7729 1.60563 34.6687 1.4938 34.5548 1.38036C33.6822 0.503142 32.4684 0 31.2245 0H4.774C3.51625 0 2.33333 0.49046 1.44314 1.38085C1.33048 1.49324 1.22601 1.60619 1.12259 1.73588C0.634236 2.33207 0.299532 3.04323 0.154006 3.79777C0.0931888 4.09408 0.0625 4.40111 0.0625 4.71171V23.2887C0.0625 23.935 0.193803 24.5643 0.454097 25.1626C0.679358 25.6939 1.02114 26.1976 1.44286 26.6191C1.54908 26.7249 1.6546 26.8224 1.76727 26.9175C2.61044 27.6158 3.6781 28 4.774 28H31.2245C32.3275 28 33.3941 27.6143 34.235 26.9098C34.3474 26.8188 34.4516 26.7233 34.5558 26.6191C34.9634 26.2119 35.2874 25.744 35.5203 25.2281L35.551 25.1545C35.8064 24.5676 35.9361 23.9403 35.9361 23.2888V4.71171C35.9361 4.40517 35.9066 4.09611 35.8483 3.79567ZM2.5024 3.00694C2.56903 2.90941 2.65409 2.80928 2.76262 2.69991C3.30136 2.16146 4.01582 1.86515 4.77393 1.86515H31.2244C31.9892 1.86515 32.7039 2.16195 33.2366 2.70096C33.3286 2.79394 33.4165 2.89715 33.4931 3.00028L33.6954 3.27214L19.5772 15.5768C19.1419 15.9584 18.5816 16.1684 17.9991 16.1684C17.4224 16.1684 16.8625 15.9589 16.4221 15.5773L2.31791 3.27564L2.5024 3.00694ZM1.93711 23.4527C1.92947 23.4021 1.92772 23.346 1.92772 23.2887V5.09637L12.8839 14.6541L2.03828 24.1102L1.93711 23.4527ZM32.636 25.7598C32.2119 26.0045 31.7236 26.1342 31.2245 26.1342H4.774C4.27464 26.1342 3.78649 26.0045 3.36273 25.7598L2.91936 25.5028L14.1254 15.7371L15.3535 16.8053C16.0902 17.4449 17.0296 17.7975 17.9992 17.7975C18.9725 17.7975 19.9134 17.4449 20.6496 16.8053L21.8772 15.7366L33.0794 25.5033L32.636 25.7598ZM34.0704 23.2887C34.0704 23.345 34.0694 23.4006 34.0623 23.4501L33.9652 24.1138L23.115 14.6592L34.0704 5.10099V23.2887Z" fill="#5F4E3E"/>
</svg>
