<svg width="34" height="33" viewBox="0 0 34 33" fill="none" xmlns="http://www.w3.org/2000/svg">
<path fill-rule="evenodd" clip-rule="evenodd" d="M4.32901 1.87216C6.45077 -0.220771 9.94462 0.151114 11.7212 2.50696L13.9214 5.41977C15.3685 7.33628 15.2394 10.0139 13.5222 11.7072L13.1072 12.1189C13.0602 12.2917 13.0554 12.4732 13.0933 12.6482C13.2031 13.3539 13.7976 14.8484 16.2873 17.3045C18.7769 19.7607 20.2937 20.3488 21.0155 20.4595C21.1973 20.4958 21.3852 20.4905 21.5646 20.4439L22.276 19.7417C23.8032 18.2368 26.1464 17.9549 28.0363 18.9737L31.3663 20.7726C34.2203 22.3085 34.9403 26.1554 32.6041 28.4611L30.1267 30.9034C29.3456 31.6731 28.2961 32.3148 27.0164 32.4342C23.8608 32.7265 16.5087 32.3529 8.78001 24.7301C1.5674 17.6141 0.183108 11.408 0.00702084 8.34988C-0.0801511 6.80353 0.65558 5.49588 1.59355 4.57222L4.32901 1.87216ZM9.62906 4.06196C8.74514 2.89096 7.09933 2.79755 6.17182 3.71256L3.43462 6.41089C2.85929 6.97823 2.58382 7.60438 2.61869 8.20286C2.75817 10.6331 3.87397 16.2321 10.6246 22.8914C17.7064 29.876 24.2461 30.0853 26.774 29.85C27.2901 29.8033 27.8027 29.5369 28.2821 29.0647L30.7578 26.6207C31.7655 25.6278 31.5441 23.8186 30.118 23.0506L26.788 21.2534C25.8675 20.7587 24.79 20.9213 24.1205 21.5821L23.3273 22.3656L22.4032 21.4454C23.3273 22.3656 23.3255 22.3673 23.3238 22.3673L23.322 22.3708L23.3168 22.376L23.3046 22.3864L23.2784 22.4106C23.2049 22.4784 23.1255 22.5397 23.0413 22.5939C22.9019 22.6856 22.7171 22.7877 22.4852 22.8724C22.0145 23.0471 21.3903 23.1405 20.6197 23.0229C19.1081 22.7929 17.1049 21.7706 14.4427 19.1449C11.7822 16.5192 10.7431 14.5439 10.5095 13.046C10.3892 12.2815 10.4851 11.6623 10.6629 11.1952C10.7608 10.9324 10.9009 10.6871 11.0779 10.4688L11.1336 10.4082L11.1581 10.3823L11.1685 10.3719L11.1737 10.3667L11.1772 10.3632L11.6793 9.86856C12.4255 9.12997 12.5301 7.90708 11.8275 6.97477L9.62906 4.06196Z" fill="#CC2200"/>
</svg>
