<svg width="22" height="22" viewBox="0 0 22 22" fill="none" xmlns="http://www.w3.org/2000/svg">
<path d="M11.0002 0C8.08278 0 5.28483 1.15893 3.22189 3.22183C1.15895 5.28473 0 8.08262 0 11C0 13.9174 1.15895 16.7153 3.22189 18.7782C5.28483 20.8411 8.08278 22 11.0002 22H11.0277C12.1931 22 13.1556 21.6339 13.819 21.0289C14.2923 20.6118 14.6225 20.0565 14.7628 19.4415C14.9032 18.8264 14.8466 18.1828 14.6011 17.6017C14.7691 17.5053 14.931 17.3985 15.0858 17.282C15.2577 17.1548 15.7733 16.4759 15.4158 15.9156C15.0583 15.3553 13.7812 14.0817 13.434 13.8652C13.0868 13.6486 12.5059 13.8652 12.2309 14.2708C11.9559 14.6764 11.729 14.5578 11.729 14.5578C11.729 14.5578 10.9332 13.915 9.83833 11.6961C8.74346 9.47719 8.7108 8.45281 8.7108 8.45281C8.7108 8.45281 8.74518 8.20187 9.24191 8.22766C9.73864 8.25344 10.256 7.92 10.2955 7.51094C10.3351 7.10188 10.0944 5.31609 9.86583 4.69219C9.63723 4.06828 8.78987 4.06312 8.58018 4.12844C8.37048 4.19375 6.21513 4.71797 6.04497 6.97297C5.94009 9.04181 6.36797 11.1029 7.28765 12.9591C8.20732 14.8153 9.58801 16.4043 11.2976 17.5742C11.9155 17.9924 12.6707 18.1567 13.4065 18.0331C13.5662 18.3785 13.6093 18.7664 13.5293 19.1385C13.4494 19.5105 13.2506 19.8464 12.9631 20.0956C12.5557 20.4634 11.9318 20.7367 11.0209 20.7384H11.0002C8.75384 20.741 6.57538 19.9684 4.83259 18.551C3.08981 17.1337 1.88944 15.1585 1.43414 12.9587C0.978835 10.759 1.29648 8.46959 2.33346 6.47691C3.37043 4.48424 5.06321 2.91038 7.12604 2.02104C9.18887 1.13169 11.4954 0.981324 13.6562 1.59532C15.8171 2.20933 17.6999 3.55008 18.9868 5.39126C20.2737 7.23244 20.8859 9.46126 20.7201 11.7015C20.5542 13.9417 19.6205 16.056 18.0765 17.6877C17.967 17.8106 17.9097 17.9713 17.9168 18.1357C17.9239 18.3002 17.9948 18.4554 18.1145 18.5684C18.2342 18.6814 18.3933 18.7433 18.5579 18.7409C18.7225 18.7385 18.8796 18.672 18.996 18.5556C19.6667 17.8445 20.2401 17.0475 20.7011 16.1855C21.5969 14.5095 22.0433 12.63 21.9967 10.7302C21.9501 8.83046 21.4121 6.97514 20.4351 5.34511C19.4582 3.71509 18.0756 2.36597 16.4221 1.42922C14.7686 0.492483 12.9006 7.8255e-05 11.0002 0Z" fill="#fff"/>
</svg>
