<svg width="28" height="28" viewBox="0 0 28 28" fill="none" xmlns="http://www.w3.org/2000/svg">
<mask id="mask0_2009_8470" style="mask-type:alpha" maskUnits="userSpaceOnUse" x="0" y="0" width="28" height="28">
<rect width="28" height="28" fill="#fff"/>
</mask>
<g mask="url(#mask0_2009_8470)">
<path d="M8.6709 4.80518H20.6671V5.83819H8.6709V4.80518Z" fill="#CC2200"/>
<path d="M21.3335 6.67111H8.57753C8.40745 6.6687 8.23963 6.63187 8.08417 6.56283C7.92871 6.4938 7.78885 6.394 7.67301 6.26944C7.55717 6.14488 7.46776 5.99816 7.41017 5.83811C7.35258 5.67806 7.328 5.508 7.33792 5.3382C7.33709 5.00027 7.46465 4.67465 7.69478 4.42719C7.92491 4.17974 8.24044 4.02893 8.57753 4.00528H21.3335C21.5103 4.00528 21.6798 3.93506 21.8048 3.81008C21.9298 3.68509 22 3.51558 22 3.33882C22 3.16207 21.9298 2.99255 21.8048 2.86756C21.6798 2.74258 21.5103 2.67236 21.3335 2.67236H8.57753C7.88681 2.69655 7.23247 2.98806 6.75254 3.4854C6.2726 3.98275 6.00458 4.64705 6.00501 5.3382C5.99833 5.44695 5.99833 5.55601 6.00501 5.66476C5.99858 5.71788 5.99858 5.77159 6.00501 5.82471V21.3332C6.00458 22.0243 6.2726 22.6886 6.75254 23.186C7.23247 23.6833 7.88681 23.9748 8.57753 23.999H21.3335C21.5103 23.999 21.6798 23.9288 21.8048 23.8038C21.9298 23.6788 22 23.5093 22 23.3326V7.38422C22.0004 7.2029 21.9317 7.02825 21.8079 6.89578C21.6841 6.76331 21.5145 6.68297 21.3335 6.67111ZM20.6671 22.6661H8.57753C8.24044 22.6425 7.92491 22.4916 7.69478 22.2442C7.46465 21.9967 7.33709 21.6711 7.33792 21.3332V7.70412C7.71686 7.91317 8.14494 8.01674 8.57753 8.00403H20.6671V22.6661Z" fill="#CC2200"/>
</g>
</svg>
