<svg width="28" height="28" viewBox="0 0 28 28" fill="none" xmlns="http://www.w3.org/2000/svg">
<mask id="mask0_2009_8439" style="mask-type:alpha" maskUnits="userSpaceOnUse" x="0" y="0" width="28" height="28">
<rect width="28" height="28" fill="#D9D9D9"/>
</mask>
<g mask="url(#mask0_2009_8439)">
<path d="M14 11.5556C14.5618 11.5556 15.118 11.4449 15.637 11.2299C16.156 11.015 16.6276 10.6999 17.0248 10.3026C17.4221 9.90539 17.7372 9.43382 17.9522 8.91481C18.1671 8.39581 18.2778 7.83954 18.2778 7.27778C18.2778 6.71601 18.1671 6.15975 17.9522 5.64074C17.7372 5.12174 17.4221 4.65016 17.0248 4.25293C16.6276 3.8557 16.156 3.5406 15.637 3.32563C15.118 3.11065 14.5618 3 14 3C12.8655 3 11.7774 3.45069 10.9752 4.25293C10.1729 5.05517 9.72222 6.14324 9.72222 7.27778C9.72222 8.41231 10.1729 9.50038 10.9752 10.3026C11.7774 11.1049 12.8655 11.5556 14 11.5556ZM3 24.2667V25H25V24.2667C25 21.5289 25 20.16 24.4671 19.1138C23.9984 18.1939 23.2505 17.446 22.3307 16.9773C21.2844 16.4444 19.9156 16.4444 17.1778 16.4444H10.8222C8.08444 16.4444 6.71556 16.4444 5.66933 16.9773C4.74947 17.446 4.0016 18.1939 3.53289 19.1138C3 20.16 3 21.5289 3 24.2667Z" fill="#6D7455" stroke="white" stroke-width="1.7" stroke-linecap="round" stroke-linejoin="round"/>
</g>
</svg>
