<svg width="28" height="28" viewBox="0 0 28 28" fill="none" xmlns="http://www.w3.org/2000/svg">
<mask id="mask0_2009_8459" style="mask-type:alpha" maskUnits="userSpaceOnUse" x="0" y="0" width="28" height="28">
<rect width="28" height="28" fill="#fff"/>
</mask>
<g mask="url(#mask0_2009_8459)">
<path d="M4 14H24M22 14V22C22 22.5305 21.7893 23.0392 21.4142 23.4143C21.0391 23.7893 20.5304 24 20 24H8C7.46957 24 6.96086 23.7893 6.58579 23.4143C6.21071 23.0392 6 22.5305 6 22V14M6 10L22 6.00004M10.86 8.78004L10.41 6.97004C10.3455 6.71527 10.3319 6.4503 10.3699 6.19026C10.4079 5.93022 10.4967 5.68022 10.6314 5.45454C10.7661 5.22887 10.9439 5.03194 11.1547 4.87503C11.3655 4.71811 11.6052 4.60428 11.86 4.54004L13.8 4.06004C14.0554 3.99573 14.3211 3.98251 14.5816 4.02114C14.8422 4.05977 15.0926 4.14949 15.3184 4.28515C15.5441 4.42081 15.7409 4.59974 15.8974 4.81166C16.0538 5.02358 16.1669 5.26431 16.23 5.52004L16.68 7.32004" stroke="#CC2200" stroke-width="1.7" stroke-linecap="round" stroke-linejoin="round"/>
</g>
</svg>
