<svg width="408" height="104" viewBox="0 0 408 104" fill="none" xmlns="http://www.w3.org/2000/svg">
<path d="M47.6589 50.7382C49.9052 51.9169 51.0839 53.7334 51.4999 55.4389C51.8188 56.8256 51.07 57.6853 49.0455 57.3664C47.437 57.1584 45.9533 57.0474 44.1368 57.0474C40.7118 63.7726 37.1897 71.0386 33.6677 78.8454C32.9189 80.551 31.1024 81.0918 29.9237 79.1644C28.9669 77.6668 28.1072 76.0722 28.1072 73.7149C28.1072 72.1064 28.5371 69.9709 29.4939 67.0867C30.2427 65.0622 31.6293 61.5263 33.3349 58.0042C26.7067 58.8639 19.8706 60.1396 15.0589 60.1396C11.9667 66.5459 8.86064 73.3821 5.76843 80.2321C5.01964 82.0486 3.09221 82.5894 1.8165 80.7729C0.859718 79.4972 0 77.6807 0 75.2124C0 72.1064 1.06771 68.9032 5.56043 58.337C3.42501 57.1584 2.56529 55.8827 2.13543 55.1339C1.06771 53.1094 1.70557 52.3606 4.58978 52.5686C6.19829 52.6795 6.83614 52.8875 8.01479 52.8875C14.6429 39.1043 24.3633 21.3691 28.856 14.9629C30.5616 12.7165 32.1701 13.0354 33.3487 15.0738C33.9866 16.2524 34.3055 17.6391 34.3055 19.4556C34.3055 22.4507 33.3487 26.6107 30.7834 31.3114L19.3575 52.1526C26.0827 51.1958 31.5322 49.7953 37.4116 49.2684C44.2477 35.6932 53.4412 19.3446 57.712 13.6872C59.6395 11.2328 61.2341 11.5517 62.3018 13.8951C62.8426 15.0738 63.2586 16.3495 63.2586 17.958C63.2586 20.9532 62.1909 25.016 59.0848 30.3546C52.3596 42.3213 50.0023 46.4951 47.645 50.7659L47.6589 50.7382Z" fill="#53573E"/>
<path d="M118.281 70.1781C115.397 76.6953 107.493 81.396 101.295 81.396C94.4587 81.396 90.7147 76.5843 90.7147 70.289C90.7147 64.8395 96.2752 55.0082 102.363 47.6313C99.1594 49.0179 96.3861 49.5587 93.9179 49.6558C91.0337 54.1485 86.8599 57.3516 81.2024 57.9895C78.748 68.2506 68.6949 80.8552 60.0422 80.8552C56.5202 80.8552 52.6653 79.4686 49.684 75.5166C47.7566 72.7433 46.7998 69.6373 46.7998 66.2261C46.7998 61.5254 48.5054 56.1868 51.1816 51.2643C55.2445 43.8873 62.2886 37.9109 68.9167 37.3701C72.6607 37.1621 74.5742 38.2298 76.9315 41.322C77.4723 41.9599 77.9992 42.3898 78.6371 43.0276C80.7725 45.274 82.0621 48.0473 82.0621 53.7186C83.9895 52.9698 85.806 51.3613 87.6225 48.4771C85.6951 47.4094 84.9463 45.9118 84.9463 43.9844C84.9463 38.3269 92.1014 30.5201 95.6373 30.4092C97.9946 30.4092 98.8405 31.9068 98.8405 34.1531C98.8405 36.3995 97.9807 39.9215 96.816 43.1247C99.7002 42.3759 102.792 40.6703 106.009 38.5349C107.826 37.2592 109.213 36.9264 110.71 38.424C112.527 40.4485 113.705 42.9167 113.705 45.69C113.705 46.9657 113.164 48.5742 111.889 49.9608C107.396 55.2023 102.265 62.3574 100.352 67.9178C99.8111 69.5263 99.4922 71.121 99.4922 72.7295C99.4922 75.4057 100.352 77.1113 101.947 77.1113C105.69 77.1113 111.778 70.4831 114.981 63.2171C115.938 61.0817 117.435 60.8598 118.614 63.0091C119.155 63.9659 119.252 64.7147 119.252 66.1152C119.252 67.3909 118.933 68.8885 118.295 70.1781H118.281ZM57.061 75.4196C59.6262 75.4196 64.7568 71.0378 68.7087 64.3126C70.2063 61.7473 71.482 58.8631 72.1337 56.1868C68.5007 54.0514 66.5733 50.9453 65.8245 47.8531C63.6891 49.9886 61.5537 52.7618 59.6262 55.9788C56.95 60.9985 55.1335 67.0858 55.1335 70.9407C55.1335 73.6169 55.7714 75.4334 57.061 75.4334V75.4196ZM75.434 46.2446C75.434 44.6361 74.5742 43.9983 73.8255 43.9983C73.1876 43.9983 72.2169 44.858 72.2169 46.5636C72.2169 48.491 72.7577 51.2643 73.9225 52.6509C74.9902 50.1966 75.4201 47.6313 75.4201 46.2446H75.434Z" fill="#53573E"/>
<path d="M111.666 57.5738C113.801 55.7573 115.41 56.2981 115.729 58.8495C119.251 53.8299 122.995 48.2695 125.768 43.6797C126.198 39.8387 127.474 37.3705 129.942 35.346C131.648 33.8484 133.575 33.0996 135.183 33.0996C138.068 33.0996 138.706 35.4569 135.391 40.8925C135.281 42.1682 135.183 43.9847 135.183 45.3853C135.183 52.9702 136.57 59.9173 136.362 65.6857C136.251 68.3619 135.724 71.3432 134.546 73.7005C138.927 70.7053 141.923 67.1833 143.836 61.9418C144.793 59.4874 146.401 60.2362 147.15 61.9418C147.691 63.0095 148.01 66.0046 146.082 69.3187C142.02 76.7927 134.546 80.8555 126.531 81.1745C120.125 81.3825 113.704 79.6769 110.071 72.9517C108.893 70.9272 108.255 68.3619 108.255 65.8937C108.255 62.6905 109.323 59.5845 111.68 57.56L111.666 57.5738ZM126.087 63.8831C126.087 60.458 125.976 57.0469 125.768 54.1627C123.203 58.2256 120.208 62.8153 117.005 67.419C118.28 72.4386 120.527 76.1826 122.884 76.1826C125.241 76.1826 126.087 70.844 126.087 63.8969V63.8831Z" fill="#53573E"/>
<path d="M178.723 67.9329C177.448 70.7062 176.796 73.0635 176.796 74.7691C176.796 76.3776 177.226 77.1264 178.183 77.1264C181.927 77.1264 187.154 70.0684 190.787 63.0242C191.855 60.9997 193.242 61.0968 194.212 63.0242C194.753 63.981 195.169 66.9761 193.782 69.9713C190.898 75.7397 184.27 81.3001 178.072 81.3001C172.83 81.3001 169.308 79.4837 168.448 74.7829C165.134 78.2079 160.974 80.9812 156.274 80.9812C150.075 80.9812 146.65 76.3914 146.65 70.0822C146.65 65.5895 148.578 59.724 152.308 54.2745C160.642 42.1969 169.516 37.1772 175.063 37.1772C178.696 37.1772 181.053 38.6748 181.899 41.4481C187.237 31.4088 194.184 19.3311 197.707 14.3115C199.634 11.6353 201.132 11.8571 202.199 14.4224C202.74 15.6981 203.156 17.0986 203.156 18.5823C203.156 21.4666 201.769 25.6404 198.982 30.66C192.784 42.4187 183.701 57.3667 178.682 67.9468L178.723 67.9329ZM176.796 43.6806C173.801 43.5696 166.757 50.0868 161.085 59.0723C157.882 64.0919 156.177 69.4305 156.177 72.9664C156.177 74.8939 156.606 76.2805 157.785 76.2805C161.21 76.2805 166.327 70.2902 171.138 60.9997C176.907 49.9898 178.834 43.7915 176.796 43.6944V43.6806Z" fill="#53573E"/>
<path d="M208.317 33.4194C207.041 35.125 205.543 35.3469 204.365 35.125C202.978 34.917 202.548 33.9463 202.978 32.5597C204.906 26.9993 211.104 15.7813 214.626 11.6214C216.65 9.05613 218.37 9.91585 219.216 11.8294C220.172 14.0758 219.216 16.6411 217.94 18.7765C216.761 21.4527 211.104 29.8835 208.317 33.4194Z" fill="#53573E"/>
<path d="M242.828 58.3227C240.582 67.1972 233.745 77.6663 225.62 80.4396C224.663 80.7585 223.373 81.0774 221.779 81.0774C218.257 81.0774 214.305 79.5799 211.31 75.6279C209.285 72.9517 208.314 69.7486 208.314 66.3375C208.314 61.6367 210.02 56.3952 212.807 51.3756C217.619 42.82 224.344 37.4814 231.402 37.4814C234.494 37.4814 236.422 38.6601 238.46 41.4334C241.455 44.9554 244.436 45.7042 243.48 54.7867C246.253 54.7867 246.475 55.7435 245.615 56.8112C244.866 57.6709 244.007 58.0869 242.842 58.3088L242.828 58.3227ZM219.213 75.6279C221.987 75.6279 226.271 71.676 230.223 64.41C231.832 61.6367 233.108 58.9605 233.745 56.7142C230.32 54.5787 228.088 51.8054 227.228 48.0615C224.982 50.1969 222.957 52.8732 221.141 56.0763C218.368 61.2069 216.648 67.1833 216.648 71.1352C216.648 74.3384 217.605 75.6279 219.213 75.6279ZM236.949 46.245C236.949 44.6365 236.089 43.9987 235.34 43.9987C234.702 43.9987 233.732 44.8584 233.732 46.5639C233.732 48.4914 234.272 51.2647 235.437 52.6513C236.505 50.1969 236.935 47.6317 236.935 46.245H236.949Z" fill="#53573E"/>
<path d="M259.926 64.9509C257.36 64.9509 254.795 64.2021 252.341 62.5936C251.703 64.729 251.384 66.9754 251.384 68.9028C251.384 73.6035 253.311 76.9176 256.515 76.9176C264.64 76.9176 271.795 69.0137 276.177 62.3856C277.356 60.68 278.742 60.4582 279.602 62.5936C279.921 63.5504 280.032 66.6565 278.105 69.5407C273.612 76.0579 265.07 81.0775 256.736 81.1885C246.794 81.2994 241.345 74.7822 241.345 66.2266C241.345 62.3856 242.412 58.2118 244.659 53.941C250.219 42.6121 258.872 36.9546 265.07 36.9546C266.568 36.9546 267.746 37.1626 268.814 37.8143C271.809 39.5199 273.945 41.2393 275.442 43.3747C276.08 44.3315 276.51 45.94 276.51 47.3267C276.51 53.733 269.355 64.9509 259.953 64.9509H259.926ZM253.838 58.5307C254.698 59.0715 255.447 59.2795 256.196 59.2795C258.761 59.2795 262.172 56.0764 264.321 53.1922C267.414 49.0322 269.66 43.9987 268.481 43.0419C266.873 41.7662 258.969 48.2835 253.838 58.5307Z" fill="#53573E"/>
<path d="M301.278 81.3974C294.969 81.3974 291.765 78.3052 291.336 73.4935C287.703 77.5564 282.891 80.8705 277.441 80.8705C271.992 80.8705 269.856 76.8076 269.856 72.2178C269.856 69.8605 270.286 67.4062 271.243 64.8409C273.6 58.1157 279.036 47.4247 285.664 38.1342C287.051 36.3177 288.978 36.5257 290.254 38.1342C291.433 39.6317 291.862 41.4482 291.862 43.0429C291.862 47.4247 284.07 59.8212 280.326 68.044C278.398 72.3149 278.079 76.2668 280.437 76.2668C283.21 76.2668 288.881 69.0008 294.331 60.4591C300.64 50.198 303.413 42.932 307.254 38.0232C308.752 35.9987 310.457 35.5689 311.747 37.3854C312.815 38.883 313.355 40.5885 313.355 42.9458C313.355 46.5788 311.109 51.2795 307.379 57.4778C304.287 62.4975 300.113 69.7635 300.113 73.9373C300.113 75.8647 300.751 76.9324 302.137 76.9324C305.66 76.9324 311.109 69.5555 314.964 62.8303C316.032 61.0138 317.848 60.6948 318.708 62.7193C319.138 63.6761 319.568 66.7822 317.959 69.8744C314.867 75.9618 307.92 81.4113 301.292 81.4113L301.278 81.3974Z" fill="#53573E"/>
<path d="M319.341 71.1478C327.037 59.292 338.685 44.0112 344.98 37.494C347.338 35.2477 348.613 35.6775 348.932 38.2428C349.251 40.6001 348.072 43.4843 344.439 47.8661C334.719 59.5139 327.453 68.0556 319.757 80.2442C319.009 81.4228 317.83 82.2687 316.235 81.5199C311.853 79.4954 310.037 77.0272 310.356 71.3697C310.786 63.9928 313.559 49.1418 317.303 38.0348C317.941 36.1074 319.438 35.5805 321.144 36.9671C323.598 39.1025 324.777 41.6678 324.777 44.871C324.777 46.5765 324.569 48.504 324.028 50.6394C321.352 61.2195 320.284 65.4903 319.327 71.1478H319.341Z" fill="#53573E"/>
<path d="M358.877 36.5247C358.877 38.5492 358.128 41.6553 356.949 45.0664C359.515 44.4286 362.399 42.931 365.602 40.5737C367.419 39.298 368.486 39.0761 369.873 40.4628C371.37 41.9603 372.965 44.7336 372.965 47.2989C372.965 48.5746 372.424 50.0722 371.26 51.4727C365.491 58.1008 359.404 66.5316 359.404 72.8408C359.404 75.6141 360.263 77.3336 361.747 77.3336C365.38 77.3336 369.651 71.3433 372.965 63.9802C373.825 62.0528 375.322 61.9557 376.279 63.8693C377.028 65.3668 377.139 67.9321 375.96 70.8163C373.395 76.9037 367.086 81.5073 360.998 81.5073C354.481 81.5073 350.959 76.9176 350.959 71.1491C350.959 64.313 356.617 56.0902 361.969 49.5591C359.196 50.7378 356.52 51.1676 354.176 51.2647C346.161 65.1588 340.074 74.9901 338.576 82.3532C338.147 84.2806 336.76 85.2374 334.832 83.2129C333.016 81.5073 332.156 79.261 332.156 76.9037C332.156 74.5464 332.905 71.995 334.403 69.2078C336.219 65.7828 341.669 57.0331 347.548 49.7671C346.272 48.5885 345.523 47.2018 345.523 45.8152C345.523 40.3657 352.36 32.7808 355.674 32.7808C357.92 32.7808 358.877 34.0565 358.877 36.5247Z" fill="#53573E"/>
<path d="M387.192 64.9509C384.627 64.9509 382.062 64.2021 379.607 62.5936C378.97 64.729 378.651 66.9754 378.651 68.9028C378.651 73.6035 380.578 76.9176 383.781 76.9176C391.907 76.9176 399.062 69.0137 403.444 62.3856C404.622 60.68 406.009 60.4582 406.869 62.5936C407.188 63.5504 407.299 66.6565 405.371 69.5407C400.878 76.0579 392.337 81.0775 384.003 81.1885C374.061 81.2994 368.611 74.7822 368.611 66.2266C368.611 62.3856 369.679 58.2118 371.925 53.941C377.486 42.6121 386.138 36.9546 392.337 36.9546C393.834 36.9546 395.013 37.1626 396.081 37.8143C399.076 39.5199 401.211 41.2393 402.709 43.3747C403.347 44.3315 403.777 45.94 403.777 47.3267C403.777 53.733 396.622 64.9509 387.22 64.9509H387.192ZM381.105 58.5307C381.965 59.0715 382.714 59.2795 383.462 59.2795C386.028 59.2795 389.439 56.0764 391.588 53.1922C394.68 49.0322 396.927 43.9987 395.748 43.0419C394.139 41.7662 386.236 48.2835 381.105 58.5307Z" fill="#53573E"/>
<path d="M182.951 102.708V94.8321C182.951 94.7351 182.826 94.6935 182.771 94.7767L177.627 101.89C177.571 101.973 177.446 101.973 177.391 101.89L172.26 94.7767C172.205 94.6935 172.08 94.7351 172.08 94.8321V102.708H169.445V88.2733C169.445 88.1901 169.515 88.1069 169.612 88.1069H170.776C170.776 88.1069 170.874 88.1347 170.915 88.1763L177.432 97.5361C177.432 97.5361 177.557 97.5916 177.599 97.5361L184.144 88.1763C184.144 88.1763 184.227 88.1069 184.282 88.1069H185.433C185.516 88.1069 185.6 88.1763 185.6 88.2733V102.708H182.979H182.951Z" fill="#53573E"/>
<path d="M202.584 102.861C202.348 102.861 202.14 102.82 201.932 102.723C201.738 102.626 201.558 102.515 201.405 102.362C201.253 102.21 201.142 102.043 201.058 101.835C200.975 101.641 200.934 101.419 200.934 101.211C200.934 100.74 201.086 100.352 201.419 100.033C201.738 99.7138 202.126 99.5474 202.584 99.5474C203.069 99.5474 203.457 99.6999 203.776 100.033C204.095 100.365 204.248 100.74 204.248 101.211C204.248 101.683 204.095 102.043 203.776 102.376C203.457 102.695 203.069 102.861 202.584 102.861Z" fill="#53573E"/>
<path d="M210.448 102.709V88.2603H216.217C216.827 88.2603 217.395 88.3712 217.922 88.593C218.449 88.8149 218.921 89.1061 219.309 89.4666C219.697 89.8272 220.016 90.2431 220.238 90.7146C220.46 91.1861 220.571 91.6714 220.571 92.1706C220.571 92.6282 220.46 93.1274 220.252 93.6682C220.044 94.1951 219.656 94.6665 219.073 95.0687L218.865 95.2212L219.101 95.3321C219.448 95.4985 219.753 95.6927 220.002 95.9423C220.252 96.178 220.46 96.4414 220.626 96.7188C220.793 96.9961 220.904 97.2873 220.987 97.5785C221.07 97.8697 221.112 98.1609 221.112 98.4521C221.112 98.979 221.028 99.5059 220.876 100.019C220.723 100.518 220.46 100.976 220.085 101.392C219.711 101.794 219.212 102.127 218.602 102.376C217.978 102.626 217.201 102.751 216.272 102.751H210.448V102.709ZM213.083 99.8664C213.083 99.9912 213.18 100.074 213.291 100.074H215.898C216.744 100.074 217.34 99.908 217.714 99.5891C218.102 99.2563 218.297 98.8681 218.297 98.4105C218.297 98.1886 218.255 97.9667 218.186 97.7449C218.103 97.523 217.978 97.3289 217.784 97.1625C217.603 96.9961 217.354 96.8713 217.035 96.7742C216.73 96.6772 216.341 96.6356 215.898 96.6356H213.291C213.166 96.6356 213.083 96.7326 213.083 96.8436V99.8526V99.8664ZM213.083 93.793C213.083 93.9177 213.18 94.0009 213.291 94.0009H215.884C216.439 94.0009 216.882 93.8623 217.229 93.5988C217.576 93.3215 217.756 92.961 217.756 92.5034C217.756 92.0458 217.576 91.6714 217.229 91.3525C216.882 91.0335 216.425 90.881 215.884 90.881H213.291C213.166 90.881 213.083 90.9781 213.083 91.089V93.7791V93.793Z" fill="#53573E"/>
<path d="M232.551 102.862C231.733 102.862 230.97 102.723 230.29 102.446C229.611 102.168 229.015 101.78 228.543 101.281C228.058 100.795 227.684 100.199 227.406 99.5198C227.129 98.8403 226.99 98.0777 226.99 97.2596V88.2603H229.611V96.8852C229.611 97.3982 229.694 97.8558 229.847 98.2718C230.013 98.6878 230.221 99.0483 230.498 99.3256C230.776 99.6168 231.081 99.8387 231.441 99.9912C231.802 100.144 232.176 100.227 232.551 100.227C232.925 100.227 233.313 100.144 233.66 99.9912C234.007 99.8387 234.326 99.6168 234.603 99.3256C234.88 99.0345 235.088 98.6878 235.255 98.2718C235.421 97.8558 235.49 97.3844 235.49 96.8852V88.2603H238.125V97.2596C238.125 98.0777 237.986 98.8403 237.709 99.5198C237.432 100.199 237.057 100.795 236.558 101.281C236.073 101.766 235.476 102.154 234.797 102.446C234.118 102.723 233.355 102.862 232.537 102.862H232.551Z" fill="#53573E"/>
<path d="M245.279 102.709V88.2605H254.473V90.8951H248.15C248.025 90.8951 247.914 91.006 247.914 91.1308V93.9319C247.914 94.0567 248.025 94.1676 248.15 94.1676H253.28V96.8299H248.15C248.025 96.8299 247.914 96.9409 247.914 97.0657V102.737H245.279V102.709Z" fill="#53573E"/>
<path d="M260.645 102.709V88.2605H269.838V90.8951H263.515C263.39 90.8951 263.279 91.006 263.279 91.1308V93.9319C263.279 94.0567 263.39 94.1676 263.515 94.1676H268.645V96.8299H263.515C263.39 96.8299 263.279 96.9409 263.279 97.0657V102.737H260.645V102.709Z" fill="#53573E"/>
<path d="M275.937 102.709V88.2605H285.13V90.8951H278.807C278.682 90.8951 278.571 91.006 278.571 91.1308V93.9319C278.571 94.0567 278.682 94.1676 278.807 94.1676H283.937V96.8299H278.807C278.682 96.8299 278.571 96.9409 278.571 97.0657V99.8667C278.571 99.9915 278.682 100.102 278.807 100.102H285.13V102.737H275.937V102.709Z" fill="#53573E"/>
<path d="M295.102 102.709V91.1308C295.102 91.006 294.991 90.8951 294.867 90.8951H291.012V88.2605H301.786V90.8951H297.973C297.848 90.8951 297.737 91.006 297.737 91.1308V102.709H295.102Z" fill="#53573E"/>
<path d="M193.448 93.1258C193.448 93.1258 193.518 93.1258 193.559 93.1258C193.642 93.0981 193.684 93.0287 193.739 92.9594C194.516 92.0026 195.667 91.5728 196.887 91.5728H197.054V93.6111L196.846 93.6388C195.806 93.7775 194.918 94.4154 194.322 95.2612C193.837 95.9684 193.49 96.8559 193.434 97.7156C193.421 97.9236 193.434 99.6153 193.434 99.6153H191.077V91.6005H193.337V92.8207C193.337 92.9178 193.337 93.0842 193.434 93.1119L193.448 93.1258Z" fill="#53573E"/>
<path d="M309.289 86.9724L323.017 95.4864L309.289 104V86.9724Z" fill="#53573E"/>
<path d="M336.745 86.9727L323.018 95.4866L336.745 104.001V86.9727Z" fill="#53573E"/>
<path d="M274.988 6.65545C275.903 6.65545 277.206 6.54451 277.872 6.43358V10.1221C276.984 10.0943 275.931 10.0389 275.182 10.0389H271.604C271.688 14.0878 271.798 18.7192 271.854 22.4632C271.882 24.2381 270.856 25.2642 268.748 25.2642C267.056 25.2642 265.503 25.2087 263.922 25.0978L263.617 21.4925C264.865 21.7144 266.363 21.8253 267.306 21.8253C267.999 21.8253 268.276 21.4648 268.276 20.6605C268.276 18.8024 268.276 16.0291 268.221 13.1727C265.78 16.3619 261.288 20.2168 256.906 22.5464L254.354 19.6621C259.735 17.1107 264.311 13.2004 266.557 10.0389H258.986C257.988 10.0389 256.795 10.0943 255.824 10.1498V6.46132C256.629 6.57225 257.96 6.65545 258.903 6.65545H268.082C268.055 5.93439 268.027 5.2688 267.999 4.65868C267.944 3.85443 267.86 2.82832 267.722 1.85767H271.66C271.549 2.71738 271.493 3.79896 271.493 4.65868L271.521 6.65545H274.988Z" fill="#53573E"/>
<path d="M284.64 11.2322C285.638 11.3154 287.663 11.3986 289.105 11.3986H303.997C305.273 11.3986 306.521 11.2876 307.242 11.2322V15.5862C306.576 15.5585 305.162 15.4476 303.997 15.4476H289.105C287.524 15.4476 285.666 15.503 284.64 15.5862V11.2322Z" fill="#53573E"/>
<path d="M323.131 9.92836C326.82 11.0377 332.172 13.0067 334.724 14.2547L333.171 18.1095C330.286 16.5842 326.127 14.9757 323.131 13.9774V21.8257C323.131 22.6023 323.27 24.5436 323.409 25.6806H319.055C319.221 24.599 319.332 22.9073 319.332 21.8257V5.87937C319.332 4.88099 319.249 3.52208 319.055 2.5237H323.381C323.27 3.49435 323.131 4.71459 323.131 5.87937V9.92836ZM330.508 8.70812C329.704 6.96095 329.094 5.85164 328.068 4.43726L330.397 3.43888C331.174 4.60366 332.283 6.37856 332.921 7.62654L330.508 8.70812ZM334.308 7.15508C333.42 5.40791 332.755 4.3818 331.729 2.99515L334.03 1.91357C334.835 3.02289 335.999 4.77006 336.637 6.01803L334.308 7.15508Z" fill="#53573E"/>
<path d="M363.04 4.79778L364.787 5.93483C364.538 6.46175 364.343 7.266 364.177 7.84839C363.539 10.5662 362.347 14.8648 360.017 17.9431C357.521 21.2711 353.833 24.0166 348.868 25.5974L345.846 22.2972C351.364 20.9938 354.47 18.6087 356.717 15.78C358.547 13.4782 359.601 10.3443 359.989 7.95932H347.066C345.79 7.95932 344.487 8.01479 343.766 8.07026V4.15993C344.57 4.27086 346.151 4.38179 347.066 4.38179H359.906C360.239 4.38179 360.71 4.38179 361.21 4.32632C360.738 3.41114 360.183 2.44049 359.657 1.63624L361.931 0.693321C362.652 1.74717 363.567 3.35567 364.066 4.35406L363.04 4.79778ZM365.813 0C366.507 0.998382 367.505 2.69009 368.032 3.66073L365.73 4.65912C365.12 3.52207 364.26 1.9413 363.511 0.942916L365.813 0Z" fill="#53573E"/>
<path d="M371.388 23.0455C373.828 21.326 375.326 18.7746 376.102 16.4173C376.879 14.0323 376.907 8.79078 376.907 5.43511C376.907 4.3258 376.823 3.57701 376.657 2.91142H380.734C380.706 3.02235 380.54 4.27033 380.54 5.40738C380.54 8.67985 380.456 14.5315 379.708 17.3325C378.876 20.4663 377.156 23.1841 374.771 25.2918L371.388 23.0455ZM384.228 23.4615C384.339 22.9345 384.45 22.158 384.45 21.4092V5.24098C384.45 3.993 384.256 2.93916 384.228 2.85596H388.36C388.332 2.93916 388.166 4.02074 388.166 5.26871V19.773C390.412 18.8023 393.158 16.6114 395.016 13.9214L397.152 16.972C394.85 19.9671 390.856 22.9623 387.75 24.543C387.168 24.8481 386.89 25.0977 386.53 25.375L384.228 23.4615Z" fill="#53573E"/>
</svg>
