<svg width="37" height="37" viewBox="0 0 37 37" fill="none" xmlns="http://www.w3.org/2000/svg">
<circle cx="18.5" cy="18.5" r="17.5" fill="#FFE83A" stroke="#321504" stroke-width="2"/>
<path d="M17.25 10.75C17.25 9.98945 17.8086 9.375 18.5 9.375C19.1914 9.375 19.75 9.98945 19.75 10.75V21.75C19.75 22.5105 19.1914 23.125 18.5 23.125C17.8086 23.125 17.25 22.5105 17.25 21.75V10.75ZM18.5 28.625C18.0856 28.625 17.6882 28.4439 17.3951 28.1216C17.1021 27.7993 16.9375 27.3621 16.9375 26.9062C16.9375 26.4504 17.1021 26.0132 17.3951 25.6909C17.6882 25.3686 18.0856 25.1875 18.5 25.1875C18.9144 25.1875 19.3118 25.3686 19.6049 25.6909C19.8979 26.0132 20.0625 26.4504 20.0625 26.9062C20.0625 27.3621 19.8979 27.7993 19.6049 28.1216C19.3118 28.4439 18.9144 28.625 18.5 28.625Z" fill="black"/>
</svg>
