<svg width="160" height="133" viewBox="0 0 160 133" fill="none" xmlns="http://www.w3.org/2000/svg">
<path d="M19.5092 70.2454V87.7046H16.3511V78.1821C16.3511 78.0643 16.1988 78.0158 16.1295 78.1128L9.90348 86.7143C9.83422 86.8112 9.68186 86.8112 9.61261 86.7143L3.41428 78.1128C3.34502 78.0158 3.19266 78.0643 3.19266 78.1821V87.7046H0V70.2454C0 70.1346 0.0900316 70.0515 0.193914 70.0515H1.60672C1.66905 70.0515 1.73138 70.0861 1.766 70.1346L9.64723 81.4578C9.69571 81.5271 9.79959 81.5271 9.84807 81.4578L17.757 70.1346C17.7916 70.0792 17.854 70.0515 17.9163 70.0515H19.3014C19.4122 70.0515 19.4953 70.1415 19.4953 70.2454H19.5092ZM40.0848 83.8817C39.5377 83.8817 39.0737 84.0757 38.679 84.4635C38.2842 84.8582 38.0972 85.3222 38.0972 85.8901C38.0972 86.1533 38.1457 86.4095 38.2496 86.6519C38.3535 86.8943 38.492 87.1021 38.672 87.2822C38.8521 87.4622 39.0668 87.6077 39.3092 87.7185C39.5516 87.8293 39.8078 87.8778 40.0918 87.8778C40.6735 87.8778 41.1444 87.6838 41.5323 87.296C41.9201 86.9013 42.1071 86.4442 42.1071 85.8901C42.1071 85.3361 41.9201 84.8513 41.5323 84.4635C41.1444 84.0687 40.6735 83.8817 40.0918 83.8817H40.0848ZM62.1841 84.4012C61.9971 85.0106 61.6786 85.5646 61.2284 86.0494C60.7852 86.5342 60.1827 86.9359 59.4347 87.2406C58.6868 87.5453 57.738 87.6977 56.616 87.6977H49.5728V70.2246H56.5398C57.2739 70.2246 57.9734 70.3562 58.6106 70.6194C59.2477 70.8826 59.8156 71.2358 60.2865 71.6721C60.7575 72.1015 61.1315 72.6139 61.4016 73.1818C61.6716 73.7497 61.8032 74.3384 61.8032 74.9409C61.8032 75.4949 61.6786 76.1044 61.4223 76.7485C61.173 77.3856 60.6951 77.9535 60.0026 78.4383L59.7533 78.6114L60.0303 78.743C60.4528 78.9369 60.8198 79.1862 61.1245 79.4771C61.4293 79.768 61.6855 80.0866 61.8794 80.419C62.0733 80.7514 62.2188 81.1046 62.3157 81.4578C62.4127 81.8179 62.4612 82.1711 62.4612 82.5036C62.4612 83.1476 62.3642 83.7848 62.1772 84.4012H62.1841ZM52.7654 76.9216C52.7654 77.067 52.8832 77.1778 53.0217 77.1778H56.152C56.8169 77.1778 57.364 77.0186 57.7726 76.6931C58.195 76.3606 58.4167 75.9174 58.4167 75.3703C58.4167 74.8232 58.202 74.3592 57.7864 73.9783C57.3709 73.6043 56.8238 73.4104 56.152 73.4104H53.0217C52.8763 73.4104 52.7654 73.5281 52.7654 73.6666V76.9147V76.9216ZM59.0815 82.5036C59.0815 82.2335 59.033 81.9634 58.943 81.7071C58.846 81.444 58.6868 81.2085 58.4582 81.0077C58.2366 80.8137 57.9319 80.6545 57.551 80.5367C57.177 80.419 56.713 80.3636 56.1728 80.3636H53.0217C52.8763 80.3636 52.7654 80.4813 52.7654 80.6198V84.2488C52.7654 84.3942 52.8832 84.505 53.0217 84.505H56.1728C57.1908 84.505 57.918 84.3111 58.3751 83.9164C58.8391 83.5147 59.0746 83.0368 59.0746 82.4966L59.0815 82.5036ZM69.5667 70.2316V81.1046C69.5667 82.095 69.7329 83.0161 70.0654 83.8402C70.3909 84.6643 70.8549 85.3776 71.4435 85.9732C72.0253 86.5619 72.7386 87.0328 73.5627 87.3722C74.3869 87.7115 75.308 87.8778 76.2983 87.8778C77.2887 87.8778 78.2098 87.7046 79.0339 87.3722C79.858 87.0328 80.5714 86.5619 81.1669 85.9732C81.7556 85.3846 82.2265 84.6643 82.552 83.8402C82.8845 83.0161 83.0507 82.095 83.0507 81.1046V70.2316H79.865V80.6475C79.865 81.2639 79.768 81.8249 79.5741 82.3304C79.3802 82.836 79.117 83.2654 78.7846 83.6116C78.4521 83.9579 78.0713 84.228 77.6419 84.415C77.2125 84.602 76.7623 84.699 76.2983 84.699C75.8343 84.699 75.3842 84.602 74.9548 84.415C74.5254 84.228 74.1445 83.9579 73.8121 83.6116C73.4866 83.2654 73.2165 82.836 73.0226 82.3304C72.8286 81.8318 72.7317 81.2639 72.7317 80.6475V70.2316H69.5737H69.5667ZM91.6937 87.7046H94.8795V80.8553C94.8795 80.696 95.0041 80.5714 95.1634 80.5714H101.369V77.3579H95.1634C95.0041 77.3579 94.8795 77.2333 94.8795 77.074V73.6943C94.8795 73.535 95.0041 73.4104 95.1634 73.4104H102.802V70.2246H91.6937V87.6977V87.7046ZM110.254 87.7046H113.44V80.8553C113.44 80.696 113.564 80.5714 113.724 80.5714H119.929V77.3579H113.724C113.564 77.3579 113.44 77.2333 113.44 77.074V73.6943C113.44 73.535 113.564 73.4104 113.724 73.4104H121.363V70.2246H110.254V87.6977V87.7046ZM128.752 87.7046H139.861V84.5189H132.222C132.062 84.5189 131.938 84.3942 131.938 84.2349V80.8553C131.938 80.696 132.062 80.5714 132.222 80.5714H138.427V77.3579H132.222C132.062 77.3579 131.938 77.2333 131.938 77.074V73.6943C131.938 73.535 132.062 73.4104 132.222 73.4104H139.861V70.2246H128.752V87.6977V87.7046ZM146.98 70.2316V73.4173H151.641C151.8 73.4173 151.925 73.542 151.925 73.7012V87.7046H155.111V73.7012C155.111 73.542 155.235 73.4173 155.395 73.4173H160V70.2316H146.98ZM29.3919 75.9105C29.3295 75.9867 29.2603 76.0698 29.1702 76.1044C29.1079 76.1252 29.0664 76.1252 29.0317 76.1182C28.914 76.0767 28.914 75.8828 28.914 75.7581V74.2899H26.1715V83.9718H29.0248C29.0248 83.9718 29.011 81.9149 29.0248 81.6656C29.101 80.6337 29.5165 79.5464 30.1052 78.7015C30.8185 77.6765 31.8989 76.9078 33.1524 76.7346L33.4017 76.7069V74.2414H33.194C31.7257 74.2414 30.3337 74.747 29.3849 75.9105H29.3919ZM86.1118 32.0235C86.0356 32.1067 86.0287 32.2105 86.0564 32.3144C86.1118 32.5153 86.1741 32.7161 86.2295 32.9239C86.271 33.0693 86.3057 33.2147 86.3403 33.3602C86.368 33.4779 86.3957 33.5956 86.4165 33.7134C86.4373 33.8657 86.4719 34.0181 86.5619 34.1497C86.6243 34.2397 86.7281 34.2328 86.7766 34.1358C86.7974 34.0943 86.8112 34.0458 86.8251 34.0042C86.9013 33.7411 86.9844 33.4848 87.0536 33.2217C87.0813 33.1386 87.0883 33.0485 87.0952 33C87.0952 32.7646 87.0467 32.6538 86.9636 32.5637C86.7766 32.3767 86.5827 32.1828 86.3888 32.0028C86.2849 31.9058 86.2018 31.9197 86.1118 32.0235ZM87.7254 39.4546C87.6839 39.4892 87.6423 39.5308 87.6077 39.5723C87.5176 39.6693 87.4207 39.7593 87.3029 39.8217C87.0536 39.9533 86.8043 40.0918 86.5619 40.2372C86.3749 40.348 86.2018 40.4934 86.001 40.5835C85.807 40.6666 85.6339 40.7774 85.4815 40.9159C85.3846 40.999 85.2945 41.0821 85.1976 41.1721C85.066 41.2968 84.9137 41.4007 84.7336 41.463C84.5466 41.5323 84.3596 41.6084 84.1657 41.6708C84.041 41.7123 83.951 41.7816 83.8748 41.8855C83.7917 42.0032 83.6809 42.0932 83.5493 42.1486C83.3554 42.2317 83.1823 42.3564 82.9537 42.3356C82.8498 42.3287 82.7944 42.4187 82.8014 42.5295C82.8152 42.6334 82.8776 42.7096 82.9468 42.7789C83.113 42.9451 83.2515 42.952 83.4247 42.7996C83.5493 42.6958 83.6671 42.5919 83.7779 42.4811C83.9441 42.3079 84.138 42.1694 84.3458 42.0448C84.4566 41.9824 84.5674 41.9409 84.692 41.9616C84.879 41.9616 85.0522 41.9201 85.2322 41.8716C85.3361 41.8439 85.4123 41.7816 85.4538 41.6916C85.5369 41.5046 85.6824 41.4007 85.8486 41.3037C85.994 41.2206 86.1464 41.1375 86.2918 41.0613C86.4373 40.9852 86.5481 40.8813 86.6381 40.7428C86.6796 40.6735 86.742 40.6112 86.8112 40.5627C87.1298 40.3342 87.4553 40.1195 87.7739 39.8909C87.8431 39.8424 87.9124 39.7732 87.9678 39.7039C88.0301 39.6278 88.0163 39.5585 87.9401 39.4823C87.8708 39.4131 87.7947 39.3992 87.7116 39.4615L87.7254 39.4546ZM84.5743 21.9677C84.7613 21.9262 84.9414 21.8985 85.1353 21.9123C85.2669 21.9192 85.3638 21.8569 85.4192 21.7599C85.4885 21.6422 85.5716 21.5522 85.6547 21.4483C85.7309 21.3513 85.7378 21.2821 85.6755 21.1782C85.5854 21.0328 85.4538 20.9289 85.2738 20.9289C85.0314 20.9289 84.7959 20.922 84.5535 20.9289C84.415 20.9358 84.2765 20.9843 84.138 21.012C84.048 21.0328 83.9649 21.0605 83.8748 21.0605C83.7155 21.0605 83.5701 21.1159 83.4385 21.199C83.3762 21.2405 83.3139 21.2821 83.2515 21.3236C83.0992 21.4067 82.9745 21.5176 82.8637 21.6422C82.7667 21.7461 82.6629 21.8431 82.559 21.94C82.4482 22.0439 82.3304 22.1478 82.2196 22.2586C82.1296 22.3555 82.0811 22.4663 82.1088 22.6049C82.1157 22.6533 82.1157 22.6949 82.1227 22.7434C82.1434 22.9511 82.1642 23.152 82.185 23.3597C82.1988 23.4498 82.2196 23.5329 82.2266 23.6229C82.2473 23.7822 82.275 23.9415 82.3512 24.08C82.5105 24.3916 82.6629 24.7033 82.8706 24.9872C82.9676 25.1188 83.0645 25.2504 83.1546 25.3889C83.2377 25.5205 83.3485 25.6175 83.4801 25.6936C83.5424 25.7283 83.6117 25.7698 83.674 25.8114C83.8471 25.9222 84.0203 26.0399 84.1934 26.1576C84.3458 26.2615 84.512 26.3585 84.6366 26.497C84.692 26.5593 84.7405 26.6216 84.7959 26.6771C84.9691 26.8502 85.1422 27.0233 85.3292 27.1826C85.4885 27.3211 85.6339 27.4735 85.7586 27.6466C85.8278 27.7436 85.8971 27.8475 85.9663 27.9513C86.0356 28.0483 86.1048 28.1522 86.1879 28.2422C86.271 28.3392 86.368 28.3392 86.4511 28.2422C86.465 28.2284 86.4719 28.2145 86.4857 28.2007C86.6381 28.0206 86.7835 27.8405 86.9428 27.6674C87.0329 27.5635 87.1367 27.4804 87.2337 27.3835C87.393 27.2172 87.4899 27.0372 87.4207 26.8017C87.393 26.7117 87.3861 26.6147 87.3791 26.5247C87.3514 26.2615 87.3445 25.9984 87.2752 25.7421C87.2406 25.6105 87.1437 25.5413 87.019 25.569C86.7974 25.6105 86.5758 25.6452 86.3472 25.6452C86.2988 25.6452 86.2433 25.659 86.1949 25.6659C85.9594 25.6936 85.7378 25.6798 85.5231 25.562C85.0937 25.3197 84.6574 25.0911 84.2626 24.7864C84.1657 24.7102 84.0826 24.6202 83.9995 24.5371C83.9649 24.5024 83.9649 24.4609 83.9856 24.4193C84.0064 24.3778 84.041 24.3709 84.0826 24.3778C84.1103 24.3778 84.138 24.3778 84.1657 24.3916C84.4289 24.4609 84.699 24.5094 84.9552 24.6063C85.1214 24.6687 85.2946 24.7171 85.4608 24.7725C85.5716 24.8141 85.6616 24.7864 85.7447 24.7033C85.7655 24.6825 85.7863 24.6617 85.8001 24.641C85.8832 24.5371 85.9594 24.4332 86.0494 24.3224C85.9871 24.1908 85.9525 24.1631 85.8278 24.1562C85.7586 24.1562 85.6893 24.1423 85.62 24.1285C85.5231 24.1146 85.4261 24.1008 85.3292 24.0869C85.0037 24.0454 84.6782 24.0177 84.3527 23.9692C84.1103 23.9276 83.861 23.8722 83.6255 23.803C83.3762 23.7337 83.1338 23.7268 82.8914 23.803C82.8291 23.8237 82.7598 23.8376 82.6975 23.8376C82.5798 23.8376 82.4828 23.7337 82.5244 23.6229C82.6144 23.3944 82.6906 23.152 82.8429 22.9511C82.933 22.8334 83.0022 22.7087 83.0853 22.591C83.1477 22.501 83.1961 22.404 83.2723 22.3278C83.4385 22.1339 83.6324 22.0093 83.9025 22.0162C84.1172 22.0162 84.3319 21.9885 84.5466 21.9746C84.5535 21.9746 84.5674 21.9746 84.5743 21.9746V21.9677ZM87.109 23.4151C87.1852 23.3805 87.206 23.3182 87.206 23.2559C87.206 23.1589 87.0813 22.9927 86.9913 22.9788C86.9636 22.9788 86.9221 22.9788 86.8943 22.9927C86.7905 23.0412 86.7558 23.152 86.8112 23.2489C86.8389 23.2974 86.8805 23.339 86.9151 23.3805C86.9705 23.4359 87.0329 23.4428 87.109 23.4151ZM83.9926 22.8126C83.9025 22.7988 83.8194 22.8126 83.7571 22.8749C83.7017 22.9304 83.6463 22.9927 83.6047 23.055C83.5216 23.1727 83.5632 23.2766 83.7086 23.3251C83.7917 23.3528 83.8679 23.3736 83.951 23.3944C84.0618 23.4221 84.1449 23.3667 84.1588 23.2489C84.1726 23.1312 84.2003 23.0412 84.325 22.9996C84.3735 22.9858 84.4012 22.9511 84.3942 22.8888C84.3804 22.8265 84.3388 22.8057 84.2834 22.8057H83.9995L83.9926 22.8126ZM80.793 41.8439C80.8969 41.8439 80.9315 41.7677 80.9661 41.6846C81.0423 41.4907 81.1185 41.3037 81.1946 41.1098C81.2154 41.0613 81.2293 40.999 81.2293 40.9436C81.2293 40.8189 81.1185 40.7428 81.0077 40.8051C80.8692 40.8813 80.7306 40.9644 80.5991 41.0475C80.5298 41.096 80.4744 41.1652 80.4744 41.2622C80.4882 41.3106 80.5021 41.3591 80.516 41.4076C80.5506 41.4976 80.5921 41.5877 80.6337 41.6777C80.6683 41.7539 80.7029 41.8301 80.793 41.837V41.8439ZM82.8706 38.8175C82.8706 38.8175 82.8152 38.8036 82.7875 38.7967C82.5174 38.7482 82.2335 38.769 81.9634 38.7067C81.7487 38.6582 81.5202 38.6582 81.3124 38.6097C81.1116 38.5612 80.9107 38.5266 80.7029 38.5058C80.419 38.4712 80.1351 38.4158 79.858 38.3465C79.7334 38.3188 79.6503 38.2427 79.5949 38.1318C79.5602 38.0695 79.5395 38.0003 79.5118 37.9379C79.4841 37.8756 79.4979 37.8133 79.5464 37.7717C79.581 37.7371 79.6295 37.7094 79.678 37.6955C79.8788 37.6401 80.0796 37.5986 80.2736 37.5363C80.4883 37.4739 80.696 37.3839 80.9176 37.3354C81.0492 37.3077 81.16 37.2385 81.2293 37.1069C81.2916 36.9822 81.2501 36.8575 81.1185 36.816C80.9592 36.7675 80.793 36.726 80.6268 36.7052C80.4744 36.6913 80.329 36.6567 80.1835 36.6152C79.8511 36.532 79.5187 36.4489 79.1932 36.352C79.0547 36.3104 78.9231 36.2273 78.7984 36.1442C78.7292 36.1027 78.6876 36.0196 78.6322 35.9572C78.556 35.8811 78.4868 35.8049 78.4106 35.7218C78.2721 35.5833 78.1336 35.4447 77.9951 35.3062C77.9951 35.3062 77.9812 35.2924 77.9812 35.2855C77.9604 35.2439 77.9674 35.2024 77.9951 35.1677C78.0228 35.1331 78.0643 35.14 78.0989 35.1539C78.1266 35.1677 78.1613 35.1816 78.1821 35.2024C78.2998 35.2924 78.4314 35.3478 78.5699 35.3893C78.6461 35.4101 78.7222 35.4378 78.7984 35.4655C79.0547 35.5556 79.3248 35.5971 79.5949 35.6179C79.678 35.6179 79.7611 35.6317 79.8442 35.6525C80.1143 35.7148 80.3913 35.7425 80.6891 35.7633C80.8415 35.7495 81.0146 35.7425 81.1808 35.7079C81.5132 35.6456 81.8249 35.4932 82.1227 35.3409C82.185 35.3062 82.2335 35.237 82.275 35.1747C82.3235 35.0985 82.3166 35.0154 82.2612 34.9392C82.1781 34.8215 82.0673 34.7522 81.9218 34.7383C81.8526 34.7383 81.7833 34.7245 81.7141 34.7176C81.5617 34.7106 81.4024 34.6968 81.2501 34.6968C81.1323 34.6968 81.0146 34.7106 80.8969 34.7106C80.5229 34.7245 80.1558 34.7314 79.7818 34.7383C79.7403 34.7383 79.6987 34.7453 79.6572 34.7522C79.484 34.7868 79.3109 34.773 79.1447 34.7037C79.0685 34.676 78.9923 34.6414 78.9162 34.6345C78.7361 34.6137 78.563 34.5998 78.3829 34.5998C77.912 34.5998 77.448 34.5514 76.9839 34.4475C76.9008 34.4267 76.8385 34.4475 76.7762 34.496C76.7138 34.5444 76.6792 34.6137 76.6584 34.6829C76.6307 34.7591 76.603 34.8422 76.5753 34.9184C76.4022 35.327 76.2291 35.7425 76.0559 36.1511C76.0144 36.2481 75.9659 36.3589 75.9728 36.4628C75.9728 36.6221 75.952 36.7606 75.8828 36.8991C75.8343 37.003 75.8274 37.1069 75.862 37.2108C75.9728 37.5363 76.1252 37.841 76.2914 38.1457C76.3122 38.1803 76.3399 38.2011 76.3606 38.2357C76.4299 38.3396 76.4922 38.4366 76.5546 38.5474C76.5961 38.6166 76.6238 38.6928 76.6584 38.7621C76.7208 38.8798 76.8039 38.9144 76.9424 38.8937C77.0809 38.8729 77.2194 38.8382 77.3579 38.8175C77.5241 38.7967 77.628 38.8867 77.6419 39.0529C77.6419 39.1014 77.6419 39.1568 77.6419 39.2053C77.6419 39.3507 77.7319 39.4338 77.8704 39.4338C78.0436 39.4338 78.2167 39.4338 78.3898 39.4338C78.4452 39.4338 78.5006 39.4338 78.556 39.4269C78.7292 39.4131 78.9023 39.3854 79.0754 39.3784C79.2347 39.3715 79.3248 39.4892 79.2971 39.6416C79.2971 39.6693 79.2832 39.697 79.2763 39.7247C79.2486 39.8424 79.2763 39.9463 79.3178 40.0571C79.3732 40.1818 79.4564 40.2372 79.5949 40.2303C79.6503 40.2303 79.7057 40.2303 79.7611 40.2233C79.955 40.2026 80.142 40.1818 80.3359 40.1679C80.4744 40.1679 80.5921 40.1195 80.696 40.0364C80.8207 39.9325 80.9384 39.8286 81.0631 39.7247C81.1185 39.6762 81.1669 39.6278 81.2224 39.5862C81.3193 39.51 81.4301 39.5446 81.4647 39.6624C81.4647 39.6832 81.4647 39.697 81.4717 39.7178C81.4994 39.8632 81.6102 39.9048 81.7279 39.8147C81.7903 39.7732 81.8456 39.7178 81.9011 39.6762C82.0396 39.5723 82.185 39.5239 82.3581 39.5723C82.4967 39.6139 82.6075 39.5793 82.7044 39.4338C82.7806 39.3092 82.8637 39.1914 82.9399 39.0668C83.0161 38.9491 82.9884 38.8659 82.8568 38.8105L82.8706 38.8175ZM66.9281 5.61659C66.8935 5.44345 66.8935 5.31186 67.122 5.20798C67.5375 5.02099 67.9531 4.834 68.3686 4.66087C69.6221 4.13453 70.9172 3.71207 72.233 3.37272C72.9464 3.19266 73.6666 3.02645 74.3869 2.90871C74.8647 2.83253 75.3495 2.75635 75.8343 2.6871C76.2083 2.63169 76.5823 2.59014 76.9493 2.55551C77.2333 2.52781 77.5172 2.51396 77.8081 2.49318C77.8912 2.49318 77.9743 2.47241 78.0574 2.47241C78.2098 2.47241 78.2929 2.56936 78.2513 2.7148C78.2236 2.82561 78.1821 2.92949 78.1405 3.03337C78.099 3.13725 78.0713 3.24806 78.0713 3.35887C78.0713 3.55279 78.0228 3.73285 77.9604 3.90599C77.8635 4.17608 77.7527 4.43925 77.5795 4.67472C77.5588 4.70934 77.538 4.7509 77.5241 4.78553C77.4757 4.93789 77.3718 5.03484 77.2333 5.11795C76.9562 5.28416 76.6584 5.38804 76.3537 5.485C75.8343 5.64429 75.3357 5.8382 74.8509 6.08752C74.5877 6.22603 74.3315 6.37147 74.0683 6.50998C73.9921 6.55153 73.909 6.58616 73.8259 6.62771C73.7844 6.64849 73.7359 6.66234 73.7013 6.69004C73.6805 6.70389 73.6666 6.75237 73.6736 6.77315C73.6736 6.80085 73.7082 6.83548 73.7359 6.83548C73.7982 6.83548 73.8605 6.83548 73.9159 6.82855C74.2553 6.74544 74.5946 6.65541 74.9409 6.57923C75.2318 6.50998 75.5296 6.45457 75.8205 6.39224C75.9936 6.35762 76.1667 6.32299 76.3399 6.28144C76.3884 6.26758 76.4299 6.23988 76.4715 6.20525C76.4992 6.18448 76.5199 6.14985 76.5407 6.11522C76.6169 6.01827 76.7069 5.96286 76.8385 5.96286C77.1363 5.96286 77.4272 5.92823 77.725 5.92131C77.9258 5.92131 78.1267 5.93516 78.3275 5.94209C78.369 5.94209 78.4244 5.94209 78.4591 5.91438C78.5422 5.86591 78.563 5.79665 78.5214 5.69277C78.5006 5.63736 78.4868 5.58888 78.5214 5.53348C78.556 5.49193 78.5907 5.4573 78.6461 5.4573C78.8608 5.4573 79.0685 5.4573 79.2832 5.47115C79.5464 5.49885 79.8165 5.54733 80.0796 5.58196C80.2528 5.60274 80.4259 5.63044 80.5991 5.63736C80.6545 5.63736 80.7237 5.62351 80.7722 5.59581C80.9523 5.49885 81.1531 5.46423 81.347 5.41575C81.5202 5.37419 81.6933 5.36034 81.8734 5.40882C82.0465 5.4573 82.2335 5.4573 82.4135 5.47808C82.739 5.51963 83.0645 5.58888 83.3485 5.76202C83.4524 5.82435 83.5632 5.81743 83.674 5.7828C83.8263 5.74125 83.9718 5.71354 84.1241 5.68584C84.2973 5.65814 84.4635 5.68584 84.6228 5.74817C84.8167 5.81743 85.0106 5.90746 85.1491 6.06674C85.1907 6.11522 85.2253 6.17063 85.2669 6.22603C85.3292 6.31606 85.3361 6.41995 85.2876 6.52383C85.2253 6.66234 85.163 6.80777 85.1006 6.94628C85.0729 7.00861 85.0314 7.03632 84.9691 7.03632C84.9067 7.03632 84.879 7.00169 84.8513 6.95321C84.7821 6.82855 84.7128 6.69697 84.6297 6.57923C84.5743 6.49613 84.4981 6.4338 84.4289 6.36454C84.4219 6.35762 84.4081 6.34377 84.3942 6.33684C84.3319 6.30221 84.2626 6.26758 84.1934 6.30914C84.1241 6.35762 84.1103 6.42687 84.1311 6.50998C84.1865 6.787 84.2142 7.06402 84.2142 7.34796C84.2142 7.47262 84.228 7.59036 84.2488 7.71502C84.2765 7.8743 84.2904 8.03359 84.2765 8.19288C84.2696 8.28983 84.2765 8.38679 84.2765 8.49067C84.2765 8.71229 84.2142 8.91313 84.1588 9.12782C84.0549 9.57105 83.9441 10.0143 83.8402 10.4575C83.8194 10.5614 83.7986 10.6584 83.7848 10.7622C83.7848 10.783 83.7779 10.8107 83.7779 10.8315C83.7779 10.9492 83.8748 11.0116 83.9787 10.9631C84.1241 10.9007 84.2488 10.8176 84.3665 10.7068C84.4773 10.596 84.5812 10.4852 84.6851 10.3675C84.7197 10.3329 84.7474 10.2844 84.789 10.2498C84.8513 10.1874 84.9206 10.1874 84.9829 10.2498C85.0037 10.2705 85.0175 10.2913 85.0314 10.319C85.1283 10.5406 85.2253 10.7692 85.3153 10.9908C85.3569 11.0877 85.3846 11.1916 85.3153 11.2886C85.2392 11.3925 85.1214 11.4409 84.9968 11.4409C84.9067 11.4409 84.8098 11.4271 84.7197 11.4132C84.5882 11.3925 84.4635 11.3578 84.3319 11.3578C84.0549 11.3578 83.7986 11.2678 83.5355 11.1985C83.39 11.157 83.2308 11.1431 83.0784 11.1085C82.9607 11.0877 82.8499 11.067 82.739 11.0323C82.5382 10.97 82.3443 10.9077 82.1365 10.9007C82.0811 10.9007 82.0257 10.8869 81.9703 10.873C81.7002 10.7969 81.4232 10.8038 81.1531 10.7484C81.1185 10.7484 81.0838 10.7484 81.0561 10.7484C80.7791 10.783 80.509 10.8176 80.232 10.8592C80.2112 10.8592 80.1835 10.8661 80.1628 10.873C79.9342 10.8938 79.7057 10.9285 79.4771 10.9354C79.1655 10.9423 78.8608 11.0185 78.556 11.0323C78.4937 11.0323 78.4383 11.0531 78.376 11.06C78.0158 11.1293 77.6557 11.1985 77.2956 11.2609C76.9701 11.3163 76.6446 11.3648 76.326 11.4202C76.2637 11.434 76.1944 11.4479 76.1321 11.4686C75.8135 11.5794 75.488 11.6279 75.1556 11.6764C74.7886 11.7318 74.4284 11.808 74.0614 11.8842C73.819 11.9326 73.5766 12.0019 73.3273 12.0365C73.1541 12.0573 73.0018 12.1058 72.8425 12.175C72.7594 12.2097 72.6694 12.2166 72.5793 12.2304C72.3023 12.2789 72.0461 12.369 71.7829 12.4728C71.6859 12.5144 71.589 12.5421 71.4851 12.5629C71.0765 12.6391 70.6887 12.7776 70.3008 12.923C69.8853 13.0754 69.4767 13.2346 69.0612 13.387C68.9573 13.4286 68.8534 13.387 68.8188 13.2693C68.7495 13.0615 68.6872 12.8468 68.6179 12.6391C68.5487 12.4174 68.5348 12.1889 68.5417 11.9534C68.5417 11.7664 68.5417 11.5794 68.5417 11.3855H68.5348C68.5348 11.1154 68.5348 10.8384 68.5348 10.5683C68.5348 10.5475 68.5348 10.5337 68.5348 10.5129C68.4933 10.1943 68.5418 9.8827 68.611 9.57798C68.6179 9.53642 68.6249 9.49487 68.6249 9.45332C68.611 9.19707 68.6664 8.94083 68.6803 8.68459C68.6941 8.50452 68.7149 8.32446 68.7287 8.13747C68.7357 8.01281 68.701 7.902 68.6249 7.80505C68.4517 7.59036 68.2855 7.36874 68.057 7.20253C67.9531 7.12635 67.8631 7.02246 67.7799 6.92551C67.6414 6.77315 67.496 6.62079 67.3783 6.45457C67.219 6.23296 67.0805 5.99749 66.942 5.76202C66.9212 5.72047 66.9073 5.67199 66.8935 5.63044L66.9281 5.61659ZM81.9772 10.6237C82.0326 10.6584 82.0742 10.6237 82.1157 10.596C82.282 10.4644 82.4551 10.3329 82.6213 10.1874C82.6836 10.132 82.7321 10.0558 82.7667 9.97966C82.9399 9.60568 82.9814 9.19707 83.0299 8.78847C83.0576 8.5253 83.0576 8.26213 83.0715 7.99896C83.0715 7.95048 83.0715 7.902 83.0715 7.86045C83.0853 7.64576 83.0438 7.43799 82.9607 7.24408C82.8845 7.07787 82.8222 6.91858 82.739 6.75237C82.6975 6.66926 82.649 6.58616 82.5936 6.50998C82.5659 6.47535 82.5382 6.4338 82.4759 6.44765C82.4135 6.46842 82.3789 6.50998 82.3789 6.57231C82.3789 6.62079 82.3789 6.66926 82.3789 6.71082C82.3789 6.98091 82.3789 7.25793 82.3789 7.52803C82.3789 7.8466 82.3581 8.16517 82.3443 8.48375C82.3443 8.53915 82.3443 8.59455 82.3443 8.64996C82.3304 8.78154 82.3027 8.92005 82.2889 9.05164C82.2681 9.21093 82.2473 9.37021 82.2196 9.52257C82.1781 9.77882 82.1019 10.0212 81.998 10.2636C81.9772 10.319 81.9565 10.3813 81.9426 10.4367C81.9218 10.5198 81.9426 10.5614 82.0049 10.603L81.9772 10.6237ZM80.2112 10.409C80.2043 10.4783 80.232 10.5406 80.2874 10.5614C80.3359 10.5822 80.3844 10.5614 80.4328 10.4991C80.4467 10.4783 80.4605 10.4506 80.4744 10.4229C80.5367 10.2428 80.606 10.0697 80.6545 9.88962C80.7376 9.5849 80.8068 9.28018 80.883 8.97546C80.9661 8.60841 80.98 8.24135 80.883 7.8743C80.8484 7.73579 80.8138 7.59036 80.8622 7.44492C80.883 7.38259 80.8622 7.31334 80.8622 7.25101C80.8622 7.17483 80.8484 7.09172 80.8345 7.01554C80.793 6.8147 80.7514 6.61386 80.7029 6.41302C80.6822 6.33684 80.6406 6.32299 80.5783 6.32299C80.516 6.32299 80.4813 6.36454 80.4744 6.4338C80.4536 6.66234 80.419 6.89088 80.419 7.11942C80.419 7.44492 80.4329 7.77735 80.4467 8.10284C80.4467 8.15825 80.4467 8.21365 80.4467 8.26906C80.4883 8.60148 80.4259 8.92698 80.3774 9.24555C80.3359 9.52257 80.2874 9.79959 80.2597 10.0766C80.2528 10.1805 80.2389 10.2913 80.2251 10.3952L80.2112 10.409ZM78.556 8.40064C78.556 8.78847 78.5837 9.16937 78.6045 9.5572C78.6114 9.72341 78.6391 9.8827 78.653 10.0489C78.653 10.0835 78.653 10.1182 78.6668 10.1459C78.6807 10.1805 78.6945 10.2151 78.7153 10.2428C78.7777 10.3052 78.84 10.2982 78.8885 10.229C78.93 10.1736 78.9369 10.1112 78.9369 10.042C78.9369 9.70956 78.9369 9.37714 78.9369 9.03779C78.9369 8.94083 78.9508 8.84387 78.9508 8.73999C78.9508 8.67766 78.9508 8.61533 78.9508 8.55993C78.9439 8.40757 78.9369 8.26213 78.9231 8.10977C78.93 8.10977 78.9369 8.10977 78.9439 8.10977C78.93 7.93663 78.9092 7.76349 78.8954 7.59036C78.8885 7.50032 78.8746 7.41029 78.8608 7.32719C78.8469 7.24408 78.8192 7.16097 78.7499 7.10557C78.6807 7.04324 78.5768 7.07787 78.5491 7.1679C78.5491 7.18868 78.5491 7.21638 78.5491 7.23716C78.5491 7.62498 78.5353 8.01974 78.5491 8.40757L78.556 8.40064ZM92.0054 24.821C92.0539 24.7864 92.1023 24.7518 92.1508 24.7102C92.3793 24.5163 92.601 24.3293 92.8226 24.1354C92.8641 24.1008 92.8988 24.0592 92.878 23.9969C92.8503 23.9346 92.8087 23.8861 92.7325 23.8791C92.6841 23.8791 92.6356 23.8791 92.594 23.8791C92.4417 23.8722 92.2962 23.8792 92.1854 23.9969C92.04 24.1354 91.9084 24.2808 91.7768 24.4193C91.7076 24.4955 91.6937 24.5856 91.7076 24.6825C91.7283 24.8556 91.8669 24.918 92.0123 24.821H92.0054ZM73.6805 39.7663C73.6805 39.7663 73.7428 39.697 73.7636 39.6555C73.8121 39.5446 73.8813 39.4546 73.9644 39.3646C74.0406 39.2746 74.1168 39.1845 74.186 39.0876C74.2414 39.0183 74.2345 39.0045 74.1376 38.9283C74.0822 38.956 74.0267 38.9906 73.9713 39.0252C73.8605 39.1014 73.7497 39.1845 73.632 39.2538C73.4173 39.3715 73.4242 39.51 73.4935 39.7178C73.5212 39.794 73.6181 39.8147 73.6805 39.7593V39.7663ZM76.8454 41.1375C76.8454 41.096 76.8108 41.0752 76.7692 41.0752C76.7277 41.0752 76.6723 41.1306 76.6723 41.1791C76.6723 41.2137 76.7069 41.2483 76.7485 41.2483C76.79 41.2483 76.8454 41.186 76.8454 41.1375ZM81.5063 43.506C81.4855 43.4645 81.4509 43.416 81.4163 43.3814C81.3332 43.3121 81.2778 43.2359 81.2293 43.139C81.1739 43.0351 81.1046 42.9935 81.0146 43.0282C80.8969 43.0628 80.7791 43.0559 80.6683 43.0559C80.5714 43.0559 80.4744 43.0628 80.3774 43.0836C80.1835 43.1182 79.9965 43.1182 79.8026 43.1044C79.6087 43.0974 79.4217 43.0559 79.2347 43.0282C79.0339 42.9935 78.8331 43.0005 78.6322 42.9935C78.5214 42.9935 78.4383 42.952 78.3829 42.862C78.3483 42.8066 78.3275 42.7442 78.2998 42.6819C78.2444 42.5503 78.1544 42.5018 78.0158 42.5295C77.8704 42.5572 77.7181 42.5849 77.5726 42.6196C77.4203 42.6542 77.3025 42.6126 77.2194 42.4811C77.1986 42.4464 77.1779 42.4049 77.164 42.3703C77.1086 42.2387 77.0117 42.1902 76.8731 42.2248C76.8385 42.2317 76.8039 42.2456 76.7623 42.2525C76.5892 42.3079 76.423 42.3633 76.2568 42.4187C76.1183 42.4672 75.9936 42.4741 75.8689 42.3841C75.8205 42.3495 75.7651 42.3148 75.7166 42.2871C75.4396 42.1071 75.1764 41.8924 74.8717 41.7608C74.6431 41.6569 74.4423 41.5046 74.2622 41.3314C74.1583 41.2345 74.0337 41.1444 73.9159 41.0683C73.729 40.9436 73.535 40.8328 73.3411 40.7081C73.1957 40.6112 73.0918 40.4796 73.0641 40.3065C73.0503 40.2441 73.0364 40.1749 73.0295 40.1125C73.0087 39.974 72.9256 39.9117 72.794 39.9533C72.6624 39.9879 72.5585 39.9533 72.4685 39.8701C72.3785 39.794 72.3023 39.7039 72.2261 39.6139C72.0945 39.4615 71.9768 39.2953 71.8383 39.1499C71.7206 39.0252 71.6375 38.8798 71.5543 38.7344C71.4643 38.5681 71.3535 38.4158 71.2496 38.2634C71.2081 38.2011 71.1527 38.1803 71.0903 38.208C71.0557 38.2219 71.028 38.2496 71.0142 38.2842C70.9449 38.4089 70.841 38.5058 70.7164 38.582C70.5155 38.7067 70.3562 38.8867 70.19 39.046C70.1346 39.1014 70.0861 39.1637 70.0377 39.2261C69.9476 39.3369 69.8645 39.4477 69.7814 39.5585C69.6914 39.6832 69.5875 39.8009 69.5113 39.9325C69.2689 40.3272 69.0335 40.722 68.798 41.1167C68.7287 41.2345 68.6733 41.3661 68.611 41.4976C68.5418 41.6431 68.4725 41.7954 68.4032 41.9409C68.3617 42.0309 68.2855 42.0794 68.1955 42.0932C67.9392 42.1417 67.6968 42.2248 67.4544 42.3079C67.3159 42.3564 67.1774 42.4049 67.0389 42.4257C66.8935 42.4464 66.7965 42.5157 66.7342 42.6403C66.6372 42.8135 66.5472 42.9866 66.4433 43.1528C66.2286 43.4991 66.0139 43.8385 65.7923 44.1778C65.6123 44.4548 65.4599 44.7457 65.3075 45.0366C65.2798 45.092 65.2591 45.1612 65.2314 45.2166C65.1967 45.2997 65.2175 45.3759 65.2798 45.4382C65.3145 45.4729 65.356 45.5075 65.4045 45.5283C65.6746 45.6737 65.9378 45.8192 66.2079 45.9646C67.6553 46.7195 69.165 47.3289 70.7164 47.8206C70.7718 47.8345 70.8272 47.8553 70.8826 47.8622C70.931 47.8622 70.9865 47.8622 71.0003 47.8137C71.0072 47.7791 71.0003 47.7306 70.9795 47.696C70.9311 47.6129 70.8756 47.5367 70.8272 47.4605C70.654 47.1973 70.4601 46.948 70.3078 46.671C70.0169 46.1516 69.7052 45.6529 69.3728 45.1612C69.3105 45.0643 69.2689 44.9604 69.262 44.8496C69.2482 44.718 69.2482 44.5864 69.262 44.4548C69.2828 44.2955 69.2828 44.1363 69.2966 43.977C69.2966 43.9423 69.3036 43.9008 69.3105 43.8662C69.3659 43.5753 69.4074 43.2844 69.4074 42.9866C69.4074 42.952 69.4074 42.9104 69.4074 42.8758C69.4213 42.6958 69.4421 42.5088 69.4559 42.3287C69.4767 41.9893 69.4905 41.6431 69.5113 41.3037C69.5113 41.2137 69.5321 41.1237 69.5459 41.0406C69.5529 40.9713 69.5667 40.902 69.5806 40.8328C69.5944 40.7151 69.6221 40.6043 69.6983 40.5073C69.7399 40.4519 69.7745 40.3896 69.7953 40.3203C69.8991 40.0571 70.0654 39.8286 70.2523 39.6139C70.2939 39.5654 70.3493 39.5169 70.4255 39.5446C70.4947 39.5654 70.5155 39.6347 70.5363 39.697C70.5363 39.7178 70.5363 39.7455 70.5363 39.7663C70.5363 39.8355 70.5363 39.9048 70.5363 39.981C70.5432 40.1195 70.5501 40.2649 70.5571 40.4034C70.564 40.5558 70.564 40.7151 70.5779 40.8674C70.6056 41.1652 70.6402 41.463 70.6748 41.7608C70.7094 42.0725 70.7302 42.3841 70.7648 42.7027C70.7856 42.8758 70.8133 43.049 70.8964 43.2013C71.0419 43.4576 71.1804 43.7207 71.3327 43.977C71.4989 44.2609 71.679 44.5379 71.8521 44.815C71.9145 44.9119 71.9768 45.0158 72.053 45.1058C72.3577 45.4729 72.6624 45.8469 72.9394 46.2347C73.0226 46.3524 73.1403 46.4494 73.2857 46.4909C73.355 46.5117 73.4242 46.5463 73.4935 46.574C73.8536 46.7125 74.2068 46.858 74.5669 46.9965C74.8232 47.0934 75.0864 47.1558 75.3426 47.2527C75.6542 47.3774 75.9728 47.4397 76.2983 47.5021C76.4784 47.5367 76.6584 47.5505 76.8316 47.6129C77.0394 47.689 77.254 47.696 77.4687 47.6475C77.5865 47.6198 77.7111 47.6059 77.8289 47.5852C78.1613 47.5436 78.4937 47.5159 78.8192 47.4536C79.1585 47.3843 79.5048 47.3566 79.8511 47.3289C79.9411 47.322 80.0173 47.2943 80.0727 47.225C80.1212 47.1696 80.1628 47.1211 80.2043 47.0588C80.3497 46.8164 80.5021 46.5671 80.6406 46.3178C80.9938 45.6806 81.3609 45.0504 81.7695 44.4479C81.8734 44.2955 81.8803 44.157 81.7972 43.9977C81.7071 43.8385 81.631 43.6722 81.5409 43.513L81.5063 43.506ZM74.8994 40.6112C74.9894 40.5419 75.0587 40.4519 75.0933 40.3411C75.1418 40.1887 75.1764 40.0364 75.211 39.8771C75.2318 39.7801 75.121 39.6901 75.024 39.7109C74.9478 39.7247 74.8855 39.7663 74.837 39.8286C74.7747 39.9186 74.7262 40.0156 74.7332 40.1264C74.7332 40.2303 74.7332 40.3342 74.7332 40.438C74.7332 40.5627 74.7539 40.5765 74.8924 40.6042L74.8994 40.6112ZM94.9349 26.5178C94.9695 26.5178 95.011 26.5178 95.0457 26.5178H106.48C106.514 26.5178 106.556 26.5178 106.59 26.5178C106.743 26.5178 106.833 26.4347 106.833 26.2892C106.833 25.8598 106.833 25.4235 106.833 24.9942C106.833 24.9803 106.833 24.9665 106.833 24.9526C106.819 24.8556 106.729 24.7725 106.632 24.7656C106.597 24.7656 106.556 24.7656 106.521 24.7656H95.1149C95.0803 24.7656 95.0387 24.7656 95.0041 24.7656C94.8795 24.7656 94.8102 24.6894 94.7686 24.5925C94.7202 24.4817 94.6994 24.357 94.6717 24.2393C94.644 24.1354 94.7271 24.0384 94.831 24.0246C94.8656 24.0246 94.9072 24.0246 94.9418 24.0246H106.445C106.48 24.0246 106.521 24.0246 106.556 24.0246C106.667 24.0246 106.757 23.9276 106.75 23.8168C106.75 23.6852 106.736 23.5536 106.715 23.4221C106.674 23.0966 106.625 22.7711 106.584 22.4456C106.577 22.3832 106.549 22.3417 106.514 22.3001C106.452 22.224 106.369 22.217 106.272 22.217C103.239 22.217 100.212 22.217 97.1787 22.217C96.0845 22.217 94.9972 22.217 93.903 22.217C93.7575 22.217 93.6536 22.1547 93.5982 22.03C93.5567 21.94 93.529 21.8361 93.5082 21.7392C93.5013 21.7045 93.5221 21.6561 93.5428 21.6214C93.5982 21.5314 93.6814 21.5314 93.7783 21.5314C97.8782 21.5314 101.985 21.5314 106.085 21.5314C106.12 21.5314 106.161 21.5314 106.196 21.5314C106.307 21.5245 106.39 21.4137 106.362 21.3098C106.244 20.8389 106.126 20.361 106.009 19.8901C105.988 19.8 105.933 19.7238 105.843 19.6961C105.794 19.6754 105.732 19.6754 105.676 19.6754C101.763 19.6754 97.8436 19.6754 93.9307 19.6754C93.896 19.6754 93.8545 19.6754 93.8199 19.6754C93.6952 19.6754 93.6121 19.5853 93.619 19.4607C93.619 19.3914 93.6329 19.3222 93.6467 19.2529C93.6536 19.2114 93.6744 19.1698 93.7021 19.1283C93.7575 19.0382 93.8476 19.0313 93.9514 19.0313C97.7605 19.0313 101.576 19.0313 105.385 19.0313C105.42 19.0313 105.455 19.0313 105.482 19.0313C105.642 19.0313 105.711 18.9274 105.656 18.782C105.475 18.311 105.295 17.847 105.115 17.3761C105.046 17.203 104.935 17.1268 104.741 17.1268C101.161 17.1268 97.5804 17.1268 93.9999 17.1268C93.9584 17.1268 93.9168 17.1268 93.8753 17.1268C93.7991 17.1268 93.7367 17.0852 93.709 17.016C93.6883 16.9744 93.6813 16.9259 93.6813 16.8844C93.6606 16.6212 93.7506 16.5381 94.0207 16.5381C97.4904 16.5381 100.953 16.5381 104.423 16.5381C104.596 16.5381 104.603 16.5381 104.665 16.3788C104.395 15.8317 104.111 15.2984 103.793 14.7721C103.716 14.6405 103.606 14.5782 103.446 14.5782C100.24 14.5782 97.0402 14.5782 93.8337 14.5782C93.7852 14.5782 93.7367 14.5782 93.6952 14.5782C93.522 14.5436 93.4251 14.2596 93.529 14.1142C93.5844 14.038 93.6606 14.0242 93.7506 14.0242C96.8324 14.0242 99.9143 14.0242 102.996 14.0242C103.169 14.0242 103.176 14.0242 103.225 13.8579C102.844 13.29 102.442 12.736 102.013 12.1958C101.916 12.0712 101.791 12.0158 101.618 12.0158C99.0278 12.0158 96.4308 12.0158 93.8406 12.0158C93.7991 12.0158 93.7575 12.0158 93.716 12.0158C93.619 12.0088 93.529 11.9326 93.5013 11.8357C93.4666 11.711 93.4944 11.6279 93.5775 11.5587C93.6329 11.5171 93.6952 11.524 93.7506 11.524C96.1884 11.524 98.6261 11.524 101.064 11.524C101.105 11.524 101.147 11.524 101.189 11.524C101.299 11.5033 101.334 11.4063 101.265 11.3163C101.258 11.3024 101.244 11.2955 101.237 11.2817C100.718 10.6999 100.177 10.1459 99.6096 9.61953C99.4988 9.51565 99.3741 9.46717 99.2148 9.46717C97.3449 9.46717 95.4681 9.46717 93.5982 9.46717C93.5636 9.46717 93.5221 9.46717 93.4874 9.46717C93.3766 9.45332 93.3074 9.34251 93.342 9.23863C93.3835 9.10704 93.4944 9.03086 93.6398 9.03086C95.2604 9.03086 96.8879 9.03086 98.5084 9.03086C98.5431 9.03086 98.5777 9.03086 98.6054 9.03086C98.73 9.03086 98.737 9.01701 98.7716 8.88543C98.7231 8.83695 98.6677 8.78847 98.6123 8.74692C98.3907 8.56685 98.1691 8.38679 97.9405 8.20673C97.4142 7.79812 96.8671 7.41029 96.313 7.04324C96.1884 6.96013 96.0568 6.91858 95.9044 6.91858C95.5166 6.91858 95.1357 6.91858 94.7479 6.91858C94.6232 6.91858 94.5401 6.88395 94.4986 6.75929C94.5747 6.57231 94.6509 6.52383 94.8448 6.52383C94.9279 6.52383 95.0041 6.52383 95.0872 6.52383C95.2119 6.52383 95.2327 6.4892 95.2119 6.34377C94.831 6.136 94.4501 5.92131 94.0622 5.71354C93.9168 5.63736 93.8199 5.69969 93.8129 5.8659C93.8129 5.98364 93.8129 6.10137 93.806 6.21911C93.7852 6.57923 93.6883 6.91166 93.5013 7.2233C93.4043 7.38259 93.2935 7.54188 93.1896 7.69424C92.9749 7.99896 92.7949 8.32446 92.5317 8.58763C92.4832 8.63611 92.4417 8.71229 92.4278 8.78154C92.4001 8.94083 92.3863 9.10012 92.3793 9.2594C92.3516 10.2013 92.3932 11.1362 92.3447 12.0781C92.317 12.7568 92.3447 13.4355 92.3447 14.1073C92.3447 14.3427 92.3447 14.5782 92.3447 14.8137C92.3447 14.9799 92.2893 15.1184 92.1993 15.25C92.1785 15.2846 92.1508 15.3192 92.13 15.3538C91.9915 15.5131 91.9777 15.6724 92.0885 15.8594C92.1647 15.9841 92.1924 16.1364 92.1785 16.2819C92.1647 16.4135 92.1993 16.5312 92.2685 16.642C92.3586 16.7805 92.4209 16.9329 92.4624 17.0922C92.5109 17.3138 92.5733 17.5285 92.5525 17.757C92.5525 17.7986 92.5525 17.847 92.5663 17.8817C92.5871 17.9509 92.5663 17.9994 92.5317 18.0548C92.5109 18.0825 92.4902 18.1102 92.4763 18.1379C92.4278 18.221 92.4209 18.2972 92.4902 18.3803C92.5594 18.4634 92.5802 18.5604 92.5802 18.6712C92.5802 18.8651 92.5802 19.0659 92.5802 19.2598C92.5802 19.4538 92.5663 19.6477 92.5594 19.8347C92.5594 19.8485 92.5594 19.8624 92.5594 19.8762C92.5248 20.2225 92.4902 20.5618 92.4555 20.9081C92.4555 20.9427 92.4555 20.9704 92.4694 21.0051C92.4902 21.0674 92.5109 21.1297 92.5386 21.1921C92.5663 21.2475 92.5733 21.2959 92.5525 21.3583C92.4902 21.6076 92.4347 21.8569 92.3655 22.1062C92.2962 22.3555 92.2201 22.5979 92.1508 22.8472C92.1162 22.9719 92.1924 23.0689 92.3239 23.0481C92.4902 23.0204 92.6494 23.0619 92.8087 23.1035C92.9611 23.145 93.0927 23.2212 93.2104 23.332C93.342 23.4567 93.4112 23.616 93.4805 23.7753C93.7021 24.2601 93.8545 24.7656 93.896 25.2989C93.9099 25.4512 93.9376 25.5967 93.9514 25.7421C93.9653 25.8598 93.9861 25.9776 93.9722 26.0884C93.9237 26.4416 93.8545 26.7879 93.7575 27.1341C93.6398 27.5566 93.5221 27.9721 93.3628 28.3807C93.1204 29.0179 92.8711 29.655 92.6287 30.2852C92.5525 30.4722 92.4832 30.6661 92.4001 30.8462C92.3378 30.9916 92.227 31.0817 92.0538 31.0609C92.0331 31.0609 92.0192 31.0609 91.9984 31.0609C91.8738 31.0609 91.7561 31.1371 91.7214 31.2548C91.673 31.4002 91.6314 31.5388 91.6245 31.6911C91.6245 31.7465 91.5968 31.8089 91.5691 31.8573C91.5483 31.8989 91.5067 31.9404 91.4721 31.9751C91.389 32.0651 91.3613 32.1621 91.4028 32.2867C91.4375 32.3906 91.4583 32.5083 91.4998 32.6122C91.5552 32.7507 91.5275 32.8685 91.4306 32.9793C91.3613 33.0624 91.2713 33.1386 91.2366 33.2355C91.1605 33.4433 91.0912 33.658 91.0704 33.8727C91.0497 34.0596 91.0704 34.2536 91.1189 34.4475C91.1535 34.586 91.1189 34.7176 91.0289 34.8284C90.9181 34.96 90.8211 35.0915 90.7103 35.2231C90.6064 35.3478 90.5441 35.4794 90.5579 35.6456C90.5649 35.7287 90.5579 35.8118 90.5579 35.9018C90.5579 35.9642 90.5579 36.0403 90.5856 36.0957C90.6965 36.3381 90.8073 36.5736 90.925 36.8091C90.9665 36.8853 91.0496 36.9337 91.1328 36.9684C91.2297 37.0099 91.3197 37.0515 91.4028 37.1138C91.5344 37.2108 91.6591 37.3216 91.7907 37.4185C92.0331 37.5986 92.2962 37.7579 92.5248 37.9587C92.601 38.028 92.7048 38.0626 92.8087 38.0695C92.878 38.0695 92.9472 38.0903 93.0165 38.1111C93.1827 38.1595 93.3489 38.215 93.5151 38.2634C93.8268 38.3535 94.1453 38.4504 94.4639 38.5404C94.547 38.5612 94.6301 38.5751 94.7132 38.5751C94.8864 38.5751 95.0318 38.6305 95.1565 38.7551C95.3919 38.9906 95.6274 39.2261 95.856 39.4685C95.9529 39.5654 96.0637 39.6347 96.1884 39.6624C96.4654 39.7316 96.7493 39.787 97.0194 39.8632C97.248 39.9325 97.4765 40.0087 97.6981 40.0987C97.9267 40.1956 98.1621 40.258 98.3976 40.3065C98.4876 40.3272 98.5708 40.3411 98.6608 40.3688C98.8755 40.438 99.0902 40.5142 99.3049 40.5765C99.4918 40.625 99.6719 40.6943 99.845 40.7774C99.9974 40.8536 100.157 40.9159 100.309 40.9782C100.441 41.0267 100.558 40.999 100.655 40.8951C100.891 40.6389 101.126 40.3826 101.362 40.1333C101.313 39.9879 101.299 39.974 101.161 39.974C100.912 39.974 100.662 39.974 100.413 39.974C100.302 39.974 100.198 39.9394 100.108 39.884C100.039 39.8424 99.9766 39.794 99.9143 39.7455C99.7273 39.5931 99.5196 39.4754 99.2979 39.3784C99.1179 39.3023 98.9447 39.2053 98.7716 39.1153C98.7577 38.9837 98.7716 38.9629 98.8824 38.9491C98.917 38.9491 98.9586 38.9491 98.9932 38.9491C100.025 38.9491 101.064 38.9491 102.096 38.9491C102.22 38.9491 102.324 38.9075 102.407 38.8175C102.463 38.7551 102.511 38.6928 102.553 38.6305C102.795 38.2842 103.038 37.9379 103.28 37.6055C103.218 37.4393 103.211 37.4393 103.065 37.4393C103.038 37.4393 103.01 37.4393 102.982 37.4393C100.6 37.4393 98.2176 37.4393 95.8421 37.4393C95.5859 37.4393 95.3296 37.4393 95.0803 37.3562C95.0387 37.3423 94.9972 37.3354 94.9556 37.3285C94.3323 37.2246 93.7645 36.9684 93.2243 36.6429C93.1758 36.6152 93.1619 36.5805 93.1689 36.5251C93.1758 36.4767 93.2243 36.4628 93.2658 36.4559C93.3143 36.4559 93.3628 36.4559 93.4043 36.4559C96.8532 36.4559 100.302 36.4559 103.751 36.4559C103.91 36.4559 104.014 36.3935 104.083 36.262C104.284 35.8811 104.485 35.5002 104.686 35.1123C104.734 35.0154 104.672 34.9046 104.561 34.8907C104.52 34.8907 104.478 34.8907 104.437 34.8907H92.4209C92.4209 34.8907 92.3516 34.8907 92.3239 34.8907C92.1785 34.8907 92.1023 34.7938 92.1162 34.6552C92.13 34.5306 92.1439 34.399 92.1369 34.2743C92.1231 34.0319 92.2201 33.9488 92.4555 33.9488C96.6039 33.9488 100.745 33.9488 104.894 33.9488C104.928 33.9488 104.97 33.9488 105.005 33.9488C105.067 33.9488 105.122 33.9281 105.171 33.8934C105.233 33.845 105.275 33.7826 105.302 33.7134C105.455 33.3117 105.607 32.9031 105.753 32.5153C105.697 32.3767 105.621 32.3283 105.496 32.3421C105.462 32.3421 105.434 32.3421 105.399 32.3421C101.182 32.3421 96.9571 32.3421 92.7395 32.3421C92.6979 32.3421 92.6564 32.3421 92.6148 32.3421C92.4971 32.3352 92.4486 32.2313 92.5109 32.1344C92.6079 31.982 92.7048 31.8366 92.7949 31.6773C92.8849 31.5249 93.0026 31.4487 93.1966 31.4487C97.4003 31.4487 101.597 31.4487 105.801 31.4487C105.919 31.4487 106.016 31.4279 106.078 31.3241C106.106 31.2756 106.126 31.2271 106.14 31.1717C106.223 30.8185 106.307 30.4722 106.39 30.119C106.445 29.8628 106.39 29.7935 106.133 29.7935C102.061 29.7935 97.9821 29.7935 93.9099 29.7935C93.8683 29.7935 93.8268 29.7935 93.7852 29.7935C93.6675 29.7866 93.5982 29.6896 93.619 29.5788C93.6398 29.468 93.6675 29.3572 93.6952 29.2533C93.7506 29.0317 93.8476 28.9625 94.0761 28.9625H106.286C106.32 28.9625 106.362 28.9625 106.397 28.9625C106.494 28.9625 106.611 28.8655 106.625 28.7686C106.646 28.6231 106.667 28.4777 106.681 28.3392C106.708 28.0899 106.729 27.8405 106.764 27.5981C106.791 27.3696 106.722 27.2449 106.466 27.2519C102.643 27.2519 98.8131 27.2519 94.9903 27.2519C94.9487 27.2519 94.9072 27.2519 94.8656 27.2519C94.7825 27.2449 94.6925 27.148 94.6994 27.0718C94.7063 26.9402 94.7132 26.8086 94.7202 26.6771C94.7271 26.5524 94.8102 26.4693 94.9349 26.4624V26.5178ZM94.2769 41.9686C94.2769 41.8162 94.2977 41.6569 94.2977 41.5046C94.2977 41.1514 94.2977 40.7982 94.2977 40.445C94.2977 40.2995 94.2423 40.2026 94.1454 40.1125C94.0207 40.0017 93.9168 40.0017 93.806 40.1264C93.7298 40.2164 93.6536 40.3064 93.5844 40.4034C93.2035 40.902 92.8295 41.4145 92.4486 41.9062C92.1577 42.2802 91.8599 42.6334 91.5621 43.0005C91.4583 43.1321 91.3752 43.2706 91.2782 43.4022C91.0774 43.6792 90.8765 43.9562 90.6687 44.2263C90.5164 44.4202 90.3502 44.6003 90.2255 44.808C89.9831 45.1959 89.7061 45.556 89.4152 45.9092C89.2906 46.0615 89.1798 46.2278 89.0759 46.394C89.0066 46.4979 89.0274 46.5256 89.1451 46.5948C89.1867 46.5602 89.2282 46.5394 89.2629 46.5048C89.4429 46.3247 89.6507 46.1724 89.8377 46.0061C90.2394 45.6529 90.6618 45.3344 91.0981 45.0366C91.4028 44.8219 91.7422 44.6487 92.0262 44.4063C92.3517 44.1363 92.6841 43.8731 92.9957 43.5891C93.1966 43.4091 93.4043 43.229 93.6259 43.0697C93.7991 42.9451 93.9653 42.8204 94.1315 42.6819C94.2562 42.5849 94.3185 42.4464 94.3046 42.2871C94.3046 42.2387 94.2908 42.1833 94.2908 42.1348C94.2908 42.0794 94.2839 42.024 94.2839 41.9686H94.2769ZM89.4014 38.2011C89.3875 38.0764 89.3668 37.9587 89.2836 37.8479C89.1867 37.7232 89.0759 37.7025 88.9512 37.8063C88.8958 37.8548 88.8473 37.8964 88.7989 37.9518C88.6742 38.0834 88.5495 38.2149 88.4249 38.3535C88.3556 38.4296 88.3487 38.5197 88.3903 38.6166C88.4318 38.6997 88.4664 38.7898 88.508 38.8729C88.6465 39.1291 88.7919 39.0876 88.9235 38.9421C89.0482 38.7967 89.1728 38.6513 89.3044 38.5058C89.3806 38.4227 89.4014 38.3188 89.4083 38.2011H89.4014ZM88.6811 20.0286C88.5426 19.8624 88.3972 19.7031 88.2587 19.5369C88.1963 19.4676 88.134 19.3914 88.0648 19.3291C87.9747 19.246 87.8708 19.1975 87.7462 19.1975C87.4207 19.1975 87.0952 19.1975 86.7697 19.1975C86.4996 19.1906 86.2295 19.1629 85.9525 19.149C85.8624 19.149 85.7724 19.1421 85.6824 19.1421C85.3707 19.1421 85.0522 19.1421 84.7405 19.1421C84.6643 19.1421 84.5882 19.1283 84.512 19.1352C84.3873 19.1352 84.2557 19.1352 84.1311 19.149C83.951 19.1698 83.7779 19.1698 83.5978 19.149C83.2169 19.0867 82.8845 19.2114 82.6075 19.4745C82.462 19.613 82.3304 19.7723 82.2127 19.9385C81.9357 20.3402 81.631 20.7142 81.3124 21.0812C81.2362 21.1713 81.1531 21.2613 81.0908 21.3513C81.0492 21.4137 81.0215 21.4829 81.0077 21.5591C80.9523 21.7946 80.9107 22.03 80.8622 22.2586C80.8068 22.5148 80.7791 22.7711 80.786 23.0273C80.786 23.1727 80.8138 23.3182 80.8345 23.4636C80.8345 23.4775 80.8345 23.4913 80.8345 23.5052C80.8484 23.7129 80.8691 23.9276 80.8691 24.1354C80.8691 24.5648 80.8691 24.9942 80.8691 25.4166C80.8691 25.756 80.883 26.0953 80.9038 26.4277C80.9107 26.5662 80.9384 26.7048 80.9038 26.8433C80.8899 26.9056 80.9038 26.9748 80.9453 27.0303C80.9869 27.0926 81.0284 27.1549 81.0838 27.2103C81.1739 27.3003 81.2708 27.3765 81.3678 27.4596C81.444 27.5289 81.5201 27.5981 81.5963 27.6743C81.7348 27.8198 81.7833 27.9929 81.7071 28.1937C81.6725 28.2907 81.6379 28.3877 81.5825 28.4708C81.3955 28.7616 81.2016 29.0387 81.0077 29.3226C80.9384 29.4334 80.8345 29.4888 80.7029 29.5027C80.6268 29.5096 80.5436 29.5373 80.4744 29.565C80.3982 29.5927 80.322 29.5927 80.2597 29.5581C80.045 29.4265 79.8026 29.3642 79.5672 29.281C79.3178 29.1979 79.0685 29.1218 78.8192 29.0456C78.6738 29.004 78.5283 28.9694 78.3829 28.9348C78.2929 28.914 78.2098 28.914 78.1266 28.9694C77.9812 29.0733 77.8219 29.1564 77.6765 29.2533C77.6211 29.288 77.5726 29.3364 77.5311 29.3849C77.4895 29.4403 77.4964 29.4888 77.5449 29.5373C77.5726 29.565 77.6003 29.5927 77.6349 29.5996C77.8289 29.6619 78.002 29.7728 78.2028 29.7935C78.3621 29.8143 78.5145 29.8559 78.6738 29.8766C78.7638 29.8905 78.8538 29.8766 78.9369 29.8766C79.1239 29.8766 79.3109 29.8766 79.5048 29.8766C79.6295 29.8766 79.6295 29.8766 79.6918 30.0221C79.6226 30.0983 79.5533 30.1814 79.484 30.2645C79.4148 30.3476 79.3455 30.4376 79.2694 30.5207C79.1239 30.68 79.0477 30.8808 78.9993 31.0886C78.9716 31.234 78.9508 31.3864 78.93 31.5318C78.9092 31.6842 78.8954 31.8366 78.8746 31.9958C78.8469 32.1828 78.9508 32.3352 79.1378 32.3767C79.1862 32.3837 79.2347 32.3975 79.2694 32.4183C79.5048 32.5637 79.7749 32.6122 80.045 32.6676C80.1835 32.6953 80.3082 32.6676 80.4398 32.6261C80.6752 32.5499 80.8899 32.4391 81.1115 32.3352C81.1808 32.3006 81.2431 32.259 81.3055 32.2175C81.4024 32.1551 81.5063 32.1413 81.6171 32.1828C81.7487 32.2313 81.8803 32.2867 82.0119 32.3213C82.1712 32.3698 82.3166 32.4391 82.462 32.5083C82.559 32.5568 82.6629 32.6053 82.7667 32.6468C82.8083 32.6676 82.8568 32.6815 82.9053 32.6815C83.0922 32.6815 83.2792 32.6745 83.4662 32.6607C83.5493 32.6607 83.6324 32.6468 83.7155 32.6884C83.7986 32.7299 83.8887 32.7576 83.9718 32.8061C84.0272 32.8408 84.0826 32.8962 84.0549 32.9793C84.0272 33.0693 83.9441 33.1247 83.8471 33.1178C83.6948 33.1039 83.5493 33.0901 83.397 33.0762C83.2862 33.0693 83.1754 33.0554 83.0645 33.0485C82.9053 33.0416 82.746 33.0347 82.5867 33.0208C82.4412 33.007 82.2958 33.0277 82.1573 33.0554C82.0396 33.0762 81.9288 33.1178 81.8179 33.1386C81.6656 33.1663 81.5132 33.187 81.3609 33.2147C81.2639 33.2286 81.1669 33.2494 81.07 33.2771C80.7999 33.3394 80.5298 33.4086 80.2666 33.471C80.0312 33.5264 79.8303 33.4433 79.6503 33.2978C79.3802 33.0693 79.3455 33.0901 79.027 33.194C78.743 33.284 78.4591 33.3671 78.1821 33.4571C77.8843 33.5541 77.5865 33.658 77.2887 33.7549C77.0947 33.8173 76.9008 33.8034 76.7346 33.6857C76.61 33.5956 76.4992 33.4848 76.3814 33.3879C76.3468 33.3602 76.3191 33.3325 76.2845 33.3048C76.1806 33.2286 76.0975 33.2355 76.0144 33.3325C75.8897 33.471 75.8205 33.6303 75.8759 33.8242C75.8966 33.9073 75.9174 33.9904 75.9313 34.0735C75.9313 34.1081 75.9451 34.1358 75.9451 34.1705C75.9451 34.2397 75.9105 34.2813 75.8551 34.2951C75.7928 34.309 75.7512 34.2882 75.7235 34.2328C75.6889 34.1635 75.6335 34.1289 75.5711 34.0943C75.4811 34.0458 75.4119 33.9696 75.3772 33.8657C75.3149 33.6995 75.2456 33.5333 75.1764 33.374C75.1764 33.3602 75.1625 33.3463 75.1556 33.3325C74.9825 33 75.0448 32.9931 75.1418 32.7369C75.1833 32.6191 75.2664 32.5984 75.3772 32.6676C75.3911 32.6745 75.398 32.6884 75.4119 32.6953C75.4811 32.7299 75.5296 32.7299 75.5781 32.6745C75.6127 32.633 75.6404 32.5845 75.6612 32.5291C75.7166 32.3629 75.772 32.2036 75.8274 32.0374C75.952 32.0166 75.9728 32.0305 75.9797 32.1413C75.9797 32.1898 75.9797 32.2452 75.9797 32.2936C75.9936 32.3906 76.1113 32.4876 76.2221 32.3837C76.2845 32.3213 76.3468 32.259 76.4091 32.1898C76.4992 32.0928 76.5684 32.072 76.6792 32.1413C76.7485 32.1828 76.8039 32.169 76.8593 32.1274C76.9078 32.0859 76.9562 32.0443 76.9839 31.9958C77.0463 31.8989 77.0948 31.8019 77.1432 31.698C77.1571 31.6634 77.164 31.6219 77.1571 31.5872C77.1432 31.4557 77.0255 31.3933 76.9147 31.4626C76.8524 31.5041 76.79 31.5595 76.7346 31.6149C76.6515 31.6911 76.5892 31.698 76.5061 31.6149C76.4853 31.5942 76.4645 31.5595 76.4438 31.5388C76.3537 31.4418 76.2775 31.4418 76.1944 31.5388C76.139 31.608 76.0906 31.698 76.0421 31.7742C76.0213 31.8089 76.0074 31.8573 75.952 31.8573C75.8966 31.8573 75.8551 31.8227 75.8343 31.7673C75.8274 31.7465 75.8205 31.7257 75.8066 31.705C75.7512 31.608 75.6473 31.6011 75.585 31.698C75.585 31.698 75.585 31.705 75.5781 31.7119C75.5088 31.892 75.3565 31.9751 75.1902 32.0305C75.0517 32.072 74.9409 32.1551 74.844 32.2659C74.6362 32.5014 74.4492 32.7507 74.2691 33.0139C74.1722 33.1593 74.1376 33.3048 74.1791 33.4641C74.193 33.5125 74.1999 33.5679 74.2207 33.6164C74.2899 33.838 74.3038 34.0666 74.3384 34.2951C74.3592 34.4059 74.3869 34.5167 74.4146 34.6275C74.4354 34.7245 74.47 34.8145 74.4977 34.9115C74.5669 35.1539 74.6362 35.3963 74.7124 35.6387C74.7401 35.7356 74.7539 35.8326 74.7193 35.9295C74.6708 36.0611 74.6224 36.1927 74.56 36.3174C74.47 36.5113 74.373 36.6983 74.3315 36.906C74.3245 36.9407 74.3176 36.9822 74.3176 37.0168C74.3245 37.1692 74.2484 37.2731 74.1306 37.3562C74.0475 37.4116 73.9644 37.467 73.8882 37.5293C73.729 37.6678 73.5489 37.6748 73.355 37.6471C73.2095 37.6263 73.1195 37.6748 73.078 37.8133C73.0572 37.8895 73.0087 37.9449 72.9464 37.9933C72.9256 38.0072 72.9048 38.021 72.884 38.028C72.7525 38.0487 72.614 38.0626 72.4754 38.0764C72.4131 38.0834 72.3508 38.0626 72.3092 38.021C72.1361 37.8617 71.963 37.7025 71.7967 37.5363C71.7552 37.4947 71.7275 37.4324 71.6998 37.3839C71.679 37.3493 71.6652 37.3146 71.6375 37.2869C71.5197 37.1553 71.4505 37.1692 71.3604 37.2454C71.1942 37.3839 71.0142 37.4878 70.8202 37.5709C70.7164 37.6124 70.6471 37.7025 70.6056 37.8063C70.564 37.9102 70.4947 38.0003 70.4116 38.0764C70.01 38.4712 69.6152 38.8729 69.2066 39.2676C68.9504 39.5239 68.6803 39.7663 68.4171 40.0087C68.2163 40.1956 68.0362 40.3965 67.8631 40.6112C67.6968 40.8189 67.5098 40.9921 67.2675 41.1167C67.0458 41.2275 66.8104 41.3176 66.5818 41.4076C66.2979 41.5184 66.0139 41.6431 65.7369 41.7539C65.5915 41.8093 65.4461 41.8647 65.3006 41.9201C65.266 41.9339 65.2314 41.9478 65.1967 41.9616C65.0097 42.0517 64.8297 42.1486 64.6427 42.2387C64.241 42.4257 63.8809 42.675 63.5277 42.9451C63.2437 43.1598 62.9459 43.3606 62.6343 43.5407C62.5166 43.6099 62.4058 43.5891 62.3088 43.513C62.0803 43.3329 61.8586 43.1598 61.637 42.9797C61.5331 42.8966 61.4362 42.8135 61.3392 42.7304C61.36 42.5919 61.3808 42.578 61.5124 42.578C61.7617 42.578 62.011 42.578 62.2603 42.578C62.3711 42.578 62.4889 42.578 62.5997 42.578C62.7382 42.5849 62.8559 42.5295 62.9529 42.4326C63.0498 42.3356 63.1468 42.2387 63.2437 42.1486C63.3615 42.0448 63.4861 41.9547 63.6039 41.8578C63.6939 41.7885 63.7978 41.7262 63.8878 41.6569C63.874 41.5253 63.8532 41.5046 63.7493 41.4976C63.7147 41.4976 63.68 41.4976 63.6523 41.4976C62.5096 41.4976 61.3669 41.4976 60.2242 41.4976C60.0649 41.4976 59.9403 41.4492 59.8364 41.3384C59.504 40.9852 59.1715 40.632 58.8391 40.2788C58.7976 40.2303 58.7352 40.1887 58.7699 40.1125C58.8045 40.0364 58.8737 40.0294 58.9499 40.0294C59.1923 40.0294 59.4416 40.0294 59.684 40.0294C62.1841 40.0294 64.6842 40.0294 67.1774 40.0294C67.3229 40.0294 67.4406 39.9879 67.5445 39.884C67.7176 39.7109 67.8907 39.5377 68.0639 39.3646C68.1124 39.3161 68.1539 39.2676 68.1955 39.2122C68.2578 39.1291 68.2162 39.0252 68.1124 39.0045C68.0639 38.9975 68.0154 39.0045 67.9739 39.0045C64.6773 39.0045 61.3739 39.0045 58.0773 39.0045C57.8834 39.0045 57.7449 38.9352 57.6341 38.7828C57.3709 38.4089 57.1008 38.0349 56.8376 37.6678C56.8792 37.5016 56.893 37.4878 57.0454 37.4878C57.551 37.4878 58.0635 37.4878 58.569 37.4878H69.1027C69.1443 37.4878 69.1858 37.4878 69.2274 37.4878C69.3382 37.4739 69.3936 37.3631 69.3382 37.2731C69.2205 37.0722 69.1027 36.8783 68.9781 36.6844C68.9019 36.5598 68.7911 36.5043 68.6387 36.5043C64.5665 36.5043 60.4874 36.5043 56.4152 36.5043C56.2143 36.5043 56.0897 36.4282 55.9997 36.255C55.8196 35.9018 55.6326 35.5486 55.4456 35.1954C55.3694 35.05 55.4318 34.9461 55.598 34.9461C55.6326 34.9461 55.6672 34.9461 55.6949 34.9461C59.6286 34.9461 63.5623 34.9461 67.496 34.9461C67.5375 34.9461 67.5791 34.9461 67.6207 34.9461C67.7176 34.9323 67.8007 34.8422 67.7869 34.7522C67.7592 34.5791 67.7869 34.4059 67.8076 34.2328C67.8215 34.115 67.7523 34.025 67.6345 34.0112C67.5999 34.0112 67.5583 34.0112 67.5237 34.0112C63.403 34.0112 59.2893 34.0112 55.1686 34.0112C55.0509 34.0112 54.9539 33.9904 54.8846 33.8934C54.8639 33.8657 54.8431 33.8311 54.8292 33.7965C54.6838 33.4086 54.5384 33.0208 54.3999 32.633C54.3514 32.5014 54.4276 32.3975 54.5661 32.3975C54.6007 32.3975 54.6423 32.3975 54.6769 32.3975C58.9153 32.3975 63.1537 32.3975 67.399 32.3975C67.4337 32.3975 67.4752 32.3975 67.5098 32.3975C67.6207 32.3906 67.683 32.2936 67.6414 32.1898C67.5653 32.0235 67.4891 31.8573 67.406 31.6911C67.3367 31.5526 67.219 31.4972 67.0597 31.4972C62.8144 31.4972 58.569 31.4972 54.3237 31.4972C54.2752 31.4972 54.2198 31.4972 54.1713 31.4834C54.0882 31.4487 54.019 31.3864 53.9982 31.2894C53.9012 30.8878 53.8112 30.4861 53.7142 30.0844C53.6865 29.9459 53.7696 29.8489 53.9081 29.842C53.9428 29.842 53.9843 29.842 54.019 29.842H65.8477C65.8477 29.842 65.8962 29.842 65.917 29.842C66.0278 29.8559 66.1178 29.8351 66.1317 29.6758C66.0278 29.5304 65.9378 29.3642 65.8685 29.1772C65.827 29.0664 65.7438 28.9902 65.6123 29.004C65.5569 29.004 65.5014 29.004 65.446 29.004C61.5678 29.004 57.6895 29.004 53.8112 29.004C53.7558 29.004 53.6935 29.004 53.645 28.9902C53.548 28.9486 53.4926 28.8724 53.4788 28.7616C53.4372 28.3807 53.4026 28.0068 53.361 27.6258C53.361 27.5912 53.3541 27.5635 53.3472 27.5289C53.3333 27.3973 53.4095 27.3004 53.5411 27.2865C53.5757 27.2865 53.6173 27.2865 53.6519 27.2865H64.9474C64.982 27.2865 65.0236 27.2865 65.0582 27.2865C65.176 27.2796 65.2521 27.1826 65.2244 27.0649C65.1967 26.9402 65.1621 26.8086 65.1344 26.684C65.1067 26.587 64.9959 26.5039 64.892 26.497C64.8574 26.497 64.8158 26.497 64.7812 26.497H53.6588C53.6588 26.497 53.6034 26.497 53.5757 26.497C53.3818 26.5247 53.271 26.4 53.2779 26.1992C53.2918 25.8668 53.2779 25.5343 53.2779 25.195C53.2779 25.105 53.2779 25.0149 53.2987 24.9249C53.3126 24.8141 53.3957 24.7379 53.5065 24.731C53.5411 24.731 53.5827 24.731 53.6173 24.731C57.4332 24.731 61.2492 24.731 65.0651 24.731C65.2591 24.731 65.3699 24.6548 65.4391 24.4817C65.4738 24.3916 65.5292 24.3155 65.5638 24.2324C65.6192 24.1077 65.5499 23.9969 65.4114 23.9969C65.3768 23.9969 65.3352 23.9969 65.3006 23.9969H53.7281C53.7281 23.9969 53.6727 23.9969 53.645 23.9969C53.4095 23.9969 53.3472 23.9207 53.3818 23.6852C53.4164 23.4082 53.4441 23.1381 53.4788 22.8611C53.4995 22.7087 53.5203 22.5633 53.5411 22.4179C53.5688 22.2586 53.6588 22.1893 53.8389 22.1893C56.1797 22.1893 58.5275 22.1893 60.8683 22.1893C62.7382 22.1893 64.6011 22.1893 66.471 22.1893C66.5472 22.1893 66.6165 22.1963 66.6788 22.1339C66.7411 22.0716 66.755 22.0093 66.7342 21.9262C66.7134 21.8569 66.6926 21.7946 66.6719 21.7253C66.6234 21.573 66.5333 21.5037 66.3741 21.5037C63.4584 21.5037 60.5497 21.5037 57.6341 21.5037C56.4152 21.5037 55.1963 21.5037 53.9774 21.5037C53.9151 21.5037 53.8597 21.5176 53.8043 21.4621C53.7558 21.4067 53.7212 21.3583 53.7419 21.2752C53.8597 20.8112 53.9774 20.3402 54.0951 19.8693C54.1367 19.7169 54.2406 19.6477 54.4068 19.6477C58.2712 19.6477 62.1357 19.6477 65.9932 19.6477C66.0278 19.6477 66.0693 19.6477 66.104 19.6477C66.2286 19.6477 66.2979 19.5507 66.2702 19.426C66.2563 19.3637 66.2425 19.3083 66.2286 19.246C66.1802 19.059 66.104 18.9967 65.9101 18.9967C62.1772 18.9967 58.4444 18.9967 54.7184 18.9967C54.6838 18.9967 54.6423 18.9967 54.6076 18.9967C54.4691 18.9967 54.3929 18.8928 54.4414 18.7612C54.6215 18.2833 54.8085 17.8055 54.9955 17.3345C55.0578 17.1753 55.1686 17.0991 55.3487 17.0991C58.7976 17.0991 62.2465 17.0991 65.6954 17.0991C65.73 17.0991 65.7715 17.0991 65.8062 17.0991C65.9031 17.0991 65.9862 17.009 65.9932 16.919C65.9932 16.8498 65.9932 16.7805 65.9932 16.7043C65.9862 16.6004 65.9031 16.5173 65.7923 16.5104C65.7577 16.5104 65.7161 16.5104 65.6815 16.5104C62.3642 16.5104 59.0469 16.5104 55.7296 16.5104C55.688 16.5104 55.6465 16.5104 55.6049 16.5104C55.4872 16.4966 55.4318 16.3927 55.4802 16.2888C55.7365 15.7625 56.0135 15.2569 56.3182 14.7583C56.3944 14.6267 56.5052 14.5574 56.6784 14.5574C59.8433 14.5574 63.0013 14.5574 66.1663 14.5574C66.3117 14.5574 66.4295 14.5159 66.5334 14.4189C66.6165 14.3358 66.7065 14.2458 66.7896 14.1627C66.748 14.0611 66.6696 14.0103 66.5541 14.0103C64.0055 14.0103 61.4639 14.0103 58.9153 14.0103H57.1493C57.1493 14.0103 57.08 14.0103 57.0523 14.0103C56.9207 14.0034 56.8653 13.8926 56.9415 13.7887C57.1908 13.4355 57.4402 13.0823 57.6964 12.7291C57.8211 12.5559 57.9596 12.3967 58.0842 12.2235C58.202 12.0712 58.3405 12.0019 58.5413 12.0019C61.2146 12.0019 63.8878 12.0019 66.5611 12.0019C66.6026 12.0019 66.6442 12.0019 66.6857 12.0019C66.845 11.9881 66.9558 11.7734 66.8866 11.6349C66.845 11.5587 66.7896 11.5102 66.6996 11.5102C66.6649 11.5102 66.6234 11.5102 66.5888 11.5102H59.0954C59.0954 11.5102 59.0261 11.5102 58.9984 11.5102C58.8737 11.5102 58.8599 11.4894 58.8183 11.344C59.0815 11.06 59.3516 10.7692 59.6217 10.4852C59.8849 10.2151 60.1619 9.95195 60.432 9.68186C60.4805 9.63338 60.5289 9.59183 60.5774 9.55027C60.6674 9.47409 60.7713 9.44639 60.8891 9.44639C61.7963 9.44639 62.7035 9.44639 63.6108 9.44639C64.6773 9.44639 65.7369 9.44639 66.8034 9.44639C66.8727 9.44639 66.935 9.44639 66.9904 9.40484C67.0666 9.34944 67.1012 9.25248 67.0805 9.16937C67.0528 9.08627 66.9766 9.01701 66.8866 9.01009C66.8519 9.01009 66.8104 9.01009 66.7757 9.01009H61.5955C61.5955 9.01009 61.5262 9.01009 61.4985 9.01009C61.4431 9.01009 61.3946 8.99623 61.3739 8.94083C61.3531 8.88543 61.3739 8.84387 61.4223 8.80232C61.5401 8.70536 61.6578 8.60148 61.7825 8.50452C62.4196 7.99204 63.0706 7.51418 63.7493 7.06402C63.7909 7.03632 63.8255 7.00861 63.867 6.98784C63.964 6.93243 64.0679 6.89781 64.1856 6.89781C64.7258 6.89781 65.266 6.89781 65.8062 6.89781C65.9378 6.89781 66.0209 6.85625 66.0693 6.71774C66.0347 6.67619 66.0001 6.62079 65.9585 6.57231C65.917 6.52383 65.8547 6.50305 65.7854 6.50305C65.5361 6.50305 65.2868 6.50305 65.0374 6.50305C64.9128 6.50305 64.8989 6.48228 64.8851 6.34377C65.0236 6.26758 65.1621 6.18448 65.3075 6.10137C65.5776 5.95594 65.8408 5.80358 66.1109 5.66507C66.2494 5.58888 66.3394 5.63736 66.3879 5.7828C66.4225 5.89361 66.4572 5.99749 66.478 6.1083C66.5195 6.32299 66.6303 6.4892 66.7688 6.64849C66.9212 6.82855 67.0666 7.00861 67.219 7.18868C67.2882 7.26486 67.3575 7.34104 67.4337 7.41029C67.6068 7.56265 67.7245 7.75657 67.8354 7.95048C67.9115 8.08207 67.9254 8.23443 67.9185 8.38679C67.9115 8.53222 67.9185 8.67766 67.9185 8.8231C67.9185 8.89235 67.9185 8.95468 67.9185 9.02394C67.9185 9.39791 67.9046 9.77882 67.8977 10.1528C67.8977 10.1666 67.8977 10.1805 67.8977 10.1943C67.8146 10.7692 67.87 11.3509 67.8631 11.9257C67.8631 12.3274 67.8631 12.7222 67.8631 13.1238C67.8631 13.4355 67.7869 13.7264 67.683 14.0172C67.6484 14.1073 67.6345 14.1973 67.6345 14.2942C67.6345 14.4189 67.586 14.5159 67.5029 14.6128C67.4337 14.6959 67.3713 14.779 67.309 14.8691C67.1913 15.0491 67.0874 15.2361 66.9697 15.4162C66.8658 15.5685 66.8104 15.7278 66.8381 15.9148C66.8588 16.088 66.8519 16.2749 66.8381 16.4481C66.8311 16.6212 66.8866 16.7667 66.9904 16.9052C67.0597 16.9883 67.1151 17.0852 67.1636 17.1753C67.2328 17.293 67.2398 17.4246 67.1982 17.5562C67.1636 17.66 67.1359 17.7639 67.1012 17.8678C67.0735 17.9578 67.0874 18.034 67.1774 18.0894C67.219 18.1102 67.2536 18.1448 67.2952 18.1795C67.2675 18.2556 67.2398 18.3249 67.219 18.3941C67.1913 18.4773 67.1705 18.5534 67.1428 18.6365C67.122 18.685 67.1289 18.7266 67.1497 18.7681C67.2467 18.9413 67.2675 19.1283 67.3159 19.3152C67.3159 19.3291 67.3159 19.3429 67.3159 19.3568C67.3298 19.523 67.3298 19.6823 67.3506 19.8485C67.3713 20.0632 67.3921 20.2779 67.4198 20.4926C67.4267 20.5826 67.4406 20.6796 67.4544 20.7696C67.4752 20.9427 67.496 21.1159 67.5237 21.289C67.5583 21.4968 67.5653 21.6976 67.5722 21.9054C67.5722 22.0993 67.586 22.2932 67.5999 22.4802C67.5999 22.5425 67.5999 22.6049 67.6068 22.6603C67.6207 22.9027 67.5168 23.0689 67.3229 23.2004C67.122 23.332 66.935 23.4844 66.7619 23.6437C66.5611 23.8168 66.4295 24.0523 66.2979 24.2808C66.1732 24.4955 66.0555 24.7171 65.9516 24.9388C65.8339 25.1881 65.8062 25.4443 65.8477 25.7213C65.8754 25.9291 65.8962 26.1438 65.9516 26.3446C66.0347 26.6424 66.1317 26.9402 66.2217 27.2311C66.2633 27.3627 66.3048 27.5012 66.3394 27.6328C66.3464 27.6674 66.3533 27.6951 66.3671 27.7297C66.3879 27.7782 66.4156 27.8128 66.471 27.799C66.5195 27.7921 66.5541 27.7574 66.568 27.709C66.568 27.6882 66.568 27.6605 66.5749 27.6397C66.5888 27.2588 66.5957 26.8779 66.6095 26.497C66.6165 26.2477 66.6234 25.9984 66.658 25.749C66.7203 25.285 66.8866 24.8556 67.0943 24.447C67.1497 24.3432 67.2398 24.2739 67.3644 24.267C67.4267 24.267 67.4821 24.2462 67.5445 24.2324C67.773 24.17 68.0016 24.1008 68.237 24.0384C68.4171 23.99 68.5417 24.0523 68.6041 24.2324C68.6803 24.4401 68.7287 24.6548 68.7357 24.8764C68.7357 25.0149 68.7357 25.1465 68.7357 25.285C68.7357 25.3335 68.7426 25.382 68.7634 25.4235C68.7841 25.472 68.8118 25.5205 68.8742 25.5066C68.9227 25.5066 68.9781 25.4374 68.985 25.3751C68.985 25.3266 68.985 25.2781 68.985 25.2365C68.8811 24.5578 68.8672 23.8791 68.888 23.2004C68.888 23.1104 68.9019 23.0135 68.9227 22.9234C68.9711 22.7157 68.9573 22.501 68.9573 22.2932C68.9573 22.0716 68.9781 21.8569 69.0127 21.6353C69.0127 21.6145 69.0127 21.6007 69.0127 21.5799C69.0058 21.3513 69.0404 21.1228 69.075 20.8943C69.1096 20.6865 69.1304 20.4718 69.1789 20.271C69.2551 19.9385 69.352 19.6061 69.4421 19.2806C69.5598 18.8374 69.6845 18.3941 69.8091 17.9509C69.8091 17.9301 69.823 17.9094 69.8368 17.8817C69.9061 17.7293 69.9268 17.5769 69.8507 17.4246C69.816 17.3622 69.8299 17.2999 69.8507 17.2307C69.9268 17.0298 70.01 16.8359 70.1485 16.6766C70.2523 16.5589 70.2801 16.4204 70.2316 16.268C70.1554 16.0395 70.1346 15.804 70.1415 15.5616C70.1415 15.34 70.1277 15.1184 70.1208 14.8968C70.1208 14.8483 70.1069 14.7929 70.0861 14.7444C70.0446 14.6267 70.0446 14.5159 70.1138 14.4051C70.2316 14.2181 70.3424 14.0311 70.467 13.8441C70.5363 13.7402 70.6263 13.6571 70.7441 13.6086C70.9865 13.5047 71.2289 13.3939 71.4643 13.29C71.6167 13.2208 71.769 13.1446 71.9214 13.0754C72.24 12.9299 72.5585 12.7776 72.884 12.6391C73.1195 12.5421 73.3619 12.4659 73.5974 12.3759C73.6666 12.3482 73.7359 12.3205 73.8051 12.2789C73.9714 12.1889 74.1445 12.1335 74.3315 12.0919C74.5669 12.0435 74.7955 11.9742 75.024 11.9188C75.2664 11.8634 75.5088 11.8149 75.7512 11.7664C75.8274 11.7526 75.9105 11.7664 75.9936 11.7664C76.1875 11.7526 76.3814 11.7526 76.5615 11.7041C76.9562 11.6072 77.3579 11.5656 77.7596 11.5725C77.8773 11.5725 77.9951 11.5517 78.1128 11.5448C78.1751 11.5448 78.2444 11.531 78.3067 11.531C78.5907 11.5379 78.8677 11.4963 79.1447 11.4686C79.3802 11.4479 79.6087 11.434 79.8511 11.4479C80.1766 11.4686 80.5021 11.4479 80.8207 11.4479C80.9592 11.4479 81.1046 11.4617 81.2431 11.4756C81.2916 11.4756 81.347 11.4963 81.3955 11.4894C81.6517 11.4686 81.9011 11.5379 82.1504 11.5864C82.2681 11.6072 82.3928 11.6279 82.5105 11.6349C82.8083 11.6487 83.0992 11.6903 83.39 11.7526C83.4801 11.7734 83.5632 11.7872 83.6532 11.8011C83.7571 11.8218 83.854 11.8495 83.9441 11.9049C84.1034 12.0088 84.2765 12.0642 84.4704 12.0781C84.5812 12.085 84.692 12.1266 84.7959 12.1543C84.9137 12.1889 85.0314 12.2166 85.156 12.2097C85.3638 12.2097 85.5647 12.2512 85.7516 12.3413C85.8486 12.3897 85.9525 12.4174 86.0633 12.4382C86.278 12.4798 86.4996 12.5144 86.7143 12.5559C86.7974 12.5767 86.8736 12.6252 86.9567 12.6668C87.0051 12.6875 87.0606 12.7152 87.109 12.736C87.2891 12.8191 87.4761 12.8953 87.6562 12.9923C87.7393 13.0338 87.8085 13.1031 87.8708 13.1723C88.0786 13.387 88.2794 13.6017 88.4803 13.8233C88.5011 13.8441 88.5218 13.8649 88.5357 13.8856C88.6742 14.0311 88.6811 14.0865 88.598 14.2804C88.5703 14.3358 88.5495 14.3912 88.5426 14.4535C88.5288 14.5713 88.4941 14.6821 88.4387 14.786C88.2794 15.0699 88.1617 15.3677 88.0578 15.6793C88.0163 15.8109 88.0301 15.9217 88.1063 16.0395C88.2864 16.3165 88.4526 16.6074 88.6396 16.8844C88.8612 17.2099 89.1036 17.5215 89.346 17.8332C89.4568 17.9717 89.5191 18.1102 89.4776 18.2972C89.4499 18.4218 89.4637 18.5604 89.4706 18.6919C89.4706 19.0659 89.4499 19.433 89.346 19.7931C89.3044 19.9316 89.2282 20.0286 89.0759 20.0355C89.0274 20.0355 88.972 20.0563 88.9235 20.0632C88.8127 20.0909 88.7227 20.0424 88.6465 19.9593L88.6811 20.0286ZM77.6349 31.7604C77.6696 31.8643 77.6903 31.9681 77.7665 32.0512C77.8289 32.1136 77.8704 32.1205 77.9397 32.072C77.9743 32.0513 78.002 32.0166 78.0228 31.982C78.0643 31.9058 78.0989 31.8227 78.1336 31.7396C78.1682 31.6496 78.189 31.5526 78.2098 31.4903C78.2098 31.2894 78.0851 31.2063 77.9327 31.2894C77.8773 31.3241 77.8219 31.3587 77.7665 31.4002C77.6419 31.4903 77.5726 31.6011 77.628 31.7604H77.6349ZM69.4628 33.3671C69.5113 33.4502 69.5598 33.5264 69.6083 33.6095C69.636 33.651 69.6637 33.6995 69.6914 33.7411C69.7883 33.8588 69.8992 33.8657 69.9961 33.7411C70.0584 33.658 70.0931 33.561 70.1208 33.4641C70.1485 33.374 70.1623 33.2701 70.1831 33.1732C70.2108 33.0277 70.2385 32.8892 70.2662 32.7576C70.2662 32.6261 70.2039 32.543 70.1208 32.4668C70.003 32.356 69.913 32.3629 69.816 32.4945C69.8022 32.5083 69.7953 32.5291 69.7883 32.543C69.7399 32.6191 69.6914 32.6953 69.6429 32.7646C69.5944 32.8269 69.5321 32.8823 69.4836 32.9446C69.3659 33.097 69.359 33.2009 69.4628 33.3671ZM67.4475 30.126C67.3783 29.9251 67.2467 29.7589 67.0874 29.6204C66.9489 29.6689 66.942 29.6896 66.9904 29.8005C67.0389 29.9113 67.0943 30.0221 67.1497 30.126C67.1843 30.1814 67.2328 30.2298 67.2813 30.2714C67.3367 30.3199 67.3852 30.306 67.4267 30.2506C67.4614 30.2091 67.4614 30.1675 67.4475 30.119V30.126ZM70.474 36.9476C70.4255 36.816 70.3632 36.6913 70.3078 36.5598C70.1623 36.2066 69.9546 35.8741 69.8437 35.5002C69.7883 35.327 69.6845 35.1954 69.5182 35.1123C69.3867 35.0431 69.352 34.9461 69.3867 34.7938C69.4005 34.7314 69.4074 34.676 69.4282 34.6137C69.4698 34.489 69.4282 34.3851 69.352 34.2882C69.3243 34.2605 69.2966 34.2328 69.2759 34.2051C69.2066 34.122 69.1789 34.025 69.2274 33.9142C69.2482 33.8657 69.262 33.8173 69.2828 33.7688C69.3451 33.6233 69.3313 33.4918 69.2274 33.374C69.2066 33.3532 69.1927 33.3325 69.172 33.3048C69.0681 33.187 69.0196 33.0485 68.985 32.8962C68.9573 32.7715 68.9642 32.6468 69.0473 32.536C69.075 32.5014 69.0958 32.4529 69.1235 32.4183C69.2066 32.2867 69.2066 32.1551 69.1235 32.0305C69.0265 31.8781 68.9642 31.7119 68.895 31.5457C68.8188 31.3725 68.7841 31.1856 68.7634 30.9986C68.7564 30.9362 68.7634 30.867 68.7772 30.8047C68.798 30.7077 68.8257 30.6107 68.8534 30.5207C68.9088 30.3545 68.8811 30.2091 68.7634 30.0775C68.6733 29.9736 68.5902 29.8628 68.5279 29.7451C68.4517 29.6135 68.3825 29.475 68.2786 29.3503C68.2024 29.2603 68.1539 29.1564 68.1539 29.0317C68.1539 28.8794 68.1539 28.7339 68.1401 28.5816C68.1262 28.3877 68.1539 28.1937 68.244 28.0206C68.3548 27.8059 68.4864 27.6051 68.611 27.4042C68.6872 27.2865 68.7772 27.1757 68.8049 27.0303C68.8465 26.8086 68.8742 26.587 68.9157 26.3654C68.9088 26.2823 68.8811 26.2338 68.8188 26.22C68.7495 26.1992 68.7149 26.2477 68.6803 26.2962C68.6179 26.3793 68.5556 26.4624 68.5002 26.5455C68.2924 26.8433 68.0016 27.0441 67.6691 27.1688C67.4475 27.2519 67.3436 27.4042 67.3229 27.6328C67.3159 27.7436 67.2882 27.8544 67.2744 27.9652C67.2467 28.1383 67.2121 28.3045 67.1982 28.4777C67.1705 28.727 67.1982 28.9763 67.3229 29.2049C67.4267 29.3919 67.5722 29.5442 67.7384 29.6758C67.8492 29.7658 67.9531 29.8766 68.05 29.9805C68.1124 30.0498 68.0916 30.1329 68.0154 30.1814C67.9808 30.2021 67.9392 30.216 67.8977 30.2298C67.8561 30.2437 67.8146 30.2506 67.7799 30.2714C67.6622 30.3268 67.6414 30.4168 67.6968 30.5207C67.8492 30.8116 68.0016 31.1025 68.1539 31.3933C68.1955 31.4764 68.2301 31.5665 68.2786 31.6496C68.3409 31.7604 68.4309 31.8366 68.5625 31.8573C68.6595 31.8712 68.7287 31.9404 68.7634 32.0305C68.7911 32.1067 68.8049 32.1967 68.8257 32.2729C68.8465 32.3629 68.8395 32.446 68.798 32.536C68.7634 32.6122 68.7287 32.6884 68.6941 32.7646C68.6456 32.8823 68.6249 32.9931 68.6733 33.1178C68.701 33.187 68.7218 33.2632 68.7564 33.3255C68.8326 33.4641 68.8465 33.6026 68.7841 33.748C68.7495 33.8311 68.7149 33.9211 68.6803 34.0112C68.6249 34.1635 68.6595 34.2743 68.7772 34.3782C68.798 34.399 68.8257 34.4128 68.8395 34.4336C68.9227 34.5167 68.9642 34.6137 68.9227 34.7383C68.8672 34.8769 68.8326 35.0292 68.798 35.1747C68.7634 35.3201 68.8119 35.424 68.9434 35.4863C68.9781 35.5002 69.0127 35.514 69.0473 35.5279C69.1581 35.5694 69.2343 35.6387 69.2759 35.7425C69.3243 35.8603 69.4005 35.9642 69.4698 36.068C69.4975 36.1165 69.5321 36.165 69.5529 36.2135C69.6706 36.4628 69.7814 36.719 69.8991 36.9684C69.9407 37.0584 69.9823 37.1484 70.0307 37.2315C70.0723 37.3077 70.1346 37.3562 70.2246 37.3423C70.4047 37.3146 70.5294 37.0999 70.467 36.9268L70.474 36.9476ZM71.0419 34.122C71.0419 34.0527 71.0419 33.9765 71.028 33.9142C70.9726 33.7064 70.9172 33.4987 70.8549 33.2909C70.8272 33.2078 70.7856 33.1247 70.6887 33.1247C70.5986 33.1247 70.5571 33.2009 70.5224 33.2771C70.474 33.3948 70.4186 33.5056 70.3701 33.6233C70.3285 33.7203 70.287 33.8242 70.2523 33.9281C70.2039 34.0873 70.2177 34.1705 70.4047 34.2951C70.5017 34.3574 70.5986 34.4059 70.6956 34.4613C70.8618 34.5514 71.0211 34.4752 71.0349 34.2813C71.0349 34.2328 71.0349 34.1774 71.0349 34.1289L71.0419 34.122ZM71.9837 34.3436C71.9976 34.2743 71.9699 34.2259 71.9075 34.1912C71.8521 34.1566 71.8037 34.1774 71.7621 34.212C71.6998 34.2674 71.6305 34.3159 71.5751 34.3851C71.4366 34.5514 71.312 34.7245 71.1804 34.8976C71.1388 34.953 71.118 35.0223 71.0903 35.0915C71.125 35.1954 71.1596 35.2924 71.2011 35.3824C71.2358 35.4724 71.2981 35.5417 71.3812 35.5971C71.4574 35.6456 71.5197 35.6456 71.589 35.5971C71.6582 35.5417 71.6998 35.4725 71.7206 35.3893C71.7898 35.1123 71.8591 34.8353 71.9283 34.5583C71.9422 34.489 71.9699 34.4198 71.9768 34.3574L71.9837 34.3436ZM72.0114 20.9081C72.2192 20.8389 72.42 20.7419 72.6486 20.735C72.794 20.735 72.9395 20.6726 73.0918 20.7142C73.1888 20.7419 73.2926 20.7419 73.3965 20.7488C73.5489 20.7627 73.6943 20.7696 73.8467 20.7904C74.1791 20.8389 74.5185 20.8943 74.8578 20.8666C74.9825 20.8666 75.1002 20.8666 75.2249 20.8666C75.3842 20.8804 75.5434 20.9012 75.6958 20.922C75.8828 20.9427 76.0698 20.9704 76.2568 20.9912C76.3052 20.9912 76.3606 21.0051 76.4091 21.0051C76.5684 21.0051 76.7277 21.0051 76.887 20.9912C77.0047 20.9843 77.1155 20.9843 77.2333 21.0258C77.3371 21.0674 77.4064 21.0258 77.441 20.922C77.4549 20.8873 77.4549 20.8458 77.4618 20.8111C77.4826 20.638 77.5103 20.4579 77.5241 20.2848C77.5241 20.2225 77.538 20.1602 77.5103 20.1047C77.4133 19.8831 77.2887 19.6823 77.0532 19.5715C76.9008 19.5022 76.7554 19.433 76.603 19.3706C76.4992 19.3291 76.3953 19.2806 76.2845 19.2598C76.0144 19.2114 75.7374 19.2044 75.4673 19.2391C75.2318 19.2737 75.0033 19.2391 74.7678 19.2114C74.5323 19.1906 74.3038 19.149 74.0683 19.1906C73.9575 19.2114 73.8467 19.2183 73.729 19.2252C73.535 19.2391 73.3481 19.246 73.1541 19.2529C72.8633 19.2668 72.5793 19.336 72.2954 19.4053C72.1292 19.4468 72.0184 19.5507 71.9352 19.6961C71.7344 20.0493 71.5266 20.4025 71.3258 20.7627C71.2981 20.8042 71.2842 20.8596 71.2635 20.9012C71.2427 20.9427 71.2635 20.9843 71.2842 21.0189C71.3397 21.0882 71.3812 21.102 71.4712 21.0812C71.6513 21.0258 71.8314 20.9704 72.0045 20.9081H72.0114ZM73.7913 24.3778C73.8398 24.3986 73.9021 24.3916 73.9575 24.3986C74.1376 24.3709 74.3176 24.3501 74.5046 24.3224C74.5947 24.3085 74.6916 24.3016 74.7816 24.2878C75.1695 24.2254 75.5573 24.1492 75.9451 24.0938C76.0975 24.0731 76.236 24.0246 76.3606 23.9346C76.4784 23.8445 76.5269 23.7614 76.4368 23.6229C76.3745 23.5329 76.3745 23.429 76.4091 23.3251C76.4299 23.2766 76.4368 23.2212 76.4507 23.1727C76.4853 23.0689 76.5823 23.0273 76.6861 23.055C76.797 23.0896 76.9008 23.1243 77.0047 23.1589C77.1363 23.2004 77.2125 23.145 77.1779 23.0065C77.1432 22.8957 77.1017 22.778 77.0393 22.681C76.9424 22.5287 76.8316 22.3902 76.7208 22.2517C76.6584 22.1755 76.5892 22.0993 76.5199 22.03C76.4507 21.9608 76.3676 21.9192 76.2637 21.94C76.1944 21.9539 76.1252 21.9608 76.0559 21.9608C75.9036 21.9608 75.7512 21.9539 75.6058 21.9746C75.3634 22.0162 75.1279 22.0577 74.8855 22.0785C74.7678 22.0854 74.6501 22.0993 74.5323 22.1131C74.3384 22.1408 74.1445 22.1824 73.9506 22.217C73.7567 22.2517 73.5627 22.3071 73.3688 22.3278C73.2442 22.3417 73.1472 22.3971 73.0572 22.4802C72.8702 22.6672 72.6832 22.8542 72.5101 23.0481C72.3993 23.1727 72.3023 23.3043 72.2053 23.4359C72.1499 23.5121 72.1499 23.5467 72.1984 23.6021C72.2469 23.6575 72.3092 23.6645 72.3785 23.6229C72.3993 23.6091 72.42 23.5883 72.4477 23.5675C72.6486 23.4013 72.8494 23.242 73.0364 23.0689C73.1403 22.9788 73.2442 22.9442 73.3688 22.9927C73.445 23.0204 73.5212 23.0065 73.6043 22.9927C73.8051 22.9373 74.006 22.8888 74.2068 22.8334C74.2414 22.8265 74.283 22.8265 74.3176 22.8195C74.4354 22.8057 74.5115 22.8819 74.5669 22.9719C74.6016 23.0204 74.5946 23.0689 74.5669 23.1173C74.5254 23.1935 74.4561 23.2212 74.3661 23.2004C74.3176 23.1866 74.2691 23.1727 74.2207 23.2143C74.1376 23.2766 74.1237 23.3113 74.1445 23.4221C74.1514 23.4636 74.1653 23.5052 74.1791 23.5467C74.2068 23.6506 74.1445 23.7545 74.0475 23.7683C73.8744 23.803 73.6943 23.8237 73.5212 23.8514C73.4381 23.8653 73.355 23.8722 73.2719 23.8861C73.2303 23.893 73.1818 23.9207 73.1749 23.9761C73.168 24.0315 73.1888 24.0661 73.2372 24.0938C73.4242 24.1839 73.6043 24.2808 73.7913 24.3639V24.3778ZM73.6528 25.3058C74.0198 25.472 74.38 25.6382 74.7678 25.7352C74.8717 25.7629 74.9686 25.756 75.0725 25.7352C75.2179 25.6936 75.3703 25.6452 75.5227 25.6105C75.8551 25.5274 76.1806 25.4097 76.4784 25.2435C76.8108 25.0634 77.1294 24.8764 77.4618 24.6894C77.5588 24.634 77.6488 24.5786 77.7111 24.4886C77.6973 24.3847 77.6211 24.3362 77.5311 24.3224C77.3164 24.2808 77.1086 24.2462 76.8939 24.2116C76.8039 24.1977 76.7139 24.2116 76.6307 24.2531C76.5615 24.2878 76.4992 24.3224 76.4368 24.3639C76.1737 24.5301 75.8897 24.6548 75.6058 24.7725C75.5088 24.8141 75.4049 24.8556 75.308 24.9041C75.0586 25.0426 74.7816 25.1257 74.4977 25.1257C74.1722 25.1257 73.8398 25.1742 73.5212 25.0357C73.5212 25.0357 73.5143 25.0357 73.5073 25.0357C73.4589 25.0288 73.4173 25.0565 73.4242 25.105C73.4242 25.1327 73.445 25.1742 73.4658 25.1881C73.5212 25.2365 73.5835 25.285 73.6528 25.3127V25.3058ZM77.7319 26.8156C77.7319 26.8156 77.6557 26.8156 77.628 26.8363C77.538 26.8848 77.448 26.9333 77.3579 26.9887C76.9493 27.2311 76.5338 27.4804 76.1252 27.7228C76.0074 27.7921 75.9313 27.889 75.8897 28.0206C75.8343 28.2007 75.772 28.3807 75.6889 28.5469C75.4811 28.9763 75.2664 29.4057 75.0448 29.8351C74.9894 29.939 74.9201 30.0359 74.844 30.119C74.7401 30.2368 74.6154 30.3406 74.5046 30.4584C74.4561 30.5069 74.4007 30.5484 74.373 30.6038C74.2691 30.7839 74.1237 30.9224 73.9921 31.0678C73.9644 31.0955 73.9436 31.1232 73.9229 31.1579C73.8605 31.2479 73.8605 31.2894 73.9367 31.3656C73.9575 31.3864 73.9783 31.4072 73.999 31.421C74.1445 31.5249 74.3245 31.4972 74.4423 31.5318C74.5946 31.5457 74.6847 31.5111 74.7678 31.4349C74.8024 31.4002 74.844 31.3656 74.8855 31.331C74.9548 31.2756 75.031 31.2271 75.1071 31.1786C75.2941 31.0748 75.4811 30.9847 75.6612 30.8739C75.9105 30.7285 76.146 30.5692 76.3884 30.4168C76.5476 30.3199 76.6723 30.1952 76.7623 30.0429C76.8662 29.8766 76.9632 29.7035 77.0601 29.5304C77.1155 29.4334 77.1432 29.3364 77.1225 29.2187C77.1155 29.1633 77.1225 29.1079 77.1225 29.0525C77.1571 28.9001 77.1502 28.7478 77.1086 28.5954C77.0671 28.4638 77.0463 28.3323 77.0047 28.2007C76.9562 28.0552 76.9839 27.9306 77.0809 27.8198C77.2333 27.6397 77.3856 27.4666 77.538 27.2865C77.6211 27.1895 77.7111 27.0857 77.7873 26.9818C77.8427 26.9125 77.8012 26.8086 77.718 26.7948L77.7319 26.8156ZM109.388 24.6479C109.402 25.2019 109.437 25.756 109.409 26.31C109.381 26.8779 109.375 27.4458 109.312 28.0137C109.271 28.3946 109.243 28.7824 109.181 29.1633C109.098 29.6966 109.001 30.2368 108.89 30.7631C108.668 31.8781 108.343 32.9654 107.948 34.0319C106.971 36.6913 105.552 39.0945 103.744 41.2691C102.878 42.3079 101.937 43.2775 100.919 44.1709C100.129 44.8634 99.3049 45.5144 98.4392 46.11C96.1676 47.696 93.709 48.9149 91.0912 49.8152C89.9831 50.1961 88.8543 50.5216 87.7046 50.7709C87.1644 50.8886 86.6242 50.9925 86.0771 51.0964C85.7309 51.1587 85.3846 51.2141 85.0383 51.2695C84.7751 51.3111 84.512 51.3388 84.2419 51.3665C84.041 51.3873 83.8402 51.415 83.6394 51.4357C83.3623 51.4634 83.0853 51.4911 82.8152 51.5119C82.6005 51.5327 82.3789 51.5396 82.1642 51.5466C81.721 51.5673 81.2778 51.5881 80.8276 51.602C80.3151 51.6089 79.7957 51.602 79.2832 51.602C78.8885 51.602 78.4937 51.5881 78.0989 51.5673C77.7527 51.5466 77.4064 51.5188 77.0601 51.4911C76.79 51.4704 76.5199 51.4496 76.2498 51.4219C75.8205 51.3734 75.3842 51.318 74.9548 51.2488C74.5046 51.1795 74.0545 51.1172 73.6112 51.0341C72.7594 50.8748 71.9145 50.6809 71.0765 50.4523C68.7911 49.8359 66.5957 48.9772 64.5042 47.8553C62.3642 46.7056 60.3974 45.3205 58.6244 43.6653C57.3848 42.5088 56.2559 41.2414 55.2656 39.8632C53.7558 37.7717 52.5992 35.5001 51.8167 33.0416C51.5119 32.0789 51.2626 31.1094 51.0895 30.1121C51.0341 29.8005 50.9856 29.4888 50.9371 29.1772C50.8956 28.9001 50.854 28.6231 50.8263 28.3392C50.7986 28.0483 50.7778 27.7574 50.757 27.4666C50.7363 27.0926 50.7086 26.7186 50.7016 26.3377C50.6878 25.6867 50.6947 25.0288 50.7293 24.3778C50.7363 24.2116 50.7432 24.0523 50.764 23.8861C50.8055 23.4705 50.8471 23.0619 50.9025 22.6464C50.9648 22.1893 51.0341 21.7392 51.1172 21.289C51.3042 20.3125 51.5604 19.3499 51.8721 18.4011C52.3291 17.009 52.9178 15.6724 53.6242 14.3843C54.4068 12.9576 55.321 11.6279 56.3598 10.3813C57.0454 9.5572 57.7795 8.78154 58.5621 8.04744C59.1854 7.45877 59.8364 6.90473 60.5151 6.37839C62.2118 5.06255 64.0332 3.96139 65.9724 3.04722C67.6276 2.27157 69.3382 1.64827 71.0973 1.17041C71.8521 0.962645 72.607 0.789508 73.3758 0.637147C73.7359 0.567892 74.096 0.512488 74.4561 0.450158C74.7539 0.401679 75.0517 0.353201 75.3495 0.311648C75.6265 0.270095 75.9105 0.242393 76.1875 0.214691C76.4161 0.186989 76.6377 0.166212 76.8662 0.145436C77.1848 0.117734 77.5034 0.0900316 77.8289 0.0692551C78.1336 0.0484785 78.4452 0.041553 78.7499 0.027702C78.7915 0.027702 78.8331 0.013851 78.8746 0H81.2224C81.2224 0 81.2778 0.0207765 81.3055 0.0207765C81.5894 0.0346275 81.8664 0.0484786 82.1504 0.0623296C82.3581 0.0692551 82.5659 0.0761806 82.7737 0.0969571C83.2308 0.13851 83.6878 0.186989 84.1449 0.235467C84.5535 0.283946 84.9621 0.332424 85.3638 0.394754C85.8486 0.470934 86.3265 0.560966 86.8043 0.650998C87.7323 0.824135 88.6534 1.05268 89.5676 1.32277C91.8946 2.00147 94.1176 2.92949 96.2299 4.1276C98.1691 5.23568 99.9558 6.5446 101.583 8.07514C102.664 9.09319 103.661 10.2013 104.554 11.3925C106.577 14.0934 108.01 17.0714 108.786 20.361C109.028 21.379 109.194 22.4109 109.305 23.4567C109.347 23.8514 109.381 24.2462 109.388 24.641V24.6479ZM107.92 24.7033C107.913 24.3293 107.879 23.9553 107.837 23.5814C107.733 22.591 107.574 21.6145 107.345 20.6449C106.604 17.5215 105.247 14.689 103.322 12.1266C102.47 10.9908 101.528 9.94503 100.503 8.97546C98.9586 7.5211 97.2618 6.27451 95.4196 5.22876C93.4182 4.08605 91.3059 3.20651 89.0897 2.56244C88.224 2.31312 87.3514 2.0915 86.465 1.92529C86.0079 1.84218 85.5508 1.75215 85.0937 1.6829C84.7059 1.62057 84.325 1.57902 83.9371 1.53054C83.5008 1.48206 83.0715 1.44051 82.6352 1.39895C82.4412 1.37818 82.2404 1.37125 82.0465 1.36432C81.7764 1.35047 81.5132 1.34355 81.2431 1.3297C81.2154 1.3297 81.1946 1.31585 81.1669 1.30892H78.9369C78.8954 1.31585 78.8538 1.3297 78.8192 1.3297C78.5283 1.34355 78.2375 1.35047 77.9466 1.36432C77.6419 1.3851 77.3372 1.4128 77.0324 1.44051C76.8177 1.46128 76.603 1.48206 76.3884 1.50284C76.1252 1.53054 75.8551 1.55824 75.5919 1.59979C75.308 1.64135 75.024 1.6829 74.747 1.73138C74.4077 1.78678 74.0614 1.84218 73.722 1.91144C72.9949 2.05688 72.2746 2.22309 71.5613 2.417C69.8853 2.87409 68.2647 3.46275 66.6926 4.20378C64.8505 5.06947 63.1191 6.12215 61.5054 7.36874C60.8614 7.86738 60.245 8.39371 59.6494 8.95468C58.9084 9.64723 58.2089 10.3883 57.5579 11.1708C56.5675 12.3551 55.7019 13.6225 54.9608 14.9729C54.2891 16.1918 53.735 17.4661 53.2987 18.7889C53.0009 19.6892 52.7585 20.6034 52.5785 21.5314C52.4953 21.9608 52.433 22.3902 52.3707 22.8195C52.3153 23.2074 52.2807 23.6021 52.2391 23.9969C52.2253 24.1492 52.2183 24.3085 52.2045 24.4609C52.1698 25.0842 52.1629 25.7006 52.1768 26.3239C52.1768 26.684 52.2045 27.0372 52.2253 27.3973C52.2391 27.6743 52.2599 27.9513 52.2876 28.2284C52.3153 28.4915 52.3499 28.7616 52.3915 29.0248C52.433 29.3226 52.4815 29.6204 52.5369 29.9113C52.7031 30.8531 52.9386 31.7812 53.2295 32.6953C53.9774 35.0292 55.0786 37.19 56.5052 39.1776C57.4471 40.4865 58.5136 41.6916 59.6979 42.7858C61.3877 44.3579 63.2507 45.6806 65.2868 46.7679C67.2744 47.8345 69.352 48.6448 71.5266 49.2334C72.3231 49.4481 73.1264 49.6282 73.9367 49.7875C74.3592 49.8706 74.7886 49.9329 75.211 49.9952C75.6196 50.0576 76.0282 50.106 76.4368 50.1545C76.6931 50.1822 76.9493 50.203 77.2056 50.2238C77.5311 50.2515 77.8635 50.2792 78.189 50.3C78.563 50.3207 78.9439 50.3277 79.3178 50.3346C79.8096 50.3346 80.2943 50.3415 80.786 50.3346C81.2085 50.3277 81.631 50.3 82.0534 50.2861C82.2612 50.2792 82.4689 50.2653 82.6698 50.2515C82.933 50.2307 83.1961 50.203 83.4524 50.1753C83.6463 50.1545 83.8333 50.1337 84.0272 50.113C84.2765 50.0853 84.5327 50.0576 84.7821 50.0229C85.1145 49.9745 85.44 49.926 85.7655 49.8637C86.278 49.7667 86.7974 49.6697 87.3099 49.5589C88.4041 49.3235 89.4706 49.0118 90.5302 48.6517C93.0165 47.7929 95.3504 46.6364 97.5112 45.1335C98.3284 44.5656 99.1109 43.9493 99.8658 43.2913C100.835 42.4395 101.729 41.5253 102.553 40.535C104.27 38.4712 105.614 36.1858 106.542 33.658C106.916 32.6468 107.221 31.6149 107.435 30.5553C107.539 30.0498 107.629 29.5442 107.705 29.0317C107.761 28.6716 107.789 28.3045 107.83 27.9375C107.892 27.3973 107.899 26.8571 107.927 26.3169C107.948 25.7906 107.927 25.2643 107.906 24.7379L107.92 24.7033ZM61.4362 132.056L79.9758 120.566L61.4362 109.077V132.062V132.056ZM98.5084 132.056V109.07L79.9688 120.559L98.5084 132.049V132.056Z" fill="white"/>
</svg>
