<svg width="16" height="17" viewBox="0 0 16 17" fill="none" xmlns="http://www.w3.org/2000/svg">
<path fill-rule="evenodd" clip-rule="evenodd" d="M11.7113 11.7918L12.8935 7.15387L11.1659 8.28802C10.8214 8.51443 10.4044 8.59257 10.0047 8.50564C9.6049 8.41871 9.25414 8.17366 9.02771 7.8231L7.89074 6.06235L6.753 7.82391C6.52645 8.17433 6.17563 8.41922 5.77586 8.506C5.3761 8.59277 4.95926 8.51451 4.61485 8.28802L2.88872 7.15387L4.07094 11.7918H11.7121H11.7113ZM3.30698 6.47499C2.70846 6.08166 1.9523 6.65034 2.13256 7.35818L3.31557 11.9961C3.35936 12.168 3.45716 12.3201 3.59367 12.4287C3.73019 12.5372 3.89774 12.5961 4.07016 12.5962H11.7113C11.8837 12.5961 12.0513 12.5372 12.1878 12.4287C12.3243 12.3201 12.4221 12.168 12.4659 11.9961L13.6489 7.35818C13.8284 6.65034 13.073 6.08246 12.4745 6.47499L10.7468 7.60914C10.5747 7.72242 10.3663 7.76162 10.1664 7.71831C9.96651 7.67499 9.79107 7.55263 9.67774 7.37748L8.53999 5.61593C8.46873 5.50577 8.37218 5.41544 8.25892 5.35297C8.14567 5.2905 8.0192 5.25781 7.89074 5.25781C7.76229 5.25781 7.63582 5.2905 7.52256 5.35297C7.4093 5.41544 7.31276 5.50577 7.24149 5.61593L6.10375 7.37748C5.99053 7.55276 5.81515 7.67529 5.61526 7.71875C5.41538 7.76222 5.20693 7.72315 5.03467 7.60995L3.30698 6.47499Z" fill="white"/>
<path d="M8.62819 3.83598C8.6284 4.03757 8.5509 4.231 8.41276 4.3737C8.27461 4.5164 8.08712 4.59669 7.89154 4.5969C7.69597 4.59712 7.50832 4.51724 7.36987 4.37484C7.23143 4.23244 7.15354 4.03918 7.15334 3.83759C7.15313 3.63599 7.23062 3.44257 7.36877 3.29986C7.50692 3.15716 7.69441 3.07687 7.88998 3.07666C8.08556 3.07645 8.27321 3.15633 8.41165 3.29873C8.55009 3.44113 8.62799 3.63438 8.62819 3.83598ZM14.5245 5.35702C14.5246 5.55862 14.447 5.752 14.3088 5.89463C14.1706 6.03726 13.983 6.11744 13.7875 6.11755C13.5919 6.11765 13.4043 6.03767 13.2659 5.8952C13.1275 5.75272 13.0497 5.55943 13.0496 5.35783C13.0496 5.15623 13.1273 4.96289 13.2656 4.82034C13.4039 4.67779 13.5915 4.59771 13.7871 4.59771C13.9826 4.59771 14.1702 4.67779 14.3085 4.82034C14.4468 4.96289 14.5245 5.15543 14.5245 5.35702ZM2.73267 5.35702C2.73272 5.45685 2.7137 5.5557 2.67668 5.64794C2.63967 5.74018 2.5854 5.82401 2.51696 5.89463C2.44852 5.96525 2.36725 6.02129 2.2778 6.05953C2.18835 6.09778 2.09247 6.1175 1.99563 6.11755C1.89879 6.1176 1.80289 6.09799 1.7134 6.05984C1.62391 6.02169 1.54259 5.96574 1.47408 5.8952C1.40556 5.82465 1.3512 5.74089 1.3141 5.64868C1.27699 5.55648 1.25786 5.45765 1.25781 5.35783C1.25781 5.15623 1.33551 4.96289 1.4738 4.82034C1.61209 4.67779 1.79966 4.59771 1.99524 4.59771C2.19082 4.59771 2.37839 4.67779 2.51668 4.82034C2.65498 4.96289 2.73267 5.15543 2.73267 5.35702Z" fill="white"/>
<path fill-rule="evenodd" clip-rule="evenodd" d="M4.18359 13.535C4.18359 13.4283 4.2247 13.326 4.29787 13.2506C4.37104 13.1752 4.47029 13.1328 4.57377 13.1328H11.3917C11.4951 13.1328 11.5944 13.1752 11.6676 13.2506C11.7407 13.326 11.7818 13.4283 11.7818 13.535C11.7818 13.6417 11.7407 13.744 11.6676 13.8194C11.5944 13.8948 11.4951 13.9372 11.3917 13.9372H4.57377C4.47029 13.9372 4.37104 13.8948 4.29787 13.8194C4.2247 13.744 4.18359 13.6417 4.18359 13.535Z" fill="white"/>
</svg>
