<svg width="72" height="66" viewBox="0 0 72 66" fill="none" xmlns="http://www.w3.org/2000/svg">
<path d="M12.2529 2.72559C16.0334 0.803311 20.2998 0.101824 24.4814 0.71582C28.6632 1.32989 32.5626 3.23041 35.6562 6.16309L36 6.48926L36.3438 6.16309C39.4374 3.23041 43.3368 1.32989 47.5186 0.71582C51.7002 0.101825 55.9666 0.803311 59.7471 2.72559L59.75 2.72656C62.7482 4.22881 65.3525 6.43707 67.3467 9.16895C69.3408 11.9009 70.6677 15.0778 71.2158 18.4365C71.7639 21.7953 71.5177 25.239 70.498 28.4814C69.5421 31.521 67.9319 34.3014 65.7891 36.6221L65.3535 37.0801L38.4414 64.4678L38.4404 64.4688C38.1195 64.7962 37.7388 65.0556 37.3203 65.2324C36.9016 65.4093 36.4528 65.5 36 65.5H35.9971C35.5409 65.5029 35.0884 65.4131 34.666 65.2363C34.2436 65.0594 33.8586 64.7989 33.5352 64.4688V64.4678L6.64648 37.0801C4.28562 34.6711 2.52161 31.7237 1.50195 28.4814C0.482269 25.239 0.236058 21.7953 0.78418 18.4365C1.33232 15.0778 2.65915 11.9009 4.65332 9.16895C6.64746 6.43707 9.25177 4.22881 12.25 2.72656L12.2529 2.72559ZM21.3066 3.62598C18.6447 3.6089 16.0181 4.24247 13.6475 5.47266C11.0454 6.78628 8.78989 8.71325 7.06836 11.0918C5.34694 13.4703 4.20875 16.2322 3.74805 19.1475L3.74707 19.1504C3.31727 21.9896 3.5486 24.8923 4.42285 27.624C5.29713 30.3557 6.79054 32.8407 8.78223 34.8789L8.7832 34.8799L35.6914 62.2676L36.0488 62.6318L36.4053 62.2676L63.2178 34.8789C65.2095 32.8407 66.7029 30.3557 67.5771 27.624C68.4514 24.8923 68.6827 21.9896 68.2529 19.1504L68.252 19.1475L68.1582 18.6025C67.6473 15.8882 66.5455 13.3217 64.9316 11.0918C63.2101 8.71325 60.9546 6.78628 58.3525 5.47266L58.3477 5.46973C54.9728 3.81167 51.173 3.26729 47.4785 3.91211C43.7862 4.55661 40.3843 6.35666 37.7471 9.06055C37.2792 9.5277 36.6517 9.78809 36 9.78809C35.3483 9.78809 34.7208 9.5277 34.2529 9.06055H34.252C30.8037 5.59657 26.1573 3.6443 21.3086 3.62598H21.3066Z" fill="#AB563E" stroke="white"/>
</svg>
